ISO-10303-21;
HEADER;
FILE_DESCRIPTION (( 'STEP AP214' ),
    '1' );
FILE_NAME ('AngledPin.STEP',
    '2026-04-07T14:05:25',
    ( '' ),
    ( '' ),
    'SwSTEP 2.0',
    'SolidWorks 2025',
    '' );
FILE_SCHEMA (( 'AUTOMOTIVE_DESIGN' ));
ENDSEC;

DATA;
#1 = CARTESIAN_POINT ( 'NONE',  ( 0.2425000000000000211, 0.4862204724409449064, -0.1181102362204724532 ) ) ;
#2 = VERTEX_POINT ( 'NONE', #351 ) ;
#3 = DIRECTION ( 'NONE',  ( 1.565634906116251953E-16, 0.000000000000000000, 1.000000000000000000 ) ) ;
#4 = DIRECTION ( 'NONE',  ( 2.731847993664264205E-16, -1.000000000000000000, 0.000000000000000000 ) ) ;
#5 =( CONVERSION_BASED_UNIT ( 'INCH', #344 ) LENGTH_UNIT ( ) NAMED_UNIT ( #172 ) );
#6 = EDGE_LOOP ( 'NONE', ( #201, #339, #491, #587 ) ) ;
#7 = LINE ( 'NONE', #50, #526 ) ;
#8 = CARTESIAN_POINT ( 'NONE',  ( 0.2425000000000000211, 0.5999999999999999778, -0.1181102362204724532 ) ) ;
#9 = VECTOR ( 'NONE', #370, 39.37007874015748143 ) ;
#10 = EDGE_LOOP ( 'NONE', ( #615, #280, #59, #508 ) ) ;
#11 = LENGTH_MEASURE_WITH_UNIT ( LENGTH_MEASURE( 0.02539999999999999897 ), #111 );
#12 = VERTEX_POINT ( 'NONE', #51 ) ;
#13 =( NAMED_UNIT ( * ) SI_UNIT ( $, .STERADIAN. ) SOLID_ANGLE_UNIT ( ) );
#14 = FACE_OUTER_BOUND ( 'NONE', #190, .T. ) ;
#15 = CARTESIAN_POINT ( 'NONE',  ( 0.1250000000000000555, 3.414809992080331488E-17, 0.1181102362204724532 ) ) ;
#16 = EDGE_CURVE ( 'NONE', #88, #498, #242, .T. ) ;
#17 = AXIS2_PLACEMENT_3D ( 'NONE', #534, #171, #77 ) ;
#18 = DIRECTION ( 'NONE',  ( -0.000000000000000000, -0.000000000000000000, -1.000000000000000000 ) ) ;
#19 = PLANE ( 'NONE',  #345 ) ;
#20 = DIRECTION ( 'NONE',  ( -1.000000000000000000, 0.000000000000000000, 0.000000000000000000 ) ) ;
#21 = EDGE_CURVE ( 'NONE', #576, #56, #255, .T. ) ;
#22 = CARTESIAN_POINT ( 'NONE',  ( 0.2425000000000000211, 0.5999999999999999778, 0.000000000000000000 ) ) ;
#23 = CARTESIAN_POINT ( 'NONE',  ( 0.1249999999999999306, 0.3612204724409448509, 0.1181102362204724532 ) ) ;
#24 = VERTEX_POINT ( 'NONE', #42 ) ;
#25 = FACE_OUTER_BOUND ( 'NONE', #454, .T. ) ;
#26 = ORIENTED_EDGE ( 'NONE', *, *, #285, .F. ) ;
#27 = EDGE_CURVE ( 'NONE', #183, #564, #206, .T. ) ;
#28 = CARTESIAN_POINT ( 'NONE',  ( -0.1250000000000000833, 0.4862204724409449064, 0.1181102362204724532 ) ) ;
#29 = CARTESIAN_POINT ( 'NONE',  ( -0.1600828400668139473, -0.04462693637758756438, 0.04539290439688719453 ) ) ;
#30 = VERTEX_POINT ( 'NONE', #613 ) ;
#31 = CARTESIAN_POINT ( 'NONE',  ( 0.000000000000000000, 0.5999999999999999778, 0.1181102362204724532 ) ) ;
#32 = VERTEX_POINT ( 'NONE', #8 ) ;
#33 = CARTESIAN_POINT ( 'NONE',  ( 0.2425000000000000211, 0.3612204724409448509, 0.1181102362204724532 ) ) ;
#34 = ORIENTED_EDGE ( 'NONE', *, *, #76, .F. ) ;
#35 = EDGE_CURVE ( 'NONE', #121, #186, #411, .T. ) ;
#36 = DIRECTION ( 'NONE',  ( 1.000000000000000000, 0.000000000000000000, 0.000000000000000000 ) ) ;
#37 = MECHANICAL_DESIGN_GEOMETRIC_PRESENTATION_REPRESENTATION (  '', ( #335 ), #69 ) ;
#38 = ORIENTED_EDGE ( 'NONE', *, *, #430, .F. ) ;
#39 = CARTESIAN_POINT ( 'NONE',  ( 0.000000000000000000, -0.2999999999999999889, 0.1181102362204724532 ) ) ;
#40 = ORIENTED_EDGE ( 'NONE', *, *, #296, .T. ) ;
#41 = DIRECTION ( 'NONE',  ( -2.731847993664262725E-16, -1.000000000000000000, 0.000000000000000000 ) ) ;
#42 = CARTESIAN_POINT ( 'NONE',  ( 0.2425000000000000211, 0.000000000000000000, -0.1181102362204724532 ) ) ;
#43 = ORIENTED_EDGE ( 'NONE', *, *, #538, .T. ) ;
#44 = FACE_OUTER_BOUND ( 'NONE', #10, .T. ) ;
#45 = DIRECTION ( 'NONE',  ( 0.000000000000000000, 1.000000000000000000, 0.000000000000000000 ) ) ;
#46 = VECTOR ( 'NONE', #282, 39.37007874015748143 ) ;
#47 = VECTOR ( 'NONE', #544, 39.37007874015748143 ) ;
#48 =( NAMED_UNIT ( * ) PLANE_ANGLE_UNIT ( ) SI_UNIT ( $, .RADIAN. ) );
#49 = VERTEX_POINT ( 'NONE', #318 ) ;
#50 = CARTESIAN_POINT ( 'NONE',  ( -0.2425000000000000211, 0.000000000000000000, 0.000000000000000000 ) ) ;
#51 = CARTESIAN_POINT ( 'NONE',  ( -0.1830698106066523390, -0.06233333333333335863, -0.006889763779527552021 ) ) ;
#52 = EDGE_CURVE ( 'NONE', #630, #435, #580, .T. ) ;
#53 = ORIENTED_EDGE ( 'NONE', *, *, #21, .T. ) ;
#54 = CARTESIAN_POINT ( 'NONE',  ( 0.000000000000000000, 0.3612204724409448509, 0.1181102362204724532 ) ) ;
#55 = DIRECTION ( 'NONE',  ( 0.000000000000000000, -1.000000000000000000, 0.000000000000000000 ) ) ;
#56 = VERTEX_POINT ( 'NONE', #209 ) ;
#57 = FACE_OUTER_BOUND ( 'NONE', #605, .T. ) ;
#58 = VECTOR ( 'NONE', #78, 39.37007874015748143 ) ;
#59 = ORIENTED_EDGE ( 'NONE', *, *, #98, .F. ) ;
#60 = VECTOR ( 'NONE', #375, 39.37007874015748143 ) ;
#61 = DIRECTION ( 'NONE',  ( 1.000000000000000000, -0.000000000000000000, 0.000000000000000000 ) ) ;
#62 = CARTESIAN_POINT ( 'NONE',  ( -0.3424999999999999711, 0.000000000000000000, -0.1181102362204724532 ) ) ;
#63 = DIRECTION ( 'NONE',  ( 0.000000000000000000, 0.000000000000000000, 1.000000000000000000 ) ) ;
#64 = EDGE_CURVE ( 'NONE', #435, #12, #187, .T. ) ;
#65 = CARTESIAN_POINT ( 'NONE',  ( 0.2425000000000000211, 0.3612204724409448509, 0.1181102362204724532 ) ) ;
#66 = DIRECTION ( 'NONE',  ( -2.731847993664262725E-16, -1.000000000000000000, 0.000000000000000000 ) ) ;
#67 = CARTESIAN_POINT ( 'NONE',  ( -0.3424999999999999711, -0.1000000000000000056, -0.1181102362204724532 ) ) ;
#68 = VECTOR ( 'NONE', #141, 39.37007874015748143 ) ;
#69 =( GEOMETRIC_REPRESENTATION_CONTEXT ( 3 ) GLOBAL_UNCERTAINTY_ASSIGNED_CONTEXT ( ( #137 ) ) GLOBAL_UNIT_ASSIGNED_CONTEXT ( ( #205, #155, #13 ) ) REPRESENTATION_CONTEXT ( 'NONE', 'WORKASPACE' ) );
#70 = CARTESIAN_POINT ( 'NONE',  ( 0.1249999999999999167, 0.4862204724409449064, -0.1181102362204724532 ) ) ;
#71 = FACE_OUTER_BOUND ( 'NONE', #486, .T. ) ;
#72 = ORIENTED_EDGE ( 'NONE', *, *, #166, .F. ) ;
#73 = DIRECTION ( 'NONE',  ( 0.000000000000000000, 0.000000000000000000, 1.000000000000000000 ) ) ;
#74 = PLANE ( 'NONE',  #524 ) ;
#75 = ORIENTED_EDGE ( 'NONE', *, *, #21, .F. ) ;
#76 = EDGE_CURVE ( 'NONE', #614, #331, #514, .T. ) ;
#77 = DIRECTION ( 'NONE',  ( 1.565634906116251706E-16, 0.000000000000000000, 1.000000000000000000 ) ) ;
#78 = DIRECTION ( 'NONE',  ( -0.000000000000000000, -1.000000000000000000, -0.000000000000000000 ) ) ;
#79 = ORIENTED_EDGE ( 'NONE', *, *, #438, .T. ) ;
#80 = EDGE_CURVE ( 'NONE', #2, #594, #510, .T. ) ;
#81 = VECTOR ( 'NONE', #377, 39.37007874015748143 ) ;
#82 = PLANE ( 'NONE',  #211 ) ;
#83 = AXIS2_PLACEMENT_3D ( 'NONE', #650, #497, #36 ) ;
#84 = CARTESIAN_POINT ( 'NONE',  ( -0.2425000000000000211, 0.5999999999999999778, -0.1181102362204724532 ) ) ;
#85 = ORIENTED_EDGE ( 'NONE', *, *, #184, .T. ) ;
#86 = EDGE_CURVE ( 'NONE', #152, #462, #420, .T. ) ;
#87 = LINE ( 'NONE', #33, #483 ) ;
#88 = VERTEX_POINT ( 'NONE', #271 ) ;
#89 = LINE ( 'NONE', #519, #305 ) ;
#90 = ORIENTED_EDGE ( 'NONE', *, *, #91, .T. ) ;
#91 = EDGE_CURVE ( 'NONE', #564, #290, #170, .T. ) ;
#92 = CARTESIAN_POINT ( 'NONE',  ( 0.3425000000000000266, 0.000000000000000000, -0.000000000000000000 ) ) ;
#93 = ORIENTED_EDGE ( 'NONE', *, *, #488, .T. ) ;
#94 = ADVANCED_FACE ( 'NONE', ( #520 ), #156, .T. ) ;
#95 = PRODUCT_CONTEXT ( 'NONE', #577, 'mechanical' ) ;
#96 = LINE ( 'NONE', #191, #217 ) ;
#97 = CARTESIAN_POINT ( 'NONE',  ( 0.1250000000000000555, 3.414809992080331488E-17, -0.1181102362204724532 ) ) ;
#98 = EDGE_CURVE ( 'NONE', #553, #290, #408, .T. ) ;
#99 = DIRECTION ( 'NONE',  ( 1.000000000000000000, 0.000000000000000000, 0.000000000000000000 ) ) ;
#100 = CARTESIAN_POINT ( 'NONE',  ( 0.3425000000000000266, -0.1000000000000000056, 0.1181102362204724532 ) ) ;
#101 = SURFACE_STYLE_FILL_AREA ( #612 ) ;
#102 = ORIENTED_EDGE ( 'NONE', *, *, #285, .T. ) ;
#103 = VECTOR ( 'NONE', #419, 39.37007874015748143 ) ;
#104 = ORIENTED_EDGE ( 'NONE', *, *, #606, .F. ) ;
#105 = FACE_OUTER_BOUND ( 'NONE', #656, .T. ) ;
#106 = PRODUCT_RELATED_PRODUCT_CATEGORY ( 'part', '', ( #232 ) ) ;
#107 = ORIENTED_EDGE ( 'NONE', *, *, #302, .F. ) ;
#108 = CARTESIAN_POINT ( 'NONE',  ( -0.2425000000000000211, 0.3612204724409448509, 0.1181102362204724532 ) ) ;
#109 = CARTESIAN_POINT ( 'NONE',  ( -0.2425000000000000211, 0.5999999999999999778, 0.000000000000000000 ) ) ;
#110 = EDGE_CURVE ( 'NONE', #195, #594, #561, .T. ) ;
#111 =( LENGTH_UNIT ( ) NAMED_UNIT ( * ) SI_UNIT ( $, .METRE. ) );
#112 = DIRECTION ( 'NONE',  ( -1.000000000000000000, 0.000000000000000000, 0.000000000000000000 ) ) ;
#113 = EDGE_CURVE ( 'NONE', #564, #576, #165, .T. ) ;
#114 = DIRECTION ( 'NONE',  ( -1.000000000000000000, 0.000000000000000000, 0.000000000000000000 ) ) ;
#115 = PLANE ( 'NONE',  #654 ) ;
#116 = ADVANCED_FACE ( 'NONE', ( #105 ), #115, .F. ) ;
#117 = DIRECTION ( 'NONE',  ( 0.000000000000000000, 0.000000000000000000, -1.000000000000000000 ) ) ;
#118 = CARTESIAN_POINT ( 'NONE',  ( 0.1249999999999999167, 0.4862204724409449064, 0.1181102362204724532 ) ) ;
#119 = DIRECTION ( 'NONE',  ( 0.000000000000000000, 0.000000000000000000, -1.000000000000000000 ) ) ;
#120 = CARTESIAN_POINT ( 'NONE',  ( 0.000000000000000000, 0.000000000000000000, 0.000000000000000000 ) ) ;
#121 = VERTEX_POINT ( 'NONE', #62 ) ;
#122 = VECTOR ( 'NONE', #415, 39.37007874015748143 ) ;
#123 = DIRECTION ( 'NONE',  ( -1.000000000000000000, 0.000000000000000000, 0.000000000000000000 ) ) ;
#124 = CARTESIAN_POINT ( 'NONE',  ( -0.2425000000000000211, 0.000000000000000000, -0.1181102362204724532 ) ) ;
#125 = ORIENTED_EDGE ( 'NONE', *, *, #366, .T. ) ;
#126 = CARTESIAN_POINT ( 'NONE',  ( 0.000000000000000000, 0.5999999999999999778, 0.1181102362204724532 ) ) ;
#127 = DIRECTION ( 'NONE',  ( 0.000000000000000000, -0.000000000000000000, -1.000000000000000000 ) ) ;
#128 = ORIENTED_EDGE ( 'NONE', *, *, #147, .T. ) ;
#129 = ADVANCED_FACE ( 'NONE', ( #311 ), #467, .T. ) ;
#130 = DIRECTION ( 'NONE',  ( 1.000000000000000000, 0.000000000000000000, 0.000000000000000000 ) ) ;
#131 = DIRECTION ( 'NONE',  ( 0.000000000000000000, -1.000000000000000000, 0.000000000000000000 ) ) ;
#132 = ORIENTED_EDGE ( 'NONE', *, *, #202, .T. ) ;
#133 = VECTOR ( 'NONE', #61, 39.37007874015748143 ) ;
#134 = LINE ( 'NONE', #298, #428 ) ;
#135 = ORIENTED_EDGE ( 'NONE', *, *, #221, .F. ) ;
#136 = ADVANCED_FACE ( 'NONE', ( #469 ), #19, .T. ) ;
#137 = UNCERTAINTY_MEASURE_WITH_UNIT (LENGTH_MEASURE( 1.000000000000000082E-05 ), #205, 'distance_accuracy_value', 'NONE');
#138 = FILL_AREA_STYLE_COLOUR ( '', #293 ) ;
#139 = ORIENTED_EDGE ( 'NONE', *, *, #637, .F. ) ;
#140 = ADVANCED_FACE ( 'NONE', ( #457 ), #74, .T. ) ;
#141 = DIRECTION ( 'NONE',  ( -1.000000000000000000, -0.000000000000000000, 1.565634906116251706E-16 ) ) ;
#142 = ORIENTED_EDGE ( 'NONE', *, *, #225, .T. ) ;
#143 = VECTOR ( 'NONE', #227, 39.37007874015748143 ) ;
#144 = CARTESIAN_POINT ( 'NONE',  ( 0.2425000000000000211, 0.5999999999999999778, 0.000000000000000000 ) ) ;
#145 = VECTOR ( 'NONE', #289, 39.37007874015748143 ) ;
#146 = ORIENTED_EDGE ( 'NONE', *, *, #110, .F. ) ;
#147 = EDGE_CURVE ( 'NONE', #24, #556, #236, .T. ) ;
#148 = LINE ( 'NONE', #350, #459 ) ;
#149 = VERTEX_POINT ( 'NONE', #328 ) ;
#150 = ORIENTED_EDGE ( 'NONE', *, *, #80, .F. ) ;
#151 = CARTESIAN_POINT ( 'NONE',  ( -0.2425000000000000211, 0.5999999999999999778, -0.1181102362204724532 ) ) ;
#152 = VERTEX_POINT ( 'NONE', #84 ) ;
#153 = ORIENTED_EDGE ( 'NONE', *, *, #265, .F. ) ;
#154 = ADVANCED_FACE ( 'NONE', ( #71 ), #380, .T. ) ;
#155 =( NAMED_UNIT ( * ) PLANE_ANGLE_UNIT ( ) SI_UNIT ( $, .RADIAN. ) );
#156 = PLANE ( 'NONE',  #384 ) ;
#157 = AXIS2_PLACEMENT_3D ( 'NONE', #15, #320, #216 ) ;
#158 = ORIENTED_EDGE ( 'NONE', *, *, #76, .T. ) ;
#159 = PLANE ( 'NONE',  #496 ) ;
#160 = ORIENTED_EDGE ( 'NONE', *, *, #86, .F. ) ;
#161 = CARTESIAN_POINT ( 'NONE',  ( 0.000000000000000000, 0.3612204724409448509, -0.1181102362204724532 ) ) ;
#162 = DIRECTION ( 'NONE',  ( 2.731847993664264205E-16, -1.000000000000000000, 0.000000000000000000 ) ) ;
#163 = ORIENTED_EDGE ( 'NONE', *, *, #202, .F. ) ;
#164 = DIRECTION ( 'NONE',  ( 1.000000000000000000, -2.731847993664262725E-16, 0.000000000000000000 ) ) ;
#165 = LINE ( 'NONE', #118, #622 ) ;
#166 = EDGE_CURVE ( 'NONE', #12, #395, #536, .T. ) ;
#167 = VECTOR ( 'NONE', #162, 39.37007874015748143 ) ;
#168 = VECTOR ( 'NONE', #595, 39.37007874015748143 ) ;
#169 = DIRECTION ( 'NONE',  ( 0.000000000000000000, 0.000000000000000000, -1.000000000000000000 ) ) ;
#170 = LINE ( 'NONE', #368, #167 ) ;
#171 = DIRECTION ( 'NONE',  ( -1.000000000000000000, 0.000000000000000000, 1.565634906116251706E-16 ) ) ;
#172 = DIMENSIONAL_EXPONENTS ( 1.000000000000000000, 0.000000000000000000, 0.000000000000000000, 0.000000000000000000, 0.000000000000000000, 0.000000000000000000, 0.000000000000000000 ) ;
#173 = LINE ( 'NONE', #324, #481 ) ;
#174 = DIRECTION ( 'NONE',  ( 0.000000000000000000, -0.000000000000000000, -1.000000000000000000 ) ) ;
#175 = LINE ( 'NONE', #539, #46 ) ;
#176 = ORIENTED_EDGE ( 'NONE', *, *, #352, .F. ) ;
#177 = AXIS2_PLACEMENT_3D ( 'NONE', #471, #131, #127 ) ;
#178 = DIRECTION ( 'NONE',  ( 1.000000000000000000, -0.000000000000000000, 0.000000000000000000 ) ) ;
#179 = CARTESIAN_POINT ( 'NONE',  ( 0.000000000000000000, 0.000000000000000000, 0.1181102362204724532 ) ) ;
#180 = ORIENTED_EDGE ( 'NONE', *, *, #296, .F. ) ;
#181 = LINE ( 'NONE', #632, #188 ) ;
#182 = CARTESIAN_POINT ( 'NONE',  ( 0.2425000000000000211, 0.4862204724409449064, 0.1181102362204724532 ) ) ;
#183 = VERTEX_POINT ( 'NONE', #182 ) ;
#184 = EDGE_CURVE ( 'NONE', #653, #576, #535, .T. ) ;
#185 = CARTESIAN_POINT ( 'NONE',  ( 0.000000000000000000, 0.000000000000000000, -0.1181102362204724532 ) ) ;
#186 = VERTEX_POINT ( 'NONE', #124 ) ;
#187 = CIRCLE ( 'NONE', #314, 0.2999999999999999889 ) ;
#188 = VECTOR ( 'NONE', #178, 39.37007874015748143 ) ;
#189 = CARTESIAN_POINT ( 'NONE',  ( 0.2425000000000000211, 0.000000000000000000, 0.1181102362204724532 ) ) ;
#190 = EDGE_LOOP ( 'NONE', ( #38, #135, #458, #248 ) ) ;
#191 = CARTESIAN_POINT ( 'NONE',  ( 0.1249999999999999306, 0.3612204724409448509, 0.1181102362204724532 ) ) ;
#192 = EDGE_LOOP ( 'NONE', ( #432, #388, #611, #224, #584, #79, #501, #180 ) ) ;
#193 = CARTESIAN_POINT ( 'NONE',  ( 0.3425000000000000266, -0.1000000000000000056, -0.1181102362204724532 ) ) ;
#194 = CYLINDRICAL_SURFACE ( 'NONE', #83, 0.2999999999999999889 ) ;
#195 = VERTEX_POINT ( 'NONE', #431 ) ;
#196 = AXIS2_PLACEMENT_3D ( 'NONE', #546, #652, #243 ) ;
#197 = DIRECTION ( 'NONE',  ( -0.000000000000000000, -1.000000000000000000, -0.000000000000000000 ) ) ;
#198 = VECTOR ( 'NONE', #433, 39.37007874015748143 ) ;
#199 = EDGE_LOOP ( 'NONE', ( #453, #40, #543, #329 ) ) ;
#200 = DIRECTION ( 'NONE',  ( 1.000000000000000000, 0.000000000000000000, 0.000000000000000000 ) ) ;
#201 = ORIENTED_EDGE ( 'NONE', *, *, #147, .F. ) ;
#202 = EDGE_CURVE ( 'NONE', #504, #540, #629, .T. ) ;
#203 =( LENGTH_UNIT ( ) NAMED_UNIT ( * ) SI_UNIT ( $, .METRE. ) );
#204 = EDGE_LOOP ( 'NONE', ( #645, #146, #107, #374 ) ) ;
#205 =( CONVERSION_BASED_UNIT ( 'INCH', #11 ) LENGTH_UNIT ( ) NAMED_UNIT ( #489 ) );
#206 = LINE ( 'NONE', #398, #407 ) ;
#207 = ORIENTED_EDGE ( 'NONE', *, *, #366, .F. ) ;
#208 = FACE_OUTER_BOUND ( 'NONE', #204, .T. ) ;
#209 = CARTESIAN_POINT ( 'NONE',  ( 0.1249999999999999306, 0.3612204724409448509, -0.1181102362204724532 ) ) ;
#210 = VECTOR ( 'NONE', #112, 39.37007874015748143 ) ;
#211 = AXIS2_PLACEMENT_3D ( 'NONE', #22, #130, #117 ) ;
#212 = ORIENTED_EDGE ( 'NONE', *, *, #502, .F. ) ;
#213 = LINE ( 'NONE', #54, #549 ) ;
#214 = DIRECTION ( 'NONE',  ( 0.000000000000000000, 0.000000000000000000, 1.000000000000000000 ) ) ;
#215 = PLANE ( 'NONE',  #385 ) ;
#216 = DIRECTION ( 'NONE',  ( -2.731847993664264205E-16, 1.000000000000000000, 0.000000000000000000 ) ) ;
#217 = VECTOR ( 'NONE', #445, 39.37007874015748143 ) ;
#218 = CARTESIAN_POINT ( 'NONE',  ( -0.2425000000000000211, 0.5999999999999999778, 0.1181102362204724532 ) ) ;
#219 = CARTESIAN_POINT ( 'NONE',  ( 0.000000000000000000, 0.4862204724409449064, 0.1181102362204724532 ) ) ;
#220 = LINE ( 'NONE', #31, #284 ) ;
#221 = EDGE_CURVE ( 'NONE', #152, #32, #477, .T. ) ;
#222 = CARTESIAN_POINT ( 'NONE',  ( -0.1250000000000000833, 0.4862204724409449064, 0.1181102362204724532 ) ) ;
#223 = CARTESIAN_POINT ( 'NONE',  ( -0.1830698106066523390, -0.06233333333333335863, -0.006889763779527552021 ) ) ;
#224 = ORIENTED_EDGE ( 'NONE', *, *, #166, .T. ) ;
#225 = EDGE_CURVE ( 'NONE', #149, #183, #586, .T. ) ;
#226 = CARTESIAN_POINT ( 'NONE',  ( -0.1250000000000001110, 0.3612204724409448509, -0.1181102362204724532 ) ) ;
#227 = DIRECTION ( 'NONE',  ( 1.000000000000000000, -0.000000000000000000, 0.000000000000000000 ) ) ;
#228 = ORIENTED_EDGE ( 'NONE', *, *, #256, .T. ) ;
#229 = AXIS2_PLACEMENT_3D ( 'NONE', #272, #421, #627 ) ;
#230 = VECTOR ( 'NONE', #640, 39.37007874015748143 ) ;
#231 = CARTESIAN_POINT ( 'NONE',  ( 0.2425000000000000211, 0.000000000000000000, -0.000000000000000000 ) ) ;
#232 = PRODUCT ( 'AngledPin', 'AngledPin', '', ( #95 ) ) ;
#233 = CARTESIAN_POINT ( 'NONE',  ( -0.1077032961426901414, -0.02000000000000003164, 0.1181102362204724532 ) ) ;
#234 = ORIENTED_EDGE ( 'NONE', *, *, #35, .F. ) ;
#235 = ADVANCED_FACE ( 'NONE', ( #523 ), #425, .T. ) ;
#236 = LINE ( 'NONE', #185, #9 ) ;
#237 = ORIENTED_EDGE ( 'NONE', *, *, #389, .T. ) ;
#238 = CARTESIAN_POINT ( 'NONE',  ( -0.3424999999999999711, -0.1000000000000000056, -0.1181102362204724532 ) ) ;
#239 = EDGE_LOOP ( 'NONE', ( #360, #163, #371, #277 ) ) ;
#240 = AXIS2_PLACEMENT_3D ( 'NONE', #468, #330, #73 ) ;
#241 = LINE ( 'NONE', #294, #168 ) ;
#242 = LINE ( 'NONE', #100, #262 ) ;
#243 = DIRECTION ( 'NONE',  ( 0.000000000000000000, 0.3207704881402390629, 0.9471569531699974842 ) ) ;
#244 = ORIENTED_EDGE ( 'NONE', *, *, #253, .T. ) ;
#245 = EDGE_CURVE ( 'NONE', #402, #498, #287, .T. ) ;
#246 = DIRECTION ( 'NONE',  ( -0.000000000000000000, -0.000000000000000000, -1.000000000000000000 ) ) ;
#247 = ORIENTED_EDGE ( 'NONE', *, *, #64, .T. ) ;
#248 = ORIENTED_EDGE ( 'NONE', *, *, #265, .T. ) ;
#249 = PLANE ( 'NONE',  #623 ) ;
#250 = VECTOR ( 'NONE', #442, 39.37007874015748143 ) ;
#251 = ORIENTED_EDGE ( 'NONE', *, *, #418, .F. ) ;
#252 = PRODUCT_DEFINITION ( 'UNKNOWN', '', #646, #439 ) ;
#253 = EDGE_CURVE ( 'NONE', #2, #474, #175, .T. ) ;
#254 = CARTESIAN_POINT ( 'NONE',  ( 0.2425000000000000211, 0.5999999999999999778, -0.1181102362204724532 ) ) ;
#255 = LINE ( 'NONE', #97, #515 ) ;
#256 = EDGE_CURVE ( 'NONE', #381, #121, #579, .T. ) ;
#257 = ORIENTED_EDGE ( 'NONE', *, *, #225, .F. ) ;
#258 = LINE ( 'NONE', #354, #396 ) ;
#259 = DIRECTION ( 'NONE',  ( 0.000000000000000000, -0.000000000000000000, -1.000000000000000000 ) ) ;
#260 = ORIENTED_EDGE ( 'NONE', *, *, #479, .F. ) ;
#261 = PLANE ( 'NONE',  #505 ) ;
#262 = VECTOR ( 'NONE', #45, 39.37007874015748143 ) ;
#263 = AXIS2_PLACEMENT_3D ( 'NONE', #310, #268, #513 ) ;
#264 = ORIENTED_EDGE ( 'NONE', *, *, #52, .F. ) ;
#265 = EDGE_CURVE ( 'NONE', #462, #149, #220, .T. ) ;
#266 = CARTESIAN_POINT ( 'NONE',  ( -0.2425000000000000211, 0.4862204724409449064, 0.1181102362204724532 ) ) ;
#267 = CARTESIAN_POINT ( 'NONE',  ( -0.1250000000000001110, 0.3612204724409448509, 0.1181102362204724532 ) ) ;
#268 = DIRECTION ( 'NONE',  ( 1.000000000000000000, 0.000000000000000000, 0.000000000000000000 ) ) ;
#269 = DIRECTION ( 'NONE',  ( 0.000000000000000000, 0.000000000000000000, 1.000000000000000000 ) ) ;
#270 = CARTESIAN_POINT ( 'NONE',  ( 0.1249999999999999167, 0.4862204724409449064, 0.1181102362204724532 ) ) ;
#271 = CARTESIAN_POINT ( 'NONE',  ( 0.3424999999999999711, -0.02000000000000000736, 0.1181102362204723422 ) ) ;
#272 = CARTESIAN_POINT ( 'NONE',  ( 0.000000000000000000, -0.2999999999999999889, -0.006889763779527552021 ) ) ;
#273 = ADVANCED_FACE ( 'NONE', ( #322 ), #276, .T. ) ;
#274 = AXIS2_PLACEMENT_3D ( 'NONE', #484, #307, #200 ) ;
#275 = PLANE ( 'NONE',  #470 ) ;
#276 = PLANE ( 'NONE',  #229 ) ;
#277 = ORIENTED_EDGE ( 'NONE', *, *, #110, .T. ) ;
#278 = CARTESIAN_POINT ( 'NONE',  ( 0.000000000000000000, 0.3612204724409448509, -0.1181102362204724532 ) ) ;
#279 = DIRECTION ( 'NONE',  ( 0.000000000000000000, 1.000000000000000000, -0.000000000000000000 ) ) ;
#280 = ORIENTED_EDGE ( 'NONE', *, *, #389, .F. ) ;
#281 = CARTESIAN_POINT ( 'NONE',  ( -0.2425000000000000211, 0.5999999999999999778, 0.1181102362204724532 ) ) ;
#282 = DIRECTION ( 'NONE',  ( -1.000000000000000000, 0.000000000000000000, 0.000000000000000000 ) ) ;
#283 = EDGE_LOOP ( 'NONE', ( #406, #348, #641, #409 ) ) ;
#284 = VECTOR ( 'NONE', #527, 39.37007874015748143 ) ;
#285 = EDGE_CURVE ( 'NONE', #553, #402, #173, .T. ) ;
#286 = FACE_OUTER_BOUND ( 'NONE', #199, .T. ) ;
#287 = LINE ( 'NONE', #179, #81 ) ;
#288 = ORIENTED_EDGE ( 'NONE', *, *, #316, .F. ) ;
#289 = DIRECTION ( 'NONE',  ( 0.000000000000000000, 0.000000000000000000, 1.000000000000000000 ) ) ;
#290 = VERTEX_POINT ( 'NONE', #23 ) ;
#291 = FACE_OUTER_BOUND ( 'NONE', #192, .T. ) ;
#292 = EDGE_LOOP ( 'NONE', ( #355, #158, #551, #562 ) ) ;
#293 = COLOUR_RGB ( '',0.7921568627450980005, 0.8196078431372548767, 0.9333333333333333481 ) ;
#294 = CARTESIAN_POINT ( 'NONE',  ( -0.2425000000000000211, 0.4862204724409449064, 0.1181102362204724532 ) ) ;
#295 = EDGE_LOOP ( 'NONE', ( #104, #604, #128, #441, #139, #228, #547, #639, #260, #150, #244, #378, #383, #43, #85, #53 ) ) ;
#296 = EDGE_CURVE ( 'NONE', #88, #658, #531, .T. ) ;
#297 = APPLICATION_PROTOCOL_DEFINITION ( 'draft international standard', 'automotive_design', 1998, #361 ) ;
#298 = CARTESIAN_POINT ( 'NONE',  ( 0.3424999999999999711, -0.06233333333333331699, -0.006889763779527552021 ) ) ;
#299 = ORIENTED_EDGE ( 'NONE', *, *, #659, .F. ) ;
#300 = DIRECTION ( 'NONE',  ( -0.000000000000000000, -0.000000000000000000, -1.000000000000000000 ) ) ;
#301 = ORIENTED_EDGE ( 'NONE', *, *, #386, .F. ) ;
#302 = EDGE_CURVE ( 'NONE', #590, #195, #643, .T. ) ;
#303 = VECTOR ( 'NONE', #269, 39.37007874015748143 ) ;
#304 = FACE_OUTER_BOUND ( 'NONE', #337, .T. ) ;
#305 = VECTOR ( 'NONE', #114, 39.37007874015748143 ) ;
#306 = ORIENTED_EDGE ( 'NONE', *, *, #495, .T. ) ;
#307 = DIRECTION ( 'NONE',  ( 0.000000000000000000, 0.000000000000000000, 1.000000000000000000 ) ) ;
#308 = EDGE_LOOP ( 'NONE', ( #299, #451, #288, #493, #427, #26, #482, #596, #424, #257, #153, #581, #528, #545, #93, #391, #212, #34 ) ) ;
#309 = DIRECTION ( 'NONE',  ( 1.000000000000000000, 0.000000000000000000, 0.000000000000000000 ) ) ;
#310 = CARTESIAN_POINT ( 'NONE',  ( 0.2425000000000000211, 0.5999999999999999778, 0.000000000000000000 ) ) ;
#311 = FACE_OUTER_BOUND ( 'NONE', #312, .T. ) ;
#312 = EDGE_LOOP ( 'NONE', ( #75, #334, #90, #237 ) ) ;
#313 = CARTESIAN_POINT ( 'NONE',  ( 0.000000000000000000, 0.000000000000000000, -0.1181102362204724532 ) ) ;
#314 = AXIS2_PLACEMENT_3D ( 'NONE', #363, #63, #563 ) ;
#315 = VECTOR ( 'NONE', #18, 39.37007874015748143 ) ;
#316 = EDGE_CURVE ( 'NONE', #88, #630, #500, .T. ) ;
#317 = PLANE ( 'NONE',  #263 ) ;
#318 = CARTESIAN_POINT ( 'NONE',  ( -0.2425000000000000211, 0.000000000000000000, 0.1181102362204724532 ) ) ;
#319 = DIRECTION ( 'NONE',  ( 0.000000000000000000, 0.000000000000000000, 1.000000000000000000 ) ) ;
#320 = DIRECTION ( 'NONE',  ( 1.000000000000000000, 2.731847993664264205E-16, -0.000000000000000000 ) ) ;
#321 = ADVANCED_FACE ( 'NONE', ( #291 ), #390, .F. ) ;
#322 = FACE_OUTER_BOUND ( 'NONE', #443, .T. ) ;
#323 = EDGE_CURVE ( 'NONE', #630, #395, #568, .T. ) ;
#324 = CARTESIAN_POINT ( 'NONE',  ( 0.2425000000000000211, 0.5999999999999999778, 0.1181102362204724532 ) ) ;
#325 = ORIENTED_EDGE ( 'NONE', *, *, #533, .T. ) ;
#326 = VECTOR ( 'NONE', #197, 39.37007874015748143 ) ;
#327 = LINE ( 'NONE', #218, #633 ) ;
#328 = CARTESIAN_POINT ( 'NONE',  ( 0.2425000000000000211, 0.5999999999999999778, 0.1181102362204724532 ) ) ;
#329 = ORIENTED_EDGE ( 'NONE', *, *, #343, .T. ) ;
#330 = DIRECTION ( 'NONE',  ( 0.000000000000000000, 1.000000000000000000, -0.000000000000000000 ) ) ;
#331 = VERTEX_POINT ( 'NONE', #492 ) ;
#332 = CARTESIAN_POINT ( 'NONE',  ( 0.000000000000000000, 0.3612204724409448509, 0.1181102362204724532 ) ) ;
#333 = DIRECTION ( 'NONE',  ( -1.000000000000000000, 0.000000000000000000, -0.000000000000000000 ) ) ;
#334 = ORIENTED_EDGE ( 'NONE', *, *, #113, .F. ) ;
#335 = STYLED_ITEM ( 'NONE', ( #560 ), #465 ) ;
#336 = CARTESIAN_POINT ( 'NONE',  ( 0.3424999999999999711, -0.1000000000000000056, -0.1181102362204725503 ) ) ;
#337 = EDGE_LOOP ( 'NONE', ( #142, #125, #404, #400 ) ) ;
#338 = CARTESIAN_POINT ( 'NONE',  ( -0.2425000000000000211, 0.5999999999999999778, 0.1181102362204724532 ) ) ;
#339 = ORIENTED_EDGE ( 'NONE', *, *, #616, .T. ) ;
#340 = EDGE_CURVE ( 'NONE', #12, #435, #134, .T. ) ;
#341 = LINE ( 'NONE', #144, #145 ) ;
#342 = EDGE_LOOP ( 'NONE', ( #450, #234, #353, #537 ) ) ;
#343 = EDGE_CURVE ( 'NONE', #556, #498, #647, .T. ) ;
#344 = LENGTH_MEASURE_WITH_UNIT ( LENGTH_MEASURE( 0.02539999999999999897 ), #203 );
#345 = AXIS2_PLACEMENT_3D ( 'NONE', #219, #55, #259 ) ;
#346 = PRESENTATION_LAYER_ASSIGNMENT (  '', '', ( #335 ) ) ;
#347 = CARTESIAN_POINT ( 'NONE',  ( -0.1250000000000002220, 3.414809992080334570E-17, 0.1181102362204724532 ) ) ;
#348 = ORIENTED_EDGE ( 'NONE', *, *, #609, .F. ) ;
#349 = CARTESIAN_POINT ( 'NONE',  ( 0.3424999999999999711, -0.1000000000000000056, -0.1181102362204725503 ) ) ;
#350 = CARTESIAN_POINT ( 'NONE',  ( -0.3424999999999999711, -0.1000000000000000056, -0.1181102362204724532 ) ) ;
#351 = CARTESIAN_POINT ( 'NONE',  ( -0.1250000000000000833, 0.4862204724409449064, -0.1181102362204724532 ) ) ;
#352 = EDGE_CURVE ( 'NONE', #30, #24, #550, .T. ) ;
#353 = ORIENTED_EDGE ( 'NONE', *, *, #487, .T. ) ;
#354 = CARTESIAN_POINT ( 'NONE',  ( -0.3424999999999999711, 0.000000000000000000, 5.362299553448162506E-17 ) ) ;
#355 = ORIENTED_EDGE ( 'NONE', *, *, #438, .F. ) ;
#356 = VECTOR ( 'NONE', #552, 39.37007874015748143 ) ;
#357 = CARTESIAN_POINT ( 'NONE',  ( 0.000000000000000000, 0.3612204724409448509, 0.1181102362204724532 ) ) ;
#358 = LINE ( 'NONE', #565, #133 ) ;
#359 = CARTESIAN_POINT ( 'NONE',  ( -0.1250000000000002220, 3.414809992080334570E-17, -0.1181102362204724532 ) ) ;
#360 = ORIENTED_EDGE ( 'NONE', *, *, #479, .T. ) ;
#361 = APPLICATION_CONTEXT ( 'automotive_design' ) ;
#362 = ADVANCED_BREP_SHAPE_REPRESENTATION ( 'AngledPin', ( #465, #274 ), #448 ) ;
#363 = CARTESIAN_POINT ( 'NONE',  ( 0.000000000000000000, -0.2999999999999999889, -0.006889763779527552021 ) ) ;
#364 = DIRECTION ( 'NONE',  ( 2.731847993664262725E-16, 1.000000000000000000, 0.000000000000000000 ) ) ;
#365 = DIRECTION ( 'NONE',  ( -0.000000000000000000, -0.000000000000000000, -1.000000000000000000 ) ) ;
#366 = EDGE_CURVE ( 'NONE', #183, #653, #397, .T. ) ;
#367 = FACE_OUTER_BOUND ( 'NONE', #308, .T. ) ;
#368 = CARTESIAN_POINT ( 'NONE',  ( 0.1250000000000000555, 3.414809992080331488E-17, 0.1181102362204724532 ) ) ;
#369 = CARTESIAN_POINT ( 'NONE',  ( -0.2425000000000000211, 0.3612204724409448509, -0.1181102362204724532 ) ) ;
#370 = DIRECTION ( 'NONE',  ( 1.000000000000000000, -0.000000000000000000, 0.000000000000000000 ) ) ;
#371 = ORIENTED_EDGE ( 'NONE', *, *, #488, .F. ) ;
#372 = PLANE ( 'NONE',  #516 ) ;
#373 = DIRECTION ( 'NONE',  ( -0.000000000000000000, -0.000000000000000000, -1.000000000000000000 ) ) ;
#374 = ORIENTED_EDGE ( 'NONE', *, *, #609, .T. ) ;
#375 = DIRECTION ( 'NONE',  ( -0.000000000000000000, -1.000000000000000000, -0.000000000000000000 ) ) ;
#376 = ADVANCED_FACE ( 'NONE', ( #542 ), #194, .F. ) ;
#377 = DIRECTION ( 'NONE',  ( 1.000000000000000000, -0.000000000000000000, 0.000000000000000000 ) ) ;
#378 = ORIENTED_EDGE ( 'NONE', *, *, #455, .F. ) ;
#379 = CARTESIAN_POINT ( 'NONE',  ( 0.3425000000000000266, 0.000000000000000000, -0.1181102362204724532 ) ) ;
#380 = PLANE ( 'NONE',  #177 ) ;
#381 = VERTEX_POINT ( 'NONE', #238 ) ;
#382 = DIRECTION ( 'NONE',  ( 1.000000000000000000, 5.302283548713705742E-17, 0.000000000000000000 ) ) ;
#383 = ORIENTED_EDGE ( 'NONE', *, *, #221, .T. ) ;
#384 = AXIS2_PLACEMENT_3D ( 'NONE', #566, #570, #214 ) ;
#385 = AXIS2_PLACEMENT_3D ( 'NONE', #414, #624, #319 ) ;
#386 = EDGE_CURVE ( 'NONE', #553, #30, #87, .T. ) ;
#387 = CARTESIAN_POINT ( 'NONE',  ( -0.2425000000000000211, 0.5999999999999999778, -0.1181102362204724532 ) ) ;
#388 = ORIENTED_EDGE ( 'NONE', *, *, #52, .T. ) ;
#389 = EDGE_CURVE ( 'NONE', #290, #56, #96, .T. ) ;
#390 = PLANE ( 'NONE',  #196 ) ;
#391 = ORIENTED_EDGE ( 'NONE', *, *, #541, .T. ) ;
#392 = CARTESIAN_POINT ( 'NONE',  ( 0.3424999999999999711, -0.02000000000000000736, 0.1181102362204723422 ) ) ;
#393 = UNCERTAINTY_MEASURE_WITH_UNIT (LENGTH_MEASURE( 1.000000000000000082E-05 ), #5, 'distance_accuracy_value', 'NONE');
#394 = CARTESIAN_POINT ( 'NONE',  ( -0.1077032961426901414, -0.02000000000000003164, 0.1181102362204724532 ) ) ;
#395 = VERTEX_POINT ( 'NONE', #394 ) ;
#396 = VECTOR ( 'NONE', #3, 39.37007874015748143 ) ;
#397 = LINE ( 'NONE', #599, #569 ) ;
#398 = CARTESIAN_POINT ( 'NONE',  ( 0.000000000000000000, 0.4862204724409449064, 0.1181102362204724532 ) ) ;
#399 = APPLICATION_PROTOCOL_DEFINITION ( 'draft international standard', 'automotive_design', 1998, #577 ) ;
#400 = ORIENTED_EDGE ( 'NONE', *, *, #430, .T. ) ;
#401 = CARTESIAN_POINT ( 'NONE',  ( 0.3425000000000000266, 0.000000000000000000, 0.1181102362204724532 ) ) ;
#402 = VERTEX_POINT ( 'NONE', #189 ) ;
#403 =( NAMED_UNIT ( * ) SI_UNIT ( $, .STERADIAN. ) SOLID_ANGLE_UNIT ( ) );
#404 = ORIENTED_EDGE ( 'NONE', *, *, #538, .F. ) ;
#405 = DIRECTION ( 'NONE',  ( -1.000000000000000000, 0.000000000000000000, 0.000000000000000000 ) ) ;
#406 = ORIENTED_EDGE ( 'NONE', *, *, #253, .F. ) ;
#407 = VECTOR ( 'NONE', #405, 39.37007874015748143 ) ;
#408 = LINE ( 'NONE', #357, #210 ) ;
#409 = ORIENTED_EDGE ( 'NONE', *, *, #418, .T. ) ;
#410 = CARTESIAN_POINT ( 'NONE',  ( -0.2425000000000000211, 0.5999999999999999778, 0.000000000000000000 ) ) ;
#411 = LINE ( 'NONE', #313, #589 ) ;
#412 = SURFACE_STYLE_USAGE ( .BOTH. , #463 ) ;
#413 = CARTESIAN_POINT ( 'NONE',  ( 0.1600828400668139750, -0.04462693637758756438, 0.04539290439688720147 ) ) ;
#414 = CARTESIAN_POINT ( 'NONE',  ( 0.3425000000000000266, -0.1000000000000000056, 0.000000000000000000 ) ) ;
#415 = DIRECTION ( 'NONE',  ( 0.000000000000000000, 1.000000000000000000, 0.000000000000000000 ) ) ;
#416 = VECTOR ( 'NONE', #485, 39.37007874015748143 ) ;
#417 = VECTOR ( 'NONE', #517, 39.37007874015748143 ) ;
#418 = EDGE_CURVE ( 'NONE', #507, #474, #241, .T. ) ;
#419 = DIRECTION ( 'NONE',  ( 0.000000000000000000, 0.000000000000000000, 1.000000000000000000 ) ) ;
#420 = LINE ( 'NONE', #109, #303 ) ;
#421 = DIRECTION ( 'NONE',  ( 0.000000000000000000, 0.000000000000000000, 1.000000000000000000 ) ) ;
#422 = FACE_OUTER_BOUND ( 'NONE', #239, .T. ) ;
#423 = CARTESIAN_POINT ( 'NONE',  ( -0.1347847200605921947, -0.03041699507212685533, 0.08735139250356245555 ) ) ;
#424 = ORIENTED_EDGE ( 'NONE', *, *, #27, .F. ) ;
#425 = PLANE ( 'NONE',  #426 ) ;
#426 = AXIS2_PLACEMENT_3D ( 'NONE', #634, #119, #333 ) ;
#427 = ORIENTED_EDGE ( 'NONE', *, *, #245, .F. ) ;
#428 = VECTOR ( 'NONE', #382, 39.37007874015748143 ) ;
#429 = DIRECTION ( 'NONE',  ( 0.000000000000000000, -1.000000000000000000, 0.000000000000000000 ) ) ;
#430 = EDGE_CURVE ( 'NONE', #32, #149, #341, .T. ) ;
#431 = CARTESIAN_POINT ( 'NONE',  ( -0.1250000000000001110, 0.3612204724409448509, 0.1181102362204724532 ) ) ;
#432 = ORIENTED_EDGE ( 'NONE', *, *, #316, .T. ) ;
#433 = DIRECTION ( 'NONE',  ( 0.000000000000000000, 1.000000000000000000, 0.000000000000000000 ) ) ;
#434 = CARTESIAN_POINT ( 'NONE',  ( 0.000000000000000000, 0.4862204724409449064, -0.1181102362204724532 ) ) ;
#435 = VERTEX_POINT ( 'NONE', #603 ) ;
#436 = LINE ( 'NONE', #387, #47 ) ;
#437 = ORIENTED_EDGE ( 'NONE', *, *, #113, .T. ) ;
#438 = EDGE_CURVE ( 'NONE', #614, #381, #148, .T. ) ;
#439 = PRODUCT_DEFINITION_CONTEXT ( 'detailed design', #361, 'design' ) ;
#440 = CARTESIAN_POINT ( 'NONE',  ( 0.3424999999999999711, -0.02000000000000000736, 0.1181102362204723422 ) ) ;
#441 = ORIENTED_EDGE ( 'NONE', *, *, #649, .F. ) ;
#442 = DIRECTION ( 'NONE',  ( 0.000000000000000000, 0.000000000000000000, 1.000000000000000000 ) ) ;
#443 = EDGE_LOOP ( 'NONE', ( #446, #247 ) ) ;
#444 = ADVANCED_FACE ( 'NONE', ( #44 ), #249, .F. ) ;
#445 = DIRECTION ( 'NONE',  ( -0.000000000000000000, -0.000000000000000000, -1.000000000000000000 ) ) ;
#446 = ORIENTED_EDGE ( 'NONE', *, *, #340, .T. ) ;
#447 = VECTOR ( 'NONE', #41, 39.37007874015748143 ) ;
#448 =( GEOMETRIC_REPRESENTATION_CONTEXT ( 3 ) GLOBAL_UNCERTAINTY_ASSIGNED_CONTEXT ( ( #393 ) ) GLOBAL_UNIT_ASSIGNED_CONTEXT ( ( #5, #48, #403 ) ) REPRESENTATION_CONTEXT ( 'NONE', 'WORKASPACE' ) );
#449 = CARTESIAN_POINT ( 'NONE',  ( 0.000000000000000000, 0.3612204724409448509, 0.1181102362204724532 ) ) ;
#450 = ORIENTED_EDGE ( 'NONE', *, *, #495, .F. ) ;
#451 = ORIENTED_EDGE ( 'NONE', *, *, #323, .F. ) ;
#452 = LINE ( 'NONE', #161, #417 ) ;
#453 = ORIENTED_EDGE ( 'NONE', *, *, #16, .F. ) ;
#454 = EDGE_LOOP ( 'NONE', ( #301, #102, #651, #176 ) ) ;
#455 = EDGE_CURVE ( 'NONE', #152, #474, #436, .T. ) ;
#456 = DIRECTION ( 'NONE',  ( -1.000000000000000000, 0.000000000000000000, 0.000000000000000000 ) ) ;
#457 = FACE_OUTER_BOUND ( 'NONE', #6, .T. ) ;
#458 = ORIENTED_EDGE ( 'NONE', *, *, #86, .T. ) ;
#459 = VECTOR ( 'NONE', #503, 39.37007874015748143 ) ;
#460 = DIRECTION ( 'NONE',  ( 0.000000000000000000, 0.000000000000000000, 1.000000000000000000 ) ) ;
#461 = DIRECTION ( 'NONE',  ( 1.000000000000000000, -0.000000000000000000, 0.000000000000000000 ) ) ;
#462 = VERTEX_POINT ( 'NONE', #338 ) ;
#463 = SURFACE_SIDE_STYLE ('',( #101 ) ) ;
#464 = CARTESIAN_POINT ( 'NONE',  ( 0.1830698106066523390, -0.06233333333333333781, -0.006889763779527552021 ) ) ;
#465 = MANIFOLD_SOLID_BREP ( 'Cut-Extrude3', #631 ) ;
#466 = DIRECTION ( 'NONE',  ( 0.000000000000000000, 0.000000000000000000, -1.000000000000000000 ) ) ;
#467 = PLANE ( 'NONE',  #157 ) ;
#468 = CARTESIAN_POINT ( 'NONE',  ( 0.000000000000000000, 0.5999999999999999778, 0.000000000000000000 ) ) ;
#469 = FACE_OUTER_BOUND ( 'NONE', #283, .T. ) ;
#470 = AXIS2_PLACEMENT_3D ( 'NONE', #332, #429, #174 ) ;
#471 = CARTESIAN_POINT ( 'NONE',  ( 0.000000000000000000, 0.4862204724409449064, 0.1181102362204724532 ) ) ;
#472 = CARTESIAN_POINT ( 'NONE',  ( -0.3424999999999999711, -0.02000000000000000736, 0.1181102362204724532 ) ) ;
#473 = DIRECTION ( 'NONE',  ( -0.000000000000000000, -1.000000000000000000, -0.000000000000000000 ) ) ;
#474 = VERTEX_POINT ( 'NONE', #509 ) ;
#475 = EDGE_CURVE ( 'NONE', #590, #507, #89, .T. ) ;
#476 = PLANE ( 'NONE',  #17 ) ;
#477 = LINE ( 'NONE', #573, #143 ) ;
#478 = ORIENTED_EDGE ( 'NONE', *, *, #27, .T. ) ;
#479 = EDGE_CURVE ( 'NONE', #594, #540, #452, .T. ) ;
#480 = LINE ( 'NONE', #28, #315 ) ;
#481 = VECTOR ( 'NONE', #473, 39.37007874015748143 ) ;
#482 = ORIENTED_EDGE ( 'NONE', *, *, #98, .T. ) ;
#483 = VECTOR ( 'NONE', #246, 39.37007874015748143 ) ;
#484 = CARTESIAN_POINT ( 'NONE',  ( 0.000000000000000000, 0.000000000000000000, 0.000000000000000000 ) ) ;
#485 = DIRECTION ( 'NONE',  ( 0.000000000000000000, 1.000000000000000000, 0.000000000000000000 ) ) ;
#486 = EDGE_LOOP ( 'NONE', ( #600, #207, #478, #437 ) ) ;
#487 = EDGE_CURVE ( 'NONE', #121, #331, #258, .T. ) ;
#488 = EDGE_CURVE ( 'NONE', #195, #504, #213, .T. ) ;
#489 = DIMENSIONAL_EXPONENTS ( 1.000000000000000000, 0.000000000000000000, 0.000000000000000000, 0.000000000000000000, 0.000000000000000000, 0.000000000000000000, 0.000000000000000000 ) ;
#490 = DIRECTION ( 'NONE',  ( 0.000000000000000000, -0.000000000000000000, -1.000000000000000000 ) ) ;
#491 = ORIENTED_EDGE ( 'NONE', *, *, #245, .T. ) ;
#492 = CARTESIAN_POINT ( 'NONE',  ( -0.3424999999999999711, 0.000000000000000000, 0.1181102362204724532 ) ) ;
#493 = ORIENTED_EDGE ( 'NONE', *, *, #16, .T. ) ;
#494 = VECTOR ( 'NONE', #66, 39.37007874015748143 ) ;
#495 = EDGE_CURVE ( 'NONE', #186, #49, #7, .T. ) ;
#496 = AXIS2_PLACEMENT_3D ( 'NONE', #619, #164, #364 ) ;
#497 = DIRECTION ( 'NONE',  ( -0.000000000000000000, -0.000000000000000000, 1.000000000000000000 ) ) ;
#498 = VERTEX_POINT ( 'NONE', #401 ) ;
#499 = ADVANCED_FACE ( 'NONE', ( #208 ), #159, .F. ) ;
#500 = LINE ( 'NONE', #440, #68 ) ;
#501 = ORIENTED_EDGE ( 'NONE', *, *, #637, .T. ) ;
#502 = EDGE_CURVE ( 'NONE', #331, #49, #358, .T. ) ;
#503 = DIRECTION ( 'NONE',  ( -0.000000000000000000, -0.3207704881402391184, -0.9471569531699974842 ) ) ;
#504 = VERTEX_POINT ( 'NONE', #108 ) ;
#505 = AXIS2_PLACEMENT_3D ( 'NONE', #410, #617, #466 ) ;
#506 = LINE ( 'NONE', #254, #60 ) ;
#507 = VERTEX_POINT ( 'NONE', #266 ) ;
#508 = ORIENTED_EDGE ( 'NONE', *, *, #386, .T. ) ;
#509 = CARTESIAN_POINT ( 'NONE',  ( -0.2425000000000000211, 0.4862204724409449064, -0.1181102362204724532 ) ) ;
#510 = LINE ( 'NONE', #359, #494 ) ;
#511 = ADVANCED_FACE ( 'NONE', ( #304 ), #317, .T. ) ;
#512 = EDGE_LOOP ( 'NONE', ( #555, #72, #648, #264 ) ) ;
#513 = DIRECTION ( 'NONE',  ( 0.000000000000000000, 0.000000000000000000, -1.000000000000000000 ) ) ;
#514 = LINE ( 'NONE', #625, #122 ) ;
#515 = VECTOR ( 'NONE', #4, 39.37007874015748143 ) ;
#516 = AXIS2_PLACEMENT_3D ( 'NONE', #126, #169, #578 ) ;
#517 = DIRECTION ( 'NONE',  ( -1.000000000000000000, 0.000000000000000000, 0.000000000000000000 ) ) ;
#518 = DIRECTION ( 'NONE',  ( 0.000000000000000000, 0.000000000000000000, -1.000000000000000000 ) ) ;
#519 = CARTESIAN_POINT ( 'NONE',  ( 0.000000000000000000, 0.4862204724409449064, 0.1181102362204724532 ) ) ;
#520 = FACE_OUTER_BOUND ( 'NONE', #342, .T. ) ;
#521 = LINE ( 'NONE', #193, #198 ) ;
#522 = CARTESIAN_POINT ( 'NONE',  ( -0.2425000000000000211, 0.5999999999999999778, 0.000000000000000000 ) ) ;
#523 = FACE_OUTER_BOUND ( 'NONE', #295, .T. ) ;
#524 = AXIS2_PLACEMENT_3D ( 'NONE', #120, #279, #583 ) ;
#525 = LINE ( 'NONE', #281, #591 ) ;
#526 = VECTOR ( 'NONE', #460, 39.37007874015748143 ) ;
#527 = DIRECTION ( 'NONE',  ( 1.000000000000000000, -0.000000000000000000, 0.000000000000000000 ) ) ;
#528 = ORIENTED_EDGE ( 'NONE', *, *, #475, .F. ) ;
#529 = ADVANCED_FACE ( 'NONE', ( #57 ), #261, .F. ) ;
#530 = DIRECTION ( 'NONE',  ( -0.000000000000000000, -1.000000000000000000, -0.000000000000000000 ) ) ;
#531 = LINE ( 'NONE', #336, #356 ) ;
#532 = ORIENTED_EDGE ( 'NONE', *, *, #455, .T. ) ;
#533 = EDGE_CURVE ( 'NONE', #540, #186, #607, .T. ) ;
#534 = CARTESIAN_POINT ( 'NONE',  ( -0.3424999999999999711, -0.1000000000000000056, 5.362299553448162506E-17 ) ) ;
#535 = LINE ( 'NONE', #434, #644 ) ;
#536 =( BOUNDED_CURVE ( )  B_SPLINE_CURVE ( 3, ( #223, #29, #423, #233 ),
 .UNSPECIFIED., .F., .T. ) 
 B_SPLINE_CURVE_WITH_KNOTS ( ( 4, 4 ),
 ( 5.626831016204675073, 5.915977286621749265 ),
 .UNSPECIFIED. ) 
 CURVE ( )  GEOMETRIC_REPRESENTATION_ITEM ( )  RATIONAL_B_SPLINE_CURVE ( ( 1.000000000000000000, 0.9930449963004714942, 0.9930449963004714942, 1.000000000000000000 ) ) 
 REPRESENTATION_ITEM ( '' )  );
#537 = ORIENTED_EDGE ( 'NONE', *, *, #502, .T. ) ;
#538 = EDGE_CURVE ( 'NONE', #32, #653, #506, .T. ) ;
#539 = CARTESIAN_POINT ( 'NONE',  ( 0.000000000000000000, 0.4862204724409449064, -0.1181102362204724532 ) ) ;
#540 = VERTEX_POINT ( 'NONE', #369 ) ;
#541 = EDGE_CURVE ( 'NONE', #504, #49, #327, .T. ) ;
#542 = FACE_OUTER_BOUND ( 'NONE', #512, .T. ) ;
#543 = ORIENTED_EDGE ( 'NONE', *, *, #649, .T. ) ;
#544 = DIRECTION ( 'NONE',  ( -0.000000000000000000, -1.000000000000000000, -0.000000000000000000 ) ) ;
#545 = ORIENTED_EDGE ( 'NONE', *, *, #302, .T. ) ;
#546 = CARTESIAN_POINT ( 'NONE',  ( 0.3424999999999999711, -0.1000000000000000056, -0.1181102362204725503 ) ) ;
#547 = ORIENTED_EDGE ( 'NONE', *, *, #35, .T. ) ;
#548 = VECTOR ( 'NONE', #373, 39.37007874015748143 ) ;
#549 = VECTOR ( 'NONE', #456, 39.37007874015748143 ) ;
#550 = LINE ( 'NONE', #593, #326 ) ;
#551 = ORIENTED_EDGE ( 'NONE', *, *, #487, .F. ) ;
#552 = DIRECTION ( 'NONE',  ( -0.000000000000000000, -0.3207704881402391184, -0.9471569531699974842 ) ) ;
#553 = VERTEX_POINT ( 'NONE', #65 ) ;
#554 = DIRECTION ( 'NONE',  ( -0.000000000000000000, -1.000000000000000000, -0.000000000000000000 ) ) ;
#555 = ORIENTED_EDGE ( 'NONE', *, *, #323, .T. ) ;
#556 = VERTEX_POINT ( 'NONE', #379 ) ;
#557 = VECTOR ( 'NONE', #572, 39.37007874015748143 ) ;
#558 = AXIS2_PLACEMENT_3D ( 'NONE', #39, #588, #99 ) ;
#559 = ADVANCED_FACE ( 'NONE', ( #14 ), #582, .T. ) ;
#560 = PRESENTATION_STYLE_ASSIGNMENT (( #412 ) ) ;
#561 = LINE ( 'NONE', #267, #557 ) ;
#562 = ORIENTED_EDGE ( 'NONE', *, *, #256, .F. ) ;
#563 = DIRECTION ( 'NONE',  ( 1.000000000000000000, 0.000000000000000000, 0.000000000000000000 ) ) ;
#564 = VERTEX_POINT ( 'NONE', #270 ) ;
#565 = CARTESIAN_POINT ( 'NONE',  ( 0.000000000000000000, 0.000000000000000000, 0.1181102362204724532 ) ) ;
#566 = CARTESIAN_POINT ( 'NONE',  ( 0.000000000000000000, 0.000000000000000000, 0.000000000000000000 ) ) ;
#567 = EDGE_CURVE ( 'NONE', #462, #507, #525, .T. ) ;
#568 = CIRCLE ( 'NONE', #558, 0.2999999999999999889 ) ;
#569 = VECTOR ( 'NONE', #300, 39.37007874015748143 ) ;
#570 = DIRECTION ( 'NONE',  ( 0.000000000000000000, 1.000000000000000000, -0.000000000000000000 ) ) ;
#571 = LINE ( 'NONE', #231, #103 ) ;
#572 = DIRECTION ( 'NONE',  ( -0.000000000000000000, -0.000000000000000000, -1.000000000000000000 ) ) ;
#573 = CARTESIAN_POINT ( 'NONE',  ( 0.000000000000000000, 0.5999999999999999778, -0.1181102362204724532 ) ) ;
#574 = DIRECTION ( 'NONE',  ( -0.000000000000000000, -1.000000000000000000, -0.000000000000000000 ) ) ;
#575 = CARTESIAN_POINT ( 'NONE',  ( 0.2425000000000000211, 0.5999999999999999778, 0.1181102362204724532 ) ) ;
#576 = VERTEX_POINT ( 'NONE', #70 ) ;
#577 = APPLICATION_CONTEXT ( 'automotive_design' ) ;
#578 = DIRECTION ( 'NONE',  ( -1.000000000000000000, 0.000000000000000000, -0.000000000000000000 ) ) ;
#579 = LINE ( 'NONE', #67, #416 ) ;
#580 =( BOUNDED_CURVE ( )  B_SPLINE_CURVE ( 3, ( #620, #618, #413, #464 ),
 .UNSPECIFIED., .F., .T. ) 
 B_SPLINE_CURVE_WITH_KNOTS ( ( 4, 4 ),
 ( 0.3672080205578373557, 0.6563542909749114918 ),
 .UNSPECIFIED. ) 
 CURVE ( )  GEOMETRIC_REPRESENTATION_ITEM ( )  RATIONAL_B_SPLINE_CURVE ( ( 1.000000000000000000, 0.9930449963004714942, 0.9930449963004714942, 1.000000000000000000 ) ) 
 REPRESENTATION_ITEM ( '' )  );
#581 = ORIENTED_EDGE ( 'NONE', *, *, #567, .T. ) ;
#582 = PLANE ( 'NONE',  #240 ) ;
#583 = DIRECTION ( 'NONE',  ( 0.000000000000000000, 0.000000000000000000, 1.000000000000000000 ) ) ;
#584 = ORIENTED_EDGE ( 'NONE', *, *, #659, .T. ) ;
#585 = LINE ( 'NONE', #278, #655 ) ;
#586 = LINE ( 'NONE', #575, #58 ) ;
#587 = ORIENTED_EDGE ( 'NONE', *, *, #343, .F. ) ;
#588 = DIRECTION ( 'NONE',  ( 0.000000000000000000, 0.000000000000000000, 1.000000000000000000 ) ) ;
#589 = VECTOR ( 'NONE', #461, 39.37007874015748143 ) ;
#590 = VERTEX_POINT ( 'NONE', #222 ) ;
#591 = VECTOR ( 'NONE', #530, 39.37007874015748143 ) ;
#592 = ADVANCED_FACE ( 'NONE', ( #422 ), #275, .F. ) ;
#593 = CARTESIAN_POINT ( 'NONE',  ( 0.2425000000000000211, 0.5999999999999999778, -0.1181102362204724532 ) ) ;
#594 = VERTEX_POINT ( 'NONE', #226 ) ;
#595 = DIRECTION ( 'NONE',  ( -0.000000000000000000, -0.000000000000000000, -1.000000000000000000 ) ) ;
#596 = ORIENTED_EDGE ( 'NONE', *, *, #91, .F. ) ;
#597 = PRODUCT_DEFINITION_SHAPE ( 'NONE', 'NONE',  #252 ) ;
#598 = LINE ( 'NONE', #392, #230 ) ;
#599 = CARTESIAN_POINT ( 'NONE',  ( 0.2425000000000000211, 0.4862204724409449064, 0.1181102362204724532 ) ) ;
#600 = ORIENTED_EDGE ( 'NONE', *, *, #184, .F. ) ;
#601 = ADVANCED_FACE ( 'NONE', ( #367 ), #372, .F. ) ;
#602 = VECTOR ( 'NONE', #554, 39.37007874015748143 ) ;
#603 = CARTESIAN_POINT ( 'NONE',  ( 0.1830698106066523390, -0.06233333333333333781, -0.006889763779527552021 ) ) ;
#604 = ORIENTED_EDGE ( 'NONE', *, *, #352, .T. ) ;
#605 = EDGE_LOOP ( 'NONE', ( #251, #608, #160, #532 ) ) ;
#606 = EDGE_CURVE ( 'NONE', #30, #56, #585, .T. ) ;
#607 = LINE ( 'NONE', #151, #602 ) ;
#608 = ORIENTED_EDGE ( 'NONE', *, *, #567, .F. ) ;
#609 = EDGE_CURVE ( 'NONE', #590, #2, #480, .T. ) ;
#610 = SHAPE_DEFINITION_REPRESENTATION ( #597, #362 ) ;
#611 = ORIENTED_EDGE ( 'NONE', *, *, #340, .F. ) ;
#612 = FILL_AREA_STYLE ('',( #138 ) ) ;
#613 = CARTESIAN_POINT ( 'NONE',  ( 0.2425000000000000211, 0.3612204724409448509, -0.1181102362204724532 ) ) ;
#614 = VERTEX_POINT ( 'NONE', #472 ) ;
#615 = ORIENTED_EDGE ( 'NONE', *, *, #606, .T. ) ;
#616 = EDGE_CURVE ( 'NONE', #24, #402, #571, .T. ) ;
#617 = DIRECTION ( 'NONE',  ( 1.000000000000000000, 0.000000000000000000, 0.000000000000000000 ) ) ;
#618 = CARTESIAN_POINT ( 'NONE',  ( 0.1347847200605921947, -0.03041699507212688655, 0.08735139250356231677 ) ) ;
#619 = CARTESIAN_POINT ( 'NONE',  ( -0.1250000000000002220, 3.414809992080334570E-17, 0.1181102362204724532 ) ) ;
#620 = CARTESIAN_POINT ( 'NONE',  ( 0.1077032961426900998, -0.02000000000000002123, 0.1181102362204724532 ) ) ;
#621 = ADVANCED_FACE ( 'NONE', ( #626 ), #476, .T. ) ;
#622 = VECTOR ( 'NONE', #365, 39.37007874015748143 ) ;
#623 = AXIS2_PLACEMENT_3D ( 'NONE', #449, #657, #490 ) ;
#624 = DIRECTION ( 'NONE',  ( -1.000000000000000000, 0.000000000000000000, 0.000000000000000000 ) ) ;
#625 = CARTESIAN_POINT ( 'NONE',  ( -0.3424999999999999711, -0.1000000000000000056, 0.1181102362204724532 ) ) ;
#626 = FACE_OUTER_BOUND ( 'NONE', #292, .T. ) ;
#627 = DIRECTION ( 'NONE',  ( 1.000000000000000000, 0.000000000000000000, -0.000000000000000000 ) ) ;
#628 = ADVANCED_FACE ( 'NONE', ( #25 ), #82, .T. ) ;
#629 = LINE ( 'NONE', #638, #548 ) ;
#630 = VERTEX_POINT ( 'NONE', #636 ) ;
#631 = CLOSED_SHELL ( 'NONE', ( #511, #235, #529, #601, #628, #116, #559, #94, #621, #642, #140, #136, #592, #499, #129, #444, #154, #321, #376, #273 ) ) ;
#632 = CARTESIAN_POINT ( 'NONE',  ( 0.000000000000000000, -0.1000000000000000056, -0.1181102362204724532 ) ) ;
#633 = VECTOR ( 'NONE', #574, 39.37007874015748143 ) ;
#634 = CARTESIAN_POINT ( 'NONE',  ( 0.000000000000000000, 0.5999999999999999778, -0.1181102362204724532 ) ) ;
#635 = ORIENTED_EDGE ( 'NONE', *, *, #541, .F. ) ;
#636 = CARTESIAN_POINT ( 'NONE',  ( 0.1077032961426900998, -0.02000000000000002123, 0.1181102362204724532 ) ) ;
#637 = EDGE_CURVE ( 'NONE', #381, #658, #181, .T. ) ;
#638 = CARTESIAN_POINT ( 'NONE',  ( -0.2425000000000000211, 0.3612204724409448509, 0.1181102362204724532 ) ) ;
#639 = ORIENTED_EDGE ( 'NONE', *, *, #533, .F. ) ;
#640 = DIRECTION ( 'NONE',  ( -1.000000000000000000, -0.000000000000000000, 1.565634906116251706E-16 ) ) ;
#641 = ORIENTED_EDGE ( 'NONE', *, *, #475, .T. ) ;
#642 = ADVANCED_FACE ( 'NONE', ( #286 ), #215, .F. ) ;
#643 = LINE ( 'NONE', #347, #447 ) ;
#644 = VECTOR ( 'NONE', #20, 39.37007874015748143 ) ;
#645 = ORIENTED_EDGE ( 'NONE', *, *, #80, .T. ) ;
#646 = PRODUCT_DEFINITION_FORMATION_WITH_SPECIFIED_SOURCE ( 'ANY', '', #232, .NOT_KNOWN. ) ;
#647 = LINE ( 'NONE', #92, #250 ) ;
#648 = ORIENTED_EDGE ( 'NONE', *, *, #64, .F. ) ;
#649 = EDGE_CURVE ( 'NONE', #658, #556, #521, .T. ) ;
#650 = CARTESIAN_POINT ( 'NONE',  ( 0.000000000000000000, -0.2999999999999999889, -0.006889763779527552021 ) ) ;
#651 = ORIENTED_EDGE ( 'NONE', *, *, #616, .F. ) ;
#652 = DIRECTION ( 'NONE',  ( -5.022094730843075110E-17, 0.9471569531699974842, -0.3207704881402390629 ) ) ;
#653 = VERTEX_POINT ( 'NONE', #1 ) ;
#654 = AXIS2_PLACEMENT_3D ( 'NONE', #522, #309, #518 ) ;
#655 = VECTOR ( 'NONE', #123, 39.37007874015748143 ) ;
#656 = EDGE_LOOP ( 'NONE', ( #635, #132, #325, #306 ) ) ;
#657 = DIRECTION ( 'NONE',  ( 0.000000000000000000, -1.000000000000000000, 0.000000000000000000 ) ) ;
#658 = VERTEX_POINT ( 'NONE', #349 ) ;
#659 = EDGE_CURVE ( 'NONE', #395, #614, #598, .T. ) ;
ENDSEC;
END-ISO-10303-21;
