ISO-10303-21;
HEADER;
FILE_DESCRIPTION (( 'STEP AP214' ),
    '1' );
FILE_NAME ('DispenserSlidePlate.STEP',
    '2026-04-10T18:54:03',
    ( '' ),
    ( '' ),
    'SwSTEP 2.0',
    'SolidWorks 2025',
    '' );
FILE_SCHEMA (( 'AUTOMOTIVE_DESIGN' ));
ENDSEC;

DATA;
#1 = LINE ( 'NONE', #144, #150 ) ;
#2 = CARTESIAN_POINT ( 'NONE',  ( -1.500000000000000444, 0.01574803149606299191, 1.500000000000000444 ) ) ;
#3 = EDGE_LOOP ( 'NONE', ( #81, #37, #181, #153 ) ) ;
#4 = LINE ( 'NONE', #182, #189 ) ;
#5 = VECTOR ( 'NONE', #23, 39.37007874015748143 ) ;
#6 = EDGE_CURVE ( 'NONE', #186, #167, #31, .T. ) ;
#7 = CARTESIAN_POINT ( 'NONE',  ( 1.499999999999999778, 0.01574803149606299191, 1.500000000000000444 ) ) ;
#8 = EDGE_LOOP ( 'NONE', ( #102, #128, #136, #183 ) ) ;
#9 = EDGE_LOOP ( 'NONE', ( #51, #127, #69, #49 ) ) ;
#10 = EDGE_CURVE ( 'NONE', #113, #39, #87, .T. ) ;
#11 = VECTOR ( 'NONE', #165, 39.37007874015748143 ) ;
#12 =( GEOMETRIC_REPRESENTATION_CONTEXT ( 3 ) GLOBAL_UNCERTAINTY_ASSIGNED_CONTEXT ( ( #178 ) ) GLOBAL_UNIT_ASSIGNED_CONTEXT ( ( #120, #107, #161 ) ) REPRESENTATION_CONTEXT ( 'NONE', 'WORKASPACE' ) );
#13 = DIRECTION ( 'NONE',  ( -0.000000000000000000, -1.000000000000000000, -0.000000000000000000 ) ) ;
#14 = DIRECTION ( 'NONE',  ( -0.000000000000000000, -0.000000000000000000, 1.000000000000000000 ) ) ;
#15 = PRESENTATION_STYLE_ASSIGNMENT (( #47 ) ) ;
#16 = FILL_AREA_STYLE ('',( #106 ) ) ;
#17 = CARTESIAN_POINT ( 'NONE',  ( 1.499999999999999778, 0.000000000000000000, 1.500000000000000444 ) ) ;
#18 = APPLICATION_PROTOCOL_DEFINITION ( 'draft international standard', 'automotive_design', 1998, #64 ) ;
#19 = VERTEX_POINT ( 'NONE', #149 ) ;
#20 = CARTESIAN_POINT ( 'NONE',  ( -1.500000000000000444, 0.000000000000000000, -1.499999999999999778 ) ) ;
#21 = LENGTH_MEASURE_WITH_UNIT ( LENGTH_MEASURE( 0.02539999999999999897 ), #116 );
#22 = VERTEX_POINT ( 'NONE', #20 ) ;
#23 = DIRECTION ( 'NONE',  ( -0.000000000000000000, -1.000000000000000000, -0.000000000000000000 ) ) ;
#24 = DIMENSIONAL_EXPONENTS ( 1.000000000000000000, 0.000000000000000000, 0.000000000000000000, 0.000000000000000000, 0.000000000000000000, 0.000000000000000000, 0.000000000000000000 ) ;
#25 = PRESENTATION_LAYER_ASSIGNMENT (  '', '', ( #29 ) ) ;
#26 = PLANE ( 'NONE',  #42 ) ;
#27 = EDGE_CURVE ( 'NONE', #39, #125, #138, .T. ) ;
#28 = CARTESIAN_POINT ( 'NONE',  ( 1.499999999999999778, 0.000000000000000000, -1.499999999999999778 ) ) ;
#29 = STYLED_ITEM ( 'NONE', ( #15 ), #99 ) ;
#30 = LINE ( 'NONE', #192, #118 ) ;
#31 = LINE ( 'NONE', #96, #11 ) ;
#32 = DIRECTION ( 'NONE',  ( 0.000000000000000000, -0.000000000000000000, -1.000000000000000000 ) ) ;
#33 = FACE_OUTER_BOUND ( 'NONE', #71, .T. ) ;
#34 = ADVANCED_BREP_SHAPE_REPRESENTATION ( 'DispenserSlidePlate', ( #99, #88 ), #130 ) ;
#35 = PRODUCT_CONTEXT ( 'NONE', #64, 'mechanical' ) ;
#36 = ORIENTED_EDGE ( 'NONE', *, *, #27, .T. ) ;
#37 = ORIENTED_EDGE ( 'NONE', *, *, #176, .F. ) ;
#38 = ADVANCED_FACE ( 'NONE', ( #33 ), #26, .F. ) ;
#39 = VERTEX_POINT ( 'NONE', #60 ) ;
#40 = PRODUCT_DEFINITION_FORMATION_WITH_SPECIFIED_SOURCE ( 'ANY', '', #169, .NOT_KNOWN. ) ;
#41 = EDGE_CURVE ( 'NONE', #19, #22, #30, .T. ) ;
#42 = AXIS2_PLACEMENT_3D ( 'NONE', #48, #91, #43 ) ;
#43 = DIRECTION ( 'NONE',  ( 1.000000000000000000, 0.000000000000000000, -0.000000000000000000 ) ) ;
#44 = EDGE_CURVE ( 'NONE', #167, #125, #92, .T. ) ;
#45 = SURFACE_STYLE_FILL_AREA ( #16 ) ;
#46 = DIRECTION ( 'NONE',  ( 1.000000000000000000, 0.000000000000000000, 0.000000000000000000 ) ) ;
#47 = SURFACE_STYLE_USAGE ( .BOTH. , #122 ) ;
#48 = CARTESIAN_POINT ( 'NONE',  ( -1.500000000000000444, 0.01574803149606299191, -1.499999999999999778 ) ) ;
#49 = ORIENTED_EDGE ( 'NONE', *, *, #112, .T. ) ;
#50 = DIRECTION ( 'NONE',  ( 1.000000000000000000, 0.000000000000000000, 0.000000000000000000 ) ) ;
#51 = ORIENTED_EDGE ( 'NONE', *, *, #6, .T. ) ;
#52 = ORIENTED_EDGE ( 'NONE', *, *, #176, .T. ) ;
#53 = ORIENTED_EDGE ( 'NONE', *, *, #41, .F. ) ;
#54 = CARTESIAN_POINT ( 'NONE',  ( -1.500000000000000444, 0.01574803149606299191, 1.500000000000000444 ) ) ;
#55 = DIRECTION ( 'NONE',  ( -1.000000000000000000, 0.000000000000000000, 0.000000000000000000 ) ) ;
#56 = COLOUR_RGB ( '',0.7921568627450980005, 0.8196078431372548767, 0.9333333333333333481 ) ;
#57 = EDGE_CURVE ( 'NONE', #22, #113, #160, .T. ) ;
#58 = CARTESIAN_POINT ( 'NONE',  ( -1.500000000000000444, 0.01574803149606299191, 1.500000000000000444 ) ) ;
#59 = AXIS2_PLACEMENT_3D ( 'NONE', #79, #175, #32 ) ;
#60 = CARTESIAN_POINT ( 'NONE',  ( 1.499999999999999778, 0.000000000000000000, 1.500000000000000444 ) ) ;
#61 = EDGE_CURVE ( 'NONE', #98, #113, #123, .T. ) ;
#62 = DIRECTION ( 'NONE',  ( 0.000000000000000000, 0.000000000000000000, -1.000000000000000000 ) ) ;
#63 = DIRECTION ( 'NONE',  ( -0.000000000000000000, -0.000000000000000000, 1.000000000000000000 ) ) ;
#64 = APPLICATION_CONTEXT ( 'automotive_design' ) ;
#65 = ORIENTED_EDGE ( 'NONE', *, *, #10, .F. ) ;
#66 = DIRECTION ( 'NONE',  ( 0.000000000000000000, 0.000000000000000000, 1.000000000000000000 ) ) ;
#67 = ORIENTED_EDGE ( 'NONE', *, *, #44, .F. ) ;
#68 = SHAPE_DEFINITION_REPRESENTATION ( #156, #34 ) ;
#69 = ORIENTED_EDGE ( 'NONE', *, *, #124, .T. ) ;
#70 = CARTESIAN_POINT ( 'NONE',  ( 1.499999999999999778, 0.01574803149606299191, 1.500000000000000444 ) ) ;
#71 = EDGE_LOOP ( 'NONE', ( #85, #53, #164, #129 ) ) ;
#72 = CARTESIAN_POINT ( 'NONE',  ( 0.000000000000000000, 0.000000000000000000, 0.000000000000000000 ) ) ;
#73 =( NAMED_UNIT ( * ) SI_UNIT ( $, .STERADIAN. ) SOLID_ANGLE_UNIT ( ) );
#74 = CLOSED_SHELL ( 'NONE', ( #184, #38, #152, #139, #75, #158 ) ) ;
#75 = ADVANCED_FACE ( 'NONE', ( #121 ), #179, .F. ) ;
#76 = EDGE_CURVE ( 'NONE', #167, #19, #110, .T. ) ;
#77 =( LENGTH_UNIT ( ) NAMED_UNIT ( * ) SI_UNIT ( $, .METRE. ) );
#78 = DIRECTION ( 'NONE',  ( -0.000000000000000000, -1.000000000000000000, -0.000000000000000000 ) ) ;
#79 = CARTESIAN_POINT ( 'NONE',  ( 0.000000000000000000, 0.01574803149606299191, 0.000000000000000000 ) ) ;
#80 = CARTESIAN_POINT ( 'NONE',  ( -1.500000000000000444, 0.01574803149606299191, 1.500000000000000444 ) ) ;
#81 = ORIENTED_EDGE ( 'NONE', *, *, #10, .T. ) ;
#82 = APPLICATION_CONTEXT ( 'automotive_design' ) ;
#83 = AXIS2_PLACEMENT_3D ( 'NONE', #146, #62, #109 ) ;
#84 = DIRECTION ( 'NONE',  ( 1.000000000000000000, -0.000000000000000000, 0.000000000000000000 ) ) ;
#85 = ORIENTED_EDGE ( 'NONE', *, *, #173, .T. ) ;
#86 = PRODUCT_DEFINITION_CONTEXT ( 'detailed design', #82, 'design' ) ;
#87 = LINE ( 'NONE', #148, #104 ) ;
#88 = AXIS2_PLACEMENT_3D ( 'NONE', #155, #66, #50 ) ;
#89 = VECTOR ( 'NONE', #135, 39.37007874015748143 ) ;
#90 = UNCERTAINTY_MEASURE_WITH_UNIT (LENGTH_MEASURE( 1.000000000000000082E-05 ), #117, 'distance_accuracy_value', 'NONE');
#91 = DIRECTION ( 'NONE',  ( 0.000000000000000000, 0.000000000000000000, 1.000000000000000000 ) ) ;
#92 = LINE ( 'NONE', #177, #159 ) ;
#93 = PRODUCT_DEFINITION ( 'UNKNOWN', '', #40, #86 ) ;
#94 = PLANE ( 'NONE',  #83 ) ;
#95 = FACE_OUTER_BOUND ( 'NONE', #8, .T. ) ;
#96 = CARTESIAN_POINT ( 'NONE',  ( 1.499999999999999778, 0.01574803149606299191, 1.500000000000000444 ) ) ;
#97 = CARTESIAN_POINT ( 'NONE',  ( 1.499999999999999778, 0.01574803149606299191, 1.500000000000000444 ) ) ;
#98 = VERTEX_POINT ( 'NONE', #58 ) ;
#99 = MANIFOLD_SOLID_BREP ( 'Boss-Extrude1', #74 ) ;
#100 = DIRECTION ( 'NONE',  ( 1.000000000000000000, 0.000000000000000000, 0.000000000000000000 ) ) ;
#101 = DIRECTION ( 'NONE',  ( 0.000000000000000000, -0.000000000000000000, -1.000000000000000000 ) ) ;
#102 = ORIENTED_EDGE ( 'NONE', *, *, #57, .T. ) ;
#103 = FACE_OUTER_BOUND ( 'NONE', #170, .T. ) ;
#104 = VECTOR ( 'NONE', #100, 39.37007874015748143 ) ;
#105 = MECHANICAL_DESIGN_GEOMETRIC_PRESENTATION_REPRESENTATION (  '', ( #29 ), #12 ) ;
#106 = FILL_AREA_STYLE_COLOUR ( '', #56 ) ;
#107 =( NAMED_UNIT ( * ) PLANE_ANGLE_UNIT ( ) SI_UNIT ( $, .RADIAN. ) );
#108 = CARTESIAN_POINT ( 'NONE',  ( -1.500000000000000444, 0.000000000000000000, 1.500000000000000444 ) ) ;
#109 = DIRECTION ( 'NONE',  ( -1.000000000000000000, 0.000000000000000000, -0.000000000000000000 ) ) ;
#110 = LINE ( 'NONE', #180, #119 ) ;
#111 = ORIENTED_EDGE ( 'NONE', *, *, #6, .F. ) ;
#112 = EDGE_CURVE ( 'NONE', #98, #186, #1, .T. ) ;
#113 = VERTEX_POINT ( 'NONE', #108 ) ;
#114 = ORIENTED_EDGE ( 'NONE', *, *, #173, .F. ) ;
#115 = ORIENTED_EDGE ( 'NONE', *, *, #57, .F. ) ;
#116 =( LENGTH_UNIT ( ) NAMED_UNIT ( * ) SI_UNIT ( $, .METRE. ) );
#117 =( CONVERSION_BASED_UNIT ( 'INCH', #21 ) LENGTH_UNIT ( ) NAMED_UNIT ( #157 ) );
#118 = VECTOR ( 'NONE', #147, 39.37007874015748143 ) ;
#119 = VECTOR ( 'NONE', #193, 39.37007874015748143 ) ;
#120 =( CONVERSION_BASED_UNIT ( 'INCH', #132 ) LENGTH_UNIT ( ) NAMED_UNIT ( #24 ) );
#121 = FACE_OUTER_BOUND ( 'NONE', #9, .T. ) ;
#122 = SURFACE_SIDE_STYLE ('',( #45 ) ) ;
#123 = LINE ( 'NONE', #2, #174 ) ;
#124 = EDGE_CURVE ( 'NONE', #19, #98, #162, .T. ) ;
#125 = VERTEX_POINT ( 'NONE', #28 ) ;
#126 = DIRECTION ( 'NONE',  ( 0.000000000000000000, -1.000000000000000000, 0.000000000000000000 ) ) ;
#127 = ORIENTED_EDGE ( 'NONE', *, *, #76, .T. ) ;
#128 = ORIENTED_EDGE ( 'NONE', *, *, #61, .F. ) ;
#129 = ORIENTED_EDGE ( 'NONE', *, *, #44, .T. ) ;
#130 =( GEOMETRIC_REPRESENTATION_CONTEXT ( 3 ) GLOBAL_UNCERTAINTY_ASSIGNED_CONTEXT ( ( #90 ) ) GLOBAL_UNIT_ASSIGNED_CONTEXT ( ( #117, #154, #73 ) ) REPRESENTATION_CONTEXT ( 'NONE', 'WORKASPACE' ) );
#131 = AXIS2_PLACEMENT_3D ( 'NONE', #54, #84, #190 ) ;
#132 = LENGTH_MEASURE_WITH_UNIT ( LENGTH_MEASURE( 0.02539999999999999897 ), #77 );
#133 = FACE_OUTER_BOUND ( 'NONE', #3, .T. ) ;
#134 = PLANE ( 'NONE',  #131 ) ;
#135 = DIRECTION ( 'NONE',  ( 0.000000000000000000, 0.000000000000000000, -1.000000000000000000 ) ) ;
#136 = ORIENTED_EDGE ( 'NONE', *, *, #124, .F. ) ;
#137 = PLANE ( 'NONE',  #143 ) ;
#138 = LINE ( 'NONE', #17, #89 ) ;
#139 = ADVANCED_FACE ( 'NONE', ( #133 ), #94, .F. ) ;
#140 = APPLICATION_PROTOCOL_DEFINITION ( 'draft international standard', 'automotive_design', 1998, #82 ) ;
#141 = VECTOR ( 'NONE', #63, 39.37007874015748143 ) ;
#142 = VECTOR ( 'NONE', #14, 39.37007874015748143 ) ;
#143 = AXIS2_PLACEMENT_3D ( 'NONE', #7, #55, #168 ) ;
#144 = CARTESIAN_POINT ( 'NONE',  ( -1.500000000000000444, 0.01574803149606299191, 1.500000000000000444 ) ) ;
#145 = CARTESIAN_POINT ( 'NONE',  ( -1.500000000000000444, 0.000000000000000000, 1.500000000000000444 ) ) ;
#146 = CARTESIAN_POINT ( 'NONE',  ( -1.500000000000000444, 0.01574803149606299191, 1.500000000000000444 ) ) ;
#147 = DIRECTION ( 'NONE',  ( -0.000000000000000000, -1.000000000000000000, -0.000000000000000000 ) ) ;
#148 = CARTESIAN_POINT ( 'NONE',  ( -1.500000000000000444, 0.000000000000000000, 1.500000000000000444 ) ) ;
#149 = CARTESIAN_POINT ( 'NONE',  ( -1.500000000000000444, 0.01574803149606299191, -1.499999999999999778 ) ) ;
#150 = VECTOR ( 'NONE', #46, 39.37007874015748143 ) ;
#151 = LINE ( 'NONE', #70, #5 ) ;
#152 = ADVANCED_FACE ( 'NONE', ( #95 ), #134, .F. ) ;
#153 = ORIENTED_EDGE ( 'NONE', *, *, #61, .T. ) ;
#154 =( NAMED_UNIT ( * ) PLANE_ANGLE_UNIT ( ) SI_UNIT ( $, .RADIAN. ) );
#155 = CARTESIAN_POINT ( 'NONE',  ( 0.000000000000000000, 0.000000000000000000, 0.000000000000000000 ) ) ;
#156 = PRODUCT_DEFINITION_SHAPE ( 'NONE', 'NONE',  #93 ) ;
#157 = DIMENSIONAL_EXPONENTS ( 1.000000000000000000, 0.000000000000000000, 0.000000000000000000, 0.000000000000000000, 0.000000000000000000, 0.000000000000000000, 0.000000000000000000 ) ;
#158 = ADVANCED_FACE ( 'NONE', ( #185 ), #166, .T. ) ;
#159 = VECTOR ( 'NONE', #13, 39.37007874015748143 ) ;
#160 = LINE ( 'NONE', #145, #142 ) ;
#161 =( NAMED_UNIT ( * ) SI_UNIT ( $, .STERADIAN. ) SOLID_ANGLE_UNIT ( ) );
#162 = LINE ( 'NONE', #80, #141 ) ;
#163 = PRODUCT_RELATED_PRODUCT_CATEGORY ( 'part', '', ( #169 ) ) ;
#164 = ORIENTED_EDGE ( 'NONE', *, *, #76, .F. ) ;
#165 = DIRECTION ( 'NONE',  ( 0.000000000000000000, 0.000000000000000000, -1.000000000000000000 ) ) ;
#166 = PLANE ( 'NONE',  #191 ) ;
#167 = VERTEX_POINT ( 'NONE', #172 ) ;
#168 = DIRECTION ( 'NONE',  ( 0.000000000000000000, 0.000000000000000000, 1.000000000000000000 ) ) ;
#169 = PRODUCT ( 'DispenserSlidePlate', 'DispenserSlidePlate', '', ( #35 ) ) ;
#170 = EDGE_LOOP ( 'NONE', ( #36, #67, #111, #52 ) ) ;
#171 = ORIENTED_EDGE ( 'NONE', *, *, #27, .F. ) ;
#172 = CARTESIAN_POINT ( 'NONE',  ( 1.499999999999999778, 0.01574803149606299191, -1.499999999999999778 ) ) ;
#173 = EDGE_CURVE ( 'NONE', #125, #22, #4, .T. ) ;
#174 = VECTOR ( 'NONE', #78, 39.37007874015748143 ) ;
#175 = DIRECTION ( 'NONE',  ( 0.000000000000000000, -1.000000000000000000, 0.000000000000000000 ) ) ;
#176 = EDGE_CURVE ( 'NONE', #186, #39, #151, .T. ) ;
#177 = CARTESIAN_POINT ( 'NONE',  ( 1.499999999999999778, 0.01574803149606299191, -1.499999999999999778 ) ) ;
#178 = UNCERTAINTY_MEASURE_WITH_UNIT (LENGTH_MEASURE( 1.000000000000000082E-05 ), #120, 'distance_accuracy_value', 'NONE');
#179 = PLANE ( 'NONE',  #59 ) ;
#180 = CARTESIAN_POINT ( 'NONE',  ( -1.500000000000000444, 0.01574803149606299191, -1.499999999999999778 ) ) ;
#181 = ORIENTED_EDGE ( 'NONE', *, *, #112, .F. ) ;
#182 = CARTESIAN_POINT ( 'NONE',  ( -1.500000000000000444, 0.000000000000000000, -1.499999999999999778 ) ) ;
#183 = ORIENTED_EDGE ( 'NONE', *, *, #41, .T. ) ;
#184 = ADVANCED_FACE ( 'NONE', ( #103 ), #137, .F. ) ;
#185 = FACE_OUTER_BOUND ( 'NONE', #188, .T. ) ;
#186 = VERTEX_POINT ( 'NONE', #97 ) ;
#187 = DIRECTION ( 'NONE',  ( -1.000000000000000000, -0.000000000000000000, -0.000000000000000000 ) ) ;
#188 = EDGE_LOOP ( 'NONE', ( #171, #65, #115, #114 ) ) ;
#189 = VECTOR ( 'NONE', #187, 39.37007874015748143 ) ;
#190 = DIRECTION ( 'NONE',  ( 0.000000000000000000, 0.000000000000000000, -1.000000000000000000 ) ) ;
#191 = AXIS2_PLACEMENT_3D ( 'NONE', #72, #126, #101 ) ;
#192 = CARTESIAN_POINT ( 'NONE',  ( -1.500000000000000444, 0.01574803149606299191, -1.499999999999999778 ) ) ;
#193 = DIRECTION ( 'NONE',  ( -1.000000000000000000, -0.000000000000000000, -0.000000000000000000 ) ) ;
ENDSEC;
END-ISO-10303-21;
