ISO-10303-21;
HEADER;
FILE_DESCRIPTION (( 'STEP AP214' ),
    '1' );
FILE_NAME ('LumaBoxV3.STEP',
    '2026-04-06T19:36:24',
    ( '' ),
    ( '' ),
    'SwSTEP 2.0',
    'SolidWorks 2025',
    '' );
FILE_SCHEMA (( 'AUTOMOTIVE_DESIGN' ));
ENDSEC;

DATA;
#1 = LINE ( 'NONE', #336, #151 ) ;
#2 = EDGE_LOOP ( 'NONE', ( #170, #128, #623, #274 ) ) ;
#3 = DIRECTION ( 'NONE',  ( 0.9335804264971999666, -0.3583679495453047648, 0.000000000000000000 ) ) ;
#4 = CARTESIAN_POINT ( 'NONE',  ( -1.307012597096079753, 1.000000000000000222, 1.500000000000000222 ) ) ;
#5 = LINE ( 'NONE', #560, #597 ) ;
#6 = VECTOR ( 'NONE', #211, 39.37007874015748143 ) ;
#7 = LINE ( 'NONE', #494, #280 ) ;
#8 = DIRECTION ( 'NONE',  ( -1.365923996832132349E-16, -1.000000000000000000, -0.000000000000000000 ) ) ;
#9 = FACE_OUTER_BOUND ( 'NONE', #282, .T. ) ;
#10 = CARTESIAN_POINT ( 'NONE',  ( 1.307012597096079753, -0.003430258726854003900, 1.500000000000000222 ) ) ;
#11 = CARTESIAN_POINT ( 'NONE',  ( 1.257012597096079709, -0.9300259394879644148, -0.7666667000000000343 ) ) ;
#12 = DIRECTION ( 'NONE',  ( 0.9335804264972000777, -0.3583679495453048203, 0.000000000000000000 ) ) ;
#13 = EDGE_LOOP ( 'NONE', ( #51, #442, #141, #285 ) ) ;
#14 = AXIS2_PLACEMENT_3D ( 'NONE', #54, #390, #632 ) ;
#15 = AXIS2_PLACEMENT_3D ( 'NONE', #599, #344, #504 ) ;
#16 = CARTESIAN_POINT ( 'NONE',  ( -0.5736792970960794547, -0.4959939866015181664, -0.7666667000000000343 ) ) ;
#17 = EDGE_CURVE ( 'NONE', #496, #445, #104, .T. ) ;
#18 = ORIENTED_EDGE ( 'NONE', *, *, #446, .T. ) ;
#19 = EDGE_CURVE ( 'NONE', #188, #418, #55, .T. ) ;
#20 = LINE ( 'NONE', #506, #492 ) ;
#21 = CARTESIAN_POINT ( 'NONE',  ( 1.257012597096079709, 0.01576294302491708377, -0.7666667000000001453 ) ) ;
#22 = ORIENTED_EDGE ( 'NONE', *, *, #156, .T. ) ;
#23 = PRODUCT_DEFINITION ( 'UNKNOWN', '', #69, #124 ) ;
#24 = CARTESIAN_POINT ( 'NONE',  ( -1.307012597096079753, 1.000000000000000222, -1.500000000000000222 ) ) ;
#25 = ORIENTED_EDGE ( 'NONE', *, *, #105, .F. ) ;
#26 = UNCERTAINTY_MEASURE_WITH_UNIT (LENGTH_MEASURE( 1.000000000000000082E-05 ), #371, 'distance_accuracy_value', 'NONE');
#27 = CARTESIAN_POINT ( 'NONE',  ( -1.295067010723500944, -0.9688806835694409036, 0.7666667000000000343 ) ) ;
#28 = DIRECTION ( 'NONE',  ( 0.000000000000000000, 0.000000000000000000, 1.000000000000000000 ) ) ;
#29 = AXIS2_PLACEMENT_3D ( 'NONE', #546, #345, #155 ) ;
#30 = ORIENTED_EDGE ( 'NONE', *, *, #156, .F. ) ;
#31 = LINE ( 'NONE', #27, #624 ) ;
#32 = ORIENTED_EDGE ( 'NONE', *, *, #312, .F. ) ;
#33 = ORIENTED_EDGE ( 'NONE', *, *, #360, .F. ) ;
#34 = VECTOR ( 'NONE', #218, 39.37007874015748143 ) ;
#35 = VERTEX_POINT ( 'NONE', #296 ) ;
#36 = VECTOR ( 'NONE', #273, 39.37007874015748143 ) ;
#37 = ADVANCED_FACE ( 'NONE', ( #541 ), #195, .F. ) ;
#38 = CARTESIAN_POINT ( 'NONE',  ( 1.257012597096079709, 0.01576294302491708377, 0.7666667000000000343 ) ) ;
#39 = EDGE_CURVE ( 'NONE', #90, #604, #391, .T. ) ;
#40 = EDGE_LOOP ( 'NONE', ( #524, #362, #324 ) ) ;
#41 = CARTESIAN_POINT ( 'NONE',  ( 0.5570125970960796424, -0.9300259394879640817, 0.7666667000000000343 ) ) ;
#42 = SURFACE_STYLE_FILL_AREA ( #484 ) ;
#43 = ORIENTED_EDGE ( 'NONE', *, *, #289, .T. ) ;
#44 = CARTESIAN_POINT ( 'NONE',  ( -0.5736792970960794547, -0.4959939866015182774, 1.466666699999999990 ) ) ;
#45 = CARTESIAN_POINT ( 'NONE',  ( -0.5736792970960795657, -7.836023183893249099E-17, 1.466666699999999990 ) ) ;
#46 = DIRECTION ( 'NONE',  ( 1.000000000000000000, 0.000000000000000000, -0.000000000000000000 ) ) ;
#47 = VECTOR ( 'NONE', #95, 39.37007874015748143 ) ;
#48 = CARTESIAN_POINT ( 'NONE',  ( 0.000000000000000000, 0.000000000000000000, 1.500000000000000222 ) ) ;
#49 = AXIS2_PLACEMENT_3D ( 'NONE', #309, #28, #489 ) ;
#50 = LINE ( 'NONE', #487, #366 ) ;
#51 = ORIENTED_EDGE ( 'NONE', *, *, #475, .T. ) ;
#52 = DIRECTION ( 'NONE',  ( 0.9335804264971999666, -0.3583679495453047648, 0.000000000000000000 ) ) ;
#53 = CARTESIAN_POINT ( 'NONE',  ( 1.507870161777793427, -1.295025961010640714, -1.466666699999999990 ) ) ;
#54 = CARTESIAN_POINT ( 'NONE',  ( -1.273679297096079743, 1.000000000000000222, 1.500000000000000222 ) ) ;
#55 = LINE ( 'NONE', #448, #78 ) ;
#56 = FACE_OUTER_BOUND ( 'NONE', #403, .T. ) ;
#57 = EDGE_CURVE ( 'NONE', #630, #604, #331, .T. ) ;
#58 = AXIS2_PLACEMENT_3D ( 'NONE', #145, #85, #369 ) ;
#59 = EDGE_CURVE ( 'NONE', #604, #496, #596, .T. ) ;
#60 = LINE ( 'NONE', #119, #214 ) ;
#61 = FACE_OUTER_BOUND ( 'NONE', #638, .T. ) ;
#62 = DIRECTION ( 'NONE',  ( -0.9335804264972000777, 0.3583679495453048203, 0.000000000000000000 ) ) ;
#63 = DIRECTION ( 'NONE',  ( 1.365923996832131609E-16, -1.000000000000000000, 0.000000000000000000 ) ) ;
#64 = EDGE_LOOP ( 'NONE', ( #254, #528, #381 ) ) ;
#65 = DIRECTION ( 'NONE',  ( -1.365923996832132349E-16, -1.000000000000000000, 0.000000000000000000 ) ) ;
#66 = EDGE_CURVE ( 'NONE', #604, #426, #144, .T. ) ;
#67 = DIRECTION ( 'NONE',  ( 0.9335804264971999666, -0.3583679495453047648, 0.000000000000000000 ) ) ;
#68 = VECTOR ( 'NONE', #208, 39.37007874015748143 ) ;
#69 = PRODUCT_DEFINITION_FORMATION_WITH_SPECIFIED_SOURCE ( 'ANY', '', #304, .NOT_KNOWN. ) ;
#70 = CARTESIAN_POINT ( 'NONE',  ( -0.5736792970960796767, 1.000000000000000222, 0.7666667000000000343 ) ) ;
#71 = ORIENTED_EDGE ( 'NONE', *, *, #270, .F. ) ;
#72 = SPHERICAL_SURFACE ( 'NONE', #544, 0.7000000000000000666 ) ;
#73 = LINE ( 'NONE', #215, #68 ) ;
#74 = ORIENTED_EDGE ( 'NONE', *, *, #66, .T. ) ;
#75 =( NAMED_UNIT ( * ) PLANE_ANGLE_UNIT ( ) SI_UNIT ( $, .RADIAN. ) );
#76 = DIRECTION ( 'NONE',  ( 0.9335804264971999666, -0.3583679495453048758, 0.000000000000000000 ) ) ;
#77 = VERTEX_POINT ( 'NONE', #101 ) ;
#78 = VECTOR ( 'NONE', #198, 39.37007874015748854 ) ;
#79 = AXIS2_PLACEMENT_3D ( 'NONE', #389, #76, #88 ) ;
#80 = ORIENTED_EDGE ( 'NONE', *, *, #310, .F. ) ;
#81 = ORIENTED_EDGE ( 'NONE', *, *, #223, .T. ) ;
#82 = ADVANCED_FACE ( 'NONE', ( #499 ), #337, .F. ) ;
#83 = VERTEX_POINT ( 'NONE', #398 ) ;
#84 = EDGE_CURVE ( 'NONE', #630, #496, #634, .T. ) ;
#85 = DIRECTION ( 'NONE',  ( 0.3583679495453048203, 0.9335804264972000777, -0.000000000000000000 ) ) ;
#86 = VECTOR ( 'NONE', #286, 39.37007874015748143 ) ;
#87 = VERTEX_POINT ( 'NONE', #212 ) ;
#88 = DIRECTION ( 'NONE',  ( 0.3583679495453049313, 0.9335804264972000777, 0.000000000000000000 ) ) ;
#89 = PLANE ( 'NONE',  #14 ) ;
#90 = VERTEX_POINT ( 'NONE', #21 ) ;
#91 = DIRECTION ( 'NONE',  ( 0.3583679495453047648, 0.9335804264972000777, 0.000000000000000000 ) ) ;
#92 = DIRECTION ( 'NONE',  ( 0.000000000000000000, 0.000000000000000000, -1.000000000000000000 ) ) ;
#93 = DIRECTION ( 'NONE',  ( 0.000000000000000000, 0.000000000000000000, 1.000000000000000000 ) ) ;
#94 = DIRECTION ( 'NONE',  ( -0.9335804264971999666, 0.3583679495453047648, -0.000000000000000000 ) ) ;
#95 = DIRECTION ( 'NONE',  ( -0.9335804264971999666, 0.3583679495453050423, 0.000000000000000000 ) ) ;
#96 = ORIENTED_EDGE ( 'NONE', *, *, #495, .T. ) ;
#97 = VECTOR ( 'NONE', #190, 39.37007874015748143 ) ;
#98 = VECTOR ( 'NONE', #3, 39.37007874015748854 ) ;
#99 = DIRECTION ( 'NONE',  ( 0.000000000000000000, 0.000000000000000000, 1.000000000000000000 ) ) ;
#100 = DIRECTION ( 'NONE',  ( 1.000000000000000000, 0.000000000000000000, 0.000000000000000000 ) ) ;
#101 = CARTESIAN_POINT ( 'NONE',  ( -0.8245368617777929510, -1.149500285149558376, 0.7666667000000000343 ) ) ;
#102 = DIRECTION ( 'NONE',  ( -0.9335804264971999666, 0.3583679495453047648, 0.000000000000000000 ) ) ;
#103 = SURFACE_SIDE_STYLE ('',( #42 ) ) ;
#104 = LINE ( 'NONE', #192, #543 ) ;
#105 = EDGE_CURVE ( 'NONE', #579, #574, #387, .T. ) ;
#106 = ADVANCED_FACE ( 'NONE', ( #61 ), #219, .F. ) ;
#107 = FACE_BOUND ( 'NONE', #292, .T. ) ;
#108 = FACE_OUTER_BOUND ( 'NONE', #272, .T. ) ;
#109 = EDGE_LOOP ( 'NONE', ( #355, #318, #521, #71 ) ) ;
#110 = CARTESIAN_POINT ( 'NONE',  ( -0.5736792970960794547, -0.4959939866015181664, 0.7666667000000000343 ) ) ;
#111 = VECTOR ( 'NONE', #123, 39.37007874015748143 ) ;
#112 = AXIS2_PLACEMENT_3D ( 'NONE', #41, #326, #238 ) ;
#113 = CARTESIAN_POINT ( 'NONE',  ( -1.307012597096079753, 1.000000000000000222, 1.500000000000000222 ) ) ;
#114 = ORIENTED_EDGE ( 'NONE', *, *, #613, .T. ) ;
#115 = DIRECTION ( 'NONE',  ( 1.000000000000000000, 0.000000000000000000, -0.000000000000000000 ) ) ;
#116 = CARTESIAN_POINT ( 'NONE',  ( -1.273679297096079521, -0.4959939866015180554, 0.7666667000000000343 ) ) ;
#117 = EDGE_LOOP ( 'NONE', ( #485, #127, #160, #328 ) ) ;
#118 = LINE ( 'NONE', #125, #122 ) ;
#119 = CARTESIAN_POINT ( 'NONE',  ( 1.307012597096079753, -0.003430258726854003900, -1.466666700000000212 ) ) ;
#120 = CARTESIAN_POINT ( 'NONE',  ( 1.257012597096079709, 0.01576294302491708377, 0.7666667000000000343 ) ) ;
#121 = CIRCLE ( 'NONE', #479, 0.6999999999999999556 ) ;
#122 = VECTOR ( 'NONE', #367, 39.37007874015748143 ) ;
#123 = DIRECTION ( 'NONE',  ( 0.000000000000000000, 0.000000000000000000, -1.000000000000000000 ) ) ;
#124 = PRODUCT_DEFINITION_CONTEXT ( 'detailed design', #411, 'design' ) ;
#125 = CARTESIAN_POINT ( 'NONE',  ( 1.257012597096079487, -2.003430258726853097, 0.7666667000000000343 ) ) ;
#126 = CARTESIAN_POINT ( 'NONE',  ( 1.307012597096079753, -0.003430258726854003900, 1.500000000000000222 ) ) ;
#127 = ORIENTED_EDGE ( 'NONE', *, *, #19, .F. ) ;
#128 = ORIENTED_EDGE ( 'NONE', *, *, #327, .F. ) ;
#129 = DIRECTION ( 'NONE',  ( 0.000000000000000000, -1.000000000000000000, -1.951319995474473974E-16 ) ) ;
#130 = AXIS2_PLACEMENT_3D ( 'NONE', #438, #587, #554 ) ;
#131 = AXIS2_PLACEMENT_3D ( 'NONE', #338, #617, #435 ) ;
#132 = EDGE_LOOP ( 'NONE', ( #268, #584, #74, #383 ) ) ;
#133 = ADVANCED_FACE ( 'NONE', ( #534 ), #441, .F. ) ;
#134 = EDGE_CURVE ( 'NONE', #216, #426, #290, .T. ) ;
#135 = ORIENTED_EDGE ( 'NONE', *, *, #471, .F. ) ;
#136 = DIRECTION ( 'NONE',  ( 0.000000000000000000, 0.000000000000000000, 1.000000000000000000 ) ) ;
#137 = ORIENTED_EDGE ( 'NONE', *, *, #500, .F. ) ;
#138 = DIRECTION ( 'NONE',  ( 0.000000000000000000, 1.000000000000000000, 0.000000000000000000 ) ) ;
#139 = LINE ( 'NONE', #540, #47 ) ;
#140 = AXIS2_PLACEMENT_3D ( 'NONE', #590, #93, #46 ) ;
#141 = ORIENTED_EDGE ( 'NONE', *, *, #84, .T. ) ;
#142 = AXIS2_PLACEMENT_3D ( 'NONE', #110, #511, #129 ) ;
#143 = CARTESIAN_POINT ( 'NONE',  ( -0.5736792970960795657, -0.4959939866015182774, -0.7666667000000000343 ) ) ;
#144 = LINE ( 'NONE', #393, #421 ) ;
#145 = CARTESIAN_POINT ( 'NONE',  ( -1.307012597096079531, -1.000000000000000222, 1.500000000000000222 ) ) ;
#146 =( CONVERSION_BASED_UNIT ( 'INCH', #298 ) LENGTH_UNIT ( ) NAMED_UNIT ( #636 ) );
#147 = DIRECTION ( 'NONE',  ( 0.9335804264972001887, -0.3583679495453043762, -0.000000000000000000 ) ) ;
#148 = PLANE ( 'NONE',  #619 ) ;
#149 = ADVANCED_FACE ( 'NONE', ( #197 ), #89, .T. ) ;
#150 = ORIENTED_EDGE ( 'NONE', *, *, #200, .T. ) ;
#151 = VECTOR ( 'NONE', #550, 39.37007874015748143 ) ;
#152 = VECTOR ( 'NONE', #335, 39.37007874015748143 ) ;
#153 = FACE_OUTER_BOUND ( 'NONE', #235, .T. ) ;
#154 = EDGE_CURVE ( 'NONE', #216, #630, #50, .T. ) ;
#155 = DIRECTION ( 'NONE',  ( -1.365923996832132349E-16, -1.000000000000000000, 0.000000000000000000 ) ) ;
#156 = EDGE_CURVE ( 'NONE', #334, #575, #1, .T. ) ;
#157 = DIRECTION ( 'NONE',  ( -1.365923996832131609E-16, 1.000000000000000000, 0.000000000000000000 ) ) ;
#158 = CARTESIAN_POINT ( 'NONE',  ( -0.5736792970960795657, -7.836023183893249099E-17, -0.7666667000000000343 ) ) ;
#159 = CARTESIAN_POINT ( 'NONE',  ( -0.5736792970960795657, -0.4959939866015182774, 0.7666667000000000343 ) ) ;
#160 = ORIENTED_EDGE ( 'NONE', *, *, #300, .F. ) ;
#161 = DIRECTION ( 'NONE',  ( -0.000000000000000000, -0.000000000000000000, -1.000000000000000000 ) ) ;
#162 = ORIENTED_EDGE ( 'NONE', *, *, #329, .T. ) ;
#163 = CYLINDRICAL_SURFACE ( 'NONE', #578, 0.7000000000000000666 ) ;
#164 = CARTESIAN_POINT ( 'NONE',  ( -1.273679297096079743, 1.000000000000000222, 0.7666667000000000343 ) ) ;
#165 = ORIENTED_EDGE ( 'NONE', *, *, #17, .F. ) ;
#166 =( BOUNDED_CURVE ( )  B_SPLINE_CURVE ( 3, ( #456, #306, #245, #356 ),
 .UNSPECIFIED., .F., .T. ) 
 B_SPLINE_CURVE_WITH_KNOTS ( ( 4, 4 ),
 ( 1.951319995474473234E-16, 1.570796326794895892 ),
 .UNSPECIFIED. ) 
 CURVE ( )  GEOMETRIC_REPRESENTATION_ITEM ( )  RATIONAL_B_SPLINE_CURVE ( ( 1.000000000000000000, 0.8047378541243652705, 0.8047378541243652705, 1.000000000000000000 ) ) 
 REPRESENTATION_ITEM ( '' )  );
#167 = CARTESIAN_POINT ( 'NONE',  ( 1.307012597096079531, -2.003430258726853097, -1.500000000000000222 ) ) ;
#168 = ORIENTED_EDGE ( 'NONE', *, *, #267, .T. ) ;
#169 = LINE ( 'NONE', #10, #263 ) ;
#170 = ORIENTED_EDGE ( 'NONE', *, *, #547, .T. ) ;
#171 = CARTESIAN_POINT ( 'NONE',  ( 0.3061550324143664792, -1.583532238036004403, -0.7666667000000000343 ) ) ;
#172 = AXIS2_PLACEMENT_3D ( 'NONE', #559, #410, #100 ) ;
#173 = CARTESIAN_POINT ( 'NONE',  ( -0.8245368617777929510, -1.149500285149558376, -0.7666667000000000343 ) ) ;
#174 = EDGE_CURVE ( 'NONE', #563, #436, #505, .T. ) ;
#175 = ORIENTED_EDGE ( 'NONE', *, *, #380, .F. ) ;
#176 = CARTESIAN_POINT ( 'NONE',  ( 1.307012597096079531, -2.003430258726853097, 1.500000000000000222 ) ) ;
#177 = ORIENTED_EDGE ( 'NONE', *, *, #249, .F. ) ;
#178 = DIRECTION ( 'NONE',  ( 1.365923996832132349E-16, 1.000000000000000000, 0.000000000000000000 ) ) ;
#179 = ORIENTED_EDGE ( 'NONE', *, *, #154, .F. ) ;
#180 = UNCERTAINTY_MEASURE_WITH_UNIT (LENGTH_MEASURE( 1.000000000000000082E-05 ), #146, 'distance_accuracy_value', 'NONE');
#181 = EDGE_CURVE ( 'NONE', #418, #579, #246, .T. ) ;
#182 = AXIS2_PLACEMENT_3D ( 'NONE', #196, #552, #102 ) ;
#183 = ORIENTED_EDGE ( 'NONE', *, *, #223, .F. ) ;
#184 = CARTESIAN_POINT ( 'NONE',  ( -0.5736792970960794547, -0.4959939866015181664, -0.7666667000000000343 ) ) ;
#185 = PRODUCT_DEFINITION_SHAPE ( 'NONE', 'NONE',  #23 ) ;
#186 = ORIENTED_EDGE ( 'NONE', *, *, #39, .F. ) ;
#187 = CARTESIAN_POINT ( 'NONE',  ( 0.9670631034349134181, 0.1270641256181698209, 1.466666699999999546 ) ) ;
#188 = VERTEX_POINT ( 'NONE', #637 ) ;
#189 = CARTESIAN_POINT ( 'NONE',  ( -1.273679297096079521, -0.9770906576226450202, -0.7666667000000000343 ) ) ;
#190 = DIRECTION ( 'NONE',  ( 1.365923996832131609E-16, -1.000000000000000000, 0.000000000000000000 ) ) ;
#191 = AXIS2_PLACEMENT_3D ( 'NONE', #159, #466, #610 ) ;
#192 = CARTESIAN_POINT ( 'NONE',  ( 0.5570125970960797535, 0.01576294302491718091, -1.466666699999999990 ) ) ;
#193 = LINE ( 'NONE', #189, #234 ) ;
#194 = CARTESIAN_POINT ( 'NONE',  ( 0.5570125970960797535, -0.9300259394879643038, 0.7666667000000000343 ) ) ;
#195 = PLANE ( 'NONE',  #516 ) ;
#196 = CARTESIAN_POINT ( 'NONE',  ( -1.295067010723500944, -0.9688806835694409036, 1.500000000000000222 ) ) ;
#197 = FACE_OUTER_BOUND ( 'NONE', #531, .T. ) ;
#198 = DIRECTION ( 'NONE',  ( -0.9335804264971999666, 0.3583679495453047648, -0.000000000000000000 ) ) ;
#199 = DIRECTION ( 'NONE',  ( -1.365923996832131609E-16, 1.000000000000000000, 0.000000000000000000 ) ) ;
#200 = EDGE_CURVE ( 'NONE', #420, #428, #253, .T. ) ;
#201 = EDGE_CURVE ( 'NONE', #35, #87, #7, .T. ) ;
#202 = CARTESIAN_POINT ( 'NONE',  ( 0.3061550324143664792, -1.583532238036004403, 0.7666667000000000343 ) ) ;
#203 = MANIFOLD_SOLID_BREP ( 'Fillet1', #255 ) ;
#204 = FACE_OUTER_BOUND ( 'NONE', #13, .T. ) ;
#205 = DIRECTION ( 'NONE',  ( -1.000000000000000000, 0.000000000000000000, 0.000000000000000000 ) ) ;
#206 = EDGE_LOOP ( 'NONE', ( #407, #594, #571, #518 ) ) ;
#207 = FACE_OUTER_BOUND ( 'NONE', #132, .T. ) ;
#208 = DIRECTION ( 'NONE',  ( -0.000000000000000000, -0.000000000000000000, -1.000000000000000000 ) ) ;
#209 = ORIENTED_EDGE ( 'NONE', *, *, #412, .T. ) ;
#210 = FACE_OUTER_BOUND ( 'NONE', #525, .T. ) ;
#211 = DIRECTION ( 'NONE',  ( 1.365923996832131609E-16, -1.000000000000000000, 0.000000000000000000 ) ) ;
#212 = CARTESIAN_POINT ( 'NONE',  ( -1.307012597096079531, -1.000000000000000222, -1.500000000000000222 ) ) ;
#213 = EDGE_LOOP ( 'NONE', ( #626, #251, #243, #481 ) ) ;
#214 = VECTOR ( 'NONE', #262, 39.37007874015748143 ) ;
#215 = CARTESIAN_POINT ( 'NONE',  ( -1.307012597096079753, 1.000000000000000222, 1.500000000000000222 ) ) ;
#216 = VERTEX_POINT ( 'NONE', #202 ) ;
#217 = APPLICATION_PROTOCOL_DEFINITION ( 'draft international standard', 'automotive_design', 1998, #482 ) ;
#218 = DIRECTION ( 'NONE',  ( -1.365923996832132349E-16, -1.000000000000000000, 0.000000000000000000 ) ) ;
#219 = CYLINDRICAL_SURFACE ( 'NONE', #172, 0.6999999999999999556 ) ;
#220 = EDGE_LOOP ( 'NONE', ( #230, #476, #183, #43 ) ) ;
#221 = LINE ( 'NONE', #176, #397 ) ;
#222 = EDGE_CURVE ( 'NONE', #575, #228, #139, .T. ) ;
#223 = EDGE_CURVE ( 'NONE', #83, #35, #291, .T. ) ;
#224 = DIRECTION ( 'NONE',  ( 1.000000000000000000, 0.000000000000000000, -0.000000000000000000 ) ) ;
#225 = ORIENTED_EDGE ( 'NONE', *, *, #134, .T. ) ;
#226 = DIRECTION ( 'NONE',  ( 0.000000000000000000, 0.000000000000000000, 1.000000000000000000 ) ) ;
#227 = STYLED_ITEM ( 'NONE', ( #239 ), #203 ) ;
#228 = VERTEX_POINT ( 'NONE', #24 ) ;
#229 = FACE_OUTER_BOUND ( 'NONE', #370, .T. ) ;
#230 = ORIENTED_EDGE ( 'NONE', *, *, #471, .T. ) ;
#231 = ORIENTED_EDGE ( 'NONE', *, *, #17, .T. ) ;
#232 = FACE_OUTER_BOUND ( 'NONE', #2, .T. ) ;
#233 = AXIS2_PLACEMENT_3D ( 'NONE', #357, #12, #457 ) ;
#234 = VECTOR ( 'NONE', #94, 39.37007874015748854 ) ;
#235 = EDGE_LOOP ( 'NONE', ( #137, #247, #33, #551 ) ) ;
#236 = LINE ( 'NONE', #330, #152 ) ;
#237 = ORIENTED_EDGE ( 'NONE', *, *, #433, .T. ) ;
#238 = DIRECTION ( 'NONE',  ( -1.000000000000000000, 3.902639990948946962E-16, 0.000000000000000000 ) ) ;
#239 = PRESENTATION_STYLE_ASSIGNMENT (( #396 ) ) ;
#240 = ORIENTED_EDGE ( 'NONE', *, *, #57, .F. ) ;
#241 = CARTESIAN_POINT ( 'NONE',  ( -0.5736792970960794547, -0.4959939866015181664, -1.466666699999999990 ) ) ;
#242 =( NAMED_UNIT ( * ) PLANE_ANGLE_UNIT ( ) SI_UNIT ( $, .RADIAN. ) );
#243 = ORIENTED_EDGE ( 'NONE', *, *, #545, .F. ) ;
#244 = VECTOR ( 'NONE', #580, 39.37007874015748143 ) ;
#245 = CARTESIAN_POINT ( 'NONE',  ( -0.9837298034349132303, 0.8759033623677008329, -1.466666699999999768 ) ) ;
#246 = LINE ( 'NONE', #45, #86 ) ;
#247 = ORIENTED_EDGE ( 'NONE', *, *, #248, .F. ) ;
#248 = EDGE_CURVE ( 'NONE', #563, #372, #271, .T. ) ;
#249 = EDGE_CURVE ( 'NONE', #478, #575, #169, .T. ) ;
#250 = CARTESIAN_POINT ( 'NONE',  ( -1.307012597096079531, -1.000000000000000222, -1.500000000000000222 ) ) ;
#251 = ORIENTED_EDGE ( 'NONE', *, *, #289, .F. ) ;
#252 = CARTESIAN_POINT ( 'NONE',  ( 1.307012597096079753, -0.003430258726854003900, -1.500000000000000222 ) ) ;
#253 = LINE ( 'NONE', #453, #97 ) ;
#254 = ORIENTED_EDGE ( 'NONE', *, *, #360, .T. ) ;
#255 = CLOSED_SHELL ( 'NONE', ( #592, #37, #477, #133, #570, #379, #149, #585, #527, #82, #429, #283, #520, #284, #593, #614, #501, #569, #359, #106, #402, #609, #565 ) ) ;
#256 = AXIS2_PLACEMENT_3D ( 'NONE', #549, #62, #340 ) ;
#257 = CARTESIAN_POINT ( 'NONE',  ( 1.307012597096079753, -0.003430258726854003900, 1.500000000000000222 ) ) ;
#258 = FACE_OUTER_BOUND ( 'NONE', #325, .T. ) ;
#259 = FACE_OUTER_BOUND ( 'NONE', #213, .T. ) ;
#260 = FACE_OUTER_BOUND ( 'NONE', #320, .T. ) ;
#261 = ORIENTED_EDGE ( 'NONE', *, *, #134, .F. ) ;
#262 = DIRECTION ( 'NONE',  ( -0.9335804264971999666, 0.3583679495453050423, 0.000000000000000000 ) ) ;
#263 = VECTOR ( 'NONE', #161, 39.37007874015748143 ) ;
#264 = FACE_OUTER_BOUND ( 'NONE', #40, .T. ) ;
#265 = AXIS2_PLACEMENT_3D ( 'NONE', #363, #564, #616 ) ;
#266 = DIRECTION ( 'NONE',  ( -0.9335804264971999666, 0.3583679495453050423, 0.000000000000000000 ) ) ;
#267 = EDGE_CURVE ( 'NONE', #35, #474, #20, .T. ) ;
#268 = ORIENTED_EDGE ( 'NONE', *, *, #310, .T. ) ;
#269 = DIRECTION ( 'NONE',  ( 0.000000000000000000, 1.000000000000000000, 1.951319995474473481E-16 ) ) ;
#270 = EDGE_CURVE ( 'NONE', #305, #188, #303, .T. ) ;
#271 = LINE ( 'NONE', #307, #395 ) ;
#272 = EDGE_LOOP ( 'NONE', ( #576, #165, #377, #186 ) ) ;
#273 = DIRECTION ( 'NONE',  ( 1.365923996832131609E-16, -1.000000000000000000, 0.000000000000000000 ) ) ;
#274 = ORIENTED_EDGE ( 'NONE', *, *, #201, .T. ) ;
#275 =( NAMED_UNIT ( * ) SI_UNIT ( $, .STERADIAN. ) SOLID_ANGLE_UNIT ( ) );
#276 = ORIENTED_EDGE ( 'NONE', *, *, #351, .T. ) ;
#277 = ORIENTED_EDGE ( 'NONE', *, *, #547, .F. ) ;
#278 = ORIENTED_EDGE ( 'NONE', *, *, #427, .F. ) ;
#279 = CARTESIAN_POINT ( 'NONE',  ( 0.5570125970960796424, -0.9300259394879639707, -1.466666699999999990 ) ) ;
#280 = VECTOR ( 'NONE', #444, 39.37007874015748143 ) ;
#281 = CIRCLE ( 'NONE', #577, 0.7000000000000001776 ) ;
#282 = EDGE_LOOP ( 'NONE', ( #322, #81, #168, #114 ) ) ;
#283 = ADVANCED_FACE ( 'NONE', ( #260 ), #459, .F. ) ;
#284 = ADVANCED_FACE ( 'NONE', ( #553 ), #515, .F. ) ;
#285 = ORIENTED_EDGE ( 'NONE', *, *, #522, .F. ) ;
#286 = DIRECTION ( 'NONE',  ( -1.365923996832131609E-16, 1.000000000000000000, -0.000000000000000000 ) ) ;
#287 = ORIENTED_EDGE ( 'NONE', *, *, #329, .F. ) ;
#288 = LINE ( 'NONE', #533, #244 ) ;
#289 = EDGE_CURVE ( 'NONE', #83, #228, #73, .T. ) ;
#290 = CIRCLE ( 'NONE', #430, 0.7000000000000000666 ) ;
#291 = LINE ( 'NONE', #113, #462 ) ;
#292 = EDGE_LOOP ( 'NONE', ( #365, #567, #80, #96, #276, #513, #467, #424 ) ) ;
#293 = AXIS2_PLACEMENT_3D ( 'NONE', #16, #317, #301 ) ;
#294 = DIRECTION ( 'NONE',  ( -0.9335804264971999666, 0.3583679495453050423, 0.000000000000000000 ) ) ;
#295 = DIRECTION ( 'NONE',  ( 1.000000000000000000, 0.000000000000000000, 0.000000000000000000 ) ) ;
#296 = CARTESIAN_POINT ( 'NONE',  ( -1.307012597096079531, -1.000000000000000222, 1.500000000000000222 ) ) ;
#297 = DIRECTION ( 'NONE',  ( -0.3583679495453050423, -0.9335804264971999666, 0.000000000000000000 ) ) ;
#298 = LENGTH_MEASURE_WITH_UNIT ( LENGTH_MEASURE( 0.02539999999999999897 ), #589 );
#299 = EDGE_LOOP ( 'NONE', ( #581, #231, #415, #150 ) ) ;
#300 = EDGE_CURVE ( 'NONE', #216, #188, #121, .T. ) ;
#301 = DIRECTION ( 'NONE',  ( -1.000000000000000000, 1.951319995474473974E-16, 0.000000000000000000 ) ) ;
#302 = FACE_OUTER_BOUND ( 'NONE', #109, .T. ) ;
#303 = LINE ( 'NONE', #361, #34 ) ;
#304 = PRODUCT ( 'LumaBoxV3', 'LumaBoxV3', '', ( #422 ) ) ;
#305 = VERTEX_POINT ( 'NONE', #568 ) ;
#306 = CARTESIAN_POINT ( 'NONE',  ( -1.273679297096079743, 0.9872045449609535561, -1.176717206338833366 ) ) ;
#307 = CARTESIAN_POINT ( 'NONE',  ( -1.273679297096079743, 0.9872045449609538892, -0.7666667000000000343 ) ) ;
#308 = ORIENTED_EDGE ( 'NONE', *, *, #327, .T. ) ;
#309 = CARTESIAN_POINT ( 'NONE',  ( 0.000000000000000000, 0.000000000000000000, -1.500000000000000222 ) ) ;
#310 = EDGE_CURVE ( 'NONE', #620, #90, #353, .T. ) ;
#311 = CARTESIAN_POINT ( 'NONE',  ( -1.273679297096079743, 0.9872045449609538892, 0.7666667000000000343 ) ) ;
#312 = EDGE_CURVE ( 'NONE', #574, #343, #414, .T. ) ;
#313 = ORIENTED_EDGE ( 'NONE', *, *, #380, .T. ) ;
#314 = PRESENTATION_LAYER_ASSIGNMENT (  '', '', ( #227 ) ) ;
#315 = APPLICATION_PROTOCOL_DEFINITION ( 'draft international standard', 'automotive_design', 1998, #411 ) ;
#316 = AXIS2_PLACEMENT_3D ( 'NONE', #606, #65, #566 ) ;
#317 = DIRECTION ( 'NONE',  ( 1.951319995474473974E-16, 1.000000000000000000, 0.000000000000000000 ) ) ;
#318 = ORIENTED_EDGE ( 'NONE', *, *, #629, .F. ) ;
#319 =( LENGTH_UNIT ( ) NAMED_UNIT ( * ) SI_UNIT ( $, .METRE. ) );
#320 = EDGE_LOOP ( 'NONE', ( #25, #601, #278, #32 ) ) ;
#321 = SHAPE_DEFINITION_REPRESENTATION ( #185, #470 ) ;
#322 = ORIENTED_EDGE ( 'NONE', *, *, #545, .T. ) ;
#323 = CIRCLE ( 'NONE', #112, 0.7000000000000000666 ) ;
#324 = ORIENTED_EDGE ( 'NONE', *, *, #84, .F. ) ;
#325 = EDGE_LOOP ( 'NONE', ( #346, #30, #277, #135 ) ) ;
#326 = DIRECTION ( 'NONE',  ( 3.902639990948946962E-16, 1.000000000000000000, -0.000000000000000000 ) ) ;
#327 = EDGE_CURVE ( 'NONE', #474, #334, #603, .T. ) ;
#328 = ORIENTED_EDGE ( 'NONE', *, *, #628, .F. ) ;
#329 = EDGE_CURVE ( 'NONE', #343, #77, #473, .T. ) ;
#330 = CARTESIAN_POINT ( 'NONE',  ( -1.273679297096079743, 0.9872045449609538892, 1.500000000000000222 ) ) ;
#331 = CIRCLE ( 'NONE', #618, 0.6999999999999999556 ) ;
#332 = CIRCLE ( 'NONE', #79, 0.6999999999999999556 ) ;
#333 = FILL_AREA_STYLE_COLOUR ( '', #385 ) ;
#334 = VERTEX_POINT ( 'NONE', #167 ) ;
#335 = DIRECTION ( 'NONE',  ( 0.000000000000000000, 0.000000000000000000, -1.000000000000000000 ) ) ;
#336 = CARTESIAN_POINT ( 'NONE',  ( 1.307012597096079531, -2.003430258726853097, -1.500000000000000222 ) ) ;
#337 = PLANE ( 'NONE',  #140 ) ;
#338 = CARTESIAN_POINT ( 'NONE',  ( -0.5736792970960794547, -0.4959939866015179999, 0.7666667000000000343 ) ) ;
#339 = DIRECTION ( 'NONE',  ( -0.3583679495453044872, -0.9335804264972000777, 0.000000000000000000 ) ) ;
#340 = DIRECTION ( 'NONE',  ( -0.3583679495453049313, -0.9335804264972000777, 0.000000000000000000 ) ) ;
#341 = AXIS2_PLACEMENT_3D ( 'NONE', #70, #519, #561 ) ;
#342 = DIRECTION ( 'NONE',  ( -0.000000000000000000, 0.000000000000000000, 1.000000000000000000 ) ) ;
#343 = VERTEX_POINT ( 'NONE', #116 ) ;
#344 = DIRECTION ( 'NONE',  ( -1.000000000000000000, 1.365923996832132349E-16, 0.000000000000000000 ) ) ;
#345 = DIRECTION ( 'NONE',  ( -1.000000000000000000, 1.365923996832132349E-16, 0.000000000000000000 ) ) ;
#346 = ORIENTED_EDGE ( 'NONE', *, *, #222, .F. ) ;
#347 = CARTESIAN_POINT ( 'NONE',  ( -0.5736792970960803428, 0.7184997204361588397, 1.466666699999999990 ) ) ;
#348 = DIMENSIONAL_EXPONENTS ( 1.000000000000000000, 0.000000000000000000, 0.000000000000000000, 0.000000000000000000, 0.000000000000000000, 0.000000000000000000, 0.000000000000000000 ) ;
#349 = DIRECTION ( 'NONE',  ( -1.365923996832131609E-16, 1.000000000000000000, -0.000000000000000000 ) ) ;
#350 = DIRECTION ( 'NONE',  ( 1.000000000000000000, 1.365923996832131609E-16, -0.000000000000000000 ) ) ;
#351 = EDGE_CURVE ( 'NONE', #305, #579, #409, .T. ) ;
#352 = SPHERICAL_SURFACE ( 'NONE', #142, 0.7000000000000000666 ) ;
#353 = LINE ( 'NONE', #557, #111 ) ;
#354 =( GEOMETRIC_REPRESENTATION_CONTEXT ( 3 ) GLOBAL_UNCERTAINTY_ASSIGNED_CONTEXT ( ( #26 ) ) GLOBAL_UNIT_ASSIGNED_CONTEXT ( ( #371, #75, #275 ) ) REPRESENTATION_CONTEXT ( 'NONE', 'WORKASPACE' ) );
#355 = ORIENTED_EDGE ( 'NONE', *, *, #495, .F. ) ;
#356 = CARTESIAN_POINT ( 'NONE',  ( -0.5736792970960801208, 0.7184997204361588397, -1.466666700000000212 ) ) ;
#357 = CARTESIAN_POINT ( 'NONE',  ( -1.044209446041787448, -0.3153743850214009159, 0.7666667000000000343 ) ) ;
#358 = ORIENTED_EDGE ( 'NONE', *, *, #628, .T. ) ;
#359 = ADVANCED_FACE ( 'NONE', ( #108 ), #509, .F. ) ;
#360 = EDGE_CURVE ( 'NONE', #428, #563, #493, .T. ) ;
#361 = CARTESIAN_POINT ( 'NONE',  ( 0.5570125970960797535, -7.608368729113234649E-17, 1.466666699999999990 ) ) ;
#362 = ORIENTED_EDGE ( 'NONE', *, *, #59, .T. ) ;
#363 = CARTESIAN_POINT ( 'NONE',  ( 0.5570125970960796424, -0.9300259394879640817, 0.7666667000000000343 ) ) ;
#364 = DIRECTION ( 'NONE',  ( -0.3583679495453049313, -0.9335804264972000777, 0.000000000000000000 ) ) ;
#365 = ORIENTED_EDGE ( 'NONE', *, *, #375, .F. ) ;
#366 = VECTOR ( 'NONE', #92, 39.37007874015748143 ) ;
#367 = DIRECTION ( 'NONE',  ( 1.365923996832132349E-16, 1.000000000000000000, -0.000000000000000000 ) ) ;
#368 = AXIS2_PLACEMENT_3D ( 'NONE', #158, #199, #605 ) ;
#369 = DIRECTION ( 'NONE',  ( -0.9335804264971999666, 0.3583679495453047648, 0.000000000000000000 ) ) ;
#370 = EDGE_LOOP ( 'NONE', ( #529, #611, #261 ) ) ;
#371 =( CONVERSION_BASED_UNIT ( 'INCH', #465 ) LENGTH_UNIT ( ) NAMED_UNIT ( #348 ) );
#372 = VERTEX_POINT ( 'NONE', #615 ) ;
#373 = ORIENTED_EDGE ( 'NONE', *, *, #427, .T. ) ;
#374 = AXIS2_PLACEMENT_3D ( 'NONE', #598, #147, #339 ) ;
#375 = EDGE_CURVE ( 'NONE', #445, #420, #60, .T. ) ;
#376 = CIRCLE ( 'NONE', #131, 0.7000000000000000666 ) ;
#377 = ORIENTED_EDGE ( 'NONE', *, *, #59, .F. ) ;
#378 = CARTESIAN_POINT ( 'NONE',  ( 1.257012597096079709, -0.9300259394879644148, 0.7666667000000000343 ) ) ;
#379 = ADVANCED_FACE ( 'NONE', ( #258 ), #405, .F. ) ;
#380 = EDGE_CURVE ( 'NONE', #343, #563, #625, .T. ) ;
#381 = ORIENTED_EDGE ( 'NONE', *, *, #475, .F. ) ;
#382 = CARTESIAN_POINT ( 'NONE',  ( 0.5570125970960794204, 0.2844677675497123692, 1.466666699999999990 ) ) ;
#383 = ORIENTED_EDGE ( 'NONE', *, *, #629, .T. ) ;
#384 = CARTESIAN_POINT ( 'NONE',  ( 0.5570125970960796424, 0.2844677675497123137, -1.466666700000000212 ) ) ;
#385 = COLOUR_RGB ( '',0.7921568627450980005, 0.8196078431372548767, 0.9333333333333333481 ) ;
#386 = AXIS2_PLACEMENT_3D ( 'NONE', #497, #508, #555 ) ;
#387 =( BOUNDED_CURVE ( )  B_SPLINE_CURVE ( 3, ( #517, #573, #507, #311 ),
 .UNSPECIFIED., .F., .T. ) 
 B_SPLINE_CURVE_WITH_KNOTS ( ( 4, 4 ),
 ( 1.570796326794897446, 3.141592653589793116 ),
 .UNSPECIFIED. ) 
 CURVE ( )  GEOMETRIC_REPRESENTATION_ITEM ( )  RATIONAL_B_SPLINE_CURVE ( ( 1.000000000000000000, 0.8047378541243652705, 0.8047378541243652705, 1.000000000000000000 ) ) 
 REPRESENTATION_ITEM ( '' )  );
#388 = CARTESIAN_POINT ( 'NONE',  ( 0.5570125970960798645, -0.9300259394879643038, -0.7666667000000000343 ) ) ;
#389 = CARTESIAN_POINT ( 'NONE',  ( -0.5736792970960794547, -0.4959939866015182774, 0.7666667000000000343 ) ) ;
#390 = DIRECTION ( 'NONE',  ( 1.000000000000000000, 1.365923996832131609E-16, -0.000000000000000000 ) ) ;
#391 = LINE ( 'NONE', #503, #556 ) ;
#392 = CARTESIAN_POINT ( 'NONE',  ( -1.273679297096079521, -0.4959939866015180554, -0.7666667000000000343 ) ) ;
#393 = CARTESIAN_POINT ( 'NONE',  ( 1.257012597096079709, -0.9300259394879644148, 1.466666699999999990 ) ) ;
#394 = CARTESIAN_POINT ( 'NONE',  ( -1.273679297096079743, 0.9872045449609538892, 0.7666667000000000343 ) ) ;
#395 = VECTOR ( 'NONE', #349, 39.37007874015748143 ) ;
#396 = SURFACE_STYLE_USAGE ( .BOTH. , #103 ) ;
#397 = VECTOR ( 'NONE', #178, 39.37007874015748143 ) ;
#398 = CARTESIAN_POINT ( 'NONE',  ( -1.307012597096079753, 1.000000000000000222, 1.500000000000000222 ) ) ;
#399 = CYLINDRICAL_SURFACE ( 'NONE', #368, 0.7000000000000001776 ) ;
#400 = EDGE_CURVE ( 'NONE', #574, #372, #236, .T. ) ;
#401 = DIRECTION ( 'NONE',  ( 0.9335804264971999666, -0.3583679495453047648, 0.000000000000000000 ) ) ;
#402 = ADVANCED_FACE ( 'NONE', ( #582 ), #631, .F. ) ;
#403 = EDGE_LOOP ( 'NONE', ( #358, #460, #237, #209 ) ) ;
#404 = PLANE ( 'NONE',  #558 ) ;
#405 = PLANE ( 'NONE',  #49 ) ;
#406 = PRODUCT_RELATED_PRODUCT_CATEGORY ( 'part', '', ( #304 ) ) ;
#407 = ORIENTED_EDGE ( 'NONE', *, *, #19, .T. ) ;
#408 = DIRECTION ( 'NONE',  ( 1.000000000000000000, 0.000000000000000000, 0.000000000000000000 ) ) ;
#409 = LINE ( 'NONE', #512, #432 ) ;
#410 = DIRECTION ( 'NONE',  ( 0.000000000000000000, 0.000000000000000000, 1.000000000000000000 ) ) ;
#411 = APPLICATION_CONTEXT ( 'automotive_design' ) ;
#412 = EDGE_CURVE ( 'NONE', #436, #77, #288, .T. ) ;
#413 = EDGE_LOOP ( 'NONE', ( #373, #18, #287 ) ) ;
#414 = LINE ( 'NONE', #164, #6 ) ;
#415 = ORIENTED_EDGE ( 'NONE', *, *, #375, .T. ) ;
#416 = DIRECTION ( 'NONE',  ( 1.000000000000000000, -0.000000000000000000, 0.000000000000000000 ) ) ;
#417 = DIRECTION ( 'NONE',  ( -0.000000000000000000, -0.000000000000000000, -1.000000000000000000 ) ) ;
#418 = VERTEX_POINT ( 'NONE', #44 ) ;
#419 = PLANE ( 'NONE',  #58 ) ;
#420 = VERTEX_POINT ( 'NONE', #486 ) ;
#421 = VECTOR ( 'NONE', #548, 39.37007874015748143 ) ;
#422 = PRODUCT_CONTEXT ( 'NONE', #482, 'mechanical' ) ;
#423 = VECTOR ( 'NONE', #52, 39.37007874015748854 ) ;
#424 = ORIENTED_EDGE ( 'NONE', *, *, #500, .T. ) ;
#425 = CARTESIAN_POINT ( 'NONE',  ( 0.000000000000000000, 0.000000000000000000, 0.000000000000000000 ) ) ;
#426 = VERTEX_POINT ( 'NONE', #378 ) ;
#427 = EDGE_CURVE ( 'NONE', #343, #418, #376, .T. ) ;
#428 = VERTEX_POINT ( 'NONE', #241 ) ;
#429 = ADVANCED_FACE ( 'NONE', ( #635 ), #439, .T. ) ;
#430 = AXIS2_PLACEMENT_3D ( 'NONE', #194, #342, #205 ) ;
#431 = CARTESIAN_POINT ( 'NONE',  ( 1.257012597096080153, 0.01576294302491705254, -1.176717206338833588 ) ) ;
#432 = VECTOR ( 'NONE', #266, 39.37007874015748143 ) ;
#433 = EDGE_CURVE ( 'NONE', #630, #436, #193, .T. ) ;
#434 = ORIENTED_EDGE ( 'NONE', *, *, #174, .F. ) ;
#435 = DIRECTION ( 'NONE',  ( 0.000000000000000000, -3.902639990948946962E-16, 1.000000000000000000 ) ) ;
#436 = VERTEX_POINT ( 'NONE', #173 ) ;
#437 = LINE ( 'NONE', #588, #36 ) ;
#438 = CARTESIAN_POINT ( 'NONE',  ( 0.5570125970960797535, -0.9300259394879643038, -0.7666667000000000343 ) ) ;
#439 = PLANE ( 'NONE',  #440 ) ;
#440 = AXIS2_PLACEMENT_3D ( 'NONE', #539, #136, #224 ) ;
#441 = PLANE ( 'NONE',  #29 ) ;
#442 = ORIENTED_EDGE ( 'NONE', *, *, #433, .F. ) ;
#443 = DIRECTION ( 'NONE',  ( 0.000000000000000000, 0.000000000000000000, 1.000000000000000000 ) ) ;
#444 = DIRECTION ( 'NONE',  ( -0.000000000000000000, -0.000000000000000000, -1.000000000000000000 ) ) ;
#445 = VERTEX_POINT ( 'NONE', #523 ) ;
#446 = EDGE_CURVE ( 'NONE', #418, #77, #332, .T. ) ;
#447 = PLANE ( 'NONE',  #15 ) ;
#448 = CARTESIAN_POINT ( 'NONE',  ( -0.2396186264903239493, -0.6242278635668823128, 1.466666699999999990 ) ) ;
#449 = LINE ( 'NONE', #53, #423 ) ;
#450 = EDGE_CURVE ( 'NONE', #445, #90, #491, .T. ) ;
#451 = EDGE_CURVE ( 'NONE', #188, #426, #323, .T. ) ;
#452 = VECTOR ( 'NONE', #417, 39.37007874015748143 ) ;
#453 = CARTESIAN_POINT ( 'NONE',  ( -0.5736792970960794547, -0.9770906576226447982, -1.466666699999999990 ) ) ;
#454 = AXIS2_PLACEMENT_3D ( 'NONE', #425, #226, #612 ) ;
#455 = DIRECTION ( 'NONE',  ( 1.365923996832132349E-16, 1.000000000000000000, -0.000000000000000000 ) ) ;
#456 = CARTESIAN_POINT ( 'NONE',  ( -1.273679297096079743, 0.9872045449609538892, -0.7666667000000001453 ) ) ;
#457 = DIRECTION ( 'NONE',  ( 0.3583679495453048758, 0.9335804264972000777, 0.000000000000000000 ) ) ;
#458 = LINE ( 'NONE', #250, #98 ) ;
#459 = CYLINDRICAL_SURFACE ( 'NONE', #341, 0.7000000000000000666 ) ;
#460 = ORIENTED_EDGE ( 'NONE', *, *, #154, .T. ) ;
#461 = DIRECTION ( 'NONE',  ( -0.9335804264971999666, 0.3583679495453048758, -4.342718852900087473E-16 ) ) ;
#462 = VECTOR ( 'NONE', #63, 39.37007874015748143 ) ;
#463 = AXIS2_PLACEMENT_3D ( 'NONE', #184, #138, #530 ) ;
#464 = ORIENTED_EDGE ( 'NONE', *, *, #400, .F. ) ;
#465 = LENGTH_MEASURE_WITH_UNIT ( LENGTH_MEASURE( 0.02539999999999999897 ), #319 );
#466 = DIRECTION ( 'NONE',  ( 0.000000000000000000, -0.000000000000000000, 1.000000000000000000 ) ) ;
#467 = ORIENTED_EDGE ( 'NONE', *, *, #400, .T. ) ;
#468 = SPHERICAL_SURFACE ( 'NONE', #265, 0.7000000000000000666 ) ;
#469 = CARTESIAN_POINT ( 'NONE',  ( 0.5570125970960798645, -0.9300259394879643038, 0.7666667000000000343 ) ) ;
#470 = ADVANCED_BREP_SHAPE_REPRESENTATION ( 'LumaBoxV3', ( #203, #454 ), #354 ) ;
#471 = EDGE_CURVE ( 'NONE', #228, #87, #437, .T. ) ;
#472 = DIRECTION ( 'NONE',  ( 0.000000000000000000, 0.000000000000000000, -1.000000000000000000 ) ) ;
#473 = CIRCLE ( 'NONE', #191, 0.7000000000000001776 ) ;
#474 = VERTEX_POINT ( 'NONE', #586 ) ;
#475 = EDGE_CURVE ( 'NONE', #428, #436, #281, .T. ) ;
#476 = ORIENTED_EDGE ( 'NONE', *, *, #201, .F. ) ;
#477 = ADVANCED_FACE ( 'NONE', ( #232 ), #419, .F. ) ;
#478 = VERTEX_POINT ( 'NONE', #126 ) ;
#479 = AXIS2_PLACEMENT_3D ( 'NONE', #469, #461, #364 ) ;
#480 = DIRECTION ( 'NONE',  ( -0.9335804264972001887, 0.3583679495453048203, -1.472068880765103452E-16 ) ) ;
#481 = ORIENTED_EDGE ( 'NONE', *, *, #249, .T. ) ;
#482 = APPLICATION_CONTEXT ( 'automotive_design' ) ;
#483 = CARTESIAN_POINT ( 'NONE',  ( -1.273679297096079521, -0.4959939866015180554, -1.466666700000000212 ) ) ;
#484 = FILL_AREA_STYLE ('',( #333 ) ) ;
#485 = ORIENTED_EDGE ( 'NONE', *, *, #446, .F. ) ;
#486 = CARTESIAN_POINT ( 'NONE',  ( -0.5736792970960801208, 0.7184997204361588397, -1.466666700000000212 ) ) ;
#487 = CARTESIAN_POINT ( 'NONE',  ( 0.3061550324143664792, -1.583532238036004403, -1.466666700000000212 ) ) ;
#488 = DIRECTION ( 'NONE',  ( 0.000000000000000000, 0.000000000000000000, 1.000000000000000000 ) ) ;
#489 = DIRECTION ( 'NONE',  ( 1.000000000000000000, 0.000000000000000000, -0.000000000000000000 ) ) ;
#490 = MECHANICAL_DESIGN_GEOMETRIC_PRESENTATION_REPRESENTATION (  '', ( #227 ), #526 ) ;
#491 =( BOUNDED_CURVE ( )  B_SPLINE_CURVE ( 3, ( #384, #536, #431, #572 ),
 .UNSPECIFIED., .F., .T. ) 
 B_SPLINE_CURVE_WITH_KNOTS ( ( 4, 4 ),
 ( 4.712388980384689674, 6.283185307179586232 ),
 .UNSPECIFIED. ) 
 CURVE ( )  GEOMETRIC_REPRESENTATION_ITEM ( )  RATIONAL_B_SPLINE_CURVE ( ( 1.000000000000000000, 0.8047378541243649375, 0.8047378541243649375, 1.000000000000000000 ) ) 
 REPRESENTATION_ITEM ( '' )  );
#492 = VECTOR ( 'NONE', #401, 39.37007874015748854 ) ;
#493 = CIRCLE ( 'NONE', #293, 0.6999999999999999556 ) ;
#494 = CARTESIAN_POINT ( 'NONE',  ( -1.307012597096079531, -1.000000000000000222, 1.500000000000000222 ) ) ;
#495 = EDGE_CURVE ( 'NONE', #620, #305, #562, .T. ) ;
#496 = VERTEX_POINT ( 'NONE', #279 ) ;
#497 = CARTESIAN_POINT ( 'NONE',  ( 0.5570125970960794204, -2.003430258726853097, 0.7666667000000000343 ) ) ;
#498 = DIRECTION ( 'NONE',  ( 0.000000000000000000, 0.000000000000000000, 1.000000000000000000 ) ) ;
#499 = FACE_OUTER_BOUND ( 'NONE', #206, .T. ) ;
#500 = EDGE_CURVE ( 'NONE', #372, #420, #166, .T. ) ;
#501 = ADVANCED_FACE ( 'NONE', ( #210 ), #163, .F. ) ;
#502 = CARTESIAN_POINT ( 'NONE',  ( -0.5736792970960794547, -0.4959939866015179999, 1.500000000000000222 ) ) ;
#503 = CARTESIAN_POINT ( 'NONE',  ( 1.257012597096079487, -1.948532259558680924, -0.7666667000000000343 ) ) ;
#504 = DIRECTION ( 'NONE',  ( -1.365923996832132349E-16, -1.000000000000000000, 0.000000000000000000 ) ) ;
#505 = CIRCLE ( 'NONE', #532, 0.7000000000000000666 ) ;
#506 = CARTESIAN_POINT ( 'NONE',  ( -1.307012597096079531, -1.000000000000000222, 1.500000000000000222 ) ) ;
#507 = CARTESIAN_POINT ( 'NONE',  ( -1.273679297096079743, 0.9872045449609538892, 1.176717206338833366 ) ) ;
#508 = DIRECTION ( 'NONE',  ( 1.365923996832132349E-16, 1.000000000000000000, -0.000000000000000000 ) ) ;
#509 = CYLINDRICAL_SURFACE ( 'NONE', #316, 0.7000000000000000666 ) ;
#510 = ORIENTED_EDGE ( 'NONE', *, *, #248, .T. ) ;
#511 = DIRECTION ( 'NONE',  ( 1.000000000000000000, 0.000000000000000000, 0.000000000000000000 ) ) ;
#512 = CARTESIAN_POINT ( 'NONE',  ( 1.307012597096079753, -0.003430258726854003900, 1.466666699999999990 ) ) ;
#513 = ORIENTED_EDGE ( 'NONE', *, *, #105, .T. ) ;
#514 = CARTESIAN_POINT ( 'NONE',  ( 0.5570125970960796424, -0.9300259394879640817, -0.7666667000000000343 ) ) ;
#515 = CYLINDRICAL_SURFACE ( 'NONE', #233, 0.6999999999999999556 ) ;
#516 = AXIS2_PLACEMENT_3D ( 'NONE', #4, #350, #157 ) ;
#517 = CARTESIAN_POINT ( 'NONE',  ( -0.5736792970960803428, 0.7184997204361588397, 1.466666699999999990 ) ) ;
#518 = ORIENTED_EDGE ( 'NONE', *, *, #270, .T. ) ;
#519 = DIRECTION ( 'NONE',  ( 1.365923996832131609E-16, -1.000000000000000000, 0.000000000000000000 ) ) ;
#520 = ADVANCED_FACE ( 'NONE', ( #302 ), #595, .F. ) ;
#521 = ORIENTED_EDGE ( 'NONE', *, *, #451, .F. ) ;
#522 = EDGE_CURVE ( 'NONE', #428, #496, #449, .T. ) ;
#523 = CARTESIAN_POINT ( 'NONE',  ( 0.5570125970960796424, 0.2844677675497123137, -1.466666700000000212 ) ) ;
#524 = ORIENTED_EDGE ( 'NONE', *, *, #57, .T. ) ;
#525 = EDGE_LOOP ( 'NONE', ( #162, #622, #434, #175 ) ) ;
#526 =( GEOMETRIC_REPRESENTATION_CONTEXT ( 3 ) GLOBAL_UNCERTAINTY_ASSIGNED_CONTEXT ( ( #180 ) ) GLOBAL_UNIT_ASSIGNED_CONTEXT ( ( #146, #242, #537 ) ) REPRESENTATION_CONTEXT ( 'NONE', 'WORKASPACE' ) );
#527 = ADVANCED_FACE ( 'NONE', ( #207 ), #447, .T. ) ;
#528 = ORIENTED_EDGE ( 'NONE', *, *, #174, .T. ) ;
#529 = ORIENTED_EDGE ( 'NONE', *, *, #300, .T. ) ;
#530 = DIRECTION ( 'NONE',  ( -1.000000000000000000, 0.000000000000000000, -1.951319995474473974E-16 ) ) ;
#531 = EDGE_LOOP ( 'NONE', ( #464, #608, #313, #510 ) ) ;
#532 = AXIS2_PLACEMENT_3D ( 'NONE', #583, #498, #295 ) ;
#533 = CARTESIAN_POINT ( 'NONE',  ( -0.8245368617777929510, -1.149500285149558376, 1.466666699999999990 ) ) ;
#534 = FACE_OUTER_BOUND ( 'NONE', #621, .T. ) ;
#535 = ORIENTED_EDGE ( 'NONE', *, *, #66, .F. ) ;
#536 = CARTESIAN_POINT ( 'NONE',  ( 0.9670631034349131960, 0.1270641256181699041, -1.466666699999999546 ) ) ;
#537 =( NAMED_UNIT ( * ) SI_UNIT ( $, .STERADIAN. ) SOLID_ANGLE_UNIT ( ) );
#538 = DIRECTION ( 'NONE',  ( 1.000000000000000000, 0.000000000000000000, 0.000000000000000000 ) ) ;
#539 = CARTESIAN_POINT ( 'NONE',  ( 0.000000000000000000, 0.000000000000000000, -1.466666699999999990 ) ) ;
#540 = CARTESIAN_POINT ( 'NONE',  ( 1.307012597096079753, -0.003430258726854003900, -1.500000000000000222 ) ) ;
#541 = FACE_OUTER_BOUND ( 'NONE', #220, .T. ) ;
#542 = FACE_OUTER_BOUND ( 'NONE', #413, .T. ) ;
#543 = VECTOR ( 'NONE', #455, 39.37007874015748143 ) ;
#544 = AXIS2_PLACEMENT_3D ( 'NONE', #514, #416, #269 ) ;
#545 = EDGE_CURVE ( 'NONE', #478, #83, #5, .T. ) ;
#546 = CARTESIAN_POINT ( 'NONE',  ( 1.307012597096079531, -2.003430258726853097, 1.500000000000000222 ) ) ;
#547 = EDGE_CURVE ( 'NONE', #87, #334, #458, .T. ) ;
#548 = DIRECTION ( 'NONE',  ( -0.000000000000000000, -0.000000000000000000, 1.000000000000000000 ) ) ;
#549 = CARTESIAN_POINT ( 'NONE',  ( -0.2396186264903238661, -0.6242278635668822018, -0.7666667000000000343 ) ) ;
#550 = DIRECTION ( 'NONE',  ( 1.365923996832132349E-16, 1.000000000000000000, 0.000000000000000000 ) ) ;
#551 = ORIENTED_EDGE ( 'NONE', *, *, #200, .F. ) ;
#552 = DIRECTION ( 'NONE',  ( 0.3583679495453048203, 0.9335804264972000777, -0.000000000000000000 ) ) ;
#553 = FACE_OUTER_BOUND ( 'NONE', #117, .T. ) ;
#554 = DIRECTION ( 'NONE',  ( 0.000000000000000000, -3.902639990948946962E-16, 1.000000000000000000 ) ) ;
#555 = DIRECTION ( 'NONE',  ( -1.000000000000000000, 0.000000000000000000, 0.000000000000000000 ) ) ;
#556 = VECTOR ( 'NONE', #8, 39.37007874015748143 ) ;
#557 = CARTESIAN_POINT ( 'NONE',  ( 1.257012597096079709, 0.01576294302491708377, 1.500000000000000222 ) ) ;
#558 = AXIS2_PLACEMENT_3D ( 'NONE', #48, #443, #115 ) ;
#559 = CARTESIAN_POINT ( 'NONE',  ( 0.5570125970960798645, -0.9300259394879643038, 1.500000000000000222 ) ) ;
#560 = CARTESIAN_POINT ( 'NONE',  ( 1.307012597096079753, -0.003430258726854003900, 1.500000000000000222 ) ) ;
#561 = DIRECTION ( 'NONE',  ( 1.000000000000000000, 1.951319995474473481E-16, 0.000000000000000000 ) ) ;
#562 =( BOUNDED_CURVE ( )  B_SPLINE_CURVE ( 3, ( #38, #627, #187, #382 ),
 .UNSPECIFIED., .F., .T. ) 
 B_SPLINE_CURVE_WITH_KNOTS ( ( 4, 4 ),
 ( 3.141592653589793116, 4.712388980384689674 ),
 .UNSPECIFIED. ) 
 CURVE ( )  GEOMETRIC_REPRESENTATION_ITEM ( )  RATIONAL_B_SPLINE_CURVE ( ( 1.000000000000000000, 0.8047378541243649375, 0.8047378541243649375, 1.000000000000000000 ) ) 
 REPRESENTATION_ITEM ( '' )  );
#563 = VERTEX_POINT ( 'NONE', #392 ) ;
#564 = DIRECTION ( 'NONE',  ( 0.000000000000000000, 1.000000000000000000, 0.000000000000000000 ) ) ;
#565 = ADVANCED_FACE ( 'NONE', ( #204 ), #591, .F. ) ;
#566 = DIRECTION ( 'NONE',  ( 1.000000000000000000, -1.365923996832132595E-16, 0.000000000000000000 ) ) ;
#567 = ORIENTED_EDGE ( 'NONE', *, *, #450, .T. ) ;
#568 = CARTESIAN_POINT ( 'NONE',  ( 0.5570125970960794204, 0.2844677675497123692, 1.466666699999999990 ) ) ;
#569 = ADVANCED_FACE ( 'NONE', ( #153 ), #399, .F. ) ;
#570 = ADVANCED_FACE ( 'NONE', ( #9 ), #404, .T. ) ;
#571 = ORIENTED_EDGE ( 'NONE', *, *, #351, .F. ) ;
#572 = CARTESIAN_POINT ( 'NONE',  ( 1.257012597096079709, 0.01576294302491708377, -0.7666667000000001453 ) ) ;
#573 = CARTESIAN_POINT ( 'NONE',  ( -0.9837298034349136744, 0.8759033623677016100, 1.466666699999999768 ) ) ;
#574 = VERTEX_POINT ( 'NONE', #394 ) ;
#575 = VERTEX_POINT ( 'NONE', #252 ) ;
#576 = ORIENTED_EDGE ( 'NONE', *, *, #450, .F. ) ;
#577 = AXIS2_PLACEMENT_3D ( 'NONE', #143, #480, #91 ) ;
#578 = AXIS2_PLACEMENT_3D ( 'NONE', #502, #99, #408 ) ;
#579 = VERTEX_POINT ( 'NONE', #347 ) ;
#580 = DIRECTION ( 'NONE',  ( -0.000000000000000000, -0.000000000000000000, 1.000000000000000000 ) ) ;
#581 = ORIENTED_EDGE ( 'NONE', *, *, #522, .T. ) ;
#582 = FACE_OUTER_BOUND ( 'NONE', #64, .T. ) ;
#583 = CARTESIAN_POINT ( 'NONE',  ( -0.5736792970960794547, -0.4959939866015179999, -0.7666667000000000343 ) ) ;
#584 = ORIENTED_EDGE ( 'NONE', *, *, #39, .T. ) ;
#585 = ADVANCED_FACE ( 'NONE', ( #56 ), #639, .T. ) ;
#586 = CARTESIAN_POINT ( 'NONE',  ( 1.307012597096079531, -2.003430258726853097, 1.500000000000000222 ) ) ;
#587 = DIRECTION ( 'NONE',  ( 1.951319995474473727E-16, 1.000000000000000000, 3.902639990948946469E-16 ) ) ;
#588 = CARTESIAN_POINT ( 'NONE',  ( -1.307012597096079753, 1.000000000000000222, -1.500000000000000222 ) ) ;
#589 =( LENGTH_UNIT ( ) NAMED_UNIT ( * ) SI_UNIT ( $, .METRE. ) );
#590 = CARTESIAN_POINT ( 'NONE',  ( 0.000000000000000000, 0.000000000000000000, 1.466666699999999990 ) ) ;
#591 = CYLINDRICAL_SURFACE ( 'NONE', #256, 0.6999999999999998446 ) ;
#592 = ADVANCED_FACE ( 'NONE', ( #259, #107 ), #148, .F. ) ;
#593 = ADVANCED_FACE ( 'NONE', ( #542 ), #352, .F. ) ;
#594 = ORIENTED_EDGE ( 'NONE', *, *, #181, .T. ) ;
#595 = CYLINDRICAL_SURFACE ( 'NONE', #386, 0.7000000000000000666 ) ;
#596 = CIRCLE ( 'NONE', #130, 0.7000000000000000666 ) ;
#597 = VECTOR ( 'NONE', #294, 39.37007874015748143 ) ;
#598 = CARTESIAN_POINT ( 'NONE',  ( 0.5570125970960796424, -0.9300259394879639707, -0.7666667000000000343 ) ) ;
#599 = CARTESIAN_POINT ( 'NONE',  ( 1.257012597096079487, -2.003430258726853097, 1.500000000000000222 ) ) ;
#600 = CARTESIAN_POINT ( 'NONE',  ( 1.307012597096079531, -2.003430258726853097, 1.500000000000000222 ) ) ;
#601 = ORIENTED_EDGE ( 'NONE', *, *, #181, .F. ) ;
#602 = DIRECTION ( 'NONE',  ( 0.9335804264971999666, -0.3583679495453050423, 0.000000000000000000 ) ) ;
#603 = LINE ( 'NONE', #600, #452 ) ;
#604 = VERTEX_POINT ( 'NONE', #11 ) ;
#605 = DIRECTION ( 'NONE',  ( -1.000000000000000000, -1.365923996832131609E-16, 0.000000000000000000 ) ) ;
#606 = CARTESIAN_POINT ( 'NONE',  ( 0.5570125970960797535, -7.608368729113234649E-17, -0.7666667000000000343 ) ) ;
#607 = VECTOR ( 'NONE', #472, 39.37007874015748143 ) ;
#608 = ORIENTED_EDGE ( 'NONE', *, *, #312, .T. ) ;
#609 = ADVANCED_FACE ( 'NONE', ( #264 ), #72, .F. ) ;
#610 = DIRECTION ( 'NONE',  ( -1.000000000000000000, 0.000000000000000000, 0.000000000000000000 ) ) ;
#611 = ORIENTED_EDGE ( 'NONE', *, *, #451, .T. ) ;
#612 = DIRECTION ( 'NONE',  ( 1.000000000000000000, 0.000000000000000000, 0.000000000000000000 ) ) ;
#613 = EDGE_CURVE ( 'NONE', #474, #478, #221, .T. ) ;
#614 = ADVANCED_FACE ( 'NONE', ( #229 ), #468, .F. ) ;
#615 = CARTESIAN_POINT ( 'NONE',  ( -1.273679297096079743, 0.9872045449609538892, -0.7666667000000001453 ) ) ;
#616 = DIRECTION ( 'NONE',  ( 1.000000000000000000, 0.000000000000000000, 0.000000000000000000 ) ) ;
#617 = DIRECTION ( 'NONE',  ( -9.756599977372368637E-17, 1.000000000000000000, 3.902639990948947455E-16 ) ) ;
#618 = AXIS2_PLACEMENT_3D ( 'NONE', #388, #488, #538 ) ;
#619 = AXIS2_PLACEMENT_3D ( 'NONE', #257, #297, #602 ) ;
#620 = VERTEX_POINT ( 'NONE', #120 ) ;
#621 = EDGE_LOOP ( 'NONE', ( #22, #177, #633, #308 ) ) ;
#622 = ORIENTED_EDGE ( 'NONE', *, *, #412, .F. ) ;
#623 = ORIENTED_EDGE ( 'NONE', *, *, #267, .F. ) ;
#624 = VECTOR ( 'NONE', #67, 39.37007874015748854 ) ;
#625 = LINE ( 'NONE', #483, #607 ) ;
#626 = ORIENTED_EDGE ( 'NONE', *, *, #222, .T. ) ;
#627 = CARTESIAN_POINT ( 'NONE',  ( 1.257012597096080153, 0.01576294302491699703, 1.176717206338833366 ) ) ;
#628 = EDGE_CURVE ( 'NONE', #77, #216, #31, .T. ) ;
#629 = EDGE_CURVE ( 'NONE', #426, #620, #118, .T. ) ;
#630 = VERTEX_POINT ( 'NONE', #171 ) ;
#631 = SPHERICAL_SURFACE ( 'NONE', #463, 0.7000000000000000666 ) ;
#632 = DIRECTION ( 'NONE',  ( -1.365923996832131609E-16, 1.000000000000000000, 0.000000000000000000 ) ) ;
#633 = ORIENTED_EDGE ( 'NONE', *, *, #613, .F. ) ;
#634 = CIRCLE ( 'NONE', #374, 0.6999999999999999556 ) ;
#635 = FACE_OUTER_BOUND ( 'NONE', #299, .T. ) ;
#636 = DIMENSIONAL_EXPONENTS ( 1.000000000000000000, 0.000000000000000000, 0.000000000000000000, 0.000000000000000000, 0.000000000000000000, 0.000000000000000000, 0.000000000000000000 ) ;
#637 = CARTESIAN_POINT ( 'NONE',  ( 0.5570125970960796424, -0.9300259394879640817, 1.466666699999999990 ) ) ;
#638 = EDGE_LOOP ( 'NONE', ( #225, #535, #240, #179 ) ) ;
#639 = PLANE ( 'NONE',  #182 ) ;
ENDSEC;
END-ISO-10303-21;
