ISO-10303-21;
HEADER;
FILE_DESCRIPTION (( 'STEP AP214' ),
    '1' );
FILE_NAME ('LumaBoxV5.STEP',
    '2026-04-10T18:48:17',
    ( '' ),
    ( '' ),
    'SwSTEP 2.0',
    'SolidWorks 2025',
    '' );
FILE_SCHEMA (( 'AUTOMOTIVE_DESIGN' ));
ENDSEC;

DATA;
#1 = CARTESIAN_POINT ( 'NONE',  ( 1.044209446041787670, -0.6880558737054530694, 0.7666667000000000343 ) ) ;
#2 = EDGE_CURVE ( 'NONE', #679, #722, #51, .T. ) ;
#3 = ORIENTED_EDGE ( 'NONE', *, *, #426, .T. ) ;
#4 = CARTESIAN_POINT ( 'NONE',  ( 0.5570125970960797535, -0.7290596507229339940, 0.7666667000000000343 ) ) ;
#5 = CARTESIAN_POINT ( 'NONE',  ( 1.307012597096079753, -0.003430258726854003900, 1.500000000000000222 ) ) ;
#6 = DIMENSIONAL_EXPONENTS ( 1.000000000000000000, 0.000000000000000000, 0.000000000000000000, 0.000000000000000000, 0.000000000000000000, 0.000000000000000000, 0.000000000000000000 ) ;
#7 = ORIENTED_EDGE ( 'NONE', *, *, #547, .T. ) ;
#8 = FACE_OUTER_BOUND ( 'NONE', #761, .T. ) ;
#9 = AXIS2_PLACEMENT_3D ( 'NONE', #127, #31, #691 ) ;
#10 = CARTESIAN_POINT ( 'NONE',  ( 0.5570125970960797535, -7.608368729113234649E-17, 1.466666699999999990 ) ) ;
#11 = ORIENTED_EDGE ( 'NONE', *, *, #395, .T. ) ;
#12 = LINE ( 'NONE', #10, #823 ) ;
#13 = ORIENTED_EDGE ( 'NONE', *, *, #173, .F. ) ;
#14 = ADVANCED_FACE ( 'NONE', ( #409 ), #266, .T. ) ;
#15 = DIRECTION ( 'NONE',  ( 0.000000000000000000, 9.756599977372367405E-17, -1.000000000000000000 ) ) ;
#16 = ORIENTED_EDGE ( 'NONE', *, *, #614, .T. ) ;
#17 = ADVANCED_FACE ( 'NONE', ( #56 ), #215, .F. ) ;
#18 = VECTOR ( 'NONE', #116, 39.37007874015748143 ) ;
#19 = CARTESIAN_POINT ( 'NONE',  ( -1.044209446041787448, -0.3153743850214009159, 0.7666667000000000343 ) ) ;
#20 = CYLINDRICAL_SURFACE ( 'NONE', #919, 0.7000000000000000666 ) ;
#21 = CIRCLE ( 'NONE', #227, 0.7000000000000001776 ) ;
#22 = DIRECTION ( 'NONE',  ( 1.000000000000000000, 0.000000000000000000, -0.000000000000000000 ) ) ;
#23 = ORIENTED_EDGE ( 'NONE', *, *, #810, .T. ) ;
#24 = VECTOR ( 'NONE', #296, 39.37007874015748143 ) ;
#25 = CARTESIAN_POINT ( 'NONE',  ( -0.5736792970960794547, -0.2858253135566444780, 0.7666667000000000343 ) ) ;
#26 = LINE ( 'NONE', #221, #189 ) ;
#27 = VERTEX_POINT ( 'NONE', #427 ) ;
#28 = CARTESIAN_POINT ( 'NONE',  ( -0.8245368617777929510, -1.149500285149558376, 0.7666667000000000343 ) ) ;
#29 = ADVANCED_FACE ( 'NONE', ( #153 ), #701, .F. ) ;
#30 = CARTESIAN_POINT ( 'NONE',  ( 0.3693944035192635034, -0.8580060626555107151, 0.7666667000000000343 ) ) ;
#31 = DIRECTION ( 'NONE',  ( -0.8241261886220172528, -0.5664062369248307194, -4.321507636977493955E-16 ) ) ;
#32 = DIRECTION ( 'NONE',  ( 1.000000000000000000, 0.000000000000000000, 0.000000000000000000 ) ) ;
#33 = DIRECTION ( 'NONE',  ( -1.365923996832132349E-16, -1.000000000000000000, 0.000000000000000000 ) ) ;
#34 = EDGE_LOOP ( 'NONE', ( #795, #172, #618, #99 ) ) ;
#35 = PLANE ( 'NONE',  #656 ) ;
#36 = EDGE_CURVE ( 'NONE', #750, #798, #159, .T. ) ;
#37 = ORIENTED_EDGE ( 'NONE', *, *, #412, .F. ) ;
#38 =( LENGTH_UNIT ( ) NAMED_UNIT ( * ) SI_UNIT ( $, .METRE. ) );
#39 = EDGE_LOOP ( 'NONE', ( #225, #605, #705, #741 ) ) ;
#40 = VECTOR ( 'NONE', #87, 39.37007874015748143 ) ;
#41 = DIRECTION ( 'NONE',  ( 0.9335804264971999666, -0.3583679495453050423, 0.000000000000000000 ) ) ;
#42 = EDGE_CURVE ( 'NONE', #161, #693, #862, .T. ) ;
#43 = CARTESIAN_POINT ( 'NONE',  ( 1.257012597096079487, -2.003430258726853097, 1.500000000000000222 ) ) ;
#44 = ORIENTED_EDGE ( 'NONE', *, *, #725, .T. ) ;
#45 = DIRECTION ( 'NONE',  ( 0.5664062369248309414, -0.8241261886220169197, 0.000000000000000000 ) ) ;
#46 = DIRECTION ( 'NONE',  ( -0.9335804264971999666, 0.3583679495453047648, 0.000000000000000000 ) ) ;
#47 = ORIENTED_EDGE ( 'NONE', *, *, #463, .F. ) ;
#48 = DIRECTION ( 'NONE',  ( -0.3583679495453050423, -0.9335804264971999666, 0.000000000000000000 ) ) ;
#49 = DIRECTION ( 'NONE',  ( -0.000000000000000000, 0.000000000000000000, -1.000000000000000000 ) ) ;
#50 = LINE ( 'NONE', #192, #152 ) ;
#51 = LINE ( 'NONE', #755, #279 ) ;
#52 = CARTESIAN_POINT ( 'NONE',  ( 0.5570125970960796424, -0.7290596507229339940, -1.500000000000000222 ) ) ;
#53 = VECTOR ( 'NONE', #179, 39.37007874015748143 ) ;
#54 = DIRECTION ( 'NONE',  ( 1.000000000000000000, 0.000000000000000000, -0.000000000000000000 ) ) ;
#55 = APPLICATION_PROTOCOL_DEFINITION ( 'draft international standard', 'automotive_design', 1998, #864 ) ;
#56 = FACE_OUTER_BOUND ( 'NONE', #217, .T. ) ;
#57 = PLANE ( 'NONE',  #538 ) ;
#58 = EDGE_CURVE ( 'NONE', #569, #916, #579, .T. ) ;
#59 = CARTESIAN_POINT ( 'NONE',  ( 1.307012597096079753, -0.003430258726854003900, -1.500000000000000222 ) ) ;
#60 = SPHERICAL_SURFACE ( 'NONE', #70, 0.7000000000000000666 ) ;
#61 = ORIENTED_EDGE ( 'NONE', *, *, #868, .T. ) ;
#62 = LENGTH_MEASURE_WITH_UNIT ( LENGTH_MEASURE( 0.02539999999999999897 ), #890 );
#63 = LINE ( 'NONE', #898, #596 ) ;
#64 = DIRECTION ( 'NONE',  ( -1.000000000000000000, 0.000000000000000000, 0.000000000000000000 ) ) ;
#65 = FACE_OUTER_BOUND ( 'NONE', #39, .T. ) ;
#66 = SPHERICAL_SURFACE ( 'NONE', #555, 0.7000000000000000666 ) ;
#67 = VECTOR ( 'NONE', #183, 39.37007874015748143 ) ;
#68 = VECTOR ( 'NONE', #125, 39.37007874015748854 ) ;
#69 = VECTOR ( 'NONE', #707, 39.37007874015748143 ) ;
#70 = AXIS2_PLACEMENT_3D ( 'NONE', #281, #348, #831 ) ;
#71 = EDGE_CURVE ( 'NONE', #148, #249, #658, .T. ) ;
#72 = SHAPE_DEFINITION_REPRESENTATION ( #772, #676 ) ;
#73 = DIRECTION ( 'NONE',  ( 0.000000000000000000, 0.000000000000000000, 1.000000000000000000 ) ) ;
#74 = ORIENTED_EDGE ( 'NONE', *, *, #868, .F. ) ;
#75 = EDGE_CURVE ( 'NONE', #693, #844, #609, .T. ) ;
#76 = DIRECTION ( 'NONE',  ( 0.000000000000000000, 0.000000000000000000, 1.000000000000000000 ) ) ;
#77 = CARTESIAN_POINT ( 'NONE',  ( 0.000000000000000000, 0.000000000000000000, 0.000000000000000000 ) ) ;
#78 = LINE ( 'NONE', #490, #703 ) ;
#79 = ORIENTED_EDGE ( 'NONE', *, *, #496, .T. ) ;
#80 = CARTESIAN_POINT ( 'NONE',  ( 1.307012597096079531, -2.003430258726853097, -1.500000000000000222 ) ) ;
#81 = DIRECTION ( 'NONE',  ( 0.000000000000000000, 0.000000000000000000, -1.000000000000000000 ) ) ;
#82 = EDGE_LOOP ( 'NONE', ( #556, #7, #428 ) ) ;
#83 = EDGE_CURVE ( 'NONE', #786, #485, #78, .T. ) ;
#84 = CARTESIAN_POINT ( 'NONE',  ( 0.9155008430812162645, -1.332061992440411791, -1.500000000000000222 ) ) ;
#85 = PRESENTATION_LAYER_ASSIGNMENT (  '', '', ( #719 ) ) ;
#86 = AXIS2_PLACEMENT_3D ( 'NONE', #727, #313, #89 ) ;
#87 = DIRECTION ( 'NONE',  ( 1.365923996832131609E-16, -1.000000000000000000, 0.000000000000000000 ) ) ;
#88 = AXIS2_PLACEMENT_3D ( 'NONE', #760, #487, #54 ) ;
#89 = DIRECTION ( 'NONE',  ( 1.000000000000000000, 0.000000000000000000, 0.000000000000000000 ) ) ;
#90 = ORIENTED_EDGE ( 'NONE', *, *, #563, .T. ) ;
#91 = EDGE_CURVE ( 'NONE', #232, #135, #765, .T. ) ;
#92 = DIRECTION ( 'NONE',  ( -0.000000000000000000, -0.000000000000000000, -1.000000000000000000 ) ) ;
#93 = DIRECTION ( 'NONE',  ( -0.000000000000000000, -0.000000000000000000, 1.000000000000000000 ) ) ;
#94 = ORIENTED_EDGE ( 'NONE', *, *, #742, .T. ) ;
#95 = DIRECTION ( 'NONE',  ( -1.000000000000000000, 0.000000000000000000, 0.000000000000000000 ) ) ;
#96 = EDGE_LOOP ( 'NONE', ( #519, #241, #126 ) ) ;
#97 = AXIS2_PLACEMENT_3D ( 'NONE', #612, #830, #762 ) ;
#98 = EDGE_CURVE ( 'NONE', #750, #732, #429, .T. ) ;
#99 = ORIENTED_EDGE ( 'NONE', *, *, #720, .T. ) ;
#100 = AXIS2_PLACEMENT_3D ( 'NONE', #687, #207, #489 ) ;
#101 = FACE_OUTER_BOUND ( 'NONE', #816, .T. ) ;
#102 = VERTEX_POINT ( 'NONE', #639 ) ;
#103 = FACE_OUTER_BOUND ( 'NONE', #458, .T. ) ;
#104 = DIRECTION ( 'NONE',  ( -0.8241261886220169197, -0.5664062369248310524, 0.000000000000000000 ) ) ;
#105 = CARTESIAN_POINT ( 'NONE',  ( 0.9534969629434615346, -1.305947982758346004, 0.7666667000000000343 ) ) ;
#106 = ORIENTED_EDGE ( 'NONE', *, *, #349, .T. ) ;
#107 = EDGE_CURVE ( 'NONE', #523, #844, #12, .T. ) ;
#108 = PLANE ( 'NONE',  #378 ) ;
#109 = ORIENTED_EDGE ( 'NONE', *, *, #870, .F. ) ;
#110 = AXIS2_PLACEMENT_3D ( 'NONE', #224, #76, #508 ) ;
#111 = DIRECTION ( 'NONE',  ( -0.3583679495453050978, -0.9335804264971998556, 0.000000000000000000 ) ) ;
#112 = DIRECTION ( 'NONE',  ( -0.8241261886220169197, -0.5664062369248308304, -0.000000000000000000 ) ) ;
#113 = AXIS2_PLACEMENT_3D ( 'NONE', #199, #688, #129 ) ;
#114 = AXIS2_PLACEMENT_3D ( 'NONE', #608, #537, #692 ) ;
#115 = EDGE_CURVE ( 'NONE', #249, #569, #564, .T. ) ;
#116 = DIRECTION ( 'NONE',  ( 0.000000000000000000, -0.000000000000000000, 1.000000000000000000 ) ) ;
#117 = DIRECTION ( 'NONE',  ( -1.000000000000000000, 1.365923996832132349E-16, 0.000000000000000000 ) ) ;
#118 = ORIENTED_EDGE ( 'NONE', *, *, #870, .T. ) ;
#119 = CARTESIAN_POINT ( 'NONE',  ( 1.307012597096079753, -0.003430258726854003900, 1.500000000000000222 ) ) ;
#120 = LINE ( 'NONE', #137, #903 ) ;
#121 = DIRECTION ( 'NONE',  ( 1.365923996832131609E-16, -1.000000000000000000, 0.000000000000000000 ) ) ;
#122 = EDGE_CURVE ( 'NONE', #232, #249, #495, .T. ) ;
#123 = VERTEX_POINT ( 'NONE', #5 ) ;
#124 = DIRECTION ( 'NONE',  ( -1.000000000000000000, 1.365923996832132349E-16, 0.000000000000000000 ) ) ;
#125 = DIRECTION ( 'NONE',  ( -0.9335804264971999666, 0.3583679495453047648, -0.000000000000000000 ) ) ;
#126 = ORIENTED_EDGE ( 'NONE', *, *, #729, .F. ) ;
#127 = CARTESIAN_POINT ( 'NONE',  ( 0.5570125970960799755, -0.7290596507229339940, 0.7666667000000000343 ) ) ;
#128 = CARTESIAN_POINT ( 'NONE',  ( -0.7658787693666454510, 0.4314641359640692952, 0.7666667000000000343 ) ) ;
#129 = DIRECTION ( 'NONE',  ( -0.8241261886220169197, -0.5664062369248307194, 0.000000000000000000 ) ) ;
#130 = EDGE_CURVE ( 'NONE', #446, #572, #748, .T. ) ;
#131 = DIRECTION ( 'NONE',  ( 0.9335804264971999666, -0.3583679495453047648, 0.000000000000000000 ) ) ;
#132 = CIRCLE ( 'NONE', #866, 0.7000000000000000666 ) ;
#133 = ORIENTED_EDGE ( 'NONE', *, *, #384, .F. ) ;
#134 = DIRECTION ( 'NONE',  ( -0.8241261886220169197, -0.5664062369248307194, 0.000000000000000000 ) ) ;
#135 = VERTEX_POINT ( 'NONE', #220 ) ;
#136 = LINE ( 'NONE', #611, #778 ) ;
#137 = CARTESIAN_POINT ( 'NONE',  ( -0.4479100242313134861, 0.6499979999260312447, 0.7666667000000001453 ) ) ;
#138 = ORIENTED_EDGE ( 'NONE', *, *, #219, .F. ) ;
#139 = CYLINDRICAL_SURFACE ( 'NONE', #484, 0.7000000000000000666 ) ;
#140 = CARTESIAN_POINT ( 'NONE',  ( -0.4667902132485992617, 0.6774688454092252510, -1.500000000000000222 ) ) ;
#141 = ORIENTED_EDGE ( 'NONE', *, *, #256, .F. ) ;
#142 = EDGE_CURVE ( 'NONE', #135, #875, #324, .T. ) ;
#143 = DIRECTION ( 'NONE',  ( 0.000000000000000000, -1.000000000000000000, 1.951319995474473234E-16 ) ) ;
#144 = PRODUCT_CONTEXT ( 'NONE', #864, 'mechanical' ) ;
#145 = CARTESIAN_POINT ( 'NONE',  ( 0.5570125970960796424, -0.7290596507229341050, 0.7666667000000000343 ) ) ;
#146 = EDGE_CURVE ( 'NONE', #786, #203, #432, .T. ) ;
#147 = DIRECTION ( 'NONE',  ( 1.365923996832132349E-16, 1.000000000000000000, 0.000000000000000000 ) ) ;
#148 = VERTEX_POINT ( 'NONE', #771 ) ;
#149 = VECTOR ( 'NONE', #265, 39.37007874015748854 ) ;
#150 = AXIS2_PLACEMENT_3D ( 'NONE', #541, #826, #45 ) ;
#151 = DIRECTION ( 'NONE',  ( -0.5664062369248309414, 0.8241261886220169197, 0.000000000000000000 ) ) ;
#152 = VECTOR ( 'NONE', #470, 39.37007874015748143 ) ;
#153 = FACE_OUTER_BOUND ( 'NONE', #402, .T. ) ;
#154 = ORIENTED_EDGE ( 'NONE', *, *, #643, .T. ) ;
#155 = DIRECTION ( 'NONE',  ( -0.000000000000000000, 0.000000000000000000, -1.000000000000000000 ) ) ;
#156 = FACE_OUTER_BOUND ( 'NONE', #759, .T. ) ;
#157 = VERTEX_POINT ( 'NONE', #140 ) ;
#158 = CARTESIAN_POINT ( 'NONE',  ( 0.5570125970960796424, -0.5010385254126106247, -1.500000000000000222 ) ) ;
#159 = LINE ( 'NONE', #843, #867 ) ;
#160 = ADVANCED_FACE ( 'NONE', ( #208 ), #369, .F. ) ;
#161 = VERTEX_POINT ( 'NONE', #561 ) ;
#162 = DIRECTION ( 'NONE',  ( 0.000000000000000000, 0.000000000000000000, -1.000000000000000000 ) ) ;
#163 =( GEOMETRIC_REPRESENTATION_CONTEXT ( 3 ) GLOBAL_UNCERTAINTY_ASSIGNED_CONTEXT ( ( #351 ) ) GLOBAL_UNIT_ASSIGNED_CONTEXT ( ( #347, #581, #661 ) ) REPRESENTATION_CONTEXT ( 'NONE', 'WORKASPACE' ) );
#164 = CLOSED_SHELL ( 'NONE', ( #201, #783, #697, #223, #848, #674, #894, #627, #796, #184, #373, #897, #443, #326, #14, #602, #820, #17, #320, #303, #166, #268, #288, #493, #332, #879, #683, #448, #160, #29, #371, #554, #386 ) ) ;
#165 = VECTOR ( 'NONE', #459, 39.37007874015748143 ) ;
#166 = ADVANCED_FACE ( 'NONE', ( #775 ), #453, .F. ) ;
#167 = FACE_OUTER_BOUND ( 'NONE', #642, .T. ) ;
#168 = ORIENTED_EDGE ( 'NONE', *, *, #235, .F. ) ;
#169 = CARTESIAN_POINT ( 'NONE',  ( -0.3693944035192637254, -0.1454241960713426318, 0.7666667000000000343 ) ) ;
#170 = DIRECTION ( 'NONE',  ( -0.000000000000000000, -0.000000000000000000, 1.000000000000000000 ) ) ;
#171 = CARTESIAN_POINT ( 'NONE',  ( -0.3693944035192637254, -0.1454241960713426596, 0.7666667000000000343 ) ) ;
#172 = ORIENTED_EDGE ( 'NONE', *, *, #83, .T. ) ;
#173 = EDGE_CURVE ( 'NONE', #485, #135, #532, .T. ) ;
#174 = FACE_OUTER_BOUND ( 'NONE', #343, .T. ) ;
#175 = EDGE_LOOP ( 'NONE', ( #616, #709, #181, #206 ) ) ;
#176 = AXIS2_PLACEMENT_3D ( 'NONE', #680, #276, #606 ) ;
#177 = EDGE_LOOP ( 'NONE', ( #90, #366, #194, #16, #515, #576 ) ) ;
#178 = LINE ( 'NONE', #456, #437 ) ;
#179 = DIRECTION ( 'NONE',  ( -0.000000000000000000, -0.000000000000000000, 1.000000000000000000 ) ) ;
#180 =( NAMED_UNIT ( * ) SI_UNIT ( $, .STERADIAN. ) SOLID_ANGLE_UNIT ( ) );
#181 = ORIENTED_EDGE ( 'NONE', *, *, #547, .F. ) ;
#182 = ORIENTED_EDGE ( 'NONE', *, *, #827, .T. ) ;
#183 = DIRECTION ( 'NONE',  ( 1.365923996832131609E-16, -1.000000000000000000, 0.000000000000000000 ) ) ;
#184 = ADVANCED_FACE ( 'NONE', ( #668 ), #35, .T. ) ;
#185 = CIRCLE ( 'NONE', #114, 0.6999999999999999556 ) ;
#186 = ORIENTED_EDGE ( 'NONE', *, *, #463, .T. ) ;
#187 = VECTOR ( 'NONE', #462, 39.37007874015748143 ) ;
#188 = CARTESIAN_POINT ( 'NONE',  ( 0.8078701617777929167, 0.1524677731354292243, -1.500000000000000222 ) ) ;
#189 = VECTOR ( 'NONE', #721, 39.37007874015748143 ) ;
#190 = AXIS2_PLACEMENT_3D ( 'NONE', #355, #282, #710 ) ;
#191 = VECTOR ( 'NONE', #134, 39.37007874015748854 ) ;
#192 = CARTESIAN_POINT ( 'NONE',  ( 1.257012597096079487, -2.003430258726853097, 0.7666667000000000343 ) ) ;
#193 = PLANE ( 'NONE',  #821 ) ;
#194 = ORIENTED_EDGE ( 'NONE', *, *, #384, .T. ) ;
#195 = CARTESIAN_POINT ( 'NONE',  ( 1.257012597096079709, -0.5010385254126106247, -1.500000000000000222 ) ) ;
#196 = VERTEX_POINT ( 'NONE', #745 ) ;
#197 = LINE ( 'NONE', #764, #191 ) ;
#198 = EDGE_CURVE ( 'NONE', #523, #475, #580, .T. ) ;
#199 = CARTESIAN_POINT ( 'NONE',  ( 0.4479100242313130420, -1.653428258652884786, -1.500000000000000222 ) ) ;
#200 = DIRECTION ( 'NONE',  ( -0.000000000000000000, -0.000000000000000000, -1.000000000000000000 ) ) ;
#201 = ADVANCED_FACE ( 'NONE', ( #103 ), #328, .F. ) ;
#202 = SPHERICAL_SURFACE ( 'NONE', #280, 0.7000000000000000666 ) ;
#203 = VERTEX_POINT ( 'NONE', #592 ) ;
#204 = CARTESIAN_POINT ( 'NONE',  ( 0.4667902132485995392, -1.680899104136079014, 1.500000000000000222 ) ) ;
#205 = APPLICATION_PROTOCOL_DEFINITION ( 'draft international standard', 'automotive_design', 1998, #233 ) ;
#206 = ORIENTED_EDGE ( 'NONE', *, *, #122, .F. ) ;
#207 = DIRECTION ( 'NONE',  ( 0.000000000000000000, 0.000000000000000000, -1.000000000000000000 ) ) ;
#208 = FACE_OUTER_BOUND ( 'NONE', #396, .T. ) ;
#209 = ORIENTED_EDGE ( 'NONE', *, *, #653, .T. ) ;
#210 = CARTESIAN_POINT ( 'NONE',  ( -1.307012597096079976, 0.09999999999999975575, 1.500000000000000222 ) ) ;
#211 = CARTESIAN_POINT ( 'NONE',  ( 0.8078701617777932498, 0.1524677731354291688, 0.7666667000000000343 ) ) ;
#212 = CARTESIAN_POINT ( 'NONE',  ( 0.1185368388375503124, -1.511512361203550814, -1.500000000000000222 ) ) ;
#213 = ORIENTED_EDGE ( 'NONE', *, *, #283, .F. ) ;
#214 = AXIS2_PLACEMENT_3D ( 'NONE', #442, #285, #845 ) ;
#215 = CYLINDRICAL_SURFACE ( 'NONE', #629, 0.7000000000000000666 ) ;
#216 = LINE ( 'NONE', #374, #905 ) ;
#217 = EDGE_LOOP ( 'NONE', ( #575, #13, #345, #598 ) ) ;
#218 = LINE ( 'NONE', #299, #450 ) ;
#219 = EDGE_CURVE ( 'NONE', #123, #196, #886, .T. ) ;
#220 = CARTESIAN_POINT ( 'NONE',  ( -1.273679297096079521, -0.4959939866015180554, 0.7666667000000000343 ) ) ;
#221 = CARTESIAN_POINT ( 'NONE',  ( -0.4667902132485999278, 0.6774688454092255840, -1.500000000000000222 ) ) ;
#222 = ORIENTED_EDGE ( 'NONE', *, *, #570, .F. ) ;
#223 = ADVANCED_FACE ( 'NONE', ( #242 ), #895, .F. ) ;
#224 = CARTESIAN_POINT ( 'NONE',  ( -0.5736792970960794547, -0.4959939866015179999, -1.500000000000000222 ) ) ;
#225 = ORIENTED_EDGE ( 'NONE', *, *, #58, .F. ) ;
#226 = CARTESIAN_POINT ( 'NONE',  ( -0.05062505278262889596, 0.07365990887574448698, 0.7666667000000000343 ) ) ;
#227 = AXIS2_PLACEMENT_3D ( 'NONE', #52, #840, #617 ) ;
#228 = CIRCLE ( 'NONE', #851, 0.7000000000000000666 ) ;
#229 = CARTESIAN_POINT ( 'NONE',  ( 1.307012597096079531, -1.103430258726853186, -1.500000000000000222 ) ) ;
#230 = AXIS2_PLACEMENT_3D ( 'NONE', #119, #48, #315 ) ;
#231 = CARTESIAN_POINT ( 'NONE',  ( 0.000000000000000000, 0.000000000000000000, 1.500000000000000222 ) ) ;
#232 = VERTEX_POINT ( 'NONE', #28 ) ;
#233 = APPLICATION_CONTEXT ( 'automotive_design' ) ;
#234 = LINE ( 'NONE', #583, #465 ) ;
#235 = EDGE_CURVE ( 'NONE', #123, #732, #587, .T. ) ;
#236 = DIRECTION ( 'NONE',  ( -1.365923996832131609E-16, 1.000000000000000000, 0.000000000000000000 ) ) ;
#237 = CARTESIAN_POINT ( 'NONE',  ( -0.7658787693666454510, 0.4314641359640692397, 1.466666699999999324 ) ) ;
#238 = ORIENTED_EDGE ( 'NONE', *, *, #633, .T. ) ;
#239 = DIRECTION ( 'NONE',  ( 0.9335804264971999666, -0.3583679495453050423, -0.000000000000000000 ) ) ;
#240 = DIRECTION ( 'NONE',  ( 0.000000000000000000, -1.000000000000000000, 0.000000000000000000 ) ) ;
#241 = ORIENTED_EDGE ( 'NONE', *, *, #557, .T. ) ;
#242 = FACE_OUTER_BOUND ( 'NONE', #847, .T. ) ;
#243 = DIRECTION ( 'NONE',  ( 0.8241261886220169197, 0.5664062369248308304, -0.000000000000000000 ) ) ;
#244 = ORIENTED_EDGE ( 'NONE', *, *, #704, .T. ) ;
#245 = PRESENTATION_STYLE_ASSIGNMENT (( #769 ) ) ;
#246 = CARTESIAN_POINT ( 'NONE',  ( 0.9534969629434616456, -1.305947982758346004, -1.500000000000000222 ) ) ;
#247 = VECTOR ( 'NONE', #738, 39.37007874015748854 ) ;
#248 = DIRECTION ( 'NONE',  ( 0.8241261886220169197, 0.5664062369248308304, 0.000000000000000000 ) ) ;
#249 = VERTEX_POINT ( 'NONE', #805 ) ;
#250 = EDGE_LOOP ( 'NONE', ( #272, #667, #622, #331 ) ) ;
#251 = DIRECTION ( 'NONE',  ( -0.5664062369248309414, 0.8241261886220169197, 0.000000000000000000 ) ) ;
#252 = EDGE_CURVE ( 'NONE', #732, #157, #178, .T. ) ;
#253 = EDGE_LOOP ( 'NONE', ( #186, #399, #284, #869 ) ) ;
#254 = ORIENTED_EDGE ( 'NONE', *, *, #454, .T. ) ;
#255 = CARTESIAN_POINT ( 'NONE',  ( -1.307012597096079531, -1.000000000000000222, 1.500000000000000222 ) ) ;
#256 = EDGE_CURVE ( 'NONE', #600, #123, #400, .T. ) ;
#257 = DIRECTION ( 'NONE',  ( 0.8241261886220169197, 0.5664062369248308304, 0.000000000000000000 ) ) ;
#258 = AXIS2_PLACEMENT_3D ( 'NONE', #552, #269, #46 ) ;
#259 = ORIENTED_EDGE ( 'NONE', *, *, #235, .T. ) ;
#260 = CIRCLE ( 'NONE', #110, 0.7000000000000000666 ) ;
#261 = CARTESIAN_POINT ( 'NONE',  ( -0.2396186264903239493, -0.6242278635668823128, 1.466666699999999990 ) ) ;
#262 = AXIS2_PLACEMENT_3D ( 'NONE', #350, #852, #784 ) ;
#263 = AXIS2_PLACEMENT_3D ( 'NONE', #825, #812, #111 ) ;
#264 = EDGE_CURVE ( 'NONE', #475, #572, #136, .T. ) ;
#265 = DIRECTION ( 'NONE',  ( -0.8241261886220169197, -0.5664062369248308304, -0.000000000000000000 ) ) ;
#266 = PLANE ( 'NONE',  #113 ) ;
#267 = DIRECTION ( 'NONE',  ( -0.8241261886220169197, -0.5664062369248307194, 0.000000000000000000 ) ) ;
#268 = ADVANCED_FACE ( 'NONE', ( #65 ), #20, .F. ) ;
#269 = DIRECTION ( 'NONE',  ( 0.3583679495453048203, 0.9335804264972000777, -0.000000000000000000 ) ) ;
#270 = ORIENTED_EDGE ( 'NONE', *, *, #604, .F. ) ;
#271 = CARTESIAN_POINT ( 'NONE',  ( -0.5736792970960794547, -0.4959939866015179999, 1.500000000000000222 ) ) ;
#272 = ORIENTED_EDGE ( 'NONE', *, *, #122, .T. ) ;
#273 = DIRECTION ( 'NONE',  ( 1.365923996832132349E-16, 1.000000000000000000, -0.000000000000000000 ) ) ;
#274 = EDGE_CURVE ( 'NONE', #893, #672, #853, .T. ) ;
#275 = ORIENTED_EDGE ( 'NONE', *, *, #704, .F. ) ;
#276 = DIRECTION ( 'NONE',  ( -0.9335804264971999666, 0.3583679495453050978, 1.384657562554485239E-16 ) ) ;
#277 = CIRCLE ( 'NONE', #793, 0.7000000000000000666 ) ;
#278 = ORIENTED_EDGE ( 'NONE', *, *, #839, .F. ) ;
#279 = VECTOR ( 'NONE', #907, 39.37007874015748143 ) ;
#280 = AXIS2_PLACEMENT_3D ( 'NONE', #770, #774, #143 ) ;
#281 = CARTESIAN_POINT ( 'NONE',  ( 0.3693944035192635589, -0.8580060626555107151, 0.7666667000000000343 ) ) ;
#282 = DIRECTION ( 'NONE',  ( 0.000000000000000000, 0.000000000000000000, 1.000000000000000000 ) ) ;
#283 = EDGE_CURVE ( 'NONE', #750, #600, #216, .T. ) ;
#284 = ORIENTED_EDGE ( 'NONE', *, *, #708, .T. ) ;
#285 = DIRECTION ( 'NONE',  ( 0.000000000000000000, 0.000000000000000000, -1.000000000000000000 ) ) ;
#286 = DIRECTION ( 'NONE',  ( 1.000000000000000000, 1.951319995474473481E-16, 0.000000000000000000 ) ) ;
#287 = EDGE_LOOP ( 'NONE', ( #543, #610, #768, #728 ) ) ;
#288 = ADVANCED_FACE ( 'NONE', ( #156 ), #430, .F. ) ;
#289 = DIRECTION ( 'NONE',  ( -1.000000000000000000, 0.000000000000000000, 0.000000000000000000 ) ) ;
#290 = DIRECTION ( 'NONE',  ( -0.9335804264971999666, 0.3583679495453050978, 0.000000000000000000 ) ) ;
#291 = ORIENTED_EDGE ( 'NONE', *, *, #731, .T. ) ;
#292 = VECTOR ( 'NONE', #855, 39.37007874015748143 ) ;
#293 = CIRCLE ( 'NONE', #86, 0.7000000000000000666 ) ;
#294 = EDGE_CURVE ( 'NONE', #916, #148, #640, .T. ) ;
#295 = CARTESIAN_POINT ( 'NONE',  ( 0.5570125970960796424, -0.5010385254126107357, 1.466666699999999990 ) ) ;
#296 = DIRECTION ( 'NONE',  ( -0.000000000000000000, -0.000000000000000000, -1.000000000000000000 ) ) ;
#297 = CARTESIAN_POINT ( 'NONE',  ( -0.4667902132485999278, 0.6774688454092255840, 1.500000000000000222 ) ) ;
#298 = ORIENTED_EDGE ( 'NONE', *, *, #742, .F. ) ;
#299 = CARTESIAN_POINT ( 'NONE',  ( -1.307012597096079753, 1.000000000000000222, 1.500000000000000222 ) ) ;
#300 = DIRECTION ( 'NONE',  ( -9.756599977372368637E-17, 1.000000000000000000, 3.902639990948947455E-16 ) ) ;
#301 = FACE_OUTER_BOUND ( 'NONE', #638, .T. ) ;
#302 = VERTEX_POINT ( 'NONE', #246 ) ;
#303 = ADVANCED_FACE ( 'NONE', ( #457 ), #312, .F. ) ;
#304 = ORIENTED_EDGE ( 'NONE', *, *, #198, .F. ) ;
#305 = VECTOR ( 'NONE', #685, 39.37007874015748854 ) ;
#306 = AXIS2_PLACEMENT_3D ( 'NONE', #800, #899, #248 ) ;
#307 = DIRECTION ( 'NONE',  ( -1.000000000000000000, 0.000000000000000000, 0.000000000000000000 ) ) ;
#308 = DIRECTION ( 'NONE',  ( 0.9335804264972000777, -0.3583679495453048203, 0.000000000000000000 ) ) ;
#309 = PLANE ( 'NONE',  #306 ) ;
#310 = ORIENTED_EDGE ( 'NONE', *, *, #729, .T. ) ;
#311 = CARTESIAN_POINT ( 'NONE',  ( -0.8245368617777929510, -1.149500285149558376, 1.466666699999999990 ) ) ;
#312 = SPHERICAL_SURFACE ( 'NONE', #424, 0.7000000000000000666 ) ;
#313 = DIRECTION ( 'NONE',  ( 0.000000000000000000, 0.000000000000000000, 1.000000000000000000 ) ) ;
#314 = ORIENTED_EDGE ( 'NONE', *, *, #91, .T. ) ;
#315 = DIRECTION ( 'NONE',  ( 0.9335804264971999666, -0.3583679495453050423, 0.000000000000000000 ) ) ;
#316 = CARTESIAN_POINT ( 'NONE',  ( -0.5736792970960794547, -0.2858253135566442560, 1.500000000000000222 ) ) ;
#317 = CARTESIAN_POINT ( 'NONE',  ( 1.257012597096079709, -0.5010385254126107357, -1.500000000000000222 ) ) ;
#318 = ORIENTED_EDGE ( 'NONE', *, *, #264, .T. ) ;
#319 = LINE ( 'NONE', #593, #187 ) ;
#320 = ADVANCED_FACE ( 'NONE', ( #799 ), #590, .F. ) ;
#321 = VECTOR ( 'NONE', #504, 39.37007874015748143 ) ;
#322 = VECTOR ( 'NONE', #370, 39.37007874015748143 ) ;
#323 = LENGTH_MEASURE_WITH_UNIT ( LENGTH_MEASURE( 0.02539999999999999897 ), #38 );
#324 = CIRCLE ( 'NONE', #837, 0.7000000000000000666 ) ;
#325 = ORIENTED_EDGE ( 'NONE', *, *, #452, .T. ) ;
#326 = ADVANCED_FACE ( 'NONE', ( #809 ), #891, .T. ) ;
#327 = ORIENTED_EDGE ( 'NONE', *, *, #913, .F. ) ;
#328 = PLANE ( 'NONE',  #230 ) ;
#329 = CARTESIAN_POINT ( 'NONE',  ( 1.257012597096079709, -0.7290596507229341050, 0.7666667000000000343 ) ) ;
#330 = DIRECTION ( 'NONE',  ( 1.365923996832132349E-16, 1.000000000000000000, -0.000000000000000000 ) ) ;
#331 = ORIENTED_EDGE ( 'NONE', *, *, #712, .T. ) ;
#332 = ADVANCED_FACE ( 'NONE', ( #542 ), #60, .F. ) ;
#333 = CARTESIAN_POINT ( 'NONE',  ( 1.307012597096079753, -0.003430258726854003900, 1.500000000000000222 ) ) ;
#334 = PLANE ( 'NONE',  #641 ) ;
#335 = VECTOR ( 'NONE', #170, 39.37007874015748143 ) ;
#336 = CARTESIAN_POINT ( 'NONE',  ( 0.7658787693666453400, -1.434894394690922725, -1.500000000000000222 ) ) ;
#337 = ORIENTED_EDGE ( 'NONE', *, *, #98, .F. ) ;
#338 = CARTESIAN_POINT ( 'NONE',  ( -0.9701636629434610137, 0.2910630184787676433, -1.500000000000000222 ) ) ;
#339 = ORIENTED_EDGE ( 'NONE', *, *, #521, .T. ) ;
#340 = LINE ( 'NONE', #625, #630 ) ;
#341 = EDGE_LOOP ( 'NONE', ( #314, #449, #863 ) ) ;
#342 = DIRECTION ( 'NONE',  ( 0.000000000000000000, 0.000000000000000000, 1.000000000000000000 ) ) ;
#343 = EDGE_LOOP ( 'NONE', ( #441, #422, #106, #824 ) ) ;
#344 = LINE ( 'NONE', #381, #305 ) ;
#345 = ORIENTED_EDGE ( 'NONE', *, *, #758, .F. ) ;
#346 = FACE_OUTER_BOUND ( 'NONE', #647, .T. ) ;
#347 =( CONVERSION_BASED_UNIT ( 'INCH', #62 ) LENGTH_UNIT ( ) NAMED_UNIT ( #546 ) );
#348 = DIRECTION ( 'NONE',  ( 0.000000000000000000, 1.000000000000000000, -0.000000000000000000 ) ) ;
#349 = EDGE_CURVE ( 'NONE', #433, #672, #753, .T. ) ;
#350 = CARTESIAN_POINT ( 'NONE',  ( 0.3693944035192637809, -0.8580060626555107151, 0.7666667000000000343 ) ) ;
#351 = UNCERTAINTY_MEASURE_WITH_UNIT (LENGTH_MEASURE( 1.000000000000000082E-05 ), #347, 'distance_accuracy_value', 'NONE');
#352 = AXIS2_PLACEMENT_3D ( 'NONE', #882, #528, #813 ) ;
#353 = VECTOR ( 'NONE', #92, 39.37007874015748143 ) ;
#354 = ORIENTED_EDGE ( 'NONE', *, *, #75, .F. ) ;
#355 = CARTESIAN_POINT ( 'NONE',  ( 0.3693944035192637254, -0.8580060626555107151, -1.500000000000000222 ) ) ;
#356 = ORIENTED_EDGE ( 'NONE', *, *, #553, .T. ) ;
#357 = DIRECTION ( 'NONE',  ( 1.365923996832131609E-16, -1.000000000000000000, 0.000000000000000000 ) ) ;
#358 = LINE ( 'NONE', #494, #594 ) ;
#359 = DIRECTION ( 'NONE',  ( 1.365923996832131609E-16, -1.000000000000000000, 0.000000000000000000 ) ) ;
#360 = EDGE_CURVE ( 'NONE', #232, #875, #185, .T. ) ;
#361 = ORIENTED_EDGE ( 'NONE', *, *, #130, .F. ) ;
#362 = CARTESIAN_POINT ( 'NONE',  ( -1.273679297096079521, -0.2858253135566443115, 0.7666667000000000343 ) ) ;
#363 = LINE ( 'NONE', #857, #321 ) ;
#364 = CARTESIAN_POINT ( 'NONE',  ( -0.5736792970960796767, 1.000000000000000222, 0.7666667000000000343 ) ) ;
#365 = DIRECTION ( 'NONE',  ( -1.000000000000000000, 0.000000000000000000, 0.000000000000000000 ) ) ;
#366 = ORIENTED_EDGE ( 'NONE', *, *, #107, .T. ) ;
#367 = AXIS2_PLACEMENT_3D ( 'NONE', #502, #155, #64 ) ;
#368 = LINE ( 'NONE', #311, #335 ) ;
#369 = CYLINDRICAL_SURFACE ( 'NONE', #536, 0.7000000000000001776 ) ;
#370 = DIRECTION ( 'NONE',  ( 0.000000000000000000, 0.000000000000000000, 1.000000000000000000 ) ) ;
#371 = ADVANCED_FACE ( 'NONE', ( #828 ), #202, .F. ) ;
#372 = CARTESIAN_POINT ( 'NONE',  ( 0.5570125970960797535, -0.5010385254126106247, 0.7666667000000000343 ) ) ;
#373 = ADVANCED_FACE ( 'NONE', ( #408 ), #681, .T. ) ;
#374 = CARTESIAN_POINT ( 'NONE',  ( 1.307012597096079531, -1.103430258726853186, -1.500000000000000222 ) ) ;
#375 = ORIENTED_EDGE ( 'NONE', *, *, #731, .F. ) ;
#376 = CARTESIAN_POINT ( 'NONE',  ( -0.5736792970960794547, -0.2858253135566444780, 0.7666667000000000343 ) ) ;
#377 = VERTEX_POINT ( 'NONE', #398 ) ;
#378 = AXIS2_PLACEMENT_3D ( 'NONE', #444, #880, #41 ) ;
#379 = ORIENTED_EDGE ( 'NONE', *, *, #130, .T. ) ;
#380 = CARTESIAN_POINT ( 'NONE',  ( 0.4667902132485996503, -1.680899104136079014, -1.500000000000000222 ) ) ;
#381 = CARTESIAN_POINT ( 'NONE',  ( -1.307012597096079531, -1.000000000000000222, -1.500000000000000222 ) ) ;
#382 = FACE_OUTER_BOUND ( 'NONE', #510, .T. ) ;
#383 = ORIENTED_EDGE ( 'NONE', *, *, #720, .F. ) ;
#384 = EDGE_CURVE ( 'NONE', #844, #503, #197, .T. ) ;
#385 = ORIENTED_EDGE ( 'NONE', *, *, #577, .T. ) ;
#386 = ADVANCED_FACE ( 'NONE', ( #479 ), #139, .F. ) ;
#387 = DIRECTION ( 'NONE',  ( 0.000000000000000000, 0.000000000000000000, -1.000000000000000000 ) ) ;
#388 = ORIENTED_EDGE ( 'NONE', *, *, #395, .F. ) ;
#389 = PLANE ( 'NONE',  #779 ) ;
#390 = VECTOR ( 'NONE', #644, 39.37007874015748854 ) ;
#391 = PRODUCT_DEFINITION_FORMATION_WITH_SPECIFIED_SOURCE ( 'ANY', '', #660, .NOT_KNOWN. ) ;
#392 = VECTOR ( 'NONE', #147, 39.37007874015748143 ) ;
#393 = VERTEX_POINT ( 'NONE', #904 ) ;
#394 = DIRECTION ( 'NONE',  ( 1.000000000000000000, 0.000000000000000000, -0.000000000000000000 ) ) ;
#395 = EDGE_CURVE ( 'NONE', #433, #157, #63, .T. ) ;
#396 = EDGE_LOOP ( 'NONE', ( #481, #327, #777, #801 ) ) ;
#397 = CARTESIAN_POINT ( 'NONE',  ( 0.000000000000000000, 0.000000000000000000, -1.500000000000000222 ) ) ;
#398 = CARTESIAN_POINT ( 'NONE',  ( -0.5736792970960794547, -0.2858253135566444780, 1.466666699999999990 ) ) ;
#399 = ORIENTED_EDGE ( 'NONE', *, *, #294, .T. ) ;
#400 = LINE ( 'NONE', #776, #392 ) ;
#401 = FACE_OUTER_BOUND ( 'NONE', #651, .T. ) ;
#402 = EDGE_LOOP ( 'NONE', ( #154, #631, #304, #807 ) ) ;
#403 = CYLINDRICAL_SURFACE ( 'NONE', #100, 0.7000000000000000666 ) ;
#404 = VECTOR ( 'NONE', #910, 39.37007874015748854 ) ;
#405 = VERTEX_POINT ( 'NONE', #912 ) ;
#406 = LINE ( 'NONE', #689, #404 ) ;
#407 = EDGE_LOOP ( 'NONE', ( #339, #291, #354 ) ) ;
#408 = FACE_OUTER_BOUND ( 'NONE', #250, .T. ) ;
#409 = FACE_OUTER_BOUND ( 'NONE', #253, .T. ) ;
#410 = CARTESIAN_POINT ( 'NONE',  ( -1.295067010723500944, -0.9688806835694409036, -1.500000000000000222 ) ) ;
#411 = EDGE_LOOP ( 'NONE', ( #94, #44, #74, #595 ) ) ;
#412 = EDGE_CURVE ( 'NONE', #161, #690, #340, .T. ) ;
#413 = CARTESIAN_POINT ( 'NONE',  ( -1.307012597096079753, 1.000000000000000222, -1.500000000000000222 ) ) ;
#414 = DIRECTION ( 'NONE',  ( 0.000000000000000000, 0.000000000000000000, 1.000000000000000000 ) ) ;
#415 = CARTESIAN_POINT ( 'NONE',  ( 0.5570125970960796424, -0.5010385254126106247, 1.500000000000000222 ) ) ;
#416 = EDGE_LOOP ( 'NONE', ( #766, #733, #275 ) ) ;
#417 = LINE ( 'NONE', #84, #390 ) ;
#418 = EDGE_CURVE ( 'NONE', #693, #405, #50, .T. ) ;
#419 = CARTESIAN_POINT ( 'NONE',  ( -0.3693944035192637809, -0.1454241960713426873, 0.7666667000000000343 ) ) ;
#420 = CIRCLE ( 'NONE', #749, 0.7000000000000000666 ) ;
#421 = CIRCLE ( 'NONE', #657, 0.7000000000000001776 ) ;
#422 = ORIENTED_EDGE ( 'NONE', *, *, #584, .F. ) ;
#423 = AXIS2_PLACEMENT_3D ( 'NONE', #77, #414, #621 ) ;
#424 = AXIS2_PLACEMENT_3D ( 'NONE', #25, #737, #32 ) ;
#425 = CARTESIAN_POINT ( 'NONE',  ( -0.3693944035192637809, -0.1454241960713426873, -1.500000000000000222 ) ) ;
#426 = EDGE_CURVE ( 'NONE', #600, #393, #836, .T. ) ;
#427 = CARTESIAN_POINT ( 'NONE',  ( -0.9701636629434610137, 0.2910630184787676433, 0.7666667000000000343 ) ) ;
#428 = ORIENTED_EDGE ( 'NONE', *, *, #773, .F. ) ;
#429 = LINE ( 'NONE', #80, #659 ) ;
#430 = CYLINDRICAL_SURFACE ( 'NONE', #723, 0.7000000000000001776 ) ;
#431 = ORIENTED_EDGE ( 'NONE', *, *, #584, .T. ) ;
#432 = LINE ( 'NONE', #716, #40 ) ;
#433 = VERTEX_POINT ( 'NONE', #918 ) ;
#434 = FACE_OUTER_BOUND ( 'NONE', #96, .T. ) ;
#435 =( GEOMETRIC_REPRESENTATION_CONTEXT ( 3 ) GLOBAL_UNCERTAINTY_ASSIGNED_CONTEXT ( ( #718 ) ) GLOBAL_UNIT_ASSIGNED_CONTEXT ( ( #906, #883, #180 ) ) REPRESENTATION_CONTEXT ( 'NONE', 'WORKASPACE' ) );
#436 = CARTESIAN_POINT ( 'NONE',  ( -0.7658787693666456731, 0.4314641359640693508, -1.500000000000000222 ) ) ;
#437 = VECTOR ( 'NONE', #740, 39.37007874015748143 ) ;
#438 = CARTESIAN_POINT ( 'NONE',  ( 0.4667902132485995392, -1.680899104136079014, -1.500000000000000222 ) ) ;
#439 = DIRECTION ( 'NONE',  ( 0.000000000000000000, 0.000000000000000000, -1.000000000000000000 ) ) ;
#440 = CARTESIAN_POINT ( 'NONE',  ( 0.5570125970960796424, -0.7290596507229341050, 1.466666699999999990 ) ) ;
#441 = ORIENTED_EDGE ( 'NONE', *, *, #553, .F. ) ;
#442 = CARTESIAN_POINT ( 'NONE',  ( 0.5570125970960796424, -0.5010385254126108467, 0.7666667000000000343 ) ) ;
#443 = ADVANCED_FACE ( 'NONE', ( #474 ), #560, .F. ) ;
#444 = CARTESIAN_POINT ( 'NONE',  ( 1.295067010723501166, -0.03454957515741312324, 1.500000000000000222 ) ) ;
#445 = PLANE ( 'NONE',  #451 ) ;
#446 = VERTEX_POINT ( 'NONE', #128 ) ;
#447 = CARTESIAN_POINT ( 'NONE',  ( 0.1185368388375506177, -1.511512361203550814, -1.500000000000000222 ) ) ;
#448 = ADVANCED_FACE ( 'NONE', ( #842 ), #403, .F. ) ;
#449 = ORIENTED_EDGE ( 'NONE', *, *, #142, .T. ) ;
#450 = VECTOR ( 'NONE', #357, 39.37007874015748143 ) ;
#451 = AXIS2_PLACEMENT_3D ( 'NONE', #231, #654, #22 ) ;
#452 = EDGE_CURVE ( 'NONE', #690, #679, #500, .T. ) ;
#453 = CYLINDRICAL_SURFACE ( 'NONE', #887, 0.6999999999999999556 ) ;
#454 = EDGE_CURVE ( 'NONE', #722, #529, #420, .T. ) ;
#455 = ORIENTED_EDGE ( 'NONE', *, *, #2, .T. ) ;
#456 = CARTESIAN_POINT ( 'NONE',  ( 1.307012597096079753, -0.003430258726854003900, -1.500000000000000222 ) ) ;
#457 = FACE_OUTER_BOUND ( 'NONE', #416, .T. ) ;
#458 = EDGE_LOOP ( 'NONE', ( #854, #841, #138, #259 ) ) ;
#459 = DIRECTION ( 'NONE',  ( -0.9335804264971999666, 0.3583679495453050423, 0.000000000000000000 ) ) ;
#460 = ORIENTED_EDGE ( 'NONE', *, *, #252, .F. ) ;
#461 = DIRECTION ( 'NONE',  ( 1.000000000000000000, 1.365923996832131609E-16, -0.000000000000000000 ) ) ;
#462 = DIRECTION ( 'NONE',  ( -0.000000000000000000, -0.000000000000000000, 1.000000000000000000 ) ) ;
#463 = EDGE_CURVE ( 'NONE', #302, #916, #417, .T. ) ;
#464 = AXIS2_PLACEMENT_3D ( 'NONE', #419, #567, #571 ) ;
#465 = VECTOR ( 'NONE', #239, 39.37007874015748143 ) ;
#466 = VECTOR ( 'NONE', #597, 39.37007874015748143 ) ;
#467 = AXIS2_PLACEMENT_3D ( 'NONE', #1, #290, #645 ) ;
#468 = AXIS2_PLACEMENT_3D ( 'NONE', #615, #603, #257 ) ;
#469 = ORIENTED_EDGE ( 'NONE', *, *, #643, .F. ) ;
#470 = DIRECTION ( 'NONE',  ( 1.365923996832132349E-16, 1.000000000000000000, -0.000000000000000000 ) ) ;
#471 = ORIENTED_EDGE ( 'NONE', *, *, #2, .F. ) ;
#472 = CARTESIAN_POINT ( 'NONE',  ( 1.307012597096079531, -2.003430258726853097, 1.500000000000000222 ) ) ;
#473 = FACE_OUTER_BOUND ( 'NONE', #411, .T. ) ;
#474 = FACE_OUTER_BOUND ( 'NONE', #177, .T. ) ;
#475 = VERTEX_POINT ( 'NONE', #211 ) ;
#476 = PRODUCT_DEFINITION_CONTEXT ( 'detailed design', #233, 'design' ) ;
#477 = DIRECTION ( 'NONE',  ( 0.3583679495453048203, 0.9335804264972000777, -0.000000000000000000 ) ) ;
#478 = ORIENTED_EDGE ( 'NONE', *, *, #75, .T. ) ;
#479 = FACE_OUTER_BOUND ( 'NONE', #624, .T. ) ;
#480 = CIRCLE ( 'NONE', #686, 0.7000000000000000666 ) ;
#481 = ORIENTED_EDGE ( 'NONE', *, *, #452, .F. ) ;
#482 = EDGE_CURVE ( 'NONE', #572, #722, #501, .T. ) ;
#483 = DIRECTION ( 'NONE',  ( -0.5664062369248308304, 0.8241261886220170307, 0.000000000000000000 ) ) ;
#484 = AXIS2_PLACEMENT_3D ( 'NONE', #696, #330, #620 ) ;
#485 = VERTEX_POINT ( 'NONE', #362 ) ;
#486 = SURFACE_SIDE_STYLE ('',( #589 ) ) ;
#487 = DIRECTION ( 'NONE',  ( 0.000000000000000000, 0.000000000000000000, 1.000000000000000000 ) ) ;
#488 = CARTESIAN_POINT ( 'NONE',  ( 1.257012597096079709, -0.7290596507229341050, 1.466666699999999990 ) ) ;
#489 = DIRECTION ( 'NONE',  ( -1.000000000000000000, 0.000000000000000000, 0.000000000000000000 ) ) ;
#490 = CARTESIAN_POINT ( 'NONE',  ( -1.273679297096079521, -0.2858253135566443115, 1.466666699999999990 ) ) ;
#491 = ORIENTED_EDGE ( 'NONE', *, *, #36, .F. ) ;
#492 = CARTESIAN_POINT ( 'NONE',  ( 0.5570125970960796424, -0.5010385254126107357, 0.7666667000000000343 ) ) ;
#493 = ADVANCED_FACE ( 'NONE', ( #8 ), #923, .F. ) ;
#494 = CARTESIAN_POINT ( 'NONE',  ( -0.4471094186300106355, 0.6505482409111565945, -1.500000000000000222 ) ) ;
#495 = LINE ( 'NONE', #637, #513 ) ;
#496 = EDGE_CURVE ( 'NONE', #203, #102, #260, .T. ) ;
#497 = VECTOR ( 'NONE', #131, 39.37007874015748854 ) ;
#498 = AXIS2_PLACEMENT_3D ( 'NONE', #226, #512, #151 ) ;
#499 = AXIS2_PLACEMENT_3D ( 'NONE', #171, #874, #240 ) ;
#500 = CIRCLE ( 'NONE', #818, 0.7000000000000001776 ) ;
#501 = LINE ( 'NONE', #706, #353 ) ;
#502 = CARTESIAN_POINT ( 'NONE',  ( -0.5736792970960795657, -0.4959939866015182774, 0.7666667000000000343 ) ) ;
#503 = VERTEX_POINT ( 'NONE', #861 ) ;
#504 = DIRECTION ( 'NONE',  ( 0.000000000000000000, 0.000000000000000000, -1.000000000000000000 ) ) ;
#505 = CARTESIAN_POINT ( 'NONE',  ( -0.5736792970960794547, -0.4959939866015179999, 0.7666667000000000343 ) ) ;
#506 = FACE_OUTER_BOUND ( 'NONE', #832, .T. ) ;
#507 = ORIENTED_EDGE ( 'NONE', *, *, #42, .F. ) ;
#508 = DIRECTION ( 'NONE',  ( 1.000000000000000000, 0.000000000000000000, 0.000000000000000000 ) ) ;
#509 = EDGE_CURVE ( 'NONE', #677, #529, #358, .T. ) ;
#510 = EDGE_LOOP ( 'NONE', ( #803, #669, #37, #878 ) ) ;
#511 = AXIS2_PLACEMENT_3D ( 'NONE', #376, #588, #808 ) ;
#512 = DIRECTION ( 'NONE',  ( 0.8241261886220170307, 0.5664062369248309414, -0.000000000000000000 ) ) ;
#513 = VECTOR ( 'NONE', #920, 39.37007874015748854 ) ;
#514 = LINE ( 'NONE', #237, #322 ) ;
#515 = ORIENTED_EDGE ( 'NONE', *, *, #550, .T. ) ;
#516 = CARTESIAN_POINT ( 'NONE',  ( 0.8078701617777932498, 0.1524677731354291410, 1.466666699999999990 ) ) ;
#517 = FACE_OUTER_BOUND ( 'NONE', #287, .T. ) ;
#518 = SPHERICAL_SURFACE ( 'NONE', #499, 0.7000000000000000666 ) ;
#519 = ORIENTED_EDGE ( 'NONE', *, *, #198, .T. ) ;
#520 = LINE ( 'NONE', #877, #734 ) ;
#521 = EDGE_CURVE ( 'NONE', #693, #744, #132, .T. ) ;
#522 = CARTESIAN_POINT ( 'NONE',  ( -1.307012597096079531, -1.000000000000000222, 1.500000000000000222 ) ) ;
#523 = VERTEX_POINT ( 'NONE', #295 ) ;
#524 = DIRECTION ( 'NONE',  ( -0.000000000000000000, -0.000000000000000000, -1.000000000000000000 ) ) ;
#525 = CARTESIAN_POINT ( 'NONE',  ( -0.1185368388375501875, 0.5080821024766972727, 0.7666667000000000343 ) ) ;
#526 = MECHANICAL_DESIGN_GEOMETRIC_PRESENTATION_REPRESENTATION (  '', ( #719 ), #163 ) ;
#527 = ORIENTED_EDGE ( 'NONE', *, *, #827, .F. ) ;
#528 = DIRECTION ( 'NONE',  ( 1.000000000000000000, 0.000000000000000000, 0.000000000000000000 ) ) ;
#529 = VERTEX_POINT ( 'NONE', #436 ) ;
#530 = ORIENTED_EDGE ( 'NONE', *, *, #496, .F. ) ;
#531 = ORIENTED_EDGE ( 'NONE', *, *, #712, .F. ) ;
#532 = LINE ( 'NONE', #815, #67 ) ;
#533 = ORIENTED_EDGE ( 'NONE', *, *, #619, .T. ) ;
#534 = CARTESIAN_POINT ( 'NONE',  ( -1.273679297096079743, 1.000000000000000222, 1.500000000000000222 ) ) ;
#535 = DIRECTION ( 'NONE',  ( -0.9335804264971999666, 0.3583679495453047648, 0.000000000000000000 ) ) ;
#536 = AXIS2_PLACEMENT_3D ( 'NONE', #415, #698, #628 ) ;
#537 = DIRECTION ( 'NONE',  ( -0.9335804264971999666, 0.3583679495453048758, -0.000000000000000000 ) ) ;
#538 = AXIS2_PLACEMENT_3D ( 'NONE', #397, #342, #394 ) ;
#539 = VECTOR ( 'NONE', #121, 39.37007874015748143 ) ;
#540 = ORIENTED_EDGE ( 'NONE', *, *, #107, .F. ) ;
#541 = CARTESIAN_POINT ( 'NONE',  ( 0.5190164772338345944, -0.7551736604049996693, 0.7666667000000000343 ) ) ;
#542 = FACE_OUTER_BOUND ( 'NONE', #82, .T. ) ;
#543 = ORIENTED_EDGE ( 'NONE', *, *, #856, .F. ) ;
#544 = DIRECTION ( 'NONE',  ( -0.9335804264971999666, 0.3583679495453050423, 0.000000000000000000 ) ) ;
#545 = FACE_OUTER_BOUND ( 'NONE', #921, .T. ) ;
#546 = DIMENSIONAL_EXPONENTS ( 1.000000000000000000, 0.000000000000000000, 0.000000000000000000, 0.000000000000000000, 0.000000000000000000, 0.000000000000000000, 0.000000000000000000 ) ;
#547 = EDGE_CURVE ( 'NONE', #249, #503, #902, .T. ) ;
#548 = ORIENTED_EDGE ( 'NONE', *, *, #810, .F. ) ;
#549 = DIRECTION ( 'NONE',  ( 1.000000000000000000, 0.000000000000000000, 0.000000000000000000 ) ) ;
#550 = EDGE_CURVE ( 'NONE', #875, #377, #699, .T. ) ;
#551 = FILL_AREA_STYLE_COLOUR ( '', #917 ) ;
#552 = CARTESIAN_POINT ( 'NONE',  ( -1.295067010723500944, -0.9688806835694409036, 1.500000000000000222 ) ) ;
#553 = EDGE_CURVE ( 'NONE', #562, #893, #218, .T. ) ;
#554 = ADVANCED_FACE ( 'NONE', ( #434 ), #66, .F. ) ;
#555 = AXIS2_PLACEMENT_3D ( 'NONE', #492, #632, #922 ) ;
#556 = ORIENTED_EDGE ( 'NONE', *, *, #71, .T. ) ;
#557 = EDGE_CURVE ( 'NONE', #475, #405, #673, .T. ) ;
#558 = VECTOR ( 'NONE', #726, 39.37007874015748143 ) ;
#559 = ORIENTED_EDGE ( 'NONE', *, *, #482, .F. ) ;
#560 = PLANE ( 'NONE',  #88 ) ;
#561 = CARTESIAN_POINT ( 'NONE',  ( 1.257012597096079709, -0.7290596507229343270, -1.500000000000000222 ) ) ;
#562 = VERTEX_POINT ( 'NONE', #210 ) ;
#563 = EDGE_CURVE ( 'NONE', #782, #523, #234, .T. ) ;
#564 = LINE ( 'NONE', #212, #24 ) ;
#565 = ORIENTED_EDGE ( 'NONE', *, *, #426, .F. ) ;
#566 = PRODUCT_RELATED_PRODUCT_CATEGORY ( 'part', '', ( #660 ) ) ;
#567 = DIRECTION ( 'NONE',  ( 0.000000000000000000, 0.000000000000000000, -1.000000000000000000 ) ) ;
#568 = CIRCLE ( 'NONE', #176, 0.7000000000000000666 ) ;
#569 = VERTEX_POINT ( 'NONE', #447 ) ;
#570 = EDGE_CURVE ( 'NONE', #377, #782, #520, .T. ) ;
#571 = DIRECTION ( 'NONE',  ( -1.000000000000000000, 0.000000000000000000, 0.000000000000000000 ) ) ;
#572 = VERTEX_POINT ( 'NONE', #525 ) ;
#573 = DIRECTION ( 'NONE',  ( 0.000000000000000000, 0.000000000000000000, 1.000000000000000000 ) ) ;
#574 = DIRECTION ( 'NONE',  ( -0.8241261886220169197, -0.5664062369248308304, -0.000000000000000000 ) ) ;
#575 = ORIENTED_EDGE ( 'NONE', *, *, #142, .F. ) ;
#576 = ORIENTED_EDGE ( 'NONE', *, *, #570, .T. ) ;
#577 = EDGE_CURVE ( 'NONE', #679, #475, #806, .T. ) ;
#578 = VECTOR ( 'NONE', #200, 39.37007874015748143 ) ;
#579 = CIRCLE ( 'NONE', #190, 0.7000000000000000666 ) ;
#580 = CIRCLE ( 'NONE', #263, 0.7000000000000000666 ) ;
#581 =( NAMED_UNIT ( * ) PLANE_ANGLE_UNIT ( ) SI_UNIT ( $, .RADIAN. ) );
#582 = ORIENTED_EDGE ( 'NONE', *, *, #219, .T. ) ;
#583 = CARTESIAN_POINT ( 'NONE',  ( -0.09609432224004248180, -0.2503342680466932313, 1.466666699999999990 ) ) ;
#584 = EDGE_CURVE ( 'NONE', #433, #562, #319, .T. ) ;
#585 = LINE ( 'NONE', #872, #794 ) ;
#586 = ORIENTED_EDGE ( 'NONE', *, *, #619, .F. ) ;
#587 = LINE ( 'NONE', #876, #675 ) ;
#588 = DIRECTION ( 'NONE',  ( -1.951319995474473974E-16, -1.000000000000000000, 0.000000000000000000 ) ) ;
#589 = SURFACE_STYLE_FILL_AREA ( #736 ) ;
#590 = SPHERICAL_SURFACE ( 'NONE', #352, 0.7000000000000000666 ) ;
#591 = ORIENTED_EDGE ( 'NONE', *, *, #283, .T. ) ;
#592 = CARTESIAN_POINT ( 'NONE',  ( -1.273679297096079521, -0.4959939866015181109, -1.500000000000000222 ) ) ;
#593 = CARTESIAN_POINT ( 'NONE',  ( -1.307012597096079976, 0.09999999999999975575, -1.500000000000000222 ) ) ;
#594 = VECTOR ( 'NONE', #797, 39.37007874015748854 ) ;
#595 = ORIENTED_EDGE ( 'NONE', *, *, #274, .T. ) ;
#596 = VECTOR ( 'NONE', #822, 39.37007874015748854 ) ;
#597 = DIRECTION ( 'NONE',  ( 0.000000000000000000, 0.000000000000000000, -1.000000000000000000 ) ) ;
#598 = ORIENTED_EDGE ( 'NONE', *, *, #550, .F. ) ;
#599 = EDGE_CURVE ( 'NONE', #744, #302, #684, .T. ) ;
#600 = VERTEX_POINT ( 'NONE', #901 ) ;
#601 = PLANE ( 'NONE',  #885 ) ;
#602 = ADVANCED_FACE ( 'NONE', ( #401 ), #623, .F. ) ;
#603 = DIRECTION ( 'NONE',  ( 0.5664062369248309414, -0.8241261886220170307, 0.000000000000000000 ) ) ;
#604 = EDGE_CURVE ( 'NONE', #302, #161, #21, .T. ) ;
#605 = ORIENTED_EDGE ( 'NONE', *, *, #115, .F. ) ;
#606 = DIRECTION ( 'NONE',  ( 0.3583679495453050978, 0.9335804264971998556, -9.756599977372368637E-16 ) ) ;
#607 = AXIS2_PLACEMENT_3D ( 'NONE', #724, #849, #648 ) ;
#608 = CARTESIAN_POINT ( 'NONE',  ( -0.5736792970960794547, -0.4959939866015182774, 0.7666667000000000343 ) ) ;
#609 = CIRCLE ( 'NONE', #865, 0.7000000000000000666 ) ;
#610 = ORIENTED_EDGE ( 'NONE', *, *, #633, .F. ) ;
#611 = CARTESIAN_POINT ( 'NONE',  ( 1.295067010723501166, -0.03454957515741312324, 0.7666667000000000343 ) ) ;
#612 = CARTESIAN_POINT ( 'NONE',  ( -0.5736792970960793436, -0.2858253135566443670, 0.7666667000000000343 ) ) ;
#613 = ORIENTED_EDGE ( 'NONE', *, *, #256, .T. ) ;
#614 = EDGE_CURVE ( 'NONE', #503, #875, #747, .T. ) ;
#615 = CARTESIAN_POINT ( 'NONE',  ( -0.4479100242313134861, 0.6499979999260312447, -1.500000000000000222 ) ) ;
#616 = ORIENTED_EDGE ( 'NONE', *, *, #360, .T. ) ;
#617 = DIRECTION ( 'NONE',  ( 1.000000000000000000, 0.000000000000000000, 0.000000000000000000 ) ) ;
#618 = ORIENTED_EDGE ( 'NONE', *, *, #173, .T. ) ;
#619 = EDGE_CURVE ( 'NONE', #446, #27, #120, .T. ) ;
#620 = DIRECTION ( 'NONE',  ( -1.000000000000000000, 0.000000000000000000, 0.000000000000000000 ) ) ;
#621 = DIRECTION ( 'NONE',  ( 1.000000000000000000, 0.000000000000000000, 0.000000000000000000 ) ) ;
#622 = ORIENTED_EDGE ( 'NONE', *, *, #653, .F. ) ;
#623 = CYLINDRICAL_SURFACE ( 'NONE', #626, 0.7000000000000000666 ) ;
#624 = EDGE_LOOP ( 'NONE', ( #478, #540, #310, #635 ) ) ;
#625 = CARTESIAN_POINT ( 'NONE',  ( 1.257012597096079487, -2.003430258726853097, -1.500000000000000222 ) ) ;
#626 = AXIS2_PLACEMENT_3D ( 'NONE', #271, #817, #549 ) ;
#627 = ADVANCED_FACE ( 'NONE', ( #908 ), #334, .F. ) ;
#628 = DIRECTION ( 'NONE',  ( 1.000000000000000000, 0.000000000000000000, 0.000000000000000000 ) ) ;
#629 = AXIS2_PLACEMENT_3D ( 'NONE', #364, #359, #286 ) ;
#630 = VECTOR ( 'NONE', #273, 39.37007874015748143 ) ;
#631 = ORIENTED_EDGE ( 'NONE', *, *, #264, .F. ) ;
#632 = DIRECTION ( 'NONE',  ( 0.000000000000000000, 1.000000000000000000, 0.000000000000000000 ) ) ;
#633 = EDGE_CURVE ( 'NONE', #27, #677, #767, .T. ) ;
#634 = DIRECTION ( 'NONE',  ( 1.365923996832132349E-16, 1.000000000000000000, 0.000000000000000000 ) ) ;
#635 = ORIENTED_EDGE ( 'NONE', *, *, #418, .F. ) ;
#636 = DIRECTION ( 'NONE',  ( 1.000000000000000000, 0.000000000000000000, 0.000000000000000000 ) ) ;
#637 = CARTESIAN_POINT ( 'NONE',  ( -1.295067010723500944, -0.9688806835694409036, 0.7666667000000000343 ) ) ;
#638 = EDGE_LOOP ( 'NONE', ( #23, #379, #469 ) ) ;
#639 = CARTESIAN_POINT ( 'NONE',  ( -0.8245368617777929510, -1.149500285149558376, -1.500000000000000222 ) ) ;
#640 = LINE ( 'NONE', #666, #18 ) ;
#641 = AXIS2_PLACEMENT_3D ( 'NONE', #833, #483, #267 ) ;
#642 = EDGE_LOOP ( 'NONE', ( #182, #278, #388, #431 ) ) ;
#643 = EDGE_CURVE ( 'NONE', #782, #572, #568, .T. ) ;
#644 = DIRECTION ( 'NONE',  ( -0.8241261886220169197, -0.5664062369248307194, 0.000000000000000000 ) ) ;
#645 = DIRECTION ( 'NONE',  ( -0.3583679495453049868, -0.9335804264971998556, 0.000000000000000000 ) ) ;
#646 = CARTESIAN_POINT ( 'NONE',  ( -0.5736792970960794547, -0.4959939866015182774, 1.466666699999999990 ) ) ;
#647 = EDGE_LOOP ( 'NONE', ( #337, #859, #298, #914, #11, #460 ) ) ;
#648 = DIRECTION ( 'NONE',  ( -0.3583679495453048758, -0.9335804264972000777, 0.000000000000000000 ) ) ;
#649 = DIRECTION ( 'NONE',  ( 9.756599977372368637E-17, 1.000000000000000000, 9.756599977372369870E-17 ) ) ;
#650 = LINE ( 'NONE', #297, #247 ) ;
#651 = EDGE_LOOP ( 'NONE', ( #530, #383, #695, #531 ) ) ;
#652 = CYLINDRICAL_SURFACE ( 'NONE', #702, 0.6999999999999999556 ) ;
#653 = EDGE_CURVE ( 'NONE', #102, #569, #896, .T. ) ;
#654 = DIRECTION ( 'NONE',  ( 0.000000000000000000, 0.000000000000000000, 1.000000000000000000 ) ) ;
#655 = ORIENTED_EDGE ( 'NONE', *, *, #599, .F. ) ;
#656 = AXIS2_PLACEMENT_3D ( 'NONE', #534, #461, #756 ) ;
#657 = AXIS2_PLACEMENT_3D ( 'NONE', #30, #889, #251 ) ;
#658 = CIRCLE ( 'NONE', #262, 0.7000000000000000666 ) ;
#659 = VECTOR ( 'NONE', #634, 39.37007874015748143 ) ;
#660 = PRODUCT ( 'LumaBoxV5', 'LumaBoxV5', '', ( #144 ) ) ;
#661 =( NAMED_UNIT ( * ) SI_UNIT ( $, .STERADIAN. ) SOLID_ANGLE_UNIT ( ) );
#662 = ORIENTED_EDGE ( 'NONE', *, *, #725, .F. ) ;
#663 = DIRECTION ( 'NONE',  ( -1.365923996832132349E-16, -1.000000000000000000, 0.000000000000000000 ) ) ;
#664 = PRODUCT_DEFINITION ( 'UNKNOWN', '', #391, #476 ) ;
#665 = DIRECTION ( 'NONE',  ( 0.5664062369248310524, -0.8241261886220169197, 0.000000000000000000 ) ) ;
#666 = CARTESIAN_POINT ( 'NONE',  ( 0.7658787693666453400, -1.434894394690922725, 1.466666700000000212 ) ) ;
#667 = ORIENTED_EDGE ( 'NONE', *, *, #115, .T. ) ;
#668 = FACE_OUTER_BOUND ( 'NONE', #34, .T. ) ;
#669 = ORIENTED_EDGE ( 'NONE', *, *, #913, .T. ) ;
#670 = DIRECTION ( 'NONE',  ( -1.000000000000000000, 0.000000000000000000, 0.000000000000000000 ) ) ;
#671 = LINE ( 'NONE', #317, #466 ) ;
#672 = VERTEX_POINT ( 'NONE', #694 ) ;
#673 = CIRCLE ( 'NONE', #214, 0.7000000000000000666 ) ;
#674 = ADVANCED_FACE ( 'NONE', ( #757, #346 ), #57, .F. ) ;
#675 = VECTOR ( 'NONE', #524, 39.37007874015748143 ) ;
#676 = ADVANCED_BREP_SHAPE_REPRESENTATION ( 'LumaBoxV5', ( #746, #423 ), #435 ) ;
#677 = VERTEX_POINT ( 'NONE', #915 ) ;
#678 = CYLINDRICAL_SURFACE ( 'NONE', #150, 0.7000000000000000666 ) ;
#679 = VERTEX_POINT ( 'NONE', #188 ) ;
#680 = CARTESIAN_POINT ( 'NONE',  ( -0.3693944035192637809, -0.1454241960713427706, 0.7666667000000000343 ) ) ;
#681 = PLANE ( 'NONE',  #258 ) ;
#682 = EDGE_LOOP ( 'NONE', ( #47, #838, #892, #325, #455, #254, #884, #829, #834, #79, #209, #739 ) ) ;
#683 = ADVANCED_FACE ( 'NONE', ( #545 ), #678, .F. ) ;
#684 = LINE ( 'NONE', #752, #835 ) ;
#685 = DIRECTION ( 'NONE',  ( 0.9335804264971999666, -0.3583679495453047648, 0.000000000000000000 ) ) ;
#686 = AXIS2_PLACEMENT_3D ( 'NONE', #372, #649, #15 ) ;
#687 = CARTESIAN_POINT ( 'NONE',  ( 0.5570125970960796424, -0.7290596507229339940, 1.500000000000000222 ) ) ;
#688 = DIRECTION ( 'NONE',  ( -0.5664062369248308304, 0.8241261886220170307, 0.000000000000000000 ) ) ;
#689 = CARTESIAN_POINT ( 'NONE',  ( 0.4479100242313130420, -1.653428258652884786, 0.7666667000000001453 ) ) ;
#690 = VERTEX_POINT ( 'NONE', #195 ) ;
#691 = DIRECTION ( 'NONE',  ( 0.5664062369248307194, -0.8241261886220170307, 0.000000000000000000 ) ) ;
#692 = DIRECTION ( 'NONE',  ( 0.3583679495453049313, 0.9335804264972000777, 0.000000000000000000 ) ) ;
#693 = VERTEX_POINT ( 'NONE', #329 ) ;
#694 = CARTESIAN_POINT ( 'NONE',  ( -1.307012597096079531, -1.000000000000000222, -1.500000000000000222 ) ) ;
#695 = ORIENTED_EDGE ( 'NONE', *, *, #91, .F. ) ;
#696 = CARTESIAN_POINT ( 'NONE',  ( 0.5570125970960794204, -2.003430258726853097, 0.7666667000000000343 ) ) ;
#697 = ADVANCED_FACE ( 'NONE', ( #473 ), #601, .F. ) ;
#698 = DIRECTION ( 'NONE',  ( 0.000000000000000000, 0.000000000000000000, 1.000000000000000000 ) ) ;
#699 = LINE ( 'NONE', #860, #292 ) ;
#700 = CIRCLE ( 'NONE', #97, 0.7000000000000001776 ) ;
#701 = CYLINDRICAL_SURFACE ( 'NONE', #467, 0.7000000000000000666 ) ;
#702 = AXIS2_PLACEMENT_3D ( 'NONE', #316, #387, #670 ) ;
#703 = VECTOR ( 'NONE', #73, 39.37007874015748143 ) ;
#704 = EDGE_CURVE ( 'NONE', #377, #27, #700, .T. ) ;
#705 = ORIENTED_EDGE ( 'NONE', *, *, #71, .F. ) ;
#706 = CARTESIAN_POINT ( 'NONE',  ( -0.1185368388375502152, 0.5080821024766972727, -1.500000000000000222 ) ) ;
#707 = DIRECTION ( 'NONE',  ( 0.000000000000000000, -0.000000000000000000, 1.000000000000000000 ) ) ;
#708 = EDGE_CURVE ( 'NONE', #148, #744, #406, .T. ) ;
#709 = ORIENTED_EDGE ( 'NONE', *, *, #614, .F. ) ;
#710 = DIRECTION ( 'NONE',  ( 1.000000000000000000, 0.000000000000000000, 0.000000000000000000 ) ) ;
#711 = CARTESIAN_POINT ( 'NONE',  ( -0.3693944035192637809, -0.1454241960713426873, -1.500000000000000222 ) ) ;
#712 = EDGE_CURVE ( 'NONE', #102, #232, #368, .T. ) ;
#713 = ORIENTED_EDGE ( 'NONE', *, *, #454, .F. ) ;
#714 = DIRECTION ( 'NONE',  ( 0.000000000000000000, 0.000000000000000000, 1.000000000000000000 ) ) ;
#715 = LINE ( 'NONE', #438, #850 ) ;
#716 = CARTESIAN_POINT ( 'NONE',  ( -1.273679297096079743, 1.000000000000000222, -1.500000000000000222 ) ) ;
#717 = CARTESIAN_POINT ( 'NONE',  ( -1.307012597096079531, -1.000000000000000222, 1.500000000000000222 ) ) ;
#718 = UNCERTAINTY_MEASURE_WITH_UNIT (LENGTH_MEASURE( 1.000000000000000082E-05 ), #906, 'distance_accuracy_value', 'NONE');
#719 = STYLED_ITEM ( 'NONE', ( #245 ), #746 ) ;
#720 = EDGE_CURVE ( 'NONE', #135, #203, #363, .T. ) ;
#721 = DIRECTION ( 'NONE',  ( -0.000000000000000000, -0.000000000000000000, 1.000000000000000000 ) ) ;
#722 = VERTEX_POINT ( 'NONE', #787 ) ;
#723 = AXIS2_PLACEMENT_3D ( 'NONE', #711, #81, #365 ) ;
#724 = CARTESIAN_POINT ( 'NONE',  ( 0.3693944035192637254, -0.8580060626555107151, 0.7666667000000000343 ) ) ;
#725 = EDGE_CURVE ( 'NONE', #798, #393, #715, .T. ) ;
#726 = DIRECTION ( 'NONE',  ( -0.000000000000000000, -0.000000000000000000, -1.000000000000000000 ) ) ;
#727 = CARTESIAN_POINT ( 'NONE',  ( -0.5736792970960794547, -0.2858253135566442560, -1.500000000000000222 ) ) ;
#728 = ORIENTED_EDGE ( 'NONE', *, *, #83, .F. ) ;
#729 = EDGE_CURVE ( 'NONE', #523, #405, #480, .T. ) ;
#730 = DIRECTION ( 'NONE',  ( 1.000000000000000000, 1.365923996832131609E-16, -0.000000000000000000 ) ) ;
#731 = EDGE_CURVE ( 'NONE', #744, #844, #804, .T. ) ;
#732 = VERTEX_POINT ( 'NONE', #59 ) ;
#733 = ORIENTED_EDGE ( 'NONE', *, *, #754, .T. ) ;
#734 = VECTOR ( 'NONE', #243, 39.37007874015748854 ) ;
#735 = CARTESIAN_POINT ( 'NONE',  ( -0.3693944035192637254, -0.1454241960713426318, 1.466666699999999990 ) ) ;
#736 = FILL_AREA_STYLE ('',( #551 ) ) ;
#737 = DIRECTION ( 'NONE',  ( 0.000000000000000000, 1.000000000000000000, 0.000000000000000000 ) ) ;
#738 = DIRECTION ( 'NONE',  ( 0.8241261886220169197, 0.5664062369248308304, -0.000000000000000000 ) ) ;
#739 = ORIENTED_EDGE ( 'NONE', *, *, #58, .T. ) ;
#740 = DIRECTION ( 'NONE',  ( -0.9335804264971999666, 0.3583679495453050423, 0.000000000000000000 ) ) ;
#741 = ORIENTED_EDGE ( 'NONE', *, *, #294, .F. ) ;
#742 = EDGE_CURVE ( 'NONE', #672, #798, #344, .T. ) ;
#743 = CARTESIAN_POINT ( 'NONE',  ( -1.273679297096079521, -0.2858253135566443670, -1.500000000000000222 ) ) ;
#744 = VERTEX_POINT ( 'NONE', #105 ) ;
#745 = CARTESIAN_POINT ( 'NONE',  ( -0.4667902132485999278, 0.6774688454092255840, 1.500000000000000222 ) ) ;
#746 = MANIFOLD_SOLID_BREP ( 'Fillet1', #164 ) ;
#747 = LINE ( 'NONE', #261, #68 ) ;
#748 = CIRCLE ( 'NONE', #464, 0.7000000000000001776 ) ;
#749 = AXIS2_PLACEMENT_3D ( 'NONE', #425, #714, #636 ) ;
#750 = VERTEX_POINT ( 'NONE', #229 ) ;
#751 = DIRECTION ( 'NONE',  ( 0.3583679495453048758, 0.9335804264972000777, 0.000000000000000000 ) ) ;
#752 = CARTESIAN_POINT ( 'NONE',  ( 0.9534969629434615346, -1.305947982758346004, -1.500000000000000222 ) ) ;
#753 = LINE ( 'NONE', #413, #539 ) ;
#754 = EDGE_CURVE ( 'NONE', #485, #27, #277, .T. ) ;
#755 = CARTESIAN_POINT ( 'NONE',  ( 1.295067010723501166, -0.03454957515741312324, -1.500000000000000222 ) ) ;
#756 = DIRECTION ( 'NONE',  ( -1.365923996832131609E-16, 1.000000000000000000, 0.000000000000000000 ) ) ;
#757 = FACE_BOUND ( 'NONE', #682, .T. ) ;
#758 = EDGE_CURVE ( 'NONE', #377, #485, #819, .T. ) ;
#759 = EDGE_LOOP ( 'NONE', ( #713, #559, #361, #109 ) ) ;
#760 = CARTESIAN_POINT ( 'NONE',  ( 0.000000000000000000, 0.000000000000000000, 1.466666699999999990 ) ) ;
#761 = EDGE_LOOP ( 'NONE', ( #244, #586, #548, #222 ) ) ;
#762 = DIRECTION ( 'NONE',  ( -0.5664062369248310524, 0.8241261886220169197, 0.000000000000000000 ) ) ;
#763 = EDGE_LOOP ( 'NONE', ( #811, #118, #533, #238 ) ) ;
#764 = CARTESIAN_POINT ( 'NONE',  ( 0.5190164772338345944, -0.7551736604049996693, 1.466666699999999990 ) ) ;
#765 = CIRCLE ( 'NONE', #367, 0.7000000000000001776 ) ;
#766 = ORIENTED_EDGE ( 'NONE', *, *, #758, .T. ) ;
#767 = LINE ( 'NONE', #338, #578 ) ;
#768 = ORIENTED_EDGE ( 'NONE', *, *, #754, .F. ) ;
#769 = SURFACE_STYLE_USAGE ( .BOTH. , #486 ) ;
#770 = CARTESIAN_POINT ( 'NONE',  ( 0.5570125970960796424, -0.7290596507229343270, 0.7666667000000000343 ) ) ;
#771 = CARTESIAN_POINT ( 'NONE',  ( 0.7658787693666453400, -1.434894394690922725, 0.7666667000000000343 ) ) ;
#772 = PRODUCT_DEFINITION_SHAPE ( 'NONE', 'NONE',  #664 ) ;
#773 = EDGE_CURVE ( 'NONE', #148, #503, #421, .T. ) ;
#774 = DIRECTION ( 'NONE',  ( 1.000000000000000000, 0.000000000000000000, -0.000000000000000000 ) ) ;
#775 = FACE_OUTER_BOUND ( 'NONE', #175, .T. ) ;
#776 = CARTESIAN_POINT ( 'NONE',  ( 1.307012597096079531, -2.003430258726853097, 1.500000000000000222 ) ) ;
#777 = ORIENTED_EDGE ( 'NONE', *, *, #557, .F. ) ;
#778 = VECTOR ( 'NONE', #544, 39.37007874015748143 ) ;
#779 = AXIS2_PLACEMENT_3D ( 'NONE', #871, #730, #236 ) ;
#780 = DIRECTION ( 'NONE',  ( 0.000000000000000000, 0.000000000000000000, 1.000000000000000000 ) ) ;
#781 = AXIS2_PLACEMENT_3D ( 'NONE', #472, #124, #663 ) ;
#782 = VERTEX_POINT ( 'NONE', #735 ) ;
#783 = ADVANCED_FACE ( 'NONE', ( #174 ), #389, .F. ) ;
#784 = DIRECTION ( 'NONE',  ( -1.000000000000000000, 0.000000000000000000, 0.000000000000000000 ) ) ;
#785 = DIRECTION ( 'NONE',  ( -0.000000000000000000, -0.000000000000000000, 1.000000000000000000 ) ) ;
#786 = VERTEX_POINT ( 'NONE', #743 ) ;
#787 = CARTESIAN_POINT ( 'NONE',  ( -0.1185368388375506177, 0.5080821024766973837, -1.500000000000000222 ) ) ;
#788 = DIRECTION ( 'NONE',  ( 0.000000000000000000, -3.902639990948946962E-16, 1.000000000000000000 ) ) ;
#789 = CARTESIAN_POINT ( 'NONE',  ( 0.3693944035192637254, -0.8580060626555107151, -1.500000000000000222 ) ) ;
#790 = DIRECTION ( 'NONE',  ( 0.9335804264971999666, -0.3583679495453047648, 0.000000000000000000 ) ) ;
#791 = EDGE_LOOP ( 'NONE', ( #3, #662, #491, #591 ) ) ;
#792 = DIRECTION ( 'NONE',  ( 1.000000000000000000, 0.000000000000000000, 0.000000000000000000 ) ) ;
#793 = AXIS2_PLACEMENT_3D ( 'NONE', #881, #802, #307 ) ;
#794 = VECTOR ( 'NONE', #790, 39.37007874015748854 ) ;
#795 = ORIENTED_EDGE ( 'NONE', *, *, #146, .F. ) ;
#796 = ADVANCED_FACE ( 'NONE', ( #101 ), #108, .T. ) ;
#797 = DIRECTION ( 'NONE',  ( 0.8241261886220169197, 0.5664062369248308304, -0.000000000000000000 ) ) ;
#798 = VERTEX_POINT ( 'NONE', #380 ) ;
#799 = FACE_OUTER_BOUND ( 'NONE', #341, .T. ) ;
#800 = CARTESIAN_POINT ( 'NONE',  ( -0.4667902132485999278, 0.6774688454092255840, -1.500000000000000222 ) ) ;
#801 = ORIENTED_EDGE ( 'NONE', *, *, #577, .F. ) ;
#802 = DIRECTION ( 'NONE',  ( -0.000000000000000000, 0.000000000000000000, -1.000000000000000000 ) ) ;
#803 = ORIENTED_EDGE ( 'NONE', *, *, #418, .T. ) ;
#804 = CIRCLE ( 'NONE', #9, 0.7000000000000000666 ) ;
#805 = CARTESIAN_POINT ( 'NONE',  ( 0.1185368388375503124, -1.511512361203550814, 0.7666667000000000343 ) ) ;
#806 = LINE ( 'NONE', #516, #53 ) ;
#807 = ORIENTED_EDGE ( 'NONE', *, *, #563, .F. ) ;
#808 = DIRECTION ( 'NONE',  ( 1.000000000000000000, -1.951319995474473481E-16, 0.000000000000000000 ) ) ;
#809 = FACE_OUTER_BOUND ( 'NONE', #763, .T. ) ;
#810 = EDGE_CURVE ( 'NONE', #782, #446, #228, .T. ) ;
#811 = ORIENTED_EDGE ( 'NONE', *, *, #509, .T. ) ;
#812 = DIRECTION ( 'NONE',  ( -0.9335804264971999666, 0.3583679495453051533, 0.000000000000000000 ) ) ;
#813 = DIRECTION ( 'NONE',  ( 0.000000000000000000, -1.000000000000000000, -1.951319995474473974E-16 ) ) ;
#814 = ORIENTED_EDGE ( 'NONE', *, *, #521, .F. ) ;
#815 = CARTESIAN_POINT ( 'NONE',  ( -1.273679297096079743, 1.000000000000000222, 0.7666667000000000343 ) ) ;
#816 = EDGE_LOOP ( 'NONE', ( #471, #385, #318, #900 ) ) ;
#817 = DIRECTION ( 'NONE',  ( 0.000000000000000000, 0.000000000000000000, 1.000000000000000000 ) ) ;
#818 = AXIS2_PLACEMENT_3D ( 'NONE', #158, #573, #792 ) ;
#819 = CIRCLE ( 'NONE', #511, 0.7000000000000000666 ) ;
#820 = ADVANCED_FACE ( 'NONE', ( #517 ), #652, .F. ) ;
#821 = AXIS2_PLACEMENT_3D ( 'NONE', #43, #117, #33 ) ;
#822 = DIRECTION ( 'NONE',  ( 0.8241261886220169197, 0.5664062369248308304, -0.000000000000000000 ) ) ;
#823 = VECTOR ( 'NONE', #858, 39.37007874015748143 ) ;
#824 = ORIENTED_EDGE ( 'NONE', *, *, #274, .F. ) ;
#825 = CARTESIAN_POINT ( 'NONE',  ( 0.5570125970960796424, -0.5010385254126107357, 0.7666667000000000343 ) ) ;
#826 = DIRECTION ( 'NONE',  ( -0.8241261886220170307, -0.5664062369248308304, 0.000000000000000000 ) ) ;
#827 = EDGE_CURVE ( 'NONE', #562, #196, #650, .T. ) ;
#828 = FACE_OUTER_BOUND ( 'NONE', #407, .T. ) ;
#829 = ORIENTED_EDGE ( 'NONE', *, *, #856, .T. ) ;
#830 = DIRECTION ( 'NONE',  ( -0.8241261886220170307, -0.5664062369248310524, -2.437063772406965704E-16 ) ) ;
#831 = DIRECTION ( 'NONE',  ( 1.000000000000000000, 0.000000000000000000, 1.951319995474473481E-16 ) ) ;
#832 = EDGE_LOOP ( 'NONE', ( #565, #613, #582, #527, #356, #61 ) ) ;
#833 = CARTESIAN_POINT ( 'NONE',  ( 0.4667902132485995392, -1.680899104136079014, -1.500000000000000222 ) ) ;
#834 = ORIENTED_EDGE ( 'NONE', *, *, #146, .T. ) ;
#835 = VECTOR ( 'NONE', #49, 39.37007874015748143 ) ;
#836 = LINE ( 'NONE', #204, #149 ) ;
#837 = AXIS2_PLACEMENT_3D ( 'NONE', #505, #300, #788 ) ;
#838 = ORIENTED_EDGE ( 'NONE', *, *, #604, .T. ) ;
#839 = EDGE_CURVE ( 'NONE', #157, #196, #26, .T. ) ;
#840 = DIRECTION ( 'NONE',  ( 0.000000000000000000, 0.000000000000000000, 1.000000000000000000 ) ) ;
#841 = ORIENTED_EDGE ( 'NONE', *, *, #839, .T. ) ;
#842 = FACE_OUTER_BOUND ( 'NONE', #911, .T. ) ;
#843 = CARTESIAN_POINT ( 'NONE',  ( 0.4667902132485995392, -1.680899104136079014, -1.500000000000000222 ) ) ;
#844 = VERTEX_POINT ( 'NONE', #440 ) ;
#845 = DIRECTION ( 'NONE',  ( -1.000000000000000000, 0.000000000000000000, 0.000000000000000000 ) ) ;
#846 = DIRECTION ( 'NONE',  ( -0.000000000000000000, -1.000000000000000000, -0.000000000000000000 ) ) ;
#847 = EDGE_LOOP ( 'NONE', ( #141, #213, #873, #168 ) ) ;
#848 = ADVANCED_FACE ( 'NONE', ( #506 ), #445, .T. ) ;
#849 = DIRECTION ( 'NONE',  ( -0.9335804264971999666, 0.3583679495453048203, -2.732571230411360022E-16 ) ) ;
#850 = VECTOR ( 'NONE', #93, 39.37007874015748143 ) ;
#851 = AXIS2_PLACEMENT_3D ( 'NONE', #169, #104, #665 ) ;
#852 = DIRECTION ( 'NONE',  ( 0.000000000000000000, -0.000000000000000000, -1.000000000000000000 ) ) ;
#853 = LINE ( 'NONE', #717, #558 ) ;
#854 = ORIENTED_EDGE ( 'NONE', *, *, #252, .T. ) ;
#855 = DIRECTION ( 'NONE',  ( -1.365923996832131609E-16, 1.000000000000000000, -0.000000000000000000 ) ) ;
#856 = EDGE_CURVE ( 'NONE', #677, #786, #293, .T. ) ;
#857 = CARTESIAN_POINT ( 'NONE',  ( -1.273679297096079521, -0.4959939866015180554, -1.500000000000000222 ) ) ;
#858 = DIRECTION ( 'NONE',  ( -1.365923996832132349E-16, -1.000000000000000000, 0.000000000000000000 ) ) ;
#859 = ORIENTED_EDGE ( 'NONE', *, *, #36, .T. ) ;
#860 = CARTESIAN_POINT ( 'NONE',  ( -0.5736792970960795657, -7.836023183893249099E-17, 1.466666699999999990 ) ) ;
#861 = CARTESIAN_POINT ( 'NONE',  ( 0.3693944035192635034, -0.8580060626555107151, 1.466666699999999990 ) ) ;
#862 = LINE ( 'NONE', #488, #69 ) ;
#863 = ORIENTED_EDGE ( 'NONE', *, *, #360, .F. ) ;
#864 = APPLICATION_CONTEXT ( 'automotive_design' ) ;
#865 = AXIS2_PLACEMENT_3D ( 'NONE', #145, #846, #780 ) ;
#866 = AXIS2_PLACEMENT_3D ( 'NONE', #4, #162, #289 ) ;
#867 = VECTOR ( 'NONE', #574, 39.37007874015748854 ) ;
#868 = EDGE_CURVE ( 'NONE', #893, #393, #585, .T. ) ;
#869 = ORIENTED_EDGE ( 'NONE', *, *, #599, .T. ) ;
#870 = EDGE_CURVE ( 'NONE', #529, #446, #514, .T. ) ;
#871 = CARTESIAN_POINT ( 'NONE',  ( -1.307012597096079753, 1.000000000000000222, 1.500000000000000222 ) ) ;
#872 = CARTESIAN_POINT ( 'NONE',  ( -1.307012597096079531, -1.000000000000000222, 1.500000000000000222 ) ) ;
#873 = ORIENTED_EDGE ( 'NONE', *, *, #98, .T. ) ;
#874 = DIRECTION ( 'NONE',  ( 1.000000000000000000, 0.000000000000000000, 0.000000000000000000 ) ) ;
#875 = VERTEX_POINT ( 'NONE', #646 ) ;
#876 = CARTESIAN_POINT ( 'NONE',  ( 1.307012597096079753, -0.003430258726854003900, 1.500000000000000222 ) ) ;
#877 = CARTESIAN_POINT ( 'NONE',  ( -0.05062505278262890290, 0.07365990887574450086, 1.466666699999999990 ) ) ;
#878 = ORIENTED_EDGE ( 'NONE', *, *, #42, .T. ) ;
#879 = ADVANCED_FACE ( 'NONE', ( #301 ), #518, .F. ) ;
#880 = DIRECTION ( 'NONE',  ( -0.3583679495453050423, -0.9335804264971999666, 0.000000000000000000 ) ) ;
#881 = CARTESIAN_POINT ( 'NONE',  ( -0.5736792970960794547, -0.2858253135566442560, 0.7666667000000000343 ) ) ;
#882 = CARTESIAN_POINT ( 'NONE',  ( -0.5736792970960794547, -0.4959939866015181664, 0.7666667000000000343 ) ) ;
#883 =( NAMED_UNIT ( * ) PLANE_ANGLE_UNIT ( ) SI_UNIT ( $, .RADIAN. ) );
#884 = ORIENTED_EDGE ( 'NONE', *, *, #509, .F. ) ;
#885 = AXIS2_PLACEMENT_3D ( 'NONE', #255, #477, #535 ) ;
#886 = LINE ( 'NONE', #333, #165 ) ;
#887 = AXIS2_PLACEMENT_3D ( 'NONE', #19, #308, #751 ) ;
#888 = ORIENTED_EDGE ( 'NONE', *, *, #708, .F. ) ;
#889 = DIRECTION ( 'NONE',  ( -0.8241261886220170307, -0.5664062369248310524, 0.000000000000000000 ) ) ;
#890 =( LENGTH_UNIT ( ) NAMED_UNIT ( * ) SI_UNIT ( $, .METRE. ) );
#891 = PLANE ( 'NONE',  #468 ) ;
#892 = ORIENTED_EDGE ( 'NONE', *, *, #412, .T. ) ;
#893 = VERTEX_POINT ( 'NONE', #522 ) ;
#894 = ADVANCED_FACE ( 'NONE', ( #167 ), #309, .F. ) ;
#895 = PLANE ( 'NONE',  #781 ) ;
#896 = LINE ( 'NONE', #410, #497 ) ;
#897 = ADVANCED_FACE ( 'NONE', ( #382 ), #193, .T. ) ;
#898 = CARTESIAN_POINT ( 'NONE',  ( -0.4667902132485999278, 0.6774688454092255840, -1.500000000000000222 ) ) ;
#899 = DIRECTION ( 'NONE',  ( 0.5664062369248309414, -0.8241261886220170307, 0.000000000000000000 ) ) ;
#900 = ORIENTED_EDGE ( 'NONE', *, *, #482, .T. ) ;
#901 = CARTESIAN_POINT ( 'NONE',  ( 1.307012597096079531, -1.103430258726853186, 1.500000000000000222 ) ) ;
#902 = CIRCLE ( 'NONE', #607, 0.6999999999999999556 ) ;
#903 = VECTOR ( 'NONE', #112, 39.37007874015748854 ) ;
#904 = CARTESIAN_POINT ( 'NONE',  ( 0.4667902132485995392, -1.680899104136079014, 1.500000000000000222 ) ) ;
#905 = VECTOR ( 'NONE', #785, 39.37007874015748143 ) ;
#906 =( CONVERSION_BASED_UNIT ( 'INCH', #323 ) LENGTH_UNIT ( ) NAMED_UNIT ( #6 ) );
#907 = DIRECTION ( 'NONE',  ( -0.9335804264971999666, 0.3583679495453050423, 0.000000000000000000 ) ) ;
#908 = FACE_OUTER_BOUND ( 'NONE', #791, .T. ) ;
#909 = ORIENTED_EDGE ( 'NONE', *, *, #773, .T. ) ;
#910 = DIRECTION ( 'NONE',  ( 0.8241261886220169197, 0.5664062369248307194, -0.000000000000000000 ) ) ;
#911 = EDGE_LOOP ( 'NONE', ( #270, #655, #814, #507 ) ) ;
#912 = CARTESIAN_POINT ( 'NONE',  ( 1.257012597096079709, -0.5010385254126107357, 0.7666667000000000343 ) ) ;
#913 = EDGE_CURVE ( 'NONE', #405, #690, #671, .T. ) ;
#914 = ORIENTED_EDGE ( 'NONE', *, *, #349, .F. ) ;
#915 = CARTESIAN_POINT ( 'NONE',  ( -0.9701636629434612358, 0.2910630184787676988, -1.500000000000000222 ) ) ;
#916 = VERTEX_POINT ( 'NONE', #336 ) ;
#917 = COLOUR_RGB ( '',0.7921568627450980005, 0.8196078431372548767, 0.9333333333333333481 ) ;
#918 = CARTESIAN_POINT ( 'NONE',  ( -1.307012597096079976, 0.09999999999999975575, -1.500000000000000222 ) ) ;
#919 = AXIS2_PLACEMENT_3D ( 'NONE', #789, #439, #95 ) ;
#920 = DIRECTION ( 'NONE',  ( 0.9335804264971999666, -0.3583679495453047648, 0.000000000000000000 ) ) ;
#921 = EDGE_LOOP ( 'NONE', ( #909, #133, #375, #888 ) ) ;
#922 = DIRECTION ( 'NONE',  ( 1.000000000000000000, 0.000000000000000000, 0.000000000000000000 ) ) ;
#923 = CYLINDRICAL_SURFACE ( 'NONE', #498, 0.7000000000000000666 ) ;
ENDSEC;
END-ISO-10303-21;
