ISO-10303-21;
HEADER;
FILE_DESCRIPTION (( 'STEP AP214' ),
    '1' );
FILE_NAME ('LumaBoxV6.STEP',
    '2026-04-14T01:19:57',
    ( '' ),
    ( '' ),
    'SwSTEP 2.0',
    'SolidWorks 2025',
    '' );
FILE_SCHEMA (( 'AUTOMOTIVE_DESIGN' ));
ENDSEC;

DATA;
#1 = EDGE_LOOP ( 'NONE', ( #153, #419, #282, #711 ) ) ;
#2 = ADVANCED_FACE ( 'NONE', ( #18 ), #88, .F. ) ;
#3 =( BOUNDED_CURVE ( )  B_SPLINE_CURVE ( 3, ( #793, #856, #257, #172 ),
 .UNSPECIFIED., .F., .T. ) 
 B_SPLINE_CURVE_WITH_KNOTS ( ( 4, 4 ),
 ( 4.110250388446648806, 4.111032052823890837 ),
 .UNSPECIFIED. ) 
 CURVE ( )  GEOMETRIC_REPRESENTATION_ITEM ( )  RATIONAL_B_SPLINE_CURVE ( ( 1.000000000000000000, 0.9999999490834007299, 0.9999999490834007299, 1.000000000000000000 ) ) 
 REPRESENTATION_ITEM ( '' )  );
#4 = DIRECTION ( 'NONE',  ( -0.9335804264971999666, 0.3583679495453047648, 0.000000000000000000 ) ) ;
#5 = CIRCLE ( 'NONE', #809, 0.7000000000000000666 ) ;
#6 = FACE_OUTER_BOUND ( 'NONE', #562, .T. ) ;
#7 = ORIENTED_EDGE ( 'NONE', *, *, #739, .F. ) ;
#8 = CYLINDRICAL_SURFACE ( 'NONE', #664, 0.7000000000000000666 ) ;
#9 = VERTEX_POINT ( 'NONE', #85 ) ;
#10 = LINE ( 'NONE', #825, #838 ) ;
#11 = CARTESIAN_POINT ( 'NONE',  ( 0.9530459088047732452, -1.506257983679165191, 1.343864773469623408 ) ) ;
#12 = EDGE_CURVE ( 'NONE', #791, #45, #353, .T. ) ;
#13 = ORIENTED_EDGE ( 'NONE', *, *, #142, .T. ) ;
#14 = DIRECTION ( 'NONE',  ( 0.8241261886220169197, 0.5664062369248307194, -0.000000000000000000 ) ) ;
#15 = DIRECTION ( 'NONE',  ( -0.000000000000000000, -0.000000000000000000, 1.000000000000000000 ) ) ;
#16 = AXIS2_PLACEMENT_3D ( 'NONE', #705, #148, #30 ) ;
#17 = CIRCLE ( 'NONE', #131, 0.7000000000000000666 ) ;
#18 = FACE_OUTER_BOUND ( 'NONE', #612, .T. ) ;
#19 = ADVANCED_BREP_SHAPE_REPRESENTATION ( 'LumaBoxV6', ( #214, #656 ), #157 ) ;
#20 = VECTOR ( 'NONE', #15, 39.37007874015748143 ) ;
#21 = DIRECTION ( 'NONE',  ( 1.000000000000000000, 0.000000000000000000, -0.000000000000000000 ) ) ;
#22 = CARTESIAN_POINT ( 'NONE',  ( -0.9525948546660856220, 0.5031377258731303259, 1.466666700000000212 ) ) ;
#23 = EDGE_LOOP ( 'NONE', ( #108, #29, #225, #356 ) ) ;
#24 = PRODUCT_RELATED_PRODUCT_CATEGORY ( 'part', '', ( #266 ) ) ;
#25 = LINE ( 'NONE', #625, #116 ) ;
#26 = CYLINDRICAL_SURFACE ( 'NONE', #133, 0.7000000000000000666 ) ;
#27 = ORIENTED_EDGE ( 'NONE', *, *, #622, .F. ) ;
#28 = EDGE_CURVE ( 'NONE', #55, #859, #770, .T. ) ;
#29 = ORIENTED_EDGE ( 'NONE', *, *, #239, .F. ) ;
#30 = DIRECTION ( 'NONE',  ( 1.000000000000000000, 0.000000000000000000, 0.000000000000000000 ) ) ;
#31 = DIRECTION ( 'NONE',  ( 1.000000000000000000, 0.000000000000000000, -0.000000000000000000 ) ) ;
#32 = DIRECTION ( 'NONE',  ( -0.000000000000000000, -0.000000000000000000, 1.000000000000000000 ) ) ;
#33 = ORIENTED_EDGE ( 'NONE', *, *, #479, .T. ) ;
#34 = AXIS2_PLACEMENT_3D ( 'NONE', #756, #144, #806 ) ;
#35 = CYLINDRICAL_SURFACE ( 'NONE', #630, 0.7000000000000000666 ) ;
#36 = ORIENTED_EDGE ( 'NONE', *, *, #350, .F. ) ;
#37 = VERTEX_POINT ( 'NONE', #361 ) ;
#38 = CARTESIAN_POINT ( 'NONE',  ( -1.273679297096079743, 1.000000000000000222, 0.7666667000000000343 ) ) ;
#39 = EDGE_CURVE ( 'NONE', #158, #77, #744, .T. ) ;
#40 = DIRECTION ( 'NONE',  ( -0.8241261886220169197, -0.5664062369248307194, 0.000000000000000000 ) ) ;
#41 = CARTESIAN_POINT ( 'NONE',  ( -1.295067010723500944, -0.9688806835694409036, 0.7666667000000000343 ) ) ;
#42 = LINE ( 'NONE', #109, #730 ) ;
#43 = CARTESIAN_POINT ( 'NONE',  ( 0.9534969629434612015, -1.505947982758346182, 1.343555032035411934 ) ) ;
#44 = CARTESIAN_POINT ( 'NONE',  ( -1.273679297096079521, -0.08582531355664405059, -1.500000000000000222 ) ) ;
#45 = VERTEX_POINT ( 'NONE', #365 ) ;
#46 = DIRECTION ( 'NONE',  ( -1.365923996832132349E-16, -1.000000000000000000, 0.000000000000000000 ) ) ;
#47 = DIRECTION ( 'NONE',  ( 0.000000000000000000, 0.000000000000000000, 1.000000000000000000 ) ) ;
#48 = DIRECTION ( 'NONE',  ( -0.000000000000000000, -0.000000000000000000, -1.000000000000000000 ) ) ;
#49 = VECTOR ( 'NONE', #351, 39.37007874015748143 ) ;
#50 = ORIENTED_EDGE ( 'NONE', *, *, #184, .T. ) ;
#51 = EDGE_CURVE ( 'NONE', #45, #584, #192, .T. ) ;
#52 =( NAMED_UNIT ( * ) PLANE_ANGLE_UNIT ( ) SI_UNIT ( $, .RADIAN. ) );
#53 = LINE ( 'NONE', #599, #228 ) ;
#54 = CARTESIAN_POINT ( 'NONE',  ( 0.5570125970960796424, -0.9290596507229340606, 1.500000000000000222 ) ) ;
#55 = VERTEX_POINT ( 'NONE', #308 ) ;
#56 = ADVANCED_FACE ( 'NONE', ( #258 ), #600, .F. ) ;
#57 = PRODUCT_DEFINITION_CONTEXT ( 'detailed design', #461, 'design' ) ;
#58 = SPHERICAL_SURFACE ( 'NONE', #844, 0.7000000000000000666 ) ;
#59 = PLANE ( 'NONE',  #401 ) ;
#60 = EDGE_LOOP ( 'NONE', ( #422, #866, #433, #128, #206, #318 ) ) ;
#61 = DIRECTION ( 'NONE',  ( 0.000000000000000000, -3.902639990948946962E-16, 1.000000000000000000 ) ) ;
#62 = AXIS2_PLACEMENT_3D ( 'NONE', #209, #70, #474 ) ;
#63 = PRESENTATION_LAYER_ASSIGNMENT (  '', '', ( #759 ) ) ;
#64 = FACE_OUTER_BOUND ( 'NONE', #215, .T. ) ;
#65 = ADVANCED_FACE ( 'NONE', ( #529 ), #59, .T. ) ;
#66 = ORIENTED_EDGE ( 'NONE', *, *, #712, .T. ) ;
#67 = CARTESIAN_POINT ( 'NONE',  ( -0.5736792970960794547, -0.4959939866015179999, 0.7666667000000000343 ) ) ;
#68 = VERTEX_POINT ( 'NONE', #532 ) ;
#69 = DIRECTION ( 'NONE',  ( -0.5664062369248307194, 0.8241261886220170307, 0.000000000000000000 ) ) ;
#70 = DIRECTION ( 'NONE',  ( 0.5664062369248308304, -0.8241261886220170307, 0.000000000000000000 ) ) ;
#71 = ORIENTED_EDGE ( 'NONE', *, *, #739, .T. ) ;
#72 = ADVANCED_FACE ( 'NONE', ( #519 ), #449, .F. ) ;
#73 = DIRECTION ( 'NONE',  ( 0.9335804264971999666, -0.3583679495453047648, 0.000000000000000000 ) ) ;
#74 = AXIS2_PLACEMENT_3D ( 'NONE', #300, #508, #573 ) ;
#75 = AXIS2_PLACEMENT_3D ( 'NONE', #79, #473, #4 ) ;
#76 = CARTESIAN_POINT ( 'NONE',  ( -0.5736792970960794547, -0.4959939866015179999, 1.500000000000000222 ) ) ;
#77 = VERTEX_POINT ( 'NONE', #44 ) ;
#78 = EDGE_CURVE ( 'NONE', #408, #180, #17, .T. ) ;
#79 = CARTESIAN_POINT ( 'NONE',  ( -1.295067010723500944, -0.9688806835694409036, 1.500000000000000222 ) ) ;
#80 = DIRECTION ( 'NONE',  ( 1.000000000000000000, 0.000000000000000000, 0.000000000000000000 ) ) ;
#81 = ORIENTED_EDGE ( 'NONE', *, *, #464, .F. ) ;
#82 = EDGE_CURVE ( 'NONE', #77, #452, #326, .T. ) ;
#83 = LINE ( 'NONE', #86, #617 ) ;
#84 = LINE ( 'NONE', #701, #49 ) ;
#85 = CARTESIAN_POINT ( 'NONE',  ( -0.9701636629434610137, 0.4910630184787678765, 0.7666667000000000343 ) ) ;
#86 = CARTESIAN_POINT ( 'NONE',  ( 1.295067010723501166, -0.03454957515741312324, -1.500000000000000222 ) ) ;
#87 = LINE ( 'NONE', #293, #632 ) ;
#88 = SPHERICAL_SURFACE ( 'NONE', #74, 0.7000000000000000666 ) ;
#89 = ORIENTED_EDGE ( 'NONE', *, *, #752, .T. ) ;
#90 = DIRECTION ( 'NONE',  ( -0.9335804264971999666, 0.3583679495453050423, 0.000000000000000000 ) ) ;
#91 = CARTESIAN_POINT ( 'NONE',  ( -1.273679297096079743, 1.000000000000000222, -1.500000000000000222 ) ) ;
#92 = EDGE_CURVE ( 'NONE', #45, #609, #482, .T. ) ;
#93 = ORIENTED_EDGE ( 'NONE', *, *, #578, .T. ) ;
#94 = LINE ( 'NONE', #569, #685 ) ;
#95 = CARTESIAN_POINT ( 'NONE',  ( 1.257012597096079709, -0.5010385254126107357, 0.7666667000000000343 ) ) ;
#96 = ORIENTED_EDGE ( 'NONE', *, *, #51, .T. ) ;
#97 = FACE_OUTER_BOUND ( 'NONE', #381, .T. ) ;
#98 = ORIENTED_EDGE ( 'NONE', *, *, #464, .T. ) ;
#99 = AXIS2_PLACEMENT_3D ( 'NONE', #182, #862, #384 ) ;
#100 = CARTESIAN_POINT ( 'NONE',  ( 1.257012597096079487, -2.003430258726853097, 1.500000000000000222 ) ) ;
#101 = EDGE_CURVE ( 'NONE', #438, #37, #662, .T. ) ;
#102 = DIRECTION ( 'NONE',  ( -0.000000000000000000, 0.000000000000000000, -1.000000000000000000 ) ) ;
#103 = DIRECTION ( 'NONE',  ( 0.9335804264971999666, -0.3583679495453047648, 0.000000000000000000 ) ) ;
#104 = EDGE_LOOP ( 'NONE', ( #386, #833, #558, #549 ) ) ;
#105 = CARTESIAN_POINT ( 'NONE',  ( -1.307012597096079531, -1.000000000000000222, -1.500000000000000222 ) ) ;
#106 = CARTESIAN_POINT ( 'NONE',  ( 1.307012597096079753, -0.003430258726854003900, 1.500000000000000222 ) ) ;
#107 = DIRECTION ( 'NONE',  ( 0.000000000000000000, 0.000000000000000000, -1.000000000000000000 ) ) ;
#108 = ORIENTED_EDGE ( 'NONE', *, *, #670, .T. ) ;
#109 = CARTESIAN_POINT ( 'NONE',  ( -1.307012597096079531, -1.000000000000000222, 1.500000000000000222 ) ) ;
#110 = DIRECTION ( 'NONE',  ( -1.365923996832131609E-16, 1.000000000000000000, 0.000000000000000000 ) ) ;
#111 = CARTESIAN_POINT ( 'NONE',  ( 1.295067010723501166, -0.03454957515741312324, 0.7666667000000000343 ) ) ;
#112 = ORIENTED_EDGE ( 'NONE', *, *, #851, .F. ) ;
#113 = VECTOR ( 'NONE', #149, 39.37007874015748143 ) ;
#114 = AXIS2_PLACEMENT_3D ( 'NONE', #871, #262, #179 ) ;
#115 = DIMENSIONAL_EXPONENTS ( 1.000000000000000000, 0.000000000000000000, 0.000000000000000000, 0.000000000000000000, 0.000000000000000000, 0.000000000000000000, 0.000000000000000000 ) ;
#116 = VECTOR ( 'NONE', #14, 39.37007874015748854 ) ;
#117 = DIRECTION ( 'NONE',  ( -1.000000000000000000, 1.365923996832132349E-16, 0.000000000000000000 ) ) ;
#118 = COLOUR_RGB ( '',0.7921568627450980005, 0.8196078431372548767, 0.9333333333333333481 ) ;
#119 = DIRECTION ( 'NONE',  ( -0.8241261886220169197, -0.5664062369248307194, 0.000000000000000000 ) ) ;
#120 = CYLINDRICAL_SURFACE ( 'NONE', #496, 0.7000000000000000666 ) ;
#121 = ADVANCED_FACE ( 'NONE', ( #604 ), #120, .F. ) ;
#122 = ORIENTED_EDGE ( 'NONE', *, *, #696, .F. ) ;
#123 = DIRECTION ( 'NONE',  ( 0.3583679495453048203, 0.9335804264972000777, -0.000000000000000000 ) ) ;
#124 = DIRECTION ( 'NONE',  ( -0.9335804264971999666, 0.3583679495453050423, 0.000000000000000000 ) ) ;
#125 = ORIENTED_EDGE ( 'NONE', *, *, #451, .F. ) ;
#126 = DIRECTION ( 'NONE',  ( 0.9335804264971999666, -0.3583679495453051533, -0.000000000000000000 ) ) ;
#127 = LINE ( 'NONE', #688, #330 ) ;
#128 = ORIENTED_EDGE ( 'NONE', *, *, #479, .F. ) ;
#129 = AXIS2_PLACEMENT_3D ( 'NONE', #232, #839, #21 ) ;
#130 = ADVANCED_FACE ( 'NONE', ( #311 ), #790, .F. ) ;
#131 = AXIS2_PLACEMENT_3D ( 'NONE', #515, #736, #802 ) ;
#132 = CARTESIAN_POINT ( 'NONE',  ( 0.5561104888187035078, -0.9296796525645715237, -1.500000000000000222 ) ) ;
#133 = AXIS2_PLACEMENT_3D ( 'NONE', #841, #635, #355 ) ;
#134 =( NAMED_UNIT ( * ) PLANE_ANGLE_UNIT ( ) SI_UNIT ( $, .RADIAN. ) );
#135 = ORIENTED_EDGE ( 'NONE', *, *, #734, .T. ) ;
#136 = LINE ( 'NONE', #678, #217 ) ;
#137 = DIRECTION ( 'NONE',  ( -1.365923996832131609E-16, 1.000000000000000000, -0.000000000000000000 ) ) ;
#138 = ORIENTED_EDGE ( 'NONE', *, *, #325, .F. ) ;
#139 = DIRECTION ( 'NONE',  ( 0.000000000000000000, 0.000000000000000000, 1.000000000000000000 ) ) ;
#140 = CARTESIAN_POINT ( 'NONE',  ( 0.9534969629434612015, -1.505947982758346182, 1.343555032035411934 ) ) ;
#141 = ORIENTED_EDGE ( 'NONE', *, *, #723, .F. ) ;
#142 = EDGE_CURVE ( 'NONE', #45, #616, #714, .T. ) ;
#143 = DIRECTION ( 'NONE',  ( 1.365923996832131609E-16, -1.000000000000000000, 0.000000000000000000 ) ) ;
#144 = DIRECTION ( 'NONE',  ( 0.000000000000000000, 0.000000000000000000, -1.000000000000000000 ) ) ;
#145 = ORIENTED_EDGE ( 'NONE', *, *, #142, .F. ) ;
#146 = EDGE_CURVE ( 'NONE', #859, #795, #850, .T. ) ;
#147 = VECTOR ( 'NONE', #331, 39.37007874015748143 ) ;
#148 = DIRECTION ( 'NONE',  ( 0.000000000000000000, 0.000000000000000000, 1.000000000000000000 ) ) ;
#149 = DIRECTION ( 'NONE',  ( 1.365923996832132349E-16, 1.000000000000000000, -0.000000000000000000 ) ) ;
#150 = ORIENTED_EDGE ( 'NONE', *, *, #277, .T. ) ;
#151 = CARTESIAN_POINT ( 'NONE',  ( 1.307012597096079753, -0.003430258726854003900, -1.500000000000000222 ) ) ;
#152 = DIRECTION ( 'NONE',  ( -0.5664062369248308304, 0.8241261886220170307, 0.000000000000000000 ) ) ;
#153 = ORIENTED_EDGE ( 'NONE', *, *, #680, .F. ) ;
#154 = CARTESIAN_POINT ( 'NONE',  ( 1.307012597096079531, -2.003430258726853097, -1.500000000000000222 ) ) ;
#155 = EDGE_CURVE ( 'NONE', #9, #158, #658, .T. ) ;
#156 = DIRECTION ( 'NONE',  ( -0.8241261886220169197, -0.5664062369248307194, 0.000000000000000000 ) ) ;
#157 =( GEOMETRIC_REPRESENTATION_CONTEXT ( 3 ) GLOBAL_UNCERTAINTY_ASSIGNED_CONTEXT ( ( #329 ) ) GLOBAL_UNIT_ASSIGNED_CONTEXT ( ( #660, #52, #722 ) ) REPRESENTATION_CONTEXT ( 'NONE', 'WORKASPACE' ) );
#158 = VERTEX_POINT ( 'NONE', #650 ) ;
#159 = ORIENTED_EDGE ( 'NONE', *, *, #440, .F. ) ;
#160 = DIRECTION ( 'NONE',  ( 0.000000000000000000, 0.000000000000000000, -1.000000000000000000 ) ) ;
#161 = CIRCLE ( 'NONE', #207, 0.7000000000000001776 ) ;
#162 = DIRECTION ( 'NONE',  ( -0.5664062369248306084, 0.8241261886220171418, 9.756599977372366665E-16 ) ) ;
#163 = VERTEX_POINT ( 'NONE', #244 ) ;
#164 = AXIS2_PLACEMENT_3D ( 'NONE', #238, #178, #507 ) ;
#165 = ORIENTED_EDGE ( 'NONE', *, *, #451, .T. ) ;
#166 = CARTESIAN_POINT ( 'NONE',  ( 0.5570125970960797535, -7.608368729113234649E-17, 1.466666699999999990 ) ) ;
#167 = LINE ( 'NONE', #91, #383 ) ;
#168 = ORIENTED_EDGE ( 'NONE', *, *, #78, .F. ) ;
#169 = EDGE_CURVE ( 'NONE', #280, #446, #544, .T. ) ;
#170 = ADVANCED_FACE ( 'NONE', ( #442 ), #524, .F. ) ;
#171 = CARTESIAN_POINT ( 'NONE',  ( 1.307012597096079531, -2.003430258726853097, 1.500000000000000222 ) ) ;
#172 = CARTESIAN_POINT ( 'NONE',  ( 0.9530459088047732452, -1.506257983679165191, 1.343864773469623408 ) ) ;
#173 = ORIENTED_EDGE ( 'NONE', *, *, #39, .F. ) ;
#174 = VECTOR ( 'NONE', #702, 39.37007874015748143 ) ;
#175 = ORIENTED_EDGE ( 'NONE', *, *, #155, .F. ) ;
#176 = VECTOR ( 'NONE', #478, 39.37007874015748143 ) ;
#177 = LENGTH_MEASURE_WITH_UNIT ( LENGTH_MEASURE( 0.02539999999999999897 ), #388 );
#178 = DIRECTION ( 'NONE',  ( 0.5664062369248308304, -0.8241261886220170307, 0.000000000000000000 ) ) ;
#179 = DIRECTION ( 'NONE',  ( -1.000000000000000000, 0.000000000000000000, 0.000000000000000000 ) ) ;
#180 = VERTEX_POINT ( 'NONE', #254 ) ;
#181 = CARTESIAN_POINT ( 'NONE',  ( 0.000000000000000000, 0.000000000000000000, -1.500000000000000222 ) ) ;
#182 = CARTESIAN_POINT ( 'NONE',  ( -0.5736792970960794547, -0.4959939866015182774, 0.7666667000000000343 ) ) ;
#183 = ORIENTED_EDGE ( 'NONE', *, *, #101, .T. ) ;
#184 = EDGE_CURVE ( 'NONE', #37, #823, #538, .T. ) ;
#185 = LINE ( 'NONE', #448, #837 ) ;
#186 = DIRECTION ( 'NONE',  ( -0.3583679495453050423, -0.9335804264971999666, 0.000000000000000000 ) ) ;
#187 = ORIENTED_EDGE ( 'NONE', *, *, #648, .F. ) ;
#188 = AXIS2_PLACEMENT_3D ( 'NONE', #435, #31, #218 ) ;
#189 = AXIS2_PLACEMENT_3D ( 'NONE', #740, #755, #337 ) ;
#190 = APPLICATION_PROTOCOL_DEFINITION ( 'draft international standard', 'automotive_design', 1998, #461 ) ;
#191 = PLANE ( 'NONE',  #545 ) ;
#192 = LINE ( 'NONE', #41, #868 ) ;
#193 = ORIENTED_EDGE ( 'NONE', *, *, #247, .T. ) ;
#194 = CIRCLE ( 'NONE', #690, 0.7000000000000001776 ) ;
#195 = CARTESIAN_POINT ( 'NONE',  ( -0.1439830954323489953, 0.2094967038302751328, 0.7666667000000000343 ) ) ;
#196 = CARTESIAN_POINT ( 'NONE',  ( -1.307012597096079531, -1.000000000000000222, -1.500000000000000222 ) ) ;
#197 = ORIENTED_EDGE ( 'NONE', *, *, #392, .T. ) ;
#198 = ADVANCED_FACE ( 'NONE', ( #64 ), #877, .F. ) ;
#199 = EDGE_CURVE ( 'NONE', #391, #624, #571, .T. ) ;
#200 = LINE ( 'NONE', #743, #593 ) ;
#201 = CARTESIAN_POINT ( 'NONE',  ( -0.5736792970960795657, -7.836023183893249099E-17, 1.466666699999999990 ) ) ;
#202 = ORIENTED_EDGE ( 'NONE', *, *, #82, .F. ) ;
#203 = AXIS2_PLACEMENT_3D ( 'NONE', #288, #760, #497 ) ;
#204 = FACE_OUTER_BOUND ( 'NONE', #60, .T. ) ;
#205 = SURFACE_STYLE_USAGE ( .BOTH. , #413 ) ;
#206 = ORIENTED_EDGE ( 'NONE', *, *, #799, .T. ) ;
#207 = AXIS2_PLACEMENT_3D ( 'NONE', #561, #220, #162 ) ;
#208 = CARTESIAN_POINT ( 'NONE',  ( 1.307012597096079531, -2.003430258726853097, 1.500000000000000222 ) ) ;
#209 = CARTESIAN_POINT ( 'NONE',  ( -0.6346261095307534905, 0.7216715898350922753, -1.500000000000000222 ) ) ;
#210 = ORIENTED_EDGE ( 'NONE', *, *, #703, .F. ) ;
#211 = DIRECTION ( 'NONE',  ( 0.8241261886220170307, 0.5664062369248308304, -0.000000000000000000 ) ) ;
#212 = EDGE_CURVE ( 'NONE', #609, #490, #332, .T. ) ;
#213 = CARTESIAN_POINT ( 'NONE',  ( 0.9525948546660852889, -1.506567984599983534, 1.466666700000000212 ) ) ;
#214 = MANIFOLD_SOLID_BREP ( 'Fillet1', #260 ) ;
#215 = EDGE_LOOP ( 'NONE', ( #173, #175, #138, #202 ) ) ;
#216 = LINE ( 'NONE', #359, #785 ) ;
#217 = VECTOR ( 'NONE', #747, 39.37007874015748854 ) ;
#218 = DIRECTION ( 'NONE',  ( 0.000000000000000000, -1.000000000000000000, 0.000000000000000000 ) ) ;
#219 = EDGE_LOOP ( 'NONE', ( #646, #339, #847, #659 ) ) ;
#220 = DIRECTION ( 'NONE',  ( -0.8241261886220172528, -0.5664062369248308304, -1.771151794039920305E-16 ) ) ;
#221 = ORIENTED_EDGE ( 'NONE', *, *, #169, .F. ) ;
#222 = ORIENTED_EDGE ( 'NONE', *, *, #82, .T. ) ;
#223 = CARTESIAN_POINT ( 'NONE',  ( 0.8355669933313656372, -1.335325100986708646, 1.424470662659806264 ) ) ;
#224 = LINE ( 'NONE', #421, #20 ) ;
#225 = ORIENTED_EDGE ( 'NONE', *, *, #475, .F. ) ;
#226 = CARTESIAN_POINT ( 'NONE',  ( 0.5570125970960796424, -0.5010385254126108467, 0.7666667000000000343 ) ) ;
#227 = DIRECTION ( 'NONE',  ( 0.000000000000000000, 0.000000000000000000, -1.000000000000000000 ) ) ;
#228 = VECTOR ( 'NONE', #652, 39.37007874015748854 ) ;
#229 = VECTOR ( 'NONE', #48, 39.37007874015748143 ) ;
#230 = CIRCLE ( 'NONE', #16, 0.7000000000000001776 ) ;
#231 = DIRECTION ( 'NONE',  ( 1.000000000000000000, 0.000000000000000000, 0.000000000000000000 ) ) ;
#232 = CARTESIAN_POINT ( 'NONE',  ( 0.000000000000000000, 0.000000000000000000, 1.466666699999999990 ) ) ;
#233 = DIRECTION ( 'NONE',  ( 0.8241261886220169197, 0.5664062369248307194, -0.000000000000000000 ) ) ;
#234 = ADVANCED_FACE ( 'NONE', ( #749 ), #407, .T. ) ;
#235 = VERTEX_POINT ( 'NONE', #553 ) ;
#236 = EDGE_LOOP ( 'NONE', ( #305, #641, #112, #459 ) ) ;
#237 = CARTESIAN_POINT ( 'NONE',  ( -0.3052529241369908442, 0.5797556923857585254, -1.500000000000000222 ) ) ;
#238 = CARTESIAN_POINT ( 'NONE',  ( -0.6535062985480399878, 0.7491424353182866147, -1.500000000000000222 ) ) ;
#239 = EDGE_CURVE ( 'NONE', #807, #180, #127, .T. ) ;
#240 = ORIENTED_EDGE ( 'NONE', *, *, #668, .T. ) ;
#241 = EDGE_LOOP ( 'NONE', ( #414, #240, #476, #291, #93, #348 ) ) ;
#242 = CARTESIAN_POINT ( 'NONE',  ( -0.9525948546660856220, 0.5031377258731303259, -1.500000000000000222 ) ) ;
#243 = CARTESIAN_POINT ( 'NONE',  ( 0.8078701617777932498, 0.1524677731354291410, 1.466666699999999990 ) ) ;
#244 = CARTESIAN_POINT ( 'NONE',  ( 1.307012597096079531, -1.303430258726853141, -1.500000000000000222 ) ) ;
#245 = VECTOR ( 'NONE', #732, 39.37007874015748143 ) ;
#246 = ORIENTED_EDGE ( 'NONE', *, *, #797, .F. ) ;
#247 = EDGE_CURVE ( 'NONE', #584, #818, #676, .T. ) ;
#248 = DIRECTION ( 'NONE',  ( 1.000000000000000000, 0.000000000000000000, -0.000000000000000000 ) ) ;
#249 = CARTESIAN_POINT ( 'NONE',  ( 0.9534969629434612015, -1.505947982758346182, 1.343555032035411934 ) ) ;
#250 = ORIENTED_EDGE ( 'NONE', *, *, #680, .T. ) ;
#251 = ADVANCED_FACE ( 'NONE', ( #6 ), #466, .F. ) ;
#252 = CARTESIAN_POINT ( 'NONE',  ( -0.6535062985480399878, 0.7491424353182866147, -1.500000000000000222 ) ) ;
#253 = CARTESIAN_POINT ( 'NONE',  ( 0.9525948546660852889, -1.506567984599983534, 1.343555032035412156 ) ) ;
#254 = CARTESIAN_POINT ( 'NONE',  ( 0.5570125970960796424, -0.5010385254126107357, 1.466666699999999990 ) ) ;
#255 = VECTOR ( 'NONE', #513, 39.37007874015748143 ) ;
#256 = VERTEX_POINT ( 'NONE', #338 ) ;
#257 = CARTESIAN_POINT ( 'NONE',  ( 0.9528955170767293703, -1.506361345050180711, 1.343761585089674693 ) ) ;
#258 = FACE_OUTER_BOUND ( 'NONE', #23, .T. ) ;
#259 = ORIENTED_EDGE ( 'NONE', *, *, #403, .T. ) ;
#260 = CLOSED_SHELL ( 'NONE', ( #72, #431, #511, #869, #65, #499, #522, #366, #563, #763, #642, #803, #686, #234, #416, #251, #297, #481, #618, #121, #198, #548, #313, #130, #2, #170, #552, #56, #406, #812 ) ) ;
#261 = LINE ( 'NONE', #274, #468 ) ;
#262 = DIRECTION ( 'NONE',  ( -0.000000000000000000, 0.000000000000000000, -1.000000000000000000 ) ) ;
#263 = EDGE_CURVE ( 'NONE', #395, #446, #550, .T. ) ;
#264 = VECTOR ( 'NONE', #270, 39.37007874015748143 ) ;
#265 = ORIENTED_EDGE ( 'NONE', *, *, #840, .T. ) ;
#266 = PRODUCT ( 'LumaBoxV6', 'LumaBoxV6', '', ( #526 ) ) ;
#267 = DIRECTION ( 'NONE',  ( 1.000000000000000000, 0.000000000000000000, 0.000000000000000000 ) ) ;
#268 = DIRECTION ( 'NONE',  ( 1.000000000000000000, 0.000000000000000000, 0.000000000000000000 ) ) ;
#269 = VERTEX_POINT ( 'NONE', #547 ) ;
#270 = DIRECTION ( 'NONE',  ( 1.365923996832131609E-16, -1.000000000000000000, 0.000000000000000000 ) ) ;
#271 = LENGTH_MEASURE_WITH_UNIT ( LENGTH_MEASURE( 0.02539999999999999897 ), #620 );
#272 = ORIENTED_EDGE ( 'NONE', *, *, #527, .T. ) ;
#273 = VECTOR ( 'NONE', #363, 39.37007874015748143 ) ;
#274 = CARTESIAN_POINT ( 'NONE',  ( -0.6346261095307534905, 0.7216715898350922753, 0.7666667000000001453 ) ) ;
#275 = CARTESIAN_POINT ( 'NONE',  ( 0.9531963005328162319, -1.506154622308149449, 1.343761585089674915 ) ) ;
#276 = EDGE_LOOP ( 'NONE', ( #369, #81, #221, #771 ) ) ;
#277 = EDGE_CURVE ( 'NONE', #491, #463, #614, .T. ) ;
#278 = DIRECTION ( 'NONE',  ( 0.9335804264971999666, -0.3583679495453050423, 0.000000000000000000 ) ) ;
#279 = CARTESIAN_POINT ( 'NONE',  ( 0.9533466519200347600, -1.506051288662614951, 1.343658337939680925 ) ) ;
#280 = VERTEX_POINT ( 'NONE', #504 ) ;
#281 = CARTESIAN_POINT ( 'NONE',  ( 0.6994857698443135430, -1.137325692180254366, 1.466666699999999990 ) ) ;
#282 = ORIENTED_EDGE ( 'NONE', *, *, #559, .T. ) ;
#283 = DIRECTION ( 'NONE',  ( -0.8241261886220169197, -0.5664062369248307194, -0.000000000000000000 ) ) ;
#284 = VECTOR ( 'NONE', #160, 39.37007874015748143 ) ;
#285 = PLANE ( 'NONE',  #471 ) ;
#286 = EDGE_CURVE ( 'NONE', #487, #68, #224, .T. ) ;
#287 = CARTESIAN_POINT ( 'NONE',  ( -0.8245368617777929510, -1.149500285149558376, 1.466666699999999990 ) ) ;
#288 = CARTESIAN_POINT ( 'NONE',  ( -0.5736792970960794547, -0.4959939866015179999, -1.500000000000000222 ) ) ;
#289 = CARTESIAN_POINT ( 'NONE',  ( 0.6535062985480396547, -1.752572694045139823, -1.500000000000000222 ) ) ;
#290 = ORIENTED_EDGE ( 'NONE', *, *, #199, .F. ) ;
#291 = ORIENTED_EDGE ( 'NONE', *, *, #774, .F. ) ;
#292 = CARTESIAN_POINT ( 'NONE',  ( 0.9530459088047732452, -1.506257983679165191, 1.343864773469623408 ) ) ;
#293 = CARTESIAN_POINT ( 'NONE',  ( 1.307012597096079753, -0.003430258726854003900, -1.500000000000000222 ) ) ;
#294 = ORIENTED_EDGE ( 'NONE', *, *, #378, .F. ) ;
#295 = ORIENTED_EDGE ( 'NONE', *, *, #670, .F. ) ;
#296 = DIRECTION ( 'NONE',  ( -0.000000000000000000, -0.000000000000000000, -1.000000000000000000 ) ) ;
#297 = ADVANCED_FACE ( 'NONE', ( #769 ), #35, .F. ) ;
#298 = DIRECTION ( 'NONE',  ( 0.000000000000000000, 0.000000000000000000, -1.000000000000000000 ) ) ;
#299 = CIRCLE ( 'NONE', #203, 0.7000000000000000666 ) ;
#300 = CARTESIAN_POINT ( 'NONE',  ( -0.5736792970960795657, -0.08582531355664418937, 0.7666667000000000343 ) ) ;
#301 = LINE ( 'NONE', #38, #400 ) ;
#302 = EDGE_CURVE ( 'NONE', #872, #410, #572, .T. ) ;
#303 = FACE_OUTER_BOUND ( 'NONE', #574, .T. ) ;
#304 = EDGE_LOOP ( 'NONE', ( #125, #89, #800, #684, #621, #250, #294, #357, #259, #539, #766, #443 ) ) ;
#305 = ORIENTED_EDGE ( 'NONE', *, *, #643, .T. ) ;
#306 = DIRECTION ( 'NONE',  ( 1.000000000000000000, -3.170894992646019561E-16, 0.000000000000000000 ) ) ;
#307 = CARTESIAN_POINT ( 'NONE',  ( -0.5561104888187039519, -0.07375060616228161503, 0.7666667000000000343 ) ) ;
#308 = CARTESIAN_POINT ( 'NONE',  ( -1.307012597096079753, 0.3000000000000000999, -1.500000000000000222 ) ) ;
#309 = DIRECTION ( 'NONE',  ( -0.000000000000000000, -0.000000000000000000, -1.000000000000000000 ) ) ;
#310 = AXIS2_PLACEMENT_3D ( 'NONE', #765, #152, #119 ) ;
#311 = FACE_OUTER_BOUND ( 'NONE', #754, .T. ) ;
#312 = VECTOR ( 'NONE', #349, 39.37007874015748143 ) ;
#313 = ADVANCED_FACE ( 'NONE', ( #97 ), #26, .F. ) ;
#314 = ORIENTED_EDGE ( 'NONE', *, *, #779, .T. ) ;
#315 = LINE ( 'NONE', #252, #512 ) ;
#316 = CARTESIAN_POINT ( 'NONE',  ( 1.307012597096079753, -0.003430258726854003900, 1.500000000000000222 ) ) ;
#317 = DIRECTION ( 'NONE',  ( 0.000000000000000000, 0.000000000000000000, 1.000000000000000000 ) ) ;
#318 = ORIENTED_EDGE ( 'NONE', *, *, #51, .F. ) ;
#319 = AXIS2_PLACEMENT_3D ( 'NONE', #181, #47, #248 ) ;
#320 = DIRECTION ( 'NONE',  ( 0.000000000000000000, 0.000000000000000000, 1.000000000000000000 ) ) ;
#321 = FACE_OUTER_BOUND ( 'NONE', #677, .T. ) ;
#322 = DIRECTION ( 'NONE',  ( 0.000000000000000000, 0.000000000000000000, 1.000000000000000000 ) ) ;
#323 = ORIENTED_EDGE ( 'NONE', *, *, #286, .T. ) ;
#324 = PLANE ( 'NONE',  #164 ) ;
#325 = EDGE_CURVE ( 'NONE', #452, #9, #745, .T. ) ;
#326 = LINE ( 'NONE', #798, #245 ) ;
#327 = ORIENTED_EDGE ( 'NONE', *, *, #708, .T. ) ;
#328 = CIRCLE ( 'NONE', #628, 0.7000000000000000666 ) ;
#329 = UNCERTAINTY_MEASURE_WITH_UNIT (LENGTH_MEASURE( 1.000000000000000082E-05 ), #660, 'distance_accuracy_value', 'NONE');
#330 = VECTOR ( 'NONE', #611, 39.37007874015748143 ) ;
#331 = DIRECTION ( 'NONE',  ( -0.000000000000000000, -0.000000000000000000, 1.000000000000000000 ) ) ;
#332 = LINE ( 'NONE', #201, #500 ) ;
#333 = APPLICATION_CONTEXT ( 'automotive_design' ) ;
#334 = ORIENTED_EDGE ( 'NONE', *, *, #774, .T. ) ;
#335 = CARTESIAN_POINT ( 'NONE',  ( -1.307012597096079753, 0.3000000000000000999, -1.500000000000000222 ) ) ;
#336 = VERTEX_POINT ( 'NONE', #639 ) ;
#337 = DIRECTION ( 'NONE',  ( 0.3583679495453048758, 0.9335804264972000777, 0.000000000000000000 ) ) ;
#338 = CARTESIAN_POINT ( 'NONE',  ( -1.307012597096079753, 0.3000000000000000999, 1.500000000000000222 ) ) ;
#339 = ORIENTED_EDGE ( 'NONE', *, *, #576, .F. ) ;
#340 = EDGE_CURVE ( 'NONE', #807, #410, #358, .T. ) ;
#341 = VECTOR ( 'NONE', #40, 39.37007874015748854 ) ;
#342 = CIRCLE ( 'NONE', #540, 0.7000000000000000666 ) ;
#343 = FACE_OUTER_BOUND ( 'NONE', #788, .T. ) ;
#344 = EDGE_LOOP ( 'NONE', ( #502, #633, #210, #314 ) ) ;
#345 = CARTESIAN_POINT ( 'NONE',  ( 1.257012597096079487, -2.003430258726853097, -1.500000000000000222 ) ) ;
#346 = CIRCLE ( 'NONE', #595, 0.7000000000000000666 ) ;
#347 = FILL_AREA_STYLE_COLOUR ( '', #118 ) ;
#348 = ORIENTED_EDGE ( 'NONE', *, *, #590, .T. ) ;
#349 = DIRECTION ( 'NONE',  ( -0.000000000000000000, -0.000000000000000000, 1.000000000000000000 ) ) ;
#350 = EDGE_CURVE ( 'NONE', #783, #487, #87, .T. ) ;
#351 = DIRECTION ( 'NONE',  ( -0.000000000000000000, -0.000000000000000000, 1.000000000000000000 ) ) ;
#352 = EDGE_CURVE ( 'NONE', #408, #391, #368, .T. ) ;
#353 = LINE ( 'NONE', #287, #514 ) ;
#354 = AXIS2_PLACEMENT_3D ( 'NONE', #100, #117, #46 ) ;
#355 = DIRECTION ( 'NONE',  ( -1.000000000000000000, 0.000000000000000000, 0.000000000000000000 ) ) ;
#356 = ORIENTED_EDGE ( 'NONE', *, *, #101, .F. ) ;
#357 = ORIENTED_EDGE ( 'NONE', *, *, #39, .T. ) ;
#358 = CIRCLE ( 'NONE', #428, 0.7000000000000001776 ) ;
#359 = CARTESIAN_POINT ( 'NONE',  ( 1.257012597096079709, -0.9290596507229341716, 1.466666699999999990 ) ) ;
#360 = FACE_OUTER_BOUND ( 'NONE', #525, .T. ) ;
#361 = CARTESIAN_POINT ( 'NONE',  ( -0.3052529241369904001, 0.5797556923857584144, 0.7666667000000000343 ) ) ;
#362 = PRODUCT_DEFINITION ( 'UNKNOWN', '', #555, #57 ) ;
#363 = DIRECTION ( 'NONE',  ( -1.365923996832132349E-16, -1.000000000000000000, 0.000000000000000000 ) ) ;
#364 = LINE ( 'NONE', #644, #591 ) ;
#365 = CARTESIAN_POINT ( 'NONE',  ( -0.8245368617777929510, -1.149500285149558376, 0.7666667000000000343 ) ) ;
#366 = ADVANCED_FACE ( 'NONE', ( #303 ), #285, .F. ) ;
#367 = FACE_OUTER_BOUND ( 'NONE', #495, .T. ) ;
#368 = LINE ( 'NONE', #631, #858 ) ;
#369 = ORIENTED_EDGE ( 'NONE', *, *, #752, .F. ) ;
#370 = VECTOR ( 'NONE', #697, 39.37007874015748143 ) ;
#371 = ORIENTED_EDGE ( 'NONE', *, *, #590, .F. ) ;
#372 = CYLINDRICAL_SURFACE ( 'NONE', #713, 0.6999999999999999556 ) ;
#373 = UNCERTAINTY_MEASURE_WITH_UNIT (LENGTH_MEASURE( 1.000000000000000082E-05 ), #683, 'distance_accuracy_value', 'NONE');
#374 = CARTESIAN_POINT ( 'NONE',  ( -0.5736792970960794547, -0.4959939866015181664, 0.7666667000000000343 ) ) ;
#375 = CARTESIAN_POINT ( 'NONE',  ( -0.9701636629434610137, 0.4910630184787678765, -1.500000000000000222 ) ) ;
#376 = ORIENTED_EDGE ( 'NONE', *, *, #169, .T. ) ;
#377 = FACE_OUTER_BOUND ( 'NONE', #1, .T. ) ;
#378 = EDGE_CURVE ( 'NONE', #158, #872, #364, .T. ) ;
#379 = FACE_OUTER_BOUND ( 'NONE', #236, .T. ) ;
#380 = CARTESIAN_POINT ( 'NONE',  ( 1.257012597096079709, -0.9290596507229341716, 0.7666667000000000343 ) ) ;
#381 = EDGE_LOOP ( 'NONE', ( #596, #694, #168, #758, #376, #775 ) ) ;
#382 = FACE_OUTER_BOUND ( 'NONE', #219, .T. ) ;
#383 = VECTOR ( 'NONE', #430, 39.37007874015748143 ) ;
#384 = DIRECTION ( 'NONE',  ( 0.3583679495453049313, 0.9335804264972000777, 0.000000000000000000 ) ) ;
#385 = VECTOR ( 'NONE', #829, 39.37007874015748143 ) ;
#386 = ORIENTED_EDGE ( 'NONE', *, *, #597, .F. ) ;
#387 = AXIS2_PLACEMENT_3D ( 'NONE', #753, #542, #535 ) ;
#388 =( LENGTH_UNIT ( ) NAMED_UNIT ( * ) SI_UNIT ( $, .METRE. ) );
#389 = FACE_OUTER_BOUND ( 'NONE', #704, .T. ) ;
#390 = CARTESIAN_POINT ( 'NONE',  ( 0.000000000000000000, 0.000000000000000000, 1.500000000000000222 ) ) ;
#391 = VERTEX_POINT ( 'NONE', #577 ) ;
#392 = EDGE_CURVE ( 'NONE', #795, #269, #84, .T. ) ;
#393 = FACE_OUTER_BOUND ( 'NONE', #698, .T. ) ;
#394 = CARTESIAN_POINT ( 'NONE',  ( 1.044209446041787670, -0.6880558737054530694, 0.7666667000000000343 ) ) ;
#395 = VERTEX_POINT ( 'NONE', #501 ) ;
#396 = EDGE_CURVE ( 'NONE', #490, #9, #161, .T. ) ;
#397 = DIRECTION ( 'NONE',  ( -0.3583679495453050978, -0.9335804264971998556, 0.000000000000000000 ) ) ;
#398 = DIRECTION ( 'NONE',  ( 0.000000000000000000, 0.000000000000000000, 1.000000000000000000 ) ) ;
#399 = ORIENTED_EDGE ( 'NONE', *, *, #352, .F. ) ;
#400 = VECTOR ( 'NONE', #585, 39.37007874015748143 ) ;
#401 = AXIS2_PLACEMENT_3D ( 'NONE', #390, #317, #717 ) ;
#402 = DIRECTION ( 'NONE',  ( 0.000000000000000000, 0.000000000000000000, 1.000000000000000000 ) ) ;
#403 = EDGE_CURVE ( 'NONE', #77, #645, #167, .T. ) ;
#404 = ORIENTED_EDGE ( 'NONE', *, *, #28, .F. ) ;
#405 = CARTESIAN_POINT ( 'NONE',  ( 0.8078701617777929167, 0.1524677731354292243, -1.500000000000000222 ) ) ;
#406 = ADVANCED_FACE ( 'NONE', ( #360 ), #626, .F. ) ;
#407 = PLANE ( 'NONE',  #62 ) ;
#408 = VERTEX_POINT ( 'NONE', #95 ) ;
#409 = DIRECTION ( 'NONE',  ( 1.000000000000000000, 0.000000000000000000, 0.000000000000000000 ) ) ;
#410 = VERTEX_POINT ( 'NONE', #557 ) ;
#411 = LINE ( 'NONE', #335, #147 ) ;
#412 = AXIS2_PLACEMENT_3D ( 'NONE', #541, #610, #278 ) ;
#413 = SURFACE_SIDE_STYLE ('',( #814 ) ) ;
#414 = ORIENTED_EDGE ( 'NONE', *, *, #712, .F. ) ;
#415 = EDGE_CURVE ( 'NONE', #280, #408, #486, .T. ) ;
#416 = ADVANCED_FACE ( 'NONE', ( #826 ), #489, .T. ) ;
#417 = LINE ( 'NONE', #154, #603 ) ;
#418 = DIRECTION ( 'NONE',  ( -0.8241261886220170307, -0.5664062369248310524, 0.000000000000000000 ) ) ;
#419 = ORIENTED_EDGE ( 'NONE', *, *, #184, .F. ) ;
#420 = DIRECTION ( 'NONE',  ( 1.365923996832132349E-16, 1.000000000000000000, 0.000000000000000000 ) ) ;
#421 = CARTESIAN_POINT ( 'NONE',  ( -0.6535062985480399878, 0.7491424353182866147, -1.500000000000000222 ) ) ;
#422 = ORIENTED_EDGE ( 'NONE', *, *, #92, .T. ) ;
#423 = DIRECTION ( 'NONE',  ( 0.000000000000000000, 0.000000000000000000, -1.000000000000000000 ) ) ;
#424 = AXIS2_PLACEMENT_3D ( 'NONE', #226, #423, #638 ) ;
#425 = CARTESIAN_POINT ( 'NONE',  ( -0.5561104888187038409, -0.07375060616228154564, 0.7666667000000000343 ) ) ;
#426 = ORIENTED_EDGE ( 'NONE', *, *, #864, .F. ) ;
#427 = ORIENTED_EDGE ( 'NONE', *, *, #239, .T. ) ;
#428 = AXIS2_PLACEMENT_3D ( 'NONE', #425, #418, #710 ) ;
#429 = LINE ( 'NONE', #166, #273 ) ;
#430 = DIRECTION ( 'NONE',  ( 1.365923996832131609E-16, -1.000000000000000000, 0.000000000000000000 ) ) ;
#431 = ADVANCED_FACE ( 'NONE', ( #382 ), #719, .F. ) ;
#432 = VECTOR ( 'NONE', #594, 39.37007874015748143 ) ;
#433 = ORIENTED_EDGE ( 'NONE', *, *, #738, .F. ) ;
#434 = LINE ( 'NONE', #695, #284 ) ;
#435 = CARTESIAN_POINT ( 'NONE',  ( -0.5561104888187038409, -0.07375060616228155952, 0.7666667000000000343 ) ) ;
#436 = EDGE_LOOP ( 'NONE', ( #71, #606, #295 ) ) ;
#437 = PLANE ( 'NONE',  #319 ) ;
#438 = VERTEX_POINT ( 'NONE', #787 ) ;
#439 = AXIS2_PLACEMENT_3D ( 'NONE', #76, #398, #268 ) ;
#440 = EDGE_CURVE ( 'NONE', #791, #818, #53, .T. ) ;
#441 = LINE ( 'NONE', #243, #255 ) ;
#442 = FACE_OUTER_BOUND ( 'NONE', #436, .T. ) ;
#443 = ORIENTED_EDGE ( 'NONE', *, *, #597, .T. ) ;
#444 = CARTESIAN_POINT ( 'NONE',  ( -0.5736792970960795657, -0.08582531355664423101, 1.466666699999999990 ) ) ;
#445 = CARTESIAN_POINT ( 'NONE',  ( 1.257012597096079487, -1.164390389721155827, 1.001997438998221801 ) ) ;
#446 = VERTEX_POINT ( 'NONE', #43 ) ;
#447 = CARTESIAN_POINT ( 'NONE',  ( -0.5736792970960795657, -0.08582531355664423101, 0.7666667000000000343 ) ) ;
#448 = CARTESIAN_POINT ( 'NONE',  ( -0.2396186264903239493, -0.6242278635668823128, 1.466666699999999990 ) ) ;
#449 = PLANE ( 'NONE',  #568 ) ;
#450 = CIRCLE ( 'NONE', #424, 0.7000000000000000666 ) ;
#451 = EDGE_CURVE ( 'NONE', #235, #491, #587, .T. ) ;
#452 = VERTEX_POINT ( 'NONE', #716 ) ;
#453 =( GEOMETRIC_REPRESENTATION_CONTEXT ( 3 ) GLOBAL_UNCERTAINTY_ASSIGNED_CONTEXT ( ( #373 ) ) GLOBAL_UNIT_ASSIGNED_CONTEXT ( ( #683, #134, #874 ) ) REPRESENTATION_CONTEXT ( 'NONE', 'WORKASPACE' ) );
#454 = CARTESIAN_POINT ( 'NONE',  ( -1.307012597096079531, -1.000000000000000222, 1.500000000000000222 ) ) ;
#455 = CARTESIAN_POINT ( 'NONE',  ( 0.5570125970960796424, -0.5010385254126106247, 1.500000000000000222 ) ) ;
#456 =( BOUNDED_CURVE ( )  B_SPLINE_CURVE ( 3, ( #292, #223, #281, #777 ),
 .UNSPECIFIED., .F., .F. ) 
 B_SPLINE_CURVE_WITH_KNOTS ( ( 4, 4 ),
 ( 0.9694393992340986088, 1.570796326794896780 ),
 .UNSPECIFIED. ) 
 CURVE ( )  GEOMETRIC_REPRESENTATION_ITEM ( )  RATIONAL_B_SPLINE_CURVE ( ( 1.000000000000000000, 0.9700905130049664038, 0.9700905130049664038, 1.000000000000000000 ) ) 
 REPRESENTATION_ITEM ( '' )  );
#457 = EDGE_CURVE ( 'NONE', #706, #609, #185, .T. ) ;
#458 = AXIS2_PLACEMENT_3D ( 'NONE', #195, #211, #69 ) ;
#459 = ORIENTED_EDGE ( 'NONE', *, *, #212, .F. ) ;
#460 = VECTOR ( 'NONE', #102, 39.37007874015748143 ) ;
#461 = APPLICATION_CONTEXT ( 'automotive_design' ) ;
#462 = CARTESIAN_POINT ( 'NONE',  ( -1.307012597096079531, -1.000000000000000222, 1.500000000000000222 ) ) ;
#463 = VERTEX_POINT ( 'NONE', #253 ) ;
#464 = EDGE_CURVE ( 'NONE', #446, #235, #861, .T. ) ;
#465 = DIRECTION ( 'NONE',  ( -0.000000000000000000, -0.000000000000000000, 1.000000000000000000 ) ) ;
#466 = CYLINDRICAL_SURFACE ( 'NONE', #439, 0.7000000000000000666 ) ;
#467 = EDGE_LOOP ( 'NONE', ( #654, #222, #265, #327 ) ) ;
#468 = VECTOR ( 'NONE', #801, 39.37007874015748854 ) ;
#469 = CARTESIAN_POINT ( 'NONE',  ( 0.5570125970960796424, -0.5010385254126107357, 0.7666667000000000343 ) ) ;
#470 = PRESENTATION_STYLE_ASSIGNMENT (( #205 ) ) ;
#471 = AXIS2_PLACEMENT_3D ( 'NONE', #289, #693, #156 ) ;
#472 = EDGE_LOOP ( 'NONE', ( #480, #187, #689, #663 ) ) ;
#473 = DIRECTION ( 'NONE',  ( 0.3583679495453048203, 0.9335804264972000777, -0.000000000000000000 ) ) ;
#474 = DIRECTION ( 'NONE',  ( 0.8241261886220169197, 0.5664062369248307194, 0.000000000000000000 ) ) ;
#475 = EDGE_CURVE ( 'NONE', #37, #807, #346, .T. ) ;
#476 = ORIENTED_EDGE ( 'NONE', *, *, #509, .T. ) ;
#477 = FACE_OUTER_BOUND ( 'NONE', #472, .T. ) ;
#478 = DIRECTION ( 'NONE',  ( 0.000000000000000000, -0.000000000000000000, 1.000000000000000000 ) ) ;
#479 = EDGE_CURVE ( 'NONE', #463, #395, #3, .T. ) ;
#480 = ORIENTED_EDGE ( 'NONE', *, *, #396, .T. ) ;
#481 = ADVANCED_FACE ( 'NONE', ( #389 ), #58, .F. ) ;
#482 = CIRCLE ( 'NONE', #99, 0.6999999999999999556 ) ;
#483 = DIRECTION ( 'NONE',  ( 0.000000000000000000, -0.000000000000000000, 1.000000000000000000 ) ) ;
#484 = AXIS2_PLACEMENT_3D ( 'NONE', #835, #493, #566 ) ;
#485 = VECTOR ( 'NONE', #679, 39.37007874015748143 ) ;
#486 = LINE ( 'NONE', #761, #113 ) ;
#487 = VERTEX_POINT ( 'NONE', #735 ) ;
#488 = DIRECTION ( 'NONE',  ( 1.000000000000000000, 1.365923996832131609E-16, -0.000000000000000000 ) ) ;
#489 = PLANE ( 'NONE',  #310 ) ;
#490 = VERTEX_POINT ( 'NONE', #444 ) ;
#491 = VERTEX_POINT ( 'NONE', #789 ) ;
#492 = PLANE ( 'NONE',  #129 ) ;
#493 = DIRECTION ( 'NONE',  ( -0.000000000000000000, 0.000000000000000000, -1.000000000000000000 ) ) ;
#494 = ORIENTED_EDGE ( 'NONE', *, *, #734, .F. ) ;
#495 = EDGE_LOOP ( 'NONE', ( #636, #141, #827, #494 ) ) ;
#496 = AXIS2_PLACEMENT_3D ( 'NONE', #54, #107, #583 ) ;
#497 = DIRECTION ( 'NONE',  ( 1.000000000000000000, 0.000000000000000000, 0.000000000000000000 ) ) ;
#498 = VECTOR ( 'NONE', #283, 39.37007874015748854 ) ;
#499 = ADVANCED_FACE ( 'NONE', ( #528, #796 ), #437, .F. ) ;
#500 = VECTOR ( 'NONE', #137, 39.37007874015748143 ) ;
#501 = CARTESIAN_POINT ( 'NONE',  ( 0.9530459088047732452, -1.506257983679165191, 1.343864773469623408 ) ) ;
#502 = ORIENTED_EDGE ( 'NONE', *, *, #415, .T. ) ;
#503 = LINE ( 'NONE', #623, #498 ) ;
#504 = CARTESIAN_POINT ( 'NONE',  ( 1.257012597096079709, -0.9290596507229341716, 0.7666667000000000343 ) ) ;
#505 = ORIENTED_EDGE ( 'NONE', *, *, #392, .F. ) ;
#506 = CARTESIAN_POINT ( 'NONE',  ( 0.5249530958188516339, -1.667520945512385611, 1.001997438998221801 ) ) ;
#507 = DIRECTION ( 'NONE',  ( 0.8241261886220169197, 0.5664062369248307194, 0.000000000000000000 ) ) ;
#508 = DIRECTION ( 'NONE',  ( 1.000000000000000000, 0.000000000000000000, 0.000000000000000000 ) ) ;
#509 = EDGE_CURVE ( 'NONE', #533, #68, #724, .T. ) ;
#510 = EDGE_LOOP ( 'NONE', ( #516, #427, #804, #815, #776 ) ) ;
#511 = ADVANCED_FACE ( 'NONE', ( #321 ), #191, .F. ) ;
#512 = VECTOR ( 'NONE', #592, 39.37007874015748854 ) ;
#513 = DIRECTION ( 'NONE',  ( -0.000000000000000000, -0.000000000000000000, 1.000000000000000000 ) ) ;
#514 = VECTOR ( 'NONE', #32, 39.37007874015748143 ) ;
#515 = CARTESIAN_POINT ( 'NONE',  ( 0.5570125970960797535, -0.5010385254126106247, 0.7666667000000000343 ) ) ;
#516 = ORIENTED_EDGE ( 'NONE', *, *, #691, .T. ) ;
#517 = DIRECTION ( 'NONE',  ( -3.170894992646020054E-16, -1.000000000000000000, 0.000000000000000000 ) ) ;
#518 = DIRECTION ( 'NONE',  ( 0.9335804264971999666, -0.3583679495453050978, -5.175061448560074251E-17 ) ) ;
#519 = FACE_OUTER_BOUND ( 'NONE', #707, .T. ) ;
#520 = DIMENSIONAL_EXPONENTS ( 1.000000000000000000, 0.000000000000000000, 0.000000000000000000, 0.000000000000000000, 0.000000000000000000, 0.000000000000000000, 0.000000000000000000 ) ;
#521 = VERTEX_POINT ( 'NONE', #582 ) ;
#522 = ADVANCED_FACE ( 'NONE', ( #393 ), #324, .F. ) ;
#523 = DIRECTION ( 'NONE',  ( 1.000000000000000000, 0.000000000000000000, 0.000000000000000000 ) ) ;
#524 = SPHERICAL_SURFACE ( 'NONE', #729, 0.7000000000000000666 ) ;
#525 = EDGE_LOOP ( 'NONE', ( #601, #674, #718 ) ) ;
#526 = PRODUCT_CONTEXT ( 'NONE', #333, 'mechanical' ) ;
#527 = EDGE_CURVE ( 'NONE', #624, #438, #441, .T. ) ;
#528 = FACE_BOUND ( 'NONE', #304, .T. ) ;
#529 = FACE_OUTER_BOUND ( 'NONE', #241, .T. ) ;
#530 = ORIENTED_EDGE ( 'NONE', *, *, #851, .T. ) ;
#531 = CARTESIAN_POINT ( 'NONE',  ( -0.5561104888187040629, -0.07375060616228161503, 0.7666667000000000343 ) ) ;
#532 = CARTESIAN_POINT ( 'NONE',  ( -0.6535062985480399878, 0.7491424353182866147, 1.500000000000000222 ) ) ;
#533 = VERTEX_POINT ( 'NONE', #106 ) ;
#534 = CYLINDRICAL_SURFACE ( 'NONE', #189, 0.6999999999999999556 ) ;
#535 = DIRECTION ( 'NONE',  ( 1.000000000000000000, 0.000000000000000000, 0.000000000000000000 ) ) ;
#536 = ORIENTED_EDGE ( 'NONE', *, *, #350, .T. ) ;
#537 = CARTESIAN_POINT ( 'NONE',  ( -0.5736792970960796767, 1.000000000000000222, 0.7666667000000000343 ) ) ;
#538 = LINE ( 'NONE', #810, #485 ) ;
#539 = ORIENTED_EDGE ( 'NONE', *, *, #696, .T. ) ;
#540 = AXIS2_PLACEMENT_3D ( 'NONE', #67, #602, #61 ) ;
#541 = CARTESIAN_POINT ( 'NONE',  ( 1.295067010723501166, -0.03454957515741312324, 1.500000000000000222 ) ) ;
#542 = DIRECTION ( 'NONE',  ( 0.000000000000000000, 0.000000000000000000, 1.000000000000000000 ) ) ;
#543 = ORIENTED_EDGE ( 'NONE', *, *, #643, .F. ) ;
#544 =( BOUNDED_CURVE ( )  B_SPLINE_CURVE ( 3, ( #380, #445, #588, #249 ),
 .UNSPECIFIED., .F., .F. ) 
 B_SPLINE_CURVE_WITH_KNOTS ( ( 4, 4 ),
 ( 1.570796326794896780, 2.539454061651752248 ),
 .UNSPECIFIED. ) 
 CURVE ( )  GEOMETRIC_REPRESENTATION_ITEM ( )  RATIONAL_B_SPLINE_CURVE ( ( 1.000000000000000000, 0.9233250916420274734, 0.9233250916420274734, 1.000000000000000000 ) ) 
 REPRESENTATION_ITEM ( '' )  );
#545 = AXIS2_PLACEMENT_3D ( 'NONE', #454, #123, #649 ) ;
#546 = CARTESIAN_POINT ( 'NONE',  ( -1.307012597096079753, 1.000000000000000222, 1.500000000000000222 ) ) ;
#547 = CARTESIAN_POINT ( 'NONE',  ( 0.6535062985480396547, -1.752572694045139823, 1.500000000000000222 ) ) ;
#548 = ADVANCED_FACE ( 'NONE', ( #379 ), #8, .F. ) ;
#549 = ORIENTED_EDGE ( 'NONE', *, *, #277, .F. ) ;
#550 =( BOUNDED_CURVE ( )  B_SPLINE_CURVE ( 3, ( #11, #275, #279, #140 ),
 .UNSPECIFIED., .F., .F. ) 
 B_SPLINE_CURVE_WITH_KNOTS ( ( 4, 4 ),
 ( 5.313745907945487623, 5.314527572322731430 ),
 .UNSPECIFIED. ) 
 CURVE ( )  GEOMETRIC_REPRESENTATION_ITEM ( )  RATIONAL_B_SPLINE_CURVE ( ( 1.000000000000000000, 0.9999999490834007299, 0.9999999490834007299, 1.000000000000000000 ) ) 
 REPRESENTATION_ITEM ( '' )  );
#551 = PLANE ( 'NONE',  #570 ) ;
#552 = ADVANCED_FACE ( 'NONE', ( #477 ), #805, .F. ) ;
#553 = CARTESIAN_POINT ( 'NONE',  ( 0.9534969629434612015, -1.505947982758346182, -1.500000000000000222 ) ) ;
#554 = ORIENTED_EDGE ( 'NONE', *, *, #527, .F. ) ;
#555 = PRODUCT_DEFINITION_FORMATION_WITH_SPECIFIED_SOURCE ( 'ANY', '', #266, .NOT_KNOWN. ) ;
#556 = LINE ( 'NONE', #709, #312 ) ;
#557 = CARTESIAN_POINT ( 'NONE',  ( -0.9525948546660856220, 0.5031377258731303259, 0.7666667000000000343 ) ) ;
#558 = ORIENTED_EDGE ( 'NONE', *, *, #799, .F. ) ;
#559 = EDGE_CURVE ( 'NONE', #37, #410, #194, .T. ) ;
#560 = LINE ( 'NONE', #345, #385 ) ;
#561 = CARTESIAN_POINT ( 'NONE',  ( -0.5736792970960794547, -0.08582531355664411998, 0.7666667000000000343 ) ) ;
#562 = EDGE_LOOP ( 'NONE', ( #122, #762, #145, #580 ) ) ;
#563 = ADVANCED_FACE ( 'NONE', ( #675 ), #619, .T. ) ;
#564 = VERTEX_POINT ( 'NONE', #462 ) ;
#565 = DIRECTION ( 'NONE',  ( 0.8241261886220169197, 0.5664062369248308304, -0.000000000000000000 ) ) ;
#566 = DIRECTION ( 'NONE',  ( -1.000000000000000000, 0.000000000000000000, 0.000000000000000000 ) ) ;
#567 = CARTESIAN_POINT ( 'NONE',  ( -0.5736792970960795657, -0.08582531355664391182, -1.500000000000000222 ) ) ;
#568 = AXIS2_PLACEMENT_3D ( 'NONE', #725, #186, #865 ) ;
#569 = CARTESIAN_POINT ( 'NONE',  ( -0.6535062985480399878, 0.7491424353182866147, 1.500000000000000222 ) ) ;
#570 = AXIS2_PLACEMENT_3D ( 'NONE', #819, #488, #764 ) ;
#571 = CIRCLE ( 'NONE', #387, 0.7000000000000001776 ) ;
#572 = LINE ( 'NONE', #22, #370 ) ;
#573 = DIRECTION ( 'NONE',  ( 0.000000000000000000, -1.000000000000000000, 0.000000000000000000 ) ) ;
#574 = EDGE_LOOP ( 'NONE', ( #66, #505, #27, #828 ) ) ;
#575 = SHAPE_DEFINITION_REPRESENTATION ( #867, #19 ) ;
#576 = EDGE_CURVE ( 'NONE', #55, #256, #411, .T. ) ;
#577 = CARTESIAN_POINT ( 'NONE',  ( 1.257012597096079709, -0.5010385254126106247, -1.500000000000000222 ) ) ;
#578 = EDGE_CURVE ( 'NONE', #256, #564, #816, .T. ) ;
#579 = ORIENTED_EDGE ( 'NONE', *, *, #155, .T. ) ;
#580 = ORIENTED_EDGE ( 'NONE', *, *, #12, .F. ) ;
#581 = PLANE ( 'NONE',  #822 ) ;
#582 = CARTESIAN_POINT ( 'NONE',  ( 1.307012597096079531, -1.303430258726853141, 1.500000000000000222 ) ) ;
#583 = DIRECTION ( 'NONE',  ( -1.000000000000000000, 0.000000000000000000, 0.000000000000000000 ) ) ;
#584 = VERTEX_POINT ( 'NONE', #687 ) ;
#585 = DIRECTION ( 'NONE',  ( 1.365923996832131609E-16, -1.000000000000000000, 0.000000000000000000 ) ) ;
#586 = AXIS2_PLACEMENT_3D ( 'NONE', #751, #139, #409 ) ;
#587 = LINE ( 'NONE', #731, #341 ) ;
#588 = CARTESIAN_POINT ( 'NONE',  ( 1.147439187939668148, -1.372655184449623977, 1.210262233726689729 ) ) ;
#589 = ORIENTED_EDGE ( 'NONE', *, *, #784, .F. ) ;
#590 = EDGE_CURVE ( 'NONE', #564, #269, #200, .T. ) ;
#591 = VECTOR ( 'NONE', #233, 39.37007874015748854 ) ;
#592 = DIRECTION ( 'NONE',  ( 0.8241261886220169197, 0.5664062369248308304, -0.000000000000000000 ) ) ;
#593 = VECTOR ( 'NONE', #73, 39.37007874015748854 ) ;
#594 = DIRECTION ( 'NONE',  ( -0.9335804264971999666, 0.3583679495453050423, 0.000000000000000000 ) ) ;
#595 = AXIS2_PLACEMENT_3D ( 'NONE', #307, #518, #782 ) ;
#596 = ORIENTED_EDGE ( 'NONE', *, *, #738, .T. ) ;
#597 = EDGE_CURVE ( 'NONE', #818, #491, #832, .T. ) ;
#598 = DIRECTION ( 'NONE',  ( 1.000000000000000000, 0.000000000000000000, 0.000000000000000000 ) ) ;
#599 = CARTESIAN_POINT ( 'NONE',  ( -1.295067010723500944, -0.9688806835694409036, -1.500000000000000222 ) ) ;
#600 = CYLINDRICAL_SURFACE ( 'NONE', #786, 0.7000000000000000666 ) ;
#601 = ORIENTED_EDGE ( 'NONE', *, *, #475, .T. ) ;
#602 = DIRECTION ( 'NONE',  ( 9.756599977372368637E-17, -1.000000000000000000, -3.902639990948947455E-16 ) ) ;
#603 = VECTOR ( 'NONE', #420, 39.37007874015748143 ) ;
#604 = FACE_OUTER_BOUND ( 'NONE', #276, .T. ) ;
#605 = VECTOR ( 'NONE', #124, 39.37007874015748143 ) ;
#606 = ORIENTED_EDGE ( 'NONE', *, *, #78, .T. ) ;
#607 = MECHANICAL_DESIGN_GEOMETRIC_PRESENTATION_REPRESENTATION (  '', ( #759 ), #453 ) ;
#608 = CARTESIAN_POINT ( 'NONE',  ( -1.273679297096079521, -0.4959939866015180554, 0.7666667000000000343 ) ) ;
#609 = VERTEX_POINT ( 'NONE', #808 ) ;
#610 = DIRECTION ( 'NONE',  ( -0.3583679495453050423, -0.9335804264971999666, 0.000000000000000000 ) ) ;
#611 = DIRECTION ( 'NONE',  ( 0.9335804264971999666, -0.3583679495453050423, -0.000000000000000000 ) ) ;
#612 = EDGE_LOOP ( 'NONE', ( #530, #640, #767 ) ) ;
#613 = PLANE ( 'NONE',  #75 ) ;
#614 = LINE ( 'NONE', #213, #176 ) ;
#615 = VECTOR ( 'NONE', #103, 39.37007874015748854 ) ;
#616 = VERTEX_POINT ( 'NONE', #608 ) ;
#617 = VECTOR ( 'NONE', #90, 39.37007874015748143 ) ;
#618 = ADVANCED_FACE ( 'NONE', ( #204 ), #534, .F. ) ;
#619 = PLANE ( 'NONE',  #412 ) ;
#620 =( LENGTH_UNIT ( ) NAMED_UNIT ( * ) SI_UNIT ( $, .METRE. ) );
#621 = ORIENTED_EDGE ( 'NONE', *, *, #797, .T. ) ;
#622 = EDGE_CURVE ( 'NONE', #163, #795, #136, .T. ) ;
#623 = CARTESIAN_POINT ( 'NONE',  ( 0.6535062985480396547, -1.752572694045139823, 1.500000000000000222 ) ) ;
#624 = VERTEX_POINT ( 'NONE', #405 ) ;
#625 = CARTESIAN_POINT ( 'NONE',  ( -0.1439830954323489953, 0.2094967038302751328, 1.466666699999999990 ) ) ;
#626 = SPHERICAL_SURFACE ( 'NONE', #188, 0.7000000000000000666 ) ;
#627 = CARTESIAN_POINT ( 'NONE',  ( -1.307012597096079753, 1.000000000000000222, -1.500000000000000222 ) ) ;
#628 = AXIS2_PLACEMENT_3D ( 'NONE', #447, #517, #306 ) ;
#629 = FACE_OUTER_BOUND ( 'NONE', #344, .T. ) ;
#630 = AXIS2_PLACEMENT_3D ( 'NONE', #778, #298, #830 ) ;
#631 = CARTESIAN_POINT ( 'NONE',  ( 1.257012597096079709, -0.5010385254126107357, -1.500000000000000222 ) ) ;
#632 = VECTOR ( 'NONE', #773, 39.37007874015748143 ) ;
#633 = ORIENTED_EDGE ( 'NONE', *, *, #352, .T. ) ;
#634 = CARTESIAN_POINT ( 'NONE',  ( 0.7586526296698783423, -1.639860782908706405, 1.210262233726689507 ) ) ;
#635 = DIRECTION ( 'NONE',  ( 1.365923996832132349E-16, 1.000000000000000000, -0.000000000000000000 ) ) ;
#636 = ORIENTED_EDGE ( 'NONE', *, *, #668, .F. ) ;
#637 = ORIENTED_EDGE ( 'NONE', *, *, #378, .T. ) ;
#638 = DIRECTION ( 'NONE',  ( -1.000000000000000000, 0.000000000000000000, 0.000000000000000000 ) ) ;
#639 = CARTESIAN_POINT ( 'NONE',  ( 1.257012597096079709, -0.9290596507229341716, -1.500000000000000222 ) ) ;
#640 = ORIENTED_EDGE ( 'NONE', *, *, #325, .T. ) ;
#641 = ORIENTED_EDGE ( 'NONE', *, *, #840, .F. ) ;
#642 = ADVANCED_FACE ( 'NONE', ( #343 ), #613, .T. ) ;
#643 = EDGE_CURVE ( 'NONE', #609, #616, #342, .T. ) ;
#644 = CARTESIAN_POINT ( 'NONE',  ( -0.5404674612797305544, 0.7863850358656869766, -1.500000000000000222 ) ) ;
#645 = VERTEX_POINT ( 'NONE', #870 ) ;
#646 = ORIENTED_EDGE ( 'NONE', *, *, #578, .F. ) ;
#647 = PLANE ( 'NONE',  #354 ) ;
#648 = EDGE_CURVE ( 'NONE', #410, #9, #261, .T. ) ;
#649 = DIRECTION ( 'NONE',  ( -0.9335804264971999666, 0.3583679495453047648, 0.000000000000000000 ) ) ;
#650 = CARTESIAN_POINT ( 'NONE',  ( -0.9701636629434609027, 0.4910630184787678210, -1.500000000000000222 ) ) ;
#651 = DIRECTION ( 'NONE',  ( -1.000000000000000000, 0.000000000000000000, 0.000000000000000000 ) ) ;
#652 = DIRECTION ( 'NONE',  ( 0.9335804264971999666, -0.3583679495453047648, 0.000000000000000000 ) ) ;
#653 = DIRECTION ( 'NONE',  ( 1.000000000000000000, 0.000000000000000000, 0.000000000000000000 ) ) ;
#654 = ORIENTED_EDGE ( 'NONE', *, *, #403, .F. ) ;
#655 = CARTESIAN_POINT ( 'NONE',  ( -0.5561104888187038409, -0.07375060616228154564, 1.466666699999999990 ) ) ;
#656 = AXIS2_PLACEMENT_3D ( 'NONE', #727, #320, #598 ) ;
#657 = CARTESIAN_POINT ( 'NONE',  ( -1.307012597096079753, 1.000000000000000222, 1.500000000000000222 ) ) ;
#658 = LINE ( 'NONE', #375, #229 ) ;
#659 = ORIENTED_EDGE ( 'NONE', *, *, #824, .F. ) ;
#660 =( CONVERSION_BASED_UNIT ( 'INCH', #177 ) LENGTH_UNIT ( ) NAMED_UNIT ( #520 ) );
#661 = DIRECTION ( 'NONE',  ( 0.000000000000000000, -1.000000000000000000, -1.951319995474473974E-16 ) ) ;
#662 = LINE ( 'NONE', #111, #605 ) ;
#663 = ORIENTED_EDGE ( 'NONE', *, *, #691, .F. ) ;
#664 = AXIS2_PLACEMENT_3D ( 'NONE', #537, #143, #876 ) ;
#665 = DIRECTION ( 'NONE',  ( -0.9335804264971999666, 0.3583679495453047648, -0.000000000000000000 ) ) ;
#666 = DIRECTION ( 'NONE',  ( -0.3583679495453049868, -0.9335804264971998556, 0.000000000000000000 ) ) ;
#667 = ORIENTED_EDGE ( 'NONE', *, *, #263, .T. ) ;
#668 = EDGE_CURVE ( 'NONE', #521, #533, #813, .T. ) ;
#669 = DIRECTION ( 'NONE',  ( 1.365923996832132349E-16, 1.000000000000000000, 0.000000000000000000 ) ) ;
#670 = EDGE_CURVE ( 'NONE', #438, #180, #5, .T. ) ;
#671 = CIRCLE ( 'NONE', #586, 0.7000000000000000666 ) ;
#672 = DIRECTION ( 'NONE',  ( 0.000000000000000000, 1.000000000000000000, 0.000000000000000000 ) ) ;
#673 = VECTOR ( 'NONE', #821, 39.37007874015748143 ) ;
#674 = ORIENTED_EDGE ( 'NONE', *, *, #340, .T. ) ;
#675 = FACE_OUTER_BOUND ( 'NONE', #681, .T. ) ;
#676 = LINE ( 'NONE', #817, #673 ) ;
#677 = EDGE_LOOP ( 'NONE', ( #750, #197, #371, #831 ) ) ;
#678 = CARTESIAN_POINT ( 'NONE',  ( 0.6535062985480396547, -1.752572694045139823, -1.500000000000000222 ) ) ;
#679 = DIRECTION ( 'NONE',  ( -0.000000000000000000, -0.000000000000000000, -1.000000000000000000 ) ) ;
#680 = EDGE_CURVE ( 'NONE', #823, #872, #671, .T. ) ;
#681 = EDGE_LOOP ( 'NONE', ( #183, #50, #246, #272 ) ) ;
#682 = FACE_OUTER_BOUND ( 'NONE', #510, .T. ) ;
#683 =( CONVERSION_BASED_UNIT ( 'INCH', #271 ) LENGTH_UNIT ( ) NAMED_UNIT ( #115 ) );
#684 = ORIENTED_EDGE ( 'NONE', *, *, #199, .T. ) ;
#685 = VECTOR ( 'NONE', #565, 39.37007874015748854 ) ;
#686 = ADVANCED_FACE ( 'NONE', ( #682 ), #492, .F. ) ;
#687 = CARTESIAN_POINT ( 'NONE',  ( 0.3052529241369901225, -1.583185951112611622, 0.7666667000000000343 ) ) ;
#688 = CARTESIAN_POINT ( 'NONE',  ( -0.09609432224004248180, -0.2503342680466932313, 1.466666699999999990 ) ) ;
#689 = ORIENTED_EDGE ( 'NONE', *, *, #340, .F. ) ;
#690 = AXIS2_PLACEMENT_3D ( 'NONE', #531, #465, #873 ) ;
#691 = EDGE_CURVE ( 'NONE', #490, #807, #25, .T. ) ;
#692 = CARTESIAN_POINT ( 'NONE',  ( 0.6535062985480398767, -1.752572694045139823, -1.500000000000000222 ) ) ;
#693 = DIRECTION ( 'NONE',  ( -0.5664062369248308304, 0.8241261886220170307, 0.000000000000000000 ) ) ;
#694 = ORIENTED_EDGE ( 'NONE', *, *, #748, .F. ) ;
#695 = CARTESIAN_POINT ( 'NONE',  ( -1.273679297096079521, -0.4959939866015180554, -1.500000000000000222 ) ) ;
#696 = EDGE_CURVE ( 'NONE', #645, #791, #299, .T. ) ;
#697 = DIRECTION ( 'NONE',  ( 0.000000000000000000, 0.000000000000000000, 1.000000000000000000 ) ) ;
#698 = EDGE_LOOP ( 'NONE', ( #334, #875, #426, #863 ) ) ;
#699 = AXIS2_PLACEMENT_3D ( 'NONE', #132, #402, #267 ) ;
#700 = CARTESIAN_POINT ( 'NONE',  ( -0.8245368617777929510, -1.149500285149558376, -1.500000000000000222 ) ) ;
#701 = CARTESIAN_POINT ( 'NONE',  ( 0.6535062985480396547, -1.752572694045139823, -1.500000000000000222 ) ) ;
#702 = DIRECTION ( 'NONE',  ( 1.365923996832131609E-16, -1.000000000000000000, 0.000000000000000000 ) ) ;
#703 = EDGE_CURVE ( 'NONE', #336, #391, #560, .T. ) ;
#704 = EDGE_LOOP ( 'NONE', ( #543, #733, #13 ) ) ;
#705 = CARTESIAN_POINT ( 'NONE',  ( 0.5570125970960796424, -0.9290596507229340606, -1.500000000000000222 ) ) ;
#706 = VERTEX_POINT ( 'NONE', #772 ) ;
#707 = EDGE_LOOP ( 'NONE', ( #536, #323, #842, #135 ) ) ;
#708 = EDGE_CURVE ( 'NONE', #616, #645, #434, .T. ) ;
#709 = CARTESIAN_POINT ( 'NONE',  ( 1.307012597096079531, -1.303430258726853141, -1.500000000000000222 ) ) ;
#710 = DIRECTION ( 'NONE',  ( 0.5664062369248309414, -0.8241261886220169197, 0.000000000000000000 ) ) ;
#711 = ORIENTED_EDGE ( 'NONE', *, *, #302, .F. ) ;
#712 = EDGE_CURVE ( 'NONE', #521, #269, #503, .T. ) ;
#713 = AXIS2_PLACEMENT_3D ( 'NONE', #843, #781, #651 ) ;
#714 = CIRCLE ( 'NONE', #114, 0.7000000000000001776 ) ;
#715 = CARTESIAN_POINT ( 'NONE',  ( 0.3052529241369901225, -1.583185951112611622, 0.7666667000000000343 ) ) ;
#716 = CARTESIAN_POINT ( 'NONE',  ( -1.273679297096079521, -0.08582531355664400896, 0.7666667000000000343 ) ) ;
#717 = DIRECTION ( 'NONE',  ( 1.000000000000000000, 0.000000000000000000, -0.000000000000000000 ) ) ;
#718 = ORIENTED_EDGE ( 'NONE', *, *, #559, .F. ) ;
#719 = PLANE ( 'NONE',  #728 ) ;
#720 = DIRECTION ( 'NONE',  ( -0.9335804264971999666, 0.3583679495453050978, 0.000000000000000000 ) ) ;
#721 = ORIENTED_EDGE ( 'NONE', *, *, #302, .T. ) ;
#722 =( NAMED_UNIT ( * ) SI_UNIT ( $, .STERADIAN. ) SOLID_ANGLE_UNIT ( ) );
#723 = EDGE_CURVE ( 'NONE', #163, #521, #556, .T. ) ;
#724 = LINE ( 'NONE', #316, #432 ) ;
#725 = CARTESIAN_POINT ( 'NONE',  ( 1.307012597096079753, -0.003430258726854003900, 1.500000000000000222 ) ) ;
#726 = ORIENTED_EDGE ( 'NONE', *, *, #622, .T. ) ;
#727 = CARTESIAN_POINT ( 'NONE',  ( 0.000000000000000000, 0.000000000000000000, 0.000000000000000000 ) ) ;
#728 = AXIS2_PLACEMENT_3D ( 'NONE', #657, #845, #110 ) ;
#729 = AXIS2_PLACEMENT_3D ( 'NONE', #794, #672, #80 ) ;
#730 = VECTOR ( 'NONE', #309, 39.37007874015748143 ) ;
#731 = CARTESIAN_POINT ( 'NONE',  ( 1.008858885730936183, -1.467898787394942062, -1.500000000000000222 ) ) ;
#732 = DIRECTION ( 'NONE',  ( 0.000000000000000000, 0.000000000000000000, 1.000000000000000000 ) ) ;
#733 = ORIENTED_EDGE ( 'NONE', *, *, #92, .F. ) ;
#734 = EDGE_CURVE ( 'NONE', #533, #783, #10, .T. ) ;
#735 = CARTESIAN_POINT ( 'NONE',  ( -0.6535062985480395437, 0.7491424353182863927, -1.500000000000000222 ) ) ;
#736 = DIRECTION ( 'NONE',  ( -9.756599977372368637E-17, -1.000000000000000000, -9.756599977372369870E-17 ) ) ;
#737 = EDGE_LOOP ( 'NONE', ( #165, #150, #33, #667, #98 ) ) ;
#738 = EDGE_CURVE ( 'NONE', #395, #706, #456, .T. ) ;
#739 = EDGE_CURVE ( 'NONE', #438, #408, #450, .T. ) ;
#740 = CARTESIAN_POINT ( 'NONE',  ( -1.044209446041787448, -0.3153743850214009159, 0.7666667000000000343 ) ) ;
#741 = FILL_AREA_STYLE ('',( #347 ) ) ;
#742 = EDGE_LOOP ( 'NONE', ( #589, #726, #846, #404, #852, #36 ) ) ;
#743 = CARTESIAN_POINT ( 'NONE',  ( -1.307012597096079531, -1.000000000000000222, 1.500000000000000222 ) ) ;
#744 = CIRCLE ( 'NONE', #757, 0.7000000000000000666 ) ;
#745 = CIRCLE ( 'NONE', #484, 0.7000000000000000666 ) ;
#746 = ORIENTED_EDGE ( 'NONE', *, *, #648, .T. ) ;
#747 = DIRECTION ( 'NONE',  ( -0.8241261886220169197, -0.5664062369248307194, -0.000000000000000000 ) ) ;
#748 = EDGE_CURVE ( 'NONE', #180, #706, #429, .T. ) ;
#749 = FACE_OUTER_BOUND ( 'NONE', #811, .T. ) ;
#750 = ORIENTED_EDGE ( 'NONE', *, *, #146, .T. ) ;
#751 = CARTESIAN_POINT ( 'NONE',  ( -0.5561104888187039519, -0.07375060616228161503, -1.500000000000000222 ) ) ;
#752 = EDGE_CURVE ( 'NONE', #235, #336, #230, .T. ) ;
#753 = CARTESIAN_POINT ( 'NONE',  ( 0.5570125970960796424, -0.5010385254126106247, -1.500000000000000222 ) ) ;
#754 = EDGE_LOOP ( 'NONE', ( #290, #399, #7, #554 ) ) ;
#755 = DIRECTION ( 'NONE',  ( 0.9335804264972000777, -0.3583679495453048203, 0.000000000000000000 ) ) ;
#756 = CARTESIAN_POINT ( 'NONE',  ( -0.5736792970960795657, -0.08582531355664391182, 1.500000000000000222 ) ) ;
#757 = AXIS2_PLACEMENT_3D ( 'NONE', #567, #836, #231 ) ;
#758 = ORIENTED_EDGE ( 'NONE', *, *, #415, .F. ) ;
#759 = STYLED_ITEM ( 'NONE', ( #470 ), #214 ) ;
#760 = DIRECTION ( 'NONE',  ( 0.000000000000000000, 0.000000000000000000, 1.000000000000000000 ) ) ;
#761 = CARTESIAN_POINT ( 'NONE',  ( 1.257012597096079487, -2.003430258726853097, 0.7666667000000000343 ) ) ;
#762 = ORIENTED_EDGE ( 'NONE', *, *, #708, .F. ) ;
#763 = ADVANCED_FACE ( 'NONE', ( #768 ), #551, .T. ) ;
#764 = DIRECTION ( 'NONE',  ( -1.365923996832131609E-16, 1.000000000000000000, 0.000000000000000000 ) ) ;
#765 = CARTESIAN_POINT ( 'NONE',  ( 0.6346261095307530464, -1.725101848561945594, -1.500000000000000222 ) ) ;
#766 = ORIENTED_EDGE ( 'NONE', *, *, #440, .T. ) ;
#767 = ORIENTED_EDGE ( 'NONE', *, *, #396, .F. ) ;
#768 = FACE_OUTER_BOUND ( 'NONE', #467, .T. ) ;
#769 = FACE_OUTER_BOUND ( 'NONE', #104, .T. ) ;
#770 = LINE ( 'NONE', #627, #174 ) ;
#771 = ORIENTED_EDGE ( 'NONE', *, *, #779, .F. ) ;
#772 = CARTESIAN_POINT ( 'NONE',  ( 0.5570125970960796424, -0.9300259394879643038, 1.466666699999999990 ) ) ;
#773 = DIRECTION ( 'NONE',  ( -0.9335804264971999666, 0.3583679495453050423, 0.000000000000000000 ) ) ;
#774 = EDGE_CURVE ( 'NONE', #256, #68, #94, .T. ) ;
#775 = ORIENTED_EDGE ( 'NONE', *, *, #263, .F. ) ;
#776 = ORIENTED_EDGE ( 'NONE', *, *, #212, .T. ) ;
#777 = CARTESIAN_POINT ( 'NONE',  ( 0.5570125970960796424, -0.9300259394879643038, 1.466666699999999990 ) ) ;
#778 = CARTESIAN_POINT ( 'NONE',  ( 0.5561104888187035078, -0.9296796525645715237, -1.500000000000000222 ) ) ;
#779 = EDGE_CURVE ( 'NONE', #336, #280, #216, .T. ) ;
#780 = ORIENTED_EDGE ( 'NONE', *, *, #12, .T. ) ;
#781 = DIRECTION ( 'NONE',  ( 0.000000000000000000, 0.000000000000000000, -1.000000000000000000 ) ) ;
#782 = DIRECTION ( 'NONE',  ( 0.3583679495453050978, 0.9335804264971998556, 0.000000000000000000 ) ) ;
#783 = VERTEX_POINT ( 'NONE', #151 ) ;
#784 = EDGE_CURVE ( 'NONE', #163, #783, #417, .T. ) ;
#785 = VECTOR ( 'NONE', #483, 39.37007874015748143 ) ;
#786 = AXIS2_PLACEMENT_3D ( 'NONE', #394, #720, #666 ) ;
#787 = CARTESIAN_POINT ( 'NONE',  ( 0.8078701617777932498, 0.1524677731354291688, 0.7666667000000000343 ) ) ;
#788 = EDGE_LOOP ( 'NONE', ( #96, #193, #159, #780 ) ) ;
#789 = CARTESIAN_POINT ( 'NONE',  ( 0.9525948546660851779, -1.506567984599983534, -1.500000000000000222 ) ) ;
#790 = CYLINDRICAL_SURFACE ( 'NONE', #854, 0.7000000000000001776 ) ;
#791 = VERTEX_POINT ( 'NONE', #700 ) ;
#792 = APPLICATION_PROTOCOL_DEFINITION ( 'draft international standard', 'automotive_design', 1998, #333 ) ;
#793 = CARTESIAN_POINT ( 'NONE',  ( 0.9525948546660852889, -1.506567984599983534, 1.343555032035412156 ) ) ;
#794 = CARTESIAN_POINT ( 'NONE',  ( 0.5570125970960796424, -0.5010385254126107357, 0.7666667000000000343 ) ) ;
#795 = VERTEX_POINT ( 'NONE', #692 ) ;
#796 = FACE_OUTER_BOUND ( 'NONE', #742, .T. ) ;
#797 = EDGE_CURVE ( 'NONE', #624, #823, #83, .T. ) ;
#798 = CARTESIAN_POINT ( 'NONE',  ( -1.273679297096079521, -0.08582531355664400896, 1.466666699999999990 ) ) ;
#799 = EDGE_CURVE ( 'NONE', #463, #584, #820, .T. ) ;
#800 = ORIENTED_EDGE ( 'NONE', *, *, #703, .T. ) ;
#801 = DIRECTION ( 'NONE',  ( -0.8241261886220169197, -0.5664062369248307194, -0.000000000000000000 ) ) ;
#802 = DIRECTION ( 'NONE',  ( 0.000000000000000000, 9.756599977372367405E-17, -1.000000000000000000 ) ) ;
#803 = ADVANCED_FACE ( 'NONE', ( #629 ), #647, .T. ) ;
#804 = ORIENTED_EDGE ( 'NONE', *, *, #748, .T. ) ;
#805 = CYLINDRICAL_SURFACE ( 'NONE', #458, 0.7000000000000000666 ) ;
#806 = DIRECTION ( 'NONE',  ( -1.000000000000000000, 0.000000000000000000, 0.000000000000000000 ) ) ;
#807 = VERTEX_POINT ( 'NONE', #655 ) ;
#808 = CARTESIAN_POINT ( 'NONE',  ( -0.5736792970960794547, -0.4959939866015182774, 1.466666699999999990 ) ) ;
#809 = AXIS2_PLACEMENT_3D ( 'NONE', #469, #126, #397 ) ;
#810 = CARTESIAN_POINT ( 'NONE',  ( -0.3052529241369904001, 0.5797556923857583033, -1.500000000000000222 ) ) ;
#811 = EDGE_LOOP ( 'NONE', ( #637, #721, #746, #579 ) ) ;
#812 = ADVANCED_FACE ( 'NONE', ( #377 ), #372, .F. ) ;
#813 = LINE ( 'NONE', #208, #853 ) ;
#814 = SURFACE_STYLE_FILL_AREA ( #741 ) ;
#815 = ORIENTED_EDGE ( 'NONE', *, *, #457, .T. ) ;
#816 = LINE ( 'NONE', #546, #264 ) ;
#817 = CARTESIAN_POINT ( 'NONE',  ( 0.3052529241369901225, -1.583185951112611622, -1.500000000000000222 ) ) ;
#818 = VERTEX_POINT ( 'NONE', #860 ) ;
#819 = CARTESIAN_POINT ( 'NONE',  ( -1.273679297096079743, 1.000000000000000222, 1.500000000000000222 ) ) ;
#820 =( BOUNDED_CURVE ( )  B_SPLINE_CURVE ( 3, ( #834, #634, #506, #715 ),
 .UNSPECIFIED., .F., .F. ) 
 B_SPLINE_CURVE_WITH_KNOTS ( ( 4, 4 ),
 ( 3.743731245527834428, 4.712388980384689674 ),
 .UNSPECIFIED. ) 
 CURVE ( )  GEOMETRIC_REPRESENTATION_ITEM ( )  RATIONAL_B_SPLINE_CURVE ( ( 1.000000000000000000, 0.9233250916420274734, 0.9233250916420274734, 1.000000000000000000 ) ) 
 REPRESENTATION_ITEM ( '' )  );
#821 = DIRECTION ( 'NONE',  ( -0.000000000000000000, -0.000000000000000000, -1.000000000000000000 ) ) ;
#822 = AXIS2_PLACEMENT_3D ( 'NONE', #171, #848, #855 ) ;
#823 = VERTEX_POINT ( 'NONE', #237 ) ;
#824 = EDGE_CURVE ( 'NONE', #564, #859, #42, .T. ) ;
#825 = CARTESIAN_POINT ( 'NONE',  ( 1.307012597096079753, -0.003430258726854003900, 1.500000000000000222 ) ) ;
#826 = FACE_OUTER_BOUND ( 'NONE', #737, .T. ) ;
#827 = ORIENTED_EDGE ( 'NONE', *, *, #784, .T. ) ;
#828 = ORIENTED_EDGE ( 'NONE', *, *, #723, .T. ) ;
#829 = DIRECTION ( 'NONE',  ( 1.365923996832132349E-16, 1.000000000000000000, -0.000000000000000000 ) ) ;
#830 = DIRECTION ( 'NONE',  ( -1.000000000000000000, 0.000000000000000000, 0.000000000000000000 ) ) ;
#831 = ORIENTED_EDGE ( 'NONE', *, *, #824, .T. ) ;
#832 = CIRCLE ( 'NONE', #699, 0.7000000000000000666 ) ;
#833 = ORIENTED_EDGE ( 'NONE', *, *, #247, .F. ) ;
#834 = CARTESIAN_POINT ( 'NONE',  ( 0.9525948546660852889, -1.506567984599983534, 1.343555032035412156 ) ) ;
#835 = CARTESIAN_POINT ( 'NONE',  ( -0.5736792970960794547, -0.08582531355664391182, 0.7666667000000000343 ) ) ;
#836 = DIRECTION ( 'NONE',  ( 0.000000000000000000, 0.000000000000000000, 1.000000000000000000 ) ) ;
#837 = VECTOR ( 'NONE', #665, 39.37007874015748854 ) ;
#838 = VECTOR ( 'NONE', #296, 39.37007874015748143 ) ;
#839 = DIRECTION ( 'NONE',  ( 0.000000000000000000, 0.000000000000000000, 1.000000000000000000 ) ) ;
#840 = EDGE_CURVE ( 'NONE', #452, #616, #301, .T. ) ;
#841 = CARTESIAN_POINT ( 'NONE',  ( 0.5570125970960794204, -2.003430258726853097, 0.7666667000000000343 ) ) ;
#842 = ORIENTED_EDGE ( 'NONE', *, *, #509, .F. ) ;
#843 = CARTESIAN_POINT ( 'NONE',  ( -0.5561104888187039519, -0.07375060616228161503, -1.500000000000000222 ) ) ;
#844 = AXIS2_PLACEMENT_3D ( 'NONE', #374, #523, #661 ) ;
#845 = DIRECTION ( 'NONE',  ( 1.000000000000000000, 1.365923996832131609E-16, -0.000000000000000000 ) ) ;
#846 = ORIENTED_EDGE ( 'NONE', *, *, #146, .F. ) ;
#847 = ORIENTED_EDGE ( 'NONE', *, *, #28, .T. ) ;
#848 = DIRECTION ( 'NONE',  ( -1.000000000000000000, 1.365923996832132349E-16, 0.000000000000000000 ) ) ;
#849 = CARTESIAN_POINT ( 'NONE',  ( 0.9534969629434612015, -1.505947982758346182, -1.500000000000000222 ) ) ;
#850 = LINE ( 'NONE', #196, #615 ) ;
#851 = EDGE_CURVE ( 'NONE', #490, #452, #328, .T. ) ;
#852 = ORIENTED_EDGE ( 'NONE', *, *, #864, .T. ) ;
#853 = VECTOR ( 'NONE', #669, 39.37007874015748143 ) ;
#854 = AXIS2_PLACEMENT_3D ( 'NONE', #455, #322, #653 ) ;
#855 = DIRECTION ( 'NONE',  ( -1.365923996832132349E-16, -1.000000000000000000, 0.000000000000000000 ) ) ;
#856 = CARTESIAN_POINT ( 'NONE',  ( 0.9527451656895117305, -1.506464678695714987, 1.343658337939680925 ) ) ;
#857 = DIRECTION ( 'NONE',  ( 0.9335804264971999666, -0.3583679495453047648, 0.000000000000000000 ) ) ;
#858 = VECTOR ( 'NONE', #227, 39.37007874015748143 ) ;
#859 = VERTEX_POINT ( 'NONE', #105 ) ;
#860 = CARTESIAN_POINT ( 'NONE',  ( 0.3052529241369900670, -1.583185951112611622, -1.500000000000000222 ) ) ;
#861 = LINE ( 'NONE', #849, #460 ) ;
#862 = DIRECTION ( 'NONE',  ( -0.9335804264971999666, 0.3583679495453048758, -0.000000000000000000 ) ) ;
#863 = ORIENTED_EDGE ( 'NONE', *, *, #576, .T. ) ;
#864 = EDGE_CURVE ( 'NONE', #55, #487, #315, .T. ) ;
#865 = DIRECTION ( 'NONE',  ( 0.9335804264971999666, -0.3583679495453050423, 0.000000000000000000 ) ) ;
#866 = ORIENTED_EDGE ( 'NONE', *, *, #457, .F. ) ;
#867 = PRODUCT_DEFINITION_SHAPE ( 'NONE', 'NONE',  #362 ) ;
#868 = VECTOR ( 'NONE', #857, 39.37007874015748854 ) ;
#869 = ADVANCED_FACE ( 'NONE', ( #367 ), #581, .F. ) ;
#870 = CARTESIAN_POINT ( 'NONE',  ( -1.273679297096079521, -0.4959939866015181109, -1.500000000000000222 ) ) ;
#871 = CARTESIAN_POINT ( 'NONE',  ( -0.5736792970960795657, -0.4959939866015182774, 0.7666667000000000343 ) ) ;
#872 = VERTEX_POINT ( 'NONE', #242 ) ;
#873 = DIRECTION ( 'NONE',  ( -1.000000000000000000, -1.780579495870456660E-15, 0.000000000000000000 ) ) ;
#874 =( NAMED_UNIT ( * ) SI_UNIT ( $, .STERADIAN. ) SOLID_ANGLE_UNIT ( ) );
#875 = ORIENTED_EDGE ( 'NONE', *, *, #286, .F. ) ;
#876 = DIRECTION ( 'NONE',  ( 1.000000000000000000, 1.951319995474473481E-16, 0.000000000000000000 ) ) ;
#877 = CYLINDRICAL_SURFACE ( 'NONE', #34, 0.7000000000000001776 ) ;
ENDSEC;
END-ISO-10303-21;
