ISO-10303-21;
HEADER;
FILE_DESCRIPTION (( 'STEP AP214' ),
    '1' );
FILE_NAME ('LumaBoxV4.STEP',
    '2026-04-10T04:22:36',
    ( '' ),
    ( '' ),
    'SwSTEP 2.0',
    'SolidWorks 2025',
    '' );
FILE_SCHEMA (( 'AUTOMOTIVE_DESIGN' ));
ENDSEC;

DATA;
#1 = CARTESIAN_POINT ( 'NONE',  ( -0.8245368617777929510, -1.149500285149558376, -0.7666667000000000343 ) ) ;
#2 = CARTESIAN_POINT ( 'NONE',  ( 1.257012597096079709, -0.9290596507229341716, -0.7666667000000000343 ) ) ;
#3 = PRODUCT_DEFINITION_SHAPE ( 'NONE', 'NONE',  #854 ) ;
#4 = CARTESIAN_POINT ( 'NONE',  ( 0.9530459088047732452, -1.506257983679164969, -1.343864773469623408 ) ) ;
#5 = VECTOR ( 'NONE', #25, 39.37007874015748143 ) ;
#6 = VECTOR ( 'NONE', #794, 39.37007874015748854 ) ;
#7 = CARTESIAN_POINT ( 'NONE',  ( 1.257012597096079487, -1.297347466767359236, -0.7666667000000000343 ) ) ;
#8 = CARTESIAN_POINT ( 'NONE',  ( 1.307012597096079753, -0.003430258726854003900, -1.466666700000000212 ) ) ;
#9 = LINE ( 'NONE', #15, #5 ) ;
#10 = EDGE_CURVE ( 'NONE', #234, #66, #575, .T. ) ;
#11 = PLANE ( 'NONE',  #453 ) ;
#12 = PLANE ( 'NONE',  #485 ) ;
#13 = DIRECTION ( 'NONE',  ( 0.9335804264972001887, -0.3583679495453048203, 2.115665311188462973E-17 ) ) ;
#14 = VERTEX_POINT ( 'NONE', #733 ) ;
#15 = CARTESIAN_POINT ( 'NONE',  ( -1.307012597096079531, -1.000000000000000222, 1.500000000000000222 ) ) ;
#16 =( BOUNDED_CURVE ( )  B_SPLINE_CURVE ( 3, ( #504, #76, #866, #366 ),
 .UNSPECIFIED., .F., .T. ) 
 B_SPLINE_CURVE_WITH_KNOTS ( ( 4, 4 ),
 ( 4.712388980384689674, 6.283185307179586232 ),
 .UNSPECIFIED. ) 
 CURVE ( )  GEOMETRIC_REPRESENTATION_ITEM ( )  RATIONAL_B_SPLINE_CURVE ( ( 1.000000000000000000, 0.8047378541243649375, 0.8047378541243649375, 1.000000000000000000 ) ) 
 REPRESENTATION_ITEM ( '' )  );
#17 = DIRECTION ( 'NONE',  ( 1.000000000000000000, 1.365923996832131609E-16, -0.000000000000000000 ) ) ;
#18 = EDGE_CURVE ( 'NONE', #267, #846, #16, .T. ) ;
#19 = ORIENTED_EDGE ( 'NONE', *, *, #10, .F. ) ;
#20 = DIRECTION ( 'NONE',  ( 0.000000000000000000, 0.000000000000000000, -1.000000000000000000 ) ) ;
#21 = FACE_OUTER_BOUND ( 'NONE', #300, .T. ) ;
#22 =( GEOMETRIC_REPRESENTATION_CONTEXT ( 3 ) GLOBAL_UNCERTAINTY_ASSIGNED_CONTEXT ( ( #684 ) ) GLOBAL_UNIT_ASSIGNED_CONTEXT ( ( #69, #879, #804 ) ) REPRESENTATION_CONTEXT ( 'NONE', 'WORKASPACE' ) );
#23 = EDGE_CURVE ( 'NONE', #234, #332, #864, .T. ) ;
#24 = ORIENTED_EDGE ( 'NONE', *, *, #783, .T. ) ;
#25 = DIRECTION ( 'NONE',  ( -0.000000000000000000, -0.000000000000000000, -1.000000000000000000 ) ) ;
#26 = ORIENTED_EDGE ( 'NONE', *, *, #399, .F. ) ;
#27 = DIRECTION ( 'NONE',  ( 0.5664062369248308304, -0.8241261886220170307, 0.000000000000000000 ) ) ;
#28 = ORIENTED_EDGE ( 'NONE', *, *, #930, .F. ) ;
#29 = CARTESIAN_POINT ( 'NONE',  ( -0.9701636629434610137, 0.4910630184787678765, 1.343555032035412378 ) ) ;
#30 = ORIENTED_EDGE ( 'NONE', *, *, #586, .T. ) ;
#31 = ORIENTED_EDGE ( 'NONE', *, *, #538, .T. ) ;
#32 = DIRECTION ( 'NONE',  ( 0.000000000000000000, 0.000000000000000000, 1.000000000000000000 ) ) ;
#33 = ADVANCED_FACE ( 'NONE', ( #145 ), #517, .T. ) ;
#34 = CARTESIAN_POINT ( 'NONE',  ( -0.8245368617777929510, -1.149500285149558376, 1.466666699999999990 ) ) ;
#35 = VECTOR ( 'NONE', #671, 39.37007874015748143 ) ;
#36 = AXIS2_PLACEMENT_3D ( 'NONE', #951, #728, #286 ) ;
#37 = ORIENTED_EDGE ( 'NONE', *, *, #462, .T. ) ;
#38 = ORIENTED_EDGE ( 'NONE', *, *, #86, .T. ) ;
#39 = CARTESIAN_POINT ( 'NONE',  ( 0.6535062985480396547, -1.752572694045139823, -1.500000000000000222 ) ) ;
#40 = ORIENTED_EDGE ( 'NONE', *, *, #184, .T. ) ;
#41 =( BOUNDED_CURVE ( )  B_SPLINE_CURVE ( 3, ( #432, #496, #954, #656 ),
 .UNSPECIFIED., .F., .T. ) 
 B_SPLINE_CURVE_WITH_KNOTS ( ( 4, 4 ),
 ( 4.110250388446647918, 4.111032052823890837 ),
 .UNSPECIFIED. ) 
 CURVE ( )  GEOMETRIC_REPRESENTATION_ITEM ( )  RATIONAL_B_SPLINE_CURVE ( ( 1.000000000000000000, 0.9999999490834007299, 0.9999999490834007299, 1.000000000000000000 ) ) 
 REPRESENTATION_ITEM ( '' )  );
#42 = EDGE_LOOP ( 'NONE', ( #925, #619, #407, #682 ) ) ;
#43 = PLANE ( 'NONE',  #943 ) ;
#44 = EDGE_CURVE ( 'NONE', #165, #775, #446, .T. ) ;
#45 = ORIENTED_EDGE ( 'NONE', *, *, #211, .F. ) ;
#46 = EDGE_LOOP ( 'NONE', ( #37, #529, #685, #52 ) ) ;
#47 = EDGE_LOOP ( 'NONE', ( #387, #183, #359 ) ) ;
#48 = VECTOR ( 'NONE', #922, 39.37007874015748143 ) ;
#49 = CARTESIAN_POINT ( 'NONE',  ( 0.8355669933313660813, -1.335325100986709534, -1.424470662659805820 ) ) ;
#50 = AXIS2_PLACEMENT_3D ( 'NONE', #478, #537, #531 ) ;
#51 = VECTOR ( 'NONE', #146, 39.37007874015748143 ) ;
#52 = ORIENTED_EDGE ( 'NONE', *, *, #297, .T. ) ;
#53 = FACE_OUTER_BOUND ( 'NONE', #875, .T. ) ;
#54 = ORIENTED_EDGE ( 'NONE', *, *, #44, .T. ) ;
#55 = EDGE_CURVE ( 'NONE', #568, #669, #369, .T. ) ;
#56 = DIRECTION ( 'NONE',  ( 0.000000000000000000, 0.000000000000000000, 1.000000000000000000 ) ) ;
#57 = CARTESIAN_POINT ( 'NONE',  ( 1.307012597096079531, -2.003430258726853097, 1.500000000000000222 ) ) ;
#58 = CARTESIAN_POINT ( 'NONE',  ( -1.307012597096079531, -1.000000000000000222, -1.500000000000000222 ) ) ;
#59 = ORIENTED_EDGE ( 'NONE', *, *, #930, .T. ) ;
#60 = EDGE_CURVE ( 'NONE', #846, #14, #880, .T. ) ;
#61 = LINE ( 'NONE', #356, #278 ) ;
#62 = CARTESIAN_POINT ( 'NONE',  ( 0.000000000000000000, 0.000000000000000000, 1.466666699999999990 ) ) ;
#63 = CLOSED_SHELL ( 'NONE', ( #430, #830, #729, #837, #623, #455, #270, #285, #226, #345, #415, #756, #374, #113, #33, #569, #448, #363, #585, #417, #766, #842, #735, #178, #516, #213, #616, #703, #142, #799 ) ) ;
#64 = CARTESIAN_POINT ( 'NONE',  ( 1.307012597096079753, -0.003430258726854003900, 1.500000000000000222 ) ) ;
#65 = AXIS2_PLACEMENT_3D ( 'NONE', #806, #13, #748 ) ;
#66 = VERTEX_POINT ( 'NONE', #1 ) ;
#67 = DIRECTION ( 'NONE',  ( -0.9335804264971999666, 0.3583679495453047648, -0.000000000000000000 ) ) ;
#68 = CARTESIAN_POINT ( 'NONE',  ( 1.307012597096079753, -0.003430258726854003900, 1.500000000000000222 ) ) ;
#69 =( CONVERSION_BASED_UNIT ( 'INCH', #607 ) LENGTH_UNIT ( ) NAMED_UNIT ( #895 ) );
#70 = CARTESIAN_POINT ( 'NONE',  ( 1.207012597096079887, -0.5034302587268540963, 0.2500000000000000000 ) ) ;
#71 = CARTESIAN_POINT ( 'NONE',  ( 1.207012597096079887, -0.5034302587268540963, 0.2500000000000000000 ) ) ;
#72 = EDGE_CURVE ( 'NONE', #891, #846, #791, .T. ) ;
#73 = CYLINDRICAL_SURFACE ( 'NONE', #36, 0.7000000000000000666 ) ;
#74 = EDGE_CURVE ( 'NONE', #488, #622, #189, .T. ) ;
#75 = CARTESIAN_POINT ( 'NONE',  ( 0.000000000000000000, 0.000000000000000000, -1.466666699999999990 ) ) ;
#76 = CARTESIAN_POINT ( 'NONE',  ( 0.9670631034349131960, 0.1270641256181699041, -1.466666699999999546 ) ) ;
#77 = LINE ( 'NONE', #305, #439 ) ;
#78 = AXIS2_PLACEMENT_3D ( 'NONE', #95, #27, #237 ) ;
#79 = EDGE_CURVE ( 'NONE', #275, #337, #192, .T. ) ;
#80 = VECTOR ( 'NONE', #708, 39.37007874015748143 ) ;
#81 = DIRECTION ( 'NONE',  ( -0.9335804264971999666, 0.3583679495453047648, 0.000000000000000000 ) ) ;
#82 = CARTESIAN_POINT ( 'NONE',  ( -1.295067010723500944, -0.9688806835694409036, 0.7666667000000000343 ) ) ;
#83 = DIRECTION ( 'NONE',  ( 0.000000000000000000, 0.000000000000000000, -1.000000000000000000 ) ) ;
#84 = ORIENTED_EDGE ( 'NONE', *, *, #86, .F. ) ;
#85 = CARTESIAN_POINT ( 'NONE',  ( 0.9530459088047732452, -1.506257983679165191, 1.343864773469623408 ) ) ;
#86 = EDGE_CURVE ( 'NONE', #320, #326, #719, .T. ) ;
#87 = DIRECTION ( 'NONE',  ( 0.000000000000000000, 0.000000000000000000, -1.000000000000000000 ) ) ;
#88 = LINE ( 'NONE', #470, #678 ) ;
#89 = EDGE_LOOP ( 'NONE', ( #24, #915, #711 ) ) ;
#90 = CARTESIAN_POINT ( 'NONE',  ( -1.164105887939668404, 0.3577702201700458384, 1.210262233726689951 ) ) ;
#91 = CARTESIAN_POINT ( 'NONE',  ( 1.307012597096079753, -0.5034302587268542073, -0.2500000000000000000 ) ) ;
#92 = FACE_OUTER_BOUND ( 'NONE', #46, .T. ) ;
#93 = DIRECTION ( 'NONE',  ( -0.9335804264971999666, 0.3583679495453050423, 0.000000000000000000 ) ) ;
#94 = VECTOR ( 'NONE', #893, 39.37007874015748143 ) ;
#95 = CARTESIAN_POINT ( 'NONE',  ( -0.6535062985480399878, 0.7491424353182866147, -1.500000000000000222 ) ) ;
#96 = AXIS2_PLACEMENT_3D ( 'NONE', #281, #362, #726 ) ;
#97 = CARTESIAN_POINT ( 'NONE',  ( 1.307012597096079753, -0.003430258726854131836, -0.2500000000000000000 ) ) ;
#98 = ORIENTED_EDGE ( 'NONE', *, *, #549, .F. ) ;
#99 = CARTESIAN_POINT ( 'NONE',  ( 1.307012597096079753, -0.003430258726854003900, 1.500000000000000222 ) ) ;
#100 = ORIENTED_EDGE ( 'NONE', *, *, #74, .F. ) ;
#101 = LINE ( 'NONE', #889, #474 ) ;
#102 = ORIENTED_EDGE ( 'NONE', *, *, #888, .F. ) ;
#103 = EDGE_CURVE ( 'NONE', #524, #679, #948, .T. ) ;
#104 = FACE_OUTER_BOUND ( 'NONE', #454, .T. ) ;
#105 = DIRECTION ( 'NONE',  ( 1.000000000000000000, 0.000000000000000000, 0.000000000000000000 ) ) ;
#106 = ORIENTED_EDGE ( 'NONE', *, *, #266, .T. ) ;
#107 = DIRECTION ( 'NONE',  ( -0.8241261886220169197, -0.5664062369248307194, 0.000000000000000000 ) ) ;
#108 = STYLED_ITEM ( 'NONE', ( #736 ), #396 ) ;
#109 = AXIS2_PLACEMENT_3D ( 'NONE', #821, #20, #826 ) ;
#110 = VERTEX_POINT ( 'NONE', #135 ) ;
#111 = PRODUCT_DEFINITION_FORMATION_WITH_SPECIFIED_SOURCE ( 'ANY', '', #618, .NOT_KNOWN. ) ;
#112 =( BOUNDED_CURVE ( )  B_SPLINE_CURVE ( 3, ( #155, #810, #668, #386 ),
 .UNSPECIFIED., .F., .T. ) 
 B_SPLINE_CURVE_WITH_KNOTS ( ( 4, 4 ),
 ( 4.772520387195205771, 5.314527572322729654 ),
 .UNSPECIFIED. ) 
 CURVE ( )  GEOMETRIC_REPRESENTATION_ITEM ( )  RATIONAL_B_SPLINE_CURVE ( ( 1.000000000000000000, 0.9756684809136058067, 0.9756684809136058067, 1.000000000000000000 ) ) 
 REPRESENTATION_ITEM ( '' )  );
#113 = ADVANCED_FACE ( 'NONE', ( #287 ), #511, .T. ) ;
#114 = DIRECTION ( 'NONE',  ( -0.000000000000000000, -0.000000000000000000, 1.000000000000000000 ) ) ;
#115 = EDGE_LOOP ( 'NONE', ( #163, #253, #952, #19, #341, #227 ) ) ;
#116 = DIRECTION ( 'NONE',  ( 0.000000000000000000, 0.000000000000000000, -1.000000000000000000 ) ) ;
#117 = APPLICATION_CONTEXT ( 'automotive_design' ) ;
#118 = ORIENTED_EDGE ( 'NONE', *, *, #597, .F. ) ;
#119 = DIRECTION ( 'NONE',  ( -0.000000000000000000, -0.000000000000000000, 1.000000000000000000 ) ) ;
#120 = ORIENTED_EDGE ( 'NONE', *, *, #518, .F. ) ;
#121 = DIRECTION ( 'NONE',  ( -0.000000000000000000, -0.000000000000000000, 1.000000000000000000 ) ) ;
#122 = ORIENTED_EDGE ( 'NONE', *, *, #634, .F. ) ;
#123 = ORIENTED_EDGE ( 'NONE', *, *, #902, .T. ) ;
#124 = DIRECTION ( 'NONE',  ( 1.000000000000000000, 1.365923996832131609E-16, -0.000000000000000000 ) ) ;
#125 = EDGE_CURVE ( 'NONE', #865, #494, #716, .T. ) ;
#126 = ORIENTED_EDGE ( 'NONE', *, *, #811, .F. ) ;
#127 = CARTESIAN_POINT ( 'NONE',  ( -0.6346261095307534905, 0.7216715898350922753, -1.500000000000000222 ) ) ;
#128 = DIRECTION ( 'NONE',  ( 0.8241261886220169197, 0.5664062369248308304, -0.000000000000000000 ) ) ;
#129 = EDGE_CURVE ( 'NONE', #946, #413, #61, .T. ) ;
#130 = DIRECTION ( 'NONE',  ( -1.365923996832132349E-16, -1.000000000000000000, 0.000000000000000000 ) ) ;
#131 = ORIENTED_EDGE ( 'NONE', *, *, #629, .T. ) ;
#132 = CARTESIAN_POINT ( 'NONE',  ( 0.5249530958188511898, -1.667520945512385611, -1.001997438998221579 ) ) ;
#133 = CARTESIAN_POINT ( 'NONE',  ( -1.307012597096079753, 0.3000000000000000999, 1.500000000000000222 ) ) ;
#134 = ORIENTED_EDGE ( 'NONE', *, *, #103, .T. ) ;
#135 = CARTESIAN_POINT ( 'NONE',  ( 0.9534969629434612015, -1.505947982758346182, -1.343555032035411934 ) ) ;
#136 = DIRECTION ( 'NONE',  ( -1.365923996832132349E-16, -1.000000000000000000, 1.365923996832131609E-16 ) ) ;
#137 = VECTOR ( 'NONE', #787, 39.37007874015748143 ) ;
#138 = LINE ( 'NONE', #144, #662 ) ;
#139 = VECTOR ( 'NONE', #93, 39.37007874015748143 ) ;
#140 = EDGE_CURVE ( 'NONE', #332, #843, #725, .T. ) ;
#141 = FACE_OUTER_BOUND ( 'NONE', #42, .T. ) ;
#142 = ADVANCED_FACE ( 'NONE', ( #141 ), #730, .F. ) ;
#143 = CARTESIAN_POINT ( 'NONE',  ( -1.273679297096079521, -0.08582531355664400896, 0.7666667000000000343 ) ) ;
#144 = CARTESIAN_POINT ( 'NONE',  ( 1.257012597096079487, -2.003430258726853097, -0.2500000000000000555 ) ) ;
#145 = FACE_OUTER_BOUND ( 'NONE', #839, .T. ) ;
#146 = DIRECTION ( 'NONE',  ( 0.000000000000000000, -0.000000000000000000, 1.000000000000000000 ) ) ;
#147 = PLANE ( 'NONE',  #293 ) ;
#148 = LINE ( 'NONE', #672, #294 ) ;
#149 = CARTESIAN_POINT ( 'NONE',  ( 1.257012597096079487, -1.164390389721155827, 1.001997438998221801 ) ) ;
#150 = ORIENTED_EDGE ( 'NONE', *, *, #606, .T. ) ;
#151 = EDGE_CURVE ( 'NONE', #382, #234, #688, .T. ) ;
#152 = FACE_OUTER_BOUND ( 'NONE', #648, .T. ) ;
#153 = PRESENTATION_LAYER_ASSIGNMENT (  '', '', ( #108 ) ) ;
#154 = VECTOR ( 'NONE', #282, 39.37007874015748143 ) ;
#155 = CARTESIAN_POINT ( 'NONE',  ( -0.6157459205134669933, 0.7346475842414725843, 1.465401556146635587 ) ) ;
#156 = ORIENTED_EDGE ( 'NONE', *, *, #597, .T. ) ;
#157 = DIRECTION ( 'NONE',  ( 0.3583679495453048203, 0.9335804264972000777, -0.000000000000000000 ) ) ;
#158 = CARTESIAN_POINT ( 'NONE',  ( 0.9527451656895115084, -1.506464678695714543, -1.343658337939680925 ) ) ;
#159 = VERTEX_POINT ( 'NONE', #223 ) ;
#160 = CARTESIAN_POINT ( 'NONE',  ( 1.257012597096079709, -0.5034302587268538742, 1.499999999999999778 ) ) ;
#161 = CARTESIAN_POINT ( 'NONE',  ( -0.9701636629434610137, 0.4910630184787678765, -1.343555032035412156 ) ) ;
#162 = LINE ( 'NONE', #613, #604 ) ;
#163 = ORIENTED_EDGE ( 'NONE', *, *, #715, .T. ) ;
#164 = DIRECTION ( 'NONE',  ( -1.000000000000000000, -1.365923996832131609E-16, 0.000000000000000000 ) ) ;
#165 = VERTEX_POINT ( 'NONE', #544 ) ;
#166 = CIRCLE ( 'NONE', #620, 0.6999999999999999556 ) ;
#167 = DIRECTION ( 'NONE',  ( 1.000000000000000000, 0.000000000000000000, 0.000000000000000000 ) ) ;
#168 = AXIS2_PLACEMENT_3D ( 'NONE', #209, #944, #449 ) ;
#169 = EDGE_CURVE ( 'NONE', #497, #536, #900, .T. ) ;
#170 = ORIENTED_EDGE ( 'NONE', *, *, #125, .F. ) ;
#171 =( BOUNDED_CURVE ( )  B_SPLINE_CURVE ( 3, ( #172, #457, #394, #906 ),
 .UNSPECIFIED., .F., .T. ) 
 B_SPLINE_CURVE_WITH_KNOTS ( ( 4, 4 ),
 ( 3.743731245527834428, 4.712388980384689674 ),
 .UNSPECIFIED. ) 
 CURVE ( )  GEOMETRIC_REPRESENTATION_ITEM ( )  RATIONAL_B_SPLINE_CURVE ( ( 1.000000000000000000, 0.9233250916420274734, 0.9233250916420274734, 1.000000000000000000 ) ) 
 REPRESENTATION_ITEM ( '' )  );
#172 = CARTESIAN_POINT ( 'NONE',  ( 0.9525948546660852889, -1.506567984599983534, 1.343555032035412156 ) ) ;
#173 = ORIENTED_EDGE ( 'NONE', *, *, #325, .T. ) ;
#174 = ORIENTED_EDGE ( 'NONE', *, *, #184, .F. ) ;
#175 = DIRECTION ( 'NONE',  ( -0.9335804264971999666, 0.3583679495453047648, 0.000000000000000000 ) ) ;
#176 = ORIENTED_EDGE ( 'NONE', *, *, #60, .F. ) ;
#177 = LINE ( 'NONE', #776, #801 ) ;
#178 = ADVANCED_FACE ( 'NONE', ( #816 ), #522, .F. ) ;
#179 = ORIENTED_EDGE ( 'NONE', *, *, #950, .T. ) ;
#180 = CARTESIAN_POINT ( 'NONE',  ( -0.6535062985480399878, 0.7491424353182866147, -1.500000000000000222 ) ) ;
#181 = VECTOR ( 'NONE', #67, 39.37007874015748854 ) ;
#182 = SHAPE_DEFINITION_REPRESENTATION ( #3, #484 ) ;
#183 = ORIENTED_EDGE ( 'NONE', *, *, #848, .T. ) ;
#184 = EDGE_CURVE ( 'NONE', #865, #187, #403, .T. ) ;
#185 = EDGE_LOOP ( 'NONE', ( #202, #28, #551, #547 ) ) ;
#186 = DIRECTION ( 'NONE',  ( -1.000000000000000000, 0.000000000000000000, -0.000000000000000000 ) ) ;
#187 = VERTEX_POINT ( 'NONE', #676 ) ;
#188 = ORIENTED_EDGE ( 'NONE', *, *, #743, .T. ) ;
#189 =( BOUNDED_CURVE ( )  B_SPLINE_CURVE ( 3, ( #431, #499, #953, #291 ),
 .UNSPECIFIED., .F., .T. ) 
 B_SPLINE_CURVE_WITH_KNOTS ( ( 4, 4 ),
 ( 4.712388980384689674, 5.313745907945487623 ),
 .UNSPECIFIED. ) 
 CURVE ( )  GEOMETRIC_REPRESENTATION_ITEM ( )  RATIONAL_B_SPLINE_CURVE ( ( 1.000000000000000000, 0.9700905130049665148, 0.9700905130049665148, 1.000000000000000000 ) ) 
 REPRESENTATION_ITEM ( '' )  );
#190 = ORIENTED_EDGE ( 'NONE', *, *, #610, .F. ) ;
#191 = EDGE_CURVE ( 'NONE', #630, #495, #101, .T. ) ;
#192 = LINE ( 'NONE', #651, #883 ) ;
#193 = VECTOR ( 'NONE', #797, 39.37007874015748143 ) ;
#194 = AXIS2_PLACEMENT_3D ( 'NONE', #642, #352, #195 ) ;
#195 = DIRECTION ( 'NONE',  ( 0.3583679495453048758, 0.9335804264972000777, 0.000000000000000000 ) ) ;
#196 = AXIS2_PLACEMENT_3D ( 'NONE', #343, #552, #927 ) ;
#197 = CARTESIAN_POINT ( 'NONE',  ( 1.307012597096079753, -0.003430258726854003900, -0.2500000000000000555 ) ) ;
#198 = ORIENTED_EDGE ( 'NONE', *, *, #878, .T. ) ;
#199 = CARTESIAN_POINT ( 'NONE',  ( 0.3052529241369901225, -1.583185951112611622, -0.7666667000000000343 ) ) ;
#200 = PLANE ( 'NONE',  #757 ) ;
#201 = LINE ( 'NONE', #506, #6 ) ;
#202 = ORIENTED_EDGE ( 'NONE', *, *, #947, .F. ) ;
#203 = DIRECTION ( 'NONE',  ( -0.000000000000000000, -0.000000000000000000, -1.000000000000000000 ) ) ;
#204 = DIRECTION ( 'NONE',  ( 1.000000000000000000, 0.000000000000000000, -0.000000000000000000 ) ) ;
#205 = PLANE ( 'NONE',  #420 ) ;
#206 = DIRECTION ( 'NONE',  ( 0.5664062369248308304, -0.8241261886220170307, 0.000000000000000000 ) ) ;
#207 = FACE_OUTER_BOUND ( 'NONE', #334, .T. ) ;
#208 = AXIS2_PLACEMENT_3D ( 'NONE', #814, #87, #666 ) ;
#209 = CARTESIAN_POINT ( 'NONE',  ( -0.2396186264903238661, -0.6242278635668822018, -0.7666667000000000343 ) ) ;
#210 = VECTOR ( 'NONE', #383, 39.37007874015748143 ) ;
#211 = EDGE_CURVE ( 'NONE', #909, #497, #148, .T. ) ;
#212 = DIRECTION ( 'NONE',  ( -9.756599977372369870E-17, -1.000000000000000000, -0.000000000000000000 ) ) ;
#213 = ADVANCED_FACE ( 'NONE', ( #21 ), #314, .F. ) ;
#214 = CARTESIAN_POINT ( 'NONE',  ( 1.257012597096079709, 0.01576294302491708377, 1.500000000000000222 ) ) ;
#215 = CARTESIAN_POINT ( 'NONE',  ( 0.6535062985480396547, -1.752572694045139823, 1.500000000000000222 ) ) ;
#216 = FACE_OUTER_BOUND ( 'NONE', #603, .T. ) ;
#217 = CARTESIAN_POINT ( 'NONE',  ( -0.5736792970960794547, -0.4959939866015181109, -1.466666699999999990 ) ) ;
#218 = DIRECTION ( 'NONE',  ( 1.365923996832132349E-16, 1.000000000000000000, 0.000000000000000000 ) ) ;
#219 = EDGE_CURVE ( 'NONE', #759, #382, #738, .T. ) ;
#220 = DIRECTION ( 'NONE',  ( -0.8241261886220169197, -0.5664062369248307194, -0.000000000000000000 ) ) ;
#221 = ORIENTED_EDGE ( 'NONE', *, *, #559, .T. ) ;
#222 = CARTESIAN_POINT ( 'NONE',  ( 0.9525948546660852889, -1.506567984599983534, 1.343555032035412156 ) ) ;
#223 = CARTESIAN_POINT ( 'NONE',  ( -0.6535062985480399878, 0.7491424353182866147, 1.500000000000000222 ) ) ;
#224 = LINE ( 'NONE', #465, #51 ) ;
#225 = UNCERTAINTY_MEASURE_WITH_UNIT (LENGTH_MEASURE( 1.000000000000000082E-05 ), #673, 'distance_accuracy_value', 'NONE');
#226 = ADVANCED_FACE ( 'NONE', ( #667 ), #12, .T. ) ;
#227 = ORIENTED_EDGE ( 'NONE', *, *, #259, .F. ) ;
#228 = CYLINDRICAL_SURFACE ( 'NONE', #109, 0.7000000000000001776 ) ;
#229 = CIRCLE ( 'NONE', #739, 0.7000000000000001776 ) ;
#230 = FACE_OUTER_BOUND ( 'NONE', #248, .T. ) ;
#231 = VECTOR ( 'NONE', #83, 39.37007874015748143 ) ;
#232 = CARTESIAN_POINT ( 'NONE',  ( 0.9530459088047732452, -1.506257983679164969, -1.343864773469623408 ) ) ;
#233 = CARTESIAN_POINT ( 'NONE',  ( 1.257012597096079709, 0.01576294302491708377, -0.7666667000000001453 ) ) ;
#234 = VERTEX_POINT ( 'NONE', #745 ) ;
#235 = CARTESIAN_POINT ( 'NONE',  ( -0.9701636629434610137, 0.4910630184787678765, -1.343555032035412156 ) ) ;
#236 = CARTESIAN_POINT ( 'NONE',  ( 0.9525948546660852889, -1.506567984599983534, -1.343555032035411934 ) ) ;
#237 = DIRECTION ( 'NONE',  ( 0.8241261886220169197, 0.5664062369248307194, 0.000000000000000000 ) ) ;
#238 = CARTESIAN_POINT ( 'NONE',  ( 1.257012597096079709, -0.9290596507229341716, 0.7666667000000000343 ) ) ;
#239 = ORIENTED_EDGE ( 'NONE', *, *, #872, .T. ) ;
#240 = DIRECTION ( 'NONE',  ( 1.365923996832132349E-16, 1.000000000000000000, -0.000000000000000000 ) ) ;
#241 = EDGE_CURVE ( 'NONE', #404, #741, #88, .T. ) ;
#242 = ORIENTED_EDGE ( 'NONE', *, *, #125, .T. ) ;
#243 = ORIENTED_EDGE ( 'NONE', *, *, #940, .T. ) ;
#244 = CARTESIAN_POINT ( 'NONE',  ( 0.9670631034349134181, 0.1270641256181698209, 1.466666699999999546 ) ) ;
#245 = AXIS2_PLACEMENT_3D ( 'NONE', #127, #206, #426 ) ;
#246 = ORIENTED_EDGE ( 'NONE', *, *, #950, .F. ) ;
#247 = AXIS2_PLACEMENT_3D ( 'NONE', #639, #116, #186 ) ;
#248 = EDGE_LOOP ( 'NONE', ( #707, #477, #566, #693 ) ) ;
#249 = CARTESIAN_POINT ( 'NONE',  ( -0.5736792970960794547, -0.4959939866015179999, -0.7666667000000000343 ) ) ;
#250 = ORIENTED_EDGE ( 'NONE', *, *, #129, .T. ) ;
#251 = DIRECTION ( 'NONE',  ( 1.365923996832131609E-16, -1.000000000000000000, 0.000000000000000000 ) ) ;
#252 = EDGE_CURVE ( 'NONE', #785, #614, #771, .T. ) ;
#253 = ORIENTED_EDGE ( 'NONE', *, *, #241, .F. ) ;
#254 = CARTESIAN_POINT ( 'NONE',  ( 0.5570125970960796424, -0.9300259394879639707, -1.466666699999999990 ) ) ;
#255 = ORIENTED_EDGE ( 'NONE', *, *, #862, .F. ) ;
#256 = LINE ( 'NONE', #338, #512 ) ;
#257 = ORIENTED_EDGE ( 'NONE', *, *, #501, .F. ) ;
#258 = CARTESIAN_POINT ( 'NONE',  ( 0.5570125970960796424, -0.9300259394879639707, -1.466666699999999990 ) ) ;
#259 = EDGE_CURVE ( 'NONE', #483, #332, #698, .T. ) ;
#260 = ORIENTED_EDGE ( 'NONE', *, *, #564, .T. ) ;
#261 = AXIS2_PLACEMENT_3D ( 'NONE', #309, #321, #533 ) ;
#262 = ORIENTED_EDGE ( 'NONE', *, *, #317, .T. ) ;
#263 = CARTESIAN_POINT ( 'NONE',  ( -0.5736792970960794547, -0.4959939866015182774, -0.7666667000000000343 ) ) ;
#264 =( BOUNDED_CURVE ( )  B_SPLINE_CURVE ( 3, ( #29, #90, #473, #605 ),
 .UNSPECIFIED., .F., .T. ) 
 B_SPLINE_CURVE_WITH_KNOTS ( ( 4, 4 ),
 ( 3.743731245527833984, 4.712388980384689674 ),
 .UNSPECIFIED. ) 
 CURVE ( )  GEOMETRIC_REPRESENTATION_ITEM ( )  RATIONAL_B_SPLINE_CURVE ( ( 1.000000000000000000, 0.9233250916420274734, 0.9233250916420274734, 1.000000000000000000 ) ) 
 REPRESENTATION_ITEM ( '' )  );
#265 = ORIENTED_EDGE ( 'NONE', *, *, #715, .F. ) ;
#266 = EDGE_CURVE ( 'NONE', #841, #775, #304, .T. ) ;
#267 = VERTEX_POINT ( 'NONE', #747 ) ;
#268 = DIRECTION ( 'NONE',  ( -0.000000000000000000, 0.000000000000000000, -1.000000000000000000 ) ) ;
#269 = ORIENTED_EDGE ( 'NONE', *, *, #811, .T. ) ;
#270 = ADVANCED_FACE ( 'NONE', ( #92 ), #904, .F. ) ;
#271 = EDGE_CURVE ( 'NONE', #326, #494, #769, .T. ) ;
#272 = VERTEX_POINT ( 'NONE', #692 ) ;
#273 = DIRECTION ( 'NONE',  ( 1.000000000000000000, 0.000000000000000000, 0.000000000000000000 ) ) ;
#274 = CARTESIAN_POINT ( 'NONE',  ( 0.5570125970960796424, -0.9300259394879643038, 1.466666699999999990 ) ) ;
#275 = VERTEX_POINT ( 'NONE', #861 ) ;
#276 = EDGE_CURVE ( 'NONE', #66, #759, #913, .T. ) ;
#277 = CARTESIAN_POINT ( 'NONE',  ( -0.9701636629434610137, 0.4910630184787678765, -1.466666700000000212 ) ) ;
#278 = VECTOR ( 'NONE', #437, 39.37007874015748143 ) ;
#279 = EDGE_CURVE ( 'NONE', #275, #946, #768, .T. ) ;
#280 = AXIS2_PLACEMENT_3D ( 'NONE', #742, #240, #307 ) ;
#281 = CARTESIAN_POINT ( 'NONE',  ( -0.5736792970960794547, -0.4959939866015182774, 0.7666667000000000343 ) ) ;
#282 = DIRECTION ( 'NONE',  ( 1.365923996832131609E-16, -1.000000000000000000, 0.000000000000000000 ) ) ;
#283 = ORIENTED_EDGE ( 'NONE', *, *, #151, .F. ) ;
#284 = FACE_OUTER_BOUND ( 'NONE', #722, .T. ) ;
#285 = ADVANCED_FACE ( 'NONE', ( #624 ), #43, .F. ) ;
#286 = DIRECTION ( 'NONE',  ( 1.000000000000000000, -1.365923996832132595E-16, 0.000000000000000000 ) ) ;
#287 = FACE_OUTER_BOUND ( 'NONE', #306, .T. ) ;
#288 = PLANE ( 'NONE',  #344 ) ;
#289 = EDGE_CURVE ( 'NONE', #770, #481, #414, .T. ) ;
#290 = CARTESIAN_POINT ( 'NONE',  ( 1.257012597096079487, -2.003430258726853097, 1.500000000000000222 ) ) ;
#291 = CARTESIAN_POINT ( 'NONE',  ( 0.9530459088047732452, -1.506257983679165191, 1.343864773469623408 ) ) ;
#292 = CARTESIAN_POINT ( 'NONE',  ( 1.147439187939668148, -1.372655184449623977, -1.210262233726689729 ) ) ;
#293 = AXIS2_PLACEMENT_3D ( 'NONE', #751, #157, #81 ) ;
#294 = VECTOR ( 'NONE', #527, 39.37007874015748143 ) ;
#295 = CARTESIAN_POINT ( 'NONE',  ( -1.273679297096079743, 0.2824625024877807089, -0.7666667000000000343 ) ) ;
#296 = AXIS2_PLACEMENT_3D ( 'NONE', #263, #924, #558 ) ;
#297 = EDGE_CURVE ( 'NONE', #909, #770, #335, .T. ) ;
#298 = CARTESIAN_POINT ( 'NONE',  ( 0.3052529241369901225, -1.583185951112611622, -1.466666699999999990 ) ) ;
#299 = LINE ( 'NONE', #215, #562 ) ;
#300 = EDGE_LOOP ( 'NONE', ( #611, #689, #764, #246, #919, #931 ) ) ;
#301 = LINE ( 'NONE', #595, #210 ) ;
#302 = LINE ( 'NONE', #91, #35 ) ;
#303 = CARTESIAN_POINT ( 'NONE',  ( -1.307012597096079531, -1.000000000000000222, -1.500000000000000222 ) ) ;
#304 =( BOUNDED_CURVE ( )  B_SPLINE_CURVE ( 3, ( #683, #540, #752, #161 ),
 .UNSPECIFIED., .F., .T. ) 
 B_SPLINE_CURVE_WITH_KNOTS ( ( 4, 4 ),
 ( 4.712388980384689674, 5.681046715241545364 ),
 .UNSPECIFIED. ) 
 CURVE ( )  GEOMETRIC_REPRESENTATION_ITEM ( )  RATIONAL_B_SPLINE_CURVE ( ( 1.000000000000000000, 0.9233250916420274734, 0.9233250916420274734, 1.000000000000000000 ) ) 
 REPRESENTATION_ITEM ( '' )  );
#305 = CARTESIAN_POINT ( 'NONE',  ( 0.5570125970960797535, -7.608368729113234649E-17, 1.466666699999999990 ) ) ;
#306 = EDGE_LOOP ( 'NONE', ( #242, #179, #54, #221 ) ) ;
#307 = DIRECTION ( 'NONE',  ( -1.000000000000000000, 0.000000000000000000, 0.000000000000000000 ) ) ;
#308 = FILL_AREA_STYLE ('',( #521 ) ) ;
#309 = CARTESIAN_POINT ( 'NONE',  ( -0.5736792970960794547, -0.4959939866015179999, 0.7666667000000000343 ) ) ;
#310 = EDGE_LOOP ( 'NONE', ( #98, #400, #625, #283 ) ) ;
#311 = CARTESIAN_POINT ( 'NONE',  ( 0.6535062985480398767, -1.752572694045139823, -1.500000000000000222 ) ) ;
#312 = VECTOR ( 'NONE', #203, 39.37007874015748143 ) ;
#313 = AXIS2_PLACEMENT_3D ( 'NONE', #64, #444, #717 ) ;
#314 = CYLINDRICAL_SURFACE ( 'NONE', #928, 0.7000000000000000666 ) ;
#315 = LINE ( 'NONE', #593, #856 ) ;
#316 = ORIENTED_EDGE ( 'NONE', *, *, #796, .T. ) ;
#317 = EDGE_CURVE ( 'NONE', #337, #790, #256, .T. ) ;
#318 = FACE_OUTER_BOUND ( 'NONE', #398, .T. ) ;
#319 = EDGE_CURVE ( 'NONE', #790, #159, #850, .T. ) ;
#320 = VERTEX_POINT ( 'NONE', #632 ) ;
#321 = DIRECTION ( 'NONE',  ( 9.756599977372368637E-17, -1.000000000000000000, -3.902639990948947455E-16 ) ) ;
#322 = CARTESIAN_POINT ( 'NONE',  ( -0.6157459205134669933, 0.7346475842414725843, -1.465401556146635809 ) ) ;
#323 = ORIENTED_EDGE ( 'NONE', *, *, #553, .F. ) ;
#324 = DIRECTION ( 'NONE',  ( -0.9335804264971999666, 0.3583679495453047648, -0.000000000000000000 ) ) ;
#325 = EDGE_CURVE ( 'NONE', #858, #404, #166, .T. ) ;
#326 = VERTEX_POINT ( 'NONE', #591 ) ;
#327 = DIRECTION ( 'NONE',  ( 1.000000000000000000, -1.365923996832132349E-16, -0.000000000000000000 ) ) ;
#328 = VECTOR ( 'NONE', #570, 39.37007874015748143 ) ;
#329 = ORIENTED_EDGE ( 'NONE', *, *, #289, .T. ) ;
#330 = VECTOR ( 'NONE', #615, 39.37007874015748143 ) ;
#331 = CARTESIAN_POINT ( 'NONE',  ( -0.5736792970960803428, 0.7184997204361588397, 1.466666699999999990 ) ) ;
#332 = VERTEX_POINT ( 'NONE', #236 ) ;
#333 = DIRECTION ( 'NONE',  ( 1.000000000000000000, 0.000000000000000000, -0.000000000000000000 ) ) ;
#334 = EDGE_LOOP ( 'NONE', ( #860, #687, #640, #774 ) ) ;
#335 = LINE ( 'NONE', #628, #48 ) ;
#336 = LINE ( 'NONE', #493, #945 ) ;
#337 = VERTEX_POINT ( 'NONE', #539 ) ;
#338 = CARTESIAN_POINT ( 'NONE',  ( 1.307012597096079753, -0.003430258726854003900, -1.500000000000000222 ) ) ;
#339 = ORIENTED_EDGE ( 'NONE', *, *, #912, .T. ) ;
#340 = CARTESIAN_POINT ( 'NONE',  ( 1.257012597096079709, -0.5034302587268540963, 0.2500000000000000555 ) ) ;
#341 = ORIENTED_EDGE ( 'NONE', *, *, #23, .T. ) ;
#342 = VECTOR ( 'NONE', #251, 39.37007874015748143 ) ;
#343 = CARTESIAN_POINT ( 'NONE',  ( 0.000000000000000000, 0.000000000000000000, 0.000000000000000000 ) ) ;
#344 = AXIS2_PLACEMENT_3D ( 'NONE', #57, #424, #712 ) ;
#345 = ADVANCED_FACE ( 'NONE', ( #230 ), #147, .T. ) ;
#346 = ORIENTED_EDGE ( 'NONE', *, *, #319, .T. ) ;
#347 = EDGE_LOOP ( 'NONE', ( #460, #851, #122, #561 ) ) ;
#348 = DIRECTION ( 'NONE',  ( -1.000000000000000000, 0.000000000000000000, 0.000000000000000000 ) ) ;
#349 = DIRECTION ( 'NONE',  ( -1.365923996832132349E-16, -1.000000000000000000, 0.000000000000000000 ) ) ;
#350 = ORIENTED_EDGE ( 'NONE', *, *, #888, .T. ) ;
#351 = DIRECTION ( 'NONE',  ( -0.000000000000000000, -1.000000000000000000, -0.000000000000000000 ) ) ;
#352 = DIRECTION ( 'NONE',  ( 0.9335804264972000777, -0.3583679495453048203, 0.000000000000000000 ) ) ;
#353 = FACE_OUTER_BOUND ( 'NONE', #911, .T. ) ;
#354 = ORIENTED_EDGE ( 'NONE', *, *, #79, .F. ) ;
#355 = EDGE_CURVE ( 'NONE', #187, #404, #887, .T. ) ;
#356 = CARTESIAN_POINT ( 'NONE',  ( 1.307012597096079531, -2.003430258726853097, 1.500000000000000222 ) ) ;
#357 = AXIS2_PLACEMENT_3D ( 'NONE', #71, #136, #367 ) ;
#358 = CARTESIAN_POINT ( 'NONE',  ( 1.257012597096079487, -1.164390389721155827, -1.001997438998221801 ) ) ;
#359 = ORIENTED_EDGE ( 'NONE', *, *, #325, .F. ) ;
#360 = EDGE_CURVE ( 'NONE', #785, #326, #828, .T. ) ;
#361 = CARTESIAN_POINT ( 'NONE',  ( 0.9525948546660852889, -1.506567984599983534, 1.466666700000000212 ) ) ;
#362 = DIRECTION ( 'NONE',  ( 0.9335804264971999666, -0.3583679495453048758, 0.000000000000000000 ) ) ;
#363 = ADVANCED_FACE ( 'NONE', ( #375 ), #526, .F. ) ;
#364 = CARTESIAN_POINT ( 'NONE',  ( 0.000000000000000000, 0.000000000000000000, -1.500000000000000222 ) ) ;
#365 =( BOUNDED_CURVE ( )  B_SPLINE_CURVE ( 3, ( #833, #910, #244, #675 ),
 .UNSPECIFIED., .F., .T. ) 
 B_SPLINE_CURVE_WITH_KNOTS ( ( 4, 4 ),
 ( 3.141592653589793116, 4.712388980384689674 ),
 .UNSPECIFIED. ) 
 CURVE ( )  GEOMETRIC_REPRESENTATION_ITEM ( )  RATIONAL_B_SPLINE_CURVE ( ( 1.000000000000000000, 0.8047378541243649375, 0.8047378541243649375, 1.000000000000000000 ) ) 
 REPRESENTATION_ITEM ( '' )  );
#366 = CARTESIAN_POINT ( 'NONE',  ( 1.257012597096079709, 0.01576294302491708377, -0.7666667000000001453 ) ) ;
#367 = DIRECTION ( 'NONE',  ( 1.000000000000000000, -1.365923996832132349E-16, 0.000000000000000000 ) ) ;
#368 = DIRECTION ( 'NONE',  ( 1.000000000000000000, 0.000000000000000000, -0.000000000000000000 ) ) ;
#369 = LINE ( 'NONE', #508, #838 ) ;
#370 = CARTESIAN_POINT ( 'NONE',  ( 1.307012597096079531, -1.303430258726853141, 1.500000000000000222 ) ) ;
#371 = AXIS2_PLACEMENT_3D ( 'NONE', #596, #167, #476 ) ;
#372 = VECTOR ( 'NONE', #373, 39.37007874015748143 ) ;
#373 = DIRECTION ( 'NONE',  ( 1.865748365121865971E-32, 1.365923996832131609E-16, 1.000000000000000000 ) ) ;
#374 = ADVANCED_FACE ( 'NONE', ( #450 ), #11, .T. ) ;
#375 = FACE_OUTER_BOUND ( 'NONE', #310, .T. ) ;
#376 = DIRECTION ( 'NONE',  ( 0.9335804264971999666, -0.3583679495453047648, 0.000000000000000000 ) ) ;
#377 = ORIENTED_EDGE ( 'NONE', *, *, #781, .T. ) ;
#378 = LINE ( 'NONE', #99, #330 ) ;
#379 = DIRECTION ( 'NONE',  ( 1.000000000000000000, 0.000000000000000000, -0.000000000000000000 ) ) ;
#380 = CARTESIAN_POINT ( 'NONE',  ( -0.6017385067967149226, 0.7292706418917495048, -1.466244858284335928 ) ) ;
#381 = LENGTH_MEASURE_WITH_UNIT ( LENGTH_MEASURE( 0.02539999999999999897 ), #896 );
#382 = VERTEX_POINT ( 'NONE', #463 ) ;
#383 = DIRECTION ( 'NONE',  ( 0.000000000000000000, 0.000000000000000000, 1.000000000000000000 ) ) ;
#384 = DIRECTION ( 'NONE',  ( 0.9335804264971999666, -0.3583679495453047648, 0.000000000000000000 ) ) ;
#385 = EDGE_CURVE ( 'NONE', #702, #917, #302, .T. ) ;
#386 = CARTESIAN_POINT ( 'NONE',  ( -0.9701636629434610137, 0.4910630184787678765, 1.343555032035412378 ) ) ;
#387 = ORIENTED_EDGE ( 'NONE', *, *, #634, .T. ) ;
#388 = DIMENSIONAL_EXPONENTS ( 1.000000000000000000, 0.000000000000000000, 0.000000000000000000, 0.000000000000000000, 0.000000000000000000, 0.000000000000000000, 0.000000000000000000 ) ;
#389 = CARTESIAN_POINT ( 'NONE',  ( -0.8646413708554009370, 0.5635864805388890453, -1.416078494095533324 ) ) ;
#390 = VECTOR ( 'NONE', #119, 39.37007874015748143 ) ;
#391 = VECTOR ( 'NONE', #128, 39.37007874015748854 ) ;
#392 = DIRECTION ( 'NONE',  ( 1.000000000000000000, 1.951319995474473481E-16, 0.000000000000000000 ) ) ;
#393 = EDGE_LOOP ( 'NONE', ( #106, #812, #31, #190 ) ) ;
#394 = CARTESIAN_POINT ( 'NONE',  ( 0.5249530958188516339, -1.667520945512385611, 1.001997438998221801 ) ) ;
#395 = EDGE_LOOP ( 'NONE', ( #654, #507, #700, #706 ) ) ;
#396 = MANIFOLD_SOLID_BREP ( 'Cut-Extrude2', #63 ) ;
#397 = DIRECTION ( 'NONE',  ( 0.000000000000000000, -0.000000000000000000, 1.000000000000000000 ) ) ;
#398 = EDGE_LOOP ( 'NONE', ( #174, #819, #849, #26, #173, #780 ) ) ;
#399 = EDGE_CURVE ( 'NONE', #858, #841, #647, .T. ) ;
#400 = ORIENTED_EDGE ( 'NONE', *, *, #140, .F. ) ;
#401 = ORIENTED_EDGE ( 'NONE', *, *, #191, .F. ) ;
#402 = DIRECTION ( 'NONE',  ( 0.000000000000000000, 0.000000000000000000, 1.000000000000000000 ) ) ;
#403 =( BOUNDED_CURVE ( )  B_SPLINE_CURVE ( 3, ( #908, #380, #760, #458 ),
 .UNSPECIFIED., .F., .T. ) 
 B_SPLINE_CURVE_WITH_KNOTS ( ( 4, 4 ),
 ( 1.510664919984380683, 1.570796326794895892 ),
 .UNSPECIFIED. ) 
 CURVE ( )  GEOMETRIC_REPRESENTATION_ITEM ( )  RATIONAL_B_SPLINE_CURVE ( ( 1.000000000000000000, 0.9996987071899905430, 0.9996987071899905430, 1.000000000000000000 ) ) 
 REPRESENTATION_ITEM ( '' )  );
#404 = VERTEX_POINT ( 'NONE', #217 ) ;
#405 = VECTOR ( 'NONE', #268, 39.37007874015748143 ) ;
#406 = CARTESIAN_POINT ( 'NONE',  ( -0.6017385067967149226, 0.7292706418917497269, 1.466244858284335928 ) ) ;
#407 = ORIENTED_EDGE ( 'NONE', *, *, #191, .T. ) ;
#408 = CARTESIAN_POINT ( 'NONE',  ( 1.307012597096079753, -0.5034302587268542073, -0.2500000000000000000 ) ) ;
#409 = CARTESIAN_POINT ( 'NONE',  ( -0.5877120729272443667, 0.7238863983894573417, 1.466666699999999990 ) ) ;
#410 = PRODUCT_CONTEXT ( 'NONE', #534, 'mechanical' ) ;
#411 = ORIENTED_EDGE ( 'NONE', *, *, #241, .T. ) ;
#412 = CARTESIAN_POINT ( 'NONE',  ( 0.9530459088047732452, -1.506257983679164969, -1.343864773469623408 ) ) ;
#413 = VERTEX_POINT ( 'NONE', #441 ) ;
#414 = LINE ( 'NONE', #482, #342 ) ;
#415 = ADVANCED_FACE ( 'NONE', ( #353 ), #515, .T. ) ;
#416 = LINE ( 'NONE', #920, #80 ) ;
#417 = ADVANCED_FACE ( 'NONE', ( #882 ), #938, .F. ) ;
#418 = ORIENTED_EDGE ( 'NONE', *, *, #697, .T. ) ;
#419 = CARTESIAN_POINT ( 'NONE',  ( -0.6157459205134669933, 0.7346475842414725843, 1.465401556146635587 ) ) ;
#420 = AXIS2_PLACEMENT_3D ( 'NONE', #364, #657, #368 ) ;
#421 = AXIS2_PLACEMENT_3D ( 'NONE', #840, #813, #164 ) ;
#422 = ORIENTED_EDGE ( 'NONE', *, *, #72, .F. ) ;
#423 = EDGE_CURVE ( 'NONE', #891, #272, #138, .T. ) ;
#424 = DIRECTION ( 'NONE',  ( -1.000000000000000000, 1.365923996832132349E-16, 0.000000000000000000 ) ) ;
#425 = ORIENTED_EDGE ( 'NONE', *, *, #279, .F. ) ;
#426 = DIRECTION ( 'NONE',  ( 0.8241261886220169197, 0.5664062369248307194, 0.000000000000000000 ) ) ;
#427 = CARTESIAN_POINT ( 'NONE',  ( -0.8245368617777929510, -1.149500285149558376, 0.7666667000000000343 ) ) ;
#428 = CARTESIAN_POINT ( 'NONE',  ( 1.257012597096079709, 0.01576294302491705254, 0.2500000000000000555 ) ) ;
#429 = ORIENTED_EDGE ( 'NONE', *, *, #491, .F. ) ;
#430 = ADVANCED_FACE ( 'NONE', ( #216 ), #590, .F. ) ;
#431 = CARTESIAN_POINT ( 'NONE',  ( 0.5570125970960796424, -0.9300259394879643038, 1.466666699999999990 ) ) ;
#432 = CARTESIAN_POINT ( 'NONE',  ( 0.9534969629434612015, -1.505947982758346182, -1.343555032035411934 ) ) ;
#433 = CARTESIAN_POINT ( 'NONE',  ( 0.9534969629434612015, -1.505947982758346182, 1.343555032035411934 ) ) ;
#434 = VERTEX_POINT ( 'NONE', #433 ) ;
#435 = EDGE_CURVE ( 'NONE', #778, #614, #584, .T. ) ;
#436 =( BOUNDED_CURVE ( )  B_SPLINE_CURVE ( 3, ( #720, #292, #358, #2 ),
 .UNSPECIFIED., .F., .T. ) 
 B_SPLINE_CURVE_WITH_KNOTS ( ( 4, 4 ),
 ( 0.6021385919380413121, 1.570796326794896780 ),
 .UNSPECIFIED. ) 
 CURVE ( )  GEOMETRIC_REPRESENTATION_ITEM ( )  RATIONAL_B_SPLINE_CURVE ( ( 1.000000000000000000, 0.9233250916420274734, 0.9233250916420274734, 1.000000000000000000 ) ) 
 REPRESENTATION_ITEM ( '' )  );
#437 = DIRECTION ( 'NONE',  ( 1.365923996832132349E-16, 1.000000000000000000, 0.000000000000000000 ) ) ;
#438 = AXIS2_PLACEMENT_3D ( 'NONE', #70, #397, #835 ) ;
#439 = VECTOR ( 'NONE', #452, 39.37007874015748143 ) ;
#440 = CARTESIAN_POINT ( 'NONE',  ( 0.9530459088047732452, -1.506257983679165191, 1.343864773469623408 ) ) ;
#441 = CARTESIAN_POINT ( 'NONE',  ( 1.307012597096079753, -0.003430258726854003900, 1.500000000000000222 ) ) ;
#442 = CARTESIAN_POINT ( 'NONE',  ( 1.307012597096079753, -0.003430258726854003900, 1.466666699999999990 ) ) ;
#443 = LINE ( 'NONE', #68, #773 ) ;
#444 = DIRECTION ( 'NONE',  ( -0.3583679495453050423, -0.9335804264971999666, 0.000000000000000000 ) ) ;
#445 = DIRECTION ( 'NONE',  ( 1.365923996832131609E-16, -1.000000000000000000, 0.000000000000000000 ) ) ;
#446 = LINE ( 'NONE', #277, #312 ) ;
#447 = CARTESIAN_POINT ( 'NONE',  ( 0.5570125970960797535, 0.01576294302491718091, -1.466666699999999990 ) ) ;
#448 = ADVANCED_FACE ( 'NONE', ( #653 ), #73, .F. ) ;
#449 = DIRECTION ( 'NONE',  ( -0.3583679495453049313, -0.9335804264972000777, 0.000000000000000000 ) ) ;
#450 = FACE_OUTER_BOUND ( 'NONE', #554, .T. ) ;
#451 = DIRECTION ( 'NONE',  ( 1.365923996832131609E-16, -1.000000000000000000, 0.000000000000000000 ) ) ;
#452 = DIRECTION ( 'NONE',  ( -1.365923996832132349E-16, -1.000000000000000000, 0.000000000000000000 ) ) ;
#453 = AXIS2_PLACEMENT_3D ( 'NONE', #75, #660, #379 ) ;
#454 = EDGE_LOOP ( 'NONE', ( #777, #939, #257, #150 ) ) ;
#455 = ADVANCED_FACE ( 'NONE', ( #581 ), #205, .F. ) ;
#456 = AXIS2_PLACEMENT_3D ( 'NONE', #290, #798, #130 ) ;
#457 = CARTESIAN_POINT ( 'NONE',  ( 0.7586526296698783423, -1.639860782908706405, 1.210262233726689507 ) ) ;
#458 = CARTESIAN_POINT ( 'NONE',  ( -0.5736792970960801208, 0.7184997204361588397, -1.466666700000000212 ) ) ;
#459 = DIRECTION ( 'NONE',  ( 1.365923996832132349E-16, 1.000000000000000000, -0.000000000000000000 ) ) ;
#460 = ORIENTED_EDGE ( 'NONE', *, *, #753, .F. ) ;
#461 = FACE_OUTER_BOUND ( 'NONE', #185, .T. ) ;
#462 = EDGE_CURVE ( 'NONE', #770, #159, #807, .T. ) ;
#463 = CARTESIAN_POINT ( 'NONE',  ( 0.3052529241369901225, -1.583185951112611622, 0.7666667000000000343 ) ) ;
#464 = CARTESIAN_POINT ( 'NONE',  ( 0.9525948546660852889, -1.506567984599983534, -1.343555032035411934 ) ) ;
#465 = CARTESIAN_POINT ( 'NONE',  ( 1.257012597096079709, -0.9290596507229341716, 1.466666699999999990 ) ) ;
#466 = ORIENTED_EDGE ( 'NONE', *, *, #79, .T. ) ;
#467 = LINE ( 'NONE', #160, #372 ) ;
#468 = DIRECTION ( 'NONE',  ( -1.000000000000000000, 9.756599977372369870E-17, 0.000000000000000000 ) ) ;
#469 = EDGE_CURVE ( 'NONE', #630, #669, #659, .T. ) ;
#470 = CARTESIAN_POINT ( 'NONE',  ( 0.8999367851951802777, -1.061662202042930492, -1.466666699999999990 ) ) ;
#471 = DIRECTION ( 'NONE',  ( 0.000000000000000000, 0.000000000000000000, -1.000000000000000000 ) ) ;
#472 = ORIENTED_EDGE ( 'NONE', *, *, #501, .T. ) ;
#473 = CARTESIAN_POINT ( 'NONE',  ( -1.273679297096079521, 0.1495054254415779382, 1.001997438998222023 ) ) ;
#474 = VECTOR ( 'NONE', #218, 39.37007874015748143 ) ;
#475 = ORIENTED_EDGE ( 'NONE', *, *, #902, .F. ) ;
#476 = DIRECTION ( 'NONE',  ( 0.000000000000000000, -1.000000000000000000, -1.951319995474473974E-16 ) ) ;
#477 = ORIENTED_EDGE ( 'NONE', *, *, #151, .T. ) ;
#478 = CARTESIAN_POINT ( 'NONE',  ( 0.5570125970960796424, -0.9290596507229340606, 1.500000000000000222 ) ) ;
#479 = ORIENTED_EDGE ( 'NONE', *, *, #610, .T. ) ;
#480 = ORIENTED_EDGE ( 'NONE', *, *, #878, .F. ) ;
#481 = VERTEX_POINT ( 'NONE', #643 ) ;
#482 = CARTESIAN_POINT ( 'NONE',  ( -1.307012597096079753, 1.000000000000000222, 1.500000000000000222 ) ) ;
#483 = VERTEX_POINT ( 'NONE', #4 ) ;
#484 = ADVANCED_BREP_SHAPE_REPRESENTATION ( 'LumaBoxV4', ( #396, #196 ), #885 ) ;
#485 = AXIS2_PLACEMENT_3D ( 'NONE', #608, #17, #894 ) ;
#486 = ORIENTED_EDGE ( 'NONE', *, *, #932, .F. ) ;
#487 = CIRCLE ( 'NONE', #65, 0.7000000000000001776 ) ;
#488 = VERTEX_POINT ( 'NONE', #274 ) ;
#489 = FACE_OUTER_BOUND ( 'NONE', #638, .T. ) ;
#490 = ORIENTED_EDGE ( 'NONE', *, *, #827, .T. ) ;
#491 = EDGE_CURVE ( 'NONE', #891, #917, #868, .T. ) ;
#492 = ORIENTED_EDGE ( 'NONE', *, *, #665, .F. ) ;
#493 = CARTESIAN_POINT ( 'NONE',  ( 0.6535062985480396547, -1.752572694045139823, -1.500000000000000222 ) ) ;
#494 = VERTEX_POINT ( 'NONE', #789 ) ;
#495 = VERTEX_POINT ( 'NONE', #428 ) ;
#496 = CARTESIAN_POINT ( 'NONE',  ( 0.9533466519200352041, -1.506051288662614507, -1.343658337939680703 ) ) ;
#497 = VERTEX_POINT ( 'NONE', #58 ) ;
#498 = AXIS2_PLACEMENT_3D ( 'NONE', #62, #877, #204 ) ;
#499 = CARTESIAN_POINT ( 'NONE',  ( 0.6994857698443135430, -1.137325692180254588, 1.466666699999999990 ) ) ;
#500 = CARTESIAN_POINT ( 'NONE',  ( 0.9525948546660852889, -1.506567984599983534, 1.343555032035412156 ) ) ;
#501 = EDGE_CURVE ( 'NONE', #481, #718, #201, .T. ) ;
#502 = DIRECTION ( 'NONE',  ( 0.9335804264971999666, -0.3583679495453050423, 0.000000000000000000 ) ) ;
#503 = ORIENTED_EDGE ( 'NONE', *, *, #783, .F. ) ;
#504 = CARTESIAN_POINT ( 'NONE',  ( 0.5570125970960796424, 0.2844677675497123137, -1.466666700000000212 ) ) ;
#505 = DIRECTION ( 'NONE',  ( -0.9335804264971999666, 0.3583679495453050423, 0.000000000000000000 ) ) ;
#506 = CARTESIAN_POINT ( 'NONE',  ( -1.307012597096079531, -1.000000000000000222, 1.500000000000000222 ) ) ;
#507 = ORIENTED_EDGE ( 'NONE', *, *, #297, .F. ) ;
#508 = CARTESIAN_POINT ( 'NONE',  ( 1.307012597096079753, -0.5034302587268540963, 0.2500000000000000000 ) ) ;
#509 = FACE_OUTER_BOUND ( 'NONE', #347, .T. ) ;
#510 = CARTESIAN_POINT ( 'NONE',  ( 1.207012597096079887, -0.5034302587268540963, 0.2500000000000000000 ) ) ;
#511 = PLANE ( 'NONE',  #245 ) ;
#512 = VECTOR ( 'NONE', #555, 39.37007874015748143 ) ;
#513 = AXIS2_PLACEMENT_3D ( 'NONE', #886, #576, #273 ) ;
#514 = CARTESIAN_POINT ( 'NONE',  ( -0.5736792970960795657, -0.4959939866015182774, 0.7666667000000000343 ) ) ;
#515 = PLANE ( 'NONE',  #456 ) ;
#516 = ADVANCED_FACE ( 'NONE', ( #318 ), #670, .F. ) ;
#517 = PLANE ( 'NONE',  #723 ) ;
#518 = EDGE_CURVE ( 'NONE', #272, #630, #467, .T. ) ;
#519 = LINE ( 'NONE', #8, #139 ) ;
#520 = CARTESIAN_POINT ( 'NONE',  ( -1.273679297096079743, 1.000000000000000222, 0.7666667000000000343 ) ) ;
#521 = FILL_AREA_STYLE_COLOUR ( '', #573 ) ;
#522 = SPHERICAL_SURFACE ( 'NONE', #371, 0.7000000000000000666 ) ;
#523 = LINE ( 'NONE', #528, #786 ) ;
#524 = VERTEX_POINT ( 'NONE', #609 ) ;
#525 = FACE_OUTER_BOUND ( 'NONE', #393, .T. ) ;
#526 = CYLINDRICAL_SURFACE ( 'NONE', #208, 0.7000000000000000666 ) ;
#527 = DIRECTION ( 'NONE',  ( 1.365923996832131609E-16, -1.000000000000000000, 0.000000000000000000 ) ) ;
#528 = CARTESIAN_POINT ( 'NONE',  ( -1.273679297096079521, -0.4959939866015180554, -1.466666700000000212 ) ) ;
#529 = ORIENTED_EDGE ( 'NONE', *, *, #319, .F. ) ;
#530 = VECTOR ( 'NONE', #721, 39.37007874015748143 ) ;
#531 = DIRECTION ( 'NONE',  ( -1.000000000000000000, 0.000000000000000000, 0.000000000000000000 ) ) ;
#532 = SURFACE_STYLE_USAGE ( .BOTH. , #808 ) ;
#533 = DIRECTION ( 'NONE',  ( 0.000000000000000000, -3.902639990948946962E-16, 1.000000000000000000 ) ) ;
#534 = APPLICATION_CONTEXT ( 'automotive_design' ) ;
#535 = DIRECTION ( 'NONE',  ( 0.000000000000000000, -1.365923996832131609E-16, -1.000000000000000000 ) ) ;
#536 = VERTEX_POINT ( 'NONE', #311 ) ;
#537 = DIRECTION ( 'NONE',  ( 0.000000000000000000, 0.000000000000000000, -1.000000000000000000 ) ) ;
#538 = EDGE_CURVE ( 'NONE', #165, #778, #264, .T. ) ;
#539 = CARTESIAN_POINT ( 'NONE',  ( 1.307012597096079753, -0.003430258726854003900, -1.500000000000000222 ) ) ;
#540 = CARTESIAN_POINT ( 'NONE',  ( -1.273679297096079521, 0.1495054254415776884, -1.001997438998221801 ) ) ;
#541 = CARTESIAN_POINT ( 'NONE',  ( 1.147439187939668148, -1.372655184449623977, 1.210262233726689729 ) ) ;
#542 = ORIENTED_EDGE ( 'NONE', *, *, #423, .F. ) ;
#543 = ORIENTED_EDGE ( 'NONE', *, *, #724, .T. ) ;
#544 = CARTESIAN_POINT ( 'NONE',  ( -0.9701636629434610137, 0.4910630184787678765, 1.343555032035412378 ) ) ;
#545 = ORIENTED_EDGE ( 'NONE', *, *, #947, .T. ) ;
#546 = VECTOR ( 'NONE', #661, 39.37007874015748143 ) ;
#547 = ORIENTED_EDGE ( 'NONE', *, *, #629, .F. ) ;
#548 = ORIENTED_EDGE ( 'NONE', *, *, #219, .F. ) ;
#549 = EDGE_CURVE ( 'NONE', #843, #382, #171, .T. ) ;
#550 = CARTESIAN_POINT ( 'NONE',  ( 0.6535062985480396547, -1.752572694045139823, -1.500000000000000222 ) ) ;
#551 = ORIENTED_EDGE ( 'NONE', *, *, #827, .F. ) ;
#552 = DIRECTION ( 'NONE',  ( 0.000000000000000000, 0.000000000000000000, 1.000000000000000000 ) ) ;
#553 = EDGE_CURVE ( 'NONE', #488, #785, #903, .T. ) ;
#554 = EDGE_LOOP ( 'NONE', ( #411, #198, #123, #923 ) ) ;
#555 = DIRECTION ( 'NONE',  ( -0.9335804264971999666, 0.3583679495453050423, 0.000000000000000000 ) ) ;
#556 = APPLICATION_PROTOCOL_DEFINITION ( 'draft international standard', 'automotive_design', 1998, #534 ) ;
#557 = ORIENTED_EDGE ( 'NONE', *, *, #564, .F. ) ;
#558 = DIRECTION ( 'NONE',  ( 0.000000000000000000, 1.000000000000000000, 1.951319995474473481E-16 ) ) ;
#559 = EDGE_CURVE ( 'NONE', #775, #865, #793, .T. ) ;
#560 = VECTOR ( 'NONE', #384, 39.37007874015748854 ) ;
#561 = ORIENTED_EDGE ( 'NONE', *, *, #912, .F. ) ;
#562 = VECTOR ( 'NONE', #220, 39.37007874015748854 ) ;
#563 = DIRECTION ( 'NONE',  ( -0.000000000000000000, -0.000000000000000000, 1.000000000000000000 ) ) ;
#564 = EDGE_CURVE ( 'NONE', #917, #337, #378, .T. ) ;
#565 = ORIENTED_EDGE ( 'NONE', *, *, #279, .T. ) ;
#566 = ORIENTED_EDGE ( 'NONE', *, *, #10, .T. ) ;
#567 = LINE ( 'NONE', #550, #855 ) ;
#568 = VERTEX_POINT ( 'NONE', #686 ) ;
#569 = ADVANCED_FACE ( 'NONE', ( #461 ), #746, .F. ) ;
#570 = DIRECTION ( 'NONE',  ( 0.000000000000000000, 0.000000000000000000, -1.000000000000000000 ) ) ;
#571 = CARTESIAN_POINT ( 'NONE',  ( 0.9533466519200347600, -1.506051288662614951, 1.343658337939680925 ) ) ;
#572 = ORIENTED_EDGE ( 'NONE', *, *, #385, .F. ) ;
#573 = COLOUR_RGB ( '',0.7921568627450980005, 0.8196078431372548767, 0.9333333333333333481 ) ;
#574 = VECTOR ( 'NONE', #502, 39.37007874015748143 ) ;
#575 = LINE ( 'NONE', #587, #181 ) ;
#576 = DIRECTION ( 'NONE',  ( 0.000000000000000000, 0.000000000000000000, 1.000000000000000000 ) ) ;
#577 = DIRECTION ( 'NONE',  ( 0.8241261886220169197, 0.5664062369248308304, -0.000000000000000000 ) ) ;
#578 = ORIENTED_EDGE ( 'NONE', *, *, #940, .F. ) ;
#579 = CARTESIAN_POINT ( 'NONE',  ( 0.6346261095307530464, -1.725101848561945594, -1.500000000000000222 ) ) ;
#580 = DIRECTION ( 'NONE',  ( -0.000000000000000000, 0.000000000000000000, -1.000000000000000000 ) ) ;
#581 = FACE_OUTER_BOUND ( 'NONE', #936, .T. ) ;
#582 = CARTESIAN_POINT ( 'NONE',  ( 1.257012597096079487, -2.003430258726853097, 0.7666667000000000343 ) ) ;
#583 = FACE_OUTER_BOUND ( 'NONE', #870, .T. ) ;
#584 = LINE ( 'NONE', #520, #154 ) ;
#585 = ADVANCED_FACE ( 'NONE', ( #152 ), #664, .F. ) ;
#586 = EDGE_CURVE ( 'NONE', #679, #320, #365, .T. ) ;
#587 = CARTESIAN_POINT ( 'NONE',  ( -1.273679297096079521, -0.9770906576226450202, -0.7666667000000000343 ) ) ;
#588 = AXIS2_PLACEMENT_3D ( 'NONE', #844, #635, #175 ) ;
#589 = CARTESIAN_POINT ( 'NONE',  ( -0.9701636629434610137, 0.4910630184787678765, -1.343555032035412156 ) ) ;
#590 = PLANE ( 'NONE',  #313 ) ;
#591 = CARTESIAN_POINT ( 'NONE',  ( -0.5736792970960803428, 0.7184997204361588397, 1.466666699999999990 ) ) ;
#592 = DIRECTION ( 'NONE',  ( -0.000000000000000000, -0.000000000000000000, -1.000000000000000000 ) ) ;
#593 = CARTESIAN_POINT ( 'NONE',  ( 1.307012597096079753, -0.003430258726854003900, 1.500000000000000222 ) ) ;
#594 = EDGE_LOOP ( 'NONE', ( #102, #250, #377, #905, #329, #472 ) ) ;
#595 = CARTESIAN_POINT ( 'NONE',  ( -1.273679297096079521, -0.08582531355664400896, 1.466666699999999990 ) ) ;
#596 = CARTESIAN_POINT ( 'NONE',  ( -0.5736792970960794547, -0.4959939866015181664, 0.7666667000000000343 ) ) ;
#597 = EDGE_CURVE ( 'NONE', #843, #622, #899, .T. ) ;
#598 = LINE ( 'NONE', #447, #680 ) ;
#599 = ORIENTED_EDGE ( 'NONE', *, *, #781, .F. ) ;
#600 = CARTESIAN_POINT ( 'NONE',  ( 0.9527451656895117305, -1.506464678695714987, 1.343658337939680925 ) ) ;
#601 = SURFACE_STYLE_FILL_AREA ( #308 ) ;
#602 =( NAMED_UNIT ( * ) PLANE_ANGLE_UNIT ( ) SI_UNIT ( $, .RADIAN. ) );
#603 = EDGE_LOOP ( 'NONE', ( #422, #691, #260, #262, #346, #599, #749, #907, #578, #30, #38, #933, #170, #40, #475, #901 ) ) ;
#604 = VECTOR ( 'NONE', #535, 39.37007874015748143 ) ;
#605 = CARTESIAN_POINT ( 'NONE',  ( -1.273679297096079521, -0.08582531355664400896, 0.7666667000000000343 ) ) ;
#606 = EDGE_CURVE ( 'NONE', #481, #497, #9, .T. ) ;
#607 = LENGTH_MEASURE_WITH_UNIT ( LENGTH_MEASURE( 0.02539999999999999897 ), #822 );
#608 = CARTESIAN_POINT ( 'NONE',  ( -1.273679297096079743, 1.000000000000000222, 1.500000000000000222 ) ) ;
#609 = CARTESIAN_POINT ( 'NONE',  ( 1.257012597096079709, -0.9290596507229341716, 0.7666667000000000343 ) ) ;
#610 = EDGE_CURVE ( 'NONE', #841, #778, #301, .T. ) ;
#611 = ORIENTED_EDGE ( 'NONE', *, *, #252, .T. ) ;
#612 = DIRECTION ( 'NONE',  ( 0.9335804264971999666, -0.3583679495453047648, 0.000000000000000000 ) ) ;
#613 = CARTESIAN_POINT ( 'NONE',  ( 1.307012597096079753, -0.5034302587268540963, 0.2500000000000000000 ) ) ;
#614 = VERTEX_POINT ( 'NONE', #892 ) ;
#615 = DIRECTION ( 'NONE',  ( -0.000000000000000000, -0.000000000000000000, -1.000000000000000000 ) ) ;
#616 = ADVANCED_FACE ( 'NONE', ( #525 ), #228, .F. ) ;
#617 = ORIENTED_EDGE ( 'NONE', *, *, #423, .T. ) ;
#618 = PRODUCT ( 'LumaBoxV4', 'LumaBoxV4', '', ( #410 ) ) ;
#619 = ORIENTED_EDGE ( 'NONE', *, *, #469, .F. ) ;
#620 = AXIS2_PLACEMENT_3D ( 'NONE', #926, #212, #468 ) ;
#621 = CARTESIAN_POINT ( 'NONE',  ( 0.6535062985480396547, -1.752572694045139823, 1.500000000000000222 ) ) ;
#622 = VERTEX_POINT ( 'NONE', #695 ) ;
#623 = ADVANCED_FACE ( 'NONE', ( #779 ), #626, .T. ) ;
#624 = FACE_OUTER_BOUND ( 'NONE', #767, .T. ) ;
#625 = ORIENTED_EDGE ( 'NONE', *, *, #23, .F. ) ;
#626 = PLANE ( 'NONE',  #869 ) ;
#627 = ORIENTED_EDGE ( 'NONE', *, *, #140, .T. ) ;
#628 = CARTESIAN_POINT ( 'NONE',  ( -1.307012597096079753, 0.3000000000000000999, -1.500000000000000222 ) ) ;
#629 = EDGE_CURVE ( 'NONE', #434, #110, #690, .T. ) ;
#630 = VERTEX_POINT ( 'NONE', #340 ) ;
#631 = ORIENTED_EDGE ( 'NONE', *, *, #385, .T. ) ;
#632 = CARTESIAN_POINT ( 'NONE',  ( 0.5570125970960794204, 0.2844677675497123692, 1.466666699999999990 ) ) ;
#633 = APPLICATION_PROTOCOL_DEFINITION ( 'draft international standard', 'automotive_design', 1998, #117 ) ;
#634 = EDGE_CURVE ( 'NONE', #858, #66, #817, .T. ) ;
#635 = DIRECTION ( 'NONE',  ( 0.3583679495453048203, 0.9335804264972000777, -0.000000000000000000 ) ) ;
#636 = ORIENTED_EDGE ( 'NONE', *, *, #74, .T. ) ;
#637 = AXIS2_PLACEMENT_3D ( 'NONE', #249, #32, #105 ) ;
#638 = EDGE_LOOP ( 'NONE', ( #617, #418, #631, #429 ) ) ;
#639 = CARTESIAN_POINT ( 'NONE',  ( 1.207012597096079887, -0.5034302587268542073, -0.2500000000000000000 ) ) ;
#640 = ORIENTED_EDGE ( 'NONE', *, *, #862, .T. ) ;
#641 = ORIENTED_EDGE ( 'NONE', *, *, #872, .F. ) ;
#642 = CARTESIAN_POINT ( 'NONE',  ( -1.044209446041787448, -0.3153743850214009159, 0.7666667000000000343 ) ) ;
#643 = CARTESIAN_POINT ( 'NONE',  ( -1.307012597096079531, -1.000000000000000222, 1.500000000000000222 ) ) ;
#644 = ORIENTED_EDGE ( 'NONE', *, *, #103, .F. ) ;
#645 = CARTESIAN_POINT ( 'NONE',  ( 0.7586526296698776761, -1.639860782908705517, -1.210262233726689285 ) ) ;
#646 = DIRECTION ( 'NONE',  ( -1.365923996832131609E-16, 1.000000000000000000, 0.000000000000000000 ) ) ;
#647 = LINE ( 'NONE', #295, #530 ) ;
#648 = EDGE_LOOP ( 'NONE', ( #545, #674, #100, #641, #761, #644 ) ) ;
#649 = VECTOR ( 'NONE', #376, 39.37007874015748854 ) ;
#650 = VECTOR ( 'NONE', #324, 39.37007874015748854 ) ;
#651 = CARTESIAN_POINT ( 'NONE',  ( 1.307012597096079531, -2.003430258726853097, -1.500000000000000222 ) ) ;
#652 = CARTESIAN_POINT ( 'NONE',  ( -1.307012597096079753, 1.000000000000000222, 1.500000000000000222 ) ) ;
#653 = FACE_OUTER_BOUND ( 'NONE', #834, .T. ) ;
#654 = ORIENTED_EDGE ( 'NONE', *, *, #289, .F. ) ;
#655 = DIRECTION ( 'NONE',  ( 0.000000000000000000, -0.000000000000000000, 1.000000000000000000 ) ) ;
#656 = CARTESIAN_POINT ( 'NONE',  ( 0.9530459088047732452, -1.506257983679164969, -1.343864773469623408 ) ) ;
#657 = DIRECTION ( 'NONE',  ( 0.000000000000000000, 0.000000000000000000, 1.000000000000000000 ) ) ;
#658 = DIRECTION ( 'NONE',  ( -0.5664062369248308304, 0.8241261886220170307, 0.000000000000000000 ) ) ;
#659 = LINE ( 'NONE', #510, #884 ) ;
#660 = DIRECTION ( 'NONE',  ( 0.000000000000000000, 0.000000000000000000, 1.000000000000000000 ) ) ;
#661 = DIRECTION ( 'NONE',  ( -1.365923996832132349E-16, -1.000000000000000000, -0.000000000000000000 ) ) ;
#662 = VECTOR ( 'NONE', #349, 39.37007874015748143 ) ;
#663 = CARTESIAN_POINT ( 'NONE',  ( -1.307012597096079753, 0.3000000000000000999, -1.500000000000000222 ) ) ;
#664 = CYLINDRICAL_SURFACE ( 'NONE', #280, 0.7000000000000000666 ) ;
#665 = EDGE_CURVE ( 'NONE', #536, #718, #336, .T. ) ;
#666 = DIRECTION ( 'NONE',  ( -1.000000000000000000, 0.000000000000000000, 0.000000000000000000 ) ) ;
#667 = FACE_OUTER_BOUND ( 'NONE', #755, .T. ) ;
#668 = CARTESIAN_POINT ( 'NONE',  ( -0.8646413708553999378, 0.5635864805388894894, 1.416078494095533324 ) ) ;
#669 = VERTEX_POINT ( 'NONE', #772 ) ;
#670 = CYLINDRICAL_SURFACE ( 'NONE', #421, 0.7000000000000001776 ) ;
#671 = DIRECTION ( 'NONE',  ( 0.000000000000000000, 1.000000000000000000, 0.000000000000000000 ) ) ;
#672 = CARTESIAN_POINT ( 'NONE',  ( -1.307012597096079753, 1.000000000000000222, -1.500000000000000222 ) ) ;
#673 =( CONVERSION_BASED_UNIT ( 'INCH', #381 ) LENGTH_UNIT ( ) NAMED_UNIT ( #388 ) );
#674 = ORIENTED_EDGE ( 'NONE', *, *, #796, .F. ) ;
#675 = CARTESIAN_POINT ( 'NONE',  ( 0.5570125970960794204, 0.2844677675497123692, 1.466666699999999990 ) ) ;
#676 = CARTESIAN_POINT ( 'NONE',  ( -0.5736792970960801208, 0.7184997204361588397, -1.466666700000000212 ) ) ;
#677 =( NAMED_UNIT ( * ) SI_UNIT ( $, .STERADIAN. ) SOLID_ANGLE_UNIT ( ) );
#678 = VECTOR ( 'NONE', #612, 39.37007874015748854 ) ;
#679 = VERTEX_POINT ( 'NONE', #847 ) ;
#680 = VECTOR ( 'NONE', #459, 39.37007874015748143 ) ;
#681 = CARTESIAN_POINT ( 'NONE',  ( -0.7435559306800245682, 0.6468061979353195712, -1.457706884098501021 ) ) ;
#682 = ORIENTED_EDGE ( 'NONE', *, *, #713, .F. ) ;
#683 = CARTESIAN_POINT ( 'NONE',  ( -1.273679297096079521, -0.08582531355664400896, -0.7666667000000000343 ) ) ;
#684 = UNCERTAINTY_MEASURE_WITH_UNIT (LENGTH_MEASURE( 1.000000000000000082E-05 ), #69, 'distance_accuracy_value', 'NONE');
#685 = ORIENTED_EDGE ( 'NONE', *, *, #743, .F. ) ;
#686 = CARTESIAN_POINT ( 'NONE',  ( 1.307012597096079753, -0.003430258726854131836, 0.2500000000000000000 ) ) ;
#687 = ORIENTED_EDGE ( 'NONE', *, *, #469, .T. ) ;
#688 = LINE ( 'NONE', #298, #800 ) ;
#689 = ORIENTED_EDGE ( 'NONE', *, *, #435, .F. ) ;
#690 = LINE ( 'NONE', #859, #405 ) ;
#691 = ORIENTED_EDGE ( 'NONE', *, *, #491, .T. ) ;
#692 = CARTESIAN_POINT ( 'NONE',  ( 1.257012597096079709, -0.5034302587268542073, -0.2500000000000000000 ) ) ;
#693 = ORIENTED_EDGE ( 'NONE', *, *, #276, .T. ) ;
#694 = MECHANICAL_DESIGN_GEOMETRIC_PRESENTATION_REPRESENTATION (  '', ( #108 ), #22 ) ;
#695 = CARTESIAN_POINT ( 'NONE',  ( 0.9530459088047732452, -1.506257983679165191, 1.343864773469623408 ) ) ;
#696 = ORIENTED_EDGE ( 'NONE', *, *, #60, .T. ) ;
#697 = EDGE_CURVE ( 'NONE', #272, #702, #177, .T. ) ;
#698 =( BOUNDED_CURVE ( )  B_SPLINE_CURVE ( 3, ( #232, #823, #158, #464 ),
 .UNSPECIFIED., .F., .T. ) 
 B_SPLINE_CURVE_WITH_KNOTS ( ( 4, 4 ),
 ( 5.313745907945488511, 5.314527572322731430 ),
 .UNSPECIFIED. ) 
 CURVE ( )  GEOMETRIC_REPRESENTATION_ITEM ( )  RATIONAL_B_SPLINE_CURVE ( ( 1.000000000000000000, 0.9999999490834007299, 0.9999999490834007299, 1.000000000000000000 ) ) 
 REPRESENTATION_ITEM ( '' )  );
#699 = CARTESIAN_POINT ( 'NONE',  ( 1.307012597096079531, -1.303430258726853141, -1.500000000000000222 ) ) ;
#700 = ORIENTED_EDGE ( 'NONE', *, *, #211, .T. ) ;
#701 = PLANE ( 'NONE',  #588 ) ;
#702 = VERTEX_POINT ( 'NONE', #408 ) ;
#703 = ADVANCED_FACE ( 'NONE', ( #489 ), #705, .F. ) ;
#704 = ORIENTED_EDGE ( 'NONE', *, *, #169, .F. ) ;
#705 = PLANE ( 'NONE',  #247 ) ;
#706 = ORIENTED_EDGE ( 'NONE', *, *, #606, .F. ) ;
#707 = ORIENTED_EDGE ( 'NONE', *, *, #219, .T. ) ;
#708 = DIRECTION ( 'NONE',  ( -0.9335804264971999666, 0.3583679495453050423, 0.000000000000000000 ) ) ;
#709 = ORIENTED_EDGE ( 'NONE', *, *, #18, .F. ) ;
#710 = VECTOR ( 'NONE', #577, 39.37007874015748854 ) ;
#711 = ORIENTED_EDGE ( 'NONE', *, *, #252, .F. ) ;
#712 = DIRECTION ( 'NONE',  ( -1.365923996832132349E-16, -1.000000000000000000, 0.000000000000000000 ) ) ;
#713 = EDGE_CURVE ( 'NONE', #568, #495, #416, .T. ) ;
#714 = ORIENTED_EDGE ( 'NONE', *, *, #399, .T. ) ;
#715 = EDGE_CURVE ( 'NONE', #483, #741, #829, .T. ) ;
#716 = LINE ( 'NONE', #802, #737 ) ;
#717 = DIRECTION ( 'NONE',  ( 0.9335804264971999666, -0.3583679495453050423, 0.000000000000000000 ) ) ;
#718 = VERTEX_POINT ( 'NONE', #621 ) ;
#719 = LINE ( 'NONE', #442, #193 ) ;
#720 = CARTESIAN_POINT ( 'NONE',  ( 0.9534969629434612015, -1.505947982758346182, -1.343555032035411934 ) ) ;
#721 = DIRECTION ( 'NONE',  ( -1.365923996832131609E-16, 1.000000000000000000, -0.000000000000000000 ) ) ;
#722 = EDGE_LOOP ( 'NONE', ( #557, #572, #255, #832, #486, #935, #425, #466 ) ) ;
#723 = AXIS2_PLACEMENT_3D ( 'NONE', #579, #658, #941 ) ;
#724 = EDGE_CURVE ( 'NONE', #275, #536, #567, .T. ) ;
#725 = LINE ( 'NONE', #361, #852 ) ;
#726 = DIRECTION ( 'NONE',  ( 0.3583679495453049313, 0.9335804264972000777, 0.000000000000000000 ) ) ;
#727 =( BOUNDED_CURVE ( )  B_SPLINE_CURVE ( 3, ( #440, #949, #571, #731 ),
 .UNSPECIFIED., .F., .F. ) 
 B_SPLINE_CURVE_WITH_KNOTS ( ( 4, 4 ),
 ( 5.313745907945487623, 5.314527572322731430 ),
 .UNSPECIFIED. ) 
 CURVE ( )  GEOMETRIC_REPRESENTATION_ITEM ( )  RATIONAL_B_SPLINE_CURVE ( ( 1.000000000000000000, 0.9999999490834007299, 0.9999999490834007299, 1.000000000000000000 ) ) 
 REPRESENTATION_ITEM ( '' )  );
#728 = DIRECTION ( 'NONE',  ( -1.365923996832132349E-16, -1.000000000000000000, 0.000000000000000000 ) ) ;
#729 = ADVANCED_FACE ( 'NONE', ( #104 ), #701, .F. ) ;
#730 = PLANE ( 'NONE',  #438 ) ;
#731 = CARTESIAN_POINT ( 'NONE',  ( 0.9534969629434612015, -1.505947982758346182, 1.343555032035411934 ) ) ;
#732 = CARTESIAN_POINT ( 'NONE',  ( -0.5736792970960795657, -7.836023183893249099E-17, 1.466666699999999990 ) ) ;
#733 = CARTESIAN_POINT ( 'NONE',  ( 1.257012597096079709, -0.9290596507229341716, -0.7666667000000000343 ) ) ;
#734 = LINE ( 'NONE', #890, #231 ) ;
#735 = ADVANCED_FACE ( 'NONE', ( #765 ), #929, .F. ) ;
#736 = PRESENTATION_STYLE_ASSIGNMENT (( #532 ) ) ;
#737 = VECTOR ( 'NONE', #56, 39.37007874015748143 ) ;
#738 = LINE ( 'NONE', #82, #649 ) ;
#739 = AXIS2_PLACEMENT_3D ( 'NONE', #514, #580, #348 ) ;
#740 = CARTESIAN_POINT ( 'NONE',  ( 0.9534969629434612015, -1.505947982758346182, 1.343555032035411934 ) ) ;
#741 = VERTEX_POINT ( 'NONE', #258 ) ;
#742 = CARTESIAN_POINT ( 'NONE',  ( 0.5570125970960794204, -2.003430258726853097, 0.7666667000000000343 ) ) ;
#743 = EDGE_CURVE ( 'NONE', #909, #790, #853, .T. ) ;
#744 = CARTESIAN_POINT ( 'NONE',  ( -0.5736792970960794547, -0.9770906576226447982, -1.466666699999999990 ) ) ;
#745 = CARTESIAN_POINT ( 'NONE',  ( 0.3052529241369901225, -1.583185951112611622, -0.7666667000000000343 ) ) ;
#746 = CYLINDRICAL_SURFACE ( 'NONE', #50, 0.7000000000000000666 ) ;
#747 = CARTESIAN_POINT ( 'NONE',  ( 0.5570125970960796424, 0.2844677675497123137, -1.466666700000000212 ) ) ;
#748 = DIRECTION ( 'NONE',  ( 0.3583679495453047648, 0.9335804264972000777, 0.000000000000000000 ) ) ;
#749 = ORIENTED_EDGE ( 'NONE', *, *, #932, .T. ) ;
#750 = CARTESIAN_POINT ( 'NONE',  ( -0.2396186264903239493, -0.6242278635668823128, 1.466666699999999990 ) ) ;
#751 = CARTESIAN_POINT ( 'NONE',  ( -1.295067010723500944, -0.9688806835694409036, 1.500000000000000222 ) ) ;
#752 = CARTESIAN_POINT ( 'NONE',  ( -1.164105887939668404, 0.3577702201700456164, -1.210262233726689729 ) ) ;
#753 = EDGE_CURVE ( 'NONE', #759, #614, #229, .T. ) ;
#754 = CARTESIAN_POINT ( 'NONE',  ( 1.257012597096079709, 0.01576294302491705254, -0.2500000000000000555 ) ) ;
#755 = EDGE_LOOP ( 'NONE', ( #714, #479, #795, #339 ) ) ;
#756 = ADVANCED_FACE ( 'NONE', ( #583 ), #803, .F. ) ;
#757 = AXIS2_PLACEMENT_3D ( 'NONE', #652, #124, #646 ) ;
#758 = CARTESIAN_POINT ( 'NONE',  ( -0.6157459205134669933, 0.7346475842414725843, -1.465401556146635809 ) ) ;
#759 = VERTEX_POINT ( 'NONE', #427 ) ;
#760 = CARTESIAN_POINT ( 'NONE',  ( -0.5877120729272443667, 0.7238863983894568976, -1.466666699999999990 ) ) ;
#761 = ORIENTED_EDGE ( 'NONE', *, *, #586, .F. ) ;
#762 = DIRECTION ( 'NONE',  ( -0.8241261886220169197, -0.5664062369248307194, -0.000000000000000000 ) ) ;
#763 = ORIENTED_EDGE ( 'NONE', *, *, #553, .T. ) ;
#764 = ORIENTED_EDGE ( 'NONE', *, *, #538, .F. ) ;
#765 = FACE_OUTER_BOUND ( 'NONE', #47, .T. ) ;
#766 = ADVANCED_FACE ( 'NONE', ( #509 ), #871, .F. ) ;
#767 = EDGE_LOOP ( 'NONE', ( #350, #492, #897, #565 ) ) ;
#768 = LINE ( 'NONE', #699, #815 ) ;
#769 =( BOUNDED_CURVE ( )  B_SPLINE_CURVE ( 3, ( #331, #409, #406, #419 ),
 .UNSPECIFIED., .F., .T. ) 
 B_SPLINE_CURVE_WITH_KNOTS ( ( 4, 4 ),
 ( 1.570796326794897446, 1.630927733605412433 ),
 .UNSPECIFIED. ) 
 CURVE ( )  GEOMETRIC_REPRESENTATION_ITEM ( )  RATIONAL_B_SPLINE_CURVE ( ( 1.000000000000000000, 0.9996987071899905430, 0.9996987071899905430, 1.000000000000000000 ) ) 
 REPRESENTATION_ITEM ( '' )  );
#770 = VERTEX_POINT ( 'NONE', #133 ) ;
#771 = CIRCLE ( 'NONE', #261, 0.7000000000000000666 ) ;
#772 = CARTESIAN_POINT ( 'NONE',  ( 1.307012597096079753, -0.5034302587268540963, 0.2500000000000000000 ) ) ;
#773 = VECTOR ( 'NONE', #505, 39.37007874015748143 ) ;
#774 = ORIENTED_EDGE ( 'NONE', *, *, #697, .F. ) ;
#775 = VERTEX_POINT ( 'NONE', #589 ) ;
#776 = CARTESIAN_POINT ( 'NONE',  ( 1.207012597096079887, -0.5034302587268542073, -0.2500000000000000000 ) ) ;
#777 = ORIENTED_EDGE ( 'NONE', *, *, #169, .T. ) ;
#778 = VERTEX_POINT ( 'NONE', #143 ) ;
#779 = FACE_OUTER_BOUND ( 'NONE', #594, .T. ) ;
#780 = ORIENTED_EDGE ( 'NONE', *, *, #355, .F. ) ;
#781 = EDGE_CURVE ( 'NONE', #413, #159, #443, .T. ) ;
#782 = FACE_OUTER_BOUND ( 'NONE', #395, .T. ) ;
#783 = EDGE_CURVE ( 'NONE', #785, #759, #914, .T. ) ;
#784 = VECTOR ( 'NONE', #445, 39.37007874015748143 ) ;
#785 = VERTEX_POINT ( 'NONE', #792 ) ;
#786 = VECTOR ( 'NONE', #471, 39.37007874015748143 ) ;
#787 = DIRECTION ( 'NONE',  ( 1.365923996832132349E-16, 1.000000000000000000, -0.000000000000000000 ) ) ;
#788 = CARTESIAN_POINT ( 'NONE',  ( -0.6535062985480399878, 0.7491424353182866147, -1.500000000000000222 ) ) ;
#789 = CARTESIAN_POINT ( 'NONE',  ( -0.6157459205134669933, 0.7346475842414725843, 1.465401556146635587 ) ) ;
#790 = VERTEX_POINT ( 'NONE', #937 ) ;
#791 = LINE ( 'NONE', #214, #328 ) ;
#792 = CARTESIAN_POINT ( 'NONE',  ( -0.5736792970960794547, -0.4959939866015182774, 1.466666699999999990 ) ) ;
#793 =( BOUNDED_CURVE ( )  B_SPLINE_CURVE ( 3, ( #235, #389, #681, #758 ),
 .UNSPECIFIED., .F., .T. ) 
 B_SPLINE_CURVE_WITH_KNOTS ( ( 4, 4 ),
 ( 4.110250388446648806, 4.652257573574173577 ),
 .UNSPECIFIED. ) 
 CURVE ( )  GEOMETRIC_REPRESENTATION_ITEM ( )  RATIONAL_B_SPLINE_CURVE ( ( 1.000000000000000000, 0.9756684809136058067, 0.9756684809136058067, 1.000000000000000000 ) ) 
 REPRESENTATION_ITEM ( '' )  );
#794 = DIRECTION ( 'NONE',  ( 0.9335804264971999666, -0.3583679495453047648, 0.000000000000000000 ) ) ;
#795 = ORIENTED_EDGE ( 'NONE', *, *, #435, .T. ) ;
#796 = EDGE_CURVE ( 'NONE', #622, #434, #727, .T. ) ;
#797 = DIRECTION ( 'NONE',  ( -0.9335804264971999666, 0.3583679495453050423, 0.000000000000000000 ) ) ;
#798 = DIRECTION ( 'NONE',  ( -1.000000000000000000, 1.365923996832132349E-16, 0.000000000000000000 ) ) ;
#799 = ADVANCED_FACE ( 'NONE', ( #207 ), #942, .F. ) ;
#800 = VECTOR ( 'NONE', #592, 39.37007874015748143 ) ;
#801 = VECTOR ( 'NONE', #327, 39.37007874015748143 ) ;
#802 = CARTESIAN_POINT ( 'NONE',  ( -0.6157459205134669933, 0.7346475842414725843, 1.500000000000000222 ) ) ;
#803 = PLANE ( 'NONE',  #498 ) ;
#804 =( NAMED_UNIT ( * ) SI_UNIT ( $, .STERADIAN. ) SOLID_ANGLE_UNIT ( ) );
#805 = CARTESIAN_POINT ( 'NONE',  ( 0.9525948546660852889, -1.506567984599983534, -1.343555032035411934 ) ) ;
#806 = CARTESIAN_POINT ( 'NONE',  ( -0.5736792970960795657, -0.4959939866015182774, -0.7666667000000000343 ) ) ;
#807 = LINE ( 'NONE', #873, #710 ) ;
#808 = SURFACE_SIDE_STYLE ('',( #601 ) ) ;
#809 = CARTESIAN_POINT ( 'NONE',  ( -0.5736792970960796767, 1.000000000000000222, 0.7666667000000000343 ) ) ;
#810 = CARTESIAN_POINT ( 'NONE',  ( -0.7435559306800241242, 0.6468061979353197932, 1.457706884098501021 ) ) ;
#811 = EDGE_CURVE ( 'NONE', #110, #483, #41, .T. ) ;
#812 = ORIENTED_EDGE ( 'NONE', *, *, #44, .F. ) ;
#813 = DIRECTION ( 'NONE',  ( -1.365923996832131609E-16, 1.000000000000000000, 0.000000000000000000 ) ) ;
#814 = CARTESIAN_POINT ( 'NONE',  ( 0.5561104888187035078, -0.9296796525645715237, -1.500000000000000222 ) ) ;
#815 = VECTOR ( 'NONE', #563, 39.37007874015748143 ) ;
#816 = FACE_OUTER_BOUND ( 'NONE', #89, .T. ) ;
#817 = CIRCLE ( 'NONE', #637, 0.7000000000000000666 ) ;
#818 = PRODUCT_DEFINITION_CONTEXT ( 'detailed design', #117, 'design' ) ;
#819 = ORIENTED_EDGE ( 'NONE', *, *, #559, .F. ) ;
#820 = PRODUCT_RELATED_PRODUCT_CATEGORY ( 'part', '', ( #618 ) ) ;
#821 = CARTESIAN_POINT ( 'NONE',  ( -0.5736792970960795657, -0.08582531355664391182, 1.500000000000000222 ) ) ;
#822 =( LENGTH_UNIT ( ) NAMED_UNIT ( * ) SI_UNIT ( $, .METRE. ) );
#823 = CARTESIAN_POINT ( 'NONE',  ( 0.9528955170767294813, -1.506361345050180267, -1.343761585089674915 ) ) ;
#824 = CARTESIAN_POINT ( 'NONE',  ( -1.273679297096079521, -0.4959939866015180554, -0.7666667000000000343 ) ) ;
#825 = ORIENTED_EDGE ( 'NONE', *, *, #259, .T. ) ;
#826 = DIRECTION ( 'NONE',  ( -1.000000000000000000, 0.000000000000000000, 0.000000000000000000 ) ) ;
#827 = EDGE_CURVE ( 'NONE', #110, #14, #436, .T. ) ;
#828 = LINE ( 'NONE', #732, #94 ) ;
#829 =( BOUNDED_CURVE ( )  B_SPLINE_CURVE ( 3, ( #412, #49, #934, #254 ),
 .UNSPECIFIED., .F., .T. ) 
 B_SPLINE_CURVE_WITH_KNOTS ( ( 4, 4 ),
 ( 4.111032052823890837, 4.712388980384689674 ),
 .UNSPECIFIED. ) 
 CURVE ( )  GEOMETRIC_REPRESENTATION_ITEM ( )  RATIONAL_B_SPLINE_CURVE ( ( 1.000000000000000000, 0.9700905130049664038, 0.9700905130049664038, 1.000000000000000000 ) ) 
 REPRESENTATION_ITEM ( '' )  );
#830 = ADVANCED_FACE ( 'NONE', ( #782 ), #200, .F. ) ;
#831 = DIRECTION ( 'NONE',  ( -0.000000000000000000, -0.000000000000000000, -1.000000000000000000 ) ) ;
#832 = ORIENTED_EDGE ( 'NONE', *, *, #55, .F. ) ;
#833 = CARTESIAN_POINT ( 'NONE',  ( 1.257012597096079709, 0.01576294302491708377, 0.7666667000000000343 ) ) ;
#834 = EDGE_LOOP ( 'NONE', ( #709, #480, #265, #126, #490, #176 ) ) ;
#835 = DIRECTION ( 'NONE',  ( 1.000000000000000000, 0.000000000000000000, -0.000000000000000000 ) ) ;
#836 = VECTOR ( 'NONE', #114, 39.37007874015748143 ) ;
#837 = ADVANCED_FACE ( 'NONE', ( #284 ), #288, .F. ) ;
#838 = VECTOR ( 'NONE', #351, 39.37007874015748143 ) ;
#839 = EDGE_LOOP ( 'NONE', ( #825, #627, #156, #316, #131, #269 ) ) ;
#840 = CARTESIAN_POINT ( 'NONE',  ( -0.5736792970960795657, -7.836023183893249099E-17, -0.7666667000000000343 ) ) ;
#841 = VERTEX_POINT ( 'NONE', #881 ) ;
#842 = ADVANCED_FACE ( 'NONE', ( #53 ), #867, .F. ) ;
#843 = VERTEX_POINT ( 'NONE', #500 ) ;
#844 = CARTESIAN_POINT ( 'NONE',  ( -1.307012597096079531, -1.000000000000000222, 1.500000000000000222 ) ) ;
#845 = ORIENTED_EDGE ( 'NONE', *, *, #317, .F. ) ;
#846 = VERTEX_POINT ( 'NONE', #233 ) ;
#847 = CARTESIAN_POINT ( 'NONE',  ( 1.257012597096079709, 0.01576294302491708377, 0.7666667000000000343 ) ) ;
#848 = EDGE_CURVE ( 'NONE', #66, #404, #487, .T. ) ;
#849 = ORIENTED_EDGE ( 'NONE', *, *, #266, .F. ) ;
#850 = LINE ( 'NONE', #180, #836 ) ;
#851 = ORIENTED_EDGE ( 'NONE', *, *, #276, .F. ) ;
#852 = VECTOR ( 'NONE', #655, 39.37007874015748143 ) ;
#853 = LINE ( 'NONE', #788, #391 ) ;
#854 = PRODUCT_DEFINITION ( 'UNKNOWN', '', #111, #818 ) ;
#855 = VECTOR ( 'NONE', #762, 39.37007874015748854 ) ;
#856 = VECTOR ( 'NONE', #831, 39.37007874015748143 ) ;
#857 = ORIENTED_EDGE ( 'NONE', *, *, #72, .T. ) ;
#858 = VERTEX_POINT ( 'NONE', #824 ) ;
#859 = CARTESIAN_POINT ( 'NONE',  ( 0.9534969629434612015, -1.505947982758346182, -1.466666700000000212 ) ) ;
#860 = ORIENTED_EDGE ( 'NONE', *, *, #518, .T. ) ;
#861 = CARTESIAN_POINT ( 'NONE',  ( 1.307012597096079531, -1.303430258726853141, -1.500000000000000222 ) ) ;
#862 = EDGE_CURVE ( 'NONE', #669, #702, #162, .T. ) ;
#863 = ORIENTED_EDGE ( 'NONE', *, *, #549, .T. ) ;
#864 =( BOUNDED_CURVE ( )  B_SPLINE_CURVE ( 3, ( #199, #132, #645, #805 ),
 .UNSPECIFIED., .F., .T. ) 
 B_SPLINE_CURVE_WITH_KNOTS ( ( 4, 4 ),
 ( 4.712388980384689674, 5.681046715241544476 ),
 .UNSPECIFIED. ) 
 CURVE ( )  GEOMETRIC_REPRESENTATION_ITEM ( )  RATIONAL_B_SPLINE_CURVE ( ( 1.000000000000000000, 0.9233250916420275844, 0.9233250916420275844, 1.000000000000000000 ) ) 
 REPRESENTATION_ITEM ( '' )  );
#865 = VERTEX_POINT ( 'NONE', #322 ) ;
#866 = CARTESIAN_POINT ( 'NONE',  ( 1.257012597096080153, 0.01576294302491705254, -1.176717206338833588 ) ) ;
#867 = CYLINDRICAL_SURFACE ( 'NONE', #194, 0.6999999999999999556 ) ;
#868 = LINE ( 'NONE', #197, #574 ) ;
#869 = AXIS2_PLACEMENT_3D ( 'NONE', #916, #402, #333 ) ;
#870 = EDGE_LOOP ( 'NONE', ( #763, #921, #84, #239 ) ) ;
#871 = CYLINDRICAL_SURFACE ( 'NONE', #513, 0.7000000000000000666 ) ;
#872 = EDGE_CURVE ( 'NONE', #320, #488, #77, .T. ) ;
#873 = CARTESIAN_POINT ( 'NONE',  ( -0.6535062985480399878, 0.7491424353182866147, 1.500000000000000222 ) ) ;
#874 =( BOUNDED_CURVE ( )  B_SPLINE_CURVE ( 3, ( #238, #149, #541, #740 ),
 .UNSPECIFIED., .F., .T. ) 
 B_SPLINE_CURVE_WITH_KNOTS ( ( 4, 4 ),
 ( 1.570796326794896780, 2.539454061651752248 ),
 .UNSPECIFIED. ) 
 CURVE ( )  GEOMETRIC_REPRESENTATION_ITEM ( )  RATIONAL_B_SPLINE_CURVE ( ( 1.000000000000000000, 0.9233250916420274734, 0.9233250916420274734, 1.000000000000000000 ) ) 
 REPRESENTATION_ITEM ( '' )  );
#875 = EDGE_LOOP ( 'NONE', ( #863, #548, #503, #323, #636, #118 ) ) ;
#876 = DIRECTION ( 'NONE',  ( 1.365923996832132349E-16, 1.000000000000000000, 0.000000000000000000 ) ) ;
#877 = DIRECTION ( 'NONE',  ( 0.000000000000000000, 0.000000000000000000, 1.000000000000000000 ) ) ;
#878 = EDGE_CURVE ( 'NONE', #741, #267, #598, .T. ) ;
#879 =( NAMED_UNIT ( * ) PLANE_ANGLE_UNIT ( ) SI_UNIT ( $, .RADIAN. ) );
#880 = LINE ( 'NONE', #7, #546 ) ;
#881 = CARTESIAN_POINT ( 'NONE',  ( -1.273679297096079521, -0.08582531355664400896, -0.7666667000000000343 ) ) ;
#882 = FACE_OUTER_BOUND ( 'NONE', #115, .T. ) ;
#883 = VECTOR ( 'NONE', #876, 39.37007874015748143 ) ;
#884 = VECTOR ( 'NONE', #955, 39.37007874015748143 ) ;
#885 =( GEOMETRIC_REPRESENTATION_CONTEXT ( 3 ) GLOBAL_UNCERTAINTY_ASSIGNED_CONTEXT ( ( #225 ) ) GLOBAL_UNIT_ASSIGNED_CONTEXT ( ( #673, #602, #677 ) ) REPRESENTATION_CONTEXT ( 'NONE', 'WORKASPACE' ) );
#886 = CARTESIAN_POINT ( 'NONE',  ( -0.5736792970960794547, -0.4959939866015179999, 1.500000000000000222 ) ) ;
#887 = LINE ( 'NONE', #744, #784 ) ;
#888 = EDGE_CURVE ( 'NONE', #946, #718, #299, .T. ) ;
#889 = CARTESIAN_POINT ( 'NONE',  ( 1.257012597096079487, -2.003430258726853097, 0.2500000000000000555 ) ) ;
#890 = CARTESIAN_POINT ( 'NONE',  ( 1.257012597096079709, 0.01576294302491708377, 1.500000000000000222 ) ) ;
#891 = VERTEX_POINT ( 'NONE', #754 ) ;
#892 = CARTESIAN_POINT ( 'NONE',  ( -1.273679297096079521, -0.4959939866015180554, 0.7666667000000000343 ) ) ;
#893 = DIRECTION ( 'NONE',  ( -1.365923996832131609E-16, 1.000000000000000000, -0.000000000000000000 ) ) ;
#894 = DIRECTION ( 'NONE',  ( -1.365923996832131609E-16, 1.000000000000000000, 0.000000000000000000 ) ) ;
#895 = DIMENSIONAL_EXPONENTS ( 1.000000000000000000, 0.000000000000000000, 0.000000000000000000, 0.000000000000000000, 0.000000000000000000, 0.000000000000000000, 0.000000000000000000 ) ;
#896 =( LENGTH_UNIT ( ) NAMED_UNIT ( * ) SI_UNIT ( $, .METRE. ) );
#897 = ORIENTED_EDGE ( 'NONE', *, *, #724, .F. ) ;
#898 = CARTESIAN_POINT ( 'NONE',  ( 0.9528955170767293703, -1.506361345050180711, 1.343761585089674693 ) ) ;
#899 =( BOUNDED_CURVE ( )  B_SPLINE_CURVE ( 3, ( #222, #600, #898, #85 ),
 .UNSPECIFIED., .F., .T. ) 
 B_SPLINE_CURVE_WITH_KNOTS ( ( 4, 4 ),
 ( 4.110250388446648806, 4.111032052823890837 ),
 .UNSPECIFIED. ) 
 CURVE ( )  GEOMETRIC_REPRESENTATION_ITEM ( )  RATIONAL_B_SPLINE_CURVE ( ( 1.000000000000000000, 0.9999999490834007299, 0.9999999490834007299, 1.000000000000000000 ) ) 
 REPRESENTATION_ITEM ( '' )  );
#900 = LINE ( 'NONE', #303, #560 ) ;
#901 = ORIENTED_EDGE ( 'NONE', *, *, #18, .T. ) ;
#902 = EDGE_CURVE ( 'NONE', #267, #187, #519, .T. ) ;
#903 = LINE ( 'NONE', #750, #650 ) ;
#904 = PLANE ( 'NONE',  #78 ) ;
#905 = ORIENTED_EDGE ( 'NONE', *, *, #462, .F. ) ;
#906 = CARTESIAN_POINT ( 'NONE',  ( 0.3052529241369901225, -1.583185951112611622, 0.7666667000000000343 ) ) ;
#907 = ORIENTED_EDGE ( 'NONE', *, *, #713, .T. ) ;
#908 = CARTESIAN_POINT ( 'NONE',  ( -0.6157459205134669933, 0.7346475842414725843, -1.465401556146635809 ) ) ;
#909 = VERTEX_POINT ( 'NONE', #663 ) ;
#910 = CARTESIAN_POINT ( 'NONE',  ( 1.257012597096080153, 0.01576294302491699703, 1.176717206338833366 ) ) ;
#911 = EDGE_LOOP ( 'NONE', ( #542, #857, #696, #59, #134, #243, #401, #120 ) ) ;
#912 = EDGE_CURVE ( 'NONE', #614, #858, #523, .T. ) ;
#913 = LINE ( 'NONE', #34, #390 ) ;
#914 = CIRCLE ( 'NONE', #96, 0.6999999999999999556 ) ;
#915 = ORIENTED_EDGE ( 'NONE', *, *, #753, .T. ) ;
#916 = CARTESIAN_POINT ( 'NONE',  ( 0.000000000000000000, 0.000000000000000000, 1.500000000000000222 ) ) ;
#917 = VERTEX_POINT ( 'NONE', #97 ) ;
#918 = DIRECTION ( 'NONE',  ( -0.5664062369248308304, 0.8241261886220170307, 0.000000000000000000 ) ) ;
#919 = ORIENTED_EDGE ( 'NONE', *, *, #271, .F. ) ;
#920 = CARTESIAN_POINT ( 'NONE',  ( 1.307012597096079753, -0.003430258726854003900, 0.2500000000000000555 ) ) ;
#921 = ORIENTED_EDGE ( 'NONE', *, *, #360, .T. ) ;
#922 = DIRECTION ( 'NONE',  ( -0.000000000000000000, -0.000000000000000000, 1.000000000000000000 ) ) ;
#923 = ORIENTED_EDGE ( 'NONE', *, *, #355, .T. ) ;
#924 = DIRECTION ( 'NONE',  ( 1.000000000000000000, -0.000000000000000000, 0.000000000000000000 ) ) ;
#925 = ORIENTED_EDGE ( 'NONE', *, *, #55, .T. ) ;
#926 = CARTESIAN_POINT ( 'NONE',  ( -0.5736792970960794547, -0.4959939866015181109, -0.7666667000000000343 ) ) ;
#927 = DIRECTION ( 'NONE',  ( 1.000000000000000000, 0.000000000000000000, 0.000000000000000000 ) ) ;
#928 = AXIS2_PLACEMENT_3D ( 'NONE', #809, #451, #392 ) ;
#929 = SPHERICAL_SURFACE ( 'NONE', #296, 0.7000000000000000666 ) ;
#930 = EDGE_CURVE ( 'NONE', #14, #524, #224, .T. ) ;
#931 = ORIENTED_EDGE ( 'NONE', *, *, #360, .F. ) ;
#932 = EDGE_CURVE ( 'NONE', #413, #568, #315, .T. ) ;
#933 = ORIENTED_EDGE ( 'NONE', *, *, #271, .T. ) ;
#934 = CARTESIAN_POINT ( 'NONE',  ( 0.6994857698443137650, -1.137325692180254588, -1.466666699999999990 ) ) ;
#935 = ORIENTED_EDGE ( 'NONE', *, *, #129, .F. ) ;
#936 = EDGE_LOOP ( 'NONE', ( #354, #543, #704, #45, #188, #845 ) ) ;
#937 = CARTESIAN_POINT ( 'NONE',  ( -0.6535062985480395437, 0.7491424353182863927, -1.500000000000000222 ) ) ;
#938 = CYLINDRICAL_SURFACE ( 'NONE', #168, 0.6999999999999998446 ) ;
#939 = ORIENTED_EDGE ( 'NONE', *, *, #665, .T. ) ;
#940 = EDGE_CURVE ( 'NONE', #679, #495, #734, .T. ) ;
#941 = DIRECTION ( 'NONE',  ( -0.8241261886220169197, -0.5664062369248307194, 0.000000000000000000 ) ) ;
#942 = PLANE ( 'NONE',  #357 ) ;
#943 = AXIS2_PLACEMENT_3D ( 'NONE', #39, #918, #107 ) ;
#944 = DIRECTION ( 'NONE',  ( -0.9335804264972000777, 0.3583679495453048203, 0.000000000000000000 ) ) ;
#945 = VECTOR ( 'NONE', #121, 39.37007874015748143 ) ;
#946 = VERTEX_POINT ( 'NONE', #370 ) ;
#947 = EDGE_CURVE ( 'NONE', #524, #434, #874, .T. ) ;
#948 = LINE ( 'NONE', #582, #137 ) ;
#949 = CARTESIAN_POINT ( 'NONE',  ( 0.9531963005328162319, -1.506154622308149449, 1.343761585089674915 ) ) ;
#950 = EDGE_CURVE ( 'NONE', #494, #165, #112, .T. ) ;
#951 = CARTESIAN_POINT ( 'NONE',  ( 0.5570125970960797535, -7.608368729113234649E-17, -0.7666667000000000343 ) ) ;
#952 = ORIENTED_EDGE ( 'NONE', *, *, #848, .F. ) ;
#953 = CARTESIAN_POINT ( 'NONE',  ( 0.8355669933313656372, -1.335325100986708868, 1.424470662659806486 ) ) ;
#954 = CARTESIAN_POINT ( 'NONE',  ( 0.9531963005328170091, -1.506154622308149227, -1.343761585089674693 ) ) ;
#955 = DIRECTION ( 'NONE',  ( 1.000000000000000000, -1.365923996832132349E-16, -0.000000000000000000 ) ) ;
ENDSEC;
END-ISO-10303-21;
