ISO-10303-21;
HEADER;
FILE_DESCRIPTION (( 'STEP AP214' ),
    '1' );
FILE_NAME ('Pin.STEP',
    '2026-04-07T14:06:42',
    ( '' ),
    ( '' ),
    'SwSTEP 2.0',
    'SolidWorks 2025',
    '' );
FILE_SCHEMA (( 'AUTOMOTIVE_DESIGN' ));
ENDSEC;

DATA;
#1 = DIRECTION ( 'NONE',  ( 0.000000000000000000, 0.000000000000000000, 1.000000000000000000 ) ) ;
#2 = ORIENTED_EDGE ( 'NONE', *, *, #42, .T. ) ;
#3 = DIRECTION ( 'NONE',  ( 1.000000000000000000, -0.000000000000000000, 0.000000000000000000 ) ) ;
#4 = CARTESIAN_POINT ( 'NONE',  ( -0.1250000000000002220, 3.414809992080334570E-17, 0.1181102362204724532 ) ) ;
#5 = LINE ( 'NONE', #301, #471 ) ;
#6 = DIRECTION ( 'NONE',  ( -0.000000000000000000, -0.000000000000000000, -1.000000000000000000 ) ) ;
#7 = ORIENTED_EDGE ( 'NONE', *, *, #253, .F. ) ;
#8 = VECTOR ( 'NONE', #540, 39.37007874015748143 ) ;
#9 = CARTESIAN_POINT ( 'NONE',  ( 0.1249999999999999306, 0.3612204724409448509, -0.1181102362204724532 ) ) ;
#10 = DIRECTION ( 'NONE',  ( 1.000000000000000000, -0.000000000000000000, 0.000000000000000000 ) ) ;
#11 = CARTESIAN_POINT ( 'NONE',  ( 0.2425000000000000211, 0.3612204724409448509, -0.1181102362204724532 ) ) ;
#12 = ADVANCED_FACE ( 'NONE', ( #91 ), #512, .F. ) ;
#13 = FACE_OUTER_BOUND ( 'NONE', #256, .T. ) ;
#14 = ORIENTED_EDGE ( 'NONE', *, *, #585, .F. ) ;
#15 = FACE_OUTER_BOUND ( 'NONE', #583, .T. ) ;
#16 = EDGE_CURVE ( 'NONE', #206, #332, #552, .T. ) ;
#17 = EDGE_LOOP ( 'NONE', ( #537, #413, #444, #47 ) ) ;
#18 = CARTESIAN_POINT ( 'NONE',  ( 0.3425000000000000266, -0.1000000000000000056, -0.000000000000000000 ) ) ;
#19 = DIRECTION ( 'NONE',  ( -0.000000000000000000, -1.000000000000000000, -0.000000000000000000 ) ) ;
#20 = EDGE_CURVE ( 'NONE', #497, #268, #420, .T. ) ;
#21 = VERTEX_POINT ( 'NONE', #426 ) ;
#22 = LINE ( 'NONE', #395, #408 ) ;
#23 = CARTESIAN_POINT ( 'NONE',  ( 0.2425000000000000211, 0.4862204724409449064, 0.1181102362204724532 ) ) ;
#24 = ORIENTED_EDGE ( 'NONE', *, *, #441, .F. ) ;
#25 = DIRECTION ( 'NONE',  ( -0.000000000000000000, -0.000000000000000000, -1.000000000000000000 ) ) ;
#26 = AXIS2_PLACEMENT_3D ( 'NONE', #483, #439, #30 ) ;
#27 = FACE_OUTER_BOUND ( 'NONE', #340, .T. ) ;
#28 = VECTOR ( 'NONE', #384, 39.37007874015748143 ) ;
#29 = ORIENTED_EDGE ( 'NONE', *, *, #568, .T. ) ;
#30 = DIRECTION ( 'NONE',  ( 1.565634906116251706E-16, 0.000000000000000000, 1.000000000000000000 ) ) ;
#31 = VERTEX_POINT ( 'NONE', #465 ) ;
#32 = DIRECTION ( 'NONE',  ( 0.000000000000000000, 1.000000000000000000, 0.000000000000000000 ) ) ;
#33 = EDGE_CURVE ( 'NONE', #393, #433, #246, .T. ) ;
#34 = CARTESIAN_POINT ( 'NONE',  ( 0.2425000000000000211, 0.5999999999999999778, -0.1181102362204724532 ) ) ;
#35 = ORIENTED_EDGE ( 'NONE', *, *, #441, .T. ) ;
#36 = FACE_OUTER_BOUND ( 'NONE', #70, .T. ) ;
#37 = PRODUCT ( 'Pin', 'Pin', '', ( #129 ) ) ;
#38 = EDGE_CURVE ( 'NONE', #248, #373, #196, .T. ) ;
#39 = VECTOR ( 'NONE', #88, 39.37007874015748143 ) ;
#40 = ORIENTED_EDGE ( 'NONE', *, *, #450, .F. ) ;
#41 = LINE ( 'NONE', #374, #8 ) ;
#42 = EDGE_CURVE ( 'NONE', #562, #393, #192, .T. ) ;
#43 = VERTEX_POINT ( 'NONE', #377 ) ;
#44 = PLANE ( 'NONE',  #532 ) ;
#45 = DIRECTION ( 'NONE',  ( -1.000000000000000000, 0.000000000000000000, 0.000000000000000000 ) ) ;
#46 = PLANE ( 'NONE',  #390 ) ;
#47 = ORIENTED_EDGE ( 'NONE', *, *, #419, .T. ) ;
#48 = EDGE_CURVE ( 'NONE', #369, #433, #113, .T. ) ;
#49 = DIRECTION ( 'NONE',  ( 0.000000000000000000, 0.000000000000000000, -1.000000000000000000 ) ) ;
#50 = PRODUCT_DEFINITION_CONTEXT ( 'detailed design', #523, 'design' ) ;
#51 = FACE_OUTER_BOUND ( 'NONE', #164, .T. ) ;
#52 = LINE ( 'NONE', #472, #399 ) ;
#53 = ADVANCED_FACE ( 'NONE', ( #296 ), #545, .T. ) ;
#54 = ORIENTED_EDGE ( 'NONE', *, *, #132, .T. ) ;
#55 = DIRECTION ( 'NONE',  ( 1.000000000000000000, 0.000000000000000000, 0.000000000000000000 ) ) ;
#56 = CARTESIAN_POINT ( 'NONE',  ( 0.000000000000000000, 0.000000000000000000, 0.000000000000000000 ) ) ;
#57 = CARTESIAN_POINT ( 'NONE',  ( -0.3424999999999999711, 0.000000000000000000, -0.1181102362204724532 ) ) ;
#58 = ADVANCED_FACE ( 'NONE', ( #51 ), #148, .F. ) ;
#59 = FACE_OUTER_BOUND ( 'NONE', #406, .T. ) ;
#60 = ADVANCED_FACE ( 'NONE', ( #98 ), #294, .T. ) ;
#61 = VERTEX_POINT ( 'NONE', #34 ) ;
#62 = LINE ( 'NONE', #378, #309 ) ;
#63 = EDGE_LOOP ( 'NONE', ( #535, #73, #29, #2 ) ) ;
#64 = DIRECTION ( 'NONE',  ( -2.731847993664262725E-16, -1.000000000000000000, 0.000000000000000000 ) ) ;
#65 = CLOSED_SHELL ( 'NONE', ( #237, #78, #432, #58, #302, #366, #105, #60, #146, #213, #149, #561, #460, #346, #12, #53, #386, #230 ) ) ;
#66 = EDGE_CURVE ( 'NONE', #279, #520, #212, .T. ) ;
#67 = AXIS2_PLACEMENT_3D ( 'NONE', #464, #547, #97 ) ;
#68 = ORIENTED_EDGE ( 'NONE', *, *, #403, .T. ) ;
#69 = DIRECTION ( 'NONE',  ( 0.000000000000000000, -1.000000000000000000, 0.000000000000000000 ) ) ;
#70 = EDGE_LOOP ( 'NONE', ( #524, #455, #234, #54 ) ) ;
#71 = CARTESIAN_POINT ( 'NONE',  ( 0.000000000000000000, 0.000000000000000000, 0.000000000000000000 ) ) ;
#72 = CARTESIAN_POINT ( 'NONE',  ( 0.000000000000000000, 0.5999999999999999778, 0.000000000000000000 ) ) ;
#73 = ORIENTED_EDGE ( 'NONE', *, *, #160, .F. ) ;
#74 = CARTESIAN_POINT ( 'NONE',  ( 0.000000000000000000, 0.4862204724409449064, 0.1181102362204724532 ) ) ;
#75 = COLOUR_RGB ( '',0.7921568627450980005, 0.8196078431372548767, 0.9333333333333333481 ) ;
#76 = CARTESIAN_POINT ( 'NONE',  ( -0.2425000000000000211, 0.5999999999999999778, 0.1181102362204724532 ) ) ;
#77 = ORIENTED_EDGE ( 'NONE', *, *, #553, .F. ) ;
#78 = ADVANCED_FACE ( 'NONE', ( #27 ), #175, .T. ) ;
#79 = DIRECTION ( 'NONE',  ( 0.000000000000000000, 0.000000000000000000, 1.000000000000000000 ) ) ;
#80 = ORIENTED_EDGE ( 'NONE', *, *, #321, .F. ) ;
#81 = CARTESIAN_POINT ( 'NONE',  ( -0.1250000000000001110, 0.3612204724409448509, -0.1181102362204724532 ) ) ;
#82 = EDGE_LOOP ( 'NONE', ( #588, #24, #305, #300 ) ) ;
#83 = CARTESIAN_POINT ( 'NONE',  ( 0.000000000000000000, 0.3612204724409448509, 0.1181102362204724532 ) ) ;
#84 = EDGE_CURVE ( 'NONE', #447, #206, #359, .T. ) ;
#85 = VECTOR ( 'NONE', #45, 39.37007874015748143 ) ;
#86 = VECTOR ( 'NONE', #474, 39.37007874015748143 ) ;
#87 = EDGE_LOOP ( 'NONE', ( #161, #214, #225, #173 ) ) ;
#88 = DIRECTION ( 'NONE',  ( -1.000000000000000000, 0.000000000000000000, 0.000000000000000000 ) ) ;
#89 = VERTEX_POINT ( 'NONE', #271 ) ;
#90 = CARTESIAN_POINT ( 'NONE',  ( 0.3425000000000000266, -0.1000000000000000056, 0.1181102362204724532 ) ) ;
#91 = FACE_OUTER_BOUND ( 'NONE', #82, .T. ) ;
#92 = LINE ( 'NONE', #587, #308 ) ;
#93 = DIRECTION ( 'NONE',  ( 0.000000000000000000, 0.000000000000000000, -1.000000000000000000 ) ) ;
#94 = VECTOR ( 'NONE', #158, 39.37007874015748143 ) ;
#95 = EDGE_CURVE ( 'NONE', #268, #31, #177, .T. ) ;
#96 = ORIENTED_EDGE ( 'NONE', *, *, #326, .T. ) ;
#97 = DIRECTION ( 'NONE',  ( 0.000000000000000000, 0.000000000000000000, -1.000000000000000000 ) ) ;
#98 = FACE_OUTER_BOUND ( 'NONE', #344, .T. ) ;
#99 = ORIENTED_EDGE ( 'NONE', *, *, #197, .T. ) ;
#100 = DIRECTION ( 'NONE',  ( 0.000000000000000000, -0.000000000000000000, -1.000000000000000000 ) ) ;
#101 = DIRECTION ( 'NONE',  ( -1.000000000000000000, 0.000000000000000000, -0.000000000000000000 ) ) ;
#102 = MANIFOLD_SOLID_BREP ( 'Cut-Extrude1', #65 ) ;
#103 = ORIENTED_EDGE ( 'NONE', *, *, #95, .T. ) ;
#104 = LINE ( 'NONE', #389, #582 ) ;
#105 = ADVANCED_FACE ( 'NONE', ( #221 ), #267, .T. ) ;
#106 = VECTOR ( 'NONE', #462, 39.37007874015748143 ) ;
#107 = ORIENTED_EDGE ( 'NONE', *, *, #445, .T. ) ;
#108 = VECTOR ( 'NONE', #64, 39.37007874015748143 ) ;
#109 = CARTESIAN_POINT ( 'NONE',  ( 0.1249999999999999167, 0.4862204724409449064, -0.1181102362204724532 ) ) ;
#110 = ORIENTED_EDGE ( 'NONE', *, *, #33, .T. ) ;
#111 = PLANE ( 'NONE',  #334 ) ;
#112 = DIRECTION ( 'NONE',  ( -1.000000000000000000, 0.000000000000000000, 0.000000000000000000 ) ) ;
#113 = LINE ( 'NONE', #506, #85 ) ;
#114 = CARTESIAN_POINT ( 'NONE',  ( -0.3424999999999999711, 0.000000000000000000, 5.362299553448162506E-17 ) ) ;
#115 = AXIS2_PLACEMENT_3D ( 'NONE', #381, #236, #142 ) ;
#116 = VECTOR ( 'NONE', #569, 39.37007874015748143 ) ;
#117 = SURFACE_STYLE_USAGE ( .BOTH. , #531 ) ;
#118 = ORIENTED_EDGE ( 'NONE', *, *, #445, .F. ) ;
#119 = CARTESIAN_POINT ( 'NONE',  ( -0.1250000000000000833, 0.4862204724409449064, -0.1181102362204724532 ) ) ;
#120 = FILL_AREA_STYLE_COLOUR ( '', #75 ) ;
#121 = EDGE_LOOP ( 'NONE', ( #77, #282, #586, #463 ) ) ;
#122 = LINE ( 'NONE', #170, #220 ) ;
#123 = EDGE_CURVE ( 'NONE', #272, #383, #351, .T. ) ;
#124 = ORIENTED_EDGE ( 'NONE', *, *, #548, .F. ) ;
#125 = CARTESIAN_POINT ( 'NONE',  ( 0.000000000000000000, 0.4862204724409449064, 0.1181102362204724532 ) ) ;
#126 =( GEOMETRIC_REPRESENTATION_CONTEXT ( 3 ) GLOBAL_UNCERTAINTY_ASSIGNED_CONTEXT ( ( #527 ) ) GLOBAL_UNIT_ASSIGNED_CONTEXT ( ( #311, #259, #127 ) ) REPRESENTATION_CONTEXT ( 'NONE', 'WORKASPACE' ) );
#127 =( NAMED_UNIT ( * ) SI_UNIT ( $, .STERADIAN. ) SOLID_ANGLE_UNIT ( ) );
#128 = VERTEX_POINT ( 'NONE', #23 ) ;
#129 = PRODUCT_CONTEXT ( 'NONE', #260, 'mechanical' ) ;
#130 = CARTESIAN_POINT ( 'NONE',  ( -0.3424999999999999711, -0.1000000000000000056, -0.1181102362204724532 ) ) ;
#131 = ORIENTED_EDGE ( 'NONE', *, *, #123, .T. ) ;
#132 = EDGE_CURVE ( 'NONE', #61, #186, #216, .T. ) ;
#133 = LINE ( 'NONE', #280, #440 ) ;
#134 = ORIENTED_EDGE ( 'NONE', *, *, #171, .F. ) ;
#135 = EDGE_CURVE ( 'NONE', #373, #332, #400, .T. ) ;
#136 = CARTESIAN_POINT ( 'NONE',  ( 0.2425000000000000211, 0.5999999999999999778, 0.1181102362204724532 ) ) ;
#137 = VECTOR ( 'NONE', #312, 39.37007874015748143 ) ;
#138 = VERTEX_POINT ( 'NONE', #316 ) ;
#139 = LINE ( 'NONE', #454, #550 ) ;
#140 = LINE ( 'NONE', #330, #39 ) ;
#141 = EDGE_CURVE ( 'NONE', #520, #186, #485, .T. ) ;
#142 = DIRECTION ( 'NONE',  ( -2.731847993664264205E-16, 1.000000000000000000, 0.000000000000000000 ) ) ;
#143 = ORIENTED_EDGE ( 'NONE', *, *, #135, .F. ) ;
#144 = DIRECTION ( 'NONE',  ( 0.000000000000000000, 0.000000000000000000, -1.000000000000000000 ) ) ;
#145 = AXIS2_PLACEMENT_3D ( 'NONE', #4, #385, #287 ) ;
#146 = ADVANCED_FACE ( 'NONE', ( #356 ), #313, .T. ) ;
#147 = DIRECTION ( 'NONE',  ( -0.000000000000000000, -0.000000000000000000, -1.000000000000000000 ) ) ;
#148 = PLANE ( 'NONE',  #255 ) ;
#149 = ADVANCED_FACE ( 'NONE', ( #328 ), #44, .F. ) ;
#150 = CARTESIAN_POINT ( 'NONE',  ( 0.000000000000000000, 0.000000000000000000, -0.1181102362204724532 ) ) ;
#151 = ORIENTED_EDGE ( 'NONE', *, *, #48, .T. ) ;
#152 = DIRECTION ( 'NONE',  ( 0.000000000000000000, -1.000000000000000000, 0.000000000000000000 ) ) ;
#153 = VECTOR ( 'NONE', #443, 39.37007874015748143 ) ;
#154 = ORIENTED_EDGE ( 'NONE', *, *, #20, .F. ) ;
#155 = VECTOR ( 'NONE', #436, 39.37007874015748143 ) ;
#156 = LINE ( 'NONE', #200, #495 ) ;
#157 = ORIENTED_EDGE ( 'NONE', *, *, #38, .F. ) ;
#158 = DIRECTION ( 'NONE',  ( -0.000000000000000000, -0.000000000000000000, -1.000000000000000000 ) ) ;
#159 = ADVANCED_BREP_SHAPE_REPRESENTATION ( 'Pin', ( #102, #178 ), #354 ) ;
#160 = EDGE_CURVE ( 'NONE', #128, #138, #277, .T. ) ;
#161 = ORIENTED_EDGE ( 'NONE', *, *, #243, .F. ) ;
#162 = LINE ( 'NONE', #310, #515 ) ;
#163 = CARTESIAN_POINT ( 'NONE',  ( -0.2425000000000000211, 0.5999999999999999778, 0.000000000000000000 ) ) ;
#164 = EDGE_LOOP ( 'NONE', ( #329, #317, #501, #503, #362, #261, #327, #40, #357, #347, #131, #546, #539, #459, #201, #487 ) ) ;
#165 = CARTESIAN_POINT ( 'NONE',  ( 0.2425000000000000211, 0.3612204724409448509, 0.1181102362204724532 ) ) ;
#166 = PRESENTATION_LAYER_ASSIGNMENT (  '', '', ( #560 ) ) ;
#167 = VECTOR ( 'NONE', #79, 39.37007874015748143 ) ;
#168 = DIRECTION ( 'NONE',  ( -1.000000000000000000, 0.000000000000000000, -0.000000000000000000 ) ) ;
#169 = ORIENTED_EDGE ( 'NONE', *, *, #580, .F. ) ;
#170 = CARTESIAN_POINT ( 'NONE',  ( -0.2425000000000000211, 0.5999999999999999778, -0.1181102362204724532 ) ) ;
#171 = EDGE_CURVE ( 'NONE', #279, #43, #92, .T. ) ;
#172 = CARTESIAN_POINT ( 'NONE',  ( 0.3425000000000000266, 0.000000000000000000, -0.000000000000000000 ) ) ;
#173 = ORIENTED_EDGE ( 'NONE', *, *, #467, .T. ) ;
#174 = CARTESIAN_POINT ( 'NONE',  ( -0.2425000000000000211, 0.4862204724409449064, 0.1181102362204724532 ) ) ;
#175 = PLANE ( 'NONE',  #477 ) ;
#176 = ORIENTED_EDGE ( 'NONE', *, *, #132, .F. ) ;
#177 = LINE ( 'NONE', #307, #249 ) ;
#178 = AXIS2_PLACEMENT_3D ( 'NONE', #543, #181, #285 ) ;
#179 = EDGE_CURVE ( 'NONE', #562, #430, #498, .T. ) ;
#180 = ORIENTED_EDGE ( 'NONE', *, *, #16, .T. ) ;
#181 = DIRECTION ( 'NONE',  ( 0.000000000000000000, 0.000000000000000000, 1.000000000000000000 ) ) ;
#182 = LINE ( 'NONE', #130, #504 ) ;
#183 = ORIENTED_EDGE ( 'NONE', *, *, #243, .T. ) ;
#184 =( NAMED_UNIT ( * ) PLANE_ANGLE_UNIT ( ) SI_UNIT ( $, .RADIAN. ) );
#185 = DIRECTION ( 'NONE',  ( 0.000000000000000000, -0.000000000000000000, -1.000000000000000000 ) ) ;
#186 = VERTEX_POINT ( 'NONE', #136 ) ;
#187 = LINE ( 'NONE', #83, #379 ) ;
#188 = VECTOR ( 'NONE', #348, 39.37007874015748143 ) ;
#189 = VERTEX_POINT ( 'NONE', #190 ) ;
#190 = CARTESIAN_POINT ( 'NONE',  ( -0.1250000000000000833, 0.4862204724409449064, 0.1181102362204724532 ) ) ;
#191 = EDGE_CURVE ( 'NONE', #520, #89, #193, .T. ) ;
#192 = LINE ( 'NONE', #375, #571 ) ;
#193 = LINE ( 'NONE', #372, #106 ) ;
#194 = CARTESIAN_POINT ( 'NONE',  ( 0.000000000000000000, 0.000000000000000000, 0.1181102362204724532 ) ) ;
#195 = CARTESIAN_POINT ( 'NONE',  ( 0.2425000000000000211, 0.5999999999999999778, -0.1181102362204724532 ) ) ;
#196 = LINE ( 'NONE', #422, #397 ) ;
#197 = EDGE_CURVE ( 'NONE', #138, #393, #140, .T. ) ;
#198 = VECTOR ( 'NONE', #360, 39.37007874015748143 ) ;
#199 = EDGE_LOOP ( 'NONE', ( #151, #169, #14, #96 ) ) ;
#200 = CARTESIAN_POINT ( 'NONE',  ( 0.2425000000000000211, 0.5999999999999999778, 0.1181102362204724532 ) ) ;
#201 = ORIENTED_EDGE ( 'NONE', *, *, #480, .T. ) ;
#202 = CARTESIAN_POINT ( 'NONE',  ( 0.3425000000000000266, 0.000000000000000000, 0.1181102362204724532 ) ) ;
#203 = ORIENTED_EDGE ( 'NONE', *, *, #84, .T. ) ;
#204 = CARTESIAN_POINT ( 'NONE',  ( -0.2425000000000000211, 0.000000000000000000, 0.1181102362204724532 ) ) ;
#205 = VECTOR ( 'NONE', #578, 39.37007874015748143 ) ;
#206 = VERTEX_POINT ( 'NONE', #283 ) ;
#207 = PRODUCT_DEFINITION_FORMATION_WITH_SPECIFIED_SOURCE ( 'ANY', '', #37, .NOT_KNOWN. ) ;
#208 = CARTESIAN_POINT ( 'NONE',  ( -0.2425000000000000211, 0.5999999999999999778, 0.000000000000000000 ) ) ;
#209 = EDGE_CURVE ( 'NONE', #323, #248, #415, .T. ) ;
#210 = ORIENTED_EDGE ( 'NONE', *, *, #264, .T. ) ;
#211 = CARTESIAN_POINT ( 'NONE',  ( -0.2425000000000000211, 0.5999999999999999778, 0.1181102362204724532 ) ) ;
#212 = LINE ( 'NONE', #163, #461 ) ;
#213 = ADVANCED_FACE ( 'NONE', ( #286 ), #289, .F. ) ;
#214 = ORIENTED_EDGE ( 'NONE', *, *, #284, .F. ) ;
#215 = DIRECTION ( 'NONE',  ( -0.000000000000000000, -1.000000000000000000, -0.000000000000000000 ) ) ;
#216 = LINE ( 'NONE', #396, #205 ) ;
#217 = ORIENTED_EDGE ( 'NONE', *, *, #135, .T. ) ;
#218 = EDGE_CURVE ( 'NONE', #244, #272, #187, .T. ) ;
#219 = CARTESIAN_POINT ( 'NONE',  ( 0.000000000000000000, 0.3612204724409448509, 0.1181102362204724532 ) ) ;
#220 = VECTOR ( 'NONE', #215, 39.37007874015748143 ) ;
#221 = FACE_OUTER_BOUND ( 'NONE', #567, .T. ) ;
#222 = ORIENTED_EDGE ( 'NONE', *, *, #403, .F. ) ;
#223 = DIRECTION ( 'NONE',  ( -1.000000000000000000, 0.000000000000000000, 0.000000000000000000 ) ) ;
#224 = DIRECTION ( 'NONE',  ( 0.000000000000000000, 1.000000000000000000, -0.000000000000000000 ) ) ;
#225 = ORIENTED_EDGE ( 'NONE', *, *, #450, .T. ) ;
#226 =( LENGTH_UNIT ( ) NAMED_UNIT ( * ) SI_UNIT ( $, .METRE. ) );
#227 = ORIENTED_EDGE ( 'NONE', *, *, #171, .T. ) ;
#228 = AXIS2_PLACEMENT_3D ( 'NONE', #72, #404, #446 ) ;
#229 = CARTESIAN_POINT ( 'NONE',  ( -0.2425000000000000211, 0.3612204724409448509, 0.1181102362204724532 ) ) ;
#230 = ADVANCED_FACE ( 'NONE', ( #409 ), #46, .T. ) ;
#231 = ORIENTED_EDGE ( 'NONE', *, *, #95, .F. ) ;
#232 = DIRECTION ( 'NONE',  ( -0.000000000000000000, -0.000000000000000000, -1.000000000000000000 ) ) ;
#233 = PRODUCT_DEFINITION_SHAPE ( 'NONE', 'NONE',  #502 ) ;
#234 = ORIENTED_EDGE ( 'NONE', *, *, #342, .F. ) ;
#235 = CARTESIAN_POINT ( 'NONE',  ( 0.000000000000000000, 0.4862204724409449064, 0.1181102362204724532 ) ) ;
#236 = DIRECTION ( 'NONE',  ( 1.000000000000000000, 2.731847993664264205E-16, -0.000000000000000000 ) ) ;
#237 = ADVANCED_FACE ( 'NONE', ( #36 ), #411, .T. ) ;
#238 = CARTESIAN_POINT ( 'NONE',  ( 0.2425000000000000211, 0.5999999999999999778, 0.000000000000000000 ) ) ;
#239 = VECTOR ( 'NONE', #364, 39.37007874015748143 ) ;
#240 = CARTESIAN_POINT ( 'NONE',  ( 0.1250000000000000555, 3.414809992080331488E-17, -0.1181102362204724532 ) ) ;
#241 = PRODUCT_RELATED_PRODUCT_CATEGORY ( 'part', '', ( #37 ) ) ;
#242 = DIRECTION ( 'NONE',  ( -0.000000000000000000, -0.000000000000000000, -1.000000000000000000 ) ) ;
#243 = EDGE_CURVE ( 'NONE', #497, #43, #41, .T. ) ;
#244 = VERTEX_POINT ( 'NONE', #418 ) ;
#245 = PLANE ( 'NONE',  #533 ) ;
#246 = LINE ( 'NONE', #240, #290 ) ;
#247 = CARTESIAN_POINT ( 'NONE',  ( -0.3424999999999999711, -0.1000000000000000056, -0.1181102362204724532 ) ) ;
#248 = VERTEX_POINT ( 'NONE', #493 ) ;
#249 = VECTOR ( 'NONE', #534, 39.37007874015748143 ) ;
#250 = FACE_OUTER_BOUND ( 'NONE', #509, .T. ) ;
#251 = CARTESIAN_POINT ( 'NONE',  ( 0.2425000000000000211, 0.3612204724409448509, 0.1181102362204724532 ) ) ;
#252 = ORIENTED_EDGE ( 'NONE', *, *, #548, .T. ) ;
#253 = EDGE_CURVE ( 'NONE', #21, #373, #139, .T. ) ;
#254 = PLANE ( 'NONE',  #270 ) ;
#255 = AXIS2_PLACEMENT_3D ( 'NONE', #337, #93, #101 ) ;
#256 = EDGE_LOOP ( 'NONE', ( #303, #203, #124, #492 ) ) ;
#257 = VECTOR ( 'NONE', #428, 39.37007874015748143 ) ;
#258 = LINE ( 'NONE', #315, #137 ) ;
#259 =( NAMED_UNIT ( * ) PLANE_ANGLE_UNIT ( ) SI_UNIT ( $, .RADIAN. ) );
#260 = APPLICATION_CONTEXT ( 'automotive_design' ) ;
#261 = ORIENTED_EDGE ( 'NONE', *, *, #141, .F. ) ;
#262 = CARTESIAN_POINT ( 'NONE',  ( 0.1249999999999999167, 0.4862204724409449064, 0.1181102362204724532 ) ) ;
#263 = CARTESIAN_POINT ( 'NONE',  ( 0.2425000000000000211, 0.5999999999999999778, 0.1181102362204724532 ) ) ;
#264 = EDGE_CURVE ( 'NONE', #323, #335, #182, .T. ) ;
#265 = VERTEX_POINT ( 'NONE', #90 ) ;
#266 = DIRECTION ( 'NONE',  ( 0.000000000000000000, 0.000000000000000000, 1.000000000000000000 ) ) ;
#267 = PLANE ( 'NONE',  #228 ) ;
#268 = VERTEX_POINT ( 'NONE', #81 ) ;
#269 = CARTESIAN_POINT ( 'NONE',  ( 0.3425000000000000266, -0.1000000000000000056, 0.1181102362204724532 ) ) ;
#270 = AXIS2_PLACEMENT_3D ( 'NONE', #514, #297, #144 ) ;
#271 = CARTESIAN_POINT ( 'NONE',  ( -0.2425000000000000211, 0.4862204724409449064, 0.1181102362204724532 ) ) ;
#272 = VERTEX_POINT ( 'NONE', #229 ) ;
#273 = CARTESIAN_POINT ( 'NONE',  ( 0.000000000000000000, 0.5999999999999999778, -0.1181102362204724532 ) ) ;
#274 = CARTESIAN_POINT ( 'NONE',  ( 0.000000000000000000, 0.5999999999999999778, -0.1181102362204724532 ) ) ;
#275 = ORIENTED_EDGE ( 'NONE', *, *, #253, .T. ) ;
#276 = SHAPE_DEFINITION_REPRESENTATION ( #233, #159 ) ;
#277 = LINE ( 'NONE', #458, #486 ) ;
#278 = UNCERTAINTY_MEASURE_WITH_UNIT (LENGTH_MEASURE( 1.000000000000000082E-05 ), #448, 'distance_accuracy_value', 'NONE');
#279 = VERTEX_POINT ( 'NONE', #536 ) ;
#280 = CARTESIAN_POINT ( 'NONE',  ( -0.1250000000000000833, 0.4862204724409449064, 0.1181102362204724532 ) ) ;
#281 = VECTOR ( 'NONE', #338, 39.37007874015748143 ) ;
#282 = ORIENTED_EDGE ( 'NONE', *, *, #382, .F. ) ;
#283 = CARTESIAN_POINT ( 'NONE',  ( 0.2425000000000000211, 0.000000000000000000, 0.1181102362204724532 ) ) ;
#284 = EDGE_CURVE ( 'NONE', #189, #497, #133, .T. ) ;
#285 = DIRECTION ( 'NONE',  ( 1.000000000000000000, 0.000000000000000000, 0.000000000000000000 ) ) ;
#286 = FACE_OUTER_BOUND ( 'NONE', #339, .T. ) ;
#287 = DIRECTION ( 'NONE',  ( 2.731847993664262725E-16, 1.000000000000000000, 0.000000000000000000 ) ) ;
#288 = APPLICATION_PROTOCOL_DEFINITION ( 'draft international standard', 'automotive_design', 1998, #260 ) ;
#289 = PLANE ( 'NONE',  #318 ) ;
#290 = VECTOR ( 'NONE', #417, 39.37007874015748143 ) ;
#291 = DIRECTION ( 'NONE',  ( 0.000000000000000000, 1.000000000000000000, 0.000000000000000000 ) ) ;
#292 = EDGE_CURVE ( 'NONE', #369, #21, #368, .T. ) ;
#293 = CARTESIAN_POINT ( 'NONE',  ( 0.3425000000000000266, 0.000000000000000000, -0.1181102362204724532 ) ) ;
#294 = PLANE ( 'NONE',  #407 ) ;
#295 = CARTESIAN_POINT ( 'NONE',  ( -0.1250000000000001110, 0.3612204724409448509, 0.1181102362204724532 ) ) ;
#296 = FACE_OUTER_BOUND ( 'NONE', #353, .T. ) ;
#297 = DIRECTION ( 'NONE',  ( 1.000000000000000000, 0.000000000000000000, 0.000000000000000000 ) ) ;
#298 = VECTOR ( 'NONE', #529, 39.37007874015748143 ) ;
#299 = AXIS2_PLACEMENT_3D ( 'NONE', #71, #402, #266 ) ;
#300 = ORIENTED_EDGE ( 'NONE', *, *, #284, .T. ) ;
#301 = CARTESIAN_POINT ( 'NONE',  ( -0.2425000000000000211, 0.3612204724409448509, 0.1181102362204724532 ) ) ;
#302 = ADVANCED_FACE ( 'NONE', ( #13 ), #254, .T. ) ;
#303 = ORIENTED_EDGE ( 'NONE', *, *, #326, .F. ) ;
#304 = CARTESIAN_POINT ( 'NONE',  ( -0.3424999999999999711, 0.000000000000000000, 0.1181102362204724532 ) ) ;
#305 = ORIENTED_EDGE ( 'NONE', *, *, #475, .F. ) ;
#306 = LINE ( 'NONE', #174, #94 ) ;
#307 = CARTESIAN_POINT ( 'NONE',  ( 0.000000000000000000, 0.3612204724409448509, -0.1181102362204724532 ) ) ;
#308 = VECTOR ( 'NONE', #496, 39.37007874015748143 ) ;
#309 = VECTOR ( 'NONE', #556, 39.37007874015748143 ) ;
#310 = CARTESIAN_POINT ( 'NONE',  ( 0.2425000000000000211, 0.000000000000000000, -0.000000000000000000 ) ) ;
#311 =( CONVERSION_BASED_UNIT ( 'INCH', #566 ) LENGTH_UNIT ( ) NAMED_UNIT ( #425 ) );
#312 = DIRECTION ( 'NONE',  ( 1.000000000000000000, -0.000000000000000000, 0.000000000000000000 ) ) ;
#313 = PLANE ( 'NONE',  #26 ) ;
#314 = ORIENTED_EDGE ( 'NONE', *, *, #38, .T. ) ;
#315 = CARTESIAN_POINT ( 'NONE',  ( 0.000000000000000000, 0.000000000000000000, 0.1181102362204724532 ) ) ;
#316 = CARTESIAN_POINT ( 'NONE',  ( 0.2425000000000000211, 0.4862204724409449064, -0.1181102362204724532 ) ) ;
#317 = ORIENTED_EDGE ( 'NONE', *, *, #585, .T. ) ;
#318 = AXIS2_PLACEMENT_3D ( 'NONE', #589, #456, #1 ) ;
#319 = LINE ( 'NONE', #519, #478 ) ;
#320 = DIRECTION ( 'NONE',  ( 0.000000000000000000, 0.000000000000000000, 1.000000000000000000 ) ) ;
#321 = EDGE_CURVE ( 'NONE', #473, #383, #52, .T. ) ;
#322 = DIRECTION ( 'NONE',  ( 0.000000000000000000, 1.000000000000000000, -0.000000000000000000 ) ) ;
#323 = VERTEX_POINT ( 'NONE', #247 ) ;
#324 = ORIENTED_EDGE ( 'NONE', *, *, #507, .T. ) ;
#325 = DIRECTION ( 'NONE',  ( 0.000000000000000000, 0.000000000000000000, 1.000000000000000000 ) ) ;
#326 = EDGE_CURVE ( 'NONE', #447, #369, #511, .T. ) ;
#327 = ORIENTED_EDGE ( 'NONE', *, *, #191, .T. ) ;
#328 = FACE_OUTER_BOUND ( 'NONE', #121, .T. ) ;
#329 = ORIENTED_EDGE ( 'NONE', *, *, #84, .F. ) ;
#330 = CARTESIAN_POINT ( 'NONE',  ( 0.000000000000000000, 0.4862204724409449064, -0.1181102362204724532 ) ) ;
#331 = CARTESIAN_POINT ( 'NONE',  ( -0.1250000000000002220, 3.414809992080334570E-17, -0.1181102362204724532 ) ) ;
#332 = VERTEX_POINT ( 'NONE', #202 ) ;
#333 = DIRECTION ( 'NONE',  ( -0.000000000000000000, -1.000000000000000000, -0.000000000000000000 ) ) ;
#334 = AXIS2_PLACEMENT_3D ( 'NONE', #208, #55, #505 ) ;
#335 = VERTEX_POINT ( 'NONE', #57 ) ;
#336 = LINE ( 'NONE', #295, #28 ) ;
#337 = CARTESIAN_POINT ( 'NONE',  ( 0.000000000000000000, 0.5999999999999999778, 0.1181102362204724532 ) ) ;
#338 = DIRECTION ( 'NONE',  ( -0.000000000000000000, -1.000000000000000000, -0.000000000000000000 ) ) ;
#339 = EDGE_LOOP ( 'NONE', ( #217, #451, #542, #314 ) ) ;
#340 = EDGE_LOOP ( 'NONE', ( #573, #518, #275, #157, #391, #210, #107, #516, #231, #154, #183, #134, #555, #457, #99, #110 ) ) ;
#341 = CARTESIAN_POINT ( 'NONE',  ( 0.000000000000000000, 0.3612204724409448509, 0.1181102362204724532 ) ) ;
#342 = EDGE_CURVE ( 'NONE', #61, #138, #508, .T. ) ;
#343 = VECTOR ( 'NONE', #468, 39.37007874015748143 ) ;
#344 = EDGE_LOOP ( 'NONE', ( #80, #118, #365, #510 ) ) ;
#345 = CARTESIAN_POINT ( 'NONE',  ( 0.1249999999999999306, 0.3612204724409448509, 0.1181102362204724532 ) ) ;
#346 = ADVANCED_FACE ( 'NONE', ( #59 ), #423, .F. ) ;
#347 = ORIENTED_EDGE ( 'NONE', *, *, #218, .T. ) ;
#348 = DIRECTION ( 'NONE',  ( 1.565634906116251953E-16, 0.000000000000000000, 1.000000000000000000 ) ) ;
#349 = ORIENTED_EDGE ( 'NONE', *, *, #42, .F. ) ;
#350 = FACE_OUTER_BOUND ( 'NONE', #410, .T. ) ;
#351 = LINE ( 'NONE', #76, #153 ) ;
#352 = VECTOR ( 'NONE', #10, 39.37007874015748143 ) ;
#353 = EDGE_LOOP ( 'NONE', ( #513, #349, #363, #579 ) ) ;
#354 =( GEOMETRIC_REPRESENTATION_CONTEXT ( 3 ) GLOBAL_UNCERTAINTY_ASSIGNED_CONTEXT ( ( #278 ) ) GLOBAL_UNIT_ASSIGNED_CONTEXT ( ( #448, #184, #414 ) ) REPRESENTATION_CONTEXT ( 'NONE', 'WORKASPACE' ) );
#355 = PLANE ( 'NONE',  #424 ) ;
#356 = FACE_OUTER_BOUND ( 'NONE', #17, .T. ) ;
#357 = ORIENTED_EDGE ( 'NONE', *, *, #475, .T. ) ;
#358 =( LENGTH_UNIT ( ) NAMED_UNIT ( * ) SI_UNIT ( $, .METRE. ) );
#359 = LINE ( 'NONE', #263, #581 ) ;
#360 = DIRECTION ( 'NONE',  ( 1.000000000000000000, -0.000000000000000000, 0.000000000000000000 ) ) ;
#361 = DIRECTION ( 'NONE',  ( 0.000000000000000000, 0.000000000000000000, -1.000000000000000000 ) ) ;
#362 = ORIENTED_EDGE ( 'NONE', *, *, #427, .F. ) ;
#363 = ORIENTED_EDGE ( 'NONE', *, *, #179, .T. ) ;
#364 = DIRECTION ( 'NONE',  ( 1.000000000000000000, -0.000000000000000000, 0.000000000000000000 ) ) ;
#365 = ORIENTED_EDGE ( 'NONE', *, *, #484, .T. ) ;
#366 = ADVANCED_FACE ( 'NONE', ( #250 ), #551, .F. ) ;
#367 = APPLICATION_PROTOCOL_DEFINITION ( 'draft international standard', 'automotive_design', 1998, #523 ) ;
#368 = LINE ( 'NONE', #195, #86 ) ;
#369 = VERTEX_POINT ( 'NONE', #11 ) ;
#370 = VECTOR ( 'NONE', #376, 39.37007874015748143 ) ;
#371 = VECTOR ( 'NONE', #476, 39.37007874015748143 ) ;
#372 = CARTESIAN_POINT ( 'NONE',  ( -0.2425000000000000211, 0.5999999999999999778, 0.1181102362204724532 ) ) ;
#373 = VERTEX_POINT ( 'NONE', #293 ) ;
#374 = CARTESIAN_POINT ( 'NONE',  ( 0.000000000000000000, 0.4862204724409449064, -0.1181102362204724532 ) ) ;
#375 = CARTESIAN_POINT ( 'NONE',  ( 0.1249999999999999167, 0.4862204724409449064, 0.1181102362204724532 ) ) ;
#376 = DIRECTION ( 'NONE',  ( 2.731847993664264205E-16, -1.000000000000000000, 0.000000000000000000 ) ) ;
#377 = CARTESIAN_POINT ( 'NONE',  ( -0.2425000000000000211, 0.4862204724409449064, -0.1181102362204724532 ) ) ;
#378 = CARTESIAN_POINT ( 'NONE',  ( -0.3424999999999999711, -0.1000000000000000056, 5.362299553448162506E-17 ) ) ;
#379 = VECTOR ( 'NONE', #449, 39.37007874015748143 ) ;
#380 = AXIS2_PLACEMENT_3D ( 'NONE', #387, #152, #429 ) ;
#381 = CARTESIAN_POINT ( 'NONE',  ( 0.1250000000000000555, 3.414809992080331488E-17, 0.1181102362204724532 ) ) ;
#382 = EDGE_CURVE ( 'NONE', #323, #401, #62, .T. ) ;
#383 = VERTEX_POINT ( 'NONE', #204 ) ;
#384 = DIRECTION ( 'NONE',  ( -0.000000000000000000, -0.000000000000000000, -1.000000000000000000 ) ) ;
#385 = DIRECTION ( 'NONE',  ( 1.000000000000000000, -2.731847993664262725E-16, 0.000000000000000000 ) ) ;
#386 = ADVANCED_FACE ( 'NONE', ( #431 ), #245, .F. ) ;
#387 = CARTESIAN_POINT ( 'NONE',  ( 0.000000000000000000, 0.3612204724409448509, 0.1181102362204724532 ) ) ;
#388 = ORIENTED_EDGE ( 'NONE', *, *, #467, .F. ) ;
#389 = CARTESIAN_POINT ( 'NONE',  ( -0.3424999999999999711, -0.1000000000000000056, 0.1181102362204724532 ) ) ;
#390 = AXIS2_PLACEMENT_3D ( 'NONE', #235, #584, #185 ) ;
#391 = ORIENTED_EDGE ( 'NONE', *, *, #209, .F. ) ;
#392 = LINE ( 'NONE', #219, #453 ) ;
#393 = VERTEX_POINT ( 'NONE', #109 ) ;
#394 = LINE ( 'NONE', #114, #188 ) ;
#395 = CARTESIAN_POINT ( 'NONE',  ( 0.1249999999999999306, 0.3612204724409448509, 0.1181102362204724532 ) ) ;
#396 = CARTESIAN_POINT ( 'NONE',  ( 0.2425000000000000211, 0.5999999999999999778, 0.000000000000000000 ) ) ;
#397 = VECTOR ( 'NONE', #291, 39.37007874015748143 ) ;
#398 = VERTEX_POINT ( 'NONE', #304 ) ;
#399 = VECTOR ( 'NONE', #469, 39.37007874015748143 ) ;
#400 = LINE ( 'NONE', #172, #298 ) ;
#401 = VERTEX_POINT ( 'NONE', #421 ) ;
#402 = DIRECTION ( 'NONE',  ( 0.000000000000000000, 1.000000000000000000, -0.000000000000000000 ) ) ;
#403 = EDGE_CURVE ( 'NONE', #272, #31, #5, .T. ) ;
#404 = DIRECTION ( 'NONE',  ( 0.000000000000000000, 1.000000000000000000, -0.000000000000000000 ) ) ;
#405 = ORIENTED_EDGE ( 'NONE', *, *, #66, .T. ) ;
#406 = EDGE_LOOP ( 'NONE', ( #103, #222, #564, #35 ) ) ;
#407 = AXIS2_PLACEMENT_3D ( 'NONE', #56, #224, #320 ) ;
#408 = VECTOR ( 'NONE', #25, 39.37007874015748143 ) ;
#409 = FACE_OUTER_BOUND ( 'NONE', #63, .T. ) ;
#410 = EDGE_LOOP ( 'NONE', ( #7, #252, #180, #143 ) ) ;
#411 = PLANE ( 'NONE',  #452 ) ;
#412 = DIMENSIONAL_EXPONENTS ( 1.000000000000000000, 0.000000000000000000, 0.000000000000000000, 0.000000000000000000, 0.000000000000000000, 0.000000000000000000, 0.000000000000000000 ) ;
#413 = ORIENTED_EDGE ( 'NONE', *, *, #264, .F. ) ;
#414 =( NAMED_UNIT ( * ) SI_UNIT ( $, .STERADIAN. ) SOLID_ANGLE_UNIT ( ) );
#415 = LINE ( 'NONE', #500, #239 ) ;
#416 = DIRECTION ( 'NONE',  ( 1.000000000000000000, 0.000000000000000000, 0.000000000000000000 ) ) ;
#417 = DIRECTION ( 'NONE',  ( 2.731847993664264205E-16, -1.000000000000000000, 0.000000000000000000 ) ) ;
#418 = CARTESIAN_POINT ( 'NONE',  ( -0.1250000000000001110, 0.3612204724409448509, 0.1181102362204724532 ) ) ;
#419 = EDGE_CURVE ( 'NONE', #401, #398, #104, .T. ) ;
#420 = LINE ( 'NONE', #331, #343 ) ;
#421 = CARTESIAN_POINT ( 'NONE',  ( -0.3424999999999999711, -0.1000000000000000056, 0.1181102362204724532 ) ) ;
#422 = CARTESIAN_POINT ( 'NONE',  ( 0.3425000000000000266, -0.1000000000000000056, -0.1181102362204724532 ) ) ;
#423 = PLANE ( 'NONE',  #380 ) ;
#424 = AXIS2_PLACEMENT_3D ( 'NONE', #74, #69, #577 ) ;
#425 = DIMENSIONAL_EXPONENTS ( 1.000000000000000000, 0.000000000000000000, 0.000000000000000000, 0.000000000000000000, 0.000000000000000000, 0.000000000000000000, 0.000000000000000000 ) ;
#426 = CARTESIAN_POINT ( 'NONE',  ( 0.2425000000000000211, 0.000000000000000000, -0.1181102362204724532 ) ) ;
#427 = EDGE_CURVE ( 'NONE', #186, #128, #156, .T. ) ;
#428 = DIRECTION ( 'NONE',  ( -0.000000000000000000, -0.000000000000000000, -1.000000000000000000 ) ) ;
#429 = DIRECTION ( 'NONE',  ( 0.000000000000000000, -0.000000000000000000, -1.000000000000000000 ) ) ;
#430 = VERTEX_POINT ( 'NONE', #345 ) ;
#431 = FACE_OUTER_BOUND ( 'NONE', #199, .T. ) ;
#432 = ADVANCED_FACE ( 'NONE', ( #15 ), #111, .F. ) ;
#433 = VERTEX_POINT ( 'NONE', #9 ) ;
#434 = DIRECTION ( 'NONE',  ( 0.000000000000000000, 0.000000000000000000, 1.000000000000000000 ) ) ;
#435 = DIRECTION ( 'NONE',  ( 0.000000000000000000, 0.000000000000000000, 1.000000000000000000 ) ) ;
#436 = DIRECTION ( 'NONE',  ( -1.000000000000000000, 0.000000000000000000, 0.000000000000000000 ) ) ;
#437 = ORIENTED_EDGE ( 'NONE', *, *, #123, .F. ) ;
#438 = LINE ( 'NONE', #125, #155 ) ;
#439 = DIRECTION ( 'NONE',  ( -1.000000000000000000, 0.000000000000000000, 1.565634906116251706E-16 ) ) ;
#440 = VECTOR ( 'NONE', #232, 39.37007874015748143 ) ;
#441 = EDGE_CURVE ( 'NONE', #244, #268, #336, .T. ) ;
#442 = LINE ( 'NONE', #482, #198 ) ;
#443 = DIRECTION ( 'NONE',  ( -0.000000000000000000, -1.000000000000000000, -0.000000000000000000 ) ) ;
#444 = ORIENTED_EDGE ( 'NONE', *, *, #382, .T. ) ;
#445 = EDGE_CURVE ( 'NONE', #335, #473, #554, .T. ) ;
#446 = DIRECTION ( 'NONE',  ( 0.000000000000000000, 0.000000000000000000, 1.000000000000000000 ) ) ;
#447 = VERTEX_POINT ( 'NONE', #165 ) ;
#448 =( CONVERSION_BASED_UNIT ( 'INCH', #563 ) LENGTH_UNIT ( ) NAMED_UNIT ( #412 ) );
#449 = DIRECTION ( 'NONE',  ( -1.000000000000000000, 0.000000000000000000, 0.000000000000000000 ) ) ;
#450 = EDGE_CURVE ( 'NONE', #189, #89, #319, .T. ) ;
#451 = ORIENTED_EDGE ( 'NONE', *, *, #480, .F. ) ;
#452 = AXIS2_PLACEMENT_3D ( 'NONE', #238, #416, #49 ) ;
#453 = VECTOR ( 'NONE', #223, 39.37007874015748143 ) ;
#454 = CARTESIAN_POINT ( 'NONE',  ( 0.000000000000000000, 0.000000000000000000, -0.1181102362204724532 ) ) ;
#455 = ORIENTED_EDGE ( 'NONE', *, *, #160, .T. ) ;
#456 = DIRECTION ( 'NONE',  ( -1.000000000000000000, 0.000000000000000000, 0.000000000000000000 ) ) ;
#457 = ORIENTED_EDGE ( 'NONE', *, *, #342, .T. ) ;
#458 = CARTESIAN_POINT ( 'NONE',  ( 0.2425000000000000211, 0.4862204724409449064, 0.1181102362204724532 ) ) ;
#459 = ORIENTED_EDGE ( 'NONE', *, *, #553, .T. ) ;
#460 = ADVANCED_FACE ( 'NONE', ( #488 ), #355, .T. ) ;
#461 = VECTOR ( 'NONE', #435, 39.37007874015748143 ) ;
#462 = DIRECTION ( 'NONE',  ( -0.000000000000000000, -1.000000000000000000, -0.000000000000000000 ) ) ;
#463 = ORIENTED_EDGE ( 'NONE', *, *, #541, .T. ) ;
#464 = CARTESIAN_POINT ( 'NONE',  ( -0.2425000000000000211, 0.5999999999999999778, 0.000000000000000000 ) ) ;
#465 = CARTESIAN_POINT ( 'NONE',  ( -0.2425000000000000211, 0.3612204724409448509, -0.1181102362204724532 ) ) ;
#466 = CARTESIAN_POINT ( 'NONE',  ( 0.2425000000000000211, 0.5999999999999999778, -0.1181102362204724532 ) ) ;
#467 = EDGE_CURVE ( 'NONE', #89, #43, #306, .T. ) ;
#468 = DIRECTION ( 'NONE',  ( -2.731847993664262725E-16, -1.000000000000000000, 0.000000000000000000 ) ) ;
#469 = DIRECTION ( 'NONE',  ( 0.000000000000000000, 0.000000000000000000, 1.000000000000000000 ) ) ;
#470 = MECHANICAL_DESIGN_GEOMETRIC_PRESENTATION_REPRESENTATION (  '', ( #560 ), #126 ) ;
#471 = VECTOR ( 'NONE', #147, 39.37007874015748143 ) ;
#472 = CARTESIAN_POINT ( 'NONE',  ( -0.2425000000000000211, 0.000000000000000000, 0.000000000000000000 ) ) ;
#473 = VERTEX_POINT ( 'NONE', #528 ) ;
#474 = DIRECTION ( 'NONE',  ( -0.000000000000000000, -1.000000000000000000, -0.000000000000000000 ) ) ;
#475 = EDGE_CURVE ( 'NONE', #189, #244, #521, .T. ) ;
#476 = DIRECTION ( 'NONE',  ( 1.000000000000000000, -0.000000000000000000, 0.000000000000000000 ) ) ;
#477 = AXIS2_PLACEMENT_3D ( 'NONE', #274, #361, #168 ) ;
#478 = VECTOR ( 'NONE', #112, 39.37007874015748143 ) ;
#479 = LINE ( 'NONE', #273, #116 ) ;
#480 = EDGE_CURVE ( 'NONE', #265, #332, #525, .T. ) ;
#481 = ORIENTED_EDGE ( 'NONE', *, *, #321, .T. ) ;
#482 = CARTESIAN_POINT ( 'NONE',  ( 0.000000000000000000, -0.1000000000000000056, 0.1181102362204724532 ) ) ;
#483 = CARTESIAN_POINT ( 'NONE',  ( -0.3424999999999999711, -0.1000000000000000056, 5.362299553448162506E-17 ) ) ;
#484 = EDGE_CURVE ( 'NONE', #335, #398, #394, .T. ) ;
#485 = LINE ( 'NONE', #570, #549 ) ;
#486 = VECTOR ( 'NONE', #242, 39.37007874015748143 ) ;
#487 = ORIENTED_EDGE ( 'NONE', *, *, #16, .F. ) ;
#488 = FACE_OUTER_BOUND ( 'NONE', #87, .T. ) ;
#489 = SURFACE_STYLE_FILL_AREA ( #575 ) ;
#490 = ORIENTED_EDGE ( 'NONE', *, *, #66, .F. ) ;
#491 = DIRECTION ( 'NONE',  ( 0.000000000000000000, 1.000000000000000000, 0.000000000000000000 ) ) ;
#492 = ORIENTED_EDGE ( 'NONE', *, *, #292, .F. ) ;
#493 = CARTESIAN_POINT ( 'NONE',  ( 0.3425000000000000266, -0.1000000000000000056, -0.1181102362204724532 ) ) ;
#494 = ORIENTED_EDGE ( 'NONE', *, *, #191, .F. ) ;
#495 = VECTOR ( 'NONE', #333, 39.37007874015748143 ) ;
#496 = DIRECTION ( 'NONE',  ( -0.000000000000000000, -1.000000000000000000, -0.000000000000000000 ) ) ;
#497 = VERTEX_POINT ( 'NONE', #119 ) ;
#498 = LINE ( 'NONE', #538, #370 ) ;
#499 = EDGE_CURVE ( 'NONE', #398, #383, #258, .T. ) ;
#500 = CARTESIAN_POINT ( 'NONE',  ( 0.000000000000000000, -0.1000000000000000056, -0.1181102362204724532 ) ) ;
#501 = ORIENTED_EDGE ( 'NONE', *, *, #179, .F. ) ;
#502 = PRODUCT_DEFINITION ( 'UNKNOWN', '', #207, #50 ) ;
#503 = ORIENTED_EDGE ( 'NONE', *, *, #568, .F. ) ;
#504 = VECTOR ( 'NONE', #491, 39.37007874015748143 ) ;
#505 = DIRECTION ( 'NONE',  ( 0.000000000000000000, 0.000000000000000000, -1.000000000000000000 ) ) ;
#506 = CARTESIAN_POINT ( 'NONE',  ( 0.000000000000000000, 0.3612204724409448509, -0.1181102362204724532 ) ) ;
#507 = EDGE_CURVE ( 'NONE', #31, #473, #122, .T. ) ;
#508 = LINE ( 'NONE', #466, #281 ) ;
#509 = EDGE_LOOP ( 'NONE', ( #437, #68, #324, #481 ) ) ;
#510 = ORIENTED_EDGE ( 'NONE', *, *, #499, .T. ) ;
#511 = LINE ( 'NONE', #251, #257 ) ;
#512 = PLANE ( 'NONE',  #145 ) ;
#513 = ORIENTED_EDGE ( 'NONE', *, *, #33, .F. ) ;
#514 = CARTESIAN_POINT ( 'NONE',  ( 0.2425000000000000211, 0.5999999999999999778, 0.000000000000000000 ) ) ;
#515 = VECTOR ( 'NONE', #434, 39.37007874015748143 ) ;
#516 = ORIENTED_EDGE ( 'NONE', *, *, #507, .F. ) ;
#517 = DIRECTION ( 'NONE',  ( 0.000000000000000000, -1.000000000000000000, 0.000000000000000000 ) ) ;
#518 = ORIENTED_EDGE ( 'NONE', *, *, #292, .T. ) ;
#519 = CARTESIAN_POINT ( 'NONE',  ( 0.000000000000000000, 0.4862204724409449064, 0.1181102362204724532 ) ) ;
#520 = VERTEX_POINT ( 'NONE', #211 ) ;
#521 = LINE ( 'NONE', #574, #108 ) ;
#522 = PRESENTATION_STYLE_ASSIGNMENT (( #117 ) ) ;
#523 = APPLICATION_CONTEXT ( 'automotive_design' ) ;
#524 = ORIENTED_EDGE ( 'NONE', *, *, #427, .T. ) ;
#525 = LINE ( 'NONE', #269, #572 ) ;
#526 = DIRECTION ( 'NONE',  ( 1.000000000000000000, -0.000000000000000000, 0.000000000000000000 ) ) ;
#527 = UNCERTAINTY_MEASURE_WITH_UNIT (LENGTH_MEASURE( 1.000000000000000082E-05 ), #311, 'distance_accuracy_value', 'NONE');
#528 = CARTESIAN_POINT ( 'NONE',  ( -0.2425000000000000211, 0.000000000000000000, -0.1181102362204724532 ) ) ;
#529 = DIRECTION ( 'NONE',  ( 0.000000000000000000, 0.000000000000000000, 1.000000000000000000 ) ) ;
#530 = PLANE ( 'NONE',  #299 ) ;
#531 = SURFACE_SIDE_STYLE ('',( #489 ) ) ;
#532 = AXIS2_PLACEMENT_3D ( 'NONE', #544, #322, #325 ) ;
#533 = AXIS2_PLACEMENT_3D ( 'NONE', #341, #517, #100 ) ;
#534 = DIRECTION ( 'NONE',  ( -1.000000000000000000, 0.000000000000000000, 0.000000000000000000 ) ) ;
#535 = ORIENTED_EDGE ( 'NONE', *, *, #197, .F. ) ;
#536 = CARTESIAN_POINT ( 'NONE',  ( -0.2425000000000000211, 0.5999999999999999778, -0.1181102362204724532 ) ) ;
#537 = ORIENTED_EDGE ( 'NONE', *, *, #484, .F. ) ;
#538 = CARTESIAN_POINT ( 'NONE',  ( 0.1250000000000000555, 3.414809992080331488E-17, 0.1181102362204724532 ) ) ;
#539 = ORIENTED_EDGE ( 'NONE', *, *, #419, .F. ) ;
#540 = DIRECTION ( 'NONE',  ( -1.000000000000000000, 0.000000000000000000, 0.000000000000000000 ) ) ;
#541 = EDGE_CURVE ( 'NONE', #248, #265, #565, .T. ) ;
#542 = ORIENTED_EDGE ( 'NONE', *, *, #541, .F. ) ;
#543 = CARTESIAN_POINT ( 'NONE',  ( 0.000000000000000000, 0.000000000000000000, 0.000000000000000000 ) ) ;
#544 = CARTESIAN_POINT ( 'NONE',  ( 0.000000000000000000, -0.1000000000000000056, 0.000000000000000000 ) ) ;
#545 = PLANE ( 'NONE',  #115 ) ;
#546 = ORIENTED_EDGE ( 'NONE', *, *, #499, .F. ) ;
#547 = DIRECTION ( 'NONE',  ( 1.000000000000000000, 0.000000000000000000, 0.000000000000000000 ) ) ;
#548 = EDGE_CURVE ( 'NONE', #21, #206, #162, .T. ) ;
#549 = VECTOR ( 'NONE', #526, 39.37007874015748143 ) ;
#550 = VECTOR ( 'NONE', #3, 39.37007874015748143 ) ;
#551 = PLANE ( 'NONE',  #67 ) ;
#552 = LINE ( 'NONE', #194, #352 ) ;
#553 = EDGE_CURVE ( 'NONE', #401, #265, #442, .T. ) ;
#554 = LINE ( 'NONE', #150, #371 ) ;
#555 = ORIENTED_EDGE ( 'NONE', *, *, #557, .T. ) ;
#556 = DIRECTION ( 'NONE',  ( 1.565634906116251953E-16, 0.000000000000000000, 1.000000000000000000 ) ) ;
#557 = EDGE_CURVE ( 'NONE', #279, #61, #479, .T. ) ;
#558 = ORIENTED_EDGE ( 'NONE', *, *, #141, .T. ) ;
#559 = DIRECTION ( 'NONE',  ( 0.000000000000000000, 1.000000000000000000, 0.000000000000000000 ) ) ;
#560 = STYLED_ITEM ( 'NONE', ( #522 ), #102 ) ;
#561 = ADVANCED_FACE ( 'NONE', ( #350 ), #530, .T. ) ;
#562 = VERTEX_POINT ( 'NONE', #262 ) ;
#563 = LENGTH_MEASURE_WITH_UNIT ( LENGTH_MEASURE( 0.02539999999999999897 ), #358 );
#564 = ORIENTED_EDGE ( 'NONE', *, *, #218, .F. ) ;
#565 = LINE ( 'NONE', #18, #167 ) ;
#566 = LENGTH_MEASURE_WITH_UNIT ( LENGTH_MEASURE( 0.02539999999999999897 ), #226 );
#567 = EDGE_LOOP ( 'NONE', ( #176, #576, #405, #558 ) ) ;
#568 = EDGE_CURVE ( 'NONE', #128, #562, #438, .T. ) ;
#569 = DIRECTION ( 'NONE',  ( 1.000000000000000000, -0.000000000000000000, 0.000000000000000000 ) ) ;
#570 = CARTESIAN_POINT ( 'NONE',  ( 0.000000000000000000, 0.5999999999999999778, 0.1181102362204724532 ) ) ;
#571 = VECTOR ( 'NONE', #6, 39.37007874015748143 ) ;
#572 = VECTOR ( 'NONE', #32, 39.37007874015748143 ) ;
#573 = ORIENTED_EDGE ( 'NONE', *, *, #48, .F. ) ;
#574 = CARTESIAN_POINT ( 'NONE',  ( -0.1250000000000002220, 3.414809992080334570E-17, 0.1181102362204724532 ) ) ;
#575 = FILL_AREA_STYLE ('',( #120 ) ) ;
#576 = ORIENTED_EDGE ( 'NONE', *, *, #557, .F. ) ;
#577 = DIRECTION ( 'NONE',  ( 0.000000000000000000, -0.000000000000000000, -1.000000000000000000 ) ) ;
#578 = DIRECTION ( 'NONE',  ( 0.000000000000000000, 0.000000000000000000, 1.000000000000000000 ) ) ;
#579 = ORIENTED_EDGE ( 'NONE', *, *, #580, .T. ) ;
#580 = EDGE_CURVE ( 'NONE', #430, #433, #22, .T. ) ;
#581 = VECTOR ( 'NONE', #19, 39.37007874015748143 ) ;
#582 = VECTOR ( 'NONE', #559, 39.37007874015748143 ) ;
#583 = EDGE_LOOP ( 'NONE', ( #388, #494, #490, #227 ) ) ;
#584 = DIRECTION ( 'NONE',  ( 0.000000000000000000, -1.000000000000000000, 0.000000000000000000 ) ) ;
#585 = EDGE_CURVE ( 'NONE', #447, #430, #392, .T. ) ;
#586 = ORIENTED_EDGE ( 'NONE', *, *, #209, .T. ) ;
#587 = CARTESIAN_POINT ( 'NONE',  ( -0.2425000000000000211, 0.5999999999999999778, -0.1181102362204724532 ) ) ;
#588 = ORIENTED_EDGE ( 'NONE', *, *, #20, .T. ) ;
#589 = CARTESIAN_POINT ( 'NONE',  ( 0.3425000000000000266, -0.1000000000000000056, 0.000000000000000000 ) ) ;
ENDSEC;
END-ISO-10303-21;
