ISO-10303-21;
HEADER;
FILE_DESCRIPTION (( 'STEP AP214' ),
    '1' );
FILE_NAME ('PinClip.STEP',
    '2026-04-07T14:04:40',
    ( '' ),
    ( '' ),
    'SwSTEP 2.0',
    'SolidWorks 2025',
    '' );
FILE_SCHEMA (( 'AUTOMOTIVE_DESIGN' ));
ENDSEC;

DATA;
#1 = ORIENTED_EDGE ( 'NONE', *, *, #3, .F. ) ;
#2 = CARTESIAN_POINT ( 'NONE',  ( -0.1075000000000000261, 0.1170792079207920722, -0.1992079207920792461 ) ) ;
#3 = EDGE_CURVE ( 'NONE', #491, #271, #126, .T. ) ;
#4 = DIRECTION ( 'NONE',  ( -0.000000000000000000, -1.000000000000000000, -0.000000000000000000 ) ) ;
#5 = EDGE_LOOP ( 'NONE', ( #581, #577, #47, #543, #26, #96, #548, #193, #513, #37, #483, #429, #466, #88, #418, #358, #680, #702 ) ) ;
#6 = LINE ( 'NONE', #603, #81 ) ;
#7 = ADVANCED_FACE ( 'NONE', ( #494 ), #72, .T. ) ;
#8 = DIRECTION ( 'NONE',  ( -2.328279540054769452E-16, -0.000000000000000000, -1.000000000000000000 ) ) ;
#9 = CLOSED_SHELL ( 'NONE', ( #705, #443, #673, #276, #284, #133, #171, #28, #194, #439, #310, #102, #268, #35, #173, #299, #7, #504, #321, #255, #306, #610 ) ) ;
#10 = DIRECTION ( 'NONE',  ( 0.000000000000000000, -1.000000000000000000, 0.000000000000000000 ) ) ;
#11 =( GEOMETRIC_REPRESENTATION_CONTEXT ( 3 ) GLOBAL_UNCERTAINTY_ASSIGNED_CONTEXT ( ( #566 ) ) GLOBAL_UNIT_ASSIGNED_CONTEXT ( ( #191, #195, #481 ) ) REPRESENTATION_CONTEXT ( 'NONE', 'WORKASPACE' ) );
#12 = CARTESIAN_POINT ( 'NONE',  ( 0.1075000000000000261, 0.1250000000000000000, -0.2000000000000000111 ) ) ;
#13 = ORIENTED_EDGE ( 'NONE', *, *, #45, .T. ) ;
#14 =( NAMED_UNIT ( * ) SI_UNIT ( $, .STERADIAN. ) SOLID_ANGLE_UNIT ( ) );
#15 = ORIENTED_EDGE ( 'NONE', *, *, #362, .T. ) ;
#16 = EDGE_CURVE ( 'NONE', #211, #101, #281, .T. ) ;
#17 = CARTESIAN_POINT ( 'NONE',  ( 0.1275000000000000300, 0.1250000000000000000, -0.2200000000000000011 ) ) ;
#18 = FACE_OUTER_BOUND ( 'NONE', #262, .T. ) ;
#19 = ORIENTED_EDGE ( 'NONE', *, *, #217, .F. ) ;
#20 = AXIS2_PLACEMENT_3D ( 'NONE', #401, #696, #643 ) ;
#21 = CARTESIAN_POINT ( 'NONE',  ( -0.2275000000000000910, 0.1199999999999999817, -0.1699999999999999845 ) ) ;
#22 = DIRECTION ( 'NONE',  ( -7.114187483500686081E-17, -0.000000000000000000, -1.000000000000000000 ) ) ;
#23 = FACE_OUTER_BOUND ( 'NONE', #190, .T. ) ;
#24 = CARTESIAN_POINT ( 'NONE',  ( -0.1075000000000000261, 0.1250000000000000000, -0.2000000000000000111 ) ) ;
#25 = FACE_OUTER_BOUND ( 'NONE', #470, .T. ) ;
#26 = ORIENTED_EDGE ( 'NONE', *, *, #656, .F. ) ;
#27 = DIRECTION ( 'NONE',  ( -1.000000000000000000, -0.000000000000000000, -0.000000000000000000 ) ) ;
#28 = ADVANCED_FACE ( 'NONE', ( #225 ), #678, .F. ) ;
#29 = PLANE ( 'NONE',  #612 ) ;
#30 = ORIENTED_EDGE ( 'NONE', *, *, #62, .T. ) ;
#31 = CARTESIAN_POINT ( 'NONE',  ( -0.1075000000000000261, 0.000000000000000000, -0.2000000000000000111 ) ) ;
#32 = AXIS2_PLACEMENT_3D ( 'NONE', #525, #303, #307 ) ;
#33 = DIRECTION ( 'NONE',  ( 1.000000000000000000, 0.000000000000000000, -0.000000000000000000 ) ) ;
#34 = ORIENTED_EDGE ( 'NONE', *, *, #427, .T. ) ;
#35 = ADVANCED_FACE ( 'NONE', ( #78 ), #446, .F. ) ;
#36 = CARTESIAN_POINT ( 'NONE',  ( 0.1075000000000000261, 0.000000000000000000, -0.2000000000000000111 ) ) ;
#37 = ORIENTED_EDGE ( 'NONE', *, *, #50, .F. ) ;
#38 = CARTESIAN_POINT ( 'NONE',  ( 0.2275000000000000078, 0.1249999999999999584, -0.1200000000000000233 ) ) ;
#39 = DIRECTION ( 'NONE',  ( 1.000000000000000000, 0.000000000000000000, -1.552186360036513215E-16 ) ) ;
#40 = EDGE_LOOP ( 'NONE', ( #154, #377, #167, #640 ) ) ;
#41 = VECTOR ( 'NONE', #474, 39.37007874015748854 ) ;
#42 = DIRECTION ( 'NONE',  ( -2.845674993400273939E-16, 0.000000000000000000, 1.000000000000000000 ) ) ;
#43 = ORIENTED_EDGE ( 'NONE', *, *, #160, .T. ) ;
#44 = AXIS2_PLACEMENT_3D ( 'NONE', #472, #107, #485 ) ;
#45 = EDGE_CURVE ( 'NONE', #271, #292, #290, .T. ) ;
#46 = CARTESIAN_POINT ( 'NONE',  ( 0.1774999999999999911, 0.000000000000000000, -0.2200000000000000011 ) ) ;
#47 = ORIENTED_EDGE ( 'NONE', *, *, #629, .F. ) ;
#48 = CARTESIAN_POINT ( 'NONE',  ( 0.1775000000000000744, 0.1250000000000000000, 0.1699999999999999845 ) ) ;
#49 = LINE ( 'NONE', #266, #674 ) ;
#50 = EDGE_CURVE ( 'NONE', #647, #222, #117, .T. ) ;
#51 = ORIENTED_EDGE ( 'NONE', *, *, #57, .T. ) ;
#52 = APPLICATION_PROTOCOL_DEFINITION ( 'draft international standard', 'automotive_design', 1998, #511 ) ;
#53 = VECTOR ( 'NONE', #537, 39.37007874015748143 ) ;
#54 = CARTESIAN_POINT ( 'NONE',  ( 0.1774999999999999911, 0.1250000000000000000, -0.2200000000000000011 ) ) ;
#55 = ORIENTED_EDGE ( 'NONE', *, *, #431, .T. ) ;
#56 = CARTESIAN_POINT ( 'NONE',  ( 0.2275000000000000910, 0.1250000000000000000, 0.1699999999999999845 ) ) ;
#57 = EDGE_CURVE ( 'NONE', #693, #271, #450, .T. ) ;
#58 = VECTOR ( 'NONE', #293, 39.37007874015748143 ) ;
#59 = CARTESIAN_POINT ( 'NONE',  ( 0.1075000000000000122, 0.1250000000000000000, -0.1400000000000000133 ) ) ;
#60 = ORIENTED_EDGE ( 'NONE', *, *, #644, .F. ) ;
#61 = FACE_OUTER_BOUND ( 'NONE', #448, .T. ) ;
#62 = EDGE_CURVE ( 'NONE', #101, #491, #152, .T. ) ;
#63 = DIRECTION ( 'NONE',  ( 0.000000000000000000, 0.000000000000000000, 1.000000000000000000 ) ) ;
#64 = LINE ( 'NONE', #552, #687 ) ;
#65 = VECTOR ( 'NONE', #430, 39.37007874015748143 ) ;
#66 = AXIS2_PLACEMENT_3D ( 'NONE', #677, #622, #607 ) ;
#67 = CARTESIAN_POINT ( 'NONE',  ( 0.2275000000000000078, 0.1250000000000000000, -0.2200000000000000011 ) ) ;
#68 = EDGE_CURVE ( 'NONE', #222, #693, #476, .T. ) ;
#69 = CARTESIAN_POINT ( 'NONE',  ( 0.1275000000000000022, 0.1250000000000000000, -0.1199999999999999956 ) ) ;
#70 = ORIENTED_EDGE ( 'NONE', *, *, #16, .F. ) ;
#71 = CARTESIAN_POINT ( 'NONE',  ( -0.1275000000000003908, 0.1249999999999999584, -0.1199999999999999262 ) ) ;
#72 = CYLINDRICAL_SURFACE ( 'NONE', #389, 0.05000000000000000971 ) ;
#73 = CARTESIAN_POINT ( 'NONE',  ( 0.1275000000000003075, 0.1249999999999999584, -0.1199999999999999956 ) ) ;
#74 = PRODUCT_DEFINITION ( 'UNKNOWN', '', #237, #442 ) ;
#75 = EDGE_LOOP ( 'NONE', ( #433, #596, #116, #527 ) ) ;
#76 = DIMENSIONAL_EXPONENTS ( 1.000000000000000000, 0.000000000000000000, 0.000000000000000000, 0.000000000000000000, 0.000000000000000000, 0.000000000000000000, 0.000000000000000000 ) ;
#77 = CARTESIAN_POINT ( 'NONE',  ( -0.1775000000000000189, 0.1150000000000000050, -0.2200000000000000011 ) ) ;
#78 = FACE_OUTER_BOUND ( 'NONE', #531, .T. ) ;
#79 = CARTESIAN_POINT ( 'NONE',  ( 0.1774999999999999911, 0.1150000000000000050, -0.2200000000000000011 ) ) ;
#80 = ORIENTED_EDGE ( 'NONE', *, *, #528, .T. ) ;
#81 = VECTOR ( 'NONE', #393, 39.37007874015748143 ) ;
#82 = EDGE_CURVE ( 'NONE', #104, #162, #313, .T. ) ;
#83 = DIRECTION ( 'NONE',  ( 0.7071067811865479058, 0.000000000000000000, 0.7071067811865472397 ) ) ;
#84 = MECHANICAL_DESIGN_GEOMETRIC_PRESENTATION_REPRESENTATION (  '', ( #205 ), #314 ) ;
#85 = DIRECTION ( 'NONE',  ( 2.328279540054769452E-16, 0.000000000000000000, 1.000000000000000000 ) ) ;
#86 = DIRECTION ( 'NONE',  ( -0.000000000000000000, -1.000000000000000000, -0.000000000000000000 ) ) ;
#87 = CARTESIAN_POINT ( 'NONE',  ( -0.1275000000000000022, 0.000000000000000000, 0.1199999999999999956 ) ) ;
#88 = ORIENTED_EDGE ( 'NONE', *, *, #575, .T. ) ;
#89 = LINE ( 'NONE', #93, #145 ) ;
#90 = CARTESIAN_POINT ( 'NONE',  ( 0.1075000000000000122, 0.1250000000000000000, -0.1400000000000000133 ) ) ;
#91 = EDGE_LOOP ( 'NONE', ( #264, #128, #587, #563 ) ) ;
#92 = VECTOR ( 'NONE', #655, 39.37007874015748854 ) ;
#93 = CARTESIAN_POINT ( 'NONE',  ( -0.2275000000000000355, 0.000000000000000000, -0.2200000000000000011 ) ) ;
#94 = CIRCLE ( 'NONE', #372, 0.05000000000000000971 ) ;
#95 = DIRECTION ( 'NONE',  ( 0.000000000000000000, 1.000000000000000000, -0.000000000000000000 ) ) ;
#96 = ORIENTED_EDGE ( 'NONE', *, *, #496, .F. ) ;
#97 = DIRECTION ( 'NONE',  ( 1.000000000000000000, 0.000000000000000000, 7.505076905671051660E-17 ) ) ;
#98 = DIRECTION ( 'NONE',  ( 0.000000000000000000, 0.000000000000000000, -1.000000000000000000 ) ) ;
#99 = ORIENTED_EDGE ( 'NONE', *, *, #362, .F. ) ;
#100 = FACE_OUTER_BOUND ( 'NONE', #285, .T. ) ;
#101 = VERTEX_POINT ( 'NONE', #220 ) ;
#102 = ADVANCED_FACE ( 'NONE', ( #18 ), #508, .F. ) ;
#103 = LINE ( 'NONE', #54, #469 ) ;
#104 = VERTEX_POINT ( 'NONE', #110 ) ;
#105 = DIRECTION ( 'NONE',  ( 1.000000000000000000, 0.000000000000000000, 7.505076905671051660E-17 ) ) ;
#106 = ORIENTED_EDGE ( 'NONE', *, *, #380, .F. ) ;
#107 = DIRECTION ( 'NONE',  ( 0.000000000000000000, 0.000000000000000000, 1.000000000000000000 ) ) ;
#108 = LINE ( 'NONE', #376, #346 ) ;
#109 = VERTEX_POINT ( 'NONE', #343 ) ;
#110 = CARTESIAN_POINT ( 'NONE',  ( 0.1775000000000000744, 0.1250000000000000000, 0.2200000000000000566 ) ) ;
#111 = VECTOR ( 'NONE', #261, 39.37007874015748143 ) ;
#112 = CARTESIAN_POINT ( 'NONE',  ( 0.1275000000000000022, 0.1250000000000000000, 0.1199999999999999956 ) ) ;
#113 = ORIENTED_EDGE ( 'NONE', *, *, #524, .F. ) ;
#114 = CARTESIAN_POINT ( 'NONE',  ( -0.2274999999999999523, 0.1250000000000000000, 0.2200000000000000011 ) ) ;
#115 = DIRECTION ( 'NONE',  ( -0.000000000000000000, 1.000000000000000000, -0.000000000000000000 ) ) ;
#116 = ORIENTED_EDGE ( 'NONE', *, *, #335, .T. ) ;
#117 = LINE ( 'NONE', #331, #685 ) ;
#118 = ORIENTED_EDGE ( 'NONE', *, *, #524, .T. ) ;
#119 = EDGE_CURVE ( 'NONE', #162, #219, #185, .T. ) ;
#120 = DIRECTION ( 'NONE',  ( -0.000000000000000000, -1.000000000000000000, -0.000000000000000000 ) ) ;
#121 = ORIENTED_EDGE ( 'NONE', *, *, #463, .F. ) ;
#122 = VECTOR ( 'NONE', #228, 39.37007874015748143 ) ;
#123 = EDGE_CURVE ( 'NONE', #636, #704, #489, .T. ) ;
#124 = DIRECTION ( 'NONE',  ( 1.000000000000000000, -0.000000000000000000, -2.328279540054769452E-16 ) ) ;
#125 = DIRECTION ( 'NONE',  ( 1.000000000000000000, -0.000000000000000000, -2.328279540054769452E-16 ) ) ;
#126 = LINE ( 'NONE', #396, #156 ) ;
#127 = DIRECTION ( 'NONE',  ( 0.000000000000000000, 1.000000000000000000, -0.000000000000000000 ) ) ;
#128 = ORIENTED_EDGE ( 'NONE', *, *, #160, .F. ) ;
#129 = SURFACE_SIDE_STYLE ('',( #495 ) ) ;
#130 = DIRECTION ( 'NONE',  ( 0.7071067811865472397, -0.000000000000000000, 0.7071067811865479058 ) ) ;
#131 = VECTOR ( 'NONE', #384, 39.37007874015748143 ) ;
#132 = ORIENTED_EDGE ( 'NONE', *, *, #500, .T. ) ;
#133 = ADVANCED_FACE ( 'NONE', ( #25 ), #676, .F. ) ;
#134 = CARTESIAN_POINT ( 'NONE',  ( -0.2275000000000000355, 0.1250000000000000000, -0.2200000000000000011 ) ) ;
#135 = ORIENTED_EDGE ( 'NONE', *, *, #478, .T. ) ;
#136 = LINE ( 'NONE', #691, #546 ) ;
#137 = DIRECTION ( 'NONE',  ( 0.000000000000000000, 0.000000000000000000, 1.000000000000000000 ) ) ;
#138 = ORIENTED_EDGE ( 'NONE', *, *, #606, .F. ) ;
#139 = CARTESIAN_POINT ( 'NONE',  ( 0.1275000000000000022, 0.1250000000000000000, -0.1199999999999999956 ) ) ;
#140 = EDGE_CURVE ( 'NONE', #423, #650, #659, .T. ) ;
#141 = CARTESIAN_POINT ( 'NONE',  ( 0.1275000000000000022, 0.000000000000000000, -0.1199999999999999956 ) ) ;
#142 = ORIENTED_EDGE ( 'NONE', *, *, #540, .T. ) ;
#143 = VECTOR ( 'NONE', #317, 39.37007874015748143 ) ;
#144 = DIRECTION ( 'NONE',  ( 0.000000000000000000, -0.09950371902099851285, -0.9950371902099891530 ) ) ;
#145 = VECTOR ( 'NONE', #27, 39.37007874015748143 ) ;
#146 = CARTESIAN_POINT ( 'NONE',  ( -0.1075000000000000122, 0.1250000000000000000, -0.1400000000000000133 ) ) ;
#147 = ORIENTED_EDGE ( 'NONE', *, *, #555, .F. ) ;
#148 = DIRECTION ( 'NONE',  ( -0.7071067811865472397, 0.000000000000000000, 0.7071067811865479058 ) ) ;
#149 = DIRECTION ( 'NONE',  ( 1.552186360036513215E-16, 0.000000000000000000, 1.000000000000000000 ) ) ;
#150 = EDGE_LOOP ( 'NONE', ( #121, #254, #142, #394 ) ) ;
#151 = EDGE_CURVE ( 'NONE', #243, #301, #327, .T. ) ;
#152 = LINE ( 'NONE', #366, #544 ) ;
#153 = FACE_OUTER_BOUND ( 'NONE', #75, .T. ) ;
#154 = ORIENTED_EDGE ( 'NONE', *, *, #694, .F. ) ;
#155 = EDGE_CURVE ( 'NONE', #363, #520, #196, .T. ) ;
#156 = VECTOR ( 'NONE', #671, 39.37007874015748143 ) ;
#157 = CARTESIAN_POINT ( 'NONE',  ( -0.1270024875621890981, 0.1150497512437810982, -0.2195024875621890692 ) ) ;
#158 = VECTOR ( 'NONE', #630, 39.37007874015748854 ) ;
#159 = ORIENTED_EDGE ( 'NONE', *, *, #16, .T. ) ;
#160 = EDGE_CURVE ( 'NONE', #295, #326, #6, .T. ) ;
#161 = CARTESIAN_POINT ( 'NONE',  ( -0.2275000000000001465, 0.1249999999999999584, -0.1199999999999999123 ) ) ;
#162 = VERTEX_POINT ( 'NONE', #56 ) ;
#163 = LINE ( 'NONE', #599, #189 ) ;
#164 = DIRECTION ( 'NONE',  ( 0.000000000000000000, -1.000000000000000000, 0.000000000000000000 ) ) ;
#165 = VECTOR ( 'NONE', #477, 39.37007874015748143 ) ;
#166 = CYLINDRICAL_SURFACE ( 'NONE', #557, 0.05000000000000000971 ) ;
#167 = ORIENTED_EDGE ( 'NONE', *, *, #463, .T. ) ;
#168 = DIRECTION ( 'NONE',  ( 0.000000000000000000, 1.000000000000000000, -0.000000000000000000 ) ) ;
#169 = AXIS2_PLACEMENT_3D ( 'NONE', #467, #148, #83 ) ;
#170 = CARTESIAN_POINT ( 'NONE',  ( -0.2067893218813452727, 0.1150000000000000050, -0.2200000000000000011 ) ) ;
#171 = ADVANCED_FACE ( 'NONE', ( #621 ), #549, .F. ) ;
#172 = LINE ( 'NONE', #341, #459 ) ;
#173 = ADVANCED_FACE ( 'NONE', ( #23 ), #294, .T. ) ;
#174 =( NAMED_UNIT ( * ) PLANE_ANGLE_UNIT ( ) SI_UNIT ( $, .RADIAN. ) );
#175 = VECTOR ( 'NONE', #584, 39.37007874015748143 ) ;
#176 = ORIENTED_EDGE ( 'NONE', *, *, #370, .F. ) ;
#177 = AXIS2_PLACEMENT_3D ( 'NONE', #438, #436, #667 ) ;
#178 = LENGTH_MEASURE_WITH_UNIT ( LENGTH_MEASURE( 0.02539999999999999897 ), #618 );
#179 = DIRECTION ( 'NONE',  ( 1.000000000000000000, 0.000000000000000000, -0.000000000000000000 ) ) ;
#180 = CARTESIAN_POINT ( 'NONE',  ( 0.2274999999999999800, 0.1170710678118654646, -0.1992893218813452383 ) ) ;
#181 = ORIENTED_EDGE ( 'NONE', *, *, #540, .F. ) ;
#182 = PRODUCT ( 'PinClip', 'PinClip', '', ( #600 ) ) ;
#183 = LINE ( 'NONE', #282, #122 ) ;
#184 = CARTESIAN_POINT ( 'NONE',  ( -0.1275000000000000022, 0.000000000000000000, 0.1199999999999999956 ) ) ;
#185 = LINE ( 'NONE', #235, #518 ) ;
#186 = ORIENTED_EDGE ( 'NONE', *, *, #335, .F. ) ;
#187 = DIRECTION ( 'NONE',  ( -0.7071067811865479058, 0.000000000000000000, -0.7071067811865472397 ) ) ;
#188 = CARTESIAN_POINT ( 'NONE',  ( -0.1075000000000000122, 0.1229999999999999566, -0.1400000000000000133 ) ) ;
#189 = VECTOR ( 'NONE', #386, 39.37007874015748143 ) ;
#190 = EDGE_LOOP ( 'NONE', ( #611, #620, #684, #198, #247, #118, #19, #159, #30, #402 ) ) ;
#191 =( CONVERSION_BASED_UNIT ( 'INCH', #514 ) LENGTH_UNIT ( ) NAMED_UNIT ( #76 ) );
#192 = PLANE ( 'NONE',  #414 ) ;
#193 = ORIENTED_EDGE ( 'NONE', *, *, #57, .F. ) ;
#194 = ADVANCED_FACE ( 'NONE', ( #61 ), #679, .F. ) ;
#195 =( NAMED_UNIT ( * ) PLANE_ANGLE_UNIT ( ) SI_UNIT ( $, .RADIAN. ) );
#196 =( BOUNDED_CURVE ( )  B_SPLINE_CURVE ( 3, ( #382, #180, #240, #79 ),
 .UNSPECIFIED., .F., .T. ) 
 B_SPLINE_CURVE_WITH_KNOTS ( ( 4, 4 ),
 ( 4.712388980384689674, 6.283185307179586232 ),
 .UNSPECIFIED. ) 
 CURVE ( )  GEOMETRIC_REPRESENTATION_ITEM ( )  RATIONAL_B_SPLINE_CURVE ( ( 1.000000000000000000, 0.8047378541243649375, 0.8047378541243649375, 1.000000000000000000 ) ) 
 REPRESENTATION_ITEM ( '' )  );
#197 = FACE_OUTER_BOUND ( 'NONE', #516, .T. ) ;
#198 = ORIENTED_EDGE ( 'NONE', *, *, #614, .T. ) ;
#199 = EDGE_CURVE ( 'NONE', #211, #668, #434, .T. ) ;
#200 = LINE ( 'NONE', #139, #582 ) ;
#201 = CARTESIAN_POINT ( 'NONE',  ( -0.2275000000000001465, 0.1249999999999999584, -0.1199999999999999123 ) ) ;
#202 = EDGE_LOOP ( 'NONE', ( #51, #1, #609, #573 ) ) ;
#203 = CARTESIAN_POINT ( 'NONE',  ( -0.2275000000000000910, 0.1199999999999999817, -0.1699999999999999845 ) ) ;
#204 = EDGE_CURVE ( 'NONE', #326, #624, #279, .T. ) ;
#205 = STYLED_ITEM ( 'NONE', ( #289 ), #534 ) ;
#206 = FACE_OUTER_BOUND ( 'NONE', #5, .T. ) ;
#207 = ORIENTED_EDGE ( 'NONE', *, *, #478, .F. ) ;
#208 = PLANE ( 'NONE',  #615 ) ;
#209 = ORIENTED_EDGE ( 'NONE', *, *, #421, .T. ) ;
#210 = CARTESIAN_POINT ( 'NONE',  ( -0.2274999999999999523, 0.000000000000000000, 0.2200000000000000011 ) ) ;
#211 = VERTEX_POINT ( 'NONE', #73 ) ;
#212 = EDGE_CURVE ( 'NONE', #441, #704, #163, .T. ) ;
#213 = VECTOR ( 'NONE', #149, 39.37007874015748143 ) ;
#214 = LINE ( 'NONE', #428, #111 ) ;
#215 = VECTOR ( 'NONE', #244, 39.37007874015748143 ) ;
#216 = ORIENTED_EDGE ( 'NONE', *, *, #561, .T. ) ;
#217 = EDGE_CURVE ( 'NONE', #211, #274, #616, .T. ) ;
#218 = DIRECTION ( 'NONE',  ( -0.7071067811865479058, 0.000000000000000000, 0.7071067811865472397 ) ) ;
#219 = VERTEX_POINT ( 'NONE', #340 ) ;
#220 = CARTESIAN_POINT ( 'NONE',  ( 0.1275000000000000022, 0.1250000000000000000, 0.1199999999999999956 ) ) ;
#221 = CARTESIAN_POINT ( 'NONE',  ( -0.1275000000000000022, 0.1250000000000000000, 0.1199999999999999956 ) ) ;
#222 = VERTEX_POINT ( 'NONE', #141 ) ;
#223 = CARTESIAN_POINT ( 'NONE',  ( 0.1275000000000000300, 0.1250000000000000000, -0.2200000000000000011 ) ) ;
#224 = AXIS2_PLACEMENT_3D ( 'NONE', #223, #130, #512 ) ;
#225 = FACE_OUTER_BOUND ( 'NONE', #337, .T. ) ;
#226 = VERTEX_POINT ( 'NONE', #457 ) ;
#227 = VECTOR ( 'NONE', #218, 39.37007874015748143 ) ;
#228 = DIRECTION ( 'NONE',  ( -7.114187483500686081E-17, -0.000000000000000000, -1.000000000000000000 ) ) ;
#229 = VERTEX_POINT ( 'NONE', #468 ) ;
#230 = LINE ( 'NONE', #12, #424 ) ;
#231 = EDGE_LOOP ( 'NONE', ( #585, #209, #267, #216 ) ) ;
#232 = EDGE_CURVE ( 'NONE', #423, #326, #453, .T. ) ;
#233 = DIRECTION ( 'NONE',  ( 0.000000000000000000, 0.000000000000000000, -1.000000000000000000 ) ) ;
#234 = EDGE_LOOP ( 'NONE', ( #388, #251, #113, #602, #55 ) ) ;
#235 = CARTESIAN_POINT ( 'NONE',  ( 0.2275000000000000910, 0.1250000000000000000, 0.1699999999999999845 ) ) ;
#236 = EDGE_LOOP ( 'NONE', ( #278, #99, #454, #458 ) ) ;
#237 = PRODUCT_DEFINITION_FORMATION_WITH_SPECIFIED_SOURCE ( 'ANY', '', #182, .NOT_KNOWN. ) ;
#238 = CARTESIAN_POINT ( 'NONE',  ( 0.1774999999999999911, 0.000000000000000000, -0.1699999999999999845 ) ) ;
#239 = DIRECTION ( 'NONE',  ( 0.7071067811865472397, 0.000000000000000000, 0.7071067811865479058 ) ) ;
#240 = CARTESIAN_POINT ( 'NONE',  ( 0.2067893218813452727, 0.1150000000000000050, -0.2200000000000000011 ) ) ;
#241 = CARTESIAN_POINT ( 'NONE',  ( 0.1275000000000000022, 0.000000000000000000, 0.1199999999999999956 ) ) ;
#242 = CARTESIAN_POINT ( 'NONE',  ( 0.1075995024875621986, 0.1230099502487561891, -0.1399004975124378269 ) ) ;
#243 = VERTEX_POINT ( 'NONE', #352 ) ;
#244 = DIRECTION ( 'NONE',  ( -0.000000000000000000, 1.000000000000000000, -0.000000000000000000 ) ) ;
#245 = FACE_OUTER_BOUND ( 'NONE', #40, .T. ) ;
#246 = AXIS2_PLACEMENT_3D ( 'NONE', #572, #350, #253 ) ;
#247 = ORIENTED_EDGE ( 'NONE', *, *, #82, .T. ) ;
#248 = VECTOR ( 'NONE', #649, 39.37007874015748143 ) ;
#249 = CARTESIAN_POINT ( 'NONE',  ( 0.1275000000000000300, 0.000000000000000000, -0.2200000000000000011 ) ) ;
#250 = DIRECTION ( 'NONE',  ( -0.7071067811865472397, 0.000000000000000000, -0.7071067811865479058 ) ) ;
#251 = ORIENTED_EDGE ( 'NONE', *, *, #633, .F. ) ;
#252 = EDGE_CURVE ( 'NONE', #322, #647, #356, .T. ) ;
#253 = DIRECTION ( 'NONE',  ( 0.000000000000000000, 0.000000000000000000, -1.000000000000000000 ) ) ;
#254 = ORIENTED_EDGE ( 'NONE', *, *, #606, .T. ) ;
#255 = ADVANCED_FACE ( 'NONE', ( #461 ), #522, .T. ) ;
#256 = LINE ( 'NONE', #681, #158 ) ;
#257 = DIRECTION ( 'NONE',  ( 0.000000000000000000, -1.000000000000000000, 0.000000000000000000 ) ) ;
#258 = VERTEX_POINT ( 'NONE', #626 ) ;
#259 = AXIS2_PLACEMENT_3D ( 'NONE', #114, #397, #347 ) ;
#260 = AXIS2_PLACEMENT_3D ( 'NONE', #238, #440, #63 ) ;
#261 = DIRECTION ( 'NONE',  ( 0.000000000000000000, -1.000000000000000000, 0.000000000000000000 ) ) ;
#262 = EDGE_LOOP ( 'NONE', ( #309, #664, #70, #670 ) ) ;
#263 = PLANE ( 'NONE',  #336 ) ;
#264 = ORIENTED_EDGE ( 'NONE', *, *, #204, .F. ) ;
#265 = DIRECTION ( 'NONE',  ( 0.000000000000000000, 1.000000000000000000, -0.000000000000000000 ) ) ;
#266 = CARTESIAN_POINT ( 'NONE',  ( -0.1275000000000000022, 0.1250000000000000000, -0.1199999999999999956 ) ) ;
#267 = ORIENTED_EDGE ( 'NONE', *, *, #662, .T. ) ;
#268 = ADVANCED_FACE ( 'NONE', ( #639 ), #586, .F. ) ;
#269 = AXIS2_PLACEMENT_3D ( 'NONE', #90, #519, #250 ) ;
#270 = CARTESIAN_POINT ( 'NONE',  ( 0.1075000000000000261, 0.1250000000000000000, -0.2000000000000000111 ) ) ;
#271 = VERTEX_POINT ( 'NONE', #87 ) ;
#272 = CARTESIAN_POINT ( 'NONE',  ( -0.2275000000000001465, 0.1249999999999999584, -0.1199999999999999123 ) ) ;
#273 = LINE ( 'NONE', #373, #594 ) ;
#274 = VERTEX_POINT ( 'NONE', #526 ) ;
#275 = DIRECTION ( 'NONE',  ( 0.000000000000000000, 0.000000000000000000, 1.000000000000000000 ) ) ;
#276 = ADVANCED_FACE ( 'NONE', ( #304 ), #408, .F. ) ;
#277 = SURFACE_STYLE_USAGE ( .BOTH. , #129 ) ;
#278 = ORIENTED_EDGE ( 'NONE', *, *, #567, .F. ) ;
#279 = CIRCLE ( 'NONE', #554, 0.05000000000000000971 ) ;
#280 = LINE ( 'NONE', #67, #570 ) ;
#281 = LINE ( 'NONE', #69, #706 ) ;
#282 = CARTESIAN_POINT ( 'NONE',  ( -0.1275000000000000022, 0.1250000000000000000, -0.1199999999999999956 ) ) ;
#283 = DIRECTION ( 'NONE',  ( 0.000000000000000000, 0.000000000000000000, 1.000000000000000000 ) ) ;
#284 = ADVANCED_FACE ( 'NONE', ( #100 ), #361, .F. ) ;
#285 = EDGE_LOOP ( 'NONE', ( #353, #708, #562, #697, #43 ) ) ;
#286 = CARTESIAN_POINT ( 'NONE',  ( 0.1774999999999999911, 0.1150000000000000050, -0.2200000000000000011 ) ) ;
#287 = CARTESIAN_POINT ( 'NONE',  ( -0.1775000000000000189, 0.1250000000000000000, -0.1699999999999999845 ) ) ;
#288 = DIRECTION ( 'NONE',  ( -1.000000000000000000, 0.000000000000000000, 2.328279540054769452E-16 ) ) ;
#289 = PRESENTATION_STYLE_ASSIGNMENT (( #277 ) ) ;
#290 = LINE ( 'NONE', #507, #648 ) ;
#291 = CARTESIAN_POINT ( 'NONE',  ( 0.2275000000000000078, 0.1250000000000000000, -0.2200000000000000011 ) ) ;
#292 = VERTEX_POINT ( 'NONE', #699 ) ;
#293 = DIRECTION ( 'NONE',  ( -0.000000000000000000, -1.000000000000000000, -0.000000000000000000 ) ) ;
#294 = PLANE ( 'NONE',  #400 ) ;
#295 = VERTEX_POINT ( 'NONE', #631 ) ;
#296 = CARTESIAN_POINT ( 'NONE',  ( -0.2275000000000000355, 0.1250000000000000000, -0.2200000000000000011 ) ) ;
#297 = EDGE_LOOP ( 'NONE', ( #654, #368, #498, #645, #535, #80, #176 ) ) ;
#298 = CARTESIAN_POINT ( 'NONE',  ( 0.2275000000000000078, 0.1250000000000000000, -0.1699999999999999845 ) ) ;
#299 = ADVANCED_FACE ( 'NONE', ( #206 ), #29, .F. ) ;
#300 = DIRECTION ( 'NONE',  ( 0.000000000000000000, 0.000000000000000000, 1.000000000000000000 ) ) ;
#301 = VERTEX_POINT ( 'NONE', #188 ) ;
#302 = VECTOR ( 'NONE', #506, 39.37007874015748143 ) ;
#303 = DIRECTION ( 'NONE',  ( -0.000000000000000000, -1.000000000000000000, 0.000000000000000000 ) ) ;
#304 = FACE_OUTER_BOUND ( 'NONE', #332, .T. ) ;
#305 = VERTEX_POINT ( 'NONE', #635 ) ;
#306 = ADVANCED_FACE ( 'NONE', ( #417 ), #192, .F. ) ;
#307 = DIRECTION ( 'NONE',  ( 0.000000000000000000, 0.000000000000000000, 1.000000000000000000 ) ) ;
#308 = CARTESIAN_POINT ( 'NONE',  ( -0.1075000000000000122, 0.000000000000000000, -0.1400000000000000133 ) ) ;
#309 = ORIENTED_EDGE ( 'NONE', *, *, #68, .T. ) ;
#310 = ADVANCED_FACE ( 'NONE', ( #245 ), #405, .F. ) ;
#311 = CYLINDRICAL_SURFACE ( 'NONE', #444, 0.05000000000000000971 ) ;
#312 = ORIENTED_EDGE ( 'NONE', *, *, #199, .F. ) ;
#313 = CIRCLE ( 'NONE', #456, 0.05000000000000000971 ) ;
#314 =( GEOMETRIC_REPRESENTATION_CONTEXT ( 3 ) GLOBAL_UNCERTAINTY_ASSIGNED_CONTEXT ( ( #480 ) ) GLOBAL_UNIT_ASSIGNED_CONTEXT ( ( #345, #174, #14 ) ) REPRESENTATION_CONTEXT ( 'NONE', 'WORKASPACE' ) );
#315 = CARTESIAN_POINT ( 'NONE',  ( -0.2275000000000000355, 0.000000000000000000, -0.2200000000000000011 ) ) ;
#316 = VERTEX_POINT ( 'NONE', #692 ) ;
#317 = DIRECTION ( 'NONE',  ( -1.000000000000000000, -0.000000000000000000, -0.000000000000000000 ) ) ;
#318 = CARTESIAN_POINT ( 'NONE',  ( -0.1075995024875621986, 0.1230099502487561891, -0.1399004975124378269 ) ) ;
#319 = ORIENTED_EDGE ( 'NONE', *, *, #82, .F. ) ;
#320 = LINE ( 'NONE', #487, #227 ) ;
#321 = ADVANCED_FACE ( 'NONE', ( #197 ), #311, .T. ) ;
#322 = VERTEX_POINT ( 'NONE', #36 ) ;
#323 = DIRECTION ( 'NONE',  ( 0.000000000000000000, 0.000000000000000000, 1.000000000000000000 ) ) ;
#324 = AXIS2_PLACEMENT_3D ( 'NONE', #291, #288, #85 ) ;
#325 = DIRECTION ( 'NONE',  ( -0.7053456158585978963, 0.07053456158585953706, 0.7053456158585985625 ) ) ;
#326 = VERTEX_POINT ( 'NONE', #530 ) ;
#327 = LINE ( 'NONE', #2, #638 ) ;
#328 = CARTESIAN_POINT ( 'NONE',  ( 0.2275000000000000078, 0.1199999999999999817, -0.1699999999999999845 ) ) ;
#329 = ORIENTED_EDGE ( 'NONE', *, *, #619, .T. ) ;
#330 = LINE ( 'NONE', #445, #359 ) ;
#331 = CARTESIAN_POINT ( 'NONE',  ( 0.1075000000000000122, 0.000000000000000000, -0.1400000000000000133 ) ) ;
#332 = EDGE_LOOP ( 'NONE', ( #15, #628, #559, #479 ) ) ;
#333 = AXIS2_PLACEMENT_3D ( 'NONE', #296, #300, #33 ) ;
#334 = DIRECTION ( 'NONE',  ( -0.7071067811865479058, -0.000000000000000000, -0.7071067811865472397 ) ) ;
#335 = EDGE_CURVE ( 'NONE', #301, #344, #465, .T. ) ;
#336 = AXIS2_PLACEMENT_3D ( 'NONE', #533, #422, #432 ) ;
#337 = EDGE_LOOP ( 'NONE', ( #565, #593, #617, #475 ) ) ;
#338 = FILL_AREA_STYLE ('',( #395 ) ) ;
#339 = ORIENTED_EDGE ( 'NONE', *, *, #217, .T. ) ;
#340 = CARTESIAN_POINT ( 'NONE',  ( 0.2275000000000000910, 0.000000000000000000, 0.1699999999999999845 ) ) ;
#341 = CARTESIAN_POINT ( 'NONE',  ( -0.1275000000000000300, 0.000000000000000000, -0.2200000000000000011 ) ) ;
#342 = DIRECTION ( 'NONE',  ( 0.000000000000000000, 0.000000000000000000, 1.000000000000000000 ) ) ;
#343 = CARTESIAN_POINT ( 'NONE',  ( 0.1075000000000000261, 0.1170000000000000068, -0.2000000000000000111 ) ) ;
#344 = VERTEX_POINT ( 'NONE', #308 ) ;
#345 =( CONVERSION_BASED_UNIT ( 'INCH', #178 ) LENGTH_UNIT ( ) NAMED_UNIT ( #410 ) );
#346 = VECTOR ( 'NONE', #425, 39.37007874015748143 ) ;
#347 = DIRECTION ( 'NONE',  ( -1.000000000000000000, 0.000000000000000000, -7.505076905671051660E-17 ) ) ;
#348 = AXIS2_PLACEMENT_3D ( 'NONE', #452, #187, #686 ) ;
#349 = CARTESIAN_POINT ( 'NONE',  ( 0.1075000000000000122, 0.000000000000000000, -0.1400000000000000133 ) ) ;
#350 = DIRECTION ( 'NONE',  ( 0.000000000000000000, -1.000000000000000000, 0.000000000000000000 ) ) ;
#351 = ORIENTED_EDGE ( 'NONE', *, *, #652, .F. ) ;
#352 = CARTESIAN_POINT ( 'NONE',  ( -0.1075000000000000538, 0.1169999999999999929, -0.2000000000000000111 ) ) ;
#353 = ORIENTED_EDGE ( 'NONE', *, *, #232, .F. ) ;
#354 = CARTESIAN_POINT ( 'NONE',  ( -0.1275000000000000300, 0.1150000000000000050, -0.2199999999999999734 ) ) ;
#355 = EDGE_CURVE ( 'NONE', #101, #693, #419, .T. ) ;
#356 = LINE ( 'NONE', #580, #591 ) ;
#357 = AXIS2_PLACEMENT_3D ( 'NONE', #17, #342, #179 ) ;
#358 = ORIENTED_EDGE ( 'NONE', *, *, #652, .T. ) ;
#359 = VECTOR ( 'NONE', #669, 39.37007874015748143 ) ;
#360 = CARTESIAN_POINT ( 'NONE',  ( 0.1275000000000001410, 0.1150000000000000050, -0.2200000000000000566 ) ) ;
#361 = PLANE ( 'NONE',  #505 ) ;
#362 = EDGE_CURVE ( 'NONE', #229, #305, #539, .T. ) ;
#363 = VERTEX_POINT ( 'NONE', #328 ) ;
#364 = CARTESIAN_POINT ( 'NONE',  ( 0.000000000000000000, 0.000000000000000000, 0.000000000000000000 ) ) ;
#365 = ORIENTED_EDGE ( 'NONE', *, *, #619, .F. ) ;
#366 = CARTESIAN_POINT ( 'NONE',  ( -0.1275000000000000022, 0.1250000000000000000, 0.1199999999999999956 ) ) ;
#367 = LINE ( 'NONE', #59, #248 ) ;
#368 = ORIENTED_EDGE ( 'NONE', *, *, #421, .F. ) ;
#369 = VECTOR ( 'NONE', #564, 39.37007874015748143 ) ;
#370 = EDGE_CURVE ( 'NONE', #301, #541, #550, .T. ) ;
#371 = VECTOR ( 'NONE', #97, 39.37007874015748143 ) ;
#372 = AXIS2_PLACEMENT_3D ( 'NONE', #482, #379, #601 ) ;
#373 = CARTESIAN_POINT ( 'NONE',  ( -0.2275000000000001465, 0.1150000000000000050, -0.2199999999999999456 ) ) ;
#374 = ORIENTED_EDGE ( 'NONE', *, *, #123, .T. ) ;
#375 = EDGE_CURVE ( 'NONE', #650, #381, #214, .T. ) ;
#376 = CARTESIAN_POINT ( 'NONE',  ( 0.2275000000000000078, 0.000000000000000000, -0.2200000000000000011 ) ) ;
#377 = ORIENTED_EDGE ( 'NONE', *, *, #199, .T. ) ;
#378 = DIRECTION ( 'NONE',  ( 0.000000000000000000, 0.000000000000000000, 1.000000000000000000 ) ) ;
#379 = DIRECTION ( 'NONE',  ( -0.000000000000000000, -1.000000000000000000, 0.000000000000000000 ) ) ;
#380 = EDGE_CURVE ( 'NONE', #520, #441, #103, .T. ) ;
#381 = VERTEX_POINT ( 'NONE', #592 ) ;
#382 = CARTESIAN_POINT ( 'NONE',  ( 0.2275000000000000078, 0.1199999999999999817, -0.1699999999999999845 ) ) ;
#383 = VECTOR ( 'NONE', #115, 39.37007874015748143 ) ;
#384 = DIRECTION ( 'NONE',  ( -0.000000000000000000, -1.000000000000000000, -0.000000000000000000 ) ) ;
#385 = ORIENTED_EDGE ( 'NONE', *, *, #119, .F. ) ;
#386 = DIRECTION ( 'NONE',  ( -1.000000000000000000, -0.000000000000000000, -0.000000000000000000 ) ) ;
#387 = PLANE ( 'NONE',  #66 ) ;
#388 = ORIENTED_EDGE ( 'NONE', *, *, #644, .T. ) ;
#389 = AXIS2_PLACEMENT_3D ( 'NONE', #287, #10, #502 ) ;
#390 = LINE ( 'NONE', #501, #302 ) ;
#391 = VECTOR ( 'NONE', #144, 39.37007874015748143 ) ;
#392 = DIRECTION ( 'NONE',  ( 7.114187483500686081E-17, 0.000000000000000000, 1.000000000000000000 ) ) ;
#393 = DIRECTION ( 'NONE',  ( -0.000000000000000000, 1.000000000000000000, -0.000000000000000000 ) ) ;
#394 = ORIENTED_EDGE ( 'NONE', *, *, #252, .T. ) ;
#395 = FILL_AREA_STYLE_COLOUR ( '', #532 ) ;
#396 = CARTESIAN_POINT ( 'NONE',  ( -0.1275000000000000022, 0.1250000000000000000, 0.1199999999999999956 ) ) ;
#397 = DIRECTION ( 'NONE',  ( 7.505076905671051660E-17, 0.000000000000000000, -1.000000000000000000 ) ) ;
#398 = EDGE_CURVE ( 'NONE', #381, #295, #547, .T. ) ;
#399 =( LENGTH_UNIT ( ) NAMED_UNIT ( * ) SI_UNIT ( $, .METRE. ) );
#400 = AXIS2_PLACEMENT_3D ( 'NONE', #451, #127, #275 ) ;
#401 = CARTESIAN_POINT ( 'NONE',  ( -0.1275000000000000022, 0.1250000000000000000, 0.1199999999999999956 ) ) ;
#402 = ORIENTED_EDGE ( 'NONE', *, *, #509, .T. ) ;
#403 = CIRCLE ( 'NONE', #177, 0.05000000000000000971 ) ;
#404 = CARTESIAN_POINT ( 'NONE',  ( -0.1275000000000000300, 0.1250000000000000000, -0.2200000000000000011 ) ) ;
#405 = PLANE ( 'NONE',  #269 ) ;
#406 = ORIENTED_EDGE ( 'NONE', *, *, #370, .T. ) ;
#407 = CARTESIAN_POINT ( 'NONE',  ( -0.1774999999999999634, 0.1250000000000000000, 0.2200000000000000011 ) ) ;
#408 = PLANE ( 'NONE',  #333 ) ;
#409 = VERTEX_POINT ( 'NONE', #542 ) ;
#410 = DIMENSIONAL_EXPONENTS ( 1.000000000000000000, 0.000000000000000000, 0.000000000000000000, 0.000000000000000000, 0.000000000000000000, 0.000000000000000000, 0.000000000000000000 ) ;
#411 = CARTESIAN_POINT ( 'NONE',  ( -0.2275000000000001465, 0.1150000000000000050, -0.2199999999999999456 ) ) ;
#412 = PRODUCT_RELATED_PRODUCT_CATEGORY ( 'part', '', ( #182 ) ) ;
#413 = CARTESIAN_POINT ( 'NONE',  ( 0.1775000000000000744, 0.1250000000000000000, 0.1699999999999999845 ) ) ;
#414 = AXIS2_PLACEMENT_3D ( 'NONE', #201, #515, #576 ) ;
#415 = ORIENTED_EDGE ( 'NONE', *, *, #3, .T. ) ;
#416 = LINE ( 'NONE', #31, #710 ) ;
#417 = FACE_OUTER_BOUND ( 'NONE', #558, .T. ) ;
#418 = ORIENTED_EDGE ( 'NONE', *, *, #431, .F. ) ;
#419 = LINE ( 'NONE', #112, #131 ) ;
#420 = ORIENTED_EDGE ( 'NONE', *, *, #509, .F. ) ;
#421 = EDGE_CURVE ( 'NONE', #675, #243, #657, .T. ) ;
#422 = DIRECTION ( 'NONE',  ( -1.000000000000000000, 0.000000000000000000, 2.845674993400273939E-16 ) ) ;
#423 = VERTEX_POINT ( 'NONE', #161 ) ;
#424 = VECTOR ( 'NONE', #120, 39.37007874015748143 ) ;
#425 = DIRECTION ( 'NONE',  ( -2.328279540054769452E-16, -0.000000000000000000, -1.000000000000000000 ) ) ;
#426 = ORIENTED_EDGE ( 'NONE', *, *, #555, .T. ) ;
#427 = EDGE_CURVE ( 'NONE', #258, #409, #646, .T. ) ;
#428 = CARTESIAN_POINT ( 'NONE',  ( -0.2275000000000000355, 0.1250000000000000000, -0.1699999999999999845 ) ) ;
#429 = ORIENTED_EDGE ( 'NONE', *, *, #500, .F. ) ;
#430 = DIRECTION ( 'NONE',  ( 0.000000000000000000, -0.09950371902099851285, -0.9950371902099891530 ) ) ;
#431 = EDGE_CURVE ( 'NONE', #219, #226, #108, .T. ) ;
#432 = DIRECTION ( 'NONE',  ( 2.845674993400273939E-16, 0.000000000000000000, 1.000000000000000000 ) ) ;
#433 = ORIENTED_EDGE ( 'NONE', *, *, #662, .F. ) ;
#434 = LINE ( 'NONE', #242, #92 ) ;
#435 = VECTOR ( 'NONE', #125, 39.37007874015748143 ) ;
#436 = DIRECTION ( 'NONE',  ( -0.000000000000000000, -1.000000000000000000, 0.000000000000000000 ) ) ;
#437 = CARTESIAN_POINT ( 'NONE',  ( -0.1275000000000000022, 0.1250000000000000000, -0.1199999999999999956 ) ) ;
#438 = CARTESIAN_POINT ( 'NONE',  ( -0.1774999999999999634, 0.000000000000000000, 0.1699999999999999845 ) ) ;
#439 = ADVANCED_FACE ( 'NONE', ( #701 ), #208, .F. ) ;
#440 = DIRECTION ( 'NONE',  ( -0.000000000000000000, -1.000000000000000000, 0.000000000000000000 ) ) ;
#441 = VERTEX_POINT ( 'NONE', #46 ) ;
#442 = PRODUCT_DEFINITION_CONTEXT ( 'detailed design', #588, 'design' ) ;
#443 = ADVANCED_FACE ( 'NONE', ( #153 ), #263, .F. ) ;
#444 = AXIS2_PLACEMENT_3D ( 'NONE', #413, #257, #98 ) ;
#445 = CARTESIAN_POINT ( 'NONE',  ( 0.1775000000000000744, 0.1250000000000000000, 0.2200000000000000566 ) ) ;
#446 = PLANE ( 'NONE',  #529 ) ;
#447 = CARTESIAN_POINT ( 'NONE',  ( 0.1275000000000000300, 0.1250000000000000000, -0.2200000000000000011 ) ) ;
#448 = EDGE_LOOP ( 'NONE', ( #181, #329, #374, #132 ) ) ;
#449 = FACE_OUTER_BOUND ( 'NONE', #297, .T. ) ;
#450 = LINE ( 'NONE', #184, #143 ) ;
#451 = CARTESIAN_POINT ( 'NONE',  ( 0.000000000000000000, 0.1250000000000000000, 0.000000000000000000 ) ) ;
#452 = CARTESIAN_POINT ( 'NONE',  ( -0.1075000000000000122, 0.1250000000000000000, -0.1400000000000000133 ) ) ;
#453 = LINE ( 'NONE', #134, #213 ) ;
#454 = ORIENTED_EDGE ( 'NONE', *, *, #484, .F. ) ;
#455 = PLANE ( 'NONE',  #169 ) ;
#456 = AXIS2_PLACEMENT_3D ( 'NONE', #48, #265, #323 ) ;
#457 = CARTESIAN_POINT ( 'NONE',  ( 0.2275000000000000078, 0.000000000000000000, -0.1699999999999999845 ) ) ;
#458 = ORIENTED_EDGE ( 'NONE', *, *, #375, .F. ) ;
#459 = VECTOR ( 'NONE', #334, 39.37007874015748143 ) ;
#460 = FACE_OUTER_BOUND ( 'NONE', #658, .T. ) ;
#461 = FACE_OUTER_BOUND ( 'NONE', #91, .T. ) ;
#462 = ORIENTED_EDGE ( 'NONE', *, *, #496, .T. ) ;
#463 = EDGE_CURVE ( 'NONE', #668, #647, #367, .T. ) ;
#464 = LINE ( 'NONE', #38, #391 ) ;
#465 = LINE ( 'NONE', #146, #175 ) ;
#466 = ORIENTED_EDGE ( 'NONE', *, *, #212, .F. ) ;
#467 = CARTESIAN_POINT ( 'NONE',  ( -0.1275000000000000300, 0.1250000000000000000, -0.2200000000000000011 ) ) ;
#468 = CARTESIAN_POINT ( 'NONE',  ( -0.1775000000000000189, 0.000000000000000000, -0.2200000000000000011 ) ) ;
#469 = VECTOR ( 'NONE', #164, 39.37007874015748143 ) ;
#470 = EDGE_LOOP ( 'NONE', ( #34, #426, #553, #700 ) ) ;
#471 = CIRCLE ( 'NONE', #260, 0.05000000000000000971 ) ;
#472 = CARTESIAN_POINT ( 'NONE',  ( 0.000000000000000000, 0.000000000000000000, 0.000000000000000000 ) ) ;
#473 = EDGE_CURVE ( 'NONE', #305, #675, #273, .T. ) ;
#474 = DIRECTION ( 'NONE',  ( 0.7053456158585985625, 0.07053456158585949543, 0.7053456158585978963 ) ) ;
#475 = ORIENTED_EDGE ( 'NONE', *, *, #212, .T. ) ;
#476 = LINE ( 'NONE', #651, #53 ) ;
#477 = DIRECTION ( 'NONE',  ( 1.552186360036513215E-16, 0.000000000000000000, 1.000000000000000000 ) ) ;
#478 = EDGE_CURVE ( 'NONE', #541, #292, #49, .T. ) ;
#479 = ORIENTED_EDGE ( 'NONE', *, *, #629, .T. ) ;
#480 = UNCERTAINTY_MEASURE_WITH_UNIT (LENGTH_MEASURE( 1.000000000000000082E-05 ), #345, 'distance_accuracy_value', 'NONE');
#481 =( NAMED_UNIT ( * ) SI_UNIT ( $, .STERADIAN. ) SOLID_ANGLE_UNIT ( ) );
#482 = CARTESIAN_POINT ( 'NONE',  ( -0.1775000000000000189, 0.000000000000000000, -0.1699999999999999845 ) ) ;
#483 = ORIENTED_EDGE ( 'NONE', *, *, #252, .F. ) ;
#484 = EDGE_CURVE ( 'NONE', #381, #229, #94, .T. ) ;
#485 = DIRECTION ( 'NONE',  ( 1.000000000000000000, 0.000000000000000000, 0.000000000000000000 ) ) ;
#486 = VECTOR ( 'NONE', #86, 39.37007874015748143 ) ;
#487 = CARTESIAN_POINT ( 'NONE',  ( 0.1275000000000000300, 0.000000000000000000, -0.2200000000000000011 ) ) ;
#488 = VERTEX_POINT ( 'NONE', #490 ) ;
#489 = LINE ( 'NONE', #447, #369 ) ;
#490 = CARTESIAN_POINT ( 'NONE',  ( -0.1275000000000000300, 0.000000000000000000, -0.2200000000000000011 ) ) ;
#491 = VERTEX_POINT ( 'NONE', #221 ) ;
#492 = DIRECTION ( 'NONE',  ( 2.831552449683838042E-16, 0.09950371902099848509, 0.9950371902099891530 ) ) ;
#493 = DIRECTION ( 'NONE',  ( 0.000000000000000000, -1.000000000000000000, 0.000000000000000000 ) ) ;
#494 = FACE_OUTER_BOUND ( 'NONE', #236, .T. ) ;
#495 = SURFACE_STYLE_FILL_AREA ( #338 ) ;
#496 = EDGE_CURVE ( 'NONE', #292, #344, #707, .T. ) ;
#497 = CIRCLE ( 'NONE', #32, 0.05000000000000000971 ) ;
#498 = ORIENTED_EDGE ( 'NONE', *, *, #473, .F. ) ;
#499 = ORIENTED_EDGE ( 'NONE', *, *, #575, .F. ) ;
#500 = EDGE_CURVE ( 'NONE', #704, #322, #320, .T. ) ;
#501 = CARTESIAN_POINT ( 'NONE',  ( 0.1075000000000000261, 0.1170792079207920861, -0.1992079207920792461 ) ) ;
#502 = DIRECTION ( 'NONE',  ( 0.000000000000000000, 0.000000000000000000, -1.000000000000000000 ) ) ;
#503 = CARTESIAN_POINT ( 'NONE',  ( -0.2275000000000001465, 0.1249999999999999584, -0.1199999999999999123 ) ) ;
#504 = ADVANCED_FACE ( 'NONE', ( #661 ), #166, .T. ) ;
#505 = AXIS2_PLACEMENT_3D ( 'NONE', #682, #39, #688 ) ;
#506 = DIRECTION ( 'NONE',  ( 2.831552449683838042E-16, -0.09950371902099848509, -0.9950371902099891530 ) ) ;
#507 = CARTESIAN_POINT ( 'NONE',  ( -0.1275000000000000022, 0.000000000000000000, -0.1199999999999999956 ) ) ;
#508 = PLANE ( 'NONE',  #672 ) ;
#509 = EDGE_CURVE ( 'NONE', #491, #541, #183, .T. ) ;
#510 = DIRECTION ( 'NONE',  ( -0.000000000000000000, -1.000000000000000000, -0.000000000000000000 ) ) ;
#511 = APPLICATION_CONTEXT ( 'automotive_design' ) ;
#512 = DIRECTION ( 'NONE',  ( 0.7071067811865479058, 0.000000000000000000, -0.7071067811865472397 ) ) ;
#513 = ORIENTED_EDGE ( 'NONE', *, *, #68, .F. ) ;
#514 = LENGTH_MEASURE_WITH_UNIT ( LENGTH_MEASURE( 0.02539999999999999897 ), #399 );
#515 = DIRECTION ( 'NONE',  ( 2.316724731559493667E-17, -0.9950371902099892640, 0.09950371902099851285 ) ) ;
#516 = EDGE_LOOP ( 'NONE', ( #319, #147, #351, #385 ) ) ;
#517 = LINE ( 'NONE', #24, #486 ) ;
#518 = VECTOR ( 'NONE', #560, 39.37007874015748143 ) ;
#519 = DIRECTION ( 'NONE',  ( 0.7071067811865479058, 0.000000000000000000, -0.7071067811865472397 ) ) ;
#520 = VERTEX_POINT ( 'NONE', #286 ) ;
#521 = DIRECTION ( 'NONE',  ( 1.000000000000000000, -0.000000000000000000, -2.328279540054769452E-16 ) ) ;
#522 = CYLINDRICAL_SURFACE ( 'NONE', #246, 0.05000000000000000971 ) ;
#523 = ORIENTED_EDGE ( 'NONE', *, *, #155, .T. ) ;
#524 = EDGE_CURVE ( 'NONE', #162, #274, #280, .T. ) ;
#525 = CARTESIAN_POINT ( 'NONE',  ( 0.1775000000000000744, 0.000000000000000000, 0.1699999999999999845 ) ) ;
#526 = CARTESIAN_POINT ( 'NONE',  ( 0.2275000000000000078, 0.1249999999999999584, -0.1200000000000000233 ) ) ;
#527 = ORIENTED_EDGE ( 'NONE', *, *, #656, .T. ) ;
#528 = EDGE_CURVE ( 'NONE', #423, #541, #64, .T. ) ;
#529 = AXIS2_PLACEMENT_3D ( 'NONE', #437, #608, #392 ) ;
#530 = CARTESIAN_POINT ( 'NONE',  ( -0.2274999999999999523, 0.1250000000000000000, 0.1699999999999999845 ) ) ;
#531 = EDGE_LOOP ( 'NONE', ( #13, #207, #420, #415 ) ) ;
#532 = COLOUR_RGB ( '',0.7921568627450980005, 0.8196078431372548767, 0.9333333333333333481 ) ;
#533 = CARTESIAN_POINT ( 'NONE',  ( -0.1075000000000000261, 0.1250000000000000000, -0.2000000000000000111 ) ) ;
#534 = MANIFOLD_SOLID_BREP ( 'Cut-Extrude1', #9 ) ;
#535 = ORIENTED_EDGE ( 'NONE', *, *, #140, .F. ) ;
#536 = ADVANCED_BREP_SHAPE_REPRESENTATION ( 'PinClip', ( #534, #44 ), #11 ) ;
#537 = DIRECTION ( 'NONE',  ( 0.000000000000000000, 0.000000000000000000, 1.000000000000000000 ) ) ;
#538 =( BOUNDED_CURVE ( )  B_SPLINE_CURVE ( 3, ( #77, #170, #556, #21 ),
 .UNSPECIFIED., .F., .T. ) 
 B_SPLINE_CURVE_WITH_KNOTS ( ( 4, 4 ),
 ( 0.000000000000000000, 1.570796326794897002 ),
 .UNSPECIFIED. ) 
 CURVE ( )  GEOMETRIC_REPRESENTATION_ITEM ( )  RATIONAL_B_SPLINE_CURVE ( ( 1.000000000000000000, 0.8047378541243649375, 0.8047378541243649375, 1.000000000000000000 ) ) 
 REPRESENTATION_ITEM ( '' )  );
#539 = LINE ( 'NONE', #604, #383 ) ;
#540 = EDGE_CURVE ( 'NONE', #109, #322, #230, .T. ) ;
#541 = VERTEX_POINT ( 'NONE', #71 ) ;
#542 = CARTESIAN_POINT ( 'NONE',  ( 0.1775000000000000744, 0.000000000000000000, 0.2200000000000000566 ) ) ;
#543 = ORIENTED_EDGE ( 'NONE', *, *, #561, .F. ) ;
#544 = VECTOR ( 'NONE', #589, 39.37007874015748143 ) ;
#545 = CARTESIAN_POINT ( 'NONE',  ( 0.1275000000000000022, 0.1250000000000000000, -0.1199999999999999956 ) ) ;
#546 = VECTOR ( 'NONE', #578, 39.37007874015748143 ) ;
#547 = LINE ( 'NONE', #315, #165 ) ;
#548 = ORIENTED_EDGE ( 'NONE', *, *, #45, .F. ) ;
#549 = PLANE ( 'NONE',  #324 ) ;
#550 = LINE ( 'NONE', #318, #579 ) ;
#551 = EDGE_CURVE ( 'NONE', #258, #295, #403, .T. ) ;
#552 = CARTESIAN_POINT ( 'NONE',  ( -0.2275000000000001465, 0.1249999999999999584, -0.1199999999999999123 ) ) ;
#553 = ORIENTED_EDGE ( 'NONE', *, *, #614, .F. ) ;
#554 = AXIS2_PLACEMENT_3D ( 'NONE', #665, #168, #378 ) ;
#555 = EDGE_CURVE ( 'NONE', #409, #104, #330, .T. ) ;
#556 = CARTESIAN_POINT ( 'NONE',  ( -0.2275000000000000633, 0.1170710678118654646, -0.1992893218813452383 ) ) ;
#557 = AXIS2_PLACEMENT_3D ( 'NONE', #613, #493, #233 ) ;
#558 = EDGE_LOOP ( 'NONE', ( #138, #312, #339, #689, #523, #605, #365 ) ) ;
#559 = ORIENTED_EDGE ( 'NONE', *, *, #683, .T. ) ;
#560 = DIRECTION ( 'NONE',  ( 0.000000000000000000, -1.000000000000000000, 0.000000000000000000 ) ) ;
#561 = EDGE_CURVE ( 'NONE', #316, #488, #172, .T. ) ;
#562 = ORIENTED_EDGE ( 'NONE', *, *, #375, .T. ) ;
#563 = ORIENTED_EDGE ( 'NONE', *, *, #709, .F. ) ;
#564 = DIRECTION ( 'NONE',  ( -0.000000000000000000, -1.000000000000000000, -0.000000000000000000 ) ) ;
#565 = ORIENTED_EDGE ( 'NONE', *, *, #123, .F. ) ;
#566 = UNCERTAINTY_MEASURE_WITH_UNIT (LENGTH_MEASURE( 1.000000000000000082E-05 ), #191, 'distance_accuracy_value', 'NONE');
#567 = EDGE_CURVE ( 'NONE', #305, #650, #538, .T. ) ;
#568 = DIRECTION ( 'NONE',  ( -2.845674993400273939E-16, -0.000000000000000000, -1.000000000000000000 ) ) ;
#569 = DIRECTION ( 'NONE',  ( 1.000000000000000000, 0.000000000000000000, 0.000000000000000000 ) ) ;
#570 = VECTOR ( 'NONE', #8, 39.37007874015748143 ) ;
#571 = CARTESIAN_POINT ( 'NONE',  ( -0.2274999999999999523, 0.1250000000000000000, 0.2200000000000000011 ) ) ;
#572 = CARTESIAN_POINT ( 'NONE',  ( -0.1774999999999999634, 0.1250000000000000000, 0.1699999999999999845 ) ) ;
#573 = ORIENTED_EDGE ( 'NONE', *, *, #355, .T. ) ;
#574 = PRODUCT_DEFINITION_SHAPE ( 'NONE', 'NONE',  #74 ) ;
#575 = EDGE_CURVE ( 'NONE', #441, #226, #471, .T. ) ;
#576 = DIRECTION ( 'NONE',  ( 0.000000000000000000, -0.09950371902099849897, -0.9950371902099891530 ) ) ;
#577 = ORIENTED_EDGE ( 'NONE', *, *, #484, .T. ) ;
#578 = DIRECTION ( 'NONE',  ( 0.000000000000000000, -1.000000000000000000, 0.000000000000000000 ) ) ;
#579 = VECTOR ( 'NONE', #325, 39.37007874015748854 ) ;
#580 = CARTESIAN_POINT ( 'NONE',  ( 0.1075000000000000261, 0.000000000000000000, -0.2000000000000000111 ) ) ;
#581 = ORIENTED_EDGE ( 'NONE', *, *, #398, .F. ) ;
#582 = VECTOR ( 'NONE', #510, 39.37007874015748143 ) ;
#583 = CARTESIAN_POINT ( 'NONE',  ( 0.1075000000000000122, 0.1229999999999999705, -0.1400000000000000133 ) ) ;
#584 = DIRECTION ( 'NONE',  ( -0.000000000000000000, -1.000000000000000000, -0.000000000000000000 ) ) ;
#585 = ORIENTED_EDGE ( 'NONE', *, *, #683, .F. ) ;
#586 = PLANE ( 'NONE',  #20 ) ;
#587 = ORIENTED_EDGE ( 'NONE', *, *, #551, .F. ) ;
#588 = APPLICATION_CONTEXT ( 'automotive_design' ) ;
#589 = DIRECTION ( 'NONE',  ( -1.000000000000000000, -0.000000000000000000, -0.000000000000000000 ) ) ;
#590 = SHAPE_DEFINITION_REPRESENTATION ( #574, #536 ) ;
#591 = VECTOR ( 'NONE', #42, 39.37007874015748143 ) ;
#592 = CARTESIAN_POINT ( 'NONE',  ( -0.2275000000000000355, 0.000000000000000000, -0.1699999999999999845 ) ) ;
#593 = ORIENTED_EDGE ( 'NONE', *, *, #690, .T. ) ;
#594 = VECTOR ( 'NONE', #595, 39.37007874015748143 ) ;
#595 = DIRECTION ( 'NONE',  ( 1.000000000000000000, -0.000000000000000000, -2.328279540054769452E-16 ) ) ;
#596 = ORIENTED_EDGE ( 'NONE', *, *, #151, .T. ) ;
#597 = DIRECTION ( 'NONE',  ( 0.7071067811865472397, -0.000000000000000000, -0.7071067811865479058 ) ) ;
#598 = EDGE_LOOP ( 'NONE', ( #632, #60, #499, #106 ) ) ;
#599 = CARTESIAN_POINT ( 'NONE',  ( 0.1275000000000000300, 0.000000000000000000, -0.2200000000000000011 ) ) ;
#600 = PRODUCT_CONTEXT ( 'NONE', #511, 'mechanical' ) ;
#601 = DIRECTION ( 'NONE',  ( 0.000000000000000000, 0.000000000000000000, 1.000000000000000000 ) ) ;
#602 = ORIENTED_EDGE ( 'NONE', *, *, #119, .T. ) ;
#603 = CARTESIAN_POINT ( 'NONE',  ( -0.2274999999999999523, 0.1250000000000000000, 0.1699999999999999845 ) ) ;
#604 = CARTESIAN_POINT ( 'NONE',  ( -0.1775000000000000189, 0.1250000000000000000, -0.2200000000000000011 ) ) ;
#605 = ORIENTED_EDGE ( 'NONE', *, *, #690, .F. ) ;
#606 = EDGE_CURVE ( 'NONE', #668, #109, #390, .T. ) ;
#607 = DIRECTION ( 'NONE',  ( 0.000000000000000000, -0.09950371902099849897, -0.9950371902099891530 ) ) ;
#608 = DIRECTION ( 'NONE',  ( -1.000000000000000000, 0.000000000000000000, 7.114187483500686081E-17 ) ) ;
#609 = ORIENTED_EDGE ( 'NONE', *, *, #62, .F. ) ;
#610 = ADVANCED_FACE ( 'NONE', ( #449 ), #387, .F. ) ;
#611 = ORIENTED_EDGE ( 'NONE', *, *, #528, .F. ) ;
#612 = AXIS2_PLACEMENT_3D ( 'NONE', #364, #95, #137 ) ;
#613 = CARTESIAN_POINT ( 'NONE',  ( 0.1774999999999999911, 0.1250000000000000000, -0.1699999999999999845 ) ) ;
#614 = EDGE_CURVE ( 'NONE', #624, #104, #634, .T. ) ;
#615 = AXIS2_PLACEMENT_3D ( 'NONE', #270, #703, #711 ) ;
#616 = LINE ( 'NONE', #503, #435 ) ;
#617 = ORIENTED_EDGE ( 'NONE', *, *, #380, .T. ) ;
#618 =( LENGTH_UNIT ( ) NAMED_UNIT ( * ) SI_UNIT ( $, .METRE. ) );
#619 = EDGE_CURVE ( 'NONE', #109, #636, #256, .T. ) ;
#620 = ORIENTED_EDGE ( 'NONE', *, *, #232, .T. ) ;
#621 = FACE_OUTER_BOUND ( 'NONE', #234, .T. ) ;
#622 = DIRECTION ( 'NONE',  ( 2.316724731559493667E-17, -0.9950371902099892640, 0.09950371902099851285 ) ) ;
#623 = DIRECTION ( 'NONE',  ( 0.000000000000000000, 0.000000000000000000, -1.000000000000000000 ) ) ;
#624 = VERTEX_POINT ( 'NONE', #407 ) ;
#625 = LINE ( 'NONE', #404, #58 ) ;
#626 = CARTESIAN_POINT ( 'NONE',  ( -0.1774999999999999634, 0.000000000000000000, 0.2200000000000000011 ) ) ;
#627 = VECTOR ( 'NONE', #597, 39.37007874015748143 ) ;
#628 = ORIENTED_EDGE ( 'NONE', *, *, #473, .T. ) ;
#629 = EDGE_CURVE ( 'NONE', #488, #229, #89, .T. ) ;
#630 = DIRECTION ( 'NONE',  ( 0.7053456158585985625, -0.07053456158585946767, -0.7053456158585978963 ) ) ;
#631 = CARTESIAN_POINT ( 'NONE',  ( -0.2274999999999999523, 0.000000000000000000, 0.1699999999999999845 ) ) ;
#632 = ORIENTED_EDGE ( 'NONE', *, *, #155, .F. ) ;
#633 = EDGE_CURVE ( 'NONE', #274, #363, #464, .T. ) ;
#634 = LINE ( 'NONE', #571, #371 ) ;
#635 = CARTESIAN_POINT ( 'NONE',  ( -0.1775000000000000189, 0.1150000000000000050, -0.2200000000000000011 ) ) ;
#636 = VERTEX_POINT ( 'NONE', #360 ) ;
#637 = PLANE ( 'NONE',  #348 ) ;
#638 = VECTOR ( 'NONE', #492, 39.37007874015748143 ) ;
#639 = FACE_OUTER_BOUND ( 'NONE', #202, .T. ) ;
#640 = ORIENTED_EDGE ( 'NONE', *, *, #50, .T. ) ;
#641 = PRESENTATION_LAYER_ASSIGNMENT (  '', '', ( #205 ) ) ;
#642 = FACE_OUTER_BOUND ( 'NONE', #231, .T. ) ;
#643 = DIRECTION ( 'NONE',  ( 1.000000000000000000, 0.000000000000000000, -0.000000000000000000 ) ) ;
#644 = EDGE_CURVE ( 'NONE', #226, #363, #698, .T. ) ;
#645 = ORIENTED_EDGE ( 'NONE', *, *, #567, .T. ) ;
#646 = LINE ( 'NONE', #210, #663 ) ;
#647 = VERTEX_POINT ( 'NONE', #349 ) ;
#648 = VECTOR ( 'NONE', #22, 39.37007874015748143 ) ;
#649 = DIRECTION ( 'NONE',  ( -0.000000000000000000, -1.000000000000000000, -0.000000000000000000 ) ) ;
#650 = VERTEX_POINT ( 'NONE', #203 ) ;
#651 = CARTESIAN_POINT ( 'NONE',  ( 0.1275000000000000022, 0.000000000000000000, -0.1199999999999999956 ) ) ;
#652 = EDGE_CURVE ( 'NONE', #219, #409, #497, .T. ) ;
#653 = CARTESIAN_POINT ( 'NONE',  ( -0.1075000000000000122, 0.000000000000000000, -0.1400000000000000133 ) ) ;
#654 = ORIENTED_EDGE ( 'NONE', *, *, #151, .F. ) ;
#655 = DIRECTION ( 'NONE',  ( -0.7053456158585978963, -0.07053456158585956481, -0.7053456158585985625 ) ) ;
#656 = EDGE_CURVE ( 'NONE', #344, #316, #416, .T. ) ;
#657 = LINE ( 'NONE', #157, #41 ) ;
#658 = EDGE_LOOP ( 'NONE', ( #186, #406, #135, #462 ) ) ;
#659 = LINE ( 'NONE', #272, #65 ) ;
#660 = APPLICATION_PROTOCOL_DEFINITION ( 'draft international standard', 'automotive_design', 1998, #588 ) ;
#661 = FACE_OUTER_BOUND ( 'NONE', #598, .T. ) ;
#662 = EDGE_CURVE ( 'NONE', #243, #316, #517, .T. ) ;
#663 = VECTOR ( 'NONE', #105, 39.37007874015748143 ) ;
#664 = ORIENTED_EDGE ( 'NONE', *, *, #355, .F. ) ;
#665 = CARTESIAN_POINT ( 'NONE',  ( -0.1774999999999999634, 0.1250000000000000000, 0.1699999999999999845 ) ) ;
#666 = VECTOR ( 'NONE', #521, 39.37007874015748143 ) ;
#667 = DIRECTION ( 'NONE',  ( 0.000000000000000000, 0.000000000000000000, 1.000000000000000000 ) ) ;
#668 = VERTEX_POINT ( 'NONE', #583 ) ;
#669 = DIRECTION ( 'NONE',  ( -0.000000000000000000, 1.000000000000000000, -0.000000000000000000 ) ) ;
#670 = ORIENTED_EDGE ( 'NONE', *, *, #694, .T. ) ;
#671 = DIRECTION ( 'NONE',  ( -0.000000000000000000, -1.000000000000000000, -0.000000000000000000 ) ) ;
#672 = AXIS2_PLACEMENT_3D ( 'NONE', #545, #569, #623 ) ;
#673 = ADVANCED_FACE ( 'NONE', ( #642 ), #455, .F. ) ;
#674 = VECTOR ( 'NONE', #4, 39.37007874015748143 ) ;
#675 = VERTEX_POINT ( 'NONE', #354 ) ;
#676 = PLANE ( 'NONE',  #259 ) ;
#677 = CARTESIAN_POINT ( 'NONE',  ( -0.2275000000000001465, 0.1249999999999999584, -0.1199999999999999123 ) ) ;
#678 = PLANE ( 'NONE',  #357 ) ;
#679 = PLANE ( 'NONE',  #224 ) ;
#680 = ORIENTED_EDGE ( 'NONE', *, *, #427, .F. ) ;
#681 = CARTESIAN_POINT ( 'NONE',  ( 0.1270024875621890981, 0.1150497512437810982, -0.2195024875621890692 ) ) ;
#682 = CARTESIAN_POINT ( 'NONE',  ( -0.2275000000000000355, 0.1250000000000000000, -0.2200000000000000011 ) ) ;
#683 = EDGE_CURVE ( 'NONE', #675, #488, #625, .T. ) ;
#684 = ORIENTED_EDGE ( 'NONE', *, *, #204, .T. ) ;
#685 = VECTOR ( 'NONE', #239, 39.37007874015748143 ) ;
#686 = DIRECTION ( 'NONE',  ( -0.7071067811865472397, 0.000000000000000000, 0.7071067811865479058 ) ) ;
#687 = VECTOR ( 'NONE', #124, 39.37007874015748143 ) ;
#688 = DIRECTION ( 'NONE',  ( -1.552186360036513215E-16, 0.000000000000000000, -1.000000000000000000 ) ) ;
#689 = ORIENTED_EDGE ( 'NONE', *, *, #633, .T. ) ;
#690 = EDGE_CURVE ( 'NONE', #636, #520, #695, .T. ) ;
#691 = CARTESIAN_POINT ( 'NONE',  ( -0.1774999999999999634, 0.1250000000000000000, 0.2200000000000000011 ) ) ;
#692 = CARTESIAN_POINT ( 'NONE',  ( -0.1075000000000000261, 0.000000000000000000, -0.2000000000000000111 ) ) ;
#693 = VERTEX_POINT ( 'NONE', #241 ) ;
#694 = EDGE_CURVE ( 'NONE', #211, #222, #200, .T. ) ;
#695 = LINE ( 'NONE', #411, #666 ) ;
#696 = DIRECTION ( 'NONE',  ( 0.000000000000000000, 0.000000000000000000, 1.000000000000000000 ) ) ;
#697 = ORIENTED_EDGE ( 'NONE', *, *, #398, .T. ) ;
#698 = LINE ( 'NONE', #298, #215 ) ;
#699 = CARTESIAN_POINT ( 'NONE',  ( -0.1275000000000000022, 0.000000000000000000, -0.1199999999999999956 ) ) ;
#700 = ORIENTED_EDGE ( 'NONE', *, *, #709, .T. ) ;
#701 = FACE_OUTER_BOUND ( 'NONE', #150, .T. ) ;
#702 = ORIENTED_EDGE ( 'NONE', *, *, #551, .T. ) ;
#703 = DIRECTION ( 'NONE',  ( 1.000000000000000000, -0.000000000000000000, 2.845674993400273939E-16 ) ) ;
#704 = VERTEX_POINT ( 'NONE', #249 ) ;
#705 = ADVANCED_FACE ( 'NONE', ( #460 ), #637, .F. ) ;
#706 = VECTOR ( 'NONE', #283, 39.37007874015748143 ) ;
#707 = LINE ( 'NONE', #653, #627 ) ;
#708 = ORIENTED_EDGE ( 'NONE', *, *, #140, .T. ) ;
#709 = EDGE_CURVE ( 'NONE', #624, #258, #136, .T. ) ;
#710 = VECTOR ( 'NONE', #568, 39.37007874015748143 ) ;
#711 = DIRECTION ( 'NONE',  ( 2.845674993400273939E-16, 0.000000000000000000, -1.000000000000000000 ) ) ;
ENDSEC;
END-ISO-10303-21;
