ISO-10303-21;
HEADER;
FILE_DESCRIPTION (( 'STEP AP214' ),
    '1' );
FILE_NAME ('PistonMountBracketCap.STEP',
    '2026-04-07T13:35:38',
    ( '' ),
    ( '' ),
    'SwSTEP 2.0',
    'SolidWorks 2025',
    '' );
FILE_SCHEMA (( 'AUTOMOTIVE_DESIGN' ));
ENDSEC;

DATA;
#1 = CARTESIAN_POINT ( 'NONE',  ( -0.4527559055118112186, 0.9195920376122762585, -1.725741279491614932 ) ) ;
#2 = DIRECTION ( 'NONE',  ( 1.000000000000000000, -0.000000000000000000, 0.000000000000000000 ) ) ;
#3 = VECTOR ( 'NONE', #520, 39.37007874015748143 ) ;
#4 = CARTESIAN_POINT ( 'NONE',  ( -0.6028592419857218276, 1.809222062289610022, -1.274999999999999911 ) ) ;
#5 = CARTESIAN_POINT ( 'NONE',  ( -0.8750000000000001110, 1.758546281197664207, -1.204839251240825693 ) ) ;
#6 = DIRECTION ( 'NONE',  ( 0.000000000000000000, 0.000000000000000000, 1.000000000000000000 ) ) ;
#7 = EDGE_LOOP ( 'NONE', ( #288, #671, #181, #828 ) ) ;
#8 = CARTESIAN_POINT ( 'NONE',  ( -0.5746425539443033026, 1.794834012808718571, -1.172887294015166448 ) ) ;
#9 = CARTESIAN_POINT ( 'NONE',  ( -0.4527559055118110520, 1.620840504456499076, -1.274999999999999911 ) ) ;
#10 =( BOUNDED_CURVE ( )  B_SPLINE_CURVE ( 3, ( #117, #371, #309, #749 ),
 .UNSPECIFIED., .F., .T. ) 
 B_SPLINE_CURVE_WITH_KNOTS ( ( 4, 4 ),
 ( 0.03595425894006778339, 0.07190040422978695445 ),
 .UNSPECIFIED. ) 
 CURVE ( )  GEOMETRIC_REPRESENTATION_ITEM ( )  RATIONAL_B_SPLINE_CURVE ( ( 1.000000000000000222, 0.3333333333333333703, 0.3333333333333330928, 1.000000000000000000 ) ) 
 REPRESENTATION_ITEM ( '' )  );
#11 = ADVANCED_FACE ( 'NONE', ( #454 ), #83, .F. ) ;
#12 = CARTESIAN_POINT ( 'NONE',  ( -0.5671037945690862170, 1.801033493378555006, -1.130582220258540271 ) ) ;
#13 = DIRECTION ( 'NONE',  ( 0.000000000000000000, 0.000000000000000000, 1.000000000000000000 ) ) ;
#14 = MANIFOLD_SOLID_BREP ( 'Cut-Extrude5', #318 ) ;
#15 = AXIS2_PLACEMENT_3D ( 'NONE', #701, #562, #830 ) ;
#16 =( BOUNDED_SURFACE ( )  B_SPLINE_SURFACE ( 3, 1, ( 
 ( #800, #589 ),
 ( #796, #804 ),
 ( #525, #477 ),
 ( #669, #409 ),
 ( #82, #91 ),
 ( #209, #215 ),
 ( #343, #522 ) ),
 .UNSPECIFIED., .T., .F., .F. ) 
 B_SPLINE_SURFACE_WITH_KNOTS ( ( 4, 3, 4 ),
 ( 2, 2 ),
 ( 0.000000000000000000, 0.5000000000000000000, 1.000000000000000000 ),
 ( 0.000000000000000000, 1.000000000000000000 ),
 .UNSPECIFIED. ) 
 GEOMETRIC_REPRESENTATION_ITEM ( )  RATIONAL_B_SPLINE_SURFACE ( (
 ( 1.000000000000000000, 1.000000000000000000),
 ( 0.3333333333333333703, 0.3333333333333333703),
 ( 0.3333333333333333703, 0.3333333333333333703),
 ( 1.000000000000000000, 1.000000000000000000),
 ( 0.3333333333333333703, 0.3333333333333333703),
 ( 0.3333333333333333703, 0.3333333333333333703),
 ( 1.000000000000000000, 1.000000000000000000) ) ) 
 REPRESENTATION_ITEM ( '' )  SURFACE ( )  );
#17 = CARTESIAN_POINT ( 'NONE',  ( 0.7131729114545490855, 1.749693301502080800, -1.024999999999999689 ) ) ;
#18 = LINE ( 'NONE', #473, #807 ) ;
#19 = DIRECTION ( 'NONE',  ( 0.000000000000000000, 0.000000000000000000, -1.000000000000000000 ) ) ;
#20 = CARTESIAN_POINT ( 'NONE',  ( -0.8559155191255581885, 1.782778528246020677, -1.275000000000000799 ) ) ;
#21 = CARTESIAN_POINT ( 'NONE',  ( -0.6027559055118112408, 3.030615659659527505, -1.725741279491603608 ) ) ;
#22 = CARTESIAN_POINT ( 'NONE',  ( -0.8051411838919350084, 1.758657867636927108, -1.024999999999999911 ) ) ;
#23 = ORIENTED_EDGE ( 'NONE', *, *, #768, .F. ) ;
#24 = CARTESIAN_POINT ( 'NONE',  ( -0.7003372283953920308, 1.756804099565163702, -1.025000000000000133 ) ) ;
#25 = CARTESIAN_POINT ( 'NONE',  ( 0.6027559055118111297, 1.825103848635904802, -1.725741279491603608 ) ) ;
#26 = LINE ( 'NONE', #784, #592 ) ;
#27 = EDGE_LOOP ( 'NONE', ( #296, #765, #760 ) ) ;
#28 = LINE ( 'NONE', #220, #637 ) ;
#29 = FACE_OUTER_BOUND ( 'NONE', #429, .T. ) ;
#30 = B_SPLINE_CURVE_WITH_KNOTS ( 'NONE', 3,
 ( #502, #139, #697, #634, #639, #323, #200, #648, #70, #644, #250, #265 ),
 .UNSPECIFIED., .F., .F.,
 ( 4, 2, 2, 2, 2, 4 ),
 ( 8.673617379884035472E-18, 0.001356833815656707321, 0.002713667631313405968, 0.004070501446970104832, 0.004748918354798448843, 0.005427335262626793722 ),
 .UNSPECIFIED. ) ;
#31 = CARTESIAN_POINT ( 'NONE',  ( -0.5227950665694574006, 1.856114473574376866, -1.024999999999999911 ) ) ;
#32 = EDGE_CURVE ( 'NONE', #80, #36, #202, .T. ) ;
#33 = ORIENTED_EDGE ( 'NONE', *, *, #365, .T. ) ;
#34 = CARTESIAN_POINT ( 'NONE',  ( -0.6204238271263340376, 1.797361570972618283, -1.024999999999999911 ) ) ;
#35 = DIRECTION ( 'NONE',  ( -1.000000000000000000, -0.000000000000000000, 0.000000000000000000 ) ) ;
#36 = VERTEX_POINT ( 'NONE', #84 ) ;
#37 = CARTESIAN_POINT ( 'NONE',  ( 0.8274568371538224554, 1.768435375029788537, -1.024999999999999689 ) ) ;
#38 = B_SPLINE_CURVE_WITH_KNOTS ( 'NONE', 3,
 ( #94, #141, #347, #152, #34, #647, #208, #24, #782, #403, #285, #711, #720, #145 ),
 .UNSPECIFIED., .F., .F.,
 ( 4, 2, 2, 2, 2, 2, 4 ),
 ( 0.000000000000000000, 0.001529623389783986041, 0.003059246779567972082, 0.004588870169351966580, 0.005353681864243972285, 0.005736087711689970801, 0.006118493559135968450 ),
 .UNSPECIFIED. ) ;
#39 = CARTESIAN_POINT ( 'NONE',  ( 0.7499999999999998890, 1.665956993259415153, -1.205118110236220064 ) ) ;
#40 = ORIENTED_EDGE ( 'NONE', *, *, #337, .T. ) ;
#41 = CIRCLE ( 'NONE', #199, 0.05511811023622041616 ) ;
#42 = VECTOR ( 'NONE', #659, 39.37007874015748143 ) ;
#43 = CIRCLE ( 'NONE', #15, 0.05511811023622041616 ) ;
#44 = CARTESIAN_POINT ( 'NONE',  ( -0.4527559055118112186, 0.6353464161320048209, -0.9852561192862693273 ) ) ;
#45 = CARTESIAN_POINT ( 'NONE',  ( -0.7499999999999998890, 1.556114473574376822, -1.149999999999999689 ) ) ;
#46 = ORIENTED_EDGE ( 'NONE', *, *, #134, .T. ) ;
#47 = CARTESIAN_POINT ( 'NONE',  ( 0.8658107170271300834, 1.794713143965841029, -1.025000000000000133 ) ) ;
#48 = EDGE_CURVE ( 'NONE', #336, #679, #631, .T. ) ;
#49 = CARTESIAN_POINT ( 'NONE',  ( 0.8750000000000001110, 1.774038314658060056, -1.237944970592504523 ) ) ;
#50 = EDGE_LOOP ( 'NONE', ( #248, #554, #591, #126 ) ) ;
#51 = CARTESIAN_POINT ( 'NONE',  ( 0.5635441236892715366, 1.813072904011149289, -1.137036872063305726 ) ) ;
#52 = EDGE_CURVE ( 'NONE', #405, #273, #814, .T. ) ;
#53 = CARTESIAN_POINT ( 'NONE',  ( 0.8750000000000000000, 1.746207205006026442, -1.127395516945719045 ) ) ;
#54 = ORIENTED_EDGE ( 'NONE', *, *, #788, .F. ) ;
#55 = APPLICATION_PROTOCOL_DEFINITION ( 'draft international standard', 'automotive_design', 1998, #690 ) ;
#56 = CIRCLE ( 'NONE', #623, 0.05511811023622041616 ) ;
#57 = CARTESIAN_POINT ( 'NONE',  ( 0.7617436421578047678, 1.744088828342528874, -1.274999999999999911 ) ) ;
#58 = AXIS2_PLACEMENT_3D ( 'NONE', #271, #537, #716 ) ;
#59 = CARTESIAN_POINT ( 'NONE',  ( 0.4527559055118110520, 1.652080482333220246, -1.274999999999999911 ) ) ;
#60 = VERTEX_POINT ( 'NONE', #446 ) ;
#61 = EDGE_CURVE ( 'NONE', #164, #239, #791, .T. ) ;
#62 = ORIENTED_EDGE ( 'NONE', *, *, #383, .F. ) ;
#63 = CARTESIAN_POINT ( 'NONE',  ( -0.8750000000000000000, 1.748841261087300536, -1.160758249312810575 ) ) ;
#64 = CARTESIAN_POINT ( 'NONE',  ( 0.8750000000000002220, 1.746529365394798416, -1.174149230615650463 ) ) ;
#65 = ORIENTED_EDGE ( 'NONE', *, *, #712, .F. ) ;
#66 = CARTESIAN_POINT ( 'NONE',  ( -0.8750000000000000000, 1.771731688599962329, -1.063472053142711093 ) ) ;
#67 = CARTESIAN_POINT ( 'NONE',  ( 0.7499999999999998890, 1.856114473574376866, -0.9248031496062975032 ) ) ;
#68 = FILL_AREA_STYLE ('',( #698 ) ) ;
#69 = CARTESIAN_POINT ( 'NONE',  ( -0.5694853640356248858, 1.798125207460339103, -1.140749389641414258 ) ) ;
#70 = CARTESIAN_POINT ( 'NONE',  ( 0.7148186830386505930, 1.749210530547572695, -1.274999999999999911 ) ) ;
#71 = CONICAL_SURFACE ( 'NONE', #175, 0.2251968503937021304, 0.7297180710827280148 ) ;
#72 =( BOUNDED_CURVE ( )  B_SPLINE_CURVE ( 3, ( #320, #572, #9, #327 ),
 .UNSPECIFIED., .F., .F. ) 
 B_SPLINE_CURVE_WITH_KNOTS ( ( 4, 4 ),
 ( 0.03351555407917895801, 0.03595425894006778339 ),
 .UNSPECIFIED. ) 
 CURVE ( )  GEOMETRIC_REPRESENTATION_ITEM ( )  RATIONAL_B_SPLINE_CURVE ( ( 0.8251099395467031972, 0.8771573553571281323, 0.9354540421748936962, 0.9999999999999998890 ) ) 
 REPRESENTATION_ITEM ( '' )  );
#73 = SURFACE_SIDE_STYLE ('',( #714 ) ) ;
#74 = B_SPLINE_CURVE_WITH_KNOTS ( 'NONE', 1,
 ( #490, #59 ),
 .UNSPECIFIED., .F., .F.,
 ( 2, 2 ),
 ( 0.05367275787499790202, 0.3912892469490963365 ),
 .UNSPECIFIED. ) ;
#75 = CARTESIAN_POINT ( 'NONE',  ( -0.5775510943963811927, 1.817312457474259624, -1.256023023854478504 ) ) ;
#76 = CARTESIAN_POINT ( 'NONE',  ( -0.7499999999999998890, 1.556114473574376822, -1.205118110236220064 ) ) ;
#77 = CARTESIAN_POINT ( 'NONE',  ( -0.7499999999999998890, 1.686035733416895166, -1.149999999999999689 ) ) ;
#78 = CARTESIAN_POINT ( 'NONE',  ( -0.5767089630317276949, 1.796449810211079079, -1.194405416982006640 ) ) ;
#79 = CARTESIAN_POINT ( 'NONE',  ( -0.7499999999999998890, 1.686035733416895166, -1.205118110236220064 ) ) ;
#80 = VERTEX_POINT ( 'NONE', #222 ) ;
#81 = B_SPLINE_CURVE_WITH_KNOTS ( 'NONE', 3,
 ( #294, #498, #230, #431 ),
 .UNSPECIFIED., .F., .F.,
 ( 4, 4 ),
 ( 0.000000000000000000, 0.001506806725611121176 ),
 .UNSPECIFIED. ) ;
#82 = CARTESIAN_POINT ( 'NONE',  ( -0.4527559055118112186, 0.6353464161320048209, -0.9852561192862693273 ) ) ;
#83 = CONICAL_SURFACE ( 'NONE', #396, 0.05511811023622041616, 0.8410782557121694314 ) ;
#84 = CARTESIAN_POINT ( 'NONE',  ( 0.8750000000000000000, 1.556114473574376822, -1.274999999999999911 ) ) ;
#85 = EDGE_CURVE ( 'NONE', #164, #279, #26, .T. ) ;
#86 = CARTESIAN_POINT ( 'NONE',  ( 0.6786792125499230277, 1.764272606537660160, -1.024999999999999689 ) ) ;
#87 = CARTESIAN_POINT ( 'NONE',  ( 0.5227950665694571786, 1.856114473574377088, -1.024999999999999911 ) ) ;
#88 = DIRECTION ( 'NONE',  ( 1.000000000000000000, 0.000000000000000000, 0.000000000000000000 ) ) ;
#89 = VERTEX_POINT ( 'NONE', #722 ) ;
#90 = DIRECTION ( 'NONE',  ( 0.000000000000000000, -1.000000000000000000, 0.000000000000000000 ) ) ;
#91 = CARTESIAN_POINT ( 'NONE',  ( -0.4527559055118112186, 0.9195920376122762585, -1.725741279491614932 ) ) ;
#92 = CARTESIAN_POINT ( 'NONE',  ( -0.4527559055118111075, 1.556114473574366608, -1.108474439038517723 ) ) ;
#93 = ORIENTED_EDGE ( 'NONE', *, *, #607, .T. ) ;
#94 = CARTESIAN_POINT ( 'NONE',  ( -0.5389665540246492137, 1.856114473574376866, -1.024999999999999911 ) ) ;
#95 = PLANE ( 'NONE',  #719 ) ;
#96 = EDGE_CURVE ( 'NONE', #188, #36, #664, .T. ) ;
#97 = CARTESIAN_POINT ( 'NONE',  ( -0.7611801800792102890, 1.748538790100027551, -1.025000000000000133 ) ) ;
#98 = AXIS2_PLACEMENT_3D ( 'NONE', #231, #683, #546 ) ;
#99 = ORIENTED_EDGE ( 'NONE', *, *, #32, .F. ) ;
#100 = DIRECTION ( 'NONE',  ( 0.000000000000000000, 0.000000000000000000, -1.000000000000000000 ) ) ;
#101 = DIRECTION ( 'NONE',  ( 0.000000000000000000, 0.000000000000000000, 1.000000000000000000 ) ) ;
#102 = LINE ( 'NONE', #335, #695 ) ;
#103 = ORIENTED_EDGE ( 'NONE', *, *, #289, .F. ) ;
#104 = DIRECTION ( 'NONE',  ( 0.000000000000000000, -0.000000000000000000, -1.000000000000000000 ) ) ;
#105 = CARTESIAN_POINT ( 'NONE',  ( -0.4527559055118111075, 1.556114473574376822, -1.024999999999999911 ) ) ;
#106 = ORIENTED_EDGE ( 'NONE', *, *, #180, .T. ) ;
#107 =( CONVERSION_BASED_UNIT ( 'INCH', #418 ) LENGTH_UNIT ( ) NAMED_UNIT ( #280 ) );
#108 = CARTESIAN_POINT ( 'NONE',  ( -0.4527559055118109410, 2.730615659659519689, -1.725741279491614932 ) ) ;
#109 = DIRECTION ( 'NONE',  ( 9.128056560092138699E-17, 0.6666595222913440644, -0.7453623825618493903 ) ) ;
#110 = ORIENTED_EDGE ( 'NONE', *, *, #324, .T. ) ;
#111 = ADVANCED_FACE ( 'NONE', ( #530 ), #474, .F. ) ;
#112 = AXIS2_PLACEMENT_3D ( 'NONE', #348, #160, #101 ) ;
#113 = CARTESIAN_POINT ( 'NONE',  ( 0.5435014946419171045, 1.843432245648673806, -1.094150036947029392 ) ) ;
#114 = DIRECTION ( 'NONE',  ( 0.000000000000000000, 0.000000000000000000, -1.000000000000000000 ) ) ;
#115 = ORIENTED_EDGE ( 'NONE', *, *, #315, .F. ) ;
#116 = DIRECTION ( 'NONE',  ( 0.000000000000000000, -1.000000000000000000, 0.000000000000000000 ) ) ;
#117 = CARTESIAN_POINT ( 'NONE',  ( -0.4527559055118111075, 1.652080482333220468, -1.275000000000000577 ) ) ;
#118 = ORIENTED_EDGE ( 'NONE', *, *, #304, .T. ) ;
#119 = CARTESIAN_POINT ( 'NONE',  ( -0.4527559055118111075, 1.825103848635898585, -1.725741279491614710 ) ) ;
#120 = EDGE_CURVE ( 'NONE', #640, #798, #776, .T. ) ;
#121 = B_SPLINE_CURVE_WITH_KNOTS ( 'NONE', 3,
 ( #613, #47, #246, #621, #37, #290, #609, #494, #233, #815, #369, #485 ),
 .UNSPECIFIED., .F., .F.,
 ( 4, 2, 2, 2, 2, 4 ),
 ( 0.000000000000000000, 0.0008828746414077831865, 0.001765749282815566373, 0.002648623924223349451, 0.003090061244927238063, 0.003531498565631127108 ),
 .UNSPECIFIED. ) ;
#122 = EDGE_LOOP ( 'NONE', ( #62, #115 ) ) ;
#123 = CARTESIAN_POINT ( 'NONE',  ( -0.8750000000000000000, 1.748576225824469033, -1.138336595327812173 ) ) ;
#124 = AXIS2_PLACEMENT_3D ( 'NONE', #153, #662, #533 ) ;
#125 = CARTESIAN_POINT ( 'NONE',  ( -0.8750000000000000000, 1.556114473574376822, -1.274999999999999911 ) ) ;
#126 = ORIENTED_EDGE ( 'NONE', *, *, #712, .T. ) ;
#127 = CARTESIAN_POINT ( 'NONE',  ( 0.5712862960449335281, 1.838633938753243102, -1.260016486164422300 ) ) ;
#128 = FACE_OUTER_BOUND ( 'NONE', #394, .T. ) ;
#129 = CARTESIAN_POINT ( 'NONE',  ( -0.7419842131041267663, 1.748538790100027773, -1.275000000000000133 ) ) ;
#130 = CARTESIAN_POINT ( 'NONE',  ( -0.5469165041319137277, 1.829683847845285483, -1.075797561966037152 ) ) ;
#131 = PLANE ( 'NONE',  #374 ) ;
#132 = ORIENTED_EDGE ( 'NONE', *, *, #48, .F. ) ;
#133 =( BOUNDED_SURFACE ( )  B_SPLINE_SURFACE ( 3, 1, ( 
 ( #168, #419 ),
 ( #754, #677 ),
 ( #237, #108 ),
 ( #186, #119 ),
 ( #44, #544 ),
 ( #243, #182 ),
 ( #356, #689 ) ),
 .UNSPECIFIED., .T., .F., .F. ) 
 B_SPLINE_SURFACE_WITH_KNOTS ( ( 4, 3, 4 ),
 ( 2, 2 ),
 ( 0.000000000000000000, 0.5000000000000000000, 1.000000000000000000 ),
 ( 0.000000000000000000, 1.000000000000000000 ),
 .UNSPECIFIED. ) 
 GEOMETRIC_REPRESENTATION_ITEM ( )  RATIONAL_B_SPLINE_SURFACE ( (
 ( 1.000000000000000000, 1.000000000000000000),
 ( 0.3333333333333333703, 0.3333333333333333703),
 ( 0.3333333333333333703, 0.3333333333333333703),
 ( 1.000000000000000000, 1.000000000000000000),
 ( 0.3333333333333333703, 0.3333333333333333703),
 ( 0.3333333333333333703, 0.3333333333333333703),
 ( 1.000000000000000000, 1.000000000000000000) ) ) 
 REPRESENTATION_ITEM ( '' )  SURFACE ( )  );
#134 = EDGE_CURVE ( 'NONE', #36, #273, #797, .T. ) ;
#135 = CARTESIAN_POINT ( 'NONE',  ( 0.5697456862727483529, 1.806186391297949223, -1.163853214349486187 ) ) ;
#136 = FACE_OUTER_BOUND ( 'NONE', #818, .T. ) ;
#137 = ORIENTED_EDGE ( 'NONE', *, *, #740, .F. ) ;
#138 = CARTESIAN_POINT ( 'NONE',  ( 0.4527559055118111075, 1.540858227155627036, -0.9852561192862693273 ) ) ;
#139 = CARTESIAN_POINT ( 'NONE',  ( 0.5824794587743163943, 1.837875367137544735, -1.275000000000000133 ) ) ;
#140 = ORIENTED_EDGE ( 'NONE', *, *, #383, .T. ) ;
#141 = CARTESIAN_POINT ( 'NONE',  ( -0.5548865287323992979, 1.843863349166380727, -1.024999999999999689 ) ) ;
#142 = DIRECTION ( 'NONE',  ( 0.000000000000000000, 1.000000000000000000, 0.000000000000000000 ) ) ;
#143 = EDGE_CURVE ( 'NONE', #831, #266, #102, .T. ) ;
#144 = PRESENTATION_STYLE_ASSIGNMENT (( #325 ) ) ;
#145 = CARTESIAN_POINT ( 'NONE',  ( -0.7499999999999998890, 1.748538790100027107, -1.024999999999999911 ) ) ;
#146 = VECTOR ( 'NONE', #820, 39.37007874015748854 ) ;
#147 = DIRECTION ( 'NONE',  ( 0.000000000000000000, -0.000000000000000000, -1.000000000000000000 ) ) ;
#148 = CARTESIAN_POINT ( 'NONE',  ( -0.7499999999999998890, 1.748538790100027107, -1.024999999999999911 ) ) ;
#149 = CARTESIAN_POINT ( 'NONE',  ( 0.6027559055118111297, 3.030615659659527505, -1.725741279491603608 ) ) ;
#150 = DIRECTION ( 'NONE',  ( -0.000000000000000000, 1.000000000000000000, -0.000000000000000000 ) ) ;
#151 = ORIENTED_EDGE ( 'NONE', *, *, #277, .T. ) ;
#152 = CARTESIAN_POINT ( 'NONE',  ( -0.6037115135511900155, 1.808608086792279801, -1.024999999999999689 ) ) ;
#153 = CARTESIAN_POINT ( 'NONE',  ( -0.7499999999999998890, 1.117925497196424089, -1.149999999999999689 ) ) ;
#154 = ORIENTED_EDGE ( 'NONE', *, *, #661, .F. ) ;
#155 = DIRECTION ( 'NONE',  ( 0.000000000000000000, 0.000000000000000000, 1.000000000000000000 ) ) ;
#156 = ORIENTED_EDGE ( 'NONE', *, *, #304, .F. ) ;
#157 = CARTESIAN_POINT ( 'NONE',  ( -0.7724878697359433000, 1.749926273666991605, -1.274999999999999911 ) ) ;
#158 = EDGE_CURVE ( 'NONE', #184, #279, #805, .T. ) ;
#159 = B_SPLINE_CURVE_WITH_KNOTS ( 'NONE', 3,
 ( #192, #261, #66, #568, #626, #770, #123, #322, #63, #389, #571, #779, #5, #444, #249, #561, #761, #514 ),
 .UNSPECIFIED., .F., .F.,
 ( 4, 2, 2, 2, 2, 2, 2, 2, 4 ),
 ( 0.000000000000000000, 0.001699652539823692972, 0.002549478809735539458, 0.003399305079647385944, 0.003824218214603308970, 0.004249131349559231996, 0.005098957619471073711, 0.005948783889382916294, 0.006798610159294758010 ),
 .UNSPECIFIED. ) ;
#160 = DIRECTION ( 'NONE',  ( -0.000000000000000000, 1.000000000000000000, -0.000000000000000000 ) ) ;
#161 = CARTESIAN_POINT ( 'NONE',  ( -0.4424685696619789499, 1.556114473574376822, -1.275000000000000577 ) ) ;
#162 = B_SPLINE_CURVE_WITH_KNOTS ( 'NONE', 3,
 ( #691, #357, #49, #618, #303, #183, #64, #299, #432, #482, #499, #53, #437, #169, #614, #366, #741, #552, #694, #420 ),
 .UNSPECIFIED., .F., .F.,
 ( 4, 2, 2, 2, 2, 2, 2, 2, 2, 4 ),
 ( 0.000000000000000000, 0.001754352418435972324, 0.002631528627653953716, 0.003070116732262939858, 0.003508704836871926001, 0.003947292941480912143, 0.004385881046089897851, 0.005263057255307873605, 0.006140233464525850227, 0.007017409673743825113 ),
 .UNSPECIFIED. ) ;
#163 = VECTOR ( 'NONE', #19, 39.37007874015748143 ) ;
#164 = VERTEX_POINT ( 'NONE', #340 ) ;
#165 = FACE_OUTER_BOUND ( 'NONE', #753, .T. ) ;
#166 = CARTESIAN_POINT ( 'NONE',  ( -0.8750000000000000000, 1.794848380924348508, -1.024999999999999911 ) ) ;
#167 = VERTEX_POINT ( 'NONE', #590 ) ;
#168 = CARTESIAN_POINT ( 'NONE',  ( 0.4527559055118111075, 1.540858227155627036, -0.9852561192862693273 ) ) ;
#169 = CARTESIAN_POINT ( 'NONE',  ( 0.8750000000000001110, 1.752458831582630383, -1.104770610414048226 ) ) ;
#170 = EDGE_CURVE ( 'NONE', #89, #204, #287, .T. ) ;
#171 = ORIENTED_EDGE ( 'NONE', *, *, #768, .T. ) ;
#172 = LINE ( 'NONE', #686, #146 ) ;
#173 = LINE ( 'NONE', #755, #579 ) ;
#174 = ORIENTED_EDGE ( 'NONE', *, *, #824, .F. ) ;
#175 = AXIS2_PLACEMENT_3D ( 'NONE', #652, #463, #221 ) ;
#176 = CARTESIAN_POINT ( 'NONE',  ( 0.8658028484808366620, 1.794706923213805538, -1.274999999999999911 ) ) ;
#177 = CARTESIAN_POINT ( 'NONE',  ( -0.8750000000000000000, 1.556114473574376822, -1.024999999999999911 ) ) ;
#178 = ORIENTED_EDGE ( 'NONE', *, *, #158, .F. ) ;
#179 = DIRECTION ( 'NONE',  ( 0.000000000000000000, 0.000000000000000000, 1.000000000000000000 ) ) ;
#180 = EDGE_CURVE ( 'NONE', #750, #352, #229, .T. ) ;
#181 = ORIENTED_EDGE ( 'NONE', *, *, #263, .T. ) ;
#182 = CARTESIAN_POINT ( 'NONE',  ( 0.4527559055118111075, 0.9195920376122762585, -1.725741279491614932 ) ) ;
#183 = CARTESIAN_POINT ( 'NONE',  ( 0.8750000000000001110, 1.747913280543534675, -1.179938803248552714 ) ) ;
#184 = VERTEX_POINT ( 'NONE', #789 ) ;
#185 = VERTEX_POINT ( 'NONE', #39 ) ;
#186 = CARTESIAN_POINT ( 'NONE',  ( -0.4527559055118111075, 1.540858227155627036, -0.9852561192862693273 ) ) ;
#187 = CARTESIAN_POINT ( 'NONE',  ( 0.7499999999999998890, 1.665956993259415153, -1.094881889763779093 ) ) ;
#188 = VERTEX_POINT ( 'NONE', #278 ) ;
#189 = CARTESIAN_POINT ( 'NONE',  ( -0.5613345663919321327, 1.808856022237689709, -1.110973501462115376 ) ) ;
#190 = AXIS2_PLACEMENT_3D ( 'NONE', #548, #116, #104 ) ;
#191 = CARTESIAN_POINT ( 'NONE',  ( 0.7499999999999998890, 1.856114473574376866, -1.375196850393701764 ) ) ;
#192 = CARTESIAN_POINT ( 'NONE',  ( -0.8750000000000000000, 1.794848380924348508, -1.024999999999999911 ) ) ;
#193 = PLANE ( 'NONE',  #668 ) ;
#194 = ADVANCED_FACE ( 'NONE', ( #534 ), #354, .F. ) ;
#195 = CARTESIAN_POINT ( 'NONE',  ( 0.4527559055118111075, 1.825103848635898585, -1.725741279491614710 ) ) ;
#196 = CARTESIAN_POINT ( 'NONE',  ( 0.000000000000000000, 1.856114473574376866, -1.024999999999999911 ) ) ;
#197 = CARTESIAN_POINT ( 'NONE',  ( -0.6299029067751938937, 1.791558276682908790, -1.274999999999999689 ) ) ;
#198 = CARTESIAN_POINT ( 'NONE',  ( -0.5732063298424191489, 1.795156520075888995, -1.162069108927866079 ) ) ;
#199 = AXIS2_PLACEMENT_3D ( 'NONE', #45, #295, #812 ) ;
#200 = CARTESIAN_POINT ( 'NONE',  ( 0.6816842163725240766, 1.762693817319276324, -1.274999999999999911 ) ) ;
#201 = PRODUCT_DEFINITION_FORMATION_WITH_SPECIFIED_SOURCE ( 'ANY', '', #413, .NOT_KNOWN. ) ;
#202 = LINE ( 'NONE', #512, #163 ) ;
#203 = EDGE_CURVE ( 'NONE', #239, #293, #794, .T. ) ;
#204 = VERTEX_POINT ( 'NONE', #31 ) ;
#205 = LINE ( 'NONE', #472, #3 ) ;
#206 = CYLINDRICAL_SURFACE ( 'NONE', #112, 0.05511811023622041616 ) ;
#207 = LINE ( 'NONE', #177, #505 ) ;
#208 = CARTESIAN_POINT ( 'NONE',  ( -0.6724420348008833814, 1.767447962259020677, -1.024999999999999911 ) ) ;
#209 = CARTESIAN_POINT ( 'NONE',  ( 0.4527559055118111075, 0.6353464161320048209, -0.9852561192862693273 ) ) ;
#210 = VECTOR ( 'NONE', #532, 39.37007874015748143 ) ;
#211 = CARTESIAN_POINT ( 'NONE',  ( 0.4527559055118111075, 1.556114473574365942, -1.024999999999999911 ) ) ;
#212 = ORIENTED_EDGE ( 'NONE', *, *, #324, .F. ) ;
#213 = CARTESIAN_POINT ( 'NONE',  ( 0.6328219360280716854, 1.795448482439347737, -1.024999999999999689 ) ) ;
#214 =( BOUNDED_SURFACE ( )  B_SPLINE_SURFACE ( 3, 1, ( 
 ( #138, #195 ),
 ( #507, #380 ),
 ( #326, #575 ),
 ( #517, #629 ),
 ( #564, #1 ),
 ( #435, #252 ),
 ( #384, #633 ) ),
 .UNSPECIFIED., .T., .F., .F. ) 
 B_SPLINE_SURFACE_WITH_KNOTS ( ( 4, 3, 4 ),
 ( 2, 2 ),
 ( 0.000000000000000000, 0.5000000000000000000, 1.000000000000000000 ),
 ( 0.000000000000000000, 1.000000000000000000 ),
 .UNSPECIFIED. ) 
 GEOMETRIC_REPRESENTATION_ITEM ( )  RATIONAL_B_SPLINE_SURFACE ( (
 ( 1.000000000000000000, 1.000000000000000000),
 ( 0.3333333333333333703, 0.3333333333333333703),
 ( 0.3333333333333333703, 0.3333333333333333703),
 ( 1.000000000000000000, 1.000000000000000000),
 ( 0.3333333333333333703, 0.3333333333333333703),
 ( 0.3333333333333333703, 0.3333333333333333703),
 ( 1.000000000000000000, 1.000000000000000000) ) ) 
 REPRESENTATION_ITEM ( '' )  SURFACE ( )  );
#215 = CARTESIAN_POINT ( 'NONE',  ( 0.4527559055118111075, 0.9195920376122762585, -1.725741279491614932 ) ) ;
#216 = CARTESIAN_POINT ( 'NONE',  ( -0.8750000000000000000, 1.556114473574376822, -1.274999999999999911 ) ) ;
#217 = DIMENSIONAL_EXPONENTS ( 1.000000000000000000, 0.000000000000000000, 0.000000000000000000, 0.000000000000000000, 0.000000000000000000, 0.000000000000000000, 0.000000000000000000 ) ;
#218 = VERTEX_POINT ( 'NONE', #733 ) ;
#219 = EDGE_CURVE ( 'NONE', #352, #223, #412, .T. ) ;
#220 = CARTESIAN_POINT ( 'NONE',  ( -0.8750000000000000000, 1.556114473574376822, 1.875000000000000444 ) ) ;
#221 = DIRECTION ( 'NONE',  ( 0.000000000000000000, 0.000000000000000000, 1.000000000000000000 ) ) ;
#222 = CARTESIAN_POINT ( 'NONE',  ( 0.8750000000000000000, 1.556114473574376822, -1.024999999999999911 ) ) ;
#223 = VERTEX_POINT ( 'NONE', #416 ) ;
#224 = CARTESIAN_POINT ( 'NONE',  ( -0.4527559055118111075, 1.556114473574376822, -1.024999999999999911 ) ) ;
#225 = DIRECTION ( 'NONE',  ( 0.000000000000000000, -1.000000000000000000, 0.000000000000000000 ) ) ;
#226 = VECTOR ( 'NONE', #816, 39.37007874015748143 ) ;
#227 = ORIENTED_EDGE ( 'NONE', *, *, #259, .T. ) ;
#228 = AXIS2_PLACEMENT_3D ( 'NONE', #447, #387, #329 ) ;
#229 = B_SPLINE_CURVE_WITH_KNOTS ( 'NONE', 3,
 ( #401, #97, #586, #283, #22, #349, #526, #166 ),
 .UNSPECIFIED., .F., .F.,
 ( 4, 2, 2, 4 ),
 ( 0.006118493559135968450, 0.006969616091960783265, 0.007820738624785597212, 0.009522983690435216433 ),
 .UNSPECIFIED. ) ;
#230 = CARTESIAN_POINT ( 'NONE',  ( 0.5311080905078773284, 1.856114473574376866, -1.063691341466552753 ) ) ;
#231 = CARTESIAN_POINT ( 'NONE',  ( 0.7499999999999998890, 1.856114473574376866, -1.149999999999999689 ) ) ;
#232 = EDGE_LOOP ( 'NONE', ( #500, #504, #341, #151 ) ) ;
#233 = CARTESIAN_POINT ( 'NONE',  ( 0.7734012880404759205, 1.746370650187202722, -1.024999999999999689 ) ) ;
#234 = CARTESIAN_POINT ( 'NONE',  ( 0.7499999999999998890, 1.556114473574376822, -1.149999999999999689 ) ) ;
#235 = EDGE_LOOP ( 'NONE', ( #378, #212, #535, #819 ) ) ;
#236 = UNCERTAINTY_MEASURE_WITH_UNIT (LENGTH_MEASURE( 1.000000000000000082E-05 ), #332, 'distance_accuracy_value', 'NONE');
#237 = CARTESIAN_POINT ( 'NONE',  ( -0.4527559055118109410, 2.446370038179248585, -0.9852561192862693273 ) ) ;
#238 = CARTESIAN_POINT ( 'NONE',  ( 0.000000000000000000, 1.556114473574376822, -1.024999999999999911 ) ) ;
#239 = VERTEX_POINT ( 'NONE', #105 ) ;
#240 = EDGE_CURVE ( 'NONE', #223, #239, #207, .T. ) ;
#241 = COLOUR_RGB ( '',0.7921568627450980005, 0.8196078431372548767, 0.9333333333333333481 ) ;
#242 = ORIENTED_EDGE ( 'NONE', *, *, #555, .F. ) ;
#243 = CARTESIAN_POINT ( 'NONE',  ( 0.4527559055118111075, 0.6353464161320048209, -0.9852561192862693273 ) ) ;
#244 = LINE ( 'NONE', #627, #226 ) ;
#245 = EDGE_LOOP ( 'NONE', ( #260, #227, #137, #65, #355, #676 ) ) ;
#246 = CARTESIAN_POINT ( 'NONE',  ( 0.8564674912369381055, 1.787716437088826327, -1.024999999999999911 ) ) ;
#247 = CARTESIAN_POINT ( 'NONE',  ( 0.4424685696619789499, 1.556114473574376822, -1.274999999999999911 ) ) ;
#248 = ORIENTED_EDGE ( 'NONE', *, *, #158, .T. ) ;
#249 = CARTESIAN_POINT ( 'NONE',  ( -0.8750000000000000000, 1.772157149747364935, -1.235798472433860429 ) ) ;
#250 = CARTESIAN_POINT ( 'NONE',  ( 0.7410648738660898793, 1.744088828342528430, -1.274999999999999911 ) ) ;
#251 = ORIENTED_EDGE ( 'NONE', *, *, #337, .F. ) ;
#252 = CARTESIAN_POINT ( 'NONE',  ( 0.4527559055118111075, 0.9195920376122762585, -1.725741279491614932 ) ) ;
#253 = ADVANCED_FACE ( 'NONE', ( #362 ), #503, .F. ) ;
#254 = CARTESIAN_POINT ( 'NONE',  ( 0.7499999999999998890, 1.665956993259415153, -1.149999999999999689 ) ) ;
#255 = CARTESIAN_POINT ( 'NONE',  ( -0.5896114372414581473, 1.818483094341337925, -1.274999999999999689 ) ) ;
#256 = B_SPLINE_CURVE_WITH_KNOTS ( 'NONE', 3,
 ( #395, #599, #528, #17, #785, #86, #657, #213, #536, #274, #588, #267 ),
 .UNSPECIFIED., .F., .F.,
 ( 4, 2, 2, 2, 2, 4 ),
 ( 0.003531498565631127108, 0.004226393294803722396, 0.004921288023976317684, 0.006311077482321490045, 0.007700866940666663274, 0.009090656399011839972 ),
 .UNSPECIFIED. ) ;
#257 = CARTESIAN_POINT ( 'NONE',  ( -0.5752371318206899176, 1.795007501322416488, -1.178279270265252476 ) ) ;
#258 = LINE ( 'NONE', #67, #610 ) ;
#259 = EDGE_CURVE ( 'NONE', #433, #336, #173, .T. ) ;
#260 = ORIENTED_EDGE ( 'NONE', *, *, #632, .F. ) ;
#261 = CARTESIAN_POINT ( 'NONE',  ( -0.8750000000000000000, 1.782819456216256704, -1.044019766823157891 ) ) ;
#262 = DIRECTION ( 'NONE',  ( 1.000000000000000000, 0.000000000000000000, 0.000000000000000000 ) ) ;
#263 = EDGE_CURVE ( 'NONE', #692, #300, #244, .T. ) ;
#264 = CARTESIAN_POINT ( 'NONE',  ( 0.5727987033085707447, 1.807859403298916812, -1.191936859328383003 ) ) ;
#265 = CARTESIAN_POINT ( 'NONE',  ( 0.7499999999999998890, 1.744088828342529540, -1.274999999999999911 ) ) ;
#266 = VERTEX_POINT ( 'NONE', #187 ) ;
#267 = CARTESIAN_POINT ( 'NONE',  ( 0.5626804296736629407, 1.856114473574376866, -1.024999999999999911 ) ) ;
#268 = FACE_OUTER_BOUND ( 'NONE', #745, .T. ) ;
#269 = CARTESIAN_POINT ( 'NONE',  ( -0.7100173581951497725, 1.753943984246448595, -1.275000000000000133 ) ) ;
#270 = CARTESIAN_POINT ( 'NONE',  ( -0.7499999999999998890, 1.856114473574376866, -1.149999999999999689 ) ) ;
#271 = CARTESIAN_POINT ( 'NONE',  ( -0.8750000000000000000, 2.324999999999999734, -1.024999999999999911 ) ) ;
#272 = CARTESIAN_POINT ( 'NONE',  ( -0.4527559055118111075, 1.556114473574376822, -1.024999999999999911 ) ) ;
#273 = VERTEX_POINT ( 'NONE', #247 ) ;
#274 = CARTESIAN_POINT ( 'NONE',  ( 0.5900888172329655790, 1.831029374252659769, -1.024999999999999911 ) ) ;
#275 = CARTESIAN_POINT ( 'NONE',  ( -0.6027559055118111297, 1.556114473574376822, -1.024999999999999911 ) ) ;
#276 = AXIS2_PLACEMENT_3D ( 'NONE', #538, #225, #147 ) ;
#277 = EDGE_CURVE ( 'NONE', #188, #665, #162, .T. ) ;
#278 = CARTESIAN_POINT ( 'NONE',  ( 0.8750000000000000000, 1.801978050167241774, -1.274999999999999911 ) ) ;
#279 = VERTEX_POINT ( 'NONE', #125 ) ;
#280 = DIMENSIONAL_EXPONENTS ( 1.000000000000000000, 0.000000000000000000, 0.000000000000000000, 0.000000000000000000, 0.000000000000000000, 0.000000000000000000, 0.000000000000000000 ) ;
#281 = CARTESIAN_POINT ( 'NONE',  ( 0.7499999999999998890, 1.117925497196424089, -1.205118110236220064 ) ) ;
#282 = DIRECTION ( 'NONE',  ( 0.000000000000000000, 0.000000000000000000, 1.000000000000000000 ) ) ;
#283 = CARTESIAN_POINT ( 'NONE',  ( -0.7945105538646891619, 1.755029165933064572, -1.024999999999999689 ) ) ;
#284 = ORIENTED_EDGE ( 'NONE', *, *, #85, .F. ) ;
#285 = CARTESIAN_POINT ( 'NONE',  ( -0.7298737400506590811, 1.749890351807076971, -1.024999999999999689 ) ) ;
#286 = DIRECTION ( 'NONE',  ( -0.000000000000000000, 1.000000000000000000, -0.000000000000000000 ) ) ;
#287 = LINE ( 'NONE', #605, #516 ) ;
#288 = ORIENTED_EDGE ( 'NONE', *, *, #521, .F. ) ;
#289 = EDGE_CURVE ( 'NONE', #185, #266, #635, .T. ) ;
#290 = CARTESIAN_POINT ( 'NONE',  ( 0.8069658712975185111, 1.757585787782690145, -1.024999999999999689 ) ) ;
#291 = CARTESIAN_POINT ( 'NONE',  ( -0.4527559055118111075, 1.556114473574376822, -1.024999999999999911 ) ) ;
#292 = VECTOR ( 'NONE', #468, 39.37007874015748143 ) ;
#293 = VERTEX_POINT ( 'NONE', #611 ) ;
#294 = CARTESIAN_POINT ( 'NONE',  ( 0.5227950665694571786, 1.856114473574377088, -1.024999999999999911 ) ) ;
#295 = DIRECTION ( 'NONE',  ( 0.000000000000000000, -1.000000000000000000, -0.000000000000000000 ) ) ;
#296 = ORIENTED_EDGE ( 'NONE', *, *, #471, .T. ) ;
#297 = CARTESIAN_POINT ( 'NONE',  ( 0.000000000000000000, 0.000000000000000000, 0.000000000000000000 ) ) ;
#298 = CARTESIAN_POINT ( 'NONE',  ( 0.5349732495197818682, 1.856114473574376422, -1.083088730357572693 ) ) ;
#299 = CARTESIAN_POINT ( 'NONE',  ( 0.8749999999999997780, 1.744650047732232867, -1.162587788203339523 ) ) ;
#300 = VERTEX_POINT ( 'NONE', #557 ) ;
#301 = PRODUCT_CONTEXT ( 'NONE', #641, 'mechanical' ) ;
#302 = CARTESIAN_POINT ( 'NONE',  ( 0.5680420665991491314, 1.807601955730177234, -1.154684382249394181 ) ) ;
#303 = CARTESIAN_POINT ( 'NONE',  ( 0.8750000000000000000, 1.753097037469275810, -1.196872919914670819 ) ) ;
#304 = EDGE_CURVE ( 'NONE', #293, #273, #484, .T. ) ;
#305 = ORIENTED_EDGE ( 'NONE', *, *, #607, .F. ) ;
#306 = VECTOR ( 'NONE', #630, 39.37007874015748143 ) ;
#307 = B_SPLINE_CURVE_WITH_KNOTS ( 'NONE', 1,
 ( #224, #415 ),
 .UNSPECIFIED., .F., .F.,
 ( 2, 2 ),
 ( 0.05367275787500284251, 0.3912892469490971137 ),
 .UNSPECIFIED. ) ;
#308 = CARTESIAN_POINT ( 'NONE',  ( 0.7958301588835359208, 1.752687584430605350, -1.274999999999999911 ) ) ;
#309 = CARTESIAN_POINT ( 'NONE',  ( 0.4527559055118110520, 2.557592293356843349, -1.274999999999999911 ) ) ;
#310 = ORIENTED_EDGE ( 'NONE', *, *, #773, .F. ) ;
#311 = ORIENTED_EDGE ( 'NONE', *, *, #263, .F. ) ;
#312 = CARTESIAN_POINT ( 'NONE',  ( 0.5735560266120774964, 1.812509920328764901, -1.210116927164098799 ) ) ;
#313 = CARTESIAN_POINT ( 'NONE',  ( -0.7499999999999998890, 1.686035733416895166, -1.149999999999999689 ) ) ;
#314 = ORIENTED_EDGE ( 'NONE', *, *, #365, .F. ) ;
#315 = EDGE_CURVE ( 'NONE', #417, #692, #41, .T. ) ;
#316 = CARTESIAN_POINT ( 'NONE',  ( 0.5735256592610883386, 1.816015447197334653, -1.219007240765816791 ) ) ;
#317 = CARTESIAN_POINT ( 'NONE',  ( -0.7499999999999998890, 1.117925497196424089, -1.205118110236220064 ) ) ;
#318 = CLOSED_SHELL ( 'NONE', ( #11, #578, #736, #596, #675, #730, #617, #450, #194, #545, #459, #573, #680, #111, #559, #583, #253, #436, #370, #569 ) ) ;
#319 = FACE_OUTER_BOUND ( 'NONE', #492, .T. ) ;
#320 = CARTESIAN_POINT ( 'NONE',  ( -0.4424685696619789499, 1.556114473574376600, -1.275000000000000577 ) ) ;
#321 = ORIENTED_EDGE ( 'NONE', *, *, #259, .F. ) ;
#322 = CARTESIAN_POINT ( 'NONE',  ( -0.8750000000000000000, 1.748521195722909649, -1.155145374343824027 ) ) ;
#323 = CARTESIAN_POINT ( 'NONE',  ( 0.6664964236553410082, 1.771908835652232117, -1.275000000000000133 ) ) ;
#324 = EDGE_CURVE ( 'NONE', #831, #167, #608, .T. ) ;
#325 = SURFACE_STYLE_USAGE ( .BOTH. , #73 ) ;
#326 = CARTESIAN_POINT ( 'NONE',  ( -0.4527559055118109410, 2.446370038179248585, -0.9852561192862693273 ) ) ;
#327 = CARTESIAN_POINT ( 'NONE',  ( -0.4527559055118111075, 1.652080482333220468, -1.275000000000000577 ) ) ;
#328 =( NAMED_UNIT ( * ) PLANE_ANGLE_UNIT ( ) SI_UNIT ( $, .RADIAN. ) );
#329 = DIRECTION ( 'NONE',  ( 0.000000000000000000, 0.000000000000000000, 1.000000000000000000 ) ) ;
#330 = FACE_OUTER_BOUND ( 'NONE', #723, .T. ) ;
#331 = CONICAL_SURFACE ( 'NONE', #425, 0.05511811023622041616, 0.8410782557121694314 ) ;
#332 =( CONVERSION_BASED_UNIT ( 'INCH', #769 ) LENGTH_UNIT ( ) NAMED_UNIT ( #217 ) );
#333 = CARTESIAN_POINT ( 'NONE',  ( 0.3351585017837199199, 2.523855377543223089, -1.274999999999999689 ) ) ;
#334 = FACE_OUTER_BOUND ( 'NONE', #235, .T. ) ;
#335 = CARTESIAN_POINT ( 'NONE',  ( 0.7499999999999998890, 1.117925497196424089, -1.094881889763779093 ) ) ;
#336 = VERTEX_POINT ( 'NONE', #486 ) ;
#337 = EDGE_CURVE ( 'NONE', #204, #606, #666, .T. ) ;
#338 = PRODUCT_DEFINITION_CONTEXT ( 'detailed design', #690, 'design' ) ;
#339 = CARTESIAN_POINT ( 'NONE',  ( 0.6027559055118111297, 1.556114473574376822, -1.024999999999999911 ) ) ;
#340 = CARTESIAN_POINT ( 'NONE',  ( -0.4424685696619789499, 1.556114473574376822, -1.275000000000000577 ) ) ;
#341 = ORIENTED_EDGE ( 'NONE', *, *, #96, .F. ) ;
#342 = CARTESIAN_POINT ( 'NONE',  ( -0.5243927880072359882, 1.856114473574377755, -1.032253270335210971 ) ) ;
#343 = CARTESIAN_POINT ( 'NONE',  ( 0.4527559055118111075, 1.540858227155627036, -0.9852561192862693273 ) ) ;
#344 = VECTOR ( 'NONE', #654, 39.37007874015748143 ) ;
#345 = CARTESIAN_POINT ( 'NONE',  ( 0.8750000000000000000, 0.1250000000000000000, 1.875000000000000000 ) ) ;
#346 = ORIENTED_EDGE ( 'NONE', *, *, #96, .T. ) ;
#347 = CARTESIAN_POINT ( 'NONE',  ( -0.5709633729276269998, 1.831832876860364223, -1.024999999999999689 ) ) ;
#348 = CARTESIAN_POINT ( 'NONE',  ( -0.7499999999999998890, 1.117925497196424089, -1.149999999999999689 ) ) ;
#349 = CARTESIAN_POINT ( 'NONE',  ( -0.8362059764547198348, 1.771553221982908877, -1.024999999999999911 ) ) ;
#350 = EDGE_CURVE ( 'NONE', #367, #405, #10, .T. ) ;
#351 = EDGE_LOOP ( 'NONE', ( #527, #93, #628, #314 ) ) ;
#352 = VERTEX_POINT ( 'NONE', #622 ) ;
#353 = DIRECTION ( 'NONE',  ( 0.000000000000000000, 1.000000000000000000, 0.000000000000000000 ) ) ;
#354 = PLANE ( 'NONE',  #764 ) ;
#355 = ORIENTED_EDGE ( 'NONE', *, *, #180, .F. ) ;
#356 = CARTESIAN_POINT ( 'NONE',  ( 0.4527559055118111075, 1.540858227155627036, -0.9852561192862693273 ) ) ;
#357 = CARTESIAN_POINT ( 'NONE',  ( 0.8750000000000001110, 1.787542019086074019, -1.256740056797372551 ) ) ;
#358 = AXIS2_PLACEMENT_3D ( 'NONE', #508, #565, #385 ) ;
#359 = CIRCLE ( 'NONE', #567, 0.05511811023622041616 ) ;
#360 = ORIENTED_EDGE ( 'NONE', *, *, #277, .F. ) ;
#361 = CARTESIAN_POINT ( 'NONE',  ( 0.5510917117698379553, 1.831834626365625773, -1.106787468843140054 ) ) ;
#362 = FACE_OUTER_BOUND ( 'NONE', #574, .T. ) ;
#363 = ORIENTED_EDGE ( 'NONE', *, *, #824, .T. ) ;
#364 = CARTESIAN_POINT ( 'NONE',  ( 0.5546005891002557808, 1.826393006878655134, -1.113720594368798000 ) ) ;
#365 = EDGE_CURVE ( 'NONE', #293, #405, #74, .T. ) ;
#366 = CARTESIAN_POINT ( 'NONE',  ( 0.8749999999999997780, 1.768162248921395285, -1.072986306259870348 ) ) ;
#367 = VERTEX_POINT ( 'NONE', #744 ) ;
#368 = UNCERTAINTY_MEASURE_WITH_UNIT (LENGTH_MEASURE( 1.000000000000000082E-05 ), #107, 'distance_accuracy_value', 'NONE');
#369 = CARTESIAN_POINT ( 'NONE',  ( 0.7558990328462666941, 1.744088828342529096, -1.024999999999999245 ) ) ;
#370 = ADVANCED_FACE ( 'NONE', ( #826, #390 ), #445, .F. ) ;
#371 = CARTESIAN_POINT ( 'NONE',  ( -0.4527559055118113851, 2.557592293356841573, -1.274999999999999911 ) ) ;
#372 = EDGE_LOOP ( 'NONE', ( #305, #742, #488 ) ) ;
#373 = CIRCLE ( 'NONE', #506, 0.05511811023622041616 ) ;
#374 = AXIS2_PLACEMENT_3D ( 'NONE', #455, #6, #576 ) ;
#375 = CARTESIAN_POINT ( 'NONE',  ( 0.5715671929070647028, 1.806177152212999459, -1.177853797948840153 ) ) ;
#376 = CARTESIAN_POINT ( 'NONE',  ( 0.4493945400566414783, 1.556114473574376600, -1.191810560095645677 ) ) ;
#377 = B_SPLINE_CURVE_WITH_KNOTS ( 'NONE', 3,
 ( #693, #75, #642, #638, #78, #257, #8, #198, #501, #69, #12, #189, #766, #130, #452, #707 ),
 .UNSPECIFIED., .F., .F.,
 ( 4, 2, 2, 2, 2, 2, 2, 4 ),
 ( 0.000000000000000000, 0.001648371555609214056, 0.002472557333413824120, 0.002884650222316124165, 0.003296743111218423776, 0.004120928889023023865, 0.004945114666827623087, 0.006593486222436815460 ),
 .UNSPECIFIED. ) ;
#378 = ORIENTED_EDGE ( 'NONE', *, *, #817, .F. ) ;
#379 = EDGE_CURVE ( 'NONE', #266, #185, #56, .T. ) ;
#380 = CARTESIAN_POINT ( 'NONE',  ( 0.4527559055118111075, 2.730615659659519689, -1.725741279491614932 ) ) ;
#381 = DIRECTION ( 'NONE',  ( 0.000000000000000000, 0.000000000000000000, -1.000000000000000000 ) ) ;
#382 = ORIENTED_EDGE ( 'NONE', *, *, #802, .F. ) ;
#383 = EDGE_CURVE ( 'NONE', #692, #417, #373, .T. ) ;
#384 = CARTESIAN_POINT ( 'NONE',  ( 0.4527559055118111075, 1.540858227155627036, -0.9852561192862693273 ) ) ;
#385 = DIRECTION ( 'NONE',  ( 0.000000000000000000, -0.000000000000000000, 1.000000000000000000 ) ) ;
#386 = CARTESIAN_POINT ( 'NONE',  ( 0.4527559055118111631, 1.620840504456499076, -1.274999999999999689 ) ) ;
#387 = DIRECTION ( 'NONE',  ( -0.000000000000000000, 1.000000000000000000, -0.000000000000000000 ) ) ;
#388 = CARTESIAN_POINT ( 'NONE',  ( 0.4527559055118110520, 1.652080482333220246, -1.274999999999999911 ) ) ;
#389 = CARTESIAN_POINT ( 'NONE',  ( -0.8750000000000000000, 1.750148155697948127, -1.172003600953546165 ) ) ;
#390 = FACE_OUTER_BOUND ( 'NONE', #430, .T. ) ;
#391 = ORIENTED_EDGE ( 'NONE', *, *, #661, .T. ) ;
#392 = CARTESIAN_POINT ( 'NONE',  ( -0.5259620592087409507, 1.856114473574377310, -1.039511590881070591 ) ) ;
#393 = DIRECTION ( 'NONE',  ( -0.000000000000000000, 1.000000000000000000, -0.000000000000000000 ) ) ;
#394 = EDGE_LOOP ( 'NONE', ( #346, #46, #402, #624, #810, #421, #178, #625, #660, #382, #684, #391 ) ) ;
#395 = CARTESIAN_POINT ( 'NONE',  ( 0.7499999999999998890, 1.744088828342529318, -1.024999999999999911 ) ) ;
#396 = AXIS2_PLACEMENT_3D ( 'NONE', #77, #636, #443 ) ;
#397 = CARTESIAN_POINT ( 'NONE',  ( -0.6027559055118111297, 1.825103848635904802, -1.725741279491603608 ) ) ;
#398 = DIRECTION ( 'NONE',  ( 0.000000000000000000, 0.000000000000000000, -1.000000000000000000 ) ) ;
#399 = CARTESIAN_POINT ( 'NONE',  ( 0.7499999999999998890, 1.556114473574376822, -1.094881889763779093 ) ) ;
#400 = CYLINDRICAL_SURFACE ( 'NONE', #124, 0.05511811023622041616 ) ;
#401 = CARTESIAN_POINT ( 'NONE',  ( -0.7499999999999998890, 1.748538790100027107, -1.024999999999999911 ) ) ;
#402 = ORIENTED_EDGE ( 'NONE', *, *, #52, .F. ) ;
#403 = CARTESIAN_POINT ( 'NONE',  ( -0.7247957882552825692, 1.750706999821013188, -1.025000000000000133 ) ) ;
#404 = FACE_OUTER_BOUND ( 'NONE', #7, .T. ) ;
#405 = VERTEX_POINT ( 'NONE', #388 ) ;
#406 = CARTESIAN_POINT ( 'NONE',  ( 0.4527559055118111631, 2.461626284597985936, -1.024999999999999911 ) ) ;
#407 = ORIENTED_EDGE ( 'NONE', *, *, #762, .F. ) ;
#408 = CARTESIAN_POINT ( 'NONE',  ( 0.5349732495197818682, 1.856114473574376422, -1.083088730357572693 ) ) ;
#409 = CARTESIAN_POINT ( 'NONE',  ( -0.4527559055118111075, 1.825103848635898585, -1.725741279491614710 ) ) ;
#410 = EDGE_CURVE ( 'NONE', #300, #433, #778, .T. ) ;
#411 = AXIS2_PLACEMENT_3D ( 'NONE', #238, #423, #687 ) ;
#412 = LINE ( 'NONE', #479, #42 ) ;
#413 = PRODUCT ( 'PistonMountBracketCap', 'PistonMountBracketCap', '', ( #301 ) ) ;
#414 = ORIENTED_EDGE ( 'NONE', *, *, #410, .F. ) ;
#415 = CARTESIAN_POINT ( 'NONE',  ( -0.4527559055118111075, 1.652080482333220468, -1.275000000000000577 ) ) ;
#416 = CARTESIAN_POINT ( 'NONE',  ( -0.8750000000000000000, 1.556114473574376822, -1.024999999999999911 ) ) ;
#417 = VERTEX_POINT ( 'NONE', #76 ) ;
#418 = LENGTH_MEASURE_WITH_UNIT ( LENGTH_MEASURE( 0.02539999999999999897 ), #799 );
#419 = CARTESIAN_POINT ( 'NONE',  ( 0.4527559055118111075, 1.825103848635898585, -1.725741279491614710 ) ) ;
#420 = CARTESIAN_POINT ( 'NONE',  ( 0.8750000000000000000, 1.801978050167241330, -1.024999999999999911 ) ) ;
#421 = ORIENTED_EDGE ( 'NONE', *, *, #85, .T. ) ;
#422 = CARTESIAN_POINT ( 'NONE',  ( -0.7499999999999998890, 1.556114473574376822, -1.094881889763779093 ) ) ;
#423 = DIRECTION ( 'NONE',  ( -0.000000000000000000, 0.000000000000000000, -1.000000000000000000 ) ) ;
#424 = PRESENTATION_LAYER_ASSIGNMENT (  '', '', ( #650 ) ) ;
#425 = AXIS2_PLACEMENT_3D ( 'NONE', #313, #142, #704 ) ;
#426 = ORIENTED_EDGE ( 'NONE', *, *, #240, .T. ) ;
#427 = EDGE_CURVE ( 'NONE', #60, #456, #30, .T. ) ;
#428 = CARTESIAN_POINT ( 'NONE',  ( 0.4527559055118111075, 1.556114473574376822, -1.108474439038525494 ) ) ;
#429 = EDGE_LOOP ( 'NONE', ( #103, #465, #756, #483, #813, #310, #685 ) ) ;
#430 = EDGE_LOOP ( 'NONE', ( #99, #242, #118, #806 ) ) ;
#431 = CARTESIAN_POINT ( 'NONE',  ( 0.5349732495197818682, 1.856114473574376422, -1.083088730357572693 ) ) ;
#432 = CARTESIAN_POINT ( 'NONE',  ( 0.8750000000000000000, 1.744140412561280273, -1.156770347544950672 ) ) ;
#433 = VERTEX_POINT ( 'NONE', #79 ) ;
#434 = ORIENTED_EDGE ( 'NONE', *, *, #487, .T. ) ;
#435 = CARTESIAN_POINT ( 'NONE',  ( 0.4527559055118111075, 0.6353464161320048209, -0.9852561192862693273 ) ) ;
#436 = ADVANCED_FACE ( 'NONE', ( #136 ), #331, .F. ) ;
#437 = CARTESIAN_POINT ( 'NONE',  ( 0.8749999999999997780, 1.747506162690016351, -1.121662889710267397 ) ) ;
#438 = ORIENTED_EDGE ( 'NONE', *, *, #632, .T. ) ;
#439 = AXIS2_PLACEMENT_3D ( 'NONE', #297, #179, #476 ) ;
#440 = FACE_OUTER_BOUND ( 'NONE', #663, .T. ) ;
#441 = DIRECTION ( 'NONE',  ( 0.000000000000000000, 0.000000000000000000, -1.000000000000000000 ) ) ;
#442 = EDGE_CURVE ( 'NONE', #164, #367, #72, .T. ) ;
#443 = DIRECTION ( 'NONE',  ( 0.000000000000000000, 0.000000000000000000, 1.000000000000000000 ) ) ;
#444 = CARTESIAN_POINT ( 'NONE',  ( -0.8750000000000000000, 1.767148893176469837, -1.225628284728063511 ) ) ;
#445 = PLANE ( 'NONE',  #358 ) ;
#446 = CARTESIAN_POINT ( 'NONE',  ( 0.5693554785493222248, 1.849941596944555622, -1.274999999999999467 ) ) ;
#447 = CARTESIAN_POINT ( 'NONE',  ( 0.7499999999999998890, 1.117925497196424089, -1.149999999999999689 ) ) ;
#448 = DIRECTION ( 'NONE',  ( -0.000000000000000000, 1.000000000000000000, -0.000000000000000000 ) ) ;
#449 = ORIENTED_EDGE ( 'NONE', *, *, #143, .F. ) ;
#450 = ADVANCED_FACE ( 'NONE', ( #128 ), #131, .F. ) ;
#451 = AXIS2_PLACEMENT_3D ( 'NONE', #783, #286, #282 ) ;
#452 = CARTESIAN_POINT ( 'NONE',  ( -0.5378937634682983138, 1.842553577556831579, -1.060405592013662135 ) ) ;
#453 = DIRECTION ( 'NONE',  ( 0.000000000000000000, 1.000000000000000000, 0.000000000000000000 ) ) ;
#454 = FACE_OUTER_BOUND ( 'NONE', #245, .T. ) ;
#455 = CARTESIAN_POINT ( 'NONE',  ( -0.8750000000000000000, 2.324999999999999734, -1.274999999999999911 ) ) ;
#456 = VERTEX_POINT ( 'NONE', #515 ) ;
#457 = DIRECTION ( 'NONE',  ( 0.000000000000000000, 0.000000000000000000, 1.000000000000000000 ) ) ;
#458 = CARTESIAN_POINT ( 'NONE',  ( -1.393372665847534053, 1.556114473574376822, -1.875000000000000000 ) ) ;
#459 = ADVANCED_FACE ( 'NONE', ( #518 ), #193, .F. ) ;
#460 = CARTESIAN_POINT ( 'NONE',  ( 0.7499999999999998890, 1.856114473574376866, -1.149999999999999689 ) ) ;
#461 = CARTESIAN_POINT ( 'NONE',  ( -0.8053815165405945331, 1.758746275416944282, -1.274999999999999911 ) ) ;
#462 = VECTOR ( 'NONE', #448, 39.37007874015748143 ) ;
#463 = DIRECTION ( 'NONE',  ( -0.000000000000000000, 1.000000000000000000, -0.000000000000000000 ) ) ;
#464 = CARTESIAN_POINT ( 'NONE',  ( -0.8750000000000000000, 2.324999999999999734, -1.274999999999999911 ) ) ;
#465 = ORIENTED_EDGE ( 'NONE', *, *, #493, .T. ) ;
#466 = LINE ( 'NONE', #281, #210 ) ;
#467 = FACE_OUTER_BOUND ( 'NONE', #734, .T. ) ;
#468 = DIRECTION ( 'NONE',  ( -0.000000000000000000, -1.000000000000000000, -0.000000000000000000 ) ) ;
#469 =( BOUNDED_CURVE ( )  B_SPLINE_CURVE ( 3, ( #593, #333, #584, #715 ),
 .UNSPECIFIED., .F., .F. ) 
 B_SPLINE_CURVE_WITH_KNOTS ( ( 4, 4 ),
 ( 0.005096769602042239972, 0.04335594400079179067 ),
 .UNSPECIFIED. ) 
 CURVE ( )  GEOMETRIC_REPRESENTATION_ITEM ( )  RATIONAL_B_SPLINE_CURVE ( ( 0.7528642164253599445, 0.4087781043412276882, 0.4158545278351230001, 0.7740934869070458246 ) ) 
 REPRESENTATION_ITEM ( '' )  );
#470 = ORIENTED_EDGE ( 'NONE', *, *, #513, .T. ) ;
#471 = EDGE_CURVE ( 'NONE', #606, #640, #713, .T. ) ;
#472 = CARTESIAN_POINT ( 'NONE',  ( 0.8750000000000000000, 2.324999999999999734, -1.024999999999999911 ) ) ;
#473 = CARTESIAN_POINT ( 'NONE',  ( -0.8750000000000000000, 1.556114473574376822, -1.024999999999999911 ) ) ;
#474 = PLANE ( 'NONE',  #276 ) ;
#475 = ORIENTED_EDGE ( 'NONE', *, *, #170, .F. ) ;
#476 = DIRECTION ( 'NONE',  ( 1.000000000000000000, 0.000000000000000000, 0.000000000000000000 ) ) ;
#477 = CARTESIAN_POINT ( 'NONE',  ( -0.4527559055118109410, 2.730615659659519689, -1.725741279491614932 ) ) ;
#478 = AXIS2_PLACEMENT_3D ( 'NONE', #775, #453, #441 ) ;
#479 = CARTESIAN_POINT ( 'NONE',  ( -0.8750000000000000000, 2.324999999999999734, -1.024999999999999911 ) ) ;
#480 = ORIENTED_EDGE ( 'NONE', *, *, #487, .F. ) ;
#481 = CARTESIAN_POINT ( 'NONE',  ( 0.8564253187138557433, 1.787682179647280156, -1.274999999999999911 ) ) ;
#482 = CARTESIAN_POINT ( 'NONE',  ( 0.8750000000000000000, 1.744044707604721633, -1.145056603555764330 ) ) ;
#483 = ORIENTED_EDGE ( 'NONE', *, *, #708, .F. ) ;
#484 = B_SPLINE_CURVE_WITH_KNOTS ( 'NONE', 3,
 ( #496, #428, #376, #809 ),
 .UNSPECIFIED., .F., .F.,
 ( 4, 4 ),
 ( 7.153142297204893339E-16, 0.006355373853484768201 ),
 .UNSPECIFIED. ) ;
#485 = CARTESIAN_POINT ( 'NONE',  ( 0.7499999999999998890, 1.744088828342529318, -1.024999999999999911 ) ) ;
#486 = CARTESIAN_POINT ( 'NONE',  ( -0.7499999999999998890, 1.748538790100027773, -1.274999999999999911 ) ) ;
#487 = EDGE_CURVE ( 'NONE', #167, #831, #43, .T. ) ;
#488 = ORIENTED_EDGE ( 'NONE', *, *, #442, .T. ) ;
#489 = CARTESIAN_POINT ( 'NONE',  ( 0.8370778586749300088, 1.774441867925272698, -1.274999999999999911 ) ) ;
#490 = CARTESIAN_POINT ( 'NONE',  ( 0.4527559055118111075, 1.556114473574365942, -1.024999999999999911 ) ) ;
#491 = AXIS2_PLACEMENT_3D ( 'NONE', #460, #670, #398 ) ;
#492 = EDGE_LOOP ( 'NONE', ( #480, #563, #696, #449 ) ) ;
#493 = EDGE_CURVE ( 'NONE', #185, #456, #763, .T. ) ;
#494 = CARTESIAN_POINT ( 'NONE',  ( 0.7792265694025540812, 1.747727016635867825, -1.024999999999999689 ) ) ;
#495 = B_SPLINE_CURVE_WITH_KNOTS ( 'NONE', 3,
 ( #541, #57, #748, #308, #808, #743, #489, #481, #176, #556 ),
 .UNSPECIFIED., .F., .F.,
 ( 4, 2, 2, 2, 4 ),
 ( 0.005427335262626793722, 0.006318994236427313144, 0.007210653210227831698, 0.008102312184028350253, 0.008993971157828869675 ),
 .UNSPECIFIED. ) ;
#496 = CARTESIAN_POINT ( 'NONE',  ( 0.4527559055118111075, 1.556114473574365942, -1.024999999999999911 ) ) ;
#497 = ORIENTED_EDGE ( 'NONE', *, *, #708, .T. ) ;
#498 = CARTESIAN_POINT ( 'NONE',  ( 0.5270525072590211968, 1.856114473574376866, -1.044327754843462186 ) ) ;
#499 = CARTESIAN_POINT ( 'NONE',  ( 0.8749999999999996669, 1.744468041339223729, -1.139109338970580643 ) ) ;
#500 = ORIENTED_EDGE ( 'NONE', *, *, #751, .T. ) ;
#501 = CARTESIAN_POINT ( 'NONE',  ( -0.5723599454612234849, 1.795660497521526677, -1.156629789221467419 ) ) ;
#502 = CARTESIAN_POINT ( 'NONE',  ( 0.5693554785493222248, 1.849941596944555622, -1.274999999999999467 ) ) ;
#503 = CONICAL_SURFACE ( 'NONE', #98, 0.2251968503937021304, 0.7297180710827280148 ) ;
#504 = ORIENTED_EDGE ( 'NONE', *, *, #32, .T. ) ;
#505 = VECTOR ( 'NONE', #759, 39.37007874015748143 ) ;
#506 = AXIS2_PLACEMENT_3D ( 'NONE', #570, #767, #13 ) ;
#507 = CARTESIAN_POINT ( 'NONE',  ( 0.4527559055118111075, 2.446370038179248585, -0.9852561192862693273 ) ) ;
#508 = CARTESIAN_POINT ( 'NONE',  ( -1.393372665847534053, 1.556114473574376822, -1.875000000000000000 ) ) ;
#509 = CARTESIAN_POINT ( 'NONE',  ( -0.5765173961031496708, 1.827984926904161478, -1.274999999999999467 ) ) ;
#510 = CYLINDRICAL_SURFACE ( 'NONE', #228, 0.05511811023622041616 ) ;
#511 = DIRECTION ( 'NONE',  ( 0.000000000000000000, 0.7453623825618488352, 0.6666595222913447305 ) ) ;
#512 = CARTESIAN_POINT ( 'NONE',  ( 0.8750000000000000000, 1.556114473574376822, 1.875000000000000000 ) ) ;
#513 = EDGE_CURVE ( 'NONE', #266, #598, #258, .T. ) ;
#514 = CARTESIAN_POINT ( 'NONE',  ( -0.8750000000000000000, 1.794848380924348730, -1.274999999999999911 ) ) ;
#515 = CARTESIAN_POINT ( 'NONE',  ( 0.7499999999999998890, 1.744088828342529540, -1.274999999999999911 ) ) ;
#516 = VECTOR ( 'NONE', #88, 39.37007874015748143 ) ;
#517 = CARTESIAN_POINT ( 'NONE',  ( -0.4527559055118111075, 1.540858227155627036, -0.9852561192862693273 ) ) ;
#518 = FACE_OUTER_BOUND ( 'NONE', #50, .T. ) ;
#519 = CARTESIAN_POINT ( 'NONE',  ( -0.6870304458321835339, 1.761266625318737900, -1.275000000000000577 ) ) ;
#520 = DIRECTION ( 'NONE',  ( -0.000000000000000000, -1.000000000000000000, -0.000000000000000000 ) ) ;
#521 = EDGE_CURVE ( 'NONE', #417, #433, #771, .T. ) ;
#522 = CARTESIAN_POINT ( 'NONE',  ( 0.4527559055118111075, 1.825103848635898585, -1.725741279491614710 ) ) ;
#523 = CARTESIAN_POINT ( 'NONE',  ( -0.6723207623141926881, 1.767963472220186238, -1.274999999999999911 ) ) ;
#524 = CARTESIAN_POINT ( 'NONE',  ( -0.5275035206974790780, 1.856114473574375756, -1.046774847938043429 ) ) ;
#525 = CARTESIAN_POINT ( 'NONE',  ( -0.4527559055118109410, 2.446370038179248585, -0.9852561192862693273 ) ) ;
#526 = CARTESIAN_POINT ( 'NONE',  ( -0.8559036075870338767, 1.782770994872897363, -1.024999999999999911 ) ) ;
#527 = ORIENTED_EDGE ( 'NONE', *, *, #203, .F. ) ;
#528 = CARTESIAN_POINT ( 'NONE',  ( 0.7312597451774313084, 1.745305628385168895, -1.024999999999999689 ) ) ;
#529 = CARTESIAN_POINT ( 'NONE',  ( -0.7499999999999998890, 1.686035733416895166, -1.149999999999999689 ) ) ;
#530 = FACE_OUTER_BOUND ( 'NONE', #550, .T. ) ;
#531 = ORIENTED_EDGE ( 'NONE', *, *, #203, .T. ) ;
#532 = DIRECTION ( 'NONE',  ( -0.000000000000000000, 1.000000000000000000, -0.000000000000000000 ) ) ;
#533 = DIRECTION ( 'NONE',  ( 0.000000000000000000, 0.000000000000000000, 1.000000000000000000 ) ) ;
#534 = FACE_OUTER_BOUND ( 'NONE', #232, .T. ) ;
#535 = ORIENTED_EDGE ( 'NONE', *, *, #143, .T. ) ;
#536 = CARTESIAN_POINT ( 'NONE',  ( 0.6183765375083942750, 1.807020786669206736, -1.024999999999999911 ) ) ;
#537 = DIRECTION ( 'NONE',  ( 0.000000000000000000, 0.000000000000000000, -1.000000000000000000 ) ) ;
#538 = CARTESIAN_POINT ( 'NONE',  ( 0.000000000000000000, 1.856114473574376866, -1.274999999999999911 ) ) ;
#539 = ORIENTED_EDGE ( 'NONE', *, *, #61, .T. ) ;
#540 = SHAPE_DEFINITION_REPRESENTATION ( #594, #601 ) ;
#541 = CARTESIAN_POINT ( 'NONE',  ( 0.7499999999999998890, 1.744088828342529540, -1.274999999999999911 ) ) ;
#542 = DIRECTION ( 'NONE',  ( -0.000000000000000000, 1.000000000000000000, -0.000000000000000000 ) ) ;
#543 = ORIENTED_EDGE ( 'NONE', *, *, #645, .F. ) ;
#544 = CARTESIAN_POINT ( 'NONE',  ( -0.4527559055118112186, 0.9195920376122762585, -1.725741279491614932 ) ) ;
#545 = ADVANCED_FACE ( 'NONE', ( #467 ), #726, .F. ) ;
#546 = DIRECTION ( 'NONE',  ( 0.000000000000000000, 0.000000000000000000, 1.000000000000000000 ) ) ;
#547 = ORIENTED_EDGE ( 'NONE', *, *, #773, .T. ) ;
#548 = CARTESIAN_POINT ( 'NONE',  ( 0.000000000000000000, 1.856114473574376866, -1.274999999999999911 ) ) ;
#549 = DIRECTION ( 'NONE',  ( -0.000000000000000000, 1.000000000000000000, 0.000000000000000000 ) ) ;
#550 = EDGE_LOOP ( 'NONE', ( #407, #171, #792 ) ) ;
#551 = DIRECTION ( 'NONE',  ( 0.000000000000000000, 0.000000000000000000, -1.000000000000000000 ) ) ;
#552 = CARTESIAN_POINT ( 'NONE',  ( 0.8750000000000001110, 1.787619994561158387, -1.043659476242568163 ) ) ;
#553 = AXIS2_PLACEMENT_3D ( 'NONE', #270, #90, #100 ) ;
#554 = ORIENTED_EDGE ( 'NONE', *, *, #788, .T. ) ;
#555 = EDGE_CURVE ( 'NONE', #293, #80, #18, .T. ) ;
#556 = CARTESIAN_POINT ( 'NONE',  ( 0.8750000000000000000, 1.801978050167241774, -1.274999999999999911 ) ) ;
#557 = CARTESIAN_POINT ( 'NONE',  ( -0.7499999999999998890, 1.686035733416895166, -1.094881889763779093 ) ) ;
#558 = ORIENTED_EDGE ( 'NONE', *, *, #493, .F. ) ;
#559 = ADVANCED_FACE ( 'NONE', ( #404 ), #400, .F. ) ;
#560 = ORIENTED_EDGE ( 'NONE', *, *, #521, .T. ) ;
#561 = CARTESIAN_POINT ( 'NONE',  ( -0.8750000000000001110, 1.782981780176351005, -1.255700797274359237 ) ) ;
#562 = DIRECTION ( 'NONE',  ( -0.000000000000000000, 1.000000000000000000, 0.000000000000000000 ) ) ;
#563 = ORIENTED_EDGE ( 'NONE', *, *, #817, .T. ) ;
#564 = CARTESIAN_POINT ( 'NONE',  ( -0.4527559055118112186, 0.6353464161320048209, -0.9852561192862693273 ) ) ;
#565 = DIRECTION ( 'NONE',  ( -0.000000000000000000, 1.000000000000000000, 0.000000000000000000 ) ) ;
#566 = CARTESIAN_POINT ( 'NONE',  ( -0.7178440634452063485, 1.751962244879854858, -1.274999999999999911 ) ) ;
#567 = AXIS2_PLACEMENT_3D ( 'NONE', #529, #353, #551 ) ;
#568 = CARTESIAN_POINT ( 'NONE',  ( -0.8750000000000001110, 1.758839493625916628, -1.094368992565612153 ) ) ;
#569 = ADVANCED_FACE ( 'NONE', ( #581, #268 ), #95, .F. ) ;
#570 = CARTESIAN_POINT ( 'NONE',  ( -0.7499999999999998890, 1.556114473574376822, -1.149999999999999689 ) ) ;
#571 = CARTESIAN_POINT ( 'NONE',  ( -0.8750000000000001110, 1.751142720889918403, -1.177653556061041495 ) ) ;
#572 = CARTESIAN_POINT ( 'NONE',  ( -0.4495302649395270800, 1.588673691668956112, -1.274999999999999689 ) ) ;
#573 = ADVANCED_FACE ( 'NONE', ( #595 ), #16, .T. ) ;
#574 = EDGE_LOOP ( 'NONE', ( #558, #727, #470, #543, #360, #154 ) ) ;
#575 = CARTESIAN_POINT ( 'NONE',  ( -0.4527559055118109410, 2.730615659659519689, -1.725741279491614932 ) ) ;
#576 = DIRECTION ( 'NONE',  ( 1.000000000000000000, 0.000000000000000000, -0.000000000000000000 ) ) ;
#577 = CARTESIAN_POINT ( 'NONE',  ( -0.7339404444009728357, 1.749235898124244626, -1.274999999999999911 ) ) ;
#578 = ADVANCED_FACE ( 'NONE', ( #29 ), #71, .F. ) ;
#579 = VECTOR ( 'NONE', #109, 39.37007874015748854 ) ;
#580 = CARTESIAN_POINT ( 'NONE',  ( -0.5227950665694574006, 1.856114473574376866, -1.024999999999999911 ) ) ;
#581 = FACE_BOUND ( 'NONE', #122, .T. ) ;
#582 =( NAMED_UNIT ( * ) SI_UNIT ( $, .STERADIAN. ) SOLID_ANGLE_UNIT ( ) );
#583 = ADVANCED_FACE ( 'NONE', ( #334 ), #732, .F. ) ;
#584 = CARTESIAN_POINT ( 'NONE',  ( -0.3718522748917647003, 2.498763900350417178, -1.274999999999999689 ) ) ;
#585 = CARTESIAN_POINT ( 'NONE',  ( -0.6027559055118112408, 2.761626284597999526, -1.024999999999999911 ) ) ;
#586 = CARTESIAN_POINT ( 'NONE',  ( -0.7723685893454705909, 1.749911237896662364, -1.024999999999999911 ) ) ;
#587 = ORIENTED_EDGE ( 'NONE', *, *, #724, .T. ) ;
#588 = CARTESIAN_POINT ( 'NONE',  ( 0.5762788901725105495, 1.843467868149559985, -1.025000000000000133 ) ) ;
#589 = CARTESIAN_POINT ( 'NONE',  ( 0.4527559055118111075, 1.825103848635898585, -1.725741279491614710 ) ) ;
#590 = CARTESIAN_POINT ( 'NONE',  ( 0.7499999999999998890, 1.556114473574376822, -1.205118110236220064 ) ) ;
#591 = ORIENTED_EDGE ( 'NONE', *, *, #219, .F. ) ;
#592 = VECTOR ( 'NONE', #35, 39.37007874015748143 ) ;
#593 = CARTESIAN_POINT ( 'NONE',  ( 0.5693554785493222248, 1.849941596944555622, -1.274999999999999467 ) ) ;
#594 = PRODUCT_DEFINITION_SHAPE ( 'NONE', 'NONE',  #655 ) ;
#595 = FACE_OUTER_BOUND ( 'NONE', #372, .T. ) ;
#596 = ADVANCED_FACE ( 'NONE', ( #165 ), #206, .F. ) ;
#597 = CARTESIAN_POINT ( 'NONE',  ( -0.4527559055118105524, 2.461626284597987269, -1.024999999999999911 ) ) ;
#598 = VERTEX_POINT ( 'NONE', #600 ) ;
#599 = CARTESIAN_POINT ( 'NONE',  ( 0.7407139549833474668, 1.744088828342529540, -1.025000000000000133 ) ) ;
#600 = CARTESIAN_POINT ( 'NONE',  ( 0.7499999999999998890, 1.744088828342529318, -1.024999999999999911 ) ) ;
#601 = ADVANCED_BREP_SHAPE_REPRESENTATION ( 'PistonMountBracketCap', ( #14, #439 ), #706 ) ;
#602 = CARTESIAN_POINT ( 'NONE',  ( -0.4493945400566430326, 1.556114473574376822, -1.191810560095627469 ) ) ;
#603 = ORIENTED_EDGE ( 'NONE', *, *, #751, .F. ) ;
#604 = CARTESIAN_POINT ( 'NONE',  ( 0.5626804296736629407, 1.856114473574376866, -1.024999999999999911 ) ) ;
#605 = CARTESIAN_POINT ( 'NONE',  ( 0.000000000000000000, 1.856114473574376866, -1.024999999999999911 ) ) ;
#606 = VERTEX_POINT ( 'NONE', #87 ) ;
#607 = EDGE_CURVE ( 'NONE', #239, #367, #307, .T. ) ;
#608 = CIRCLE ( 'NONE', #718, 0.05511811023622041616 ) ;
#609 = CARTESIAN_POINT ( 'NONE',  ( 0.7963146635011768559, 1.752867848414692453, -1.024999999999999911 ) ) ;
#610 = VECTOR ( 'NONE', #511, 39.37007874015748143 ) ;
#611 = CARTESIAN_POINT ( 'NONE',  ( 0.4527559055118111075, 1.556114473574365942, -1.024999999999999911 ) ) ;
#612 = ORIENTED_EDGE ( 'NONE', *, *, #724, .F. ) ;
#613 = CARTESIAN_POINT ( 'NONE',  ( 0.8750000000000000000, 1.801978050167241330, -1.024999999999999911 ) ) ;
#614 = CARTESIAN_POINT ( 'NONE',  ( 0.8750000000000002220, 1.757203801936844778, -1.093832714214433066 ) ) ;
#615 = EDGE_LOOP ( 'NONE', ( #110, #434 ) ) ;
#616 = CARTESIAN_POINT ( 'NONE',  ( 0.5608513392265558339, 1.816974541324216652, -1.128913476449311171 ) ) ;
#617 = ADVANCED_FACE ( 'NONE', ( #330 ), #752, .T. ) ;
#618 = CARTESIAN_POINT ( 'NONE',  ( 0.8750000000000000000, 1.757812391251549089, -1.207439385820207933 ) ) ;
#619 = ORIENTED_EDGE ( 'NONE', *, *, #52, .T. ) ;
#620 =( NAMED_UNIT ( * ) SI_UNIT ( $, .STERADIAN. ) SOLID_ANGLE_UNIT ( ) );
#621 = CARTESIAN_POINT ( 'NONE',  ( 0.8372886786967757011, 1.774580815072433815, -1.024999999999999689 ) ) ;
#622 = CARTESIAN_POINT ( 'NONE',  ( -0.8750000000000000000, 1.794848380924348508, -1.024999999999999911 ) ) ;
#623 = AXIS2_PLACEMENT_3D ( 'NONE', #254, #393, #709 ) ;
#624 = ORIENTED_EDGE ( 'NONE', *, *, #350, .F. ) ;
#625 = ORIENTED_EDGE ( 'NONE', *, *, #740, .T. ) ;
#626 = CARTESIAN_POINT ( 'NONE',  ( -0.8749999999999997780, 1.755188072380019726, -1.104964838521558246 ) ) ;
#627 = CARTESIAN_POINT ( 'NONE',  ( -0.7499999999999998890, 1.117925497196424089, -1.094881889763779093 ) ) ;
#628 = ORIENTED_EDGE ( 'NONE', *, *, #350, .T. ) ;
#629 = CARTESIAN_POINT ( 'NONE',  ( -0.4527559055118111075, 1.825103848635898585, -1.725741279491614710 ) ) ;
#630 = DIRECTION ( 'NONE',  ( 8.164224500951987128E-17, 0.7453623825618488352, -0.6666595222913447305 ) ) ;
#631 = B_SPLINE_CURVE_WITH_KNOTS ( 'NONE', 3,
 ( #710, #129, #577, #566, #269, #519, #523, #646, #197, #4, #255, #509 ),
 .UNSPECIFIED., .F., .F.,
 ( 4, 2, 2, 2, 2, 4 ),
 ( 0.003410871089120573983, 0.004018711554478443526, 0.004626552019836313936, 0.005842232950552063431, 0.007057913881267812925, 0.008273594811983567623 ),
 .UNSPECIFIED. ) ;
#632 = EDGE_CURVE ( 'NONE', #433, #300, #359, .T. ) ;
#633 = CARTESIAN_POINT ( 'NONE',  ( 0.4527559055118111075, 1.825103848635898585, -1.725741279491614710 ) ) ;
#634 = CARTESIAN_POINT ( 'NONE',  ( 0.6231250215074867205, 1.803206858396662060, -1.274999999999999911 ) ) ;
#635 = CIRCLE ( 'NONE', #747, 0.05511811023622041616 ) ;
#636 = DIRECTION ( 'NONE',  ( 0.000000000000000000, 1.000000000000000000, 0.000000000000000000 ) ) ;
#637 = VECTOR ( 'NONE', #457, 39.37007874015748143 ) ;
#638 = CARTESIAN_POINT ( 'NONE',  ( -0.5772783039017439499, 1.798677911049032963, -1.205193503235971519 ) ) ;
#639 = CARTESIAN_POINT ( 'NONE',  ( 0.6371586297235473095, 1.792168839879026310, -1.274999999999999911 ) ) ;
#640 = VERTEX_POINT ( 'NONE', #604 ) ;
#641 = APPLICATION_CONTEXT ( 'automotive_design' ) ;
#642 = CARTESIAN_POINT ( 'NONE',  ( -0.5780973188388957018, 1.807950610523886059, -1.236494140888425353 ) ) ;
#643 = PRODUCT_RELATED_PRODUCT_CATEGORY ( 'part', '', ( #413 ) ) ;
#644 = CARTESIAN_POINT ( 'NONE',  ( 0.7321089148491322085, 1.745196128235402488, -1.275000000000000133 ) ) ;
#645 = EDGE_CURVE ( 'NONE', #665, #598, #121, .T. ) ;
#646 = CARTESIAN_POINT ( 'NONE',  ( -0.6436901258138577608, 1.783141990934936416, -1.274999999999999911 ) ) ;
#647 = CARTESIAN_POINT ( 'NONE',  ( -0.6548273453335585748, 1.776789663637898142, -1.024999999999999689 ) ) ;
#648 = CARTESIAN_POINT ( 'NONE',  ( 0.7063163570764220411, 1.752134244318942047, -1.274999999999999911 ) ) ;
#649 = EDGE_CURVE ( 'NONE', #606, #798, #81, .T. ) ;
#650 = STYLED_ITEM ( 'NONE', ( #144 ), #14 ) ;
#651 = CARTESIAN_POINT ( 'NONE',  ( -0.7947435000086804369, 1.755095744350452014, -1.274999999999999689 ) ) ;
#652 = CARTESIAN_POINT ( 'NONE',  ( 0.7499999999999998890, 1.856114473574376866, -1.149999999999999689 ) ) ;
#653 = B_SPLINE_CURVE_WITH_KNOTS ( 'NONE', 3,
 ( #298, #682, #113, #361, #364, #616, #51, #302, #135, #375, #700, #264, #703, #312, #316, #774, #127, #829 ),
 .UNSPECIFIED., .F., .F.,
 ( 4, 2, 2, 2, 2, 2, 2, 2, 4 ),
 ( 8.498374721940738929E-18, 0.0007146238178334497846, 0.001429247635666891112, 0.002143871453500332657, 0.002858495271333773985, 0.003215807180250494432, 0.003573119089167215313, 0.004287742907000661845, 0.005716990542667547102 ),
 .UNSPECIFIED. ) ;
#654 = DIRECTION ( 'NONE',  ( -1.000000000000000000, -0.000000000000000000, 0.000000000000000000 ) ) ;
#655 = PRODUCT_DEFINITION ( 'UNKNOWN', '', #201, #338 ) ;
#656 = ORIENTED_EDGE ( 'NONE', *, *, #699, .T. ) ;
#657 = CARTESIAN_POINT ( 'NONE',  ( 0.6629795583630621048, 1.774118751743658073, -1.024999999999999689 ) ) ;
#658 = DIRECTION ( 'NONE',  ( -0.000000000000000000, 1.000000000000000000, 0.000000000000000000 ) ) ;
#659 = DIRECTION ( 'NONE',  ( -0.000000000000000000, -1.000000000000000000, -0.000000000000000000 ) ) ;
#660 = ORIENTED_EDGE ( 'NONE', *, *, #48, .T. ) ;
#661 = EDGE_CURVE ( 'NONE', #456, #188, #495, .T. ) ;
#662 = DIRECTION ( 'NONE',  ( -0.000000000000000000, 1.000000000000000000, -0.000000000000000000 ) ) ;
#663 = EDGE_LOOP ( 'NONE', ( #156, #33, #619 ) ) ;
#664 = LINE ( 'NONE', #717, #292 ) ;
#665 = VERTEX_POINT ( 'NONE', #739 ) ;
#666 = CIRCLE ( 'NONE', #411, 0.6027559055118111297 ) ;
#667 = CARTESIAN_POINT ( 'NONE',  ( -0.7499999999999998890, 1.748538790100027773, -1.274999999999999911 ) ) ;
#668 = AXIS2_PLACEMENT_3D ( 'NONE', #780, #2, #381 ) ;
#669 = CARTESIAN_POINT ( 'NONE',  ( -0.4527559055118111075, 1.540858227155627036, -0.9852561192862693273 ) ) ;
#670 = DIRECTION ( 'NONE',  ( 0.000000000000000000, -1.000000000000000000, 0.000000000000000000 ) ) ;
#671 = ORIENTED_EDGE ( 'NONE', *, *, #315, .T. ) ;
#672 = APPLICATION_PROTOCOL_DEFINITION ( 'draft international standard', 'automotive_design', 1998, #641 ) ;
#673 = PLANE ( 'NONE',  #190 ) ;
#674 = DIRECTION ( 'NONE',  ( -0.000000000000000000, -1.000000000000000000, -0.000000000000000000 ) ) ;
#675 = ADVANCED_FACE ( 'NONE', ( #825 ), #133, .T. ) ;
#676 = ORIENTED_EDGE ( 'NONE', *, *, #699, .F. ) ;
#677 = CARTESIAN_POINT ( 'NONE',  ( 0.4527559055118111075, 2.730615659659519689, -1.725741279491614932 ) ) ;
#678 = CARTESIAN_POINT ( 'NONE',  ( 0.7499999999999998890, 1.665956993259415153, -1.149999999999999689 ) ) ;
#679 = VERTEX_POINT ( 'NONE', #811 ) ;
#680 = ADVANCED_FACE ( 'NONE', ( #758 ), #673, .F. ) ;
#681 = MECHANICAL_DESIGN_GEOMETRIC_PRESENTATION_REPRESENTATION (  '', ( #650 ), #705 ) ;
#682 = CARTESIAN_POINT ( 'NONE',  ( 0.5393950532369914397, 1.849632049698012315, -1.088392361878679937 ) ) ;
#683 = DIRECTION ( 'NONE',  ( -0.000000000000000000, 1.000000000000000000, -0.000000000000000000 ) ) ;
#684 = ORIENTED_EDGE ( 'NONE', *, *, #427, .T. ) ;
#685 = ORIENTED_EDGE ( 'NONE', *, *, #513, .F. ) ;
#686 = CARTESIAN_POINT ( 'NONE',  ( -0.7499999999999998890, 1.686035733416895166, -1.094881889763779093 ) ) ;
#687 = DIRECTION ( 'NONE',  ( 1.000000000000000000, 0.000000000000000000, 0.000000000000000000 ) ) ;
#688 = ORIENTED_EDGE ( 'NONE', *, *, #240, .F. ) ;
#689 = CARTESIAN_POINT ( 'NONE',  ( 0.4527559055118111075, 1.825103848635898585, -1.725741279491614710 ) ) ;
#690 = APPLICATION_CONTEXT ( 'automotive_design' ) ;
#691 = CARTESIAN_POINT ( 'NONE',  ( 0.8750000000000000000, 1.801978050167241774, -1.274999999999999911 ) ) ;
#692 = VERTEX_POINT ( 'NONE', #422 ) ;
#693 = CARTESIAN_POINT ( 'NONE',  ( -0.5765173961031496708, 1.827984926904161478, -1.274999999999999467 ) ) ;
#694 = CARTESIAN_POINT ( 'NONE',  ( 0.8750000000000000000, 1.794668488493520675, -1.034245767084303491 ) ) ;
#695 = VECTOR ( 'NONE', #150, 39.37007874015748143 ) ;
#696 = ORIENTED_EDGE ( 'NONE', *, *, #289, .T. ) ;
#697 = CARTESIAN_POINT ( 'NONE',  ( 0.5957948431157269464, 1.826039097921400289, -1.274999999999999911 ) ) ;
#698 = FILL_AREA_STYLE_COLOUR ( '', #241 ) ;
#699 = EDGE_CURVE ( 'NONE', #300, #750, #172, .T. ) ;
#700 = CARTESIAN_POINT ( 'NONE',  ( 0.5720569267416636405, 1.806529472875514797, -1.182613036043065557 ) ) ;
#701 = CARTESIAN_POINT ( 'NONE',  ( 0.7499999999999998890, 1.556114473574376822, -1.149999999999999689 ) ) ;
#702 = CARTESIAN_POINT ( 'NONE',  ( 0.4527559055118110520, 1.652080482333220246, -1.274999999999999911 ) ) ;
#703 = CARTESIAN_POINT ( 'NONE',  ( 0.5730561610754217883, 1.808830717639585473, -1.196526886514099886 ) ) ;
#704 = DIRECTION ( 'NONE',  ( 0.000000000000000000, 0.000000000000000000, 1.000000000000000000 ) ) ;
#705 =( GEOMETRIC_REPRESENTATION_CONTEXT ( 3 ) GLOBAL_UNCERTAINTY_ASSIGNED_CONTEXT ( ( #236 ) ) GLOBAL_UNIT_ASSIGNED_CONTEXT ( ( #332, #328, #582 ) ) REPRESENTATION_CONTEXT ( 'NONE', 'WORKASPACE' ) );
#706 =( GEOMETRIC_REPRESENTATION_CONTEXT ( 3 ) GLOBAL_UNCERTAINTY_ASSIGNED_CONTEXT ( ( #368 ) ) GLOBAL_UNIT_ASSIGNED_CONTEXT ( ( #107, #803, #620 ) ) REPRESENTATION_CONTEXT ( 'NONE', 'WORKASPACE' ) );
#707 = CARTESIAN_POINT ( 'NONE',  ( -0.5275035206974790780, 1.856114473574375756, -1.046774847938043429 ) ) ;
#708 = EDGE_CURVE ( 'NONE', #798, #60, #653, .T. ) ;
#709 = DIRECTION ( 'NONE',  ( 0.000000000000000000, 0.000000000000000000, -1.000000000000000000 ) ) ;
#710 = CARTESIAN_POINT ( 'NONE',  ( -0.7499999999999998890, 1.748538790100027773, -1.274999999999999911 ) ) ;
#711 = CARTESIAN_POINT ( 'NONE',  ( -0.7399468607076464810, 1.748810585828639130, -1.024999999999999911 ) ) ;
#712 = EDGE_CURVE ( 'NONE', #352, #184, #159, .T. ) ;
#713 = LINE ( 'NONE', #196, #793 ) ;
#714 = SURFACE_STYLE_FILL_AREA ( #68 ) ;
#715 = CARTESIAN_POINT ( 'NONE',  ( -0.5765173961031496708, 1.827984926904161478, -1.274999999999999467 ) ) ;
#716 = DIRECTION ( 'NONE',  ( -1.000000000000000000, 0.000000000000000000, -0.000000000000000000 ) ) ;
#717 = CARTESIAN_POINT ( 'NONE',  ( 0.8750000000000000000, 2.324999999999999734, -1.274999999999999911 ) ) ;
#718 = AXIS2_PLACEMENT_3D ( 'NONE', #234, #549, #822 ) ;
#719 = AXIS2_PLACEMENT_3D ( 'NONE', #458, #658, #786 ) ;
#720 = CARTESIAN_POINT ( 'NONE',  ( -0.7449767911517981567, 1.748538790100027107, -1.024999999999999689 ) ) ;
#721 = CARTESIAN_POINT ( 'NONE',  ( 0.6027559055118111297, 2.761626284597999526, -1.024999999999999911 ) ) ;
#722 = CARTESIAN_POINT ( 'NONE',  ( -0.5389665540246492137, 1.856114473574376866, -1.024999999999999911 ) ) ;
#723 = EDGE_LOOP ( 'NONE', ( #801, #587, #729, #40, #757, #497 ) ) ;
#724 = EDGE_CURVE ( 'NONE', #679, #218, #377, .T. ) ;
#725 = CARTESIAN_POINT ( 'NONE',  ( -0.8363960477558795015, 1.771655209522502661, -1.274999999999999689 ) ) ;
#726 = PLANE ( 'NONE',  #58 ) ;
#727 = ORIENTED_EDGE ( 'NONE', *, *, #379, .F. ) ;
#728 = DIRECTION ( 'NONE',  ( -1.000000000000000000, 0.000000000000000000, 0.000000000000000000 ) ) ;
#729 = ORIENTED_EDGE ( 'NONE', *, *, #762, .T. ) ;
#730 = ADVANCED_FACE ( 'NONE', ( #440 ), #214, .T. ) ;
#731 = CARTESIAN_POINT ( 'NONE',  ( -0.8750000000000000000, 1.794848380924348730, -1.274999999999999911 ) ) ;
#732 = CYLINDRICAL_SURFACE ( 'NONE', #451, 0.05511811023622041616 ) ;
#733 = CARTESIAN_POINT ( 'NONE',  ( -0.5275035206974790780, 1.856114473574375756, -1.046774847938043429 ) ) ;
#734 = EDGE_LOOP ( 'NONE', ( #823, #426, #531, #781, #603, #827, #547, #738, #251, #475, #363, #106 ) ) ;
#735 = DIRECTION ( 'NONE',  ( 1.000000000000000000, 0.000000000000000000, 0.000000000000000000 ) ) ;
#736 = ADVANCED_FACE ( 'NONE', ( #319 ), #510, .F. ) ;
#737 = CARTESIAN_POINT ( 'NONE',  ( 0.4424685696619789499, 1.556114473574376822, -1.274999999999999911 ) ) ;
#738 = ORIENTED_EDGE ( 'NONE', *, *, #471, .F. ) ;
#739 = CARTESIAN_POINT ( 'NONE',  ( 0.8750000000000000000, 1.801978050167241330, -1.024999999999999911 ) ) ;
#740 = EDGE_CURVE ( 'NONE', #184, #336, #787, .T. ) ;
#741 = CARTESIAN_POINT ( 'NONE',  ( 0.8749999999999997780, 1.774370730334531299, -1.063032226070324882 ) ) ;
#742 = ORIENTED_EDGE ( 'NONE', *, *, #61, .F. ) ;
#743 = CARTESIAN_POINT ( 'NONE',  ( 0.8271412869328816919, 1.768245367793825906, -1.274999999999999911 ) ) ;
#744 = CARTESIAN_POINT ( 'NONE',  ( -0.4527559055118111075, 1.652080482333220468, -1.275000000000000577 ) ) ;
#745 = EDGE_LOOP ( 'NONE', ( #284, #539, #688, #54 ) ) ;
#746 = B_SPLINE_CURVE_WITH_KNOTS ( 'NONE', 3,
 ( #524, #392, #342, #580 ),
 .UNSPECIFIED., .F., .F.,
 ( 4, 4 ),
 ( 0.005883797494187157848, 0.006449268062925695225 ),
 .UNSPECIFIED. ) ;
#747 = AXIS2_PLACEMENT_3D ( 'NONE', #678, #542, #114 ) ;
#748 = CARTESIAN_POINT ( 'NONE',  ( 0.7732380982480837606, 1.745961138692503356, -1.274999999999999911 ) ) ;
#749 = CARTESIAN_POINT ( 'NONE',  ( 0.4527559055118110520, 1.652080482333220246, -1.274999999999999911 ) ) ;
#750 = VERTEX_POINT ( 'NONE', #148 ) ;
#751 = EDGE_CURVE ( 'NONE', #665, #80, #205, .T. ) ;
#752 =( BOUNDED_SURFACE ( )  B_SPLINE_SURFACE ( 3, 1, ( 
 ( #275, #397 ),
 ( #585, #21 ),
 ( #721, #149 ),
 ( #339, #25 ) ),
 .UNSPECIFIED., .F., .F., .F. ) 
 B_SPLINE_SURFACE_WITH_KNOTS ( ( 4, 4 ),
 ( 2, 2 ),
 ( 0.000000000000000000, 1.000000000000000000 ),
 ( 0.000000000000000000, 1.000000000000000000 ),
 .UNSPECIFIED. ) 
 GEOMETRIC_REPRESENTATION_ITEM ( )  RATIONAL_B_SPLINE_SURFACE ( (
 ( 1.000000000000000000, 1.000000000000000000),
 ( 0.3333333333333333703, 0.3333333333333333703),
 ( 0.3333333333333333703, 0.3333333333333333703),
 ( 1.000000000000000000, 1.000000000000000000) ) ) 
 REPRESENTATION_ITEM ( '' )  SURFACE ( )  );
#753 = EDGE_LOOP ( 'NONE', ( #140, #560, #438, #311 ) ) ;
#754 = CARTESIAN_POINT ( 'NONE',  ( 0.4527559055118111075, 2.446370038179248585, -0.9852561192862693273 ) ) ;
#755 = CARTESIAN_POINT ( 'NONE',  ( -0.7499999999999998890, 1.686035733416895166, -1.205118110236220064 ) ) ;
#756 = ORIENTED_EDGE ( 'NONE', *, *, #427, .F. ) ;
#757 = ORIENTED_EDGE ( 'NONE', *, *, #649, .T. ) ;
#758 = FACE_OUTER_BOUND ( 'NONE', #27, .T. ) ;
#759 = DIRECTION ( 'NONE',  ( 1.000000000000000000, 0.000000000000000000, 0.000000000000000000 ) ) ;
#760 = ORIENTED_EDGE ( 'NONE', *, *, #649, .F. ) ;
#761 = CARTESIAN_POINT ( 'NONE',  ( -0.8750000000000001110, 1.788790983765920162, -1.265422229392535014 ) ) ;
#762 = EDGE_CURVE ( 'NONE', #218, #204, #746, .T. ) ;
#763 = LINE ( 'NONE', #191, #306 ) ;
#764 = AXIS2_PLACEMENT_3D ( 'NONE', #345, #728, #155 ) ;
#765 = ORIENTED_EDGE ( 'NONE', *, *, #120, .T. ) ;
#766 = CARTESIAN_POINT ( 'NONE',  ( -0.5580105028851262139, 1.813673778698345673, -1.101755597832102085 ) ) ;
#767 = DIRECTION ( 'NONE',  ( 0.000000000000000000, -1.000000000000000000, -0.000000000000000000 ) ) ;
#768 = EDGE_CURVE ( 'NONE', #218, #89, #821, .T. ) ;
#769 = LENGTH_MEASURE_WITH_UNIT ( LENGTH_MEASURE( 0.02539999999999999897 ), #777 );
#770 = CARTESIAN_POINT ( 'NONE',  ( -0.8750000000000003331, 1.749992379656372110, -1.127124895188379661 ) ) ;
#771 = LINE ( 'NONE', #317, #462 ) ;
#772 = CARTESIAN_POINT ( 'NONE',  ( 0.4495302649395271355, 1.588673691668956112, -1.274999999999999689 ) ) ;
#773 = EDGE_CURVE ( 'NONE', #598, #640, #256, .T. ) ;
#774 = CARTESIAN_POINT ( 'NONE',  ( 0.5727200192158349301, 1.828258608521020179, -1.244442177457905752 ) ) ;
#775 = CARTESIAN_POINT ( 'NONE',  ( -0.7499999999999998890, 1.686035733416895166, -1.149999999999999689 ) ) ;
#776 = CIRCLE ( 'NONE', #491, 0.2251968503937021304 ) ;
#777 =( LENGTH_UNIT ( ) NAMED_UNIT ( * ) SI_UNIT ( $, .METRE. ) );
#778 = CIRCLE ( 'NONE', #478, 0.05511811023622041616 ) ;
#779 = CARTESIAN_POINT ( 'NONE',  ( -0.8750000000000001110, 1.754937533152396423, -1.194196755531631515 ) ) ;
#780 = CARTESIAN_POINT ( 'NONE',  ( -0.8750000000000000000, 0.1250000000000000000, 1.875000000000000444 ) ) ;
#781 = ORIENTED_EDGE ( 'NONE', *, *, #555, .T. ) ;
#782 = CARTESIAN_POINT ( 'NONE',  ( -0.7098889777832513293, 1.753835486976993430, -1.024999999999999911 ) ) ;
#783 = CARTESIAN_POINT ( 'NONE',  ( 0.7499999999999998890, 1.117925497196424089, -1.149999999999999689 ) ) ;
#784 = CARTESIAN_POINT ( 'NONE',  ( -0.8750000000000000000, 1.556114473574376822, -1.274999999999999911 ) ) ;
#785 = CARTESIAN_POINT ( 'NONE',  ( 0.7044041234232047977, 1.752835926312592107, -1.024999999999999689 ) ) ;
#786 = DIRECTION ( 'NONE',  ( 0.000000000000000000, -0.000000000000000000, 1.000000000000000000 ) ) ;
#787 = B_SPLINE_CURVE_WITH_KNOTS ( 'NONE', 3,
 ( #731, #20, #725, #461, #651, #157, #795, #667 ),
 .UNSPECIFIED., .F., .F.,
 ( 4, 2, 2, 4 ),
 ( 0.000000000000000000, 0.001705435544560287642, 0.002558153316840430704, 0.003410871089120573983 ),
 .UNSPECIFIED. ) ;
#788 = EDGE_CURVE ( 'NONE', #279, #223, #28, .T. ) ;
#789 = CARTESIAN_POINT ( 'NONE',  ( -0.8750000000000000000, 1.794848380924348730, -1.274999999999999911 ) ) ;
#790 = VECTOR ( 'NONE', #674, 39.37007874015748143 ) ;
#791 = B_SPLINE_CURVE_WITH_KNOTS ( 'NONE', 3,
 ( #161, #602, #92, #272 ),
 .UNSPECIFIED., .F., .F.,
 ( 4, 4 ),
 ( 1.387778780781445676E-17, 0.006355373853485483775 ),
 .UNSPECIFIED. ) ;
#792 = ORIENTED_EDGE ( 'NONE', *, *, #170, .T. ) ;
#793 = VECTOR ( 'NONE', #262, 39.37007874015748143 ) ;
#794 =( BOUNDED_CURVE ( )  B_SPLINE_CURVE ( 3, ( #291, #597, #406, #211 ),
 .UNSPECIFIED., .F., .T. ) 
 B_SPLINE_CURVE_WITH_KNOTS ( ( 4, 4 ),
 ( 0.03595425894006805401, 0.07190040422978691281 ),
 .UNSPECIFIED. ) 
 CURVE ( )  GEOMETRIC_REPRESENTATION_ITEM ( )  RATIONAL_B_SPLINE_CURVE ( ( 0.9999999999999996669, 0.3333333333333333703, 0.3333333333333336479, 1.000000000000000000 ) ) 
 REPRESENTATION_ITEM ( '' )  );
#795 = CARTESIAN_POINT ( 'NONE',  ( -0.7612450623715827369, 1.748538790100027107, -1.274999999999999689 ) ) ;
#796 = CARTESIAN_POINT ( 'NONE',  ( 0.4527559055118111075, 2.446370038179248585, -0.9852561192862693273 ) ) ;
#797 = LINE ( 'NONE', #216, #344 ) ;
#798 = VERTEX_POINT ( 'NONE', #408 ) ;
#799 =( LENGTH_UNIT ( ) NAMED_UNIT ( * ) SI_UNIT ( $, .METRE. ) );
#800 = CARTESIAN_POINT ( 'NONE',  ( 0.4527559055118111075, 1.540858227155627036, -0.9852561192862693273 ) ) ;
#801 = ORIENTED_EDGE ( 'NONE', *, *, #802, .T. ) ;
#802 = EDGE_CURVE ( 'NONE', #60, #679, #469, .T. ) ;
#803 =( NAMED_UNIT ( * ) PLANE_ANGLE_UNIT ( ) SI_UNIT ( $, .RADIAN. ) );
#804 = CARTESIAN_POINT ( 'NONE',  ( 0.4527559055118111075, 2.730615659659519689, -1.725741279491614932 ) ) ;
#805 = LINE ( 'NONE', #464, #790 ) ;
#806 = ORIENTED_EDGE ( 'NONE', *, *, #134, .F. ) ;
#807 = VECTOR ( 'NONE', #735, 39.37007874015748143 ) ;
#808 = CARTESIAN_POINT ( 'NONE',  ( 0.8065409227638736800, 1.757384553400177740, -1.274999999999999911 ) ) ;
#809 = CARTESIAN_POINT ( 'NONE',  ( 0.4424685696619789499, 1.556114473574376822, -1.274999999999999911 ) ) ;
#810 = ORIENTED_EDGE ( 'NONE', *, *, #442, .F. ) ;
#811 = CARTESIAN_POINT ( 'NONE',  ( -0.5765173961031496708, 1.827984926904161478, -1.274999999999999467 ) ) ;
#812 = DIRECTION ( 'NONE',  ( 0.000000000000000000, 0.000000000000000000, 1.000000000000000000 ) ) ;
#813 = ORIENTED_EDGE ( 'NONE', *, *, #120, .F. ) ;
#814 =( BOUNDED_CURVE ( )  B_SPLINE_CURVE ( 3, ( #702, #386, #772, #737 ),
 .UNSPECIFIED., .F., .T. ) 
 B_SPLINE_CURVE_WITH_KNOTS ( ( 4, 4 ),
 ( 0.000000000000000000, 0.002446807622956213152 ),
 .UNSPECIFIED. ) 
 CURVE ( )  GEOMETRIC_REPRESENTATION_ITEM ( )  RATIONAL_B_SPLINE_CURVE ( ( 1.000000000000000000, 0.9354540421748939183, 0.8771573553571283544, 0.8251099395467034192 ) ) 
 REPRESENTATION_ITEM ( '' )  );
#815 = CARTESIAN_POINT ( 'NONE',  ( 0.7617580288555321211, 1.744557702090578255, -1.024999999999999911 ) ) ;
#816 = DIRECTION ( 'NONE',  ( -0.000000000000000000, 1.000000000000000000, -0.000000000000000000 ) ) ;
#817 = EDGE_CURVE ( 'NONE', #167, #185, #466, .T. ) ;
#818 = EDGE_LOOP ( 'NONE', ( #321, #414, #656, #174, #23, #612, #132 ) ) ;
#819 = ORIENTED_EDGE ( 'NONE', *, *, #379, .T. ) ;
#820 = DIRECTION ( 'NONE',  ( 0.000000000000000000, 0.6666595222913440644, 0.7453623825618493903 ) ) ;
#821 = CIRCLE ( 'NONE', #553, 0.2452755905511823098 ) ;
#822 = DIRECTION ( 'NONE',  ( 0.000000000000000000, 0.000000000000000000, 1.000000000000000000 ) ) ;
#823 = ORIENTED_EDGE ( 'NONE', *, *, #219, .T. ) ;
#824 = EDGE_CURVE ( 'NONE', #89, #750, #38, .T. ) ;
#825 = FACE_OUTER_BOUND ( 'NONE', #351, .T. ) ;
#826 = FACE_BOUND ( 'NONE', #615, .T. ) ;
#827 = ORIENTED_EDGE ( 'NONE', *, *, #645, .T. ) ;
#828 = ORIENTED_EDGE ( 'NONE', *, *, #410, .T. ) ;
#829 = CARTESIAN_POINT ( 'NONE',  ( 0.5693554785493222248, 1.849941596944555622, -1.274999999999999467 ) ) ;
#830 = DIRECTION ( 'NONE',  ( 0.000000000000000000, 0.000000000000000000, 1.000000000000000000 ) ) ;
#831 = VERTEX_POINT ( 'NONE', #399 ) ;
ENDSEC;
END-ISO-10303-21;
