ISO-10303-21;
HEADER;
FILE_DESCRIPTION (( 'STEP AP214' ),
    '1' );
FILE_NAME ('MotorSpacers.STEP',
    '2026-03-11T06:06:43',
    ( '' ),
    ( '' ),
    'SwSTEP 2.0',
    'SolidWorks 2025',
    '' );
FILE_SCHEMA (( 'AUTOMOTIVE_DESIGN' ));
ENDSEC;

DATA;
#1 = PRESENTATION_STYLE_ASSIGNMENT (( #189 ) ) ;
#2 = ADVANCED_BREP_SHAPE_REPRESENTATION ( 'MotorSpacers', ( #106, #84 ), #171 ) ;
#3 = DIRECTION ( 'NONE',  ( -0.000000000000000000, -1.000000000000000000, -0.000000000000000000 ) ) ;
#4 = EDGE_CURVE ( 'NONE', #200, #98, #89, .T. ) ;
#5 = EDGE_LOOP ( 'NONE', ( #96, #164 ) ) ;
#6 = MECHANICAL_DESIGN_GEOMETRIC_PRESENTATION_REPRESENTATION (  '', ( #60 ), #110 ) ;
#7 = PRODUCT ( 'MotorSpacers', 'MotorSpacers', '', ( #41 ) ) ;
#8 = EDGE_LOOP ( 'NONE', ( #10, #181 ) ) ;
#9 = FACE_BOUND ( 'NONE', #8, .T. ) ;
#10 = ORIENTED_EDGE ( 'NONE', *, *, #50, .T. ) ;
#11 = ORIENTED_EDGE ( 'NONE', *, *, #126, .F. ) ;
#12 = EDGE_CURVE ( 'NONE', #98, #143, #13, .T. ) ;
#13 = CIRCLE ( 'NONE', #204, 0.05999999999999999778 ) ;
#14 = CARTESIAN_POINT ( 'NONE',  ( 1.530808498934191509E-17, 0.2500000000000000000, 0.1250000000000000000 ) ) ;
#15 = DIRECTION ( 'NONE',  ( 0.000000000000000000, 0.000000000000000000, -1.000000000000000000 ) ) ;
#16 = ADVANCED_FACE ( 'NONE', ( #75, #63 ), #29, .T. ) ;
#17 = AXIS2_PLACEMENT_3D ( 'NONE', #32, #172, #49 ) ;
#18 = FACE_OUTER_BOUND ( 'NONE', #177, .T. ) ;
#19 = DIRECTION ( 'NONE',  ( -0.000000000000000000, -1.000000000000000000, -0.000000000000000000 ) ) ;
#20 = EDGE_CURVE ( 'NONE', #42, #45, #124, .T. ) ;
#21 = AXIS2_PLACEMENT_3D ( 'NONE', #165, #40, #27 ) ;
#22 = ORIENTED_EDGE ( 'NONE', *, *, #145, .T. ) ;
#23 = CARTESIAN_POINT ( 'NONE',  ( 0.000000000000000000, 0.2500000000000000000, 0.000000000000000000 ) ) ;
#24 = ORIENTED_EDGE ( 'NONE', *, *, #205, .T. ) ;
#25 = CIRCLE ( 'NONE', #135, 0.1250000000000000000 ) ;
#26 = ORIENTED_EDGE ( 'NONE', *, *, #20, .T. ) ;
#27 = DIRECTION ( 'NONE',  ( 0.000000000000000000, -0.000000000000000000, 1.000000000000000000 ) ) ;
#28 = SHAPE_DEFINITION_REPRESENTATION ( #112, #2 ) ;
#29 = PLANE ( 'NONE',  #21 ) ;
#30 = DIRECTION ( 'NONE',  ( 0.000000000000000000, 1.000000000000000000, 0.000000000000000000 ) ) ;
#31 = EDGE_LOOP ( 'NONE', ( #114, #117, #57, #150 ) ) ;
#32 = CARTESIAN_POINT ( 'NONE',  ( 0.000000000000000000, 0.2500000000000000000, 0.000000000000000000 ) ) ;
#33 = DIRECTION ( 'NONE',  ( 0.000000000000000000, 0.000000000000000000, 1.000000000000000000 ) ) ;
#34 = FACE_OUTER_BOUND ( 'NONE', #149, .T. ) ;
#35 = AXIS2_PLACEMENT_3D ( 'NONE', #39, #73, #72 ) ;
#36 = ADVANCED_FACE ( 'NONE', ( #136, #9 ), #61, .F. ) ;
#37 =( NAMED_UNIT ( * ) PLANE_ANGLE_UNIT ( ) SI_UNIT ( $, .RADIAN. ) );
#38 = COLOUR_RGB ( '',0.7921568627450980005, 0.8196078431372548767, 0.9333333333333333481 ) ;
#39 = CARTESIAN_POINT ( 'NONE',  ( 0.000000000000000000, 0.000000000000000000, 0.000000000000000000 ) ) ;
#40 = DIRECTION ( 'NONE',  ( 0.000000000000000000, 1.000000000000000000, 0.000000000000000000 ) ) ;
#41 = PRODUCT_CONTEXT ( 'NONE', #156, 'mechanical' ) ;
#42 = VERTEX_POINT ( 'NONE', #152 ) ;
#43 = CIRCLE ( 'NONE', #83, 0.1250000000000000000 ) ;
#44 = EDGE_CURVE ( 'NONE', #45, #42, #79, .T. ) ;
#45 = VERTEX_POINT ( 'NONE', #14 ) ;
#46 = CARTESIAN_POINT ( 'NONE',  ( 7.347880794884118380E-18, 0.2500000000000000000, 0.05999999999999999778 ) ) ;
#47 = CARTESIAN_POINT ( 'NONE',  ( 0.000000000000000000, 0.2500000000000000000, -0.1250000000000000000 ) ) ;
#48 = LENGTH_MEASURE_WITH_UNIT ( LENGTH_MEASURE( 0.02539999999999999897 ), #140 );
#49 = DIRECTION ( 'NONE',  ( 0.000000000000000000, 0.000000000000000000, -1.000000000000000000 ) ) ;
#50 = EDGE_CURVE ( 'NONE', #143, #98, #65, .T. ) ;
#51 = CIRCLE ( 'NONE', #162, 0.05999999999999999778 ) ;
#52 = CARTESIAN_POINT ( 'NONE',  ( 0.000000000000000000, 0.000000000000000000, 0.000000000000000000 ) ) ;
#53 = AXIS2_PLACEMENT_3D ( 'NONE', #102, #166, #103 ) ;
#54 = APPLICATION_PROTOCOL_DEFINITION ( 'draft international standard', 'automotive_design', 1998, #156 ) ;
#55 =( NAMED_UNIT ( * ) PLANE_ANGLE_UNIT ( ) SI_UNIT ( $, .RADIAN. ) );
#56 = CARTESIAN_POINT ( 'NONE',  ( 0.000000000000000000, 0.000000000000000000, 0.000000000000000000 ) ) ;
#57 = ORIENTED_EDGE ( 'NONE', *, *, #126, .T. ) ;
#58 = PRODUCT_RELATED_PRODUCT_CATEGORY ( 'part', '', ( #7 ) ) ;
#59 = DIRECTION ( 'NONE',  ( 0.000000000000000000, 1.000000000000000000, 0.000000000000000000 ) ) ;
#60 = STYLED_ITEM ( 'NONE', ( #1 ), #106 ) ;
#61 = PLANE ( 'NONE',  #35 ) ;
#62 = EDGE_CURVE ( 'NONE', #45, #185, #187, .T. ) ;
#63 = FACE_BOUND ( 'NONE', #161, .T. ) ;
#64 = DIRECTION ( 'NONE',  ( 0.000000000000000000, 1.000000000000000000, 0.000000000000000000 ) ) ;
#65 = CIRCLE ( 'NONE', #144, 0.05999999999999999778 ) ;
#66 = CARTESIAN_POINT ( 'NONE',  ( 0.000000000000000000, 0.2500000000000000000, 0.000000000000000000 ) ) ;
#67 = DIRECTION ( 'NONE',  ( 0.000000000000000000, 0.000000000000000000, -1.000000000000000000 ) ) ;
#68 = CYLINDRICAL_SURFACE ( 'NONE', #141, 0.1250000000000000000 ) ;
#69 = LENGTH_MEASURE_WITH_UNIT ( LENGTH_MEASURE( 0.02539999999999999897 ), #198 );
#70 = AXIS2_PLACEMENT_3D ( 'NONE', #131, #197, #148 ) ;
#71 = ORIENTED_EDGE ( 'NONE', *, *, #12, .F. ) ;
#72 = DIRECTION ( 'NONE',  ( 0.000000000000000000, -0.000000000000000000, 1.000000000000000000 ) ) ;
#73 = DIRECTION ( 'NONE',  ( 0.000000000000000000, 1.000000000000000000, 0.000000000000000000 ) ) ;
#74 = ORIENTED_EDGE ( 'NONE', *, *, #50, .F. ) ;
#75 = FACE_OUTER_BOUND ( 'NONE', #159, .T. ) ;
#76 = SURFACE_STYLE_FILL_AREA ( #104 ) ;
#77 = DIRECTION ( 'NONE',  ( 0.000000000000000000, 1.000000000000000000, 0.000000000000000000 ) ) ;
#78 = CARTESIAN_POINT ( 'NONE',  ( 0.000000000000000000, 0.2500000000000000000, -0.05999999999999999778 ) ) ;
#79 = CIRCLE ( 'NONE', #53, 0.1250000000000000000 ) ;
#80 = ORIENTED_EDGE ( 'NONE', *, *, #205, .F. ) ;
#81 =( NAMED_UNIT ( * ) SI_UNIT ( $, .STERADIAN. ) SOLID_ANGLE_UNIT ( ) );
#82 =( CONVERSION_BASED_UNIT ( 'INCH', #69 ) LENGTH_UNIT ( ) NAMED_UNIT ( #113 ) );
#83 = AXIS2_PLACEMENT_3D ( 'NONE', #91, #192, #203 ) ;
#84 = AXIS2_PLACEMENT_3D ( 'NONE', #194, #115, #128 ) ;
#85 = DIRECTION ( 'NONE',  ( -0.000000000000000000, -1.000000000000000000, -0.000000000000000000 ) ) ;
#86 = VERTEX_POINT ( 'NONE', #168 ) ;
#87 = DIRECTION ( 'NONE',  ( 0.000000000000000000, 0.000000000000000000, 1.000000000000000000 ) ) ;
#88 = ORIENTED_EDGE ( 'NONE', *, *, #4, .F. ) ;
#89 = LINE ( 'NONE', #46, #127 ) ;
#90 = DIRECTION ( 'NONE',  ( -0.000000000000000000, -1.000000000000000000, -0.000000000000000000 ) ) ;
#91 = CARTESIAN_POINT ( 'NONE',  ( 0.000000000000000000, 0.000000000000000000, 0.000000000000000000 ) ) ;
#92 = DIRECTION ( 'NONE',  ( 0.000000000000000000, 0.000000000000000000, -1.000000000000000000 ) ) ;
#93 = CLOSED_SHELL ( 'NONE', ( #158, #129, #16, #36, #138, #186 ) ) ;
#94 = EDGE_LOOP ( 'NONE', ( #201, #163, #133, #11 ) ) ;
#95 = CYLINDRICAL_SURFACE ( 'NONE', #169, 0.1250000000000000000 ) ;
#96 = ORIENTED_EDGE ( 'NONE', *, *, #196, .F. ) ;
#97 =( NAMED_UNIT ( * ) SI_UNIT ( $, .STERADIAN. ) SOLID_ANGLE_UNIT ( ) );
#98 = VERTEX_POINT ( 'NONE', #180 ) ;
#99 = ORIENTED_EDGE ( 'NONE', *, *, #167, .F. ) ;
#100 = UNCERTAINTY_MEASURE_WITH_UNIT (LENGTH_MEASURE( 1.000000000000000082E-05 ), #176, 'distance_accuracy_value', 'NONE');
#101 = CARTESIAN_POINT ( 'NONE',  ( 0.000000000000000000, 0.000000000000000000, 0.000000000000000000 ) ) ;
#102 = CARTESIAN_POINT ( 'NONE',  ( 0.000000000000000000, 0.2500000000000000000, 0.000000000000000000 ) ) ;
#103 = DIRECTION ( 'NONE',  ( 0.000000000000000000, 0.000000000000000000, 1.000000000000000000 ) ) ;
#104 = FILL_AREA_STYLE ('',( #116 ) ) ;
#105 = LINE ( 'NONE', #78, #174 ) ;
#106 = MANIFOLD_SOLID_BREP ( 'Boss-Extrude1', #93 ) ;
#107 = AXIS2_PLACEMENT_3D ( 'NONE', #157, #188, #15 ) ;
#108 = DIMENSIONAL_EXPONENTS ( 1.000000000000000000, 0.000000000000000000, 0.000000000000000000, 0.000000000000000000, 0.000000000000000000, 0.000000000000000000, 0.000000000000000000 ) ;
#109 = VERTEX_POINT ( 'NONE', #139 ) ;
#110 =( GEOMETRIC_REPRESENTATION_CONTEXT ( 3 ) GLOBAL_UNCERTAINTY_ASSIGNED_CONTEXT ( ( #100 ) ) GLOBAL_UNIT_ASSIGNED_CONTEXT ( ( #176, #37, #81 ) ) REPRESENTATION_CONTEXT ( 'NONE', 'WORKASPACE' ) );
#111 = ORIENTED_EDGE ( 'NONE', *, *, #4, .T. ) ;
#112 = PRODUCT_DEFINITION_SHAPE ( 'NONE', 'NONE',  #191 ) ;
#113 = DIMENSIONAL_EXPONENTS ( 1.000000000000000000, 0.000000000000000000, 0.000000000000000000, 0.000000000000000000, 0.000000000000000000, 0.000000000000000000, 0.000000000000000000 ) ;
#114 = ORIENTED_EDGE ( 'NONE', *, *, #62, .F. ) ;
#115 = DIRECTION ( 'NONE',  ( 0.000000000000000000, 0.000000000000000000, 1.000000000000000000 ) ) ;
#116 = FILL_AREA_STYLE_COLOUR ( '', #38 ) ;
#117 = ORIENTED_EDGE ( 'NONE', *, *, #20, .F. ) ;
#118 = DIRECTION ( 'NONE',  ( 0.000000000000000000, 0.000000000000000000, 1.000000000000000000 ) ) ;
#119 = CYLINDRICAL_SURFACE ( 'NONE', #107, 0.05999999999999999778 ) ;
#120 = DIRECTION ( 'NONE',  ( 0.000000000000000000, 1.000000000000000000, 0.000000000000000000 ) ) ;
#121 = VECTOR ( 'NONE', #85, 39.37007874015748143 ) ;
#122 = SURFACE_SIDE_STYLE ('',( #76 ) ) ;
#123 = CYLINDRICAL_SURFACE ( 'NONE', #17, 0.05999999999999999778 ) ;
#124 = CIRCLE ( 'NONE', #70, 0.1250000000000000000 ) ;
#125 = DIRECTION ( 'NONE',  ( -0.000000000000000000, -1.000000000000000000, -0.000000000000000000 ) ) ;
#126 = EDGE_CURVE ( 'NONE', #42, #86, #199, .T. ) ;
#127 = VECTOR ( 'NONE', #146, 39.37007874015748143 ) ;
#128 = DIRECTION ( 'NONE',  ( 1.000000000000000000, 0.000000000000000000, 0.000000000000000000 ) ) ;
#129 = ADVANCED_FACE ( 'NONE', ( #173 ), #95, .T. ) ;
#130 = PRODUCT_DEFINITION_FORMATION_WITH_SPECIFIED_SOURCE ( 'ANY', '', #7, .NOT_KNOWN. ) ;
#131 = CARTESIAN_POINT ( 'NONE',  ( 0.000000000000000000, 0.2500000000000000000, 0.000000000000000000 ) ) ;
#132 = CARTESIAN_POINT ( 'NONE',  ( 1.530808498934191509E-17, 0.2500000000000000000, 0.1250000000000000000 ) ) ;
#133 = ORIENTED_EDGE ( 'NONE', *, *, #175, .T. ) ;
#134 = UNCERTAINTY_MEASURE_WITH_UNIT (LENGTH_MEASURE( 1.000000000000000082E-05 ), #82, 'distance_accuracy_value', 'NONE');
#135 = AXIS2_PLACEMENT_3D ( 'NONE', #52, #120, #33 ) ;
#136 = FACE_OUTER_BOUND ( 'NONE', #5, .T. ) ;
#137 = ORIENTED_EDGE ( 'NONE', *, *, #167, .T. ) ;
#138 = ADVANCED_FACE ( 'NONE', ( #155 ), #68, .T. ) ;
#139 = CARTESIAN_POINT ( 'NONE',  ( 0.000000000000000000, 0.2500000000000000000, -0.05999999999999999778 ) ) ;
#140 =( LENGTH_UNIT ( ) NAMED_UNIT ( * ) SI_UNIT ( $, .METRE. ) );
#141 = AXIS2_PLACEMENT_3D ( 'NONE', #190, #3, #92 ) ;
#142 = CARTESIAN_POINT ( 'NONE',  ( 0.000000000000000000, 0.2500000000000000000, 0.000000000000000000 ) ) ;
#143 = VERTEX_POINT ( 'NONE', #170 ) ;
#144 = AXIS2_PLACEMENT_3D ( 'NONE', #56, #30, #118 ) ;
#145 = EDGE_CURVE ( 'NONE', #109, #143, #105, .T. ) ;
#146 = DIRECTION ( 'NONE',  ( -0.000000000000000000, -1.000000000000000000, -0.000000000000000000 ) ) ;
#147 = PRESENTATION_LAYER_ASSIGNMENT (  '', '', ( #60 ) ) ;
#148 = DIRECTION ( 'NONE',  ( 0.000000000000000000, 0.000000000000000000, 1.000000000000000000 ) ) ;
#149 = EDGE_LOOP ( 'NONE', ( #24, #111, #74, #202 ) ) ;
#150 = ORIENTED_EDGE ( 'NONE', *, *, #196, .T. ) ;
#151 = VECTOR ( 'NONE', #19, 39.37007874015748143 ) ;
#152 = CARTESIAN_POINT ( 'NONE',  ( 0.000000000000000000, 0.2500000000000000000, -0.1250000000000000000 ) ) ;
#153 = CARTESIAN_POINT ( 'NONE',  ( 1.530808498934191509E-17, 0.000000000000000000, 0.1250000000000000000 ) ) ;
#154 = CARTESIAN_POINT ( 'NONE',  ( 7.347880794884118380E-18, 0.2500000000000000000, 0.05999999999999999778 ) ) ;
#155 = FACE_OUTER_BOUND ( 'NONE', #31, .T. ) ;
#156 = APPLICATION_CONTEXT ( 'automotive_design' ) ;
#157 = CARTESIAN_POINT ( 'NONE',  ( 0.000000000000000000, 0.2500000000000000000, 0.000000000000000000 ) ) ;
#158 = ADVANCED_FACE ( 'NONE', ( #34 ), #123, .F. ) ;
#159 = EDGE_LOOP ( 'NONE', ( #26, #183 ) ) ;
#160 = DIRECTION ( 'NONE',  ( 0.000000000000000000, 0.000000000000000000, 1.000000000000000000 ) ) ;
#161 = EDGE_LOOP ( 'NONE', ( #80, #99 ) ) ;
#162 = AXIS2_PLACEMENT_3D ( 'NONE', #66, #77, #182 ) ;
#163 = ORIENTED_EDGE ( 'NONE', *, *, #62, .T. ) ;
#164 = ORIENTED_EDGE ( 'NONE', *, *, #175, .F. ) ;
#165 = CARTESIAN_POINT ( 'NONE',  ( 0.000000000000000000, 0.2500000000000000000, 0.000000000000000000 ) ) ;
#166 = DIRECTION ( 'NONE',  ( 0.000000000000000000, 1.000000000000000000, 0.000000000000000000 ) ) ;
#167 = EDGE_CURVE ( 'NONE', #200, #109, #184, .T. ) ;
#168 = CARTESIAN_POINT ( 'NONE',  ( 0.000000000000000000, 0.000000000000000000, -0.1250000000000000000 ) ) ;
#169 = AXIS2_PLACEMENT_3D ( 'NONE', #142, #90, #67 ) ;
#170 = CARTESIAN_POINT ( 'NONE',  ( 0.000000000000000000, 0.000000000000000000, -0.05999999999999999778 ) ) ;
#171 =( GEOMETRIC_REPRESENTATION_CONTEXT ( 3 ) GLOBAL_UNCERTAINTY_ASSIGNED_CONTEXT ( ( #134 ) ) GLOBAL_UNIT_ASSIGNED_CONTEXT ( ( #82, #55, #97 ) ) REPRESENTATION_CONTEXT ( 'NONE', 'WORKASPACE' ) );
#172 = DIRECTION ( 'NONE',  ( -0.000000000000000000, -1.000000000000000000, -0.000000000000000000 ) ) ;
#173 = FACE_OUTER_BOUND ( 'NONE', #94, .T. ) ;
#174 = VECTOR ( 'NONE', #125, 39.37007874015748143 ) ;
#175 = EDGE_CURVE ( 'NONE', #185, #86, #43, .T. ) ;
#176 =( CONVERSION_BASED_UNIT ( 'INCH', #48 ) LENGTH_UNIT ( ) NAMED_UNIT ( #108 ) );
#177 = EDGE_LOOP ( 'NONE', ( #88, #137, #22, #71 ) ) ;
#178 = APPLICATION_CONTEXT ( 'automotive_design' ) ;
#179 = APPLICATION_PROTOCOL_DEFINITION ( 'draft international standard', 'automotive_design', 1998, #178 ) ;
#180 = CARTESIAN_POINT ( 'NONE',  ( 7.347880794884118380E-18, 0.000000000000000000, 0.05999999999999999778 ) ) ;
#181 = ORIENTED_EDGE ( 'NONE', *, *, #12, .T. ) ;
#182 = DIRECTION ( 'NONE',  ( 0.000000000000000000, 0.000000000000000000, 1.000000000000000000 ) ) ;
#183 = ORIENTED_EDGE ( 'NONE', *, *, #44, .T. ) ;
#184 = CIRCLE ( 'NONE', #193, 0.05999999999999999778 ) ;
#185 = VERTEX_POINT ( 'NONE', #153 ) ;
#186 = ADVANCED_FACE ( 'NONE', ( #18 ), #119, .F. ) ;
#187 = LINE ( 'NONE', #132, #121 ) ;
#188 = DIRECTION ( 'NONE',  ( -0.000000000000000000, -1.000000000000000000, -0.000000000000000000 ) ) ;
#189 = SURFACE_STYLE_USAGE ( .BOTH. , #122 ) ;
#190 = CARTESIAN_POINT ( 'NONE',  ( 0.000000000000000000, 0.2500000000000000000, 0.000000000000000000 ) ) ;
#191 = PRODUCT_DEFINITION ( 'UNKNOWN', '', #130, #195 ) ;
#192 = DIRECTION ( 'NONE',  ( 0.000000000000000000, 1.000000000000000000, 0.000000000000000000 ) ) ;
#193 = AXIS2_PLACEMENT_3D ( 'NONE', #23, #64, #160 ) ;
#194 = CARTESIAN_POINT ( 'NONE',  ( 0.000000000000000000, 0.000000000000000000, 0.000000000000000000 ) ) ;
#195 = PRODUCT_DEFINITION_CONTEXT ( 'detailed design', #178, 'design' ) ;
#196 = EDGE_CURVE ( 'NONE', #86, #185, #25, .T. ) ;
#197 = DIRECTION ( 'NONE',  ( 0.000000000000000000, 1.000000000000000000, 0.000000000000000000 ) ) ;
#198 =( LENGTH_UNIT ( ) NAMED_UNIT ( * ) SI_UNIT ( $, .METRE. ) );
#199 = LINE ( 'NONE', #47, #151 ) ;
#200 = VERTEX_POINT ( 'NONE', #154 ) ;
#201 = ORIENTED_EDGE ( 'NONE', *, *, #44, .F. ) ;
#202 = ORIENTED_EDGE ( 'NONE', *, *, #145, .F. ) ;
#203 = DIRECTION ( 'NONE',  ( 0.000000000000000000, 0.000000000000000000, 1.000000000000000000 ) ) ;
#204 = AXIS2_PLACEMENT_3D ( 'NONE', #101, #59, #87 ) ;
#205 = EDGE_CURVE ( 'NONE', #109, #200, #51, .T. ) ;
ENDSEC;
END-ISO-10303-21;
