ISO-10303-21;
HEADER;
FILE_DESCRIPTION (( 'STEP AP214' ),
    '1' );
FILE_NAME ('Luma Box.STEP',
    '2026-03-30T16:51:43',
    ( '' ),
    ( '' ),
    'SwSTEP 2.0',
    'SolidWorks 2025',
    '' );
FILE_SCHEMA (( 'AUTOMOTIVE_DESIGN' ));
ENDSEC;

DATA;
#1 = LINE ( 'NONE', #98, #259 ) ;
#2 = ADVANCED_FACE ( 'NONE', ( #300 ), #92, .T. ) ;
#3 = VECTOR ( 'NONE', #198, 39.37007874015748143 ) ;
#4 = DIRECTION ( 'NONE',  ( 1.000000000000000000, 0.000000000000000000, -9.106159978880878627E-17 ) ) ;
#5 = ORIENTED_EDGE ( 'NONE', *, *, #265, .F. ) ;
#6 = PRODUCT_CONTEXT ( 'NONE', #49, 'mechanical' ) ;
#7 = EDGE_CURVE ( 'NONE', #93, #136, #317, .T. ) ;
#8 = CARTESIAN_POINT ( 'NONE',  ( -1.499999999999999778, 1.000000000000000000, -1.399999999999999911 ) ) ;
#9 = AXIS2_PLACEMENT_3D ( 'NONE', #270, #215, #291 ) ;
#10 = CARTESIAN_POINT ( 'NONE',  ( 0.000000000000000000, 1.000000000000000000, -1.399999999999999911 ) ) ;
#11 = CARTESIAN_POINT ( 'NONE',  ( 0.000000000000000000, -1.000000000000000000, -1.399999999999999911 ) ) ;
#12 = DIRECTION ( 'NONE',  ( 1.000000000000000000, 0.000000000000000000, -3.035386659626958639E-16 ) ) ;
#13 = ORIENTED_EDGE ( 'NONE', *, *, #299, .F. ) ;
#14 = DIRECTION ( 'NONE',  ( 1.000000000000000000, -0.000000000000000000, 1.437814733507507139E-16 ) ) ;
#15 = EDGE_LOOP ( 'NONE', ( #109, #203, #174, #111 ) ) ;
#16 = CARTESIAN_POINT ( 'NONE',  ( 0.000000000000000000, -0.8999999999999999112, -1.299999999999999822 ) ) ;
#17 = VERTEX_POINT ( 'NONE', #194 ) ;
#18 = ORIENTED_EDGE ( 'NONE', *, *, #193, .T. ) ;
#19 = CARTESIAN_POINT ( 'NONE',  ( -1.399999999999999245, -0.8999999999999999112, 4.249541323477739826E-16 ) ) ;
#20 = LINE ( 'NONE', #242, #185 ) ;
#21 = CARTESIAN_POINT ( 'NONE',  ( 0.000000000000000000, 1.000000000000000000, 0.000000000000000000 ) ) ;
#22 = ORIENTED_EDGE ( 'NONE', *, *, #7, .T. ) ;
#23 = PLANE ( 'NONE',  #113 ) ;
#24 = LINE ( 'NONE', #311, #44 ) ;
#25 = EDGE_CURVE ( 'NONE', #180, #170, #295, .T. ) ;
#26 = DIRECTION ( 'NONE',  ( 3.035386659626958639E-16, 0.000000000000000000, 1.000000000000000000 ) ) ;
#27 = CARTESIAN_POINT ( 'NONE',  ( -1.399999999999999245, 1.000000000000000000, 4.249541323477739826E-16 ) ) ;
#28 = PRODUCT ( 'Luma Box', 'Luma Box', '', ( #6 ) ) ;
#29 = DIRECTION ( 'NONE',  ( 0.000000000000000000, 0.000000000000000000, 1.000000000000000000 ) ) ;
#30 = DIRECTION ( 'NONE',  ( 1.000000000000000000, -0.000000000000000000, 0.000000000000000000 ) ) ;
#31 = DIRECTION ( 'NONE',  ( 0.000000000000000000, 1.000000000000000000, -0.000000000000000000 ) ) ;
#32 = ADVANCED_FACE ( 'NONE', ( #316 ), #77, .F. ) ;
#33 = CARTESIAN_POINT ( 'NONE',  ( 0.000000000000000000, 1.000000000000000000, -1.299999999999999822 ) ) ;
#34 = ORIENTED_EDGE ( 'NONE', *, *, #139, .T. ) ;
#35 = DIRECTION ( 'NONE',  ( 1.000000000000000000, -0.000000000000000000, 1.437814733507507139E-16 ) ) ;
#36 = PLANE ( 'NONE',  #127 ) ;
#37 = VECTOR ( 'NONE', #202, 39.37007874015748143 ) ;
#38 = ORIENTED_EDGE ( 'NONE', *, *, #216, .T. ) ;
#39 = CARTESIAN_POINT ( 'NONE',  ( 1.400000000000000133, 1.000000000000000000, -1.299999999999999822 ) ) ;
#40 = VERTEX_POINT ( 'NONE', #267 ) ;
#41 = PLANE ( 'NONE',  #233 ) ;
#42 = LINE ( 'NONE', #16, #144 ) ;
#43 = VECTOR ( 'NONE', #190, 39.37007874015748143 ) ;
#44 = VECTOR ( 'NONE', #73, 39.37007874015748143 ) ;
#45 =( CONVERSION_BASED_UNIT ( 'INCH', #122 ) LENGTH_UNIT ( ) NAMED_UNIT ( #262 ) );
#46 = ORIENTED_EDGE ( 'NONE', *, *, #310, .F. ) ;
#47 = ADVANCED_FACE ( 'NONE', ( #110 ), #239, .T. ) ;
#48 = DIRECTION ( 'NONE',  ( 1.000000000000000000, 0.000000000000000000, -9.106159978880878627E-17 ) ) ;
#49 = APPLICATION_CONTEXT ( 'automotive_design' ) ;
#50 = FACE_OUTER_BOUND ( 'NONE', #63, .T. ) ;
#51 = DIMENSIONAL_EXPONENTS ( 1.000000000000000000, 0.000000000000000000, 0.000000000000000000, 0.000000000000000000, 0.000000000000000000, 0.000000000000000000, 0.000000000000000000 ) ;
#52 = DIRECTION ( 'NONE',  ( -0.000000000000000000, -1.000000000000000000, -0.000000000000000000 ) ) ;
#53 = ADVANCED_FACE ( 'NONE', ( #237 ), #137, .T. ) ;
#54 = DIRECTION ( 'NONE',  ( -1.000000000000000000, 0.000000000000000000, 9.106159978880878627E-17 ) ) ;
#55 = PLANE ( 'NONE',  #303 ) ;
#56 = EDGE_CURVE ( 'NONE', #107, #231, #108, .T. ) ;
#57 = CARTESIAN_POINT ( 'NONE',  ( 1.399999999999999911, -0.8999999999999999112, 2.012940626910509649E-16 ) ) ;
#58 = VERTEX_POINT ( 'NONE', #323 ) ;
#59 = VECTOR ( 'NONE', #30, 39.37007874015748143 ) ;
#60 = CARTESIAN_POINT ( 'NONE',  ( -1.399999999999999023, 1.000000000000000000, 1.300000000000000266 ) ) ;
#61 = ORIENTED_EDGE ( 'NONE', *, *, #25, .T. ) ;
#62 = CARTESIAN_POINT ( 'NONE',  ( 1.499999999999999556, 1.000000000000000000, 1.400000000000000133 ) ) ;
#63 = EDGE_LOOP ( 'NONE', ( #118, #155, #151, #83 ) ) ;
#64 = CARTESIAN_POINT ( 'NONE',  ( -1.399999999999999023, -0.8999999999999999112, 1.300000000000000266 ) ) ;
#65 = PRODUCT_RELATED_PRODUCT_CATEGORY ( 'part', '', ( #28 ) ) ;
#66 = LINE ( 'NONE', #251, #181 ) ;
#67 = VECTOR ( 'NONE', #228, 39.37007874015748143 ) ;
#68 = AXIS2_PLACEMENT_3D ( 'NONE', #209, #159, #130 ) ;
#69 = ORIENTED_EDGE ( 'NONE', *, *, #139, .F. ) ;
#70 = CARTESIAN_POINT ( 'NONE',  ( 1.399999999999999467, 1.000000000000000000, 1.300000000000000266 ) ) ;
#71 = APPLICATION_CONTEXT ( 'automotive_design' ) ;
#72 = ORIENTED_EDGE ( 'NONE', *, *, #81, .T. ) ;
#73 = DIRECTION ( 'NONE',  ( 1.000000000000000000, 0.000000000000000000, 0.000000000000000000 ) ) ;
#74 = PLANE ( 'NONE',  #244 ) ;
#75 = EDGE_CURVE ( 'NONE', #274, #220, #163, .T. ) ;
#76 = VECTOR ( 'NONE', #134, 39.37007874015748143 ) ;
#77 = PLANE ( 'NONE',  #205 ) ;
#78 = DIRECTION ( 'NONE',  ( -1.000000000000000000, 0.000000000000000000, -0.000000000000000000 ) ) ;
#79 = COLOUR_RGB ( '',0.7921568627450980005, 0.8196078431372548767, 0.9333333333333333481 ) ;
#80 = LINE ( 'NONE', #241, #43 ) ;
#81 = EDGE_CURVE ( 'NONE', #107, #274, #104, .T. ) ;
#82 = DIRECTION ( 'NONE',  ( 3.035386659626958639E-16, 0.000000000000000000, 1.000000000000000000 ) ) ;
#83 = ORIENTED_EDGE ( 'NONE', *, *, #183, .T. ) ;
#84 = DIRECTION ( 'NONE',  ( 0.000000000000000000, -1.000000000000000000, 0.000000000000000000 ) ) ;
#85 = EDGE_LOOP ( 'NONE', ( #88, #297, #22, #142 ) ) ;
#86 = AXIS2_PLACEMENT_3D ( 'NONE', #100, #312, #48 ) ;
#87 = CARTESIAN_POINT ( 'NONE',  ( 1.183800797254514801E-16, 1.000000000000000000, 1.300000000000000266 ) ) ;
#88 = ORIENTED_EDGE ( 'NONE', *, *, #126, .F. ) ;
#89 = EDGE_CURVE ( 'NONE', #136, #58, #236, .T. ) ;
#90 = ORIENTED_EDGE ( 'NONE', *, *, #280, .T. ) ;
#91 = DIRECTION ( 'NONE',  ( 1.000000000000000000, 0.000000000000000000, 0.000000000000000000 ) ) ;
#92 = PLANE ( 'NONE',  #112 ) ;
#93 = VERTEX_POINT ( 'NONE', #105 ) ;
#94 = FILL_AREA_STYLE_COLOUR ( '', #79 ) ;
#95 = ADVANCED_FACE ( 'NONE', ( #235 ), #188, .F. ) ;
#96 = DIRECTION ( 'NONE',  ( -1.437814733507507139E-16, 0.000000000000000000, 1.000000000000000000 ) ) ;
#97 = CARTESIAN_POINT ( 'NONE',  ( 1.183800797254514801E-16, 1.000000000000000000, 1.300000000000000266 ) ) ;
#98 = CARTESIAN_POINT ( 'NONE',  ( -1.499999999999999334, 1.000000000000000000, 4.553079989440435739E-16 ) ) ;
#99 = VECTOR ( 'NONE', #214, 39.37007874015748143 ) ;
#100 = CARTESIAN_POINT ( 'NONE',  ( 1.274862397043323575E-16, 1.000000000000000000, 1.400000000000000355 ) ) ;
#101 = FACE_OUTER_BOUND ( 'NONE', #179, .T. ) ;
#102 = VECTOR ( 'NONE', #84, 39.37007874015748143 ) ;
#103 =( GEOMETRIC_REPRESENTATION_CONTEXT ( 3 ) GLOBAL_UNCERTAINTY_ASSIGNED_CONTEXT ( ( #296 ) ) GLOBAL_UNIT_ASSIGNED_CONTEXT ( ( #45, #314, #129 ) ) REPRESENTATION_CONTEXT ( 'NONE', 'WORKASPACE' ) );
#104 = LINE ( 'NONE', #27, #243 ) ;
#105 = CARTESIAN_POINT ( 'NONE',  ( -1.499999999999999778, 1.000000000000000000, -1.399999999999999911 ) ) ;
#106 = CARTESIAN_POINT ( 'NONE',  ( 1.499999999999999778, 1.000000000000000000, -1.399999999999999911 ) ) ;
#107 = VERTEX_POINT ( 'NONE', #263 ) ;
#108 = LINE ( 'NONE', #217, #76 ) ;
#109 = ORIENTED_EDGE ( 'NONE', *, *, #265, .T. ) ;
#110 = FACE_OUTER_BOUND ( 'NONE', #250, .T. ) ;
#111 = ORIENTED_EDGE ( 'NONE', *, *, #56, .T. ) ;
#112 = AXIS2_PLACEMENT_3D ( 'NONE', #10, #162, #132 ) ;
#113 = AXIS2_PLACEMENT_3D ( 'NONE', #97, #161, #4 ) ;
#114 = SURFACE_STYLE_USAGE ( .BOTH. , #306 ) ;
#115 = ORIENTED_EDGE ( 'NONE', *, *, #126, .T. ) ;
#116 = ORIENTED_EDGE ( 'NONE', *, *, #183, .F. ) ;
#117 = FACE_OUTER_BOUND ( 'NONE', #218, .T. ) ;
#118 = ORIENTED_EDGE ( 'NONE', *, *, #287, .T. ) ;
#119 = DIRECTION ( 'NONE',  ( 3.035386659626958639E-16, 0.000000000000000000, 1.000000000000000000 ) ) ;
#120 = ORIENTED_EDGE ( 'NONE', *, *, #273, .T. ) ;
#121 = CARTESIAN_POINT ( 'NONE',  ( -1.499999999999999556, -1.000000000000000000, 1.400000000000000355 ) ) ;
#122 = LENGTH_MEASURE_WITH_UNIT ( LENGTH_MEASURE( 0.02539999999999999897 ), #282 );
#123 = CARTESIAN_POINT ( 'NONE',  ( -1.499999999999999556, 1.000000000000000000, 1.400000000000000355 ) ) ;
#124 = VERTEX_POINT ( 'NONE', #191 ) ;
#125 = CARTESIAN_POINT ( 'NONE',  ( 1.183800797254514801E-16, -0.8999999999999999112, 1.300000000000000266 ) ) ;
#126 = EDGE_CURVE ( 'NONE', #124, #58, #133, .T. ) ;
#127 = AXIS2_PLACEMENT_3D ( 'NONE', #223, #35, #298 ) ;
#128 = EDGE_LOOP ( 'NONE', ( #200, #138, #34, #18 ) ) ;
#129 =( NAMED_UNIT ( * ) SI_UNIT ( $, .STERADIAN. ) SOLID_ANGLE_UNIT ( ) );
#130 = DIRECTION ( 'NONE',  ( 1.000000000000000000, 0.000000000000000000, 0.000000000000000000 ) ) ;
#131 = VECTOR ( 'NONE', #167, 39.37007874015748143 ) ;
#132 = DIRECTION ( 'NONE',  ( -1.000000000000000000, 0.000000000000000000, -0.000000000000000000 ) ) ;
#133 = LINE ( 'NONE', #11, #99 ) ;
#134 = DIRECTION ( 'NONE',  ( 0.000000000000000000, -1.000000000000000000, 0.000000000000000000 ) ) ;
#135 = CARTESIAN_POINT ( 'NONE',  ( 1.274862397043323575E-16, -1.000000000000000000, 1.400000000000000355 ) ) ;
#136 = VERTEX_POINT ( 'NONE', #106 ) ;
#137 = PLANE ( 'NONE',  #335 ) ;
#138 = ORIENTED_EDGE ( 'NONE', *, *, #313, .T. ) ;
#139 = EDGE_CURVE ( 'NONE', #271, #172, #80, .T. ) ;
#140 = ORIENTED_EDGE ( 'NONE', *, *, #216, .F. ) ;
#141 = DIRECTION ( 'NONE',  ( 0.000000000000000000, -1.000000000000000000, 0.000000000000000000 ) ) ;
#142 = ORIENTED_EDGE ( 'NONE', *, *, #89, .T. ) ;
#143 = VECTOR ( 'NONE', #54, 39.37007874015748143 ) ;
#144 = VECTOR ( 'NONE', #91, 39.37007874015748143 ) ;
#145 = FACE_BOUND ( 'NONE', #128, .T. ) ;
#146 = ORIENTED_EDGE ( 'NONE', *, *, #208, .F. ) ;
#147 = CARTESIAN_POINT ( 'NONE',  ( 1.499999999999999556, -1.000000000000000000, 1.400000000000000133 ) ) ;
#148 = ADVANCED_FACE ( 'NONE', ( #292 ), #55, .T. ) ;
#149 = VERTEX_POINT ( 'NONE', #165 ) ;
#150 = LINE ( 'NONE', #277, #189 ) ;
#151 = ORIENTED_EDGE ( 'NONE', *, *, #193, .F. ) ;
#152 = AXIS2_PLACEMENT_3D ( 'NONE', #213, #31, #29 ) ;
#153 = CARTESIAN_POINT ( 'NONE',  ( -1.499999999999999334, 1.000000000000000000, 4.553079989440435739E-16 ) ) ;
#154 = FACE_OUTER_BOUND ( 'NONE', #307, .T. ) ;
#155 = ORIENTED_EDGE ( 'NONE', *, *, #75, .F. ) ;
#156 = DIRECTION ( 'NONE',  ( -0.000000000000000000, -1.000000000000000000, -0.000000000000000000 ) ) ;
#157 = PRESENTATION_LAYER_ASSIGNMENT (  '', '', ( #257 ) ) ;
#158 = EDGE_LOOP ( 'NONE', ( #227, #284, #328, #222 ) ) ;
#159 = DIRECTION ( 'NONE',  ( 0.000000000000000000, 0.000000000000000000, 1.000000000000000000 ) ) ;
#160 = EDGE_CURVE ( 'NONE', #40, #149, #266, .T. ) ;
#161 = DIRECTION ( 'NONE',  ( 9.106159978880878627E-17, -0.000000000000000000, 1.000000000000000000 ) ) ;
#162 = DIRECTION ( 'NONE',  ( 0.000000000000000000, 0.000000000000000000, -1.000000000000000000 ) ) ;
#163 = LINE ( 'NONE', #60, #102 ) ;
#164 = ADVANCED_FACE ( 'NONE', ( #117, #145 ), #41, .T. ) ;
#165 = CARTESIAN_POINT ( 'NONE',  ( 1.399999999999999467, -0.8999999999999999112, 1.300000000000000266 ) ) ;
#166 = UNCERTAINTY_MEASURE_WITH_UNIT (LENGTH_MEASURE( 1.000000000000000082E-05 ), #178, 'distance_accuracy_value', 'NONE');
#167 = DIRECTION ( 'NONE',  ( -1.437814733507507139E-16, 0.000000000000000000, 1.000000000000000000 ) ) ;
#168 = ORIENTED_EDGE ( 'NONE', *, *, #304, .T. ) ;
#169 = CARTESIAN_POINT ( 'NONE',  ( 1.499999999999999778, 1.000000000000000000, -1.399999999999999911 ) ) ;
#170 = VERTEX_POINT ( 'NONE', #121 ) ;
#171 = FILL_AREA_STYLE ('',( #94 ) ) ;
#172 = VERTEX_POINT ( 'NONE', #70 ) ;
#173 =( NAMED_UNIT ( * ) PLANE_ANGLE_UNIT ( ) SI_UNIT ( $, .RADIAN. ) );
#174 = ORIENTED_EDGE ( 'NONE', *, *, #313, .F. ) ;
#175 = VECTOR ( 'NONE', #283, 39.37007874015748143 ) ;
#176 = LENGTH_MEASURE_WITH_UNIT ( LENGTH_MEASURE( 0.02539999999999999897 ), #329 );
#177 = ORIENTED_EDGE ( 'NONE', *, *, #287, .F. ) ;
#178 =( CONVERSION_BASED_UNIT ( 'INCH', #176 ) LENGTH_UNIT ( ) NAMED_UNIT ( #51 ) );
#179 = EDGE_LOOP ( 'NONE', ( #278, #146, #168, #301 ) ) ;
#180 = VERTEX_POINT ( 'NONE', #147 ) ;
#181 = VECTOR ( 'NONE', #302, 39.37007874015748143 ) ;
#182 = SHAPE_DEFINITION_REPRESENTATION ( #289, #201 ) ;
#183 = EDGE_CURVE ( 'NONE', #172, #149, #226, .T. ) ;
#184 = PLANE ( 'NONE',  #86 ) ;
#185 = VECTOR ( 'NONE', #96, 39.37007874015748143 ) ;
#186 = APPLICATION_PROTOCOL_DEFINITION ( 'draft international standard', 'automotive_design', 1998, #49 ) ;
#187 = DIRECTION ( 'NONE',  ( -3.035386659626958639E-16, 0.000000000000000000, -1.000000000000000000 ) ) ;
#188 = PLANE ( 'NONE',  #9 ) ;
#189 = VECTOR ( 'NONE', #204, 39.37007874015748143 ) ;
#190 = DIRECTION ( 'NONE',  ( -1.437814733507507139E-16, 0.000000000000000000, 1.000000000000000000 ) ) ;
#191 = CARTESIAN_POINT ( 'NONE',  ( -1.499999999999999778, -1.000000000000000000, -1.399999999999999911 ) ) ;
#192 = ORIENTED_EDGE ( 'NONE', *, *, #75, .T. ) ;
#193 = EDGE_CURVE ( 'NONE', #172, #274, #334, .T. ) ;
#194 = CARTESIAN_POINT ( 'NONE',  ( -1.499999999999999556, 1.000000000000000000, 1.400000000000000355 ) ) ;
#195 = VECTOR ( 'NONE', #52, 39.37007874015748143 ) ;
#196 = VECTOR ( 'NONE', #119, 39.37007874015748143 ) ;
#197 = EDGE_LOOP ( 'NONE', ( #199, #116, #69, #276 ) ) ;
#198 = DIRECTION ( 'NONE',  ( -1.000000000000000000, 0.000000000000000000, 9.106159978880878627E-17 ) ) ;
#199 = ORIENTED_EDGE ( 'NONE', *, *, #160, .T. ) ;
#200 = ORIENTED_EDGE ( 'NONE', *, *, #81, .F. ) ;
#201 = ADVANCED_BREP_SHAPE_REPRESENTATION ( 'Luma Box', ( #252, #68 ), #103 ) ;
#202 = DIRECTION ( 'NONE',  ( 0.000000000000000000, -1.000000000000000000, 0.000000000000000000 ) ) ;
#203 = ORIENTED_EDGE ( 'NONE', *, *, #238, .F. ) ;
#204 = DIRECTION ( 'NONE',  ( -0.000000000000000000, -1.000000000000000000, -0.000000000000000000 ) ) ;
#205 = AXIS2_PLACEMENT_3D ( 'NONE', #33, #261, #78 ) ;
#206 = LINE ( 'NONE', #229, #315 ) ;
#207 = DIRECTION ( 'NONE',  ( -0.000000000000000000, -1.000000000000000000, -0.000000000000000000 ) ) ;
#208 = EDGE_CURVE ( 'NONE', #248, #180, #150, .T. ) ;
#209 = CARTESIAN_POINT ( 'NONE',  ( 0.000000000000000000, 0.000000000000000000, 0.000000000000000000 ) ) ;
#210 = CLOSED_SHELL ( 'NONE', ( #164, #2, #332, #325, #148, #95, #32, #53, #320, #212, #47 ) ) ;
#211 = PRODUCT_DEFINITION_FORMATION_WITH_SPECIFIED_SOURCE ( 'ANY', '', #28, .NOT_KNOWN. ) ;
#212 = ADVANCED_FACE ( 'NONE', ( #279 ), #36, .F. ) ;
#213 = CARTESIAN_POINT ( 'NONE',  ( 0.000000000000000000, -0.8999999999999999112, 0.000000000000000000 ) ) ;
#214 = DIRECTION ( 'NONE',  ( 1.000000000000000000, -0.000000000000000000, 0.000000000000000000 ) ) ;
#215 = DIRECTION ( 'NONE',  ( 0.000000000000000000, 1.000000000000000000, -0.000000000000000000 ) ) ;
#216 = EDGE_CURVE ( 'NONE', #124, #170, #66, .T. ) ;
#217 = CARTESIAN_POINT ( 'NONE',  ( -1.399999999999999467, 1.000000000000000000, -1.299999999999999822 ) ) ;
#218 = EDGE_LOOP ( 'NONE', ( #330, #269, #225, #240 ) ) ;
#219 = DIRECTION ( 'NONE',  ( 0.000000000000000000, 1.000000000000000000, -0.000000000000000000 ) ) ;
#220 = VERTEX_POINT ( 'NONE', #64 ) ;
#221 = LINE ( 'NONE', #253, #37 ) ;
#222 = ORIENTED_EDGE ( 'NONE', *, *, #208, .T. ) ;
#223 = CARTESIAN_POINT ( 'NONE',  ( 1.399999999999999911, 1.000000000000000000, 2.012940626910509649E-16 ) ) ;
#224 = DIRECTION ( 'NONE',  ( 0.000000000000000000, 0.000000000000000000, 1.000000000000000000 ) ) ;
#225 = ORIENTED_EDGE ( 'NONE', *, *, #304, .F. ) ;
#226 = LINE ( 'NONE', #326, #290 ) ;
#227 = ORIENTED_EDGE ( 'NONE', *, *, #280, .F. ) ;
#228 = DIRECTION ( 'NONE',  ( -1.437814733507507139E-16, 0.000000000000000000, 1.000000000000000000 ) ) ;
#229 = CARTESIAN_POINT ( 'NONE',  ( 1.274862397043323575E-16, 1.000000000000000000, 1.400000000000000355 ) ) ;
#230 = CARTESIAN_POINT ( 'NONE',  ( 1.499999999999999778, -1.000000000000000000, 2.156722100261260462E-16 ) ) ;
#231 = VERTEX_POINT ( 'NONE', #331 ) ;
#232 = LINE ( 'NONE', #8, #268 ) ;
#233 = AXIS2_PLACEMENT_3D ( 'NONE', #21, #219, #224 ) ;
#234 = EDGE_CURVE ( 'NONE', #136, #248, #20, .T. ) ;
#235 = FACE_OUTER_BOUND ( 'NONE', #324, .T. ) ;
#236 = LINE ( 'NONE', #169, #195 ) ;
#237 = FACE_OUTER_BOUND ( 'NONE', #333, .T. ) ;
#238 = EDGE_CURVE ( 'NONE', #271, #40, #221, .T. ) ;
#239 = PLANE ( 'NONE',  #152 ) ;
#240 = ORIENTED_EDGE ( 'NONE', *, *, #234, .F. ) ;
#241 = CARTESIAN_POINT ( 'NONE',  ( 1.399999999999999911, 1.000000000000000000, 2.012940626910509649E-16 ) ) ;
#242 = CARTESIAN_POINT ( 'NONE',  ( 1.499999999999999778, 1.000000000000000000, 2.156722100261260462E-16 ) ) ;
#243 = VECTOR ( 'NONE', #82, 39.37007874015748143 ) ;
#244 = AXIS2_PLACEMENT_3D ( 'NONE', #153, #308, #281 ) ;
#245 = ORIENTED_EDGE ( 'NONE', *, *, #160, .F. ) ;
#246 = PRODUCT_DEFINITION ( 'UNKNOWN', '', #211, #264 ) ;
#247 = PRESENTATION_STYLE_ASSIGNMENT (( #114 ) ) ;
#248 = VERTEX_POINT ( 'NONE', #62 ) ;
#249 = LINE ( 'NONE', #19, #196 ) ;
#250 = EDGE_LOOP ( 'NONE', ( #5, #120, #177, #245 ) ) ;
#251 = CARTESIAN_POINT ( 'NONE',  ( -1.499999999999999334, -1.000000000000000000, 4.553079989440435739E-16 ) ) ;
#252 = MANIFOLD_SOLID_BREP ( 'Shell1', #210 ) ;
#253 = CARTESIAN_POINT ( 'NONE',  ( 1.400000000000000133, 1.000000000000000000, -1.299999999999999822 ) ) ;
#254 = CARTESIAN_POINT ( 'NONE',  ( -1.399999999999999023, 1.000000000000000000, 1.300000000000000266 ) ) ;
#255 = LINE ( 'NONE', #230, #67 ) ;
#256 = ORIENTED_EDGE ( 'NONE', *, *, #293, .T. ) ;
#257 = STYLED_ITEM ( 'NONE', ( #247 ), #252 ) ;
#258 = LINE ( 'NONE', #123, #327 ) ;
#259 = VECTOR ( 'NONE', #26, 39.37007874015748143 ) ;
#260 = LINE ( 'NONE', #125, #175 ) ;
#261 = DIRECTION ( 'NONE',  ( 0.000000000000000000, 0.000000000000000000, -1.000000000000000000 ) ) ;
#262 = DIMENSIONAL_EXPONENTS ( 1.000000000000000000, 0.000000000000000000, 0.000000000000000000, 0.000000000000000000, 0.000000000000000000, 0.000000000000000000, 0.000000000000000000 ) ;
#263 = CARTESIAN_POINT ( 'NONE',  ( -1.399999999999999467, 1.000000000000000000, -1.299999999999999822 ) ) ;
#264 = PRODUCT_DEFINITION_CONTEXT ( 'detailed design', #71, 'design' ) ;
#265 = EDGE_CURVE ( 'NONE', #231, #40, #42, .T. ) ;
#266 = LINE ( 'NONE', #57, #131 ) ;
#267 = CARTESIAN_POINT ( 'NONE',  ( 1.400000000000000133, -0.8999999999999999112, -1.299999999999999822 ) ) ;
#268 = VECTOR ( 'NONE', #156, 39.37007874015748143 ) ;
#269 = ORIENTED_EDGE ( 'NONE', *, *, #299, .T. ) ;
#270 = CARTESIAN_POINT ( 'NONE',  ( 0.000000000000000000, -1.000000000000000000, 0.000000000000000000 ) ) ;
#271 = VERTEX_POINT ( 'NONE', #39 ) ;
#272 = SURFACE_STYLE_FILL_AREA ( #171 ) ;
#273 = EDGE_CURVE ( 'NONE', #231, #220, #249, .T. ) ;
#274 = VERTEX_POINT ( 'NONE', #254 ) ;
#275 =( NAMED_UNIT ( * ) SI_UNIT ( $, .STERADIAN. ) SOLID_ANGLE_UNIT ( ) );
#276 = ORIENTED_EDGE ( 'NONE', *, *, #238, .T. ) ;
#277 = CARTESIAN_POINT ( 'NONE',  ( 1.499999999999999556, 1.000000000000000000, 1.400000000000000133 ) ) ;
#278 = ORIENTED_EDGE ( 'NONE', *, *, #25, .F. ) ;
#279 = FACE_OUTER_BOUND ( 'NONE', #197, .T. ) ;
#280 = EDGE_CURVE ( 'NONE', #58, #180, #255, .T. ) ;
#281 = DIRECTION ( 'NONE',  ( -3.035386659626958639E-16, 0.000000000000000000, -1.000000000000000000 ) ) ;
#282 =( LENGTH_UNIT ( ) NAMED_UNIT ( * ) SI_UNIT ( $, .METRE. ) );
#283 = DIRECTION ( 'NONE',  ( -1.000000000000000000, 0.000000000000000000, 9.106159978880878627E-17 ) ) ;
#284 = ORIENTED_EDGE ( 'NONE', *, *, #89, .F. ) ;
#285 =( GEOMETRIC_REPRESENTATION_CONTEXT ( 3 ) GLOBAL_UNCERTAINTY_ASSIGNED_CONTEXT ( ( #166 ) ) GLOBAL_UNIT_ASSIGNED_CONTEXT ( ( #178, #173, #275 ) ) REPRESENTATION_CONTEXT ( 'NONE', 'WORKASPACE' ) );
#286 = APPLICATION_PROTOCOL_DEFINITION ( 'draft international standard', 'automotive_design', 1998, #71 ) ;
#287 = EDGE_CURVE ( 'NONE', #149, #220, #260, .T. ) ;
#288 = CARTESIAN_POINT ( 'NONE',  ( 0.000000000000000000, 1.000000000000000000, -1.399999999999999911 ) ) ;
#289 = PRODUCT_DEFINITION_SHAPE ( 'NONE', 'NONE',  #246 ) ;
#290 = VECTOR ( 'NONE', #141, 39.37007874015748143 ) ;
#291 = DIRECTION ( 'NONE',  ( 0.000000000000000000, 0.000000000000000000, 1.000000000000000000 ) ) ;
#292 = FACE_OUTER_BOUND ( 'NONE', #158, .T. ) ;
#293 = EDGE_CURVE ( 'NONE', #93, #124, #232, .T. ) ;
#294 = CARTESIAN_POINT ( 'NONE',  ( 1.499999999999999778, 1.000000000000000000, 2.156722100261260462E-16 ) ) ;
#295 = LINE ( 'NONE', #135, #143 ) ;
#296 = UNCERTAINTY_MEASURE_WITH_UNIT (LENGTH_MEASURE( 1.000000000000000082E-05 ), #45, 'distance_accuracy_value', 'NONE');
#297 = ORIENTED_EDGE ( 'NONE', *, *, #293, .F. ) ;
#298 = DIRECTION ( 'NONE',  ( 1.437814733507507139E-16, 0.000000000000000000, -1.000000000000000000 ) ) ;
#299 = EDGE_CURVE ( 'NONE', #93, #17, #1, .T. ) ;
#300 = FACE_OUTER_BOUND ( 'NONE', #85, .T. ) ;
#301 = ORIENTED_EDGE ( 'NONE', *, *, #310, .T. ) ;
#302 = DIRECTION ( 'NONE',  ( 3.035386659626958639E-16, 0.000000000000000000, 1.000000000000000000 ) ) ;
#303 = AXIS2_PLACEMENT_3D ( 'NONE', #294, #14, #321 ) ;
#304 = EDGE_CURVE ( 'NONE', #248, #17, #206, .T. ) ;
#305 = ORIENTED_EDGE ( 'NONE', *, *, #273, .F. ) ;
#306 = SURFACE_SIDE_STYLE ('',( #272 ) ) ;
#307 = EDGE_LOOP ( 'NONE', ( #38, #46, #13, #256 ) ) ;
#308 = DIRECTION ( 'NONE',  ( 1.000000000000000000, 0.000000000000000000, -3.035386659626958639E-16 ) ) ;
#309 = DIRECTION ( 'NONE',  ( -1.000000000000000000, 0.000000000000000000, 9.106159978880878627E-17 ) ) ;
#310 = EDGE_CURVE ( 'NONE', #17, #170, #258, .T. ) ;
#311 = CARTESIAN_POINT ( 'NONE',  ( 0.000000000000000000, 1.000000000000000000, -1.299999999999999822 ) ) ;
#312 = DIRECTION ( 'NONE',  ( 9.106159978880878627E-17, -0.000000000000000000, 1.000000000000000000 ) ) ;
#313 = EDGE_CURVE ( 'NONE', #107, #271, #24, .T. ) ;
#314 =( NAMED_UNIT ( * ) PLANE_ANGLE_UNIT ( ) SI_UNIT ( $, .RADIAN. ) );
#315 = VECTOR ( 'NONE', #309, 39.37007874015748143 ) ;
#316 = FACE_OUTER_BOUND ( 'NONE', #15, .T. ) ;
#317 = LINE ( 'NONE', #288, #59 ) ;
#318 = MECHANICAL_DESIGN_GEOMETRIC_PRESENTATION_REPRESENTATION (  '', ( #257 ), #285 ) ;
#319 = CARTESIAN_POINT ( 'NONE',  ( -1.399999999999999245, 1.000000000000000000, 4.249541323477739826E-16 ) ) ;
#320 = ADVANCED_FACE ( 'NONE', ( #50 ), #23, .F. ) ;
#321 = DIRECTION ( 'NONE',  ( 1.437814733507507139E-16, 0.000000000000000000, -1.000000000000000000 ) ) ;
#322 = ORIENTED_EDGE ( 'NONE', *, *, #56, .F. ) ;
#323 = CARTESIAN_POINT ( 'NONE',  ( 1.499999999999999778, -1.000000000000000000, -1.399999999999999911 ) ) ;
#324 = EDGE_LOOP ( 'NONE', ( #115, #90, #61, #140 ) ) ;
#325 = ADVANCED_FACE ( 'NONE', ( #101 ), #184, .T. ) ;
#326 = CARTESIAN_POINT ( 'NONE',  ( 1.399999999999999467, 1.000000000000000000, 1.300000000000000266 ) ) ;
#327 = VECTOR ( 'NONE', #207, 39.37007874015748143 ) ;
#328 = ORIENTED_EDGE ( 'NONE', *, *, #234, .T. ) ;
#329 =( LENGTH_UNIT ( ) NAMED_UNIT ( * ) SI_UNIT ( $, .METRE. ) );
#330 = ORIENTED_EDGE ( 'NONE', *, *, #7, .F. ) ;
#331 = CARTESIAN_POINT ( 'NONE',  ( -1.399999999999999467, -0.8999999999999999112, -1.299999999999999822 ) ) ;
#332 = ADVANCED_FACE ( 'NONE', ( #154 ), #74, .F. ) ;
#333 = EDGE_LOOP ( 'NONE', ( #305, #322, #72, #192 ) ) ;
#334 = LINE ( 'NONE', #87, #3 ) ;
#335 = AXIS2_PLACEMENT_3D ( 'NONE', #319, #12, #187 ) ;
ENDSEC;
END-ISO-10303-21;
