ISO-10303-21;
HEADER;
FILE_DESCRIPTION (( 'STEP AP214' ),
    '1' );
FILE_NAME ('Coin.STEP',
    '2026-04-14T23:44:53',
    ( '' ),
    ( '' ),
    'SwSTEP 2.0',
    'SolidWorks 2025',
    '' );
FILE_SCHEMA (( 'AUTOMOTIVE_DESIGN' ));
ENDSEC;

DATA;
#1 = EDGE_CURVE ( 'NONE', #297, #86, #531, .T. ) ;
#2 = ORIENTED_EDGE ( 'NONE', *, *, #347, .F. ) ;
#3 = CARTESIAN_POINT ( 'NONE',  ( 1.000000000000000000, 1.224646799147353207E-16, 0.2000000000000000389 ) ) ;
#4 = EDGE_LOOP ( 'NONE', ( #538, #266, #341, #526 ) ) ;
#5 = EDGE_CURVE ( 'NONE', #145, #289, #350, .T. ) ;
#6 = LINE ( 'NONE', #181, #517 ) ;
#7 = ORIENTED_EDGE ( 'NONE', *, *, #259, .F. ) ;
#8 = VECTOR ( 'NONE', #135, 39.37007874015748143 ) ;
#9 = DIRECTION ( 'NONE',  ( -1.000000000000000000, 0.000000000000000000, 0.000000000000000000 ) ) ;
#10 = VERTEX_POINT ( 'NONE', #41 ) ;
#11 = DIRECTION ( 'NONE',  ( -0.000000000000000000, -0.000000000000000000, -1.000000000000000000 ) ) ;
#12 = ADVANCED_FACE ( 'NONE', ( #217 ), #33, .T. ) ;
#13 = VERTEX_POINT ( 'NONE', #346 ) ;
#14 = DIRECTION ( 'NONE',  ( -0.000000000000000000, -0.000000000000000000, -1.000000000000000000 ) ) ;
#15 = VECTOR ( 'NONE', #327, 39.37007874015748143 ) ;
#16 = VECTOR ( 'NONE', #552, 39.37007874015748143 ) ;
#17 = CARTESIAN_POINT ( 'NONE',  ( -0.1250000000000000000, -0.7499999999999998890, -0.1500000000000001055 ) ) ;
#18 = LINE ( 'NONE', #202, #360 ) ;
#19 = CARTESIAN_POINT ( 'NONE',  ( 0.1250000000000000000, -0.7499999999999998890, 0.2000000000000001221 ) ) ;
#20 = ORIENTED_EDGE ( 'NONE', *, *, #426, .T. ) ;
#21 =( GEOMETRIC_REPRESENTATION_CONTEXT ( 3 ) GLOBAL_UNCERTAINTY_ASSIGNED_CONTEXT ( ( #390 ) ) GLOBAL_UNIT_ASSIGNED_CONTEXT ( ( #443, #399, #178 ) ) REPRESENTATION_CONTEXT ( 'NONE', 'WORKASPACE' ) );
#22 = CYLINDRICAL_SURFACE ( 'NONE', #470, 1.000000000000000000 ) ;
#23 = VECTOR ( 'NONE', #401, 39.37007874015748143 ) ;
#24 = ORIENTED_EDGE ( 'NONE', *, *, #438, .F. ) ;
#25 = DIRECTION ( 'NONE',  ( 0.000000000000000000, -0.000000000000000000, 1.000000000000000000 ) ) ;
#26 = DIRECTION ( 'NONE',  ( -1.000000000000000000, 0.000000000000000000, 0.000000000000000000 ) ) ;
#27 = ORIENTED_EDGE ( 'NONE', *, *, #306, .T. ) ;
#28 = CARTESIAN_POINT ( 'NONE',  ( 0.1250000000000000000, 0.7500000000000002220, -0.1500000000000001055 ) ) ;
#29 = ORIENTED_EDGE ( 'NONE', *, *, #466, .T. ) ;
#30 = LINE ( 'NONE', #208, #243 ) ;
#31 = DIRECTION ( 'NONE',  ( 1.000000000000000000, -0.000000000000000000, 0.000000000000000000 ) ) ;
#32 = AXIS2_PLACEMENT_3D ( 'NONE', #271, #313, #362 ) ;
#33 = PLANE ( 'NONE',  #253 ) ;
#34 = VECTOR ( 'NONE', #95, 39.37007874015748143 ) ;
#35 = DIRECTION ( 'NONE',  ( 1.000000000000000000, 0.000000000000000000, 0.000000000000000000 ) ) ;
#36 = EDGE_CURVE ( 'NONE', #273, #344, #522, .T. ) ;
#37 = CARTESIAN_POINT ( 'NONE',  ( -0.1250000000000000000, -0.7499999999999998890, -0.1500000000000001055 ) ) ;
#38 = ORIENTED_EDGE ( 'NONE', *, *, #387, .F. ) ;
#39 = ADVANCED_FACE ( 'NONE', ( #528 ), #212, .F. ) ;
#40 = CARTESIAN_POINT ( 'NONE',  ( -0.1250000000000000000, -0.7499999999999998890, -0.2000000000000001221 ) ) ;
#41 = CARTESIAN_POINT ( 'NONE',  ( 0.1250000000000000000, -0.7499999999999998890, 0.1500000000000001055 ) ) ;
#42 = APPLICATION_PROTOCOL_DEFINITION ( 'draft international standard', 'automotive_design', 1998, #317 ) ;
#43 = CARTESIAN_POINT ( 'NONE',  ( 0.1250000000000000000, -0.7499999999999998890, -0.1500000000000001055 ) ) ;
#44 = ADVANCED_FACE ( 'NONE', ( #389, #132 ), #80, .F. ) ;
#45 = ORIENTED_EDGE ( 'NONE', *, *, #101, .T. ) ;
#46 = ORIENTED_EDGE ( 'NONE', *, *, #56, .T. ) ;
#47 = EDGE_CURVE ( 'NONE', #448, #559, #568, .T. ) ;
#48 = VERTEX_POINT ( 'NONE', #435 ) ;
#49 = LINE ( 'NONE', #315, #291 ) ;
#50 = ORIENTED_EDGE ( 'NONE', *, *, #574, .T. ) ;
#51 = FACE_OUTER_BOUND ( 'NONE', #314, .T. ) ;
#52 = ORIENTED_EDGE ( 'NONE', *, *, #560, .F. ) ;
#53 = CIRCLE ( 'NONE', #96, 1.250000000000000000 ) ;
#54 = CARTESIAN_POINT ( 'NONE',  ( 0.000000000000000000, 0.000000000000000000, 0.2499999999999992506 ) ) ;
#55 = ORIENTED_EDGE ( 'NONE', *, *, #280, .F. ) ;
#56 = EDGE_CURVE ( 'NONE', #527, #297, #422, .T. ) ;
#57 = DIRECTION ( 'NONE',  ( -0.000000000000000000, -0.000000000000000000, -1.000000000000000000 ) ) ;
#58 = LINE ( 'NONE', #534, #172 ) ;
#59 = VECTOR ( 'NONE', #521, 39.37007874015748143 ) ;
#60 = AXIS2_PLACEMENT_3D ( 'NONE', #365, #14, #544 ) ;
#61 = FACE_OUTER_BOUND ( 'NONE', #219, .T. ) ;
#62 = EDGE_CURVE ( 'NONE', #559, #457, #311, .T. ) ;
#63 = FILL_AREA_STYLE_COLOUR ( '', #339 ) ;
#64 = DIRECTION ( 'NONE',  ( -0.000000000000000000, -0.000000000000000000, -1.000000000000000000 ) ) ;
#65 = VERTEX_POINT ( 'NONE', #3 ) ;
#66 = PLANE ( 'NONE',  #174 ) ;
#67 = CARTESIAN_POINT ( 'NONE',  ( 0.000000000000000000, 0.000000000000000000, -0.2000000000000000389 ) ) ;
#68 = VERTEX_POINT ( 'NONE', #397 ) ;
#69 = AXIS2_PLACEMENT_3D ( 'NONE', #233, #497, #411 ) ;
#70 = CARTESIAN_POINT ( 'NONE',  ( -0.1250000000000000000, 0.7500000000000002220, 0.1500000000000001055 ) ) ;
#71 = CIRCLE ( 'NONE', #358, 1.000000000000000000 ) ;
#72 = ORIENTED_EDGE ( 'NONE', *, *, #549, .F. ) ;
#73 = CARTESIAN_POINT ( 'NONE',  ( -1.000000000000000000, 0.000000000000000000, -0.2000000000000000389 ) ) ;
#74 = LINE ( 'NONE', #28, #487 ) ;
#75 = ORIENTED_EDGE ( 'NONE', *, *, #149, .T. ) ;
#76 = FACE_OUTER_BOUND ( 'NONE', #381, .T. ) ;
#77 = ORIENTED_EDGE ( 'NONE', *, *, #484, .T. ) ;
#78 = EDGE_CURVE ( 'NONE', #273, #48, #575, .T. ) ;
#79 = LINE ( 'NONE', #437, #369 ) ;
#80 = PLANE ( 'NONE',  #189 ) ;
#81 = VECTOR ( 'NONE', #485, 39.37007874015748143 ) ;
#82 = ADVANCED_FACE ( 'NONE', ( #214 ), #486, .T. ) ;
#83 = DIRECTION ( 'NONE',  ( 1.000000000000000000, 0.000000000000000000, -0.000000000000000000 ) ) ;
#84 = CARTESIAN_POINT ( 'NONE',  ( -1.000000000000000000, 0.000000000000000000, -3.503543307086614433 ) ) ;
#85 = DIRECTION ( 'NONE',  ( -1.000000000000000000, 0.000000000000000000, 0.000000000000000000 ) ) ;
#86 = VERTEX_POINT ( 'NONE', #90 ) ;
#87 = CIRCLE ( 'NONE', #190, 1.249999999999999778 ) ;
#88 = DIRECTION ( 'NONE',  ( -0.000000000000000000, -0.000000000000000000, -1.000000000000000000 ) ) ;
#89 = ORIENTED_EDGE ( 'NONE', *, *, #537, .F. ) ;
#90 = CARTESIAN_POINT ( 'NONE',  ( -1.000000000000000000, 0.000000000000000000, 0.2000000000000000389 ) ) ;
#91 = VERTEX_POINT ( 'NONE', #267 ) ;
#92 = DIMENSIONAL_EXPONENTS ( 1.000000000000000000, 0.000000000000000000, 0.000000000000000000, 0.000000000000000000, 0.000000000000000000, 0.000000000000000000, 0.000000000000000000 ) ;
#93 = CARTESIAN_POINT ( 'NONE',  ( -1.000000000000000000, 0.000000000000000000, -0.2500000000000008882 ) ) ;
#94 = ORIENTED_EDGE ( 'NONE', *, *, #292, .F. ) ;
#95 = DIRECTION ( 'NONE',  ( -0.000000000000000000, -0.000000000000000000, -1.000000000000000000 ) ) ;
#96 = AXIS2_PLACEMENT_3D ( 'NONE', #54, #11, #150 ) ;
#97 = EDGE_LOOP ( 'NONE', ( #38, #356, #45, #155 ) ) ;
#98 = CIRCLE ( 'NONE', #337, 1.000000000000000000 ) ;
#99 = DIRECTION ( 'NONE',  ( 1.000000000000000000, -0.000000000000000000, 0.000000000000000000 ) ) ;
#100 = ORIENTED_EDGE ( 'NONE', *, *, #274, .T. ) ;
#101 = EDGE_CURVE ( 'NONE', #186, #273, #392, .T. ) ;
#102 = PLANE ( 'NONE',  #272 ) ;
#103 = DIRECTION ( 'NONE',  ( -0.000000000000000000, -0.000000000000000000, -1.000000000000000000 ) ) ;
#104 = EDGE_CURVE ( 'NONE', #344, #448, #302, .T. ) ;
#105 = VECTOR ( 'NONE', #107, 39.37007874015748143 ) ;
#106 = CARTESIAN_POINT ( 'NONE',  ( -0.1250000000000000000, -0.7499999999999998890, 0.1500000000000001055 ) ) ;
#107 = DIRECTION ( 'NONE',  ( -0.000000000000000000, -0.000000000000000000, -1.000000000000000000 ) ) ;
#108 = FACE_OUTER_BOUND ( 'NONE', #361, .T. ) ;
#109 = ORIENTED_EDGE ( 'NONE', *, *, #499, .T. ) ;
#110 = LENGTH_MEASURE_WITH_UNIT ( LENGTH_MEASURE( 0.02539999999999999897 ), #375 );
#111 = DIRECTION ( 'NONE',  ( -0.000000000000000000, -0.000000000000000000, -1.000000000000000000 ) ) ;
#112 = ORIENTED_EDGE ( 'NONE', *, *, #440, .T. ) ;
#113 =( CONVERSION_BASED_UNIT ( 'INCH', #511 ) LENGTH_UNIT ( ) NAMED_UNIT ( #92 ) );
#114 = AXIS2_PLACEMENT_3D ( 'NONE', #434, #127, #83 ) ;
#115 = AXIS2_PLACEMENT_3D ( 'NONE', #220, #307, #85 ) ;
#116 = DIRECTION ( 'NONE',  ( -1.000000000000000000, 0.000000000000000000, 0.000000000000000000 ) ) ;
#117 = AXIS2_PLACEMENT_3D ( 'NONE', #301, #215, #478 ) ;
#118 = ORIENTED_EDGE ( 'NONE', *, *, #5, .F. ) ;
#119 = SURFACE_STYLE_USAGE ( .BOTH. , #520 ) ;
#120 = FACE_OUTER_BOUND ( 'NONE', #227, .T. ) ;
#121 = ORIENTED_EDGE ( 'NONE', *, *, #556, .T. ) ;
#122 =( LENGTH_UNIT ( ) NAMED_UNIT ( * ) SI_UNIT ( $, .METRE. ) );
#123 = CARTESIAN_POINT ( 'NONE',  ( 1.250000000000000000, 1.530808498934191571E-16, 0.2499999999999992506 ) ) ;
#124 = DIRECTION ( 'NONE',  ( 1.000000000000000000, 0.000000000000000000, 0.000000000000000000 ) ) ;
#125 = ADVANCED_FACE ( 'NONE', ( #454 ), #102, .F. ) ;
#126 = APPLICATION_PROTOCOL_DEFINITION ( 'draft international standard', 'automotive_design', 1998, #196 ) ;
#127 = DIRECTION ( 'NONE',  ( 0.000000000000000000, 0.000000000000000000, 1.000000000000000000 ) ) ;
#128 = CARTESIAN_POINT ( 'NONE',  ( -0.1250000000000000000, -0.7499999999999998890, -0.1500000000000001055 ) ) ;
#129 = EDGE_CURVE ( 'NONE', #86, #65, #550, .T. ) ;
#130 = DIRECTION ( 'NONE',  ( 0.000000000000000000, -1.000000000000000000, 0.000000000000000000 ) ) ;
#131 = ORIENTED_EDGE ( 'NONE', *, *, #158, .T. ) ;
#132 = FACE_BOUND ( 'NONE', #367, .T. ) ;
#133 = VERTEX_POINT ( 'NONE', #277 ) ;
#134 = PRESENTATION_LAYER_ASSIGNMENT (  '', '', ( #385 ) ) ;
#135 = DIRECTION ( 'NONE',  ( -0.000000000000000000, -0.000000000000000000, -1.000000000000000000 ) ) ;
#136 = VECTOR ( 'NONE', #460, 39.37007874015748143 ) ;
#137 = ORIENTED_EDGE ( 'NONE', *, *, #419, .T. ) ;
#138 = CARTESIAN_POINT ( 'NONE',  ( 0.1250000000000000000, -0.7499999999999998890, -0.1500000000000001055 ) ) ;
#139 = EDGE_CURVE ( 'NONE', #493, #455, #53, .T. ) ;
#140 = ORIENTED_EDGE ( 'NONE', *, *, #249, .T. ) ;
#141 = DIRECTION ( 'NONE',  ( 0.000000000000000000, -0.000000000000000000, -1.000000000000000000 ) ) ;
#142 = VERTEX_POINT ( 'NONE', #413 ) ;
#143 = CARTESIAN_POINT ( 'NONE',  ( 0.000000000000000000, 0.000000000000000000, -0.2500000000000008882 ) ) ;
#144 = AXIS2_PLACEMENT_3D ( 'NONE', #458, #191, #9 ) ;
#145 = VERTEX_POINT ( 'NONE', #543 ) ;
#146 = MECHANICAL_DESIGN_GEOMETRIC_PRESENTATION_REPRESENTATION (  '', ( #385 ), #414 ) ;
#147 = DIRECTION ( 'NONE',  ( 0.000000000000000000, -1.000000000000000000, 0.000000000000000000 ) ) ;
#148 = PRODUCT_DEFINITION_SHAPE ( 'NONE', 'NONE',  #408 ) ;
#149 = EDGE_CURVE ( 'NONE', #68, #145, #58, .T. ) ;
#150 = DIRECTION ( 'NONE',  ( -1.000000000000000000, 0.000000000000000000, 0.000000000000000000 ) ) ;
#151 = LINE ( 'NONE', #70, #563 ) ;
#152 = DIRECTION ( 'NONE',  ( -1.000000000000000000, 0.000000000000000000, 0.000000000000000000 ) ) ;
#153 = CLOSED_SHELL ( 'NONE', ( #207, #82, #355, #44, #570, #433, #459, #224, #504, #378, #125, #166, #508, #512, #310, #530, #12, #453, #540, #39 ) ) ;
#154 = DIRECTION ( 'NONE',  ( -0.000000000000000000, -0.000000000000000000, -1.000000000000000000 ) ) ;
#155 = ORIENTED_EDGE ( 'NONE', *, *, #36, .T. ) ;
#156 = DIRECTION ( 'NONE',  ( -1.000000000000000000, -0.000000000000000000, 0.000000000000000000 ) ) ;
#157 = ORIENTED_EDGE ( 'NONE', *, *, #419, .F. ) ;
#158 = EDGE_CURVE ( 'NONE', #230, #182, #496, .T. ) ;
#159 = CARTESIAN_POINT ( 'NONE',  ( 1.000000000000000000, 1.224646799147353207E-16, 0.2499999999999992506 ) ) ;
#160 = CARTESIAN_POINT ( 'NONE',  ( 0.1250000000000000000, 0.7500000000000002220, -0.2000000000000001221 ) ) ;
#161 = ORIENTED_EDGE ( 'NONE', *, *, #259, .T. ) ;
#162 = AXIS2_PLACEMENT_3D ( 'NONE', #425, #373, #26 ) ;
#163 = PLANE ( 'NONE',  #423 ) ;
#164 = ORIENTED_EDGE ( 'NONE', *, *, #440, .F. ) ;
#165 = FILL_AREA_STYLE ('',( #63 ) ) ;
#166 = ADVANCED_FACE ( 'NONE', ( #51 ), #323, .F. ) ;
#167 = CARTESIAN_POINT ( 'NONE',  ( -1.250000000000000000, 0.000000000000000000, 0.2499999999999992506 ) ) ;
#168 = DIRECTION ( 'NONE',  ( 0.000000000000000000, 1.000000000000000000, 0.000000000000000000 ) ) ;
#169 = DIRECTION ( 'NONE',  ( -0.000000000000000000, -1.000000000000000000, 0.000000000000000000 ) ) ;
#170 = ORIENTED_EDGE ( 'NONE', *, *, #333, .F. ) ;
#171 = PLANE ( 'NONE',  #188 ) ;
#172 = VECTOR ( 'NONE', #185, 39.37007874015748143 ) ;
#173 = LINE ( 'NONE', #456, #34 ) ;
#174 = AXIS2_PLACEMENT_3D ( 'NONE', #197, #561, #430 ) ;
#175 = CARTESIAN_POINT ( 'NONE',  ( -0.1250000000000000000, 0.7500000000000002220, -0.2000000000000001221 ) ) ;
#176 = EDGE_LOOP ( 'NONE', ( #285, #203, #89, #465 ) ) ;
#177 = CARTESIAN_POINT ( 'NONE',  ( 0.000000000000000000, 0.000000000000000000, -3.503543307086614433 ) ) ;
#178 =( NAMED_UNIT ( * ) SI_UNIT ( $, .STERADIAN. ) SOLID_ANGLE_UNIT ( ) );
#179 = ORIENTED_EDGE ( 'NONE', *, *, #129, .F. ) ;
#180 = EDGE_CURVE ( 'NONE', #297, #527, #263, .T. ) ;
#181 = CARTESIAN_POINT ( 'NONE',  ( -0.1250000000000000000, -0.7499999999999998890, 0.2000000000000001221 ) ) ;
#182 = VERTEX_POINT ( 'NONE', #93 ) ;
#183 = DIRECTION ( 'NONE',  ( 0.000000000000000000, 1.000000000000000000, 0.000000000000000000 ) ) ;
#184 = ORIENTED_EDGE ( 'NONE', *, *, #104, .F. ) ;
#185 = DIRECTION ( 'NONE',  ( -0.000000000000000000, -0.000000000000000000, 1.000000000000000000 ) ) ;
#186 = VERTEX_POINT ( 'NONE', #17 ) ;
#187 = LINE ( 'NONE', #322, #279 ) ;
#188 = AXIS2_PLACEMENT_3D ( 'NONE', #525, #296, #475 ) ;
#189 = AXIS2_PLACEMENT_3D ( 'NONE', #255, #447, #524 ) ;
#190 = AXIS2_PLACEMENT_3D ( 'NONE', #143, #57, #231 ) ;
#191 = DIRECTION ( 'NONE',  ( -0.000000000000000000, -0.000000000000000000, -1.000000000000000000 ) ) ;
#192 = DIRECTION ( 'NONE',  ( -0.000000000000000000, -0.000000000000000000, -1.000000000000000000 ) ) ;
#193 =( NAMED_UNIT ( * ) PLANE_ANGLE_UNIT ( ) SI_UNIT ( $, .RADIAN. ) );
#194 = CYLINDRICAL_SURFACE ( 'NONE', #565, 1.000000000000000000 ) ;
#195 = EDGE_LOOP ( 'NONE', ( #100, #27 ) ) ;
#196 = APPLICATION_CONTEXT ( 'automotive_design' ) ;
#197 = CARTESIAN_POINT ( 'NONE',  ( 6.146657985744597172E-17, 0.000000000000000000, 0.2000000000000001221 ) ) ;
#198 = VECTOR ( 'NONE', #264, 39.37007874015748143 ) ;
#199 = CARTESIAN_POINT ( 'NONE',  ( -0.1250000000000000000, -0.7499999999999998890, -0.1500000000000001055 ) ) ;
#200 = ORIENTED_EDGE ( 'NONE', *, *, #249, .F. ) ;
#201 = FACE_OUTER_BOUND ( 'NONE', #354, .T. ) ;
#202 = CARTESIAN_POINT ( 'NONE',  ( -0.1250000000000000000, 0.7500000000000002220, -0.1500000000000001055 ) ) ;
#203 = ORIENTED_EDGE ( 'NONE', *, *, #228, .F. ) ;
#204 = LINE ( 'NONE', #474, #209 ) ;
#205 = DIRECTION ( 'NONE',  ( -0.000000000000000000, -0.000000000000000000, -1.000000000000000000 ) ) ;
#206 = ORIENTED_EDGE ( 'NONE', *, *, #5, .T. ) ;
#207 = ADVANCED_FACE ( 'NONE', ( #370 ), #539, .F. ) ;
#208 = CARTESIAN_POINT ( 'NONE',  ( -0.1250000000000000000, 0.7500000000000002220, -0.1500000000000001055 ) ) ;
#209 = VECTOR ( 'NONE', #547, 39.37007874015748143 ) ;
#210 = CARTESIAN_POINT ( 'NONE',  ( 0.000000000000000000, 0.000000000000000000, 0.2499999999999992506 ) ) ;
#211 = CIRCLE ( 'NONE', #396, 1.250000000000000000 ) ;
#212 = PLANE ( 'NONE',  #325 ) ;
#213 = FACE_BOUND ( 'NONE', #321, .T. ) ;
#214 = FACE_OUTER_BOUND ( 'NONE', #444, .T. ) ;
#215 = DIRECTION ( 'NONE',  ( 0.000000000000000000, 0.000000000000000000, 1.000000000000000000 ) ) ;
#216 = DIRECTION ( 'NONE',  ( -1.000000000000000000, 0.000000000000000000, 0.000000000000000000 ) ) ;
#217 = FACE_OUTER_BOUND ( 'NONE', #472, .T. ) ;
#218 = VECTOR ( 'NONE', #462, 39.37007874015748143 ) ;
#219 = EDGE_LOOP ( 'NONE', ( #377, #161, #417, #304 ) ) ;
#220 = CARTESIAN_POINT ( 'NONE',  ( 0.000000000000000000, 0.000000000000000000, 0.2499999999999992506 ) ) ;
#221 = ORIENTED_EDGE ( 'NONE', *, *, #158, .F. ) ;
#222 = DIRECTION ( 'NONE',  ( -0.000000000000000000, -0.000000000000000000, 1.000000000000000000 ) ) ;
#223 = ORIENTED_EDGE ( 'NONE', *, *, #306, .F. ) ;
#224 = ADVANCED_FACE ( 'NONE', ( #492 ), #449, .T. ) ;
#225 = LINE ( 'NONE', #501, #320 ) ;
#226 = AXIS2_PLACEMENT_3D ( 'NONE', #177, #88, #490 ) ;
#227 = EDGE_LOOP ( 'NONE', ( #541, #276 ) ) ;
#228 = EDGE_CURVE ( 'NONE', #142, #133, #225, .T. ) ;
#229 = DIRECTION ( 'NONE',  ( -1.000000000000000000, 0.000000000000000000, 0.000000000000000000 ) ) ;
#230 = VERTEX_POINT ( 'NONE', #406 ) ;
#231 = DIRECTION ( 'NONE',  ( -1.000000000000000000, 0.000000000000000000, 0.000000000000000000 ) ) ;
#232 = PRODUCT ( 'Coin', 'Coin', '', ( #483 ) ) ;
#233 = CARTESIAN_POINT ( 'NONE',  ( 0.000000000000000000, 0.000000000000000000, -0.2500000000000008882 ) ) ;
#234 = CIRCLE ( 'NONE', #489, 1.000000000000000000 ) ;
#235 = AXIS2_PLACEMENT_3D ( 'NONE', #463, #152, #334 ) ;
#236 = LINE ( 'NONE', #199, #309 ) ;
#237 = PLANE ( 'NONE',  #348 ) ;
#238 = EDGE_LOOP ( 'NONE', ( #410, #384 ) ) ;
#239 = SURFACE_STYLE_FILL_AREA ( #165 ) ;
#240 = CARTESIAN_POINT ( 'NONE',  ( -0.1250000000000000000, 0.7500000000000002220, -0.1500000000000001055 ) ) ;
#241 = ORIENTED_EDGE ( 'NONE', *, *, #256, .F. ) ;
#242 = PLANE ( 'NONE',  #265 ) ;
#243 = VECTOR ( 'NONE', #342, 39.37007874015748143 ) ;
#244 = CYLINDRICAL_SURFACE ( 'NONE', #162, 1.000000000000000000 ) ;
#245 = ORIENTED_EDGE ( 'NONE', *, *, #499, .F. ) ;
#246 =( NAMED_UNIT ( * ) SI_UNIT ( $, .STERADIAN. ) SOLID_ANGLE_UNIT ( ) );
#247 = DIRECTION ( 'NONE',  ( -1.000000000000000000, 0.000000000000000000, 0.000000000000000000 ) ) ;
#248 = VERTEX_POINT ( 'NONE', #275 ) ;
#249 = EDGE_CURVE ( 'NONE', #515, #182, #359, .T. ) ;
#250 = FACE_BOUND ( 'NONE', #488, .T. ) ;
#251 = PLANE ( 'NONE',  #262 ) ;
#252 = EDGE_LOOP ( 'NONE', ( #7, #374, #491, #519 ) ) ;
#253 = AXIS2_PLACEMENT_3D ( 'NONE', #441, #130, #258 ) ;
#254 = DIRECTION ( 'NONE',  ( 1.000000000000000000, 0.000000000000000000, 0.000000000000000000 ) ) ;
#255 = CARTESIAN_POINT ( 'NONE',  ( -6.829619984160650651E-17, 0.000000000000000000, -0.1999999999999999556 ) ) ;
#256 = EDGE_CURVE ( 'NONE', #10, #289, #49, .T. ) ;
#257 = DIRECTION ( 'NONE',  ( -0.000000000000000000, 1.000000000000000000, 0.000000000000000000 ) ) ;
#258 = DIRECTION ( 'NONE',  ( 0.000000000000000000, -0.000000000000000000, -1.000000000000000000 ) ) ;
#259 = EDGE_CURVE ( 'NONE', #527, #65, #173, .T. ) ;
#260 = DIRECTION ( 'NONE',  ( 0.000000000000000000, 0.000000000000000000, 1.000000000000000000 ) ) ;
#261 = EDGE_LOOP ( 'NONE', ( #450, #532, #164, #429 ) ) ;
#262 = AXIS2_PLACEMENT_3D ( 'NONE', #481, #257, #25 ) ;
#263 = CIRCLE ( 'NONE', #32, 1.000000000000000000 ) ;
#264 = DIRECTION ( 'NONE',  ( -0.000000000000000000, -0.000000000000000000, -1.000000000000000000 ) ) ;
#265 = AXIS2_PLACEMENT_3D ( 'NONE', #283, #505, #287 ) ;
#266 = ORIENTED_EDGE ( 'NONE', *, *, #101, .F. ) ;
#267 = CARTESIAN_POINT ( 'NONE',  ( -0.1250000000000000000, 0.7500000000000002220, 0.2000000000000001221 ) ) ;
#268 = ORIENTED_EDGE ( 'NONE', *, *, #477, .T. ) ;
#269 = DIRECTION ( 'NONE',  ( 0.000000000000000000, 0.000000000000000000, -1.000000000000000000 ) ) ;
#270 = EDGE_LOOP ( 'NONE', ( #72, #305, #555, #223 ) ) ;
#271 = CARTESIAN_POINT ( 'NONE',  ( 0.000000000000000000, 0.000000000000000000, 0.2499999999999992506 ) ) ;
#272 = AXIS2_PLACEMENT_3D ( 'NONE', #368, #99, #269 ) ;
#273 = VERTEX_POINT ( 'NONE', #138 ) ;
#274 = EDGE_CURVE ( 'NONE', #404, #248, #87, .T. ) ;
#275 = CARTESIAN_POINT ( 'NONE',  ( 1.249999999999999778, 1.530808498934191078E-16, -0.2500000000000008882 ) ) ;
#276 = ORIENTED_EDGE ( 'NONE', *, *, #139, .F. ) ;
#277 = CARTESIAN_POINT ( 'NONE',  ( 0.1250000000000000000, 0.7500000000000002220, 0.2000000000000001221 ) ) ;
#278 = DIRECTION ( 'NONE',  ( -0.000000000000000000, -1.000000000000000000, -0.000000000000000000 ) ) ;
#279 = VECTOR ( 'NONE', #500, 39.37007874015748143 ) ;
#280 = EDGE_CURVE ( 'NONE', #13, #91, #187, .T. ) ;
#281 = CIRCLE ( 'NONE', #542, 1.000000000000000000 ) ;
#282 = CARTESIAN_POINT ( 'NONE',  ( 0.000000000000000000, 0.000000000000000000, -3.503543307086614433 ) ) ;
#283 = CARTESIAN_POINT ( 'NONE',  ( -0.1250000000000000000, -0.7499999999999998890, -0.1500000000000001055 ) ) ;
#284 = DIRECTION ( 'NONE',  ( -1.000000000000000000, 0.000000000000000000, 0.000000000000000000 ) ) ;
#285 = ORIENTED_EDGE ( 'NONE', *, *, #333, .T. ) ;
#286 = PRODUCT_DEFINITION_CONTEXT ( 'detailed design', #196, 'design' ) ;
#287 = DIRECTION ( 'NONE',  ( 0.000000000000000000, -0.000000000000000000, 1.000000000000000000 ) ) ;
#288 = DIRECTION ( 'NONE',  ( -1.000000000000000000, 0.000000000000000000, -0.000000000000000000 ) ) ;
#289 = VERTEX_POINT ( 'NONE', #403 ) ;
#290 = PLANE ( 'NONE',  #235 ) ;
#291 = VECTOR ( 'NONE', #222, 39.37007874015748143 ) ;
#292 = EDGE_CURVE ( 'NONE', #91, #145, #6, .T. ) ;
#293 = CARTESIAN_POINT ( 'NONE',  ( 0.000000000000000000, 0.000000000000000000, -3.503543307086614433 ) ) ;
#294 = ORIENTED_EDGE ( 'NONE', *, *, #228, .T. ) ;
#295 = FACE_OUTER_BOUND ( 'NONE', #97, .T. ) ;
#296 = DIRECTION ( 'NONE',  ( -1.000000000000000000, 0.000000000000000000, 0.000000000000000000 ) ) ;
#297 = VERTEX_POINT ( 'NONE', #513 ) ;
#298 = LINE ( 'NONE', #431, #533 ) ;
#299 = CARTESIAN_POINT ( 'NONE',  ( 0.000000000000000000, 0.000000000000000000, -0.1500000000000001055 ) ) ;
#300 = VECTOR ( 'NONE', #183, 39.37007874015748143 ) ;
#301 = CARTESIAN_POINT ( 'NONE',  ( 1.024442997624097351E-16, 0.000000000000000000, 0.2499999999999993061 ) ) ;
#302 = LINE ( 'NONE', #482, #300 ) ;
#303 = PRODUCT_RELATED_PRODUCT_CATEGORY ( 'part', '', ( #232 ) ) ;
#304 = ORIENTED_EDGE ( 'NONE', *, *, #1, .F. ) ;
#305 = ORIENTED_EDGE ( 'NONE', *, *, #139, .T. ) ;
#306 = EDGE_CURVE ( 'NONE', #248, #404, #514, .T. ) ;
#307 = DIRECTION ( 'NONE',  ( -0.000000000000000000, -0.000000000000000000, -1.000000000000000000 ) ) ;
#308 = EDGE_LOOP ( 'NONE', ( #179, #24 ) ) ;
#309 = VECTOR ( 'NONE', #111, 39.37007874015748143 ) ;
#310 = ADVANCED_FACE ( 'NONE', ( #506 ), #163, .F. ) ;
#311 = LINE ( 'NONE', #394, #23 ) ;
#312 = VERTEX_POINT ( 'NONE', #240 ) ;
#313 = DIRECTION ( 'NONE',  ( -0.000000000000000000, -0.000000000000000000, -1.000000000000000000 ) ) ;
#314 = EDGE_LOOP ( 'NONE', ( #206, #241, #245, #75 ) ) ;
#315 = CARTESIAN_POINT ( 'NONE',  ( 0.1250000000000000000, -0.7499999999999998890, 0.1500000000000001055 ) ) ;
#316 = EDGE_CURVE ( 'NONE', #48, #448, #74, .T. ) ;
#317 = APPLICATION_CONTEXT ( 'automotive_design' ) ;
#318 = ORIENTED_EDGE ( 'NONE', *, *, #62, .F. ) ;
#319 = DIRECTION ( 'NONE',  ( -0.000000000000000000, -0.000000000000000000, -1.000000000000000000 ) ) ;
#320 = VECTOR ( 'NONE', #409, 39.37007874015748143 ) ;
#321 = EDGE_LOOP ( 'NONE', ( #357, #46 ) ) ;
#322 = CARTESIAN_POINT ( 'NONE',  ( -0.1250000000000000000, 0.7500000000000002220, 0.1500000000000001055 ) ) ;
#323 = PLANE ( 'NONE',  #469 ) ;
#324 = DIRECTION ( 'NONE',  ( -1.000000000000000000, -0.000000000000000000, -0.000000000000000000 ) ) ;
#325 = AXIS2_PLACEMENT_3D ( 'NONE', #299, #260, #216 ) ;
#326 = UNCERTAINTY_MEASURE_WITH_UNIT (LENGTH_MEASURE( 1.000000000000000082E-05 ), #113, 'distance_accuracy_value', 'NONE');
#327 = DIRECTION ( 'NONE',  ( 0.000000000000000000, 1.000000000000000000, 0.000000000000000000 ) ) ;
#328 = DIRECTION ( 'NONE',  ( -0.000000000000000000, -0.000000000000000000, -1.000000000000000000 ) ) ;
#329 = EDGE_LOOP ( 'NONE', ( #157, #221 ) ) ;
#330 = CARTESIAN_POINT ( 'NONE',  ( -0.1250000000000000000, 0.7500000000000002220, -0.2000000000000001221 ) ) ;
#331 = CARTESIAN_POINT ( 'NONE',  ( -1.249999999999999778, 0.000000000000000000, -0.2500000000000008882 ) ) ;
#332 = ORIENTED_EDGE ( 'NONE', *, *, #426, .F. ) ;
#333 = EDGE_CURVE ( 'NONE', #289, #133, #340, .T. ) ;
#334 = DIRECTION ( 'NONE',  ( 0.000000000000000000, 0.000000000000000000, 1.000000000000000000 ) ) ;
#335 = FACE_OUTER_BOUND ( 'NONE', #364, .T. ) ;
#336 = ORIENTED_EDGE ( 'NONE', *, *, #398, .T. ) ;
#337 = AXIS2_PLACEMENT_3D ( 'NONE', #380, #546, #284 ) ;
#338 = CARTESIAN_POINT ( 'NONE',  ( 1.000000000000000000, 1.224646799147353207E-16, -0.2000000000000000389 ) ) ;
#339 = COLOUR_RGB ( '',0.7921568627450980005, 0.8196078431372548767, 0.9333333333333333481 ) ;
#340 = LINE ( 'NONE', #19, #136 ) ;
#341 = ORIENTED_EDGE ( 'NONE', *, *, #466, .F. ) ;
#342 = DIRECTION ( 'NONE',  ( -0.000000000000000000, -0.000000000000000000, -1.000000000000000000 ) ) ;
#343 = PLANE ( 'NONE',  #117 ) ;
#344 = VERTEX_POINT ( 'NONE', #464 ) ;
#345 = CARTESIAN_POINT ( 'NONE',  ( 1.000000000000000000, 1.224646799147353207E-16, -3.503543307086614433 ) ) ;
#346 = CARTESIAN_POINT ( 'NONE',  ( -0.1250000000000000000, 0.7500000000000002220, 0.1500000000000001055 ) ) ;
#347 = EDGE_CURVE ( 'NONE', #515, #551, #281, .T. ) ;
#348 = AXIS2_PLACEMENT_3D ( 'NONE', #37, #31, #388 ) ;
#349 = DIRECTION ( 'NONE',  ( -1.000000000000000000, 0.000000000000000000, 0.000000000000000000 ) ) ;
#350 = LINE ( 'NONE', #573, #503 ) ;
#351 = CARTESIAN_POINT ( 'NONE',  ( 0.000000000000000000, 0.000000000000000000, 0.000000000000000000 ) ) ;
#352 = ORIENTED_EDGE ( 'NONE', *, *, #47, .F. ) ;
#353 = CARTESIAN_POINT ( 'NONE',  ( 0.1250000000000000000, -0.7499999999999998890, -0.1500000000000001055 ) ) ;
#354 = EDGE_LOOP ( 'NONE', ( #184, #564, #476, #439 ) ) ;
#355 = ADVANCED_FACE ( 'NONE', ( #61 ), #22, .F. ) ;
#356 = ORIENTED_EDGE ( 'NONE', *, *, #366, .F. ) ;
#357 = ORIENTED_EDGE ( 'NONE', *, *, #180, .T. ) ;
#358 = AXIS2_PLACEMENT_3D ( 'NONE', #376, #64, #428 ) ;
#359 = LINE ( 'NONE', #536, #446 ) ;
#360 = VECTOR ( 'NONE', #156, 39.37007874015748143 ) ;
#361 = EDGE_LOOP ( 'NONE', ( #479, #2, #140, #137 ) ) ;
#362 = DIRECTION ( 'NONE',  ( -1.000000000000000000, 0.000000000000000000, 0.000000000000000000 ) ) ;
#363 = EDGE_CURVE ( 'NONE', #551, #515, #71, .T. ) ;
#364 = EDGE_LOOP ( 'NONE', ( #318, #400, #29, #402 ) ) ;
#365 = CARTESIAN_POINT ( 'NONE',  ( 0.000000000000000000, 0.000000000000000000, -3.503543307086614433 ) ) ;
#366 = EDGE_CURVE ( 'NONE', #186, #457, #236, .T. ) ;
#367 = EDGE_LOOP ( 'NONE', ( #407, #498, #495, #510 ) ) ;
#368 = CARTESIAN_POINT ( 'NONE',  ( 0.1250000000000000000, -0.7499999999999998890, 0.1500000000000001055 ) ) ;
#369 = VECTOR ( 'NONE', #169, 39.37007874015748143 ) ;
#370 = FACE_OUTER_BOUND ( 'NONE', #468, .T. ) ;
#371 = DIRECTION ( 'NONE',  ( -0.000000000000000000, -0.000000000000000000, -1.000000000000000000 ) ) ;
#372 = CARTESIAN_POINT ( 'NONE',  ( 0.1250000000000000000, -0.7499999999999998890, 0.1500000000000001055 ) ) ;
#373 = DIRECTION ( 'NONE',  ( -0.000000000000000000, -0.000000000000000000, -1.000000000000000000 ) ) ;
#374 = ORIENTED_EDGE ( 'NONE', *, *, #180, .F. ) ;
#375 =( LENGTH_UNIT ( ) NAMED_UNIT ( * ) SI_UNIT ( $, .METRE. ) );
#376 = CARTESIAN_POINT ( 'NONE',  ( 0.000000000000000000, 0.000000000000000000, -0.2000000000000000389 ) ) ;
#377 = ORIENTED_EDGE ( 'NONE', *, *, #56, .F. ) ;
#378 = ADVANCED_FACE ( 'NONE', ( #108 ), #194, .F. ) ;
#379 = LINE ( 'NONE', #372, #15 ) ;
#380 = CARTESIAN_POINT ( 'NONE',  ( 0.000000000000000000, 0.000000000000000000, -0.2500000000000008882 ) ) ;
#381 = EDGE_LOOP ( 'NONE', ( #121, #55, #332, #294 ) ) ;
#382 = FACE_OUTER_BOUND ( 'NONE', #308, .T. ) ;
#383 = LINE ( 'NONE', #415, #461 ) ;
#384 = ORIENTED_EDGE ( 'NONE', *, *, #363, .T. ) ;
#385 = STYLED_ITEM ( 'NONE', ( #424 ), #553 ) ;
#386 = LINE ( 'NONE', #566, #105 ) ;
#387 = EDGE_CURVE ( 'NONE', #457, #344, #383, .T. ) ;
#388 = DIRECTION ( 'NONE',  ( 0.000000000000000000, 0.000000000000000000, -1.000000000000000000 ) ) ;
#389 = FACE_OUTER_BOUND ( 'NONE', #238, .T. ) ;
#390 = UNCERTAINTY_MEASURE_WITH_UNIT (LENGTH_MEASURE( 1.000000000000000082E-05 ), #443, 'distance_accuracy_value', 'NONE');
#391 = FACE_BOUND ( 'NONE', #329, .T. ) ;
#392 = LINE ( 'NONE', #128, #516 ) ;
#393 = LINE ( 'NONE', #345, #59 ) ;
#394 = CARTESIAN_POINT ( 'NONE',  ( -0.1250000000000000000, -0.7499999999999998890, -0.2000000000000001221 ) ) ;
#395 = SHAPE_DEFINITION_REPRESENTATION ( #148, #473 ) ;
#396 = AXIS2_PLACEMENT_3D ( 'NONE', #210, #567, #349 ) ;
#397 = CARTESIAN_POINT ( 'NONE',  ( -0.1250000000000000000, -0.7499999999999998890, 0.1500000000000001055 ) ) ;
#398 = EDGE_CURVE ( 'NONE', #48, #312, #18, .T. ) ;
#399 =( NAMED_UNIT ( * ) PLANE_ANGLE_UNIT ( ) SI_UNIT ( $, .RADIAN. ) );
#400 = ORIENTED_EDGE ( 'NONE', *, *, #574, .F. ) ;
#401 = DIRECTION ( 'NONE',  ( -0.000000000000000000, -1.000000000000000000, 0.000000000000000000 ) ) ;
#402 = ORIENTED_EDGE ( 'NONE', *, *, #366, .T. ) ;
#403 = CARTESIAN_POINT ( 'NONE',  ( 0.1250000000000000000, -0.7499999999999998890, 0.2000000000000001221 ) ) ;
#404 = VERTEX_POINT ( 'NONE', #331 ) ;
#405 = PRODUCT_DEFINITION_FORMATION_WITH_SPECIFIED_SOURCE ( 'ANY', '', #232, .NOT_KNOWN. ) ;
#406 = CARTESIAN_POINT ( 'NONE',  ( 1.000000000000000000, 1.224646799147353207E-16, -0.2500000000000008882 ) ) ;
#407 = ORIENTED_EDGE ( 'NONE', *, *, #104, .T. ) ;
#408 = PRODUCT_DEFINITION ( 'UNKNOWN', '', #405, #286 ) ;
#409 = DIRECTION ( 'NONE',  ( -0.000000000000000000, -0.000000000000000000, 1.000000000000000000 ) ) ;
#410 = ORIENTED_EDGE ( 'NONE', *, *, #347, .T. ) ;
#411 = DIRECTION ( 'NONE',  ( -1.000000000000000000, 0.000000000000000000, 0.000000000000000000 ) ) ;
#412 = AXIS2_PLACEMENT_3D ( 'NONE', #471, #328, #562 ) ;
#413 = CARTESIAN_POINT ( 'NONE',  ( 0.1250000000000000000, 0.7500000000000002220, 0.1500000000000001055 ) ) ;
#414 =( GEOMETRIC_REPRESENTATION_CONTEXT ( 3 ) GLOBAL_UNCERTAINTY_ASSIGNED_CONTEXT ( ( #326 ) ) GLOBAL_UNIT_ASSIGNED_CONTEXT ( ( #113, #193, #246 ) ) REPRESENTATION_CONTEXT ( 'NONE', 'WORKASPACE' ) );
#415 = CARTESIAN_POINT ( 'NONE',  ( -0.1250000000000000000, -0.7499999999999998890, -0.2000000000000001221 ) ) ;
#416 = DIRECTION ( 'NONE',  ( -1.000000000000000000, 0.000000000000000000, 0.000000000000000000 ) ) ;
#417 = ORIENTED_EDGE ( 'NONE', *, *, #438, .T. ) ;
#418 = CARTESIAN_POINT ( 'NONE',  ( 1.250000000000000000, 1.530808498934191571E-16, -3.503543307086614433 ) ) ;
#419 = EDGE_CURVE ( 'NONE', #182, #230, #98, .T. ) ;
#420 = DIRECTION ( 'NONE',  ( -1.000000000000000000, 0.000000000000000000, 0.000000000000000000 ) ) ;
#421 = ORIENTED_EDGE ( 'NONE', *, *, #274, .F. ) ;
#422 = CIRCLE ( 'NONE', #115, 1.000000000000000000 ) ;
#423 = AXIS2_PLACEMENT_3D ( 'NONE', #509, #518, #288 ) ;
#424 = PRESENTATION_STYLE_ASSIGNMENT (( #119 ) ) ;
#425 = CARTESIAN_POINT ( 'NONE',  ( 0.000000000000000000, 0.000000000000000000, -3.503543307086614433 ) ) ;
#426 = EDGE_CURVE ( 'NONE', #142, #13, #151, .T. ) ;
#427 = ORIENTED_EDGE ( 'NONE', *, *, #537, .T. ) ;
#428 = DIRECTION ( 'NONE',  ( -1.000000000000000000, 0.000000000000000000, 0.000000000000000000 ) ) ;
#429 = ORIENTED_EDGE ( 'NONE', *, *, #280, .T. ) ;
#430 = DIRECTION ( 'NONE',  ( 1.000000000000000000, 0.000000000000000000, -0.000000000000000000 ) ) ;
#431 = CARTESIAN_POINT ( 'NONE',  ( -0.1250000000000000000, -0.7499999999999998890, 0.1500000000000001055 ) ) ;
#432 = ORIENTED_EDGE ( 'NONE', *, *, #363, .F. ) ;
#433 = ADVANCED_FACE ( 'NONE', ( #502 ), #244, .F. ) ;
#434 = CARTESIAN_POINT ( 'NONE',  ( -1.024442997624100802E-16, 0.000000000000000000, -0.2500000000000006661 ) ) ;
#435 = CARTESIAN_POINT ( 'NONE',  ( 0.1250000000000000000, 0.7500000000000002220, -0.1500000000000001055 ) ) ;
#436 = DIRECTION ( 'NONE',  ( 0.000000000000000000, 0.000000000000000000, 1.000000000000000000 ) ) ;
#437 = CARTESIAN_POINT ( 'NONE',  ( -0.1250000000000000000, -0.7499999999999998890, -0.1500000000000001055 ) ) ;
#438 = EDGE_CURVE ( 'NONE', #65, #86, #234, .T. ) ;
#439 = ORIENTED_EDGE ( 'NONE', *, *, #316, .T. ) ;
#440 = EDGE_CURVE ( 'NONE', #13, #68, #558, .T. ) ;
#441 = CARTESIAN_POINT ( 'NONE',  ( -0.1250000000000000000, 0.7500000000000002220, -0.1500000000000001055 ) ) ;
#442 = AXIS2_PLACEMENT_3D ( 'NONE', #494, #319, #229 ) ;
#443 =( CONVERSION_BASED_UNIT ( 'INCH', #110 ) LENGTH_UNIT ( ) NAMED_UNIT ( #545 ) );
#444 = EDGE_LOOP ( 'NONE', ( #77, #535, #421, #52 ) ) ;
#445 = VECTOR ( 'NONE', #168, 39.37007874015748143 ) ;
#446 = VECTOR ( 'NONE', #103, 39.37007874015748143 ) ;
#447 = DIRECTION ( 'NONE',  ( 0.000000000000000000, 0.000000000000000000, 1.000000000000000000 ) ) ;
#448 = VERTEX_POINT ( 'NONE', #160 ) ;
#449 = CYLINDRICAL_SURFACE ( 'NONE', #60, 1.250000000000000000 ) ;
#450 = ORIENTED_EDGE ( 'NONE', *, *, #292, .T. ) ;
#451 = CARTESIAN_POINT ( 'NONE',  ( -0.1250000000000000000, -0.7499999999999998890, 0.1500000000000001055 ) ) ;
#452 = ORIENTED_EDGE ( 'NONE', *, *, #556, .F. ) ;
#453 = ADVANCED_FACE ( 'NONE', ( #335 ), #237, .T. ) ;
#454 = FACE_OUTER_BOUND ( 'NONE', #176, .T. ) ;
#455 = VERTEX_POINT ( 'NONE', #167 ) ;
#456 = CARTESIAN_POINT ( 'NONE',  ( 1.000000000000000000, 1.224646799147353207E-16, -3.503543307086614433 ) ) ;
#457 = VERTEX_POINT ( 'NONE', #40 ) ;
#458 = CARTESIAN_POINT ( 'NONE',  ( 0.000000000000000000, 0.000000000000000000, 0.2000000000000000389 ) ) ;
#459 = ADVANCED_FACE ( 'NONE', ( #213, #120 ), #343, .T. ) ;
#460 = DIRECTION ( 'NONE',  ( 0.000000000000000000, 1.000000000000000000, 0.000000000000000000 ) ) ;
#461 = VECTOR ( 'NONE', #554, 39.37007874015748143 ) ;
#462 = DIRECTION ( 'NONE',  ( -0.000000000000000000, -1.000000000000000000, -0.000000000000000000 ) ) ;
#463 = CARTESIAN_POINT ( 'NONE',  ( 0.1250000000000000000, -0.7499999999999998890, -0.1500000000000001055 ) ) ;
#464 = CARTESIAN_POINT ( 'NONE',  ( 0.1250000000000000000, -0.7499999999999998890, -0.1999999999999999556 ) ) ;
#465 = ORIENTED_EDGE ( 'NONE', *, *, #256, .T. ) ;
#466 = EDGE_CURVE ( 'NONE', #312, #186, #79, .T. ) ;
#467 = DIRECTION ( 'NONE',  ( -0.000000000000000000, -0.000000000000000000, -1.000000000000000000 ) ) ;
#468 = EDGE_LOOP ( 'NONE', ( #432, #268, #131, #200 ) ) ;
#469 = AXIS2_PLACEMENT_3D ( 'NONE', #451, #147, #141 ) ;
#470 = AXIS2_PLACEMENT_3D ( 'NONE', #293, #205, #416 ) ;
#471 = CARTESIAN_POINT ( 'NONE',  ( 0.000000000000000000, 0.000000000000000000, -0.2500000000000008882 ) ) ;
#472 = EDGE_LOOP ( 'NONE', ( #352, #507, #336, #50 ) ) ;
#473 = ADVANCED_BREP_SHAPE_REPRESENTATION ( 'Coin', ( #553, #480 ), #21 ) ;
#474 = CARTESIAN_POINT ( 'NONE',  ( -0.1250000000000000000, 0.7500000000000002220, 0.2000000000000001221 ) ) ;
#475 = DIRECTION ( 'NONE',  ( 0.000000000000000000, 0.000000000000000000, 1.000000000000000000 ) ) ;
#476 = ORIENTED_EDGE ( 'NONE', *, *, #78, .T. ) ;
#477 = EDGE_CURVE ( 'NONE', #551, #230, #393, .T. ) ;
#478 = DIRECTION ( 'NONE',  ( 1.000000000000000000, 0.000000000000000000, -0.000000000000000000 ) ) ;
#479 = ORIENTED_EDGE ( 'NONE', *, *, #477, .F. ) ;
#480 = AXIS2_PLACEMENT_3D ( 'NONE', #351, #436, #35 ) ;
#481 = CARTESIAN_POINT ( 'NONE',  ( -0.1250000000000000000, 0.7500000000000002220, 0.1500000000000001055 ) ) ;
#482 = CARTESIAN_POINT ( 'NONE',  ( 0.1250000000000000000, -0.7499999999999998890, -0.2000000000000001221 ) ) ;
#483 = PRODUCT_CONTEXT ( 'NONE', #317, 'mechanical' ) ;
#484 = EDGE_CURVE ( 'NONE', #455, #493, #211, .T. ) ;
#485 = DIRECTION ( 'NONE',  ( -1.000000000000000000, -0.000000000000000000, 0.000000000000000000 ) ) ;
#486 = CYLINDRICAL_SURFACE ( 'NONE', #226, 1.250000000000000000 ) ;
#487 = VECTOR ( 'NONE', #371, 39.37007874015748143 ) ;
#488 = EDGE_LOOP ( 'NONE', ( #170, #118, #94, #452 ) ) ;
#489 = AXIS2_PLACEMENT_3D ( 'NONE', #548, #154, #116 ) ;
#490 = DIRECTION ( 'NONE',  ( -1.000000000000000000, 0.000000000000000000, 0.000000000000000000 ) ) ;
#491 = ORIENTED_EDGE ( 'NONE', *, *, #1, .T. ) ;
#492 = FACE_OUTER_BOUND ( 'NONE', #270, .T. ) ;
#493 = VERTEX_POINT ( 'NONE', #123 ) ;
#494 = CARTESIAN_POINT ( 'NONE',  ( 0.000000000000000000, 0.000000000000000000, -3.503543307086614433 ) ) ;
#495 = ORIENTED_EDGE ( 'NONE', *, *, #62, .T. ) ;
#496 = CIRCLE ( 'NONE', #69, 1.000000000000000000 ) ;
#497 = DIRECTION ( 'NONE',  ( -0.000000000000000000, -0.000000000000000000, -1.000000000000000000 ) ) ;
#498 = ORIENTED_EDGE ( 'NONE', *, *, #47, .T. ) ;
#499 = EDGE_CURVE ( 'NONE', #68, #10, #298, .T. ) ;
#500 = DIRECTION ( 'NONE',  ( -0.000000000000000000, -0.000000000000000000, 1.000000000000000000 ) ) ;
#501 = CARTESIAN_POINT ( 'NONE',  ( 0.1250000000000000000, 0.7500000000000002220, 0.1500000000000001055 ) ) ;
#502 = FACE_OUTER_BOUND ( 'NONE', #252, .T. ) ;
#503 = VECTOR ( 'NONE', #124, 39.37007874015748143 ) ;
#504 = ADVANCED_FACE ( 'NONE', ( #391, #569 ), #523, .F. ) ;
#505 = DIRECTION ( 'NONE',  ( 0.000000000000000000, 1.000000000000000000, 0.000000000000000000 ) ) ;
#506 = FACE_OUTER_BOUND ( 'NONE', #529, .T. ) ;
#507 = ORIENTED_EDGE ( 'NONE', *, *, #316, .F. ) ;
#508 = ADVANCED_FACE ( 'NONE', ( #572 ), #171, .F. ) ;
#509 = CARTESIAN_POINT ( 'NONE',  ( 0.000000000000000000, 0.000000000000000000, 0.1500000000000001055 ) ) ;
#510 = ORIENTED_EDGE ( 'NONE', *, *, #387, .T. ) ;
#511 = LENGTH_MEASURE_WITH_UNIT ( LENGTH_MEASURE( 0.02539999999999999897 ), #122 );
#512 = ADVANCED_FACE ( 'NONE', ( #76 ), #251, .F. ) ;
#513 = CARTESIAN_POINT ( 'NONE',  ( -1.000000000000000000, 0.000000000000000000, 0.2499999999999992506 ) ) ;
#514 = CIRCLE ( 'NONE', #412, 1.249999999999999778 ) ;
#515 = VERTEX_POINT ( 'NONE', #73 ) ;
#516 = VECTOR ( 'NONE', #571, 39.37007874015748143 ) ;
#517 = VECTOR ( 'NONE', #278, 39.37007874015748143 ) ;
#518 = DIRECTION ( 'NONE',  ( 0.000000000000000000, 0.000000000000000000, -1.000000000000000000 ) ) ;
#519 = ORIENTED_EDGE ( 'NONE', *, *, #129, .T. ) ;
#520 = SURFACE_SIDE_STYLE ('',( #239 ) ) ;
#521 = DIRECTION ( 'NONE',  ( -0.000000000000000000, -0.000000000000000000, -1.000000000000000000 ) ) ;
#522 = LINE ( 'NONE', #43, #8 ) ;
#523 = PLANE ( 'NONE',  #114 ) ;
#524 = DIRECTION ( 'NONE',  ( 1.000000000000000000, 0.000000000000000000, -0.000000000000000000 ) ) ;
#525 = CARTESIAN_POINT ( 'NONE',  ( -0.1250000000000000000, -0.7499999999999998890, 0.1500000000000001055 ) ) ;
#526 = ORIENTED_EDGE ( 'NONE', *, *, #398, .F. ) ;
#527 = VERTEX_POINT ( 'NONE', #159 ) ;
#528 = FACE_OUTER_BOUND ( 'NONE', #4, .T. ) ;
#529 = EDGE_LOOP ( 'NONE', ( #427, #20, #112, #109 ) ) ;
#530 = ADVANCED_FACE ( 'NONE', ( #201 ), #290, .T. ) ;
#531 = LINE ( 'NONE', #84, #198 ) ;
#532 = ORIENTED_EDGE ( 'NONE', *, *, #149, .F. ) ;
#533 = VECTOR ( 'NONE', #254, 39.37007874015748143 ) ;
#534 = CARTESIAN_POINT ( 'NONE',  ( -0.1250000000000000000, -0.7499999999999998890, 0.1500000000000001055 ) ) ;
#535 = ORIENTED_EDGE ( 'NONE', *, *, #549, .T. ) ;
#536 = CARTESIAN_POINT ( 'NONE',  ( -1.000000000000000000, 0.000000000000000000, -3.503543307086614433 ) ) ;
#537 = EDGE_CURVE ( 'NONE', #10, #142, #379, .T. ) ;
#538 = ORIENTED_EDGE ( 'NONE', *, *, #78, .F. ) ;
#539 = CYLINDRICAL_SURFACE ( 'NONE', #442, 1.000000000000000000 ) ;
#540 = ADVANCED_FACE ( 'NONE', ( #295 ), #242, .T. ) ;
#541 = ORIENTED_EDGE ( 'NONE', *, *, #484, .F. ) ;
#542 = AXIS2_PLACEMENT_3D ( 'NONE', #67, #192, #247 ) ;
#543 = CARTESIAN_POINT ( 'NONE',  ( -0.1250000000000000000, -0.7499999999999998890, 0.2000000000000001221 ) ) ;
#544 = DIRECTION ( 'NONE',  ( -1.000000000000000000, 0.000000000000000000, 0.000000000000000000 ) ) ;
#545 = DIMENSIONAL_EXPONENTS ( 1.000000000000000000, 0.000000000000000000, 0.000000000000000000, 0.000000000000000000, 0.000000000000000000, 0.000000000000000000, 0.000000000000000000 ) ;
#546 = DIRECTION ( 'NONE',  ( -0.000000000000000000, -0.000000000000000000, -1.000000000000000000 ) ) ;
#547 = DIRECTION ( 'NONE',  ( -1.000000000000000000, -0.000000000000000000, -0.000000000000000000 ) ) ;
#548 = CARTESIAN_POINT ( 'NONE',  ( 0.000000000000000000, 0.000000000000000000, 0.2000000000000000389 ) ) ;
#549 = EDGE_CURVE ( 'NONE', #493, #248, #557, .T. ) ;
#550 = CIRCLE ( 'NONE', #144, 1.000000000000000000 ) ;
#551 = VERTEX_POINT ( 'NONE', #338 ) ;
#552 = DIRECTION ( 'NONE',  ( -0.000000000000000000, -0.000000000000000000, -1.000000000000000000 ) ) ;
#553 = MANIFOLD_SOLID_BREP ( 'Mirror1', #153 ) ;
#554 = DIRECTION ( 'NONE',  ( 1.000000000000000000, 0.000000000000000000, 0.000000000000000000 ) ) ;
#555 = ORIENTED_EDGE ( 'NONE', *, *, #560, .T. ) ;
#556 = EDGE_CURVE ( 'NONE', #133, #91, #204, .T. ) ;
#557 = LINE ( 'NONE', #418, #16 ) ;
#558 = LINE ( 'NONE', #106, #218 ) ;
#559 = VERTEX_POINT ( 'NONE', #330 ) ;
#560 = EDGE_CURVE ( 'NONE', #455, #404, #386, .T. ) ;
#561 = DIRECTION ( 'NONE',  ( 0.000000000000000000, 0.000000000000000000, 1.000000000000000000 ) ) ;
#562 = DIRECTION ( 'NONE',  ( -1.000000000000000000, 0.000000000000000000, 0.000000000000000000 ) ) ;
#563 = VECTOR ( 'NONE', #324, 39.37007874015748143 ) ;
#564 = ORIENTED_EDGE ( 'NONE', *, *, #36, .F. ) ;
#565 = AXIS2_PLACEMENT_3D ( 'NONE', #282, #467, #420 ) ;
#566 = CARTESIAN_POINT ( 'NONE',  ( -1.250000000000000000, 0.000000000000000000, -3.503543307086614433 ) ) ;
#567 = DIRECTION ( 'NONE',  ( -0.000000000000000000, -0.000000000000000000, -1.000000000000000000 ) ) ;
#568 = LINE ( 'NONE', #175, #81 ) ;
#569 = FACE_OUTER_BOUND ( 'NONE', #195, .T. ) ;
#570 = ADVANCED_FACE ( 'NONE', ( #250, #382 ), #66, .T. ) ;
#571 = DIRECTION ( 'NONE',  ( 1.000000000000000000, 0.000000000000000000, 0.000000000000000000 ) ) ;
#572 = FACE_OUTER_BOUND ( 'NONE', #261, .T. ) ;
#573 = CARTESIAN_POINT ( 'NONE',  ( -0.1250000000000000000, -0.7499999999999998890, 0.2000000000000001221 ) ) ;
#574 = EDGE_CURVE ( 'NONE', #312, #559, #30, .T. ) ;
#575 = LINE ( 'NONE', #353, #445 ) ;
ENDSEC;
END-ISO-10303-21;
