ISO-10303-21;
HEADER;
FILE_DESCRIPTION (( 'STEP AP214' ),
    '1' );
FILE_NAME ('4thStageInnerGuideShaft.STEP',
    '2026-04-02T07:01:43',
    ( '' ),
    ( '' ),
    'SwSTEP 2.0',
    'SolidWorks 2025',
    '' );
FILE_SCHEMA (( 'AUTOMOTIVE_DESIGN' ));
ENDSEC;

DATA;
#1 = ADVANCED_FACE ( 'NONE', ( #1043 ), #961, .T. ) ;
#2 = EDGE_LOOP ( 'NONE', ( #227, #442, #1020, #917 ) ) ;
#3 = DIRECTION ( 'NONE',  ( 1.000000000000000000, 5.772027492032979679E-33, 0.000000000000000000 ) ) ;
#4 = DIRECTION ( 'NONE',  ( 0.000000000000000000, -1.000000000000000000, 0.000000000000000000 ) ) ;
#5 = CARTESIAN_POINT ( 'NONE',  ( 0.3759842519685039353, -1.444898040462768925E-32, 0.000000000000000000 ) ) ;
#6 = ORIENTED_EDGE ( 'NONE', *, *, #330, .F. ) ;
#7 = CIRCLE ( 'NONE', #285, 0.2187500000000000000 ) ;
#8 = VECTOR ( 'NONE', #71, 39.37007874015748143 ) ;
#9 = LINE ( 'NONE', #734, #690 ) ;
#10 = CIRCLE ( 'NONE', #818, 0.2187499999999999445 ) ;
#11 = AXIS2_PLACEMENT_3D ( 'NONE', #337, #354, #740 ) ;
#12 = EDGE_CURVE ( 'NONE', #427, #939, #941, .T. ) ;
#13 = CIRCLE ( 'NONE', #35, 0.1687499999999999833 ) ;
#14 = VECTOR ( 'NONE', #942, 39.37007874015748143 ) ;
#15 = CARTESIAN_POINT ( 'NONE',  ( -0.3559842519685038620, -1.433353985478702945E-32, 0.000000000000000000 ) ) ;
#16 = ORIENTED_EDGE ( 'NONE', *, *, #505, .T. ) ;
#17 = CARTESIAN_POINT ( 'NONE',  ( -0.3559842519685038620, 2.688438132206384393E-16, 0.000000000000000000 ) ) ;
#18 = ADVANCED_FACE ( 'NONE', ( #989 ), #66, .T. ) ;
#19 = EDGE_CURVE ( 'NONE', #1228, #628, #709, .T. ) ;
#20 = VERTEX_POINT ( 'NONE', #386 ) ;
#21 = CARTESIAN_POINT ( 'NONE',  ( 0.1131889763779527908, 2.173757497772368828E-66, 0.000000000000000000 ) ) ;
#22 = FACE_OUTER_BOUND ( 'NONE', #265, .T. ) ;
#23 = VERTEX_POINT ( 'NONE', #703 ) ;
#24 = DIRECTION ( 'NONE',  ( -0.4999999999999977240, 0.8660254037844398178, 0.000000000000000000 ) ) ;
#25 = ORIENTED_EDGE ( 'NONE', *, *, #788, .F. ) ;
#26 = DIRECTION ( 'NONE',  ( -1.000000000000000000, -5.772027492032979679E-33, -0.000000000000000000 ) ) ;
#27 = FACE_OUTER_BOUND ( 'NONE', #63, .T. ) ;
#28 = ORIENTED_EDGE ( 'NONE', *, *, #1037, .F. ) ;
#29 = CYLINDRICAL_SURFACE ( 'NONE', #1240, 0.06749999999999993505 ) ;
#30 = CONICAL_SURFACE ( 'NONE', #163, 0.1687499999999999833, 1.047197551196600296 ) ;
#31 = AXIS2_PLACEMENT_3D ( 'NONE', #233, #537, #814 ) ;
#32 = CIRCLE ( 'NONE', #756, 0.1687500000000000111 ) ;
#33 = ORIENTED_EDGE ( 'NONE', *, *, #531, .T. ) ;
#34 = CARTESIAN_POINT ( 'NONE',  ( -0.3759842519685039353, 0.1104330708661417082, 1.352415067562332788E-17 ) ) ;
#35 = AXIS2_PLACEMENT_3D ( 'NONE', #553, #1269, #559 ) ;
#36 = EDGE_CURVE ( 'NONE', #70, #1250, #918, .T. ) ;
#37 = CARTESIAN_POINT ( 'NONE',  ( 0.3538675134594811977, 0.2187500000000000000, -2.678914873134835064E-17 ) ) ;
#38 = EDGE_LOOP ( 'NONE', ( #324, #1301, #736, #570 ) ) ;
#39 = EDGE_CURVE ( 'NONE', #706, #837, #1196, .T. ) ;
#40 = DIRECTION ( 'NONE',  ( -1.000000000000000000, -5.772027492032979679E-33, -0.000000000000000000 ) ) ;
#41 = DIRECTION ( 'NONE',  ( 0.000000000000000000, -1.000000000000000000, 0.000000000000000000 ) ) ;
#42 = DIRECTION ( 'NONE',  ( 1.000000000000000000, 5.772027492032979679E-33, 0.000000000000000000 ) ) ;
#43 = DIRECTION ( 'NONE',  ( 0.000000000000000000, -1.000000000000000000, 0.000000000000000000 ) ) ;
#44 = DIRECTION ( 'NONE',  ( -1.000000000000000000, -5.772027492032979679E-33, -0.000000000000000000 ) ) ;
#45 = EDGE_CURVE ( 'NONE', #726, #1102, #1041, .T. ) ;
#46 = ORIENTED_EDGE ( 'NONE', *, *, #1176, .F. ) ;
#47 = CARTESIAN_POINT ( 'NONE',  ( -0.5000000000000000000, -1.516480271171051896E-32, 0.000000000000000000 ) ) ;
#48 = CARTESIAN_POINT ( 'NONE',  ( -0.5000000000000000000, -0.06749999999999993505, 0.000000000000000000 ) ) ;
#49 = ORIENTED_EDGE ( 'NONE', *, *, #365, .F. ) ;
#50 = LINE ( 'NONE', #157, #1328 ) ;
#51 = EDGE_LOOP ( 'NONE', ( #981, #1206, #633, #284 ) ) ;
#52 = ADVANCED_FACE ( 'NONE', ( #582 ), #1061, .T. ) ;
#53 = CLOSED_SHELL ( 'NONE', ( #1171, #387, #507, #852, #373, #128, #177, #1139, #896, #256, #1198, #1132, #532, #79, #860, #781, #196, #332, #696, #87, #470, #390, #1216, #1275, #966, #984, #429, #491, #1255, #456, #1097, #221, #1184, #721, #604, #914, #52, #1, #238, #18, #826, #930, #512, #565, #212, #548, #632, #657, #1026, #76 ) ) ;
#54 = AXIS2_PLACEMENT_3D ( 'NONE', #69, #681, #1013 ) ;
#55 = VECTOR ( 'NONE', #680, 39.37007874015748143 ) ;
#56 = CARTESIAN_POINT ( 'NONE',  ( -0.3559842519685038620, 0.09043307086614177370, 1.229950387647597739E-17 ) ) ;
#57 = ORIENTED_EDGE ( 'NONE', *, *, #828, .T. ) ;
#58 = LINE ( 'NONE', #440, #1131 ) ;
#59 = ORIENTED_EDGE ( 'NONE', *, *, #505, .F. ) ;
#60 = EDGE_CURVE ( 'NONE', #882, #786, #1303, .T. ) ;
#61 = LINE ( 'NONE', #171, #1327 ) ;
#62 = CARTESIAN_POINT ( 'NONE',  ( -0.3559842519685038620, -1.433353985478702945E-32, 0.000000000000000000 ) ) ;
#63 = EDGE_LOOP ( 'NONE', ( #294, #888, #1127, #844 ) ) ;
#64 = DIRECTION ( 'NONE',  ( 1.000000000000000000, -5.772027492032979679E-33, -0.000000000000000000 ) ) ;
#65 = ORIENTED_EDGE ( 'NONE', *, *, #1253, .T. ) ;
#66 = CYLINDRICAL_SURFACE ( 'NONE', #932, 0.1687500000000000111 ) ;
#67 = FACE_OUTER_BOUND ( 'NONE', #158, .T. ) ;
#68 = CARTESIAN_POINT ( 'NONE',  ( 0.3759842519685039353, -0.1104330708661417082, 0.000000000000000000 ) ) ;
#69 = CARTESIAN_POINT ( 'NONE',  ( -0.2461324865405188633, -1.369947244468833981E-32, 0.000000000000000000 ) ) ;
#70 = VERTEX_POINT ( 'NONE', #1313 ) ;
#71 = DIRECTION ( 'NONE',  ( -1.000000000000000000, -5.772027492032979679E-33, -0.000000000000000000 ) ) ;
#72 = DIRECTION ( 'NONE',  ( 1.000000000000000000, -5.772027492032979679E-33, -0.000000000000000000 ) ) ;
#73 = AXIS2_PLACEMENT_3D ( 'NONE', #250, #855, #728 ) ;
#74 = DIRECTION ( 'NONE',  ( 0.000000000000000000, -1.000000000000000000, 0.000000000000000000 ) ) ;
#75 = AXIS2_PLACEMENT_3D ( 'NONE', #609, #834, #1045 ) ;
#76 = ADVANCED_FACE ( 'NONE', ( #1111 ), #650, .F. ) ;
#77 = AXIS2_PLACEMENT_3D ( 'NONE', #520, #508, #502 ) ;
#78 = FACE_OUTER_BOUND ( 'NONE', #282, .T. ) ;
#79 = ADVANCED_FACE ( 'NONE', ( #1202 ), #817, .F. ) ;
#80 = CONICAL_SURFACE ( 'NONE', #822, 0.1604330708661417526, 0.7853981633974517207 ) ;
#81 = ORIENTED_EDGE ( 'NONE', *, *, #405, .F. ) ;
#82 = CARTESIAN_POINT ( 'NONE',  ( -0.1131889763779527908, 0.06749999999999994893, 8.266365894244626630E-18 ) ) ;
#83 = CARTESIAN_POINT ( 'NONE',  ( 0.3559842519685038620, -1.433353985478702945E-32, 0.000000000000000000 ) ) ;
#84 = DIRECTION ( 'NONE',  ( -0.7071067811865496822, -0.7071067811865453523, 0.000000000000000000 ) ) ;
#85 = FACE_OUTER_BOUND ( 'NONE', #1308, .T. ) ;
#86 = ORIENTED_EDGE ( 'NONE', *, *, #923, .F. ) ;
#87 = ADVANCED_FACE ( 'NONE', ( #699 ), #908, .T. ) ;
#88 = CARTESIAN_POINT ( 'NONE',  ( -0.2179866609175246939, 0.1699999999999999845, 2.380407215842667610E-17 ) ) ;
#89 = ORIENTED_EDGE ( 'NONE', *, *, #1030, .F. ) ;
#90 = CYLINDRICAL_SURFACE ( 'NONE', #1106, 0.2187500000000000000 ) ;
#91 = CARTESIAN_POINT ( 'NONE',  ( -0.3559842519685038620, 0.06749999999999992117, 8.266365894244623548E-18 ) ) ;
#92 = ORIENTED_EDGE ( 'NONE', *, *, #850, .F. ) ;
#93 = CARTESIAN_POINT ( 'NONE',  ( 0.2461324865405188633, 0.2187499999999999445, -2.678914873134834756E-17 ) ) ;
#94 = EDGE_CURVE ( 'NONE', #170, #857, #955, .T. ) ;
#95 = CARTESIAN_POINT ( 'NONE',  ( -0.1131889763779527908, -1.293211884914264529E-32, 0.000000000000000000 ) ) ;
#96 = AXIS2_PLACEMENT_3D ( 'NONE', #743, #962, #1167 ) ;
#97 = SURFACE_SIDE_STYLE ('',( #1256 ) ) ;
#98 = ORIENTED_EDGE ( 'NONE', *, *, #259, .T. ) ;
#99 = AXIS2_PLACEMENT_3D ( 'NONE', #1122, #198, #271 ) ;
#100 = LINE ( 'NONE', #1096, #8 ) ;
#101 = EDGE_CURVE ( 'NONE', #1276, #138, #1207, .T. ) ;
#102 = EDGE_CURVE ( 'NONE', #879, #355, #999, .T. ) ;
#103 = DIRECTION ( 'NONE',  ( -1.000000000000000000, 5.772027492032979679E-33, 0.000000000000000000 ) ) ;
#104 = FACE_BOUND ( 'NONE', #258, .T. ) ;
#105 = ORIENTED_EDGE ( 'NONE', *, *, #200, .T. ) ;
#106 = CARTESIAN_POINT ( 'NONE',  ( 0.2711324865405188578, -0.2187500000000000000, 0.000000000000000000 ) ) ;
#107 = CARTESIAN_POINT ( 'NONE',  ( 0.3250000000000000111, -1.415469790060474709E-32, 0.000000000000000000 ) ) ;
#108 = LENGTH_MEASURE_WITH_UNIT ( LENGTH_MEASURE( 0.02539999999999999897 ), #418 );
#109 = ORIENTED_EDGE ( 'NONE', *, *, #39, .T. ) ;
#110 = EDGE_CURVE ( 'NONE', #1091, #1048, #679, .T. ) ;
#111 = LINE ( 'NONE', #950, #779 ) ;
#112 = PLANE ( 'NONE',  #1323 ) ;
#113 = PLANE ( 'NONE',  #77 ) ;
#114 = VERTEX_POINT ( 'NONE', #88 ) ;
#115 = EDGE_CURVE ( 'NONE', #436, #1186, #1260, .T. ) ;
#116 = CIRCLE ( 'NONE', #624, 0.1804330708661422977 ) ;
#117 = AXIS2_PLACEMENT_3D ( 'NONE', #707, #315, #211 ) ;
#118 = DIRECTION ( 'NONE',  ( 0.000000000000000000, -1.000000000000000000, 0.000000000000000000 ) ) ;
#119 = CIRCLE ( 'NONE', #1088, 0.2187500000000000000 ) ;
#120 = ORIENTED_EDGE ( 'NONE', *, *, #540, .F. ) ;
#121 = AXIS2_PLACEMENT_3D ( 'NONE', #843, #1264, #328 ) ;
#122 = AXIS2_PLACEMENT_3D ( 'NONE', #1116, #173, #594 ) ;
#123 = DIRECTION ( 'NONE',  ( 0.000000000000000000, -1.000000000000000000, 0.000000000000000000 ) ) ;
#124 = DIRECTION ( 'NONE',  ( -1.000000000000000000, -5.772027492032979679E-33, -0.000000000000000000 ) ) ;
#125 = ORIENTED_EDGE ( 'NONE', *, *, #1082, .F. ) ;
#126 = DIRECTION ( 'NONE',  ( 0.000000000000000000, 1.000000000000000000, 0.000000000000000000 ) ) ;
#127 = ORIENTED_EDGE ( 'NONE', *, *, #1214, .F. ) ;
#128 = ADVANCED_FACE ( 'NONE', ( #492 ), #1324, .T. ) ;
#129 = ORIENTED_EDGE ( 'NONE', *, *, #1075, .T. ) ;
#130 = CARTESIAN_POINT ( 'NONE',  ( 0.5000000000000000000, -0.2187500000000000000, 0.000000000000000000 ) ) ;
#131 = CARTESIAN_POINT ( 'NONE',  ( -0.5000000000000000000, -1.516480271171051896E-32, 0.000000000000000000 ) ) ;
#132 = EDGE_LOOP ( 'NONE', ( #199, #795, #869, #252 ) ) ;
#133 = CARTESIAN_POINT ( 'NONE',  ( 0.2999999999999999889, -1.401039721330392371E-32, 0.000000000000000000 ) ) ;
#134 = ORIENTED_EDGE ( 'NONE', *, *, #708, .F. ) ;
#135 = DIRECTION ( 'NONE',  ( 1.000000000000000000, -5.772027492032979679E-33, -0.000000000000000000 ) ) ;
#136 = DIRECTION ( 'NONE',  ( 0.000000000000000000, 1.000000000000000000, 0.000000000000000000 ) ) ;
#137 = CARTESIAN_POINT ( 'NONE',  ( 0.3538675134594811977, -0.2187500000000000000, 0.000000000000000000 ) ) ;
#138 = VERTEX_POINT ( 'NONE', #1021 ) ;
#139 = CARTESIAN_POINT ( 'NONE',  ( 0.5000000000000000000, -1.516480271171051896E-32, 0.000000000000000000 ) ) ;
#140 = CIRCLE ( 'NONE', #226, 0.1687500000000000111 ) ;
#141 = ORIENTED_EDGE ( 'NONE', *, *, #732, .F. ) ;
#142 = DIRECTION ( 'NONE',  ( 0.000000000000000000, -1.000000000000000000, 0.000000000000000000 ) ) ;
#143 = CIRCLE ( 'NONE', #1237, 0.1104330708661417082 ) ;
#144 = EDGE_CURVE ( 'NONE', #1276, #114, #100, .T. ) ;
#145 = DIRECTION ( 'NONE',  ( 0.000000000000000000, -1.000000000000000000, 0.000000000000000000 ) ) ;
#146 = ORIENTED_EDGE ( 'NONE', *, *, #110, .F. ) ;
#147 = CARTESIAN_POINT ( 'NONE',  ( -0.3250000000000000111, 0.1687500000000000111, 2.066591473561158891E-17 ) ) ;
#148 = EDGE_LOOP ( 'NONE', ( #120, #853 ) ) ;
#149 = DIRECTION ( 'NONE',  ( -1.000000000000000000, 5.772027492032979679E-33, 0.000000000000000000 ) ) ;
#150 = DIRECTION ( 'NONE',  ( -1.000000000000000000, 5.772027492032979679E-33, 0.000000000000000000 ) ) ;
#151 = ORIENTED_EDGE ( 'NONE', *, *, #320, .F. ) ;
#152 = LINE ( 'NONE', #671, #842 ) ;
#153 = ORIENTED_EDGE ( 'NONE', *, *, #101, .T. ) ;
#154 = FACE_OUTER_BOUND ( 'NONE', #741, .T. ) ;
#155 = CARTESIAN_POINT ( 'NONE',  ( -0.2999999999999999889, -1.401039721330392371E-32, 0.000000000000000000 ) ) ;
#156 = ORIENTED_EDGE ( 'NONE', *, *, #1075, .F. ) ;
#157 = CARTESIAN_POINT ( 'NONE',  ( 0.5000000000000000000, 0.06749999999999993505, -8.266365894244625089E-18 ) ) ;
#158 = EDGE_LOOP ( 'NONE', ( #1087, #616, #754, #379 ) ) ;
#159 = EDGE_CURVE ( 'NONE', #651, #628, #787, .T. ) ;
#160 = AXIS2_PLACEMENT_3D ( 'NONE', #15, #618, #1244 ) ;
#161 = CONICAL_SURFACE ( 'NONE', #910, 0.2187499999999999445, 1.047197551196598297 ) ;
#162 = DIRECTION ( 'NONE',  ( 0.000000000000000000, -1.000000000000000000, 0.000000000000000000 ) ) ;
#163 = AXIS2_PLACEMENT_3D ( 'NONE', #362, #1114, #487 ) ;
#164 = AXIS2_PLACEMENT_3D ( 'NONE', #638, #207, #611 ) ;
#165 = AXIS2_PLACEMENT_3D ( 'NONE', #155, #236, #770 ) ;
#166 = CARTESIAN_POINT ( 'NONE',  ( -0.1131889763779527908, -0.06749999999999993505, 0.000000000000000000 ) ) ;
#167 = ORIENTED_EDGE ( 'NONE', *, *, #259, .F. ) ;
#168 = DIRECTION ( 'NONE',  ( 0.000000000000000000, -1.000000000000000000, 0.000000000000000000 ) ) ;
#169 = ORIENTED_EDGE ( 'NONE', *, *, #280, .F. ) ;
#170 = VERTEX_POINT ( 'NONE', #82 ) ;
#171 = CARTESIAN_POINT ( 'NONE',  ( 0.5000000000000000000, -0.2187499999999999445, 0.000000000000000000 ) ) ;
#172 = EDGE_CURVE ( 'NONE', #240, #1180, #1219, .T. ) ;
#173 = DIRECTION ( 'NONE',  ( -1.000000000000000000, -5.772027492032979679E-33, -0.000000000000000000 ) ) ;
#174 = FACE_BOUND ( 'NONE', #791, .T. ) ;
#175 = ORIENTED_EDGE ( 'NONE', *, *, #172, .F. ) ;
#176 = DIRECTION ( 'NONE',  ( 0.000000000000000000, -1.000000000000000000, 0.000000000000000000 ) ) ;
#177 = ADVANCED_FACE ( 'NONE', ( #617 ), #514, .T. ) ;
#178 = EDGE_CURVE ( 'NONE', #727, #419, #111, .T. ) ;
#179 = CARTESIAN_POINT ( 'NONE',  ( -0.5000000000000000000, -1.516480271171051896E-32, 0.000000000000000000 ) ) ;
#180 = DIRECTION ( 'NONE',  ( 0.000000000000000000, -1.000000000000000000, 0.000000000000000000 ) ) ;
#181 = ORIENTED_EDGE ( 'NONE', *, *, #320, .T. ) ;
#182 = DIRECTION ( 'NONE',  ( 0.4999999999999977240, 0.8660254037844398178, 0.000000000000000000 ) ) ;
#183 = DIRECTION ( 'NONE',  ( 0.000000000000000000, 0.000000000000000000, 1.000000000000000000 ) ) ;
#184 = CIRCLE ( 'NONE', #306, 0.1687500000000000111 ) ;
#185 = DIRECTION ( 'NONE',  ( 1.000000000000000000, -5.772027492032979679E-33, -0.000000000000000000 ) ) ;
#186 = VECTOR ( 'NONE', #24, 39.37007874015748143 ) ;
#187 = EDGE_CURVE ( 'NONE', #749, #427, #1247, .T. ) ;
#188 = CARTESIAN_POINT ( 'NONE',  ( 0.3250000000000000111, -1.415469790060474709E-32, 0.000000000000000000 ) ) ;
#189 = CIRCLE ( 'NONE', #160, 0.06749999999999992117 ) ;
#190 = ORIENTED_EDGE ( 'NONE', *, *, #815, .F. ) ;
#191 = CARTESIAN_POINT ( 'NONE',  ( -0.1131889763779527908, -1.293211884914264529E-32, 0.000000000000000000 ) ) ;
#192 = ORIENTED_EDGE ( 'NONE', *, *, #1273, .F. ) ;
#193 = DIRECTION ( 'NONE',  ( 0.000000000000000000, -1.000000000000000000, 0.000000000000000000 ) ) ;
#194 = CARTESIAN_POINT ( 'NONE',  ( 0.4999999999999999445, 0.1604330708661417526, -1.964738467136009885E-17 ) ) ;
#195 = ORIENTED_EDGE ( 'NONE', *, *, #831, .F. ) ;
#196 = ADVANCED_FACE ( 'NONE', ( #1143 ), #224, .T. ) ;
#197 = DIRECTION ( 'NONE',  ( 0.000000000000000000, -1.000000000000000000, 0.000000000000000000 ) ) ;
#198 = DIRECTION ( 'NONE',  ( -1.000000000000000000, 5.772027492032979679E-33, 0.000000000000000000 ) ) ;
#199 = ORIENTED_EDGE ( 'NONE', *, *, #39, .F. ) ;
#200 = EDGE_CURVE ( 'NONE', #114, #865, #9, .T. ) ;
#201 = DIRECTION ( 'NONE',  ( 1.000000000000000000, -5.772027492032979679E-33, -0.000000000000000000 ) ) ;
#202 = PRODUCT ( '4thStageInnerGuideShaft', '4thStageInnerGuideShaft', '', ( #356 ) ) ;
#203 = CARTESIAN_POINT ( 'NONE',  ( -0.2711324865405188578, -1.384377313198916593E-32, 0.000000000000000000 ) ) ;
#204 = CARTESIAN_POINT ( 'NONE',  ( -0.5000000000000000000, 0.2187500000000000000, 2.678914873134835064E-17 ) ) ;
#205 = ORIENTED_EDGE ( 'NONE', *, *, #1292, .T. ) ;
#206 = CIRCLE ( 'NONE', #75, 0.2187500000000000000 ) ;
#207 = DIRECTION ( 'NONE',  ( -1.000000000000000000, 5.772027492032979679E-33, 0.000000000000000000 ) ) ;
#208 = AXIS2_PLACEMENT_3D ( 'NONE', #62, #495, #464 ) ;
#209 = CYLINDRICAL_SURFACE ( 'NONE', #870, 0.1687500000000000111 ) ;
#210 = EDGE_LOOP ( 'NONE', ( #993, #190, #538, #678 ) ) ;
#211 = DIRECTION ( 'NONE',  ( 5.772027492032979679E-33, 1.000000000000000000, 0.000000000000000000 ) ) ;
#212 = ADVANCED_FACE ( 'NONE', ( #406, #299 ), #510, .F. ) ;
#213 = LINE ( 'NONE', #515, #729 ) ;
#214 = DIRECTION ( 'NONE',  ( -1.000000000000000000, 5.772027492032979679E-33, 0.000000000000000000 ) ) ;
#215 = EDGE_LOOP ( 'NONE', ( #49, #639, #576, #682 ) ) ;
#216 = PRODUCT_DEFINITION_CONTEXT ( 'detailed design', #483, 'design' ) ;
#217 = DIRECTION ( 'NONE',  ( -1.000000000000000000, -5.772027492032979679E-33, -0.000000000000000000 ) ) ;
#218 = EDGE_LOOP ( 'NONE', ( #759, #1137 ) ) ;
#219 = CARTESIAN_POINT ( 'NONE',  ( -0.1131889763779527908, -0.06299212598425203702, 0.000000000000000000 ) ) ;
#220 = DIRECTION ( 'NONE',  ( 0.000000000000000000, -1.000000000000000000, 0.000000000000000000 ) ) ;
#221 = ADVANCED_FACE ( 'NONE', ( #810, #1129 ), #924, .F. ) ;
#222 = VERTEX_POINT ( 'NONE', #1052 ) ;
#223 = CIRCLE ( 'NONE', #755, 0.1604330708661417526 ) ;
#224 = CONICAL_SURFACE ( 'NONE', #841, 0.2187500000000000000, 1.047197551196598964 ) ;
#225 = DIRECTION ( 'NONE',  ( 1.000000000000000000, -5.772027492032979679E-33, -0.000000000000000000 ) ) ;
#226 = AXIS2_PLACEMENT_3D ( 'NONE', #188, #1220, #887 ) ;
#227 = ORIENTED_EDGE ( 'NONE', *, *, #762, .T. ) ;
#228 = CIRCLE ( 'NONE', #713, 0.1104330708661417082 ) ;
#229 = EDGE_LOOP ( 'NONE', ( #141, #153, #316, #521 ) ) ;
#230 = DIRECTION ( 'NONE',  ( -1.000000000000000000, -5.772027492032939310E-33, 0.000000000000000000 ) ) ;
#231 = DIRECTION ( 'NONE',  ( -0.4999999999999988343, -0.8660254037844391517, 0.000000000000000000 ) ) ;
#232 = VERTEX_POINT ( 'NONE', #106 ) ;
#233 = CARTESIAN_POINT ( 'NONE',  ( 0.5000000000000000000, -1.516480271171051896E-32, 0.000000000000000000 ) ) ;
#234 = ORIENTED_EDGE ( 'NONE', *, *, #431, .T. ) ;
#235 = CYLINDRICAL_SURFACE ( 'NONE', #96, 0.2187499999999999445 ) ;
#236 = DIRECTION ( 'NONE',  ( 1.000000000000000000, 5.772027492032979679E-33, 0.000000000000000000 ) ) ;
#237 = CARTESIAN_POINT ( 'NONE',  ( 0.2461324865405188633, -1.369947244468833981E-32, 0.000000000000000000 ) ) ;
#238 = ADVANCED_FACE ( 'NONE', ( #1147 ), #977, .T. ) ;
#239 = EDGE_CURVE ( 'NONE', #419, #939, #454, .T. ) ;
#240 = VERTEX_POINT ( 'NONE', #1034 ) ;
#241 = CARTESIAN_POINT ( 'NONE',  ( -0.2999999999999999889, -0.1687499999999999833, 2.372753173347996823E-17 ) ) ;
#242 = DIRECTION ( 'NONE',  ( 0.000000000000000000, -1.000000000000000000, 0.000000000000000000 ) ) ;
#243 = CARTESIAN_POINT ( 'NONE',  ( -0.5000000000000000000, -1.516480271171051896E-32, 0.000000000000000000 ) ) ;
#244 = ORIENTED_EDGE ( 'NONE', *, *, #357, .F. ) ;
#245 = VECTOR ( 'NONE', #84, 39.37007874015748143 ) ;
#246 = AXIS2_PLACEMENT_3D ( 'NONE', #792, #890, #897 ) ;
#247 = CIRCLE ( 'NONE', #1133, 0.2187500000000000000 ) ;
#248 = CIRCLE ( 'NONE', #891, 0.1699999999999999845 ) ;
#249 = VERTEX_POINT ( 'NONE', #830 ) ;
#250 = CARTESIAN_POINT ( 'NONE',  ( -0.5000000000000000000, -1.516480271171051896E-32, 0.000000000000000000 ) ) ;
#251 = CARTESIAN_POINT ( 'NONE',  ( -0.2461324865405188633, -0.2187499999999999445, 0.000000000000000000 ) ) ;
#252 = ORIENTED_EDGE ( 'NONE', *, *, #1157, .F. ) ;
#253 = DIRECTION ( 'NONE',  ( -1.000000000000000000, -5.772027492032979679E-33, -0.000000000000000000 ) ) ;
#254 = ORIENTED_EDGE ( 'NONE', *, *, #19, .F. ) ;
#255 = CYLINDRICAL_SURFACE ( 'NONE', #1149, 0.06749999999999993505 ) ;
#256 = ADVANCED_FACE ( 'NONE', ( #1233 ), #161, .T. ) ;
#257 = CYLINDRICAL_SURFACE ( 'NONE', #413, 0.2187500000000000000 ) ;
#258 = EDGE_LOOP ( 'NONE', ( #1200, #1123 ) ) ;
#259 = EDGE_CURVE ( 'NONE', #529, #400, #730, .T. ) ;
#260 = CYLINDRICAL_SURFACE ( 'NONE', #1024, 0.2187500000000000000 ) ;
#261 = ORIENTED_EDGE ( 'NONE', *, *, #815, .T. ) ;
#262 = CARTESIAN_POINT ( 'NONE',  ( -0.1131889763779527908, -1.293211884914264529E-32, 0.000000000000000000 ) ) ;
#263 = EDGE_LOOP ( 'NONE', ( #1038, #1294 ) ) ;
#264 = CARTESIAN_POINT ( 'NONE',  ( 0.5000000000000000000, -1.516480271171051896E-32, 0.000000000000000000 ) ) ;
#265 = EDGE_LOOP ( 'NONE', ( #195, #98, #958, #988 ) ) ;
#266 = AXIS2_PLACEMENT_3D ( 'NONE', #1120, #902, #290 ) ;
#267 = DIRECTION ( 'NONE',  ( 0.000000000000000000, -1.000000000000000000, 0.000000000000000000 ) ) ;
#268 = AXIS2_PLACEMENT_3D ( 'NONE', #484, #378, #292 ) ;
#269 = STYLED_ITEM ( 'NONE', ( #916 ), #643 ) ;
#270 = LINE ( 'NONE', #1304, #480 ) ;
#271 = DIRECTION ( 'NONE',  ( 0.000000000000000000, -1.000000000000000000, 0.000000000000000000 ) ) ;
#272 = ORIENTED_EDGE ( 'NONE', *, *, #948, .F. ) ;
#273 = EDGE_CURVE ( 'NONE', #1215, #1091, #1086, .T. ) ;
#274 = DIRECTION ( 'NONE',  ( -1.000000000000000000, -5.772027492032979679E-33, -0.000000000000000000 ) ) ;
#275 = CARTESIAN_POINT ( 'NONE',  ( 0.5000000000000000000, -1.516480271171051896E-32, 0.000000000000000000 ) ) ;
#276 = FACE_OUTER_BOUND ( 'NONE', #964, .T. ) ;
#277 = ORIENTED_EDGE ( 'NONE', *, *, #60, .T. ) ;
#278 = DIRECTION ( 'NONE',  ( -1.000000000000000000, 5.772027492032979679E-33, 0.000000000000000000 ) ) ;
#279 = DIRECTION ( 'NONE',  ( -1.000000000000000000, 5.772027492032979679E-33, 0.000000000000000000 ) ) ;
#280 = EDGE_CURVE ( 'NONE', #865, #628, #523, .T. ) ;
#281 = DIRECTION ( 'NONE',  ( 0.000000000000000000, -1.000000000000000000, 0.000000000000000000 ) ) ;
#282 = EDGE_LOOP ( 'NONE', ( #1115, #669, #549, #719 ) ) ;
#283 = DIRECTION ( 'NONE',  ( 0.000000000000000000, -1.000000000000000000, 0.000000000000000000 ) ) ;
#284 = ORIENTED_EDGE ( 'NONE', *, *, #187, .F. ) ;
#285 = AXIS2_PLACEMENT_3D ( 'NONE', #899, #1012, #74 ) ;
#286 = CARTESIAN_POINT ( 'NONE',  ( 0.3538675134594811977, -0.2187500000000000000, 0.000000000000000000 ) ) ;
#287 = AXIS2_PLACEMENT_3D ( 'NONE', #1107, #384, #575 ) ;
#288 = DIRECTION ( 'NONE',  ( 0.000000000000000000, -1.000000000000000000, 0.000000000000000000 ) ) ;
#289 = VERTEX_POINT ( 'NONE', #530 ) ;
#290 = DIRECTION ( 'NONE',  ( 0.000000000000000000, -1.000000000000000000, 0.000000000000000000 ) ) ;
#291 = DIRECTION ( 'NONE',  ( -1.000000000000000000, 5.772027492032979679E-33, 0.000000000000000000 ) ) ;
#292 = DIRECTION ( 'NONE',  ( 0.000000000000000000, -1.000000000000000000, 0.000000000000000000 ) ) ;
#293 = EDGE_CURVE ( 'NONE', #879, #289, #1029, .T. ) ;
#294 = ORIENTED_EDGE ( 'NONE', *, *, #1016, .F. ) ;
#295 = CARTESIAN_POINT ( 'NONE',  ( 0.3538675134594811977, -1.432132198191950487E-32, 0.000000000000000000 ) ) ;
#296 = CARTESIAN_POINT ( 'NONE',  ( -0.5000000000000000000, 0.1604330708661417526, 1.964738467136009885E-17 ) ) ;
#297 = CARTESIAN_POINT ( 'NONE',  ( -0.5000000000000000000, -0.2187500000000000000, 0.000000000000000000 ) ) ;
#298 = ORIENTED_EDGE ( 'NONE', *, *, #1321, .T. ) ;
#299 = FACE_OUTER_BOUND ( 'NONE', #385, .T. ) ;
#300 = AXIS2_PLACEMENT_3D ( 'NONE', #191, #1015, #591 ) ;
#301 = CIRCLE ( 'NONE', #674, 0.06749999999999993505 ) ;
#302 = DIRECTION ( 'NONE',  ( -0.4999999999999994449, -0.8660254037844389297, 0.000000000000000000 ) ) ;
#303 = EDGE_LOOP ( 'NONE', ( #1083, #698, #181, #1046 ) ) ;
#304 = VECTOR ( 'NONE', #432, 39.37007874015748854 ) ;
#305 = DIRECTION ( 'NONE',  ( -0.7071067811865451302, 0.7071067811865499042, 8.659560562354962440E-17 ) ) ;
#306 = AXIS2_PLACEMENT_3D ( 'NONE', #107, #291, #197 ) ;
#307 = EDGE_CURVE ( 'NONE', #688, #138, #369, .T. ) ;
#308 = DIRECTION ( 'NONE',  ( -1.000000000000000000, -5.772027492032979679E-33, -0.000000000000000000 ) ) ;
#309 = LINE ( 'NONE', #204, #1263 ) ;
#310 = EDGE_LOOP ( 'NONE', ( #1071, #298 ) ) ;
#311 = DIRECTION ( 'NONE',  ( -1.000000000000000000, -5.772027492032979679E-33, -0.000000000000000000 ) ) ;
#312 = EDGE_CURVE ( 'NONE', #222, #562, #247, .T. ) ;
#313 = CARTESIAN_POINT ( 'NONE',  ( -0.3250000000000000111, -0.1687500000000000111, 0.000000000000000000 ) ) ;
#314 = ORIENTED_EDGE ( 'NONE', *, *, #794, .F. ) ;
#315 = DIRECTION ( 'NONE',  ( -1.000000000000000000, 5.772027492032979679E-33, 0.000000000000000000 ) ) ;
#316 = ORIENTED_EDGE ( 'NONE', *, *, #330, .T. ) ;
#317 = CARTESIAN_POINT ( 'NONE',  ( 0.4999999999999999445, -0.1604330708661417526, 0.000000000000000000 ) ) ;
#318 = CARTESIAN_POINT ( 'NONE',  ( 0.1131889763779527908, 0.06749999999999994893, -8.266365894244626630E-18 ) ) ;
#319 = ORIENTED_EDGE ( 'NONE', *, *, #952, .F. ) ;
#320 = EDGE_CURVE ( 'NONE', #355, #1001, #152, .T. ) ;
#321 = AXIS2_PLACEMENT_3D ( 'NONE', #621, #1039, #118 ) ;
#322 = DIRECTION ( 'NONE',  ( -1.000000000000000000, 5.772027492032979679E-33, 0.000000000000000000 ) ) ;
#323 = AXIS2_PLACEMENT_3D ( 'NONE', #434, #971, #1192 ) ;
#324 = ORIENTED_EDGE ( 'NONE', *, *, #178, .F. ) ;
#325 = AXIS2_PLACEMENT_3D ( 'NONE', #763, #1067, #1050 ) ;
#326 = ORIENTED_EDGE ( 'NONE', *, *, #200, .F. ) ;
#327 = CARTESIAN_POINT ( 'NONE',  ( -0.5000000000000000000, -0.1687500000000000111, 0.000000000000000000 ) ) ;
#328 = DIRECTION ( 'NONE',  ( 0.000000000000000000, -1.000000000000000000, 0.000000000000000000 ) ) ;
#329 = ORIENTED_EDGE ( 'NONE', *, *, #273, .F. ) ;
#330 = EDGE_CURVE ( 'NONE', #138, #688, #956, .T. ) ;
#331 = CARTESIAN_POINT ( 'NONE',  ( -0.3538675134594811977, -1.432132198191950487E-32, 0.000000000000000000 ) ) ;
#332 = ADVANCED_FACE ( 'NONE', ( #551 ), #1076, .T. ) ;
#333 = ORIENTED_EDGE ( 'NONE', *, *, #873, .F. ) ;
#334 = DIRECTION ( 'NONE',  ( 0.000000000000000000, -1.000000000000000000, 0.000000000000000000 ) ) ;
#335 = DIRECTION ( 'NONE',  ( 1.000000000000000000, -5.772027492032979679E-33, -0.000000000000000000 ) ) ;
#336 = EDGE_LOOP ( 'NONE', ( #1142, #1108, #854, #272 ) ) ;
#337 = CARTESIAN_POINT ( 'NONE',  ( -0.3759842519685038797, -1.444898040462768652E-32, 0.000000000000000000 ) ) ;
#338 = VERTEX_POINT ( 'NONE', #147 ) ;
#339 = CARTESIAN_POINT ( 'NONE',  ( 0.2999999999999999889, -1.401039721330392371E-32, 0.000000000000000000 ) ) ;
#340 = CARTESIAN_POINT ( 'NONE',  ( -0.5000000000000000000, -0.2187499999999999445, 0.000000000000000000 ) ) ;
#341 = VERTEX_POINT ( 'NONE', #1289 ) ;
#342 = CARTESIAN_POINT ( 'NONE',  ( 0.3559842519685038620, -0.09043307086614177370, 0.000000000000000000 ) ) ;
#343 = ORIENTED_EDGE ( 'NONE', *, *, #101, .F. ) ;
#344 = AXIS2_PLACEMENT_3D ( 'NONE', #600, #1018, #500 ) ;
#345 = VECTOR ( 'NONE', #182, 39.37007874015748143 ) ;
#346 = AXIS2_PLACEMENT_3D ( 'NONE', #647, #1062, #142 ) ;
#347 = AXIS2_PLACEMENT_3D ( 'NONE', #1266, #44, #773 ) ;
#348 = VECTOR ( 'NONE', #449, 39.37007874015748143 ) ;
#349 = DIRECTION ( 'NONE',  ( -1.000000000000000000, -5.772027492032939310E-33, 0.000000000000000000 ) ) ;
#350 = EDGE_CURVE ( 'NONE', #581, #1312, #50, .T. ) ;
#351 = AXIS2_PLACEMENT_3D ( 'NONE', #407, #308, #1121 ) ;
#352 = FACE_OUTER_BOUND ( 'NONE', #610, .T. ) ;
#353 = EDGE_LOOP ( 'NONE', ( #1051, #859, #1152, #127 ) ) ;
#354 = DIRECTION ( 'NONE',  ( -1.000000000000000000, -5.772027492032979679E-33, -0.000000000000000000 ) ) ;
#355 = VERTEX_POINT ( 'NONE', #965 ) ;
#356 = PRODUCT_CONTEXT ( 'NONE', #1272, 'mechanical' ) ;
#357 = EDGE_CURVE ( 'NONE', #1102, #726, #544, .T. ) ;
#358 = CYLINDRICAL_SURFACE ( 'NONE', #1066, 0.06749999999999993505 ) ;
#359 = ORIENTED_EDGE ( 'NONE', *, *, #873, .T. ) ;
#360 = DIRECTION ( 'NONE',  ( 1.000000000000000000, -5.772027492032979679E-33, -0.000000000000000000 ) ) ;
#361 = EDGE_LOOP ( 'NONE', ( #343, #593, #1319, #1163 ) ) ;
#362 = CARTESIAN_POINT ( 'NONE',  ( -0.2999999999999999889, -1.401039721330392371E-32, 0.000000000000000000 ) ) ;
#363 = DIRECTION ( 'NONE',  ( 1.000000000000000000, -5.772027492032979679E-33, -0.000000000000000000 ) ) ;
#364 = CARTESIAN_POINT ( 'NONE',  ( 0.5000000000000000000, -5.855606669963905783E-16, 0.000000000000000000 ) ) ;
#365 = EDGE_CURVE ( 'NONE', #355, #232, #58, .T. ) ;
#366 = EDGE_LOOP ( 'NONE', ( #739, #1144 ) ) ;
#367 = CIRCLE ( 'NONE', #1109, 0.2187500000000000000 ) ;
#368 = AXIS2_PLACEMENT_3D ( 'NONE', #17, #725, #1138 ) ;
#369 = CIRCLE ( 'NONE', #584, 0.2187499999999999445 ) ;
#370 = CIRCLE ( 'NONE', #208, 0.06749999999999992117 ) ;
#371 = LINE ( 'NONE', #68, #959 ) ;
#372 = DIRECTION ( 'NONE',  ( 0.000000000000000000, -1.000000000000000000, 0.000000000000000000 ) ) ;
#373 = ADVANCED_FACE ( 'NONE', ( #555 ), #875, .T. ) ;
#374 = ORIENTED_EDGE ( 'NONE', *, *, #1281, .T. ) ;
#375 = EDGE_CURVE ( 'NONE', #170, #462, #569, .T. ) ;
#376 = DIRECTION ( 'NONE',  ( 0.000000000000000000, -1.000000000000000000, 0.000000000000000000 ) ) ;
#377 = FACE_OUTER_BOUND ( 'NONE', #2, .T. ) ;
#378 = DIRECTION ( 'NONE',  ( -1.000000000000000000, -5.772027492032979679E-33, -0.000000000000000000 ) ) ;
#379 = ORIENTED_EDGE ( 'NONE', *, *, #645, .T. ) ;
#380 = CARTESIAN_POINT ( 'NONE',  ( 0.3538675134594811977, -1.432132198191950487E-32, 0.000000000000000000 ) ) ;
#381 = CARTESIAN_POINT ( 'NONE',  ( -0.3759842519685038797, -1.444898040462768652E-32, 0.000000000000000000 ) ) ;
#382 = EDGE_LOOP ( 'NONE', ( #874, #125, #404, #129 ) ) ;
#383 = CARTESIAN_POINT ( 'NONE',  ( 0.5000000000000000000, 0.2187499999999999445, -2.678914873134834756E-17 ) ) ;
#384 = DIRECTION ( 'NONE',  ( 1.000000000000000000, 5.772027492032979679E-33, 0.000000000000000000 ) ) ;
#385 = EDGE_LOOP ( 'NONE', ( #1331, #167 ) ) ;
#386 = CARTESIAN_POINT ( 'NONE',  ( 0.3559842519685038620, -0.06749999999999992117, 0.000000000000000000 ) ) ;
#387 = ADVANCED_FACE ( 'NONE', ( #851 ), #29, .F. ) ;
#388 = VECTOR ( 'NONE', #635, 39.37007874015748143 ) ;
#389 = VECTOR ( 'NONE', #1047, 39.37007874015748143 ) ;
#390 = ADVANCED_FACE ( 'NONE', ( #1295 ), #1177, .T. ) ;
#391 = DIRECTION ( 'NONE',  ( 0.000000000000000000, -1.000000000000000000, 0.000000000000000000 ) ) ;
#392 =( GEOMETRIC_REPRESENTATION_CONTEXT ( 3 ) GLOBAL_UNCERTAINTY_ASSIGNED_CONTEXT ( ( #1181 ) ) GLOBAL_UNIT_ASSIGNED_CONTEXT ( ( #884, #592, #693 ) ) REPRESENTATION_CONTEXT ( 'NONE', 'WORKASPACE' ) );
#393 = AXIS2_PLACEMENT_3D ( 'NONE', #364, #1318, #489 ) ;
#394 = CONICAL_SURFACE ( 'NONE', #1134, 0.2187500000000000000, 1.047197551196598964 ) ;
#395 = DIRECTION ( 'NONE',  ( 1.000000000000000000, -5.772027492032979679E-33, -0.000000000000000000 ) ) ;
#396 = ORIENTED_EDGE ( 'NONE', *, *, #431, .F. ) ;
#397 = DIRECTION ( 'NONE',  ( -1.000000000000000000, 5.772027492032979679E-33, 0.000000000000000000 ) ) ;
#398 = FACE_OUTER_BOUND ( 'NONE', #1290, .T. ) ;
#399 = DIRECTION ( 'NONE',  ( -0.7071067811865496822, 0.7071067811865453523, 8.659560562354906974E-17 ) ) ;
#400 = VERTEX_POINT ( 'NONE', #845 ) ;
#401 = DIRECTION ( 'NONE',  ( -0.4999999999999994449, 0.8660254037844389297, 1.060575238724907285E-16 ) ) ;
#402 = CARTESIAN_POINT ( 'NONE',  ( -0.2999999999999999889, -0.1687499999999999833, 2.066591473561158275E-17 ) ) ;
#403 = SURFACE_STYLE_USAGE ( .BOTH. , #97 ) ;
#404 = ORIENTED_EDGE ( 'NONE', *, *, #110, .T. ) ;
#405 = EDGE_CURVE ( 'NONE', #1180, #240, #1151, .T. ) ;
#406 = FACE_BOUND ( 'NONE', #967, .T. ) ;
#407 = CARTESIAN_POINT ( 'NONE',  ( -0.2999999999999999889, -1.401039721330392371E-32, 0.000000000000000000 ) ) ;
#408 = AXIS2_PLACEMENT_3D ( 'NONE', #1329, #397, #1212 ) ;
#409 = VECTOR ( 'NONE', #72, 39.37007874015748143 ) ;
#410 = AXIS2_PLACEMENT_3D ( 'NONE', #960, #652, #858 ) ;
#411 = DIRECTION ( 'NONE',  ( -1.000000000000000000, -5.772027492032979679E-33, -0.000000000000000000 ) ) ;
#412 = ORIENTED_EDGE ( 'NONE', *, *, #375, .F. ) ;
#413 = AXIS2_PLACEMENT_3D ( 'NONE', #131, #1079, #976 ) ;
#414 = DIRECTION ( 'NONE',  ( 0.000000000000000000, 1.000000000000000000, 0.000000000000000000 ) ) ;
#415 = AXIS2_PLACEMENT_3D ( 'NONE', #203, #803, #827 ) ;
#416 = EDGE_CURVE ( 'NONE', #749, #1265, #1305, .T. ) ;
#417 = DIRECTION ( 'NONE',  ( 0.000000000000000000, -1.000000000000000000, 0.000000000000000000 ) ) ;
#418 =( LENGTH_UNIT ( ) NAMED_UNIT ( * ) SI_UNIT ( $, .METRE. ) );
#419 = VERTEX_POINT ( 'NONE', #765 ) ;
#420 = DIRECTION ( 'NONE',  ( -1.000000000000000000, -5.772027492032979679E-33, -0.000000000000000000 ) ) ;
#421 = ORIENTED_EDGE ( 'NONE', *, *, #1030, .T. ) ;
#422 = LINE ( 'NONE', #130, #388 ) ;
#423 = EDGE_CURVE ( 'NONE', #114, #1250, #519, .T. ) ;
#424 = CARTESIAN_POINT ( 'NONE',  ( -0.3759842519685039353, 0.1104330708661417082, 1.352415067562332788E-17 ) ) ;
#425 = ORIENTED_EDGE ( 'NONE', *, *, #365, .T. ) ;
#426 = CARTESIAN_POINT ( 'NONE',  ( 0.2461324865405188633, -1.369947244468833981E-32, 0.000000000000000000 ) ) ;
#427 = VERTEX_POINT ( 'NONE', #1070 ) ;
#428 = VERTEX_POINT ( 'NONE', #342 ) ;
#429 = ADVANCED_FACE ( 'NONE', ( #1187 ), #260, .T. ) ;
#430 = DIRECTION ( 'NONE',  ( 0.000000000000000000, -1.000000000000000000, 0.000000000000000000 ) ) ;
#431 = EDGE_CURVE ( 'NONE', #338, #1028, #32, .T. ) ;
#432 = DIRECTION ( 'NONE',  ( 0.4999999999999988343, 0.8660254037844391517, -1.060575238724907531E-16 ) ) ;
#433 = ORIENTED_EDGE ( 'NONE', *, *, #912, .T. ) ;
#434 = CARTESIAN_POINT ( 'NONE',  ( -0.2461324865405188633, -1.369947244468833981E-32, 0.000000000000000000 ) ) ;
#435 = CIRCLE ( 'NONE', #863, 0.1687500000000000111 ) ;
#436 = VERTEX_POINT ( 'NONE', #194 ) ;
#437 = LINE ( 'NONE', #327, #1063 ) ;
#438 = CARTESIAN_POINT ( 'NONE',  ( 0.3538675134594811977, -1.432132198191950487E-32, 0.000000000000000000 ) ) ;
#439 = VERTEX_POINT ( 'NONE', #1094 ) ;
#440 = CARTESIAN_POINT ( 'NONE',  ( 0.2999999999999999889, -0.1687499999999999833, -2.066591473561158275E-17 ) ) ;
#441 = EDGE_LOOP ( 'NONE', ( #156, #1211 ) ) ;
#442 = ORIENTED_EDGE ( 'NONE', *, *, #831, .T. ) ;
#443 = DIRECTION ( 'NONE',  ( 0.000000000000000000, -1.000000000000000000, 0.000000000000000000 ) ) ;
#444 = DIRECTION ( 'NONE',  ( -1.000000000000000000, -5.772027492032979679E-33, -0.000000000000000000 ) ) ;
#445 = ORIENTED_EDGE ( 'NONE', *, *, #102, .F. ) ;
#446 = DIRECTION ( 'NONE',  ( 0.000000000000000000, -1.000000000000000000, 0.000000000000000000 ) ) ;
#447 = EDGE_CURVE ( 'NONE', #1250, #114, #692, .T. ) ;
#448 = FACE_OUTER_BOUND ( 'NONE', #542, .T. ) ;
#449 = DIRECTION ( 'NONE',  ( -1.000000000000000000, -5.772027492032979679E-33, -0.000000000000000000 ) ) ;
#450 = EDGE_LOOP ( 'NONE', ( #1257, #474, #46, #672 ) ) ;
#451 = DIRECTION ( 'NONE',  ( -0.4999999999999977240, -0.8660254037844398178, -1.060575238724908517E-16 ) ) ;
#452 = EDGE_LOOP ( 'NONE', ( #1221, #490 ) ) ;
#453 = AXIS2_PLACEMENT_3D ( 'NONE', #1230, #528, #4 ) ;
#454 = CIRCLE ( 'NONE', #563, 0.1804330708661422977 ) ;
#455 = VECTOR ( 'NONE', #1227, 39.37007874015748143 ) ;
#456 = ADVANCED_FACE ( 'NONE', ( #174, #894 ), #881, .F. ) ;
#457 = VECTOR ( 'NONE', #231, 39.37007874015748854 ) ;
#458 = APPLICATION_PROTOCOL_DEFINITION ( 'draft international standard', 'automotive_design', 1998, #1272 ) ;
#459 = CARTESIAN_POINT ( 'NONE',  ( 0.5000000000000000000, -0.2187500000000000000, 0.000000000000000000 ) ) ;
#460 = EDGE_LOOP ( 'NONE', ( #1058, #824 ) ) ;
#461 = DIRECTION ( 'NONE',  ( 0.000000000000000000, -1.000000000000000000, 0.000000000000000000 ) ) ;
#462 = VERTEX_POINT ( 'NONE', #91 ) ;
#463 = DIRECTION ( 'NONE',  ( 1.000000000000000000, -5.772027492032979679E-33, -0.000000000000000000 ) ) ;
#464 = DIRECTION ( 'NONE',  ( 0.000000000000000000, -1.000000000000000000, 0.000000000000000000 ) ) ;
#465 = EDGE_LOOP ( 'NONE', ( #883, #694, #986, #86 ) ) ;
#466 = DIRECTION ( 'NONE',  ( 0.000000000000000000, -1.000000000000000000, 0.000000000000000000 ) ) ;
#467 = EDGE_LOOP ( 'NONE', ( #326, #646, #774, #944 ) ) ;
#468 = EDGE_LOOP ( 'NONE', ( #169, #205, #702, #28 ) ) ;
#469 = LENGTH_MEASURE_WITH_UNIT ( LENGTH_MEASURE( 0.02539999999999999897 ), #768 );
#470 = ADVANCED_FACE ( 'NONE', ( #276 ), #866, .T. ) ;
#471 = FACE_OUTER_BOUND ( 'NONE', #1246, .T. ) ;
#472 = EDGE_CURVE ( 'NONE', #289, #232, #119, .T. ) ;
#473 = FACE_OUTER_BOUND ( 'NONE', #596, .T. ) ;
#474 = ORIENTED_EDGE ( 'NONE', *, *, #178, .T. ) ;
#475 = DIRECTION ( 'NONE',  ( 0.000000000000000000, -1.000000000000000000, 0.000000000000000000 ) ) ;
#476 = CIRCLE ( 'NONE', #351, 0.1687499999999999833 ) ;
#477 = VECTOR ( 'NONE', #1320, 39.37007874015748143 ) ;
#478 = AXIS2_PLACEMENT_3D ( 'NONE', #987, #64, #466 ) ;
#479 = LINE ( 'NONE', #684, #1130 ) ;
#480 = VECTOR ( 'NONE', #676, 39.37007874015748143 ) ;
#481 = AXIS2_PLACEMENT_3D ( 'NONE', #975, #26, #430 ) ;
#482 = CYLINDRICAL_SURFACE ( 'NONE', #802, 0.1604330708661417526 ) ;
#483 = APPLICATION_CONTEXT ( 'automotive_design' ) ;
#484 = CARTESIAN_POINT ( 'NONE',  ( -0.5000000000000000000, -1.516480271171051896E-32, 0.000000000000000000 ) ) ;
#485 = ORIENTED_EDGE ( 'NONE', *, *, #952, .T. ) ;
#486 = CARTESIAN_POINT ( 'NONE',  ( -0.3759842519685039353, -1.444898040462768925E-32, 0.000000000000000000 ) ) ;
#487 = DIRECTION ( 'NONE',  ( 0.000000000000000000, 1.000000000000000000, 0.000000000000000000 ) ) ;
#488 = DIRECTION ( 'NONE',  ( 0.000000000000000000, -1.000000000000000000, 0.000000000000000000 ) ) ;
#489 = DIRECTION ( 'NONE',  ( 5.772027492032979679E-33, 1.000000000000000000, 0.000000000000000000 ) ) ;
#490 = ORIENTED_EDGE ( 'NONE', *, *, #115, .T. ) ;
#491 = ADVANCED_FACE ( 'NONE', ( #701, #473 ), #589, .F. ) ;
#492 = FACE_OUTER_BOUND ( 'NONE', #1165, .T. ) ;
#493 = EDGE_CURVE ( 'NONE', #706, #1014, #496, .T. ) ;
#494 = ORIENTED_EDGE ( 'NONE', *, *, #704, .F. ) ;
#495 = DIRECTION ( 'NONE',  ( -1.000000000000000000, -5.772027492032979679E-33, -0.000000000000000000 ) ) ;
#496 = LINE ( 'NONE', #687, #455 ) ;
#497 = EDGE_LOOP ( 'NONE', ( #1074, #513, #254, #134 ) ) ;
#498 = DIRECTION ( 'NONE',  ( -1.000000000000000000, -5.772027492032939310E-33, 0.000000000000000000 ) ) ;
#499 = EDGE_CURVE ( 'NONE', #735, #865, #710, .T. ) ;
#500 = DIRECTION ( 'NONE',  ( 0.000000000000000000, -1.000000000000000000, 0.000000000000000000 ) ) ;
#501 = AXIS2_PLACEMENT_3D ( 'NONE', #331, #1271, #867 ) ;
#502 = DIRECTION ( 'NONE',  ( 5.772027492032979679E-33, 1.000000000000000000, 0.000000000000000000 ) ) ;
#503 = ORIENTED_EDGE ( 'NONE', *, *, #923, .T. ) ;
#504 = CARTESIAN_POINT ( 'NONE',  ( -0.2711324865405188578, -1.384377313198916593E-32, 0.000000000000000000 ) ) ;
#505 = EDGE_CURVE ( 'NONE', #341, #1001, #140, .T. ) ;
#506 = DIRECTION ( 'NONE',  ( 0.000000000000000000, -1.000000000000000000, 0.000000000000000000 ) ) ;
#507 = ADVANCED_FACE ( 'NONE', ( #1306 ), #564, .F. ) ;
#508 = DIRECTION ( 'NONE',  ( -1.000000000000000000, 5.772027492032979679E-33, 0.000000000000000000 ) ) ;
#509 = ORIENTED_EDGE ( 'NONE', *, *, #597, .T. ) ;
#510 = PLANE ( 'NONE',  #117 ) ;
#511 = LINE ( 'NONE', #711, #524 ) ;
#512 = ADVANCED_FACE ( 'NONE', ( #1311, #85 ), #1008, .F. ) ;
#513 = ORIENTED_EDGE ( 'NONE', *, *, #280, .T. ) ;
#514 = CYLINDRICAL_SURFACE ( 'NONE', #31, 0.1687500000000000111 ) ;
#515 = CARTESIAN_POINT ( 'NONE',  ( -0.3538675134594811977, 0.2187500000000000000, 2.678914873134835064E-17 ) ) ;
#516 = CIRCLE ( 'NONE', #1288, 0.06299212598425203702 ) ;
#517 = AXIS2_PLACEMENT_3D ( 'NONE', #720, #311, #1239 ) ;
#518 = AXIS2_PLACEMENT_3D ( 'NONE', #381, #585, #162 ) ;
#519 = CIRCLE ( 'NONE', #1284, 0.1699999999999999845 ) ;
#520 = CARTESIAN_POINT ( 'NONE',  ( 0.3559842519685038620, 2.688438132206384393E-16, 0.000000000000000000 ) ) ;
#521 = ORIENTED_EDGE ( 'NONE', *, *, #871, .F. ) ;
#522 = VECTOR ( 'NONE', #848, 39.37007874015748854 ) ;
#523 = LINE ( 'NONE', #938, #1110 ) ;
#524 = VECTOR ( 'NONE', #700, 39.37007874015748143 ) ;
#525 = EDGE_LOOP ( 'NONE', ( #6, #1279, #876, #560 ) ) ;
#526 = EDGE_CURVE ( 'NONE', #400, #1186, #906, .T. ) ;
#527 = ORIENTED_EDGE ( 'NONE', *, *, #423, .F. ) ;
#528 = DIRECTION ( 'NONE',  ( -1.000000000000000000, -5.772027492032979679E-33, -0.000000000000000000 ) ) ;
#529 = VERTEX_POINT ( 'NONE', #1197 ) ;
#530 = CARTESIAN_POINT ( 'NONE',  ( 0.2711324865405188578, 0.2187500000000000000, -2.678914873134835372E-17 ) ) ;
#531 = EDGE_CURVE ( 'NONE', #581, #23, #301, .T. ) ;
#532 = ADVANCED_FACE ( 'NONE', ( #78 ), #785, .F. ) ;
#533 = DIRECTION ( 'NONE',  ( -0.7071067811865451302, -0.7071067811865499042, 0.000000000000000000 ) ) ;
#534 = CYLINDRICAL_SURFACE ( 'NONE', #1005, 0.1699999999999999845 ) ;
#535 = LINE ( 'NONE', #137, #522 ) ;
#536 = ORIENTED_EDGE ( 'NONE', *, *, #880, .T. ) ;
#537 = DIRECTION ( 'NONE',  ( 1.000000000000000000, -5.772027492032979679E-33, -0.000000000000000000 ) ) ;
#538 = ORIENTED_EDGE ( 'NONE', *, *, #159, .T. ) ;
#539 = DIRECTION ( 'NONE',  ( 0.000000000000000000, -1.000000000000000000, 0.000000000000000000 ) ) ;
#540 = EDGE_CURVE ( 'NONE', #23, #581, #782, .T. ) ;
#541 = CARTESIAN_POINT ( 'NONE',  ( 0.3538675134594811977, 0.2187500000000000000, -2.678914873134835064E-17 ) ) ;
#542 = EDGE_LOOP ( 'NONE', ( #927, #546, #838, #937 ) ) ;
#543 = DIRECTION ( 'NONE',  ( 1.000000000000000000, -5.772027492032979679E-33, -0.000000000000000000 ) ) ;
#544 = CIRCLE ( 'NONE', #347, 0.1104330708661417082 ) ;
#545 = AXIS2_PLACEMENT_3D ( 'NONE', #627, #926, #823 ) ;
#546 = ORIENTED_EDGE ( 'NONE', *, *, #144, .T. ) ;
#547 = DIRECTION ( 'NONE',  ( -1.000000000000000000, 5.772027492032979679E-33, 0.000000000000000000 ) ) ;
#548 = ADVANCED_FACE ( 'NONE', ( #1210 ), #1064, .F. ) ;
#549 = ORIENTED_EDGE ( 'NONE', *, *, #974, .T. ) ;
#550 = EDGE_CURVE ( 'NONE', #1014, #666, #206, .T. ) ;
#551 = FACE_OUTER_BOUND ( 'NONE', #353, .T. ) ;
#552 = DIRECTION ( 'NONE',  ( -1.000000000000000000, 5.772027492032979679E-33, 0.000000000000000000 ) ) ;
#553 = CARTESIAN_POINT ( 'NONE',  ( 0.2999999999999999889, -1.401039721330392371E-32, 0.000000000000000000 ) ) ;
#554 = ORIENTED_EDGE ( 'NONE', *, *, #550, .F. ) ;
#555 = FACE_OUTER_BOUND ( 'NONE', #132, .T. ) ;
#556 = EDGE_CURVE ( 'NONE', #240, #222, #309, .T. ) ;
#557 = ORIENTED_EDGE ( 'NONE', *, *, #1314, .T. ) ;
#558 = FACE_OUTER_BOUND ( 'NONE', #904, .T. ) ;
#559 = DIRECTION ( 'NONE',  ( 0.000000000000000000, -1.000000000000000000, 0.000000000000000000 ) ) ;
#560 = ORIENTED_EDGE ( 'NONE', *, *, #1241, .F. ) ;
#561 = DIRECTION ( 'NONE',  ( -1.000000000000000000, -5.772027492032979679E-33, -0.000000000000000000 ) ) ;
#562 = VERTEX_POINT ( 'NONE', #297 ) ;
#563 = AXIS2_PLACEMENT_3D ( 'NONE', #1258, #3, #126 ) ;
#564 = CONICAL_SURFACE ( 'NONE', #889, 0.1104330708661417082, 0.7853981633974452814 ) ;
#565 = ADVANCED_FACE ( 'NONE', ( #22 ), #943, .F. ) ;
#566 = DIRECTION ( 'NONE',  ( -1.000000000000000000, -5.772027492032979679E-33, -0.000000000000000000 ) ) ;
#567 = CARTESIAN_POINT ( 'NONE',  ( 0.2999999999999999889, 0.1687499999999999833, 0.000000000000000000 ) ) ;
#568 = EDGE_LOOP ( 'NONE', ( #412, #620, #813, #359 ) ) ;
#569 = LINE ( 'NONE', #1280, #1222 ) ;
#570 = ORIENTED_EDGE ( 'NONE', *, *, #239, .F. ) ;
#571 = CARTESIAN_POINT ( 'NONE',  ( -0.4799999999999995937, -0.1604330708661417526, 0.000000000000000000 ) ) ;
#572 = EDGE_CURVE ( 'NONE', #786, #1102, #1141, .T. ) ;
#573 = FACE_OUTER_BOUND ( 'NONE', #210, .T. ) ;
#574 = CARTESIAN_POINT ( 'NONE',  ( -0.3559842519685038620, -0.06749999999999992117, 0.000000000000000000 ) ) ;
#575 = DIRECTION ( 'NONE',  ( -5.772027492032979679E-33, 1.000000000000000000, 0.000000000000000000 ) ) ;
#576 = ORIENTED_EDGE ( 'NONE', *, *, #293, .T. ) ;
#577 = DIRECTION ( 'NONE',  ( -1.000000000000000000, -5.772027492032979679E-33, -0.000000000000000000 ) ) ;
#578 = CARTESIAN_POINT ( 'NONE',  ( 0.3559842519685038620, 0.06749999999999992117, -8.266365894244623548E-18 ) ) ;
#579 = CARTESIAN_POINT ( 'NONE',  ( 0.5000000000000000000, 0.1604330708661417526, -1.964738467136009885E-17 ) ) ;
#580 = DIRECTION ( 'NONE',  ( 1.000000000000000000, 5.772027492032979679E-33, 0.000000000000000000 ) ) ;
#581 = VERTEX_POINT ( 'NONE', #318 ) ;
#582 = FACE_OUTER_BOUND ( 'NONE', #361, .T. ) ;
#583 = CIRCLE ( 'NONE', #892, 0.06299212598425203702 ) ;
#584 = AXIS2_PLACEMENT_3D ( 'NONE', #426, #322, #1158 ) ;
#585 = DIRECTION ( 'NONE',  ( -1.000000000000000000, -5.772027492032979679E-33, -0.000000000000000000 ) ) ;
#586 =( GEOMETRIC_REPRESENTATION_CONTEXT ( 3 ) GLOBAL_UNCERTAINTY_ASSIGNED_CONTEXT ( ( #670 ) ) GLOBAL_UNIT_ASSIGNED_CONTEXT ( ( #829, #808, #615 ) ) REPRESENTATION_CONTEXT ( 'NONE', 'WORKASPACE' ) );
#587 = AXIS2_PLACEMENT_3D ( 'NONE', #262, #668, #1135 ) ;
#588 = LINE ( 'NONE', #383, #1004 ) ;
#589 = PLANE ( 'NONE',  #1042 ) ;
#590 = ORIENTED_EDGE ( 'NONE', *, *, #60, .F. ) ;
#591 = DIRECTION ( 'NONE',  ( 0.000000000000000000, -1.000000000000000000, 0.000000000000000000 ) ) ;
#592 =( NAMED_UNIT ( * ) PLANE_ANGLE_UNIT ( ) SI_UNIT ( $, .RADIAN. ) );
#593 = ORIENTED_EDGE ( 'NONE', *, *, #748, .F. ) ;
#594 = DIRECTION ( 'NONE',  ( 0.000000000000000000, -1.000000000000000000, 0.000000000000000000 ) ) ;
#595 = DIRECTION ( 'NONE',  ( 0.000000000000000000, -1.000000000000000000, 0.000000000000000000 ) ) ;
#596 = EDGE_LOOP ( 'NONE', ( #1188, #846 ) ) ;
#597 = EDGE_CURVE ( 'NONE', #1077, #249, #228, .T. ) ;
#598 = CARTESIAN_POINT ( 'NONE',  ( -0.5000000000000000000, -1.516480271171051896E-32, 0.000000000000000000 ) ) ;
#599 = ADVANCED_BREP_SHAPE_REPRESENTATION ( '4thStageInnerGuideShaft', ( #643, #605 ), #392 ) ;
#600 = CARTESIAN_POINT ( 'NONE',  ( -0.1131889763779527908, -1.293211884914264529E-32, 0.000000000000000000 ) ) ;
#601 = DIRECTION ( 'NONE',  ( 0.000000000000000000, -1.000000000000000000, 0.000000000000000000 ) ) ;
#602 = ORIENTED_EDGE ( 'NONE', *, *, #1314, .F. ) ;
#603 = DIRECTION ( 'NONE',  ( 0.000000000000000000, -1.000000000000000000, 0.000000000000000000 ) ) ;
#604 = ADVANCED_FACE ( 'NONE', ( #1155 ), #723, .F. ) ;
#605 = AXIS2_PLACEMENT_3D ( 'NONE', #872, #183, #1208 ) ;
#606 = AXIS2_PLACEMENT_3D ( 'NONE', #295, #201, #603 ) ;
#607 = CARTESIAN_POINT ( 'NONE',  ( 0.3759842519685039353, 0.1104330708661417082, -1.352415067562332788E-17 ) ) ;
#608 = CONICAL_SURFACE ( 'NONE', #165, 0.1687499999999999833, 1.047197551196600296 ) ;
#609 = CARTESIAN_POINT ( 'NONE',  ( 0.5000000000000000000, -1.516480271171051896E-32, 0.000000000000000000 ) ) ;
#610 = EDGE_LOOP ( 'NONE', ( #1326, #33, #485, #764 ) ) ;
#611 = DIRECTION ( 'NONE',  ( 0.000000000000000000, -1.000000000000000000, 0.000000000000000000 ) ) ;
#612 = EDGE_CURVE ( 'NONE', #1312, #20, #758, .T. ) ;
#613 = EDGE_CURVE ( 'NONE', #1250, #735, #1019, .T. ) ;
#614 = DIRECTION ( 'NONE',  ( 5.772027492032979679E-33, 1.000000000000000000, 0.000000000000000000 ) ) ;
#615 =( NAMED_UNIT ( * ) SI_UNIT ( $, .STERADIAN. ) SOLID_ANGLE_UNIT ( ) );
#616 = ORIENTED_EDGE ( 'NONE', *, *, #416, .F. ) ;
#617 = FACE_OUTER_BOUND ( 'NONE', #1174, .T. ) ;
#618 = DIRECTION ( 'NONE',  ( -1.000000000000000000, -5.772027492032979679E-33, -0.000000000000000000 ) ) ;
#619 = CARTESIAN_POINT ( 'NONE',  ( -0.2711324865405188578, 0.2187500000000000000, 2.678914873134835372E-17 ) ) ;
#620 = ORIENTED_EDGE ( 'NONE', *, *, #940, .F. ) ;
#621 = CARTESIAN_POINT ( 'NONE',  ( 0.3759842519685038797, -1.444898040462768652E-32, 0.000000000000000000 ) ) ;
#622 = CARTESIAN_POINT ( 'NONE',  ( 0.5000000000000000000, -1.516480271171051896E-32, 0.000000000000000000 ) ) ;
#623 = FACE_OUTER_BOUND ( 'NONE', #148, .T. ) ;
#624 = AXIS2_PLACEMENT_3D ( 'NONE', #640, #42, #953 ) ;
#625 = AXIS2_PLACEMENT_3D ( 'NONE', #689, #1003, #1223 ) ;
#626 = AXIS2_PLACEMENT_3D ( 'NONE', #992, #1205, #595 ) ;
#627 = CARTESIAN_POINT ( 'NONE',  ( -0.4799999999999995937, -1.504936216186985916E-32, 0.000000000000000000 ) ) ;
#628 = VERTEX_POINT ( 'NONE', #619 ) ;
#629 = PRODUCT_DEFINITION ( 'UNKNOWN', '', #691, #216 ) ;
#630 = CIRCLE ( 'NONE', #1090, 0.1604330708661417526 ) ;
#631 = DIRECTION ( 'NONE',  ( 0.000000000000000000, -1.000000000000000000, 0.000000000000000000 ) ) ;
#632 = ADVANCED_FACE ( 'NONE', ( #104, #1036 ), #113, .F. ) ;
#633 = ORIENTED_EDGE ( 'NONE', *, *, #1201, .T. ) ;
#634 = ORIENTED_EDGE ( 'NONE', *, *, #472, .F. ) ;
#635 = DIRECTION ( 'NONE',  ( 1.000000000000000000, -5.772027492032979679E-33, -0.000000000000000000 ) ) ;
#636 = DIRECTION ( 'NONE',  ( 1.000000000000000000, 5.772027492032979679E-33, 0.000000000000000000 ) ) ;
#637 = ORIENTED_EDGE ( 'NONE', *, *, #613, .F. ) ;
#638 = CARTESIAN_POINT ( 'NONE',  ( 0.1131889763779527908, -1.293211884914264529E-32, 0.000000000000000000 ) ) ;
#639 = ORIENTED_EDGE ( 'NONE', *, *, #769, .T. ) ;
#640 = CARTESIAN_POINT ( 'NONE',  ( -0.5000000000000000000, -1.516480271171051896E-32, 0.000000000000000000 ) ) ;
#641 = DIRECTION ( 'NONE',  ( 0.000000000000000000, -1.000000000000000000, 0.000000000000000000 ) ) ;
#642 = ORIENTED_EDGE ( 'NONE', *, *, #928, .T. ) ;
#643 = MANIFOLD_SOLID_BREP ( 'Chamfer1', #53 ) ;
#644 = DIRECTION ( 'NONE',  ( 1.000000000000000000, -5.772027492032979679E-33, -0.000000000000000000 ) ) ;
#645 = EDGE_CURVE ( 'NONE', #427, #727, #712, .T. ) ;
#646 = ORIENTED_EDGE ( 'NONE', *, *, #423, .T. ) ;
#647 = CARTESIAN_POINT ( 'NONE',  ( -0.5000000000000000000, -1.516480271171051896E-32, 0.000000000000000000 ) ) ;
#648 = CARTESIAN_POINT ( 'NONE',  ( -0.1131889763779527908, 2.173757497772368828E-66, 0.000000000000000000 ) ) ;
#649 = CIRCLE ( 'NONE', #481, 0.09043307086614177370 ) ;
#650 = CONICAL_SURFACE ( 'NONE', #886, 0.1604330708661417526, 0.7853981633974517207 ) ;
#651 = VERTEX_POINT ( 'NONE', #1245 ) ;
#652 = DIRECTION ( 'NONE',  ( -1.000000000000000000, -5.772027492032979679E-33, -0.000000000000000000 ) ) ;
#653 = CIRCLE ( 'NONE', #1025, 0.1604330708661417526 ) ;
#654 = AXIS2_PLACEMENT_3D ( 'NONE', #833, #149, #334 ) ;
#655 = CARTESIAN_POINT ( 'NONE',  ( 0.5000000000000000000, -1.516480271171051896E-32, 0.000000000000000000 ) ) ;
#656 = DIRECTION ( 'NONE',  ( -1.000000000000000000, -5.772027492032979679E-33, -0.000000000000000000 ) ) ;
#657 = ADVANCED_FACE ( 'NONE', ( #352 ), #358, .F. ) ;
#658 = CARTESIAN_POINT ( 'NONE',  ( -0.3759842519685038797, -0.1604330708661417526, 0.000000000000000000 ) ) ;
#659 = ORIENTED_EDGE ( 'NONE', *, *, #1159, .T. ) ;
#660 = DIRECTION ( 'NONE',  ( 0.000000000000000000, -1.000000000000000000, 0.000000000000000000 ) ) ;
#661 = ORIENTED_EDGE ( 'NONE', *, *, #144, .F. ) ;
#662 = DIRECTION ( 'NONE',  ( -1.000000000000000000, -5.772027492032979679E-33, -0.000000000000000000 ) ) ;
#663 = CARTESIAN_POINT ( 'NONE',  ( -0.4799999999999995937, 0.1604330708661417526, 1.964738467136009885E-17 ) ) ;
#664 = EDGE_LOOP ( 'NONE', ( #314, #747, #1160, #642 ) ) ;
#665 = DIRECTION ( 'NONE',  ( -1.000000000000000000, -5.772027492032979679E-33, -0.000000000000000000 ) ) ;
#666 = VERTEX_POINT ( 'NONE', #459 ) ;
#667 = APPLICATION_PROTOCOL_DEFINITION ( 'draft international standard', 'automotive_design', 1998, #483 ) ;
#668 = DIRECTION ( 'NONE',  ( -1.000000000000000000, -5.772027492032979679E-33, -0.000000000000000000 ) ) ;
#669 = ORIENTED_EDGE ( 'NONE', *, *, #375, .T. ) ;
#670 = UNCERTAINTY_MEASURE_WITH_UNIT (LENGTH_MEASURE( 1.000000000000000082E-05 ), #829, 'distance_accuracy_value', 'NONE');
#671 = CARTESIAN_POINT ( 'NONE',  ( 0.5000000000000000000, -0.1687500000000000111, 0.000000000000000000 ) ) ;
#672 = ORIENTED_EDGE ( 'NONE', *, *, #12, .F. ) ;
#673 = AXIS2_PLACEMENT_3D ( 'NONE', #1309, #1010, #376 ) ;
#674 = AXIS2_PLACEMENT_3D ( 'NONE', #804, #697, #288 ) ;
#675 = COLOUR_RGB ( '',0.7921568627450980005, 0.8196078431372548767, 0.9333333333333333481 ) ;
#676 = DIRECTION ( 'NONE',  ( -1.000000000000000000, -5.772027492032979679E-33, -0.000000000000000000 ) ) ;
#677 = CARTESIAN_POINT ( 'NONE',  ( 0.3759842519685039353, -1.444898040462768925E-32, 0.000000000000000000 ) ) ;
#678 = ORIENTED_EDGE ( 'NONE', *, *, #1037, .T. ) ;
#679 = LINE ( 'NONE', #1103, #1173 ) ;
#680 = DIRECTION ( 'NONE',  ( 0.4999999999999994449, -0.8660254037844389297, 0.000000000000000000 ) ) ;
#681 = DIRECTION ( 'NONE',  ( -1.000000000000000000, -5.772027492032979679E-33, -0.000000000000000000 ) ) ;
#682 = ORIENTED_EDGE ( 'NONE', *, *, #1334, .F. ) ;
#683 = CARTESIAN_POINT ( 'NONE',  ( -0.2999999999999999889, 0.1687499999999999833, 0.000000000000000000 ) ) ;
#684 = CARTESIAN_POINT ( 'NONE',  ( -0.5000000000000000000, 0.1687500000000000111, 2.066591473561158891E-17 ) ) ;
#685 = PRODUCT_RELATED_PRODUCT_CATEGORY ( 'part', '', ( #202 ) ) ;
#686 = CARTESIAN_POINT ( 'NONE',  ( 0.5000000000000000000, -1.516480271171051896E-32, 0.000000000000000000 ) ) ;
#687 = CARTESIAN_POINT ( 'NONE',  ( 0.5000000000000000000, 0.2187500000000000000, -2.678914873134835064E-17 ) ) ;
#688 = VERTEX_POINT ( 'NONE', #744 ) ;
#689 = CARTESIAN_POINT ( 'NONE',  ( 0.2461324865405188633, -1.369947244468833981E-32, 0.000000000000000000 ) ) ;
#690 = VECTOR ( 'NONE', #401, 39.37007874015748143 ) ;
#691 = PRODUCT_DEFINITION_FORMATION_WITH_SPECIFIED_SOURCE ( 'ANY', '', #202, .NOT_KNOWN. ) ;
#692 = CIRCLE ( 'NONE', #626, 0.1699999999999999845 ) ;
#693 =( NAMED_UNIT ( * ) SI_UNIT ( $, .STERADIAN. ) SOLID_ANGLE_UNIT ( ) );
#694 = ORIENTED_EDGE ( 'NONE', *, *, #572, .T. ) ;
#695 = CYLINDRICAL_SURFACE ( 'NONE', #122, 0.1699999999999999845 ) ;
#696 = ADVANCED_FACE ( 'NONE', ( #27 ), #608, .T. ) ;
#697 = DIRECTION ( 'NONE',  ( -1.000000000000000000, 5.772027492032979679E-33, 0.000000000000000000 ) ) ;
#698 = ORIENTED_EDGE ( 'NONE', *, *, #769, .F. ) ;
#699 = FACE_OUTER_BOUND ( 'NONE', #497, .T. ) ;
#700 = DIRECTION ( 'NONE',  ( -1.000000000000000000, -5.772027492032979679E-33, -0.000000000000000000 ) ) ;
#701 = FACE_BOUND ( 'NONE', #460, .T. ) ;
#702 = ORIENTED_EDGE ( 'NONE', *, *, #708, .T. ) ;
#703 = CARTESIAN_POINT ( 'NONE',  ( 0.1131889763779527908, -0.06749999999999993505, 0.000000000000000000 ) ) ;
#704 = EDGE_CURVE ( 'NONE', #1028, #1180, #1185, .T. ) ;
#705 = CARTESIAN_POINT ( 'NONE',  ( 0.3759842519685039353, -1.444898040462768925E-32, 0.000000000000000000 ) ) ;
#706 = VERTEX_POINT ( 'NONE', #37 ) ;
#707 = CARTESIAN_POINT ( 'NONE',  ( 0.3759842519685039353, 1.600561247821700033E-16, 0.000000000000000000 ) ) ;
#708 = EDGE_CURVE ( 'NONE', #735, #1228, #1179, .T. ) ;
#709 = CIRCLE ( 'NONE', #951, 0.2187500000000000000 ) ;
#710 = CIRCLE ( 'NONE', #801, 0.2187499999999999445 ) ;
#711 = CARTESIAN_POINT ( 'NONE',  ( -0.5000000000000000000, -0.2187500000000000000, 0.000000000000000000 ) ) ;
#712 = CIRCLE ( 'NONE', #545, 0.1604330708661417526 ) ;
#713 = AXIS2_PLACEMENT_3D ( 'NONE', #5, #214, #1126 ) ;
#714 = FILL_AREA_STYLE ('',( #1335 ) ) ;
#715 = EDGE_LOOP ( 'NONE', ( #333, #733 ) ) ;
#716 = DIRECTION ( 'NONE',  ( 0.000000000000000000, -1.000000000000000000, 0.000000000000000000 ) ) ;
#717 = LINE ( 'NONE', #296, #752 ) ;
#718 = CARTESIAN_POINT ( 'NONE',  ( 0.5000000000000000000, -1.516480271171051896E-32, 0.000000000000000000 ) ) ;
#719 = ORIENTED_EDGE ( 'NONE', *, *, #772, .F. ) ;
#720 = CARTESIAN_POINT ( 'NONE',  ( -0.3538675134594811977, -1.432132198191950487E-32, 0.000000000000000000 ) ) ;
#721 = ADVANCED_FACE ( 'NONE', ( #856, #738 ), #1286, .F. ) ;
#722 = FACE_OUTER_BOUND ( 'NONE', #1274, .T. ) ;
#723 = CYLINDRICAL_SURFACE ( 'NONE', #1199, 0.06299212598425202314 ) ;
#724 = EDGE_LOOP ( 'NONE', ( #1148, #1236, #742, #319 ) ) ;
#725 = DIRECTION ( 'NONE',  ( 1.000000000000000000, 5.772027492032979679E-33, 0.000000000000000000 ) ) ;
#726 = VERTEX_POINT ( 'NONE', #1293 ) ;
#727 = VERTEX_POINT ( 'NONE', #663 ) ;
#728 = DIRECTION ( 'NONE',  ( 0.000000000000000000, -1.000000000000000000, 0.000000000000000000 ) ) ;
#729 = VECTOR ( 'NONE', #1031, 39.37007874015748854 ) ;
#730 = CIRCLE ( 'NONE', #321, 0.1604330708661417526 ) ;
#731 = AXIS2_PLACEMENT_3D ( 'NONE', #1213, #983, #877 ) ;
#732 = EDGE_CURVE ( 'NONE', #1276, #70, #821, .T. ) ;
#733 = ORIENTED_EDGE ( 'NONE', *, *, #974, .F. ) ;
#734 = CARTESIAN_POINT ( 'NONE',  ( -0.2461324865405188633, 0.2187499999999999445, 2.678914873134834756E-17 ) ) ;
#735 = VERTEX_POINT ( 'NONE', #251 ) ;
#736 = ORIENTED_EDGE ( 'NONE', *, *, #12, .T. ) ;
#737 = CARTESIAN_POINT ( 'NONE',  ( 0.1131889763779527908, 0.06299212598425203702, 7.714310545810107374E-18 ) ) ;
#738 = FACE_OUTER_BOUND ( 'NONE', #366, .T. ) ;
#739 = ORIENTED_EDGE ( 'NONE', *, *, #940, .T. ) ;
#740 = DIRECTION ( 'NONE',  ( 0.000000000000000000, -1.000000000000000000, 0.000000000000000000 ) ) ;
#741 = EDGE_LOOP ( 'NONE', ( #329, #536, #809, #146 ) ) ;
#742 = ORIENTED_EDGE ( 'NONE', *, *, #982, .F. ) ;
#743 = CARTESIAN_POINT ( 'NONE',  ( -0.5000000000000000000, -1.516480271171051896E-32, 0.000000000000000000 ) ) ;
#744 = CARTESIAN_POINT ( 'NONE',  ( 0.2461324865405188633, -0.2187499999999999445, 0.000000000000000000 ) ) ;
#745 = EDGE_LOOP ( 'NONE', ( #277, #1166 ) ) ;
#746 = DIRECTION ( 'NONE',  ( -1.000000000000000000, -5.772027492032979679E-33, -0.000000000000000000 ) ) ;
#747 = ORIENTED_EDGE ( 'NONE', *, *, #1065, .F. ) ;
#748 = EDGE_CURVE ( 'NONE', #70, #1276, #248, .T. ) ;
#749 = VERTEX_POINT ( 'NONE', #658 ) ;
#750 = DIRECTION ( 'NONE',  ( -1.000000000000000000, -5.772027492032979679E-33, -0.000000000000000000 ) ) ;
#751 = DIRECTION ( 'NONE',  ( 1.000000000000000000, -5.772027492032979679E-33, -0.000000000000000000 ) ) ;
#752 = VECTOR ( 'NONE', #934, 39.37007874015748143 ) ;
#753 = VECTOR ( 'NONE', #994, 39.37007874015748143 ) ;
#754 = ORIENTED_EDGE ( 'NONE', *, *, #187, .T. ) ;
#755 = AXIS2_PLACEMENT_3D ( 'NONE', #1153, #230, #947 ) ;
#756 = AXIS2_PLACEMENT_3D ( 'NONE', #1081, #253, #660 ) ;
#757 = CARTESIAN_POINT ( 'NONE',  ( -0.5000000000000000000, -1.516480271171051896E-32, 0.000000000000000000 ) ) ;
#758 = CIRCLE ( 'NONE', #1224, 0.06749999999999992117 ) ;
#759 = ORIENTED_EDGE ( 'NONE', *, *, #1281, .F. ) ;
#760 = VECTOR ( 'NONE', #820, 39.37007874015748143 ) ;
#761 = CARTESIAN_POINT ( 'NONE',  ( 0.3559842519685038620, -1.433353985478702945E-32, 0.000000000000000000 ) ) ;
#762 = EDGE_CURVE ( 'NONE', #400, #529, #630, .T. ) ;
#763 = CARTESIAN_POINT ( 'NONE',  ( 0.2179866609175246939, -1.353701396540645447E-32, 0.000000000000000000 ) ) ;
#764 = ORIENTED_EDGE ( 'NONE', *, *, #612, .F. ) ;
#765 = CARTESIAN_POINT ( 'NONE',  ( -0.5000000000000000000, 0.1804330708661422977, 2.209667826965487072E-17 ) ) ;
#766 = EDGE_LOOP ( 'NONE', ( #433, #1080, #81, #494 ) ) ;
#767 = DIMENSIONAL_EXPONENTS ( 1.000000000000000000, 0.000000000000000000, 0.000000000000000000, 0.000000000000000000, 0.000000000000000000, 0.000000000000000000, 0.000000000000000000 ) ;
#768 =( LENGTH_UNIT ( ) NAMED_UNIT ( * ) SI_UNIT ( $, .METRE. ) );
#769 = EDGE_CURVE ( 'NONE', #355, #879, #13, .T. ) ;
#770 = DIRECTION ( 'NONE',  ( 0.000000000000000000, 1.000000000000000000, 0.000000000000000000 ) ) ;
#771 = ORIENTED_EDGE ( 'NONE', *, *, #45, .F. ) ;
#772 = EDGE_CURVE ( 'NONE', #857, #922, #969, .T. ) ;
#773 = DIRECTION ( 'NONE',  ( 0.000000000000000000, -1.000000000000000000, 0.000000000000000000 ) ) ;
#774 = ORIENTED_EDGE ( 'NONE', *, *, #613, .T. ) ;
#775 = CARTESIAN_POINT ( 'NONE',  ( -0.2461324865405188633, -1.369947244468833981E-32, 0.000000000000000000 ) ) ;
#776 = CARTESIAN_POINT ( 'NONE',  ( 0.2461324865405188633, -0.2187499999999999445, 0.000000000000000000 ) ) ;
#777 = DIRECTION ( 'NONE',  ( -1.000000000000000000, 5.772027492032979679E-33, 0.000000000000000000 ) ) ;
#778 = ORIENTED_EDGE ( 'NONE', *, *, #499, .F. ) ;
#779 = VECTOR ( 'NONE', #305, 39.37007874015748143 ) ;
#780 = CARTESIAN_POINT ( 'NONE',  ( -0.4799999999999995937, -1.504936216186985916E-32, 0.000000000000000000 ) ) ;
#781 = ADVANCED_FACE ( 'NONE', ( #1057 ), #257, .T. ) ;
#782 = CIRCLE ( 'NONE', #99, 0.06749999999999993505 ) ;
#783 = VECTOR ( 'NONE', #185, 39.37007874015748143 ) ;
#784 = DIRECTION ( 'NONE',  ( -1.000000000000000000, 5.772027492032979679E-33, 0.000000000000000000 ) ) ;
#785 = CYLINDRICAL_SURFACE ( 'NONE', #268, 0.06749999999999993505 ) ;
#786 = VERTEX_POINT ( 'NONE', #56 ) ;
#787 = LINE ( 'NONE', #683, #345 ) ;
#788 = EDGE_CURVE ( 'NONE', #1001, #837, #535, .T. ) ;
#789 = CYLINDRICAL_SURFACE ( 'NONE', #1242, 0.2187499999999999445 ) ;
#790 = DIRECTION ( 'NONE',  ( -5.772027492032979679E-33, 1.000000000000000000, 0.000000000000000000 ) ) ;
#791 = EDGE_LOOP ( 'NONE', ( #771, #244 ) ) ;
#792 = CARTESIAN_POINT ( 'NONE',  ( -0.3759842519685039353, -1.444898040462768925E-32, 0.000000000000000000 ) ) ;
#793 = CARTESIAN_POINT ( 'NONE',  ( -0.2711324865405188578, -0.2187500000000000000, 0.000000000000000000 ) ) ;
#794 = EDGE_CURVE ( 'NONE', #341, #706, #949, .T. ) ;
#795 = ORIENTED_EDGE ( 'NONE', *, *, #493, .T. ) ;
#796 = DIRECTION ( 'NONE',  ( 1.000000000000000000, -5.772027492032979679E-33, -0.000000000000000000 ) ) ;
#797 = CARTESIAN_POINT ( 'NONE',  ( -0.2461324865405188633, -1.369947244468833981E-32, 0.000000000000000000 ) ) ;
#798 = ORIENTED_EDGE ( 'NONE', *, *, #948, .T. ) ;
#799 = DIRECTION ( 'NONE',  ( -1.000000000000000000, -5.772027492032979679E-33, -0.000000000000000000 ) ) ;
#800 = VECTOR ( 'NONE', #533, 39.37007874015748143 ) ;
#801 = AXIS2_PLACEMENT_3D ( 'NONE', #797, #1000, #1299 ) ;
#802 = AXIS2_PLACEMENT_3D ( 'NONE', #179, #1100, #893 ) ;
#803 = DIRECTION ( 'NONE',  ( -1.000000000000000000, -5.772027492032979679E-33, -0.000000000000000000 ) ) ;
#804 = CARTESIAN_POINT ( 'NONE',  ( 0.1131889763779527908, -1.293211884914264529E-32, 0.000000000000000000 ) ) ;
#805 = ORIENTED_EDGE ( 'NONE', *, *, #732, .T. ) ;
#806 = DIRECTION ( 'NONE',  ( -1.000000000000000000, -5.772027492032979679E-33, -0.000000000000000000 ) ) ;
#807 = CARTESIAN_POINT ( 'NONE',  ( 0.3559842519685038620, -1.433353985478702945E-32, 0.000000000000000000 ) ) ;
#808 =( NAMED_UNIT ( * ) PLANE_ANGLE_UNIT ( ) SI_UNIT ( $, .RADIAN. ) );
#809 = ORIENTED_EDGE ( 'NONE', *, *, #1054, .T. ) ;
#810 = FACE_BOUND ( 'NONE', #715, .T. ) ;
#811 = CARTESIAN_POINT ( 'NONE',  ( 0.1131889763779527908, -1.293211884914264529E-32, 0.000000000000000000 ) ) ;
#812 = CARTESIAN_POINT ( 'NONE',  ( -0.5000000000000000000, -1.516480271171051896E-32, 0.000000000000000000 ) ) ;
#813 = ORIENTED_EDGE ( 'NONE', *, *, #772, .T. ) ;
#814 = DIRECTION ( 'NONE',  ( 0.000000000000000000, -1.000000000000000000, 0.000000000000000000 ) ) ;
#815 = EDGE_CURVE ( 'NONE', #651, #1169, #1285, .T. ) ;
#816 = AXIS2_PLACEMENT_3D ( 'NONE', #1277, #750, #1056 ) ;
#817 = CONICAL_SURFACE ( 'NONE', #246, 0.1104330708661417082, 0.7853981633974452814 ) ;
#818 = AXIS2_PLACEMENT_3D ( 'NONE', #775, #1291, #898 ) ;
#819 = AXIS2_PLACEMENT_3D ( 'NONE', #237, #1089, #461 ) ;
#820 = DIRECTION ( 'NONE',  ( 0.4999999999999977240, -0.8660254037844398178, 1.060575238724908517E-16 ) ) ;
#821 = CIRCLE ( 'NONE', #325, 0.1699999999999999845 ) ;
#822 = AXIS2_PLACEMENT_3D ( 'NONE', #1283, #349, #839 ) ;
#823 = DIRECTION ( 'NONE',  ( 0.000000000000000000, 1.000000000000000000, 0.000000000000000000 ) ) ;
#824 = ORIENTED_EDGE ( 'NONE', *, *, #239, .T. ) ;
#825 = CARTESIAN_POINT ( 'NONE',  ( 0.2461324865405188633, -1.369947244468833981E-32, 0.000000000000000000 ) ) ;
#826 = ADVANCED_FACE ( 'NONE', ( #957 ), #394, .T. ) ;
#827 = DIRECTION ( 'NONE',  ( 0.000000000000000000, -1.000000000000000000, 0.000000000000000000 ) ) ;
#828 = EDGE_CURVE ( 'NONE', #428, #249, #371, .T. ) ;
#829 =( CONVERSION_BASED_UNIT ( 'INCH', #108 ) LENGTH_UNIT ( ) NAMED_UNIT ( #767 ) );
#830 = CARTESIAN_POINT ( 'NONE',  ( 0.3759842519685039353, -0.1104330708661417082, 0.000000000000000000 ) ) ;
#831 = EDGE_CURVE ( 'NONE', #529, #436, #1317, .T. ) ;
#832 = ORIENTED_EDGE ( 'NONE', *, *, #597, .F. ) ;
#833 = CARTESIAN_POINT ( 'NONE',  ( 0.5000000000000000000, -1.516480271171051896E-32, 0.000000000000000000 ) ) ;
#834 = DIRECTION ( 'NONE',  ( -1.000000000000000000, 5.772027492032979679E-33, 0.000000000000000000 ) ) ;
#835 = ORIENTED_EDGE ( 'NONE', *, *, #1157, .T. ) ;
#836 = DIRECTION ( 'NONE',  ( -1.000000000000000000, 5.772027492032979679E-33, 0.000000000000000000 ) ) ;
#837 = VERTEX_POINT ( 'NONE', #286 ) ;
#838 = ORIENTED_EDGE ( 'NONE', *, *, #447, .F. ) ;
#839 = DIRECTION ( 'NONE',  ( 0.000000000000000000, -1.000000000000000000, 0.000000000000000000 ) ) ;
#840 = VECTOR ( 'NONE', #1098, 39.37007874015748143 ) ;
#841 = AXIS2_PLACEMENT_3D ( 'NONE', #929, #217, #716 ) ;
#842 = VECTOR ( 'NONE', #979, 39.37007874015748143 ) ;
#843 = CARTESIAN_POINT ( 'NONE',  ( -0.2999999999999999889, -1.401039721330392371E-32, 0.000000000000000000 ) ) ;
#844 = ORIENTED_EDGE ( 'NONE', *, *, #159, .F. ) ;
#845 = CARTESIAN_POINT ( 'NONE',  ( 0.3759842519685038797, -0.1604330708661417526, 0.000000000000000000 ) ) ;
#846 = ORIENTED_EDGE ( 'NONE', *, *, #312, .T. ) ;
#847 = DIRECTION ( 'NONE',  ( -1.000000000000000000, -5.772027492032979679E-33, -0.000000000000000000 ) ) ;
#848 = DIRECTION ( 'NONE',  ( 0.4999999999999988343, -0.8660254037844391517, 0.000000000000000000 ) ) ;
#849 = ORIENTED_EDGE ( 'NONE', *, *, #45, .T. ) ;
#850 = EDGE_CURVE ( 'NONE', #138, #289, #588, .T. ) ;
#851 = FACE_OUTER_BOUND ( 'NONE', #724, .T. ) ;
#852 = ADVANCED_FACE ( 'NONE', ( #377 ), #1195, .F. ) ;
#853 = ORIENTED_EDGE ( 'NONE', *, *, #531, .F. ) ;
#854 = ORIENTED_EDGE ( 'NONE', *, *, #1226, .F. ) ;
#855 = DIRECTION ( 'NONE',  ( -1.000000000000000000, -5.772027492032979679E-33, -0.000000000000000000 ) ) ;
#856 = FACE_BOUND ( 'NONE', #441, .T. ) ;
#857 = VERTEX_POINT ( 'NONE', #166 ) ;
#858 = DIRECTION ( 'NONE',  ( 0.000000000000000000, -1.000000000000000000, 0.000000000000000000 ) ) ;
#859 = ORIENTED_EDGE ( 'NONE', *, *, #1273, .T. ) ;
#860 = ADVANCED_FACE ( 'NONE', ( #1217 ), #482, .F. ) ;
#861 = CARTESIAN_POINT ( 'NONE',  ( 0.1131889763779527908, -0.06299212598425203702, 0.000000000000000000 ) ) ;
#862 = CARTESIAN_POINT ( 'NONE',  ( 0.2179866609175246939, -1.353701396540645447E-32, 0.000000000000000000 ) ) ;
#863 = AXIS2_PLACEMENT_3D ( 'NONE', #1007, #905, #488 ) ;
#864 = AXIS2_PLACEMENT_3D ( 'NONE', #655, #135, #41 ) ;
#865 = VERTEX_POINT ( 'NONE', #1209 ) ;
#866 = CONICAL_SURFACE ( 'NONE', #54, 0.2187499999999999445, 1.047197551196598297 ) ;
#867 = DIRECTION ( 'NONE',  ( 0.000000000000000000, -1.000000000000000000, 0.000000000000000000 ) ) ;
#868 = AXIS2_PLACEMENT_3D ( 'NONE', #1085, #796, #281 ) ;
#869 = ORIENTED_EDGE ( 'NONE', *, *, #550, .T. ) ;
#870 = AXIS2_PLACEMENT_3D ( 'NONE', #1330, #124, #1248 ) ;
#871 = EDGE_CURVE ( 'NONE', #70, #688, #1298, .T. ) ;
#872 = CARTESIAN_POINT ( 'NONE',  ( 0.000000000000000000, 0.000000000000000000, 0.000000000000000000 ) ) ;
#873 = EDGE_CURVE ( 'NONE', #922, #462, #370, .T. ) ;
#874 = ORIENTED_EDGE ( 'NONE', *, *, #880, .F. ) ;
#875 = CYLINDRICAL_SURFACE ( 'NONE', #933, 0.2187500000000000000 ) ;
#876 = ORIENTED_EDGE ( 'NONE', *, *, #472, .T. ) ;
#877 = DIRECTION ( 'NONE',  ( 0.000000000000000000, -1.000000000000000000, 0.000000000000000000 ) ) ;
#878 = CARTESIAN_POINT ( 'NONE',  ( -0.3759842519685039353, -0.1104330708661417082, 0.000000000000000000 ) ) ;
#879 = VERTEX_POINT ( 'NONE', #567 ) ;
#880 = EDGE_CURVE ( 'NONE', #1215, #1033, #270, .T. ) ;
#881 = PLANE ( 'NONE',  #287 ) ;
#882 = VERTEX_POINT ( 'NONE', #885 ) ;
#883 = ORIENTED_EDGE ( 'NONE', *, *, #1099, .F. ) ;
#884 =( CONVERSION_BASED_UNIT ( 'INCH', #469 ) LENGTH_UNIT ( ) NAMED_UNIT ( #996 ) );
#885 = CARTESIAN_POINT ( 'NONE',  ( -0.3559842519685038620, -0.09043307086614177370, 0.000000000000000000 ) ) ;
#886 = AXIS2_PLACEMENT_3D ( 'NONE', #780, #498, #283 ) ;
#887 = DIRECTION ( 'NONE',  ( 0.000000000000000000, -1.000000000000000000, 0.000000000000000000 ) ) ;
#888 = ORIENTED_EDGE ( 'NONE', *, *, #972, .T. ) ;
#889 = AXIS2_PLACEMENT_3D ( 'NONE', #677, #395, #372 ) ;
#890 = DIRECTION ( 'NONE',  ( -1.000000000000000000, -5.772027492032979679E-33, -0.000000000000000000 ) ) ;
#891 = AXIS2_PLACEMENT_3D ( 'NONE', #862, #1162, #145 ) ;
#892 = AXIS2_PLACEMENT_3D ( 'NONE', #95, #1044, #1225 ) ;
#893 = DIRECTION ( 'NONE',  ( 0.000000000000000000, -1.000000000000000000, 0.000000000000000000 ) ) ;
#894 = FACE_OUTER_BOUND ( 'NONE', #310, .T. ) ;
#895 = ORIENTED_EDGE ( 'NONE', *, *, #704, .T. ) ;
#896 = ADVANCED_FACE ( 'NONE', ( #995 ), #789, .T. ) ;
#897 = DIRECTION ( 'NONE',  ( 0.000000000000000000, -1.000000000000000000, 0.000000000000000000 ) ) ;
#898 = DIRECTION ( 'NONE',  ( 0.000000000000000000, -1.000000000000000000, 0.000000000000000000 ) ) ;
#899 = CARTESIAN_POINT ( 'NONE',  ( 0.3538675134594811977, -1.432132198191950487E-32, 0.000000000000000000 ) ) ;
#900 = CARTESIAN_POINT ( 'NONE',  ( 0.5000000000000000000, -0.1604330708661417526, 0.000000000000000000 ) ) ;
#901 = ORIENTED_EDGE ( 'NONE', *, *, #794, .T. ) ;
#902 = DIRECTION ( 'NONE',  ( -1.000000000000000000, -5.772027492032979679E-33, -0.000000000000000000 ) ) ;
#903 = EDGE_CURVE ( 'NONE', #1186, #436, #653, .T. ) ;
#904 = EDGE_LOOP ( 'NONE', ( #1287, #590, #503, #849 ) ) ;
#905 = DIRECTION ( 'NONE',  ( -1.000000000000000000, -5.772027492032979679E-33, -0.000000000000000000 ) ) ;
#906 = LINE ( 'NONE', #900, #1261 ) ;
#907 = ORIENTED_EDGE ( 'NONE', *, *, #828, .F. ) ;
#908 = CYLINDRICAL_SURFACE ( 'NONE', #1150, 0.2187499999999999445 ) ;
#909 = CONICAL_SURFACE ( 'NONE', #453, 0.2187500000000000000, 1.047197551196598964 ) ;
#910 = AXIS2_PLACEMENT_3D ( 'NONE', #825, #225, #631 ) ;
#911 = CIRCLE ( 'NONE', #1022, 0.09043307086614177370 ) ;
#912 = EDGE_CURVE ( 'NONE', #1028, #338, #435, .T. ) ;
#913 = VECTOR ( 'NONE', #444, 39.37007874015748143 ) ;
#914 = ADVANCED_FACE ( 'NONE', ( #471 ), #695, .T. ) ;
#915 = LINE ( 'NONE', #402, #760 ) ;
#916 = PRESENTATION_STYLE_ASSIGNMENT (( #403 ) ) ;
#917 = ORIENTED_EDGE ( 'NONE', *, *, #526, .F. ) ;
#918 = LINE ( 'NONE', #1229, #477 ) ;
#919 = PRODUCT_DEFINITION_SHAPE ( 'NONE', 'NONE',  #629 ) ;
#920 = LINE ( 'NONE', #1145, #14 ) ;
#921 = DIRECTION ( 'NONE',  ( -1.000000000000000000, 5.772027492032979679E-33, 0.000000000000000000 ) ) ;
#922 = VERTEX_POINT ( 'NONE', #574 ) ;
#923 = EDGE_CURVE ( 'NONE', #882, #726, #991, .T. ) ;
#924 = PLANE ( 'NONE',  #368 ) ;
#925 = CARTESIAN_POINT ( 'NONE',  ( 0.5000000000000000000, 0.2187500000000000000, -2.678914873134835064E-17 ) ) ;
#926 = DIRECTION ( 'NONE',  ( -1.000000000000000000, -5.772027492032939310E-33, 0.000000000000000000 ) ) ;
#927 = ORIENTED_EDGE ( 'NONE', *, *, #748, .T. ) ;
#928 = EDGE_CURVE ( 'NONE', #837, #706, #7, .T. ) ;
#929 = CARTESIAN_POINT ( 'NONE',  ( -0.3538675134594811977, -1.432132198191950487E-32, 0.000000000000000000 ) ) ;
#930 = ADVANCED_FACE ( 'NONE', ( #1204 ), #90, .T. ) ;
#931 = CIRCLE ( 'NONE', #654, 0.2187500000000000000 ) ;
#932 = AXIS2_PLACEMENT_3D ( 'NONE', #622, #946, #123 ) ;
#933 = AXIS2_PLACEMENT_3D ( 'NONE', #139, #543, #446 ) ;
#934 = DIRECTION ( 'NONE',  ( -1.000000000000000000, -5.772027492032979679E-33, -0.000000000000000000 ) ) ;
#935 = AXIS2_PLACEMENT_3D ( 'NONE', #718, #1231, #220 ) ;
#936 = CIRCLE ( 'NONE', #998, 0.06749999999999992117 ) ;
#937 = ORIENTED_EDGE ( 'NONE', *, *, #36, .F. ) ;
#938 = CARTESIAN_POINT ( 'NONE',  ( -0.5000000000000000000, 0.2187499999999999445, 2.678914873134834756E-17 ) ) ;
#939 = VERTEX_POINT ( 'NONE', #1190 ) ;
#940 = EDGE_CURVE ( 'NONE', #857, #170, #1113, .T. ) ;
#941 = LINE ( 'NONE', #571, #800 ) ;
#942 = DIRECTION ( 'NONE',  ( 1.000000000000000000, -5.772027492032979679E-33, -0.000000000000000000 ) ) ;
#943 = CYLINDRICAL_SURFACE ( 'NONE', #935, 0.1604330708661417526 ) ;
#944 = ORIENTED_EDGE ( 'NONE', *, *, #1292, .F. ) ;
#945 = CARTESIAN_POINT ( 'NONE',  ( 0.2999999999999999889, 0.1687499999999999833, 0.000000000000000000 ) ) ;
#946 = DIRECTION ( 'NONE',  ( 1.000000000000000000, -5.772027492032979679E-33, -0.000000000000000000 ) ) ;
#947 = DIRECTION ( 'NONE',  ( 0.000000000000000000, 1.000000000000000000, 0.000000000000000000 ) ) ;
#948 = EDGE_CURVE ( 'NONE', #1180, #562, #511, .T. ) ;
#949 = LINE ( 'NONE', #541, #304 ) ;
#950 = CARTESIAN_POINT ( 'NONE',  ( -0.4799999999999995937, 0.1604330708661417526, 1.964738467136009885E-17 ) ) ;
#951 = AXIS2_PLACEMENT_3D ( 'NONE', #504, #577, #176 ) ;
#952 = EDGE_CURVE ( 'NONE', #23, #20, #920, .T. ) ;
#953 = DIRECTION ( 'NONE',  ( 0.000000000000000000, 1.000000000000000000, 0.000000000000000000 ) ) ;
#954 = CIRCLE ( 'NONE', #346, 0.2187500000000000000 ) ;
#955 = CIRCLE ( 'NONE', #300, 0.06749999999999993505 ) ;
#956 = CIRCLE ( 'NONE', #819, 0.2187499999999999445 ) ;
#957 = FACE_OUTER_BOUND ( 'NONE', #664, .T. ) ;
#958 = ORIENTED_EDGE ( 'NONE', *, *, #526, .T. ) ;
#959 = VECTOR ( 'NONE', #1310, 39.37007874015748143 ) ;
#960 = CARTESIAN_POINT ( 'NONE',  ( -0.5000000000000000000, -1.516480271171051896E-32, 0.000000000000000000 ) ) ;
#961 = CYLINDRICAL_SURFACE ( 'NONE', #864, 0.2187499999999999445 ) ;
#962 = DIRECTION ( 'NONE',  ( -1.000000000000000000, -5.772027492032979679E-33, -0.000000000000000000 ) ) ;
#963 = CARTESIAN_POINT ( 'NONE',  ( 0.5000000000000000000, -1.516480271171051896E-32, 0.000000000000000000 ) ) ;
#964 = EDGE_LOOP ( 'NONE', ( #1055, #105, #778, #637 ) ) ;
#965 = CARTESIAN_POINT ( 'NONE',  ( 0.2999999999999999889, -0.1687499999999999833, -2.372753173347996823E-17 ) ) ;
#966 = ADVANCED_FACE ( 'NONE', ( #722 ), #209, .T. ) ;
#967 = EDGE_LOOP ( 'NONE', ( #421, #509 ) ) ;
#968 = CYLINDRICAL_SURFACE ( 'NONE', #73, 0.06299212598425202314 ) ;
#969 = LINE ( 'NONE', #48, #348 ) ;
#970 = ORIENTED_EDGE ( 'NONE', *, *, #556, .F. ) ;
#971 = DIRECTION ( 'NONE',  ( -1.000000000000000000, -5.772027492032979679E-33, -0.000000000000000000 ) ) ;
#972 = EDGE_CURVE ( 'NONE', #1169, #1228, #915, .T. ) ;
#973 = EDGE_LOOP ( 'NONE', ( #1095, #1119, #835, #659 ) ) ;
#974 = EDGE_CURVE ( 'NONE', #462, #922, #189, .T. ) ;
#975 = CARTESIAN_POINT ( 'NONE',  ( -0.3559842519685038620, -1.433353985478702945E-32, 0.000000000000000000 ) ) ;
#976 = DIRECTION ( 'NONE',  ( 0.000000000000000000, -1.000000000000000000, 0.000000000000000000 ) ) ;
#977 = CONICAL_SURFACE ( 'NONE', #1128, 0.1687499999999999833, 1.047197551196600296 ) ;
#978 = ORIENTED_EDGE ( 'NONE', *, *, #1334, .T. ) ;
#979 = DIRECTION ( 'NONE',  ( 1.000000000000000000, -5.772027492032979679E-33, -0.000000000000000000 ) ) ;
#980 = AXIS2_PLACEMENT_3D ( 'NONE', #648, #636, #1278 ) ;
#981 = ORIENTED_EDGE ( 'NONE', *, *, #1321, .F. ) ;
#982 = EDGE_CURVE ( 'NONE', #20, #1312, #936, .T. ) ;
#983 = DIRECTION ( 'NONE',  ( -1.000000000000000000, -5.772027492032979679E-33, -0.000000000000000000 ) ) ;
#984 = ADVANCED_FACE ( 'NONE', ( #398 ), #909, .T. ) ;
#985 = DIRECTION ( 'NONE',  ( 1.000000000000000000, -5.772027492032979679E-33, -0.000000000000000000 ) ) ;
#986 = ORIENTED_EDGE ( 'NONE', *, *, #357, .T. ) ;
#987 = CARTESIAN_POINT ( 'NONE',  ( 0.3759842519685039353, -1.444898040462768925E-32, 0.000000000000000000 ) ) ;
#988 = ORIENTED_EDGE ( 'NONE', *, *, #115, .F. ) ;
#989 = FACE_OUTER_BOUND ( 'NONE', #303, .T. ) ;
#990 = DIRECTION ( 'NONE',  ( 0.000000000000000000, -1.000000000000000000, 0.000000000000000000 ) ) ;
#991 = LINE ( 'NONE', #878, #245 ) ;
#992 = CARTESIAN_POINT ( 'NONE',  ( -0.2179866609175246939, -1.353701396540645447E-32, 0.000000000000000000 ) ) ;
#993 = ORIENTED_EDGE ( 'NONE', *, *, #972, .F. ) ;
#994 = DIRECTION ( 'NONE',  ( 0.4999999999999994449, 0.8660254037844389297, -1.060575238724907285E-16 ) ) ;
#995 = FACE_OUTER_BOUND ( 'NONE', #525, .T. ) ;
#996 = DIMENSIONAL_EXPONENTS ( 1.000000000000000000, 0.000000000000000000, 0.000000000000000000, 0.000000000000000000, 0.000000000000000000, 0.000000000000000000, 0.000000000000000000 ) ;
#997 = EDGE_CURVE ( 'NONE', #1265, #727, #717, .T. ) ;
#998 = AXIS2_PLACEMENT_3D ( 'NONE', #807, #103, #417 ) ;
#999 = CIRCLE ( 'NONE', #408, 0.1687499999999999833 ) ;
#1000 = DIRECTION ( 'NONE',  ( -1.000000000000000000, -5.772027492032979679E-33, -0.000000000000000000 ) ) ;
#1001 = VERTEX_POINT ( 'NONE', #1333 ) ;
#1002 = CIRCLE ( 'NONE', #518, 0.1604330708661417526 ) ;
#1003 = DIRECTION ( 'NONE',  ( 1.000000000000000000, -5.772027492032979679E-33, -0.000000000000000000 ) ) ;
#1004 = VECTOR ( 'NONE', #363, 39.37007874015748143 ) ;
#1005 = AXIS2_PLACEMENT_3D ( 'NONE', #1078, #662, #539 ) ;
#1006 = CARTESIAN_POINT ( 'NONE',  ( 0.2179866609175246939, 0.1699999999999999845, 2.081899558550500465E-17 ) ) ;
#1007 = CARTESIAN_POINT ( 'NONE',  ( -0.3250000000000000111, -1.415469790060474709E-32, 0.000000000000000000 ) ) ;
#1008 = PLANE ( 'NONE',  #393 ) ;
#1009 = ORIENTED_EDGE ( 'NONE', *, *, #1214, .T. ) ;
#1010 = DIRECTION ( 'NONE',  ( -1.000000000000000000, 5.772027492032979679E-33, 0.000000000000000000 ) ) ;
#1011 = EDGE_LOOP ( 'NONE', ( #1053, #425, #634, #1252 ) ) ;
#1012 = DIRECTION ( 'NONE',  ( -1.000000000000000000, 5.772027492032979679E-33, 0.000000000000000000 ) ) ;
#1013 = DIRECTION ( 'NONE',  ( 0.000000000000000000, -1.000000000000000000, 0.000000000000000000 ) ) ;
#1014 = VERTEX_POINT ( 'NONE', #925 ) ;
#1015 = DIRECTION ( 'NONE',  ( -1.000000000000000000, -5.772027492032979679E-33, -0.000000000000000000 ) ) ;
#1016 = EDGE_CURVE ( 'NONE', #1169, #651, #476, .T. ) ;
#1017 = SHAPE_DEFINITION_REPRESENTATION ( #919, #599 ) ;
#1018 = DIRECTION ( 'NONE',  ( -1.000000000000000000, -5.772027492032979679E-33, -0.000000000000000000 ) ) ;
#1019 = LINE ( 'NONE', #1027, #1112 ) ;
#1020 = ORIENTED_EDGE ( 'NONE', *, *, #903, .F. ) ;
#1021 = CARTESIAN_POINT ( 'NONE',  ( 0.2461324865405188633, 0.2187499999999999445, -2.678914873134834756E-17 ) ) ;
#1022 = AXIS2_PLACEMENT_3D ( 'NONE', #83, #279, #990 ) ;
#1023 = AXIS2_PLACEMENT_3D ( 'NONE', #486, #799, #1332 ) ;
#1024 = AXIS2_PLACEMENT_3D ( 'NONE', #757, #665, #1182 ) ;
#1025 = AXIS2_PLACEMENT_3D ( 'NONE', #1105, #784, #1093 ) ;
#1026 = ADVANCED_FACE ( 'NONE', ( #1035, #623 ), #112, .F. ) ;
#1027 = CARTESIAN_POINT ( 'NONE',  ( -0.2461324865405188633, -0.2187499999999999445, 0.000000000000000000 ) ) ;
#1028 = VERTEX_POINT ( 'NONE', #313 ) ;
#1029 = LINE ( 'NONE', #945, #186 ) ;
#1030 = EDGE_CURVE ( 'NONE', #249, #1077, #143, .T. ) ;
#1031 = DIRECTION ( 'NONE',  ( -0.4999999999999988343, 0.8660254037844391517, 1.060575238724907531E-16 ) ) ;
#1032 = EDGE_CURVE ( 'NONE', #338, #240, #213, .T. ) ;
#1033 = VERTEX_POINT ( 'NONE', #1234 ) ;
#1034 = CARTESIAN_POINT ( 'NONE',  ( -0.3538675134594811977, 0.2187500000000000000, 2.678914873134835064E-17 ) ) ;
#1035 = FACE_BOUND ( 'NONE', #263, .T. ) ;
#1036 = FACE_OUTER_BOUND ( 'NONE', #218, .T. ) ;
#1037 = EDGE_CURVE ( 'NONE', #628, #1228, #1060, .T. ) ;
#1038 = ORIENTED_EDGE ( 'NONE', *, *, #1082, .T. ) ;
#1039 = DIRECTION ( 'NONE',  ( -1.000000000000000000, 5.772027492032979679E-33, 0.000000000000000000 ) ) ;
#1040 = CONICAL_SURFACE ( 'NONE', #816, 0.1104330708661417082, 0.7853981633974452814 ) ;
#1041 = CIRCLE ( 'NONE', #1023, 0.1104330708661417082 ) ;
#1042 = AXIS2_PLACEMENT_3D ( 'NONE', #1118, #580, #790 ) ;
#1043 = FACE_OUTER_BOUND ( 'NONE', #1296, .T. ) ;
#1044 = DIRECTION ( 'NONE',  ( -1.000000000000000000, -5.772027492032979679E-33, -0.000000000000000000 ) ) ;
#1045 = DIRECTION ( 'NONE',  ( 0.000000000000000000, -1.000000000000000000, 0.000000000000000000 ) ) ;
#1046 = ORIENTED_EDGE ( 'NONE', *, *, #1065, .T. ) ;
#1047 = DIRECTION ( 'NONE',  ( -1.000000000000000000, -5.772027492032979679E-33, -0.000000000000000000 ) ) ;
#1048 = VERTEX_POINT ( 'NONE', #219 ) ;
#1049 = DIRECTION ( 'NONE',  ( 0.000000000000000000, -1.000000000000000000, 0.000000000000000000 ) ) ;
#1050 = DIRECTION ( 'NONE',  ( 0.000000000000000000, -1.000000000000000000, 0.000000000000000000 ) ) ;
#1051 = ORIENTED_EDGE ( 'NONE', *, *, #1016, .T. ) ;
#1052 = CARTESIAN_POINT ( 'NONE',  ( -0.5000000000000000000, 0.2187500000000000000, 2.678914873134835064E-17 ) ) ;
#1053 = ORIENTED_EDGE ( 'NONE', *, *, #102, .T. ) ;
#1054 = EDGE_CURVE ( 'NONE', #1033, #1048, #583, .T. ) ;
#1055 = ORIENTED_EDGE ( 'NONE', *, *, #447, .T. ) ;
#1056 = DIRECTION ( 'NONE',  ( 0.000000000000000000, -1.000000000000000000, 0.000000000000000000 ) ) ;
#1057 = FACE_OUTER_BOUND ( 'NONE', #336, .T. ) ;
#1058 = ORIENTED_EDGE ( 'NONE', *, *, #1176, .T. ) ;
#1059 = DIRECTION ( 'NONE',  ( 0.000000000000000000, -1.000000000000000000, 0.000000000000000000 ) ) ;
#1060 = CIRCLE ( 'NONE', #415, 0.2187500000000000000 ) ;
#1061 = CONICAL_SURFACE ( 'NONE', #625, 0.2187499999999999445, 1.047197551196598297 ) ;
#1062 = DIRECTION ( 'NONE',  ( -1.000000000000000000, -5.772027492032979679E-33, -0.000000000000000000 ) ) ;
#1063 = VECTOR ( 'NONE', #847, 39.37007874015748143 ) ;
#1064 = CONICAL_SURFACE ( 'NONE', #478, 0.1104330708661417082, 0.7853981633974452814 ) ;
#1065 = EDGE_CURVE ( 'NONE', #1001, #341, #184, .T. ) ;
#1066 = AXIS2_PLACEMENT_3D ( 'NONE', #963, #751, #43 ) ;
#1067 = DIRECTION ( 'NONE',  ( -1.000000000000000000, 5.772027492032979679E-33, 0.000000000000000000 ) ) ;
#1068 = ORIENTED_EDGE ( 'NONE', *, *, #1241, .T. ) ;
#1069 = CIRCLE ( 'NONE', #344, 0.06299212598425203702 ) ;
#1070 = CARTESIAN_POINT ( 'NONE',  ( -0.4799999999999995937, -0.1604330708661417526, 0.000000000000000000 ) ) ;
#1071 = ORIENTED_EDGE ( 'NONE', *, *, #416, .T. ) ;
#1072 = FACE_OUTER_BOUND ( 'NONE', #450, .T. ) ;
#1073 = CARTESIAN_POINT ( 'NONE',  ( 0.3759842519685038797, -1.444898040462768652E-32, 0.000000000000000000 ) ) ;
#1074 = ORIENTED_EDGE ( 'NONE', *, *, #499, .T. ) ;
#1075 = EDGE_CURVE ( 'NONE', #1048, #1033, #1069, .T. ) ;
#1076 = CYLINDRICAL_SURFACE ( 'NONE', #410, 0.1687500000000000111 ) ;
#1077 = VERTEX_POINT ( 'NONE', #607 ) ;
#1078 = CARTESIAN_POINT ( 'NONE',  ( -0.5000000000000000000, -1.516480271171051896E-32, 0.000000000000000000 ) ) ;
#1079 = DIRECTION ( 'NONE',  ( -1.000000000000000000, -5.772027492032979679E-33, -0.000000000000000000 ) ) ;
#1080 = ORIENTED_EDGE ( 'NONE', *, *, #1032, .T. ) ;
#1081 = CARTESIAN_POINT ( 'NONE',  ( -0.3250000000000000111, -1.415469790060474709E-32, 0.000000000000000000 ) ) ;
#1082 = EDGE_CURVE ( 'NONE', #1091, #1215, #516, .T. ) ;
#1083 = ORIENTED_EDGE ( 'NONE', *, *, #1253, .F. ) ;
#1084 = CYLINDRICAL_SURFACE ( 'NONE', #731, 0.1604330708661417526 ) ;
#1085 = CARTESIAN_POINT ( 'NONE',  ( 0.5000000000000000000, -1.516480271171051896E-32, 0.000000000000000000 ) ) ;
#1086 = CIRCLE ( 'NONE', #164, 0.06299212598425203702 ) ;
#1087 = ORIENTED_EDGE ( 'NONE', *, *, #997, .F. ) ;
#1088 = AXIS2_PLACEMENT_3D ( 'NONE', #1101, #777, #180 ) ;
#1089 = DIRECTION ( 'NONE',  ( -1.000000000000000000, 5.772027492032979679E-33, 0.000000000000000000 ) ) ;
#1090 = AXIS2_PLACEMENT_3D ( 'NONE', #1073, #150, #641 ) ;
#1091 = VERTEX_POINT ( 'NONE', #861 ) ;
#1092 = CARTESIAN_POINT ( 'NONE',  ( -0.2179866609175246939, -0.1699999999999999845, 0.000000000000000000 ) ) ;
#1093 = DIRECTION ( 'NONE',  ( 0.000000000000000000, -1.000000000000000000, 0.000000000000000000 ) ) ;
#1094 = CARTESIAN_POINT ( 'NONE',  ( 0.3559842519685038620, 0.09043307086614177370, -1.229950387647597739E-17 ) ) ;
#1095 = ORIENTED_EDGE ( 'NONE', *, *, #493, .F. ) ;
#1096 = CARTESIAN_POINT ( 'NONE',  ( -0.5000000000000000000, 0.1699999999999999845, 2.081899558550500465E-17 ) ) ;
#1097 = ADVANCED_FACE ( 'NONE', ( #558 ), #1040, .F. ) ;
#1098 = DIRECTION ( 'NONE',  ( 0.7071067811865496822, 0.7071067811865453523, -8.659560562354906974E-17 ) ) ;
#1099 = EDGE_CURVE ( 'NONE', #786, #882, #649, .T. ) ;
#1100 = DIRECTION ( 'NONE',  ( -1.000000000000000000, -5.772027492032979679E-33, -0.000000000000000000 ) ) ;
#1101 = CARTESIAN_POINT ( 'NONE',  ( 0.2711324865405188578, -1.384377313198916593E-32, 0.000000000000000000 ) ) ;
#1102 = VERTEX_POINT ( 'NONE', #34 ) ;
#1103 = CARTESIAN_POINT ( 'NONE',  ( -0.5000000000000000000, -0.06299212598425202314, 0.000000000000000000 ) ) ;
#1104 = LINE ( 'NONE', #1189, #840 ) ;
#1105 = CARTESIAN_POINT ( 'NONE',  ( 0.4999999999999999445, -1.516480271171051896E-32, 0.000000000000000000 ) ) ;
#1106 = AXIS2_PLACEMENT_3D ( 'NONE', #275, #1322, #391 ) ;
#1107 = CARTESIAN_POINT ( 'NONE',  ( -0.3759842519685039353, 1.600561247821700033E-16, 0.000000000000000000 ) ) ;
#1108 = ORIENTED_EDGE ( 'NONE', *, *, #556, .T. ) ;
#1109 = AXIS2_PLACEMENT_3D ( 'NONE', #1194, #1302, #267 ) ;
#1110 = VECTOR ( 'NONE', #420, 39.37007874015748143 ) ;
#1111 = FACE_OUTER_BOUND ( 'NONE', #38, .T. ) ;
#1112 = VECTOR ( 'NONE', #302, 39.37007874015748143 ) ;
#1113 = CIRCLE ( 'NONE', #587, 0.06749999999999993505 ) ;
#1114 = DIRECTION ( 'NONE',  ( 1.000000000000000000, 5.772027492032979679E-33, 0.000000000000000000 ) ) ;
#1115 = ORIENTED_EDGE ( 'NONE', *, *, #94, .F. ) ;
#1116 = CARTESIAN_POINT ( 'NONE',  ( -0.5000000000000000000, -1.516480271171051896E-32, 0.000000000000000000 ) ) ;
#1117 = EDGE_CURVE ( 'NONE', #439, #428, #1243, .T. ) ;
#1118 = CARTESIAN_POINT ( 'NONE',  ( -0.5000000000000000000, -5.855606669963905783E-16, 0.000000000000000000 ) ) ;
#1119 = ORIENTED_EDGE ( 'NONE', *, *, #928, .F. ) ;
#1120 = CARTESIAN_POINT ( 'NONE',  ( -0.3559842519685038620, -1.433353985478702945E-32, 0.000000000000000000 ) ) ;
#1121 = DIRECTION ( 'NONE',  ( 0.000000000000000000, -1.000000000000000000, 0.000000000000000000 ) ) ;
#1122 = CARTESIAN_POINT ( 'NONE',  ( 0.1131889763779527908, -1.293211884914264529E-32, 0.000000000000000000 ) ) ;
#1123 = ORIENTED_EDGE ( 'NONE', *, *, #612, .T. ) ;
#1124 = DIRECTION ( 'NONE',  ( 0.000000000000000000, -1.000000000000000000, 0.000000000000000000 ) ) ;
#1125 = DIRECTION ( 'NONE',  ( -1.000000000000000000, 5.772027492032979679E-33, 0.000000000000000000 ) ) ;
#1126 = DIRECTION ( 'NONE',  ( 0.000000000000000000, -1.000000000000000000, 0.000000000000000000 ) ) ;
#1127 = ORIENTED_EDGE ( 'NONE', *, *, #19, .T. ) ;
#1128 = AXIS2_PLACEMENT_3D ( 'NONE', #133, #836, #414 ) ;
#1129 = FACE_OUTER_BOUND ( 'NONE', #745, .T. ) ;
#1130 = VECTOR ( 'NONE', #566, 39.37007874015748143 ) ;
#1131 = VECTOR ( 'NONE', #451, 39.37007874015748143 ) ;
#1132 = ADVANCED_FACE ( 'NONE', ( #154 ), #968, .F. ) ;
#1133 = AXIS2_PLACEMENT_3D ( 'NONE', #243, #561, #1059 ) ;
#1134 = AXIS2_PLACEMENT_3D ( 'NONE', #438, #335, #242 ) ;
#1135 = DIRECTION ( 'NONE',  ( 0.000000000000000000, -1.000000000000000000, 0.000000000000000000 ) ) ;
#1136 = CARTESIAN_POINT ( 'NONE',  ( 0.3559842519685038620, -1.433353985478702945E-32, 0.000000000000000000 ) ) ;
#1137 = ORIENTED_EDGE ( 'NONE', *, *, #1117, .F. ) ;
#1138 = DIRECTION ( 'NONE',  ( -5.772027492032979679E-33, 1.000000000000000000, 0.000000000000000000 ) ) ;
#1139 = ADVANCED_FACE ( 'NONE', ( #1268 ), #1218, .T. ) ;
#1140 = DIRECTION ( 'NONE',  ( -1.000000000000000000, 5.772027492032979679E-33, 0.000000000000000000 ) ) ;
#1141 = LINE ( 'NONE', #424, #1307 ) ;
#1142 = ORIENTED_EDGE ( 'NONE', *, *, #405, .T. ) ;
#1143 = FACE_OUTER_BOUND ( 'NONE', #766, .T. ) ;
#1144 = ORIENTED_EDGE ( 'NONE', *, *, #94, .T. ) ;
#1145 = CARTESIAN_POINT ( 'NONE',  ( 0.5000000000000000000, -0.06749999999999993505, 0.000000000000000000 ) ) ;
#1146 = EDGE_LOOP ( 'NONE', ( #602, #1316, #57, #832 ) ) ;
#1147 = FACE_OUTER_BOUND ( 'NONE', #215, .T. ) ;
#1148 = ORIENTED_EDGE ( 'NONE', *, *, #540, .T. ) ;
#1149 = AXIS2_PLACEMENT_3D ( 'NONE', #47, #656, #1254 ) ;
#1150 = AXIS2_PLACEMENT_3D ( 'NONE', #598, #274, #1124 ) ;
#1151 = CIRCLE ( 'NONE', #501, 0.2187500000000000000 ) ;
#1152 = ORIENTED_EDGE ( 'NONE', *, *, #912, .F. ) ;
#1153 = CARTESIAN_POINT ( 'NONE',  ( -0.4799999999999995937, -1.504936216186985916E-32, 0.000000000000000000 ) ) ;
#1154 = MECHANICAL_DESIGN_GEOMETRIC_PRESENTATION_REPRESENTATION (  '', ( #269 ), #586 ) ;
#1155 = FACE_OUTER_BOUND ( 'NONE', #382, .T. ) ;
#1156 = ORIENTED_EDGE ( 'NONE', *, *, #1032, .F. ) ;
#1157 = EDGE_CURVE ( 'NONE', #837, #666, #422, .T. ) ;
#1158 = DIRECTION ( 'NONE',  ( 0.000000000000000000, -1.000000000000000000, 0.000000000000000000 ) ) ;
#1159 = EDGE_CURVE ( 'NONE', #666, #1014, #931, .T. ) ;
#1160 = ORIENTED_EDGE ( 'NONE', *, *, #788, .T. ) ;
#1161 = FACE_OUTER_BOUND ( 'NONE', #468, .T. ) ;
#1162 = DIRECTION ( 'NONE',  ( -1.000000000000000000, 5.772027492032979679E-33, 0.000000000000000000 ) ) ;
#1163 = ORIENTED_EDGE ( 'NONE', *, *, #307, .T. ) ;
#1164 = CARTESIAN_POINT ( 'NONE',  ( -0.2179866609175246939, -1.353701396540645447E-32, 0.000000000000000000 ) ) ;
#1165 = EDGE_LOOP ( 'NONE', ( #59, #901, #109, #25 ) ) ;
#1166 = ORIENTED_EDGE ( 'NONE', *, *, #1099, .T. ) ;
#1167 = DIRECTION ( 'NONE',  ( 0.000000000000000000, -1.000000000000000000, 0.000000000000000000 ) ) ;
#1168 = CARTESIAN_POINT ( 'NONE',  ( -0.3538675134594811977, -0.2187500000000000000, 0.000000000000000000 ) ) ;
#1169 = VERTEX_POINT ( 'NONE', #241 ) ;
#1170 = DIRECTION ( 'NONE',  ( 0.000000000000000000, -1.000000000000000000, 0.000000000000000000 ) ) ;
#1171 = ADVANCED_FACE ( 'NONE', ( #1072 ), #80, .F. ) ;
#1172 = AXIS2_PLACEMENT_3D ( 'NONE', #339, #1175, #136 ) ;
#1173 = VECTOR ( 'NONE', #806, 39.37007874015748143 ) ;
#1174 = EDGE_LOOP ( 'NONE', ( #445, #65, #16, #151 ) ) ;
#1175 = DIRECTION ( 'NONE',  ( -1.000000000000000000, 5.772027492032979679E-33, 0.000000000000000000 ) ) ;
#1176 = EDGE_CURVE ( 'NONE', #939, #419, #116, .T. ) ;
#1177 = CONICAL_SURFACE ( 'NONE', #323, 0.2187499999999999445, 1.047197551196598297 ) ;
#1178 = PRESENTATION_LAYER_ASSIGNMENT (  '', '', ( #269 ) ) ;
#1179 = LINE ( 'NONE', #340, #913 ) ;
#1180 = VERTEX_POINT ( 'NONE', #1183 ) ;
#1181 = UNCERTAINTY_MEASURE_WITH_UNIT (LENGTH_MEASURE( 1.000000000000000082E-05 ), #884, 'distance_accuracy_value', 'NONE');
#1182 = DIRECTION ( 'NONE',  ( 0.000000000000000000, -1.000000000000000000, 0.000000000000000000 ) ) ;
#1183 = CARTESIAN_POINT ( 'NONE',  ( -0.3538675134594811977, -0.2187500000000000000, 0.000000000000000000 ) ) ;
#1184 = ADVANCED_FACE ( 'NONE', ( #1262 ), #255, .F. ) ;
#1185 = LINE ( 'NONE', #1168, #457 ) ;
#1186 = VERTEX_POINT ( 'NONE', #317 ) ;
#1187 = FACE_OUTER_BOUND ( 'NONE', #1267, .T. ) ;
#1188 = ORIENTED_EDGE ( 'NONE', *, *, #1226, .T. ) ;
#1189 = CARTESIAN_POINT ( 'NONE',  ( 0.3759842519685039353, 0.1104330708661417082, -1.352415067562332788E-17 ) ) ;
#1190 = CARTESIAN_POINT ( 'NONE',  ( -0.5000000000000000000, -0.1804330708661422977, 0.000000000000000000 ) ) ;
#1191 = ORIENTED_EDGE ( 'NONE', *, *, #172, .T. ) ;
#1192 = DIRECTION ( 'NONE',  ( 0.000000000000000000, -1.000000000000000000, 0.000000000000000000 ) ) ;
#1193 = ORIENTED_EDGE ( 'NONE', *, *, #36, .T. ) ;
#1194 = CARTESIAN_POINT ( 'NONE',  ( 0.2711324865405188578, -1.384377313198916593E-32, 0.000000000000000000 ) ) ;
#1195 = CYLINDRICAL_SURFACE ( 'NONE', #868, 0.1604330708661417526 ) ;
#1196 = CIRCLE ( 'NONE', #1238, 0.2187500000000000000 ) ;
#1197 = CARTESIAN_POINT ( 'NONE',  ( 0.3759842519685038797, 0.1604330708661417526, -1.964738467136009885E-17 ) ) ;
#1198 = ADVANCED_FACE ( 'NONE', ( #448 ), #534, .T. ) ;
#1199 = AXIS2_PLACEMENT_3D ( 'NONE', #812, #411, #1249 ) ;
#1200 = ORIENTED_EDGE ( 'NONE', *, *, #982, .T. ) ;
#1201 = EDGE_CURVE ( 'NONE', #727, #427, #223, .T. ) ;
#1202 = FACE_OUTER_BOUND ( 'NONE', #465, .T. ) ;
#1203 = LINE ( 'NONE', #1315, #409 ) ;
#1204 = FACE_OUTER_BOUND ( 'NONE', #973, .T. ) ;
#1205 = DIRECTION ( 'NONE',  ( -1.000000000000000000, -5.772027492032979679E-33, -0.000000000000000000 ) ) ;
#1206 = ORIENTED_EDGE ( 'NONE', *, *, #997, .T. ) ;
#1207 = LINE ( 'NONE', #93, #753 ) ;
#1208 = DIRECTION ( 'NONE',  ( 1.000000000000000000, 0.000000000000000000, 0.000000000000000000 ) ) ;
#1209 = CARTESIAN_POINT ( 'NONE',  ( -0.2461324865405188633, 0.2187499999999999445, 2.678914873134834756E-17 ) ) ;
#1210 = FACE_OUTER_BOUND ( 'NONE', #1146, .T. ) ;
#1211 = ORIENTED_EDGE ( 'NONE', *, *, #1054, .F. ) ;
#1212 = DIRECTION ( 'NONE',  ( 0.000000000000000000, -1.000000000000000000, 0.000000000000000000 ) ) ;
#1213 = CARTESIAN_POINT ( 'NONE',  ( -0.5000000000000000000, -1.516480271171051896E-32, 0.000000000000000000 ) ) ;
#1214 = EDGE_CURVE ( 'NONE', #1169, #1028, #437, .T. ) ;
#1215 = VERTEX_POINT ( 'NONE', #737 ) ;
#1216 = ADVANCED_FACE ( 'NONE', ( #1161 ), #235, .T. ) ;
#1217 = FACE_OUTER_BOUND ( 'NONE', #51, .T. ) ;
#1218 = CONICAL_SURFACE ( 'NONE', #1172, 0.1687499999999999833, 1.047197551196600296 ) ;
#1219 = CIRCLE ( 'NONE', #517, 0.2187500000000000000 ) ;
#1220 = DIRECTION ( 'NONE',  ( -1.000000000000000000, 5.772027492032979679E-33, 0.000000000000000000 ) ) ;
#1221 = ORIENTED_EDGE ( 'NONE', *, *, #903, .T. ) ;
#1222 = VECTOR ( 'NONE', #40, 39.37007874015748143 ) ;
#1223 = DIRECTION ( 'NONE',  ( 0.000000000000000000, -1.000000000000000000, 0.000000000000000000 ) ) ;
#1224 = AXIS2_PLACEMENT_3D ( 'NONE', #1136, #921, #601 ) ;
#1225 = DIRECTION ( 'NONE',  ( 0.000000000000000000, -1.000000000000000000, 0.000000000000000000 ) ) ;
#1226 = EDGE_CURVE ( 'NONE', #562, #222, #954, .T. ) ;
#1227 = DIRECTION ( 'NONE',  ( 1.000000000000000000, -5.772027492032979679E-33, -0.000000000000000000 ) ) ;
#1228 = VERTEX_POINT ( 'NONE', #793 ) ;
#1229 = CARTESIAN_POINT ( 'NONE',  ( -0.5000000000000000000, -0.1699999999999999845, 0.000000000000000000 ) ) ;
#1230 = CARTESIAN_POINT ( 'NONE',  ( -0.3538675134594811977, -1.432132198191950487E-32, 0.000000000000000000 ) ) ;
#1231 = DIRECTION ( 'NONE',  ( 1.000000000000000000, -5.772027492032979679E-33, -0.000000000000000000 ) ) ;
#1232 = ORIENTED_EDGE ( 'NONE', *, *, #1159, .F. ) ;
#1233 = FACE_OUTER_BOUND ( 'NONE', #229, .T. ) ;
#1234 = CARTESIAN_POINT ( 'NONE',  ( -0.1131889763779527908, 0.06299212598425203702, 7.714310545810107374E-18 ) ) ;
#1235 = DIRECTION ( 'NONE',  ( -1.000000000000000000, -5.772027492032979679E-33, -0.000000000000000000 ) ) ;
#1236 = ORIENTED_EDGE ( 'NONE', *, *, #350, .T. ) ;
#1237 = AXIS2_PLACEMENT_3D ( 'NONE', #705, #1125, #506 ) ;
#1238 = AXIS2_PLACEMENT_3D ( 'NONE', #380, #278, #475 ) ;
#1239 = DIRECTION ( 'NONE',  ( 0.000000000000000000, -1.000000000000000000, 0.000000000000000000 ) ) ;
#1240 = AXIS2_PLACEMENT_3D ( 'NONE', #264, #644, #168 ) ;
#1241 = EDGE_CURVE ( 'NONE', #688, #232, #61, .T. ) ;
#1242 = AXIS2_PLACEMENT_3D ( 'NONE', #686, #985, #193 ) ;
#1243 = CIRCLE ( 'NONE', #1282, 0.09043307086614177370 ) ;
#1244 = DIRECTION ( 'NONE',  ( 0.000000000000000000, -1.000000000000000000, 0.000000000000000000 ) ) ;
#1245 = CARTESIAN_POINT ( 'NONE',  ( -0.2999999999999999889, 0.1687499999999999833, 0.000000000000000000 ) ) ;
#1246 = EDGE_LOOP ( 'NONE', ( #661, #805, #1193, #527 ) ) ;
#1247 = LINE ( 'NONE', #1251, #389 ) ;
#1248 = DIRECTION ( 'NONE',  ( 0.000000000000000000, -1.000000000000000000, 0.000000000000000000 ) ) ;
#1249 = DIRECTION ( 'NONE',  ( 0.000000000000000000, -1.000000000000000000, 0.000000000000000000 ) ) ;
#1250 = VERTEX_POINT ( 'NONE', #1092 ) ;
#1251 = CARTESIAN_POINT ( 'NONE',  ( -0.5000000000000000000, -0.1604330708661417526, 0.000000000000000000 ) ) ;
#1252 = ORIENTED_EDGE ( 'NONE', *, *, #293, .F. ) ;
#1253 = EDGE_CURVE ( 'NONE', #879, #341, #1203, .T. ) ;
#1254 = DIRECTION ( 'NONE',  ( 0.000000000000000000, -1.000000000000000000, 0.000000000000000000 ) ) ;
#1255 = ADVANCED_FACE ( 'NONE', ( #67 ), #1084, .F. ) ;
#1256 = SURFACE_STYLE_FILL_AREA ( #714 ) ;
#1257 = ORIENTED_EDGE ( 'NONE', *, *, #1201, .F. ) ;
#1258 = CARTESIAN_POINT ( 'NONE',  ( -0.5000000000000000000, -1.516480271171051896E-32, 0.000000000000000000 ) ) ;
#1259 = ORIENTED_EDGE ( 'NONE', *, *, #307, .F. ) ;
#1260 = CIRCLE ( 'NONE', #673, 0.1604330708661417526 ) ;
#1261 = VECTOR ( 'NONE', #1325, 39.37007874015748143 ) ;
#1262 = FACE_OUTER_BOUND ( 'NONE', #568, .T. ) ;
#1263 = VECTOR ( 'NONE', #1235, 39.37007874015748143 ) ;
#1264 = DIRECTION ( 'NONE',  ( -1.000000000000000000, -5.772027492032979679E-33, -0.000000000000000000 ) ) ;
#1265 = VERTEX_POINT ( 'NONE', #1297 ) ;
#1266 = CARTESIAN_POINT ( 'NONE',  ( -0.3759842519685039353, -1.444898040462768925E-32, 0.000000000000000000 ) ) ;
#1267 = EDGE_LOOP ( 'NONE', ( #970, #1191, #798, #1270 ) ) ;
#1268 = FACE_OUTER_BOUND ( 'NONE', #1011, .T. ) ;
#1269 = DIRECTION ( 'NONE',  ( -1.000000000000000000, 5.772027492032979679E-33, 0.000000000000000000 ) ) ;
#1270 = ORIENTED_EDGE ( 'NONE', *, *, #312, .F. ) ;
#1271 = DIRECTION ( 'NONE',  ( -1.000000000000000000, -5.772027492032979679E-33, -0.000000000000000000 ) ) ;
#1272 = APPLICATION_CONTEXT ( 'automotive_design' ) ;
#1273 = EDGE_CURVE ( 'NONE', #651, #338, #479, .T. ) ;
#1274 = EDGE_LOOP ( 'NONE', ( #192, #261, #1009, #396 ) ) ;
#1275 = ADVANCED_FACE ( 'NONE', ( #573 ), #30, .T. ) ;
#1276 = VERTEX_POINT ( 'NONE', #1006 ) ;
#1277 = CARTESIAN_POINT ( 'NONE',  ( -0.3759842519685039353, -1.444898040462768925E-32, 0.000000000000000000 ) ) ;
#1278 = DIRECTION ( 'NONE',  ( -5.772027492032979679E-33, 1.000000000000000000, 0.000000000000000000 ) ) ;
#1279 = ORIENTED_EDGE ( 'NONE', *, *, #850, .T. ) ;
#1280 = CARTESIAN_POINT ( 'NONE',  ( -0.5000000000000000000, 0.06749999999999993505, 8.266365894244625089E-18 ) ) ;
#1281 = EDGE_CURVE ( 'NONE', #428, #439, #911, .T. ) ;
#1282 = AXIS2_PLACEMENT_3D ( 'NONE', #761, #547, #1049 ) ;
#1283 = CARTESIAN_POINT ( 'NONE',  ( -0.4799999999999995937, -1.504936216186985916E-32, 0.000000000000000000 ) ) ;
#1284 = AXIS2_PLACEMENT_3D ( 'NONE', #1164, #746, #1170 ) ;
#1285 = CIRCLE ( 'NONE', #121, 0.1687499999999999833 ) ;
#1286 = PLANE ( 'NONE',  #980 ) ;
#1287 = ORIENTED_EDGE ( 'NONE', *, *, #572, .F. ) ;
#1288 = AXIS2_PLACEMENT_3D ( 'NONE', #811, #552, #443 ) ;
#1289 = CARTESIAN_POINT ( 'NONE',  ( 0.3250000000000000111, 0.1687500000000000111, -2.066591473561158891E-17 ) ) ;
#1290 = EDGE_LOOP ( 'NONE', ( #1156, #234, #895, #175 ) ) ;
#1291 = DIRECTION ( 'NONE',  ( -1.000000000000000000, -5.772027492032979679E-33, -0.000000000000000000 ) ) ;
#1292 = EDGE_CURVE ( 'NONE', #865, #735, #10, .T. ) ;
#1293 = CARTESIAN_POINT ( 'NONE',  ( -0.3759842519685039353, -0.1104330708661417082, 0.000000000000000000 ) ) ;
#1294 = ORIENTED_EDGE ( 'NONE', *, *, #273, .T. ) ;
#1295 = FACE_OUTER_BOUND ( 'NONE', #467, .T. ) ;
#1296 = EDGE_LOOP ( 'NONE', ( #92, #1259, #1068, #978 ) ) ;
#1297 = CARTESIAN_POINT ( 'NONE',  ( -0.3759842519685038797, 0.1604330708661417526, 1.964738467136009885E-17 ) ) ;
#1298 = LINE ( 'NONE', #776, #55 ) ;
#1299 = DIRECTION ( 'NONE',  ( 0.000000000000000000, -1.000000000000000000, 0.000000000000000000 ) ) ;
#1300 = EDGE_LOOP ( 'NONE', ( #374, #557, #89, #907 ) ) ;
#1301 = ORIENTED_EDGE ( 'NONE', *, *, #645, .F. ) ;
#1302 = DIRECTION ( 'NONE',  ( -1.000000000000000000, 5.772027492032979679E-33, 0.000000000000000000 ) ) ;
#1303 = CIRCLE ( 'NONE', #266, 0.09043307086614177370 ) ;
#1304 = CARTESIAN_POINT ( 'NONE',  ( -0.5000000000000000000, 0.06299212598425202314, 7.714310545810105834E-18 ) ) ;
#1305 = CIRCLE ( 'NONE', #11, 0.1604330708661417526 ) ;
#1306 = FACE_OUTER_BOUND ( 'NONE', #1300, .T. ) ;
#1307 = VECTOR ( 'NONE', #399, 39.37007874015748143 ) ;
#1308 = EDGE_LOOP ( 'NONE', ( #1232, #554 ) ) ;
#1309 = CARTESIAN_POINT ( 'NONE',  ( 0.4999999999999999445, -1.516480271171051896E-32, 0.000000000000000000 ) ) ;
#1310 = DIRECTION ( 'NONE',  ( 0.7071067811865496822, -0.7071067811865453523, 0.000000000000000000 ) ) ;
#1311 = FACE_BOUND ( 'NONE', #452, .T. ) ;
#1312 = VERTEX_POINT ( 'NONE', #578 ) ;
#1313 = CARTESIAN_POINT ( 'NONE',  ( 0.2179866609175246939, -0.1699999999999999845, 0.000000000000000000 ) ) ;
#1314 = EDGE_CURVE ( 'NONE', #439, #1077, #1104, .T. ) ;
#1315 = CARTESIAN_POINT ( 'NONE',  ( 0.5000000000000000000, 0.1687500000000000111, -2.066591473561158891E-17 ) ) ;
#1316 = ORIENTED_EDGE ( 'NONE', *, *, #1117, .T. ) ;
#1317 = LINE ( 'NONE', #579, #783 ) ;
#1318 = DIRECTION ( 'NONE',  ( -1.000000000000000000, 5.772027492032979679E-33, 0.000000000000000000 ) ) ;
#1319 = ORIENTED_EDGE ( 'NONE', *, *, #871, .T. ) ;
#1320 = DIRECTION ( 'NONE',  ( -1.000000000000000000, -5.772027492032979679E-33, -0.000000000000000000 ) ) ;
#1321 = EDGE_CURVE ( 'NONE', #1265, #749, #1002, .T. ) ;
#1322 = DIRECTION ( 'NONE',  ( 1.000000000000000000, -5.772027492032979679E-33, -0.000000000000000000 ) ) ;
#1323 = AXIS2_PLACEMENT_3D ( 'NONE', #21, #1140, #614 ) ;
#1324 = CONICAL_SURFACE ( 'NONE', #606, 0.2187500000000000000, 1.047197551196598964 ) ;
#1325 = DIRECTION ( 'NONE',  ( 1.000000000000000000, -5.772027492032979679E-33, -0.000000000000000000 ) ) ;
#1326 = ORIENTED_EDGE ( 'NONE', *, *, #350, .F. ) ;
#1327 = VECTOR ( 'NONE', #463, 39.37007874015748143 ) ;
#1328 = VECTOR ( 'NONE', #360, 39.37007874015748143 ) ;
#1329 = CARTESIAN_POINT ( 'NONE',  ( 0.2999999999999999889, -1.401039721330392371E-32, 0.000000000000000000 ) ) ;
#1330 = CARTESIAN_POINT ( 'NONE',  ( -0.5000000000000000000, -1.516480271171051896E-32, 0.000000000000000000 ) ) ;
#1331 = ORIENTED_EDGE ( 'NONE', *, *, #762, .F. ) ;
#1332 = DIRECTION ( 'NONE',  ( 0.000000000000000000, -1.000000000000000000, 0.000000000000000000 ) ) ;
#1333 = CARTESIAN_POINT ( 'NONE',  ( 0.3250000000000000111, -0.1687500000000000111, 0.000000000000000000 ) ) ;
#1334 = EDGE_CURVE ( 'NONE', #232, #289, #367, .T. ) ;
#1335 = FILL_AREA_STYLE_COLOUR ( '', #675 ) ;
ENDSEC;
END-ISO-10303-21;
